%TF.GenerationSoftware,KiCad,Pcbnew,7.0.5*%
%TF.CreationDate,2023-08-13T15:56:35+02:00*%
%TF.ProjectId,Sorbus-Chipset-PurplePico,536f7262-7573-42d4-9368-69707365742d,rev?*%
%TF.SameCoordinates,Original*%
%TF.FileFunction,Copper,L1,Top*%
%TF.FilePolarity,Positive*%
%FSLAX46Y46*%
G04 Gerber Fmt 4.6, Leading zero omitted, Abs format (unit mm)*
G04 Created by KiCad (PCBNEW 7.0.5) date 2023-08-13 15:56:35*
%MOMM*%
%LPD*%
G01*
G04 APERTURE LIST*
%TA.AperFunction,ComponentPad*%
%ADD10O,1.700000X1.700000*%
%TD*%
%TA.AperFunction,ComponentPad*%
%ADD11R,1.700000X1.700000*%
%TD*%
%TA.AperFunction,ViaPad*%
%ADD12C,0.800000*%
%TD*%
%TA.AperFunction,Conductor*%
%ADD13C,0.500000*%
%TD*%
%TA.AperFunction,Conductor*%
%ADD14C,0.250000*%
%TD*%
G04 APERTURE END LIST*
D10*
%TO.P,U1,1,GPIO0*%
%TO.N,A0*%
X45720000Y-45720000D03*
%TO.P,U1,2,GPIO1*%
%TO.N,A1*%
X48260000Y-45720000D03*
%TO.P,U1,3,GPIO2*%
%TO.N,A2*%
X50800000Y-45720000D03*
%TO.P,U1,4,GPIO3*%
%TO.N,A3*%
X53340000Y-45720000D03*
%TO.P,U1,5,GPIO4*%
%TO.N,A4*%
X55880000Y-45720000D03*
D11*
%TO.P,U1,6,GND*%
%TO.N,GND*%
X58420000Y-45720000D03*
D10*
%TO.P,U1,7,GPIO5*%
%TO.N,A5*%
X60960000Y-45720000D03*
%TO.P,U1,8,GPIO6*%
%TO.N,A6*%
X63500000Y-45720000D03*
%TO.P,U1,9,GPIO7*%
%TO.N,A7*%
X66040000Y-45720000D03*
%TO.P,U1,10,GPIO8*%
%TO.N,A8*%
X68580000Y-45720000D03*
%TO.P,U1,11,GPIO9*%
%TO.N,A9*%
X71120000Y-45720000D03*
%TO.P,U1,12,GPIO10*%
%TO.N,A10*%
X73660000Y-45720000D03*
%TO.P,U1,13,GPIO11*%
%TO.N,A11*%
X76200000Y-45720000D03*
%TO.P,U1,14,GPIO12*%
%TO.N,A12*%
X78740000Y-45720000D03*
D11*
%TO.P,U1,15,GND*%
%TO.N,GND*%
X81280000Y-45720000D03*
D10*
%TO.P,U1,16,GPIO13*%
%TO.N,A13*%
X83820000Y-45720000D03*
%TO.P,U1,17,GPIO14*%
%TO.N,A14*%
X86360000Y-45720000D03*
%TO.P,U1,18,GPIO15*%
%TO.N,A15*%
X88900000Y-45720000D03*
%TO.P,U1,19,GPIO16*%
%TO.N,D0*%
X91440000Y-45720000D03*
%TO.P,U1,20,GPIO17*%
%TO.N,D1*%
X93980000Y-45720000D03*
%TO.P,U1,21,GPIO18*%
%TO.N,D2*%
X93980000Y-27940000D03*
%TO.P,U1,22,GPIO19*%
%TO.N,D3*%
X91440000Y-27940000D03*
%TO.P,U1,23,GPIO20*%
%TO.N,D4*%
X88900000Y-27940000D03*
%TO.P,U1,24,GPIO21*%
%TO.N,D5*%
X86360000Y-27940000D03*
%TO.P,U1,25,GPIO22*%
%TO.N,D6*%
X83820000Y-27940000D03*
%TO.P,U1,26,GPIO23*%
%TO.N,D7*%
X81280000Y-27940000D03*
%TO.P,U1,27,GPIO24*%
%TO.N,R~W*%
X78740000Y-27940000D03*
%TO.P,U1,28,GPIO25*%
%TO.N,CLK*%
X76200000Y-27940000D03*
D11*
%TO.P,U1,29,AGND*%
%TO.N,GND*%
X73660000Y-27940000D03*
D10*
%TO.P,U1,30,GPIO26_ADC0*%
%TO.N,RDY*%
X71120000Y-27940000D03*
%TO.P,U1,31,GPIO27_ADC1*%
%TO.N,~{IRQ}*%
X68580000Y-27940000D03*
%TO.P,U1,32,GPIO28_ADC2*%
%TO.N,~{NMI}*%
X66040000Y-27940000D03*
%TO.P,U1,33,GPIO29_ADC3*%
%TO.N,~{RESET}*%
X63500000Y-27940000D03*
%TO.P,U1,34,RUN*%
%TO.N,RUN*%
X60960000Y-27940000D03*
D11*
%TO.P,U1,35,GND*%
%TO.N,unconnected-(U1-GND-Pad35)*%
X58420000Y-27940000D03*
D10*
%TO.P,U1,36,3V3*%
%TO.N,3V3*%
X55880000Y-27940000D03*
%TO.P,U1,37,3V3_EN*%
%TO.N,unconnected-(U1-3V3_EN-Pad37)*%
X53340000Y-27940000D03*
D11*
%TO.P,U1,38,GND*%
%TO.N,GND*%
X50800000Y-27940000D03*
D10*
%TO.P,U1,39,VIN*%
%TO.N,unconnected-(U1-VIN-Pad39)*%
X48260000Y-27940000D03*
%TO.P,U1,40,VBUS*%
%TO.N,VBUS*%
X45720000Y-27940000D03*
%TD*%
D11*
%TO.P,J2,1,Pin_1*%
%TO.N,VBUS*%
X33020000Y-45720000D03*
D10*
%TO.P,J2,2,Pin_2*%
%TO.N,VCC*%
X33020000Y-48260000D03*
%TO.P,J2,3,Pin_3*%
%TO.N,3V3*%
X33020000Y-50800000D03*
%TO.P,J2,4,Pin_4*%
%TO.N,RUN*%
X33020000Y-53340000D03*
%TO.P,J2,5,Pin_5*%
%TO.N,GND*%
X33020000Y-55880000D03*
%TD*%
D11*
%TO.P,J1,1,Pin_1*%
%TO.N,GND*%
X27940000Y-63500000D03*
D10*
%TO.P,J1,2,Pin_2*%
%TO.N,VCC*%
X30480000Y-63500000D03*
%TO.P,J1,3,Pin_3*%
%TO.N,A0*%
X33020000Y-63500000D03*
%TO.P,J1,4,Pin_4*%
%TO.N,A1*%
X35560000Y-63500000D03*
%TO.P,J1,5,Pin_5*%
%TO.N,A2*%
X38100000Y-63500000D03*
%TO.P,J1,6,Pin_6*%
%TO.N,A3*%
X40640000Y-63500000D03*
%TO.P,J1,7,Pin_7*%
%TO.N,A4*%
X43180000Y-63500000D03*
%TO.P,J1,8,Pin_8*%
%TO.N,A5*%
X45720000Y-63500000D03*
%TO.P,J1,9,Pin_9*%
%TO.N,A6*%
X48260000Y-63500000D03*
%TO.P,J1,10,Pin_10*%
%TO.N,A7*%
X50800000Y-63500000D03*
%TO.P,J1,11,Pin_11*%
%TO.N,A8*%
X53340000Y-63500000D03*
%TO.P,J1,12,Pin_12*%
%TO.N,A9*%
X55880000Y-63500000D03*
%TO.P,J1,13,Pin_13*%
%TO.N,A10*%
X58420000Y-63500000D03*
%TO.P,J1,14,Pin_14*%
%TO.N,A11*%
X60960000Y-63500000D03*
%TO.P,J1,15,Pin_15*%
%TO.N,A12*%
X63500000Y-63500000D03*
%TO.P,J1,16,Pin_16*%
%TO.N,A13*%
X66040000Y-63500000D03*
%TO.P,J1,17,Pin_17*%
%TO.N,A14*%
X68580000Y-63500000D03*
%TO.P,J1,18,Pin_18*%
%TO.N,A15*%
X71120000Y-63500000D03*
%TO.P,J1,19,Pin_19*%
%TO.N,D0*%
X73660000Y-63500000D03*
%TO.P,J1,20,Pin_20*%
%TO.N,D1*%
X76200000Y-63500000D03*
%TO.P,J1,21,Pin_21*%
%TO.N,D2*%
X78740000Y-63500000D03*
%TO.P,J1,22,Pin_22*%
%TO.N,D3*%
X81280000Y-63500000D03*
%TO.P,J1,23,Pin_23*%
%TO.N,D4*%
X83820000Y-63500000D03*
%TO.P,J1,24,Pin_24*%
%TO.N,D5*%
X86360000Y-63500000D03*
%TO.P,J1,25,Pin_25*%
%TO.N,D6*%
X88900000Y-63500000D03*
%TO.P,J1,26,Pin_26*%
%TO.N,D7*%
X91440000Y-63500000D03*
%TO.P,J1,27,Pin_27*%
%TO.N,R~W*%
X93980000Y-63500000D03*
%TO.P,J1,28,Pin_28*%
%TO.N,CLK*%
X96520000Y-63500000D03*
%TO.P,J1,29,Pin_29*%
%TO.N,RDY*%
X99060000Y-63500000D03*
%TO.P,J1,30,Pin_30*%
%TO.N,~{IRQ}*%
X101600000Y-63500000D03*
%TO.P,J1,31,Pin_31*%
%TO.N,~{NMI}*%
X104140000Y-63500000D03*
%TO.P,J1,32,Pin_32*%
%TO.N,~{RESET}*%
X106680000Y-63500000D03*
%TD*%
D12*
%TO.N,GND*%
X95250000Y-60960000D03*
X85090000Y-60960000D03*
X67310000Y-60960000D03*
X55880000Y-48260000D03*
X74930000Y-48260000D03*
X105410000Y-60960000D03*
X52070000Y-48260000D03*
X67310000Y-30480000D03*
X77470000Y-60960000D03*
X44450000Y-60960000D03*
X44450000Y-48260000D03*
X35560000Y-49530000D03*
X64770000Y-48260000D03*
X36830000Y-60960000D03*
X90170000Y-48260000D03*
X85090000Y-30480000D03*
X59690000Y-48260000D03*
X64770000Y-30480000D03*
X82550000Y-60960000D03*
X76200000Y-43180000D03*
X62230000Y-60960000D03*
X95250000Y-48260000D03*
X57150000Y-60960000D03*
X90170000Y-30480000D03*
X52070000Y-60960000D03*
X87630000Y-48260000D03*
X39370000Y-60960000D03*
X82550000Y-30480000D03*
X102870000Y-60960000D03*
X97790000Y-60960000D03*
X41910000Y-60960000D03*
X77470000Y-48260000D03*
X49530000Y-48260000D03*
X73660000Y-43180000D03*
X64770000Y-60960000D03*
X76200000Y-30480000D03*
X69850000Y-60960000D03*
X85090000Y-48260000D03*
X31750000Y-60960000D03*
X74930000Y-60960000D03*
X78740000Y-43180000D03*
X59690000Y-60960000D03*
X67310000Y-48260000D03*
X34290000Y-60960000D03*
X62230000Y-48260000D03*
X80010000Y-30480000D03*
X100330000Y-60960000D03*
X92710000Y-60960000D03*
X46990000Y-60960000D03*
X90170000Y-60960000D03*
X69850000Y-30480000D03*
X92710000Y-48260000D03*
X82550000Y-48260000D03*
X87630000Y-60960000D03*
X72390000Y-48260000D03*
X54610000Y-60960000D03*
X80010000Y-48260000D03*
X49530000Y-60960000D03*
X72390000Y-60960000D03*
X87630000Y-30480000D03*
X55880000Y-30480000D03*
X46990000Y-48260000D03*
X92710000Y-30480000D03*
X62230000Y-30480000D03*
X80010000Y-60960000D03*
X72390000Y-30480000D03*
X69850000Y-48260000D03*
%TO.N,D3*%
X97155000Y-30480000D03*
%TO.N,D4*%
X99060000Y-32385000D03*
%TO.N,D5*%
X100965000Y-34925000D03*
%TO.N,D6*%
X102870000Y-36830000D03*
%TO.N,D7*%
X104775000Y-38735000D03*
%TO.N,R~W*%
X106680000Y-40640000D03*
%TO.N,CLK*%
X108585000Y-42545000D03*
%TO.N,RDY*%
X71120000Y-41910000D03*
%TO.N,~{IRQ}*%
X68580000Y-40005000D03*
%TO.N,~{NMI}*%
X66040000Y-38100000D03*
%TO.N,~{RESET}*%
X63500000Y-36195000D03*
%TD*%
D13*
%TO.N,VCC*%
X33020000Y-48260000D02*
X30480000Y-50800000D01*
X30480000Y-50800000D02*
X30480000Y-63500000D01*
D14*
%TO.N,A0*%
X33020000Y-58420000D02*
X33020000Y-63500000D01*
X45720000Y-45720000D02*
X33020000Y-58420000D01*
%TO.N,A1*%
X35560000Y-63500000D02*
X35560000Y-58420000D01*
X35560000Y-58420000D02*
X48260000Y-45720000D01*
%TO.N,A2*%
X38100000Y-58420000D02*
X50800000Y-45720000D01*
X38100000Y-63500000D02*
X38100000Y-58420000D01*
%TO.N,A3*%
X40640000Y-58420000D02*
X53340000Y-45720000D01*
X40640000Y-63500000D02*
X40640000Y-58420000D01*
%TO.N,A4*%
X43180000Y-63500000D02*
X43180000Y-58420000D01*
X43180000Y-58420000D02*
X55880000Y-45720000D01*
%TO.N,A5*%
X60960000Y-45720000D02*
X45720000Y-60960000D01*
X45720000Y-60960000D02*
X45720000Y-63500000D01*
%TO.N,A6*%
X48260000Y-63500000D02*
X48260000Y-60960000D01*
X48260000Y-60960000D02*
X63500000Y-45720000D01*
%TO.N,A7*%
X50800000Y-60960000D02*
X66040000Y-45720000D01*
X50800000Y-63500000D02*
X50800000Y-60960000D01*
%TO.N,A8*%
X53340000Y-60960000D02*
X68580000Y-45720000D01*
X53340000Y-63500000D02*
X53340000Y-60960000D01*
%TO.N,A9*%
X55880000Y-63500000D02*
X55880000Y-60960000D01*
X55880000Y-60960000D02*
X71120000Y-45720000D01*
%TO.N,A10*%
X58420000Y-63500000D02*
X58420000Y-60960000D01*
X58420000Y-60960000D02*
X73660000Y-45720000D01*
%TO.N,A11*%
X60960000Y-63500000D02*
X60960000Y-60960000D01*
X60960000Y-60960000D02*
X76200000Y-45720000D01*
%TO.N,A12*%
X63500000Y-63500000D02*
X63500000Y-60960000D01*
X63500000Y-60960000D02*
X78740000Y-45720000D01*
%TO.N,A13*%
X83820000Y-45720000D02*
X66040000Y-63500000D01*
%TO.N,A14*%
X86360000Y-45720000D02*
X68580000Y-63500000D01*
%TO.N,A15*%
X88900000Y-45720000D02*
X71120000Y-63500000D01*
%TO.N,D0*%
X91440000Y-45720000D02*
X73660000Y-63500000D01*
%TO.N,D1*%
X93980000Y-45720000D02*
X76200000Y-63500000D01*
%TO.N,D2*%
X95155000Y-47085000D02*
X95155000Y-29115000D01*
X95155000Y-29115000D02*
X93980000Y-27940000D01*
X78740000Y-63500000D02*
X95155000Y-47085000D01*
%TO.N,D3*%
X97155000Y-47625000D02*
X97155000Y-30480000D01*
X96520000Y-48260000D02*
X97155000Y-47625000D01*
X81280000Y-63500000D02*
X96520000Y-48260000D01*
%TO.N,D4*%
X99060000Y-48260000D02*
X99060000Y-32385000D01*
X97790000Y-49530000D02*
X99060000Y-48260000D01*
X83820000Y-63500000D02*
X97790000Y-49530000D01*
%TO.N,D5*%
X86360000Y-63500000D02*
X99060000Y-50800000D01*
X99060000Y-50800000D02*
X100965000Y-48895000D01*
X100965000Y-48895000D02*
X100965000Y-34925000D01*
%TO.N,D6*%
X102870000Y-49530000D02*
X102870000Y-36830000D01*
X100330000Y-52070000D02*
X102870000Y-49530000D01*
X88900000Y-63500000D02*
X100330000Y-52070000D01*
%TO.N,D7*%
X101600000Y-53340000D02*
X104775000Y-50165000D01*
X104775000Y-50165000D02*
X104775000Y-38735000D01*
X91440000Y-63500000D02*
X101600000Y-53340000D01*
%TO.N,R~W*%
X93980000Y-63500000D02*
X102870000Y-54610000D01*
X102870000Y-54610000D02*
X106680000Y-50800000D01*
X106680000Y-50800000D02*
X106680000Y-40640000D01*
%TO.N,CLK*%
X104140000Y-55880000D02*
X108585000Y-51435000D01*
X96520000Y-63500000D02*
X104140000Y-55880000D01*
X108585000Y-51435000D02*
X108585000Y-42545000D01*
%TO.N,RDY*%
X71120000Y-27940000D02*
X71120000Y-41910000D01*
%TO.N,~{IRQ}*%
X68580000Y-27940000D02*
X68580000Y-40005000D01*
%TO.N,~{NMI}*%
X66040000Y-38100000D02*
X66040000Y-27940000D01*
%TO.N,~{RESET}*%
X63500000Y-36195000D02*
X63500000Y-27940000D01*
D13*
%TO.N,3V3*%
X33020000Y-50800000D02*
X55880000Y-27940000D01*
D14*
%TO.N,RUN*%
X33020000Y-53340000D02*
X50800000Y-35560000D01*
X53340000Y-35560000D02*
X60960000Y-27940000D01*
X50800000Y-35560000D02*
X53340000Y-35560000D01*
D13*
%TO.N,VBUS*%
X33020000Y-45720000D02*
X33020000Y-40640000D01*
X33020000Y-40640000D02*
X45720000Y-27940000D01*
%TD*%
%TA.AperFunction,Conductor*%
%TO.N,D4*%
G36*
X84935690Y-62212460D02*
G01*
X84938897Y-62214734D01*
X85105265Y-62381102D01*
X85108692Y-62389375D01*
X85108031Y-62393251D01*
X84609388Y-63813629D01*
X84603415Y-63820300D01*
X84594473Y-63820792D01*
X84593883Y-63820567D01*
X83823785Y-63502562D01*
X83817447Y-63496238D01*
X83499432Y-62726115D01*
X83499441Y-62717161D01*
X83505780Y-62710836D01*
X83506345Y-62710620D01*
X84926748Y-62211968D01*
X84935690Y-62212460D01*
G37*
%TD.AperFunction*%
%TD*%
%TA.AperFunction,Conductor*%
%TO.N,CLK*%
G36*
X97635690Y-62212460D02*
G01*
X97638897Y-62214734D01*
X97805265Y-62381102D01*
X97808692Y-62389375D01*
X97808031Y-62393251D01*
X97309388Y-63813629D01*
X97303415Y-63820300D01*
X97294473Y-63820792D01*
X97293883Y-63820567D01*
X96523785Y-63502562D01*
X96517447Y-63496238D01*
X96199432Y-62726115D01*
X96199441Y-62717161D01*
X96205780Y-62710836D01*
X96206345Y-62710620D01*
X97626748Y-62211968D01*
X97635690Y-62212460D01*
G37*
%TD.AperFunction*%
%TD*%
%TA.AperFunction,Conductor*%
%TO.N,A12*%
G36*
X63625912Y-61803427D02*
G01*
X63628186Y-61806634D01*
X64279950Y-63163586D01*
X64280442Y-63172528D01*
X64274469Y-63179199D01*
X64273892Y-63179457D01*
X63504489Y-63499134D01*
X63495534Y-63499143D01*
X63495511Y-63499134D01*
X62726107Y-63179457D01*
X62719782Y-63173118D01*
X62719791Y-63164163D01*
X62720049Y-63163586D01*
X63371814Y-61806634D01*
X63378485Y-61800661D01*
X63382361Y-61800000D01*
X63617639Y-61800000D01*
X63625912Y-61803427D01*
G37*
%TD.AperFunction*%
%TD*%
%TA.AperFunction,Conductor*%
%TO.N,GND*%
G36*
X109162539Y-17800185D02*
G01*
X109208294Y-17852989D01*
X109219500Y-17904500D01*
X109219500Y-41651020D01*
X109199815Y-41718059D01*
X109147011Y-41763814D01*
X109077853Y-41773758D01*
X109044269Y-41762136D01*
X109043666Y-41763492D01*
X108864807Y-41683857D01*
X108864802Y-41683855D01*
X108710320Y-41651020D01*
X108679646Y-41644500D01*
X108490354Y-41644500D01*
X108459680Y-41651020D01*
X108305197Y-41683855D01*
X108305192Y-41683857D01*
X108132270Y-41760848D01*
X108132265Y-41760851D01*
X107979129Y-41872111D01*
X107852466Y-42012785D01*
X107757821Y-42176715D01*
X107757818Y-42176722D01*
X107724819Y-42278284D01*
X107699326Y-42356744D01*
X107690343Y-42442214D01*
X107679540Y-42545000D01*
X107699326Y-42733256D01*
X107699328Y-42733262D01*
X107739621Y-42857274D01*
X107741181Y-42862989D01*
X107746602Y-42887390D01*
X107746607Y-42887406D01*
X107951489Y-43429390D01*
X107959500Y-43473236D01*
X107959500Y-51124546D01*
X107939815Y-51191585D01*
X107923181Y-51212227D01*
X103694995Y-55440411D01*
X103694991Y-55440417D01*
X97388504Y-61746903D01*
X97341897Y-61776222D01*
X96694537Y-62003487D01*
X96624762Y-62007120D01*
X96564099Y-61972453D01*
X96531809Y-61910493D01*
X96538143Y-61840911D01*
X96565779Y-61798809D01*
X103340120Y-55024470D01*
X103340119Y-55024469D01*
X103376426Y-54988164D01*
X103376439Y-54988149D01*
X105024589Y-53339999D01*
X107063786Y-51300802D01*
X107076048Y-51290980D01*
X107075865Y-51290759D01*
X107081873Y-51285788D01*
X107081877Y-51285786D01*
X107128649Y-51235977D01*
X107129891Y-51234697D01*
X107150120Y-51214470D01*
X107154373Y-51208986D01*
X107158150Y-51204563D01*
X107190062Y-51170582D01*
X107199714Y-51153023D01*
X107210389Y-51136772D01*
X107222674Y-51120936D01*
X107241186Y-51078152D01*
X107243742Y-51072935D01*
X107266197Y-51032092D01*
X107271180Y-51012680D01*
X107277477Y-50994291D01*
X107285438Y-50975895D01*
X107292729Y-50929853D01*
X107293908Y-50924162D01*
X107305500Y-50879019D01*
X107305500Y-50858982D01*
X107307027Y-50839582D01*
X107310160Y-50819804D01*
X107305775Y-50773415D01*
X107305500Y-50767577D01*
X107305500Y-41568235D01*
X107313511Y-41524389D01*
X107518390Y-40982410D01*
X107518391Y-40982406D01*
X107518394Y-40982399D01*
X107532580Y-40939054D01*
X107533016Y-40935674D01*
X107538066Y-40913221D01*
X107565672Y-40828262D01*
X107565671Y-40828262D01*
X107565674Y-40828256D01*
X107585460Y-40640000D01*
X107565674Y-40451744D01*
X107507179Y-40271716D01*
X107412533Y-40107784D01*
X107285871Y-39967112D01*
X107285870Y-39967111D01*
X107132734Y-39855851D01*
X107132729Y-39855848D01*
X106959807Y-39778857D01*
X106959802Y-39778855D01*
X106814000Y-39747865D01*
X106774646Y-39739500D01*
X106585354Y-39739500D01*
X106552897Y-39746398D01*
X106400197Y-39778855D01*
X106400192Y-39778857D01*
X106227270Y-39855848D01*
X106227265Y-39855851D01*
X106074129Y-39967111D01*
X105947466Y-40107785D01*
X105852821Y-40271715D01*
X105852818Y-40271722D01*
X105794327Y-40451740D01*
X105794326Y-40451744D01*
X105785343Y-40537214D01*
X105774540Y-40640000D01*
X105794326Y-40828256D01*
X105794328Y-40828262D01*
X105834621Y-40952274D01*
X105836181Y-40957989D01*
X105841602Y-40982390D01*
X105841607Y-40982406D01*
X106046489Y-41524390D01*
X106054500Y-41568236D01*
X106054500Y-50489546D01*
X106034815Y-50556585D01*
X106018181Y-50577227D01*
X102399880Y-54195529D01*
X102399876Y-54195533D01*
X94848504Y-61746903D01*
X94801897Y-61776222D01*
X94154537Y-62003487D01*
X94084762Y-62007120D01*
X94024099Y-61972453D01*
X93991809Y-61910493D01*
X93998143Y-61840911D01*
X94025780Y-61798809D01*
X102070120Y-53754470D01*
X102128679Y-53695911D01*
X102128692Y-53695896D01*
X105158788Y-50665801D01*
X105171042Y-50655986D01*
X105170859Y-50655764D01*
X105176868Y-50650791D01*
X105176877Y-50650786D01*
X105223607Y-50601022D01*
X105224846Y-50599743D01*
X105245120Y-50579471D01*
X105249379Y-50573978D01*
X105253152Y-50569561D01*
X105285062Y-50535582D01*
X105294715Y-50518020D01*
X105305389Y-50501770D01*
X105317673Y-50485936D01*
X105336180Y-50443167D01*
X105338749Y-50437924D01*
X105357771Y-50403323D01*
X105361197Y-50397092D01*
X105366177Y-50377691D01*
X105372478Y-50359288D01*
X105380438Y-50340896D01*
X105387730Y-50294849D01*
X105388911Y-50289152D01*
X105400500Y-50244019D01*
X105400500Y-50223983D01*
X105402027Y-50204582D01*
X105405160Y-50184803D01*
X105405160Y-50184800D01*
X105404022Y-50172768D01*
X105400772Y-50138394D01*
X105400500Y-50132599D01*
X105400500Y-39663235D01*
X105408511Y-39619389D01*
X105613390Y-39077410D01*
X105613391Y-39077406D01*
X105613394Y-39077399D01*
X105627580Y-39034054D01*
X105628016Y-39030674D01*
X105633066Y-39008221D01*
X105660672Y-38923262D01*
X105660671Y-38923262D01*
X105660674Y-38923256D01*
X105680460Y-38735000D01*
X105660674Y-38546744D01*
X105602179Y-38366716D01*
X105507533Y-38202784D01*
X105380871Y-38062112D01*
X105380870Y-38062111D01*
X105227734Y-37950851D01*
X105227729Y-37950848D01*
X105054807Y-37873857D01*
X105054802Y-37873855D01*
X104909001Y-37842865D01*
X104869646Y-37834500D01*
X104680354Y-37834500D01*
X104647897Y-37841398D01*
X104495197Y-37873855D01*
X104495192Y-37873857D01*
X104322270Y-37950848D01*
X104322265Y-37950851D01*
X104169129Y-38062111D01*
X104042466Y-38202785D01*
X103947821Y-38366715D01*
X103947818Y-38366722D01*
X103914819Y-38468284D01*
X103889326Y-38546744D01*
X103880343Y-38632214D01*
X103869540Y-38734999D01*
X103889326Y-38923256D01*
X103889328Y-38923262D01*
X103929621Y-39047274D01*
X103931181Y-39052989D01*
X103936602Y-39077390D01*
X103936607Y-39077406D01*
X104141489Y-39619390D01*
X104149500Y-39663236D01*
X104149500Y-49854547D01*
X104129815Y-49921586D01*
X104113181Y-49942228D01*
X101129876Y-52925533D01*
X92308504Y-61746903D01*
X92261897Y-61776222D01*
X91614537Y-62003487D01*
X91544762Y-62007120D01*
X91484099Y-61972453D01*
X91451809Y-61910493D01*
X91458143Y-61840911D01*
X91485779Y-61798809D01*
X100800120Y-52484471D01*
X100800120Y-52484470D01*
X100805484Y-52479107D01*
X100805499Y-52479089D01*
X103253788Y-50030801D01*
X103266042Y-50020986D01*
X103265859Y-50020764D01*
X103271868Y-50015791D01*
X103271877Y-50015786D01*
X103318607Y-49966022D01*
X103319846Y-49964743D01*
X103340120Y-49944471D01*
X103344379Y-49938978D01*
X103348152Y-49934561D01*
X103380062Y-49900582D01*
X103389713Y-49883024D01*
X103400396Y-49866761D01*
X103412673Y-49850936D01*
X103431185Y-49808153D01*
X103433738Y-49802941D01*
X103456197Y-49762092D01*
X103461180Y-49742680D01*
X103467481Y-49724280D01*
X103475437Y-49705896D01*
X103482729Y-49659852D01*
X103483906Y-49654171D01*
X103495500Y-49609019D01*
X103495500Y-49588982D01*
X103497027Y-49569582D01*
X103500160Y-49549804D01*
X103495775Y-49503415D01*
X103495500Y-49497577D01*
X103495500Y-37758235D01*
X103503511Y-37714389D01*
X103708390Y-37172410D01*
X103708391Y-37172406D01*
X103708394Y-37172399D01*
X103722580Y-37129054D01*
X103723016Y-37125674D01*
X103728066Y-37103221D01*
X103755672Y-37018262D01*
X103755671Y-37018262D01*
X103755674Y-37018256D01*
X103775460Y-36830000D01*
X103755674Y-36641744D01*
X103697179Y-36461716D01*
X103602533Y-36297784D01*
X103475871Y-36157112D01*
X103475870Y-36157111D01*
X103322734Y-36045851D01*
X103322729Y-36045848D01*
X103149807Y-35968857D01*
X103149802Y-35968855D01*
X103004000Y-35937865D01*
X102964646Y-35929500D01*
X102775354Y-35929500D01*
X102742897Y-35936398D01*
X102590197Y-35968855D01*
X102590192Y-35968857D01*
X102417270Y-36045848D01*
X102417265Y-36045851D01*
X102264129Y-36157111D01*
X102137466Y-36297785D01*
X102042821Y-36461715D01*
X102042818Y-36461722D01*
X102009819Y-36563284D01*
X101984326Y-36641744D01*
X101975343Y-36727214D01*
X101964540Y-36829999D01*
X101984326Y-37018256D01*
X101984328Y-37018262D01*
X102024621Y-37142274D01*
X102026181Y-37147989D01*
X102031602Y-37172390D01*
X102031607Y-37172406D01*
X102236489Y-37714390D01*
X102244500Y-37758236D01*
X102244500Y-49219546D01*
X102224815Y-49286585D01*
X102208181Y-49307227D01*
X99859880Y-51655529D01*
X99859876Y-51655533D01*
X89768504Y-61746903D01*
X89721897Y-61776222D01*
X89074537Y-62003487D01*
X89004762Y-62007120D01*
X88944099Y-61972453D01*
X88911809Y-61910493D01*
X88918143Y-61840911D01*
X88945779Y-61798809D01*
X99530120Y-51214471D01*
X99530120Y-51214470D01*
X99535484Y-51209107D01*
X99535499Y-51209089D01*
X101348787Y-49395801D01*
X101361042Y-49385986D01*
X101360859Y-49385764D01*
X101366868Y-49380791D01*
X101366877Y-49380786D01*
X101413607Y-49331022D01*
X101414846Y-49329743D01*
X101435120Y-49309471D01*
X101439379Y-49303978D01*
X101443152Y-49299561D01*
X101475062Y-49265582D01*
X101484715Y-49248020D01*
X101495389Y-49231770D01*
X101507673Y-49215936D01*
X101526180Y-49173167D01*
X101528749Y-49167924D01*
X101551196Y-49127093D01*
X101551197Y-49127092D01*
X101556177Y-49107691D01*
X101562478Y-49089288D01*
X101570438Y-49070896D01*
X101577730Y-49024849D01*
X101578911Y-49019152D01*
X101590500Y-48974019D01*
X101590500Y-48953983D01*
X101592027Y-48934582D01*
X101595160Y-48914804D01*
X101590775Y-48868415D01*
X101590500Y-48862577D01*
X101590500Y-35853235D01*
X101598511Y-35809389D01*
X101803390Y-35267410D01*
X101803391Y-35267406D01*
X101803394Y-35267399D01*
X101817580Y-35224054D01*
X101818016Y-35220674D01*
X101823066Y-35198221D01*
X101850672Y-35113262D01*
X101850671Y-35113262D01*
X101850674Y-35113256D01*
X101870460Y-34925000D01*
X101850674Y-34736744D01*
X101792179Y-34556716D01*
X101697533Y-34392784D01*
X101570871Y-34252112D01*
X101570870Y-34252111D01*
X101417734Y-34140851D01*
X101417729Y-34140848D01*
X101244807Y-34063857D01*
X101244802Y-34063855D01*
X101099000Y-34032865D01*
X101059646Y-34024500D01*
X100870354Y-34024500D01*
X100837897Y-34031398D01*
X100685197Y-34063855D01*
X100685192Y-34063857D01*
X100512270Y-34140848D01*
X100512265Y-34140851D01*
X100359129Y-34252111D01*
X100232466Y-34392785D01*
X100137821Y-34556715D01*
X100137818Y-34556722D01*
X100079327Y-34736740D01*
X100079326Y-34736744D01*
X100062359Y-34898181D01*
X100059540Y-34925000D01*
X100079326Y-35113256D01*
X100079328Y-35113262D01*
X100119621Y-35237274D01*
X100121181Y-35242989D01*
X100126602Y-35267390D01*
X100126607Y-35267406D01*
X100331489Y-35809390D01*
X100339500Y-35853236D01*
X100339500Y-48584546D01*
X100319815Y-48651585D01*
X100303181Y-48672227D01*
X98656137Y-50319271D01*
X87228504Y-61746903D01*
X87181897Y-61776222D01*
X86534537Y-62003487D01*
X86464762Y-62007120D01*
X86404099Y-61972453D01*
X86371809Y-61910493D01*
X86378143Y-61840911D01*
X86405779Y-61798809D01*
X98260120Y-49944471D01*
X98260120Y-49944470D01*
X98265484Y-49939107D01*
X98265499Y-49939089D01*
X99443787Y-48760802D01*
X99456042Y-48750986D01*
X99455859Y-48750764D01*
X99461868Y-48745791D01*
X99461877Y-48745786D01*
X99508607Y-48696022D01*
X99509846Y-48694743D01*
X99530120Y-48674471D01*
X99534379Y-48668978D01*
X99538152Y-48664561D01*
X99570062Y-48630582D01*
X99579713Y-48613024D01*
X99590396Y-48596761D01*
X99602673Y-48580936D01*
X99621185Y-48538153D01*
X99623738Y-48532941D01*
X99646197Y-48492092D01*
X99651180Y-48472680D01*
X99657481Y-48454280D01*
X99665437Y-48435896D01*
X99672729Y-48389852D01*
X99673906Y-48384171D01*
X99685500Y-48339019D01*
X99685500Y-48318982D01*
X99687027Y-48299582D01*
X99690160Y-48279804D01*
X99685775Y-48233415D01*
X99685500Y-48227577D01*
X99685500Y-33313235D01*
X99693511Y-33269389D01*
X99898390Y-32727410D01*
X99898391Y-32727406D01*
X99898394Y-32727399D01*
X99912580Y-32684054D01*
X99913016Y-32680674D01*
X99918066Y-32658221D01*
X99945672Y-32573262D01*
X99945671Y-32573262D01*
X99945674Y-32573256D01*
X99965460Y-32385000D01*
X99945674Y-32196744D01*
X99887179Y-32016716D01*
X99792533Y-31852784D01*
X99665871Y-31712112D01*
X99665870Y-31712111D01*
X99512734Y-31600851D01*
X99512729Y-31600848D01*
X99339807Y-31523857D01*
X99339802Y-31523855D01*
X99194000Y-31492865D01*
X99154646Y-31484500D01*
X98965354Y-31484500D01*
X98932897Y-31491398D01*
X98780197Y-31523855D01*
X98780192Y-31523857D01*
X98607270Y-31600848D01*
X98607265Y-31600851D01*
X98454129Y-31712111D01*
X98327466Y-31852785D01*
X98232821Y-32016715D01*
X98232818Y-32016722D01*
X98174327Y-32196740D01*
X98174326Y-32196744D01*
X98154540Y-32385000D01*
X98174326Y-32573256D01*
X98174328Y-32573262D01*
X98214621Y-32697274D01*
X98216181Y-32702989D01*
X98221602Y-32727390D01*
X98221607Y-32727406D01*
X98426488Y-33269390D01*
X98434499Y-33313236D01*
X98434500Y-47949545D01*
X98414815Y-48016584D01*
X98398181Y-48037226D01*
X97367263Y-49068143D01*
X97367259Y-49068149D01*
X84688504Y-61746903D01*
X84641897Y-61776222D01*
X83994537Y-62003487D01*
X83924762Y-62007120D01*
X83864099Y-61972453D01*
X83831809Y-61910493D01*
X83838143Y-61840911D01*
X83865780Y-61798808D01*
X96990120Y-48674470D01*
X97048679Y-48615911D01*
X97048692Y-48615896D01*
X97538786Y-48125802D01*
X97551048Y-48115980D01*
X97550865Y-48115759D01*
X97556873Y-48110788D01*
X97556877Y-48110786D01*
X97603649Y-48060977D01*
X97604891Y-48059697D01*
X97625120Y-48039470D01*
X97629373Y-48033986D01*
X97633150Y-48029563D01*
X97665062Y-47995582D01*
X97674714Y-47978023D01*
X97685389Y-47961772D01*
X97697674Y-47945936D01*
X97716186Y-47903152D01*
X97718742Y-47897935D01*
X97741197Y-47857092D01*
X97746180Y-47837680D01*
X97752477Y-47819291D01*
X97760438Y-47800895D01*
X97767729Y-47754853D01*
X97768908Y-47749162D01*
X97780500Y-47704019D01*
X97780500Y-47683983D01*
X97782027Y-47664582D01*
X97785160Y-47644803D01*
X97785160Y-47644800D01*
X97784022Y-47632768D01*
X97780772Y-47598394D01*
X97780499Y-47592599D01*
X97780499Y-31408234D01*
X97788510Y-31364388D01*
X97993392Y-30822403D01*
X97993394Y-30822399D01*
X98007580Y-30779054D01*
X98008016Y-30775674D01*
X98013066Y-30753221D01*
X98040672Y-30668262D01*
X98040671Y-30668262D01*
X98040674Y-30668256D01*
X98060460Y-30480000D01*
X98040674Y-30291744D01*
X97982179Y-30111716D01*
X97887533Y-29947784D01*
X97760871Y-29807112D01*
X97742476Y-29793747D01*
X97607734Y-29695851D01*
X97607729Y-29695848D01*
X97434807Y-29618857D01*
X97434802Y-29618855D01*
X97289000Y-29587865D01*
X97249646Y-29579500D01*
X97060354Y-29579500D01*
X97027897Y-29586398D01*
X96875197Y-29618855D01*
X96875192Y-29618857D01*
X96702270Y-29695848D01*
X96702265Y-29695851D01*
X96549129Y-29807111D01*
X96422466Y-29947785D01*
X96327821Y-30111715D01*
X96327818Y-30111722D01*
X96269327Y-30291740D01*
X96269326Y-30291744D01*
X96249540Y-30480000D01*
X96269326Y-30668256D01*
X96269328Y-30668262D01*
X96309621Y-30792274D01*
X96311181Y-30797989D01*
X96316602Y-30822390D01*
X96316607Y-30822406D01*
X96521489Y-31364390D01*
X96529500Y-31408236D01*
X96529500Y-47314547D01*
X96509815Y-47381586D01*
X96493181Y-47402228D01*
X96049876Y-47845533D01*
X82148504Y-61746903D01*
X82101897Y-61776222D01*
X81454537Y-62003487D01*
X81384762Y-62007120D01*
X81324099Y-61972453D01*
X81291809Y-61910493D01*
X81298143Y-61840911D01*
X81325780Y-61798808D01*
X95538786Y-47585802D01*
X95551048Y-47575980D01*
X95550865Y-47575759D01*
X95556873Y-47570788D01*
X95556877Y-47570786D01*
X95603649Y-47520977D01*
X95604891Y-47519697D01*
X95625120Y-47499470D01*
X95629373Y-47493986D01*
X95633150Y-47489563D01*
X95665062Y-47455582D01*
X95674714Y-47438023D01*
X95685389Y-47421772D01*
X95697674Y-47405936D01*
X95716186Y-47363152D01*
X95718742Y-47357935D01*
X95741197Y-47317092D01*
X95746180Y-47297680D01*
X95752477Y-47279291D01*
X95760438Y-47260895D01*
X95767729Y-47214853D01*
X95768908Y-47209162D01*
X95780500Y-47164019D01*
X95780500Y-47143983D01*
X95782027Y-47124582D01*
X95785160Y-47104803D01*
X95785160Y-47104800D01*
X95781917Y-47070500D01*
X95780772Y-47058394D01*
X95780500Y-47052599D01*
X95780500Y-29197742D01*
X95782224Y-29182122D01*
X95781939Y-29182096D01*
X95782673Y-29174333D01*
X95780531Y-29106152D01*
X95780500Y-29104205D01*
X95780500Y-29075654D01*
X95780500Y-29075650D01*
X95779631Y-29068772D01*
X95779172Y-29062943D01*
X95777709Y-29016372D01*
X95772122Y-28997144D01*
X95768174Y-28978084D01*
X95765663Y-28958204D01*
X95748512Y-28914887D01*
X95746619Y-28909358D01*
X95733618Y-28864609D01*
X95733616Y-28864606D01*
X95723423Y-28847371D01*
X95714861Y-28829894D01*
X95707487Y-28811270D01*
X95707486Y-28811268D01*
X95702264Y-28804081D01*
X95684988Y-28770537D01*
X95261995Y-27506095D01*
X95260910Y-27502486D01*
X95253904Y-27476340D01*
X95253903Y-27476337D01*
X95248583Y-27464928D01*
X95246330Y-27459421D01*
X95244296Y-27453676D01*
X95242461Y-27448771D01*
X95212926Y-27384081D01*
X95212925Y-27384079D01*
X95209556Y-27378393D01*
X95209858Y-27378213D01*
X95202091Y-27365228D01*
X95173995Y-27304977D01*
X95154035Y-27262171D01*
X95018495Y-27068599D01*
X95018494Y-27068597D01*
X94851402Y-26901506D01*
X94851395Y-26901501D01*
X94657834Y-26765967D01*
X94657830Y-26765965D01*
X94586727Y-26732809D01*
X94443663Y-26666097D01*
X94443659Y-26666096D01*
X94443655Y-26666094D01*
X94215413Y-26604938D01*
X94215403Y-26604936D01*
X93980001Y-26584341D01*
X93979999Y-26584341D01*
X93744596Y-26604936D01*
X93744586Y-26604938D01*
X93516344Y-26666094D01*
X93516335Y-26666098D01*
X93302171Y-26765964D01*
X93302169Y-26765965D01*
X93108597Y-26901505D01*
X92941505Y-27068597D01*
X92811575Y-27254158D01*
X92756998Y-27297783D01*
X92687500Y-27304977D01*
X92625145Y-27273454D01*
X92608425Y-27254158D01*
X92478494Y-27068597D01*
X92311402Y-26901506D01*
X92311395Y-26901501D01*
X92117834Y-26765967D01*
X92117830Y-26765965D01*
X92046727Y-26732809D01*
X91903663Y-26666097D01*
X91903659Y-26666096D01*
X91903655Y-26666094D01*
X91675413Y-26604938D01*
X91675403Y-26604936D01*
X91440001Y-26584341D01*
X91439999Y-26584341D01*
X91204596Y-26604936D01*
X91204586Y-26604938D01*
X90976344Y-26666094D01*
X90976335Y-26666098D01*
X90762171Y-26765964D01*
X90762169Y-26765965D01*
X90568597Y-26901505D01*
X90401505Y-27068597D01*
X90271575Y-27254158D01*
X90216998Y-27297783D01*
X90147500Y-27304977D01*
X90085145Y-27273454D01*
X90068425Y-27254158D01*
X89938494Y-27068597D01*
X89771402Y-26901506D01*
X89771395Y-26901501D01*
X89577834Y-26765967D01*
X89577830Y-26765965D01*
X89506727Y-26732809D01*
X89363663Y-26666097D01*
X89363659Y-26666096D01*
X89363655Y-26666094D01*
X89135413Y-26604938D01*
X89135403Y-26604936D01*
X88900001Y-26584341D01*
X88899999Y-26584341D01*
X88664596Y-26604936D01*
X88664586Y-26604938D01*
X88436344Y-26666094D01*
X88436335Y-26666098D01*
X88222171Y-26765964D01*
X88222169Y-26765965D01*
X88028597Y-26901505D01*
X87861505Y-27068597D01*
X87731575Y-27254158D01*
X87676998Y-27297783D01*
X87607500Y-27304977D01*
X87545145Y-27273454D01*
X87528425Y-27254158D01*
X87398494Y-27068597D01*
X87231402Y-26901506D01*
X87231395Y-26901501D01*
X87037834Y-26765967D01*
X87037830Y-26765965D01*
X86966727Y-26732809D01*
X86823663Y-26666097D01*
X86823659Y-26666096D01*
X86823655Y-26666094D01*
X86595413Y-26604938D01*
X86595403Y-26604936D01*
X86360001Y-26584341D01*
X86359999Y-26584341D01*
X86124596Y-26604936D01*
X86124586Y-26604938D01*
X85896344Y-26666094D01*
X85896335Y-26666098D01*
X85682171Y-26765964D01*
X85682169Y-26765965D01*
X85488597Y-26901505D01*
X85321505Y-27068597D01*
X85191575Y-27254158D01*
X85136998Y-27297783D01*
X85067500Y-27304977D01*
X85005145Y-27273454D01*
X84988425Y-27254158D01*
X84858494Y-27068597D01*
X84691402Y-26901506D01*
X84691395Y-26901501D01*
X84497834Y-26765967D01*
X84497830Y-26765965D01*
X84426727Y-26732809D01*
X84283663Y-26666097D01*
X84283659Y-26666096D01*
X84283655Y-26666094D01*
X84055413Y-26604938D01*
X84055403Y-26604936D01*
X83820001Y-26584341D01*
X83819999Y-26584341D01*
X83584596Y-26604936D01*
X83584586Y-26604938D01*
X83356344Y-26666094D01*
X83356335Y-26666098D01*
X83142171Y-26765964D01*
X83142169Y-26765965D01*
X82948597Y-26901505D01*
X82781505Y-27068597D01*
X82651575Y-27254158D01*
X82596998Y-27297783D01*
X82527500Y-27304977D01*
X82465145Y-27273454D01*
X82448425Y-27254158D01*
X82318494Y-27068597D01*
X82151402Y-26901506D01*
X82151395Y-26901501D01*
X81957834Y-26765967D01*
X81957830Y-26765965D01*
X81886727Y-26732809D01*
X81743663Y-26666097D01*
X81743659Y-26666096D01*
X81743655Y-26666094D01*
X81515413Y-26604938D01*
X81515403Y-26604936D01*
X81280001Y-26584341D01*
X81279999Y-26584341D01*
X81044596Y-26604936D01*
X81044586Y-26604938D01*
X80816344Y-26666094D01*
X80816335Y-26666098D01*
X80602171Y-26765964D01*
X80602169Y-26765965D01*
X80408597Y-26901505D01*
X80241505Y-27068597D01*
X80111575Y-27254158D01*
X80056998Y-27297783D01*
X79987500Y-27304977D01*
X79925145Y-27273454D01*
X79908425Y-27254158D01*
X79778494Y-27068597D01*
X79611402Y-26901506D01*
X79611395Y-26901501D01*
X79417834Y-26765967D01*
X79417830Y-26765965D01*
X79346727Y-26732809D01*
X79203663Y-26666097D01*
X79203659Y-26666096D01*
X79203655Y-26666094D01*
X78975413Y-26604938D01*
X78975403Y-26604936D01*
X78740001Y-26584341D01*
X78739999Y-26584341D01*
X78504596Y-26604936D01*
X78504586Y-26604938D01*
X78276344Y-26666094D01*
X78276335Y-26666098D01*
X78062171Y-26765964D01*
X78062169Y-26765965D01*
X77868597Y-26901505D01*
X77701505Y-27068597D01*
X77571575Y-27254158D01*
X77516998Y-27297783D01*
X77447500Y-27304977D01*
X77385145Y-27273454D01*
X77368425Y-27254158D01*
X77238494Y-27068597D01*
X77071402Y-26901506D01*
X77071395Y-26901501D01*
X76877834Y-26765967D01*
X76877830Y-26765965D01*
X76806727Y-26732809D01*
X76663663Y-26666097D01*
X76663659Y-26666096D01*
X76663655Y-26666094D01*
X76435413Y-26604938D01*
X76435403Y-26604936D01*
X76200001Y-26584341D01*
X76199999Y-26584341D01*
X75964596Y-26604936D01*
X75964586Y-26604938D01*
X75736344Y-26666094D01*
X75736335Y-26666098D01*
X75522171Y-26765964D01*
X75522169Y-26765965D01*
X75328600Y-26901503D01*
X75206284Y-27023819D01*
X75144961Y-27057303D01*
X75075269Y-27052319D01*
X75019336Y-27010447D01*
X75002421Y-26979470D01*
X74953354Y-26847913D01*
X74953350Y-26847906D01*
X74867190Y-26732812D01*
X74867187Y-26732809D01*
X74752093Y-26646649D01*
X74752086Y-26646645D01*
X74617379Y-26596403D01*
X74617372Y-26596401D01*
X74557844Y-26590000D01*
X73910000Y-26590000D01*
X73910000Y-27493505D01*
X73805161Y-27445627D01*
X73696473Y-27430000D01*
X73623527Y-27430000D01*
X73514839Y-27445627D01*
X73410000Y-27493505D01*
X73410000Y-26590000D01*
X72762155Y-26590000D01*
X72702627Y-26596401D01*
X72702620Y-26596403D01*
X72567913Y-26646645D01*
X72567906Y-26646649D01*
X72452812Y-26732809D01*
X72452809Y-26732812D01*
X72366649Y-26847906D01*
X72366645Y-26847913D01*
X72317578Y-26979470D01*
X72275707Y-27035404D01*
X72210242Y-27059821D01*
X72141969Y-27044969D01*
X72113715Y-27023819D01*
X72068977Y-26979081D01*
X71991401Y-26901505D01*
X71991397Y-26901502D01*
X71991396Y-26901501D01*
X71797834Y-26765967D01*
X71797830Y-26765965D01*
X71726727Y-26732809D01*
X71583663Y-26666097D01*
X71583659Y-26666096D01*
X71583655Y-26666094D01*
X71355413Y-26604938D01*
X71355403Y-26604936D01*
X71120001Y-26584341D01*
X71119999Y-26584341D01*
X70884596Y-26604936D01*
X70884586Y-26604938D01*
X70656344Y-26666094D01*
X70656335Y-26666098D01*
X70442171Y-26765964D01*
X70442169Y-26765965D01*
X70248597Y-26901505D01*
X70081505Y-27068597D01*
X69951575Y-27254158D01*
X69896998Y-27297783D01*
X69827500Y-27304977D01*
X69765145Y-27273454D01*
X69748425Y-27254158D01*
X69618494Y-27068597D01*
X69451402Y-26901506D01*
X69451395Y-26901501D01*
X69257834Y-26765967D01*
X69257830Y-26765965D01*
X69186727Y-26732809D01*
X69043663Y-26666097D01*
X69043659Y-26666096D01*
X69043655Y-26666094D01*
X68815413Y-26604938D01*
X68815403Y-26604936D01*
X68580001Y-26584341D01*
X68579999Y-26584341D01*
X68344596Y-26604936D01*
X68344586Y-26604938D01*
X68116344Y-26666094D01*
X68116335Y-26666098D01*
X67902171Y-26765964D01*
X67902169Y-26765965D01*
X67708597Y-26901505D01*
X67541505Y-27068597D01*
X67411575Y-27254158D01*
X67356998Y-27297783D01*
X67287500Y-27304977D01*
X67225145Y-27273454D01*
X67208425Y-27254158D01*
X67078494Y-27068597D01*
X66911402Y-26901506D01*
X66911395Y-26901501D01*
X66717834Y-26765967D01*
X66717830Y-26765965D01*
X66646727Y-26732809D01*
X66503663Y-26666097D01*
X66503659Y-26666096D01*
X66503655Y-26666094D01*
X66275413Y-26604938D01*
X66275403Y-26604936D01*
X66040001Y-26584341D01*
X66039999Y-26584341D01*
X65804596Y-26604936D01*
X65804586Y-26604938D01*
X65576344Y-26666094D01*
X65576335Y-26666098D01*
X65362171Y-26765964D01*
X65362169Y-26765965D01*
X65168597Y-26901505D01*
X65001508Y-27068594D01*
X64871574Y-27254160D01*
X64816997Y-27297784D01*
X64747498Y-27304977D01*
X64685144Y-27273455D01*
X64668429Y-27254164D01*
X64538495Y-27068599D01*
X64538493Y-27068596D01*
X64371402Y-26901506D01*
X64371395Y-26901501D01*
X64177834Y-26765967D01*
X64177830Y-26765965D01*
X64106727Y-26732809D01*
X63963663Y-26666097D01*
X63963659Y-26666096D01*
X63963655Y-26666094D01*
X63735413Y-26604938D01*
X63735403Y-26604936D01*
X63500001Y-26584341D01*
X63499999Y-26584341D01*
X63264596Y-26604936D01*
X63264586Y-26604938D01*
X63036344Y-26666094D01*
X63036335Y-26666098D01*
X62822171Y-26765964D01*
X62822169Y-26765965D01*
X62628597Y-26901505D01*
X62461505Y-27068597D01*
X62331575Y-27254158D01*
X62276998Y-27297783D01*
X62207500Y-27304977D01*
X62145145Y-27273454D01*
X62128425Y-27254158D01*
X61998494Y-27068597D01*
X61831402Y-26901506D01*
X61831395Y-26901501D01*
X61637834Y-26765967D01*
X61637830Y-26765965D01*
X61566727Y-26732809D01*
X61423663Y-26666097D01*
X61423659Y-26666096D01*
X61423655Y-26666094D01*
X61195413Y-26604938D01*
X61195403Y-26604936D01*
X60960001Y-26584341D01*
X60959999Y-26584341D01*
X60724596Y-26604936D01*
X60724586Y-26604938D01*
X60496344Y-26666094D01*
X60496335Y-26666098D01*
X60282171Y-26765964D01*
X60282169Y-26765965D01*
X60088600Y-26901503D01*
X59966673Y-27023430D01*
X59905350Y-27056914D01*
X59835658Y-27051930D01*
X59779725Y-27010058D01*
X59762810Y-26979081D01*
X59713797Y-26847671D01*
X59713793Y-26847664D01*
X59627547Y-26732455D01*
X59627544Y-26732452D01*
X59512335Y-26646206D01*
X59512328Y-26646202D01*
X59377482Y-26595908D01*
X59377483Y-26595908D01*
X59317883Y-26589501D01*
X59317881Y-26589500D01*
X59317873Y-26589500D01*
X59317864Y-26589500D01*
X57522129Y-26589500D01*
X57522123Y-26589501D01*
X57462516Y-26595908D01*
X57327671Y-26646202D01*
X57327664Y-26646206D01*
X57212455Y-26732452D01*
X57212452Y-26732455D01*
X57126206Y-26847664D01*
X57126203Y-26847669D01*
X57077189Y-26979083D01*
X57035317Y-27035016D01*
X56969853Y-27059433D01*
X56901580Y-27044581D01*
X56873326Y-27023430D01*
X56751402Y-26901506D01*
X56751395Y-26901501D01*
X56557834Y-26765967D01*
X56557830Y-26765965D01*
X56486727Y-26732809D01*
X56343663Y-26666097D01*
X56343659Y-26666096D01*
X56343655Y-26666094D01*
X56115413Y-26604938D01*
X56115403Y-26604936D01*
X55880001Y-26584341D01*
X55879999Y-26584341D01*
X55644596Y-26604936D01*
X55644586Y-26604938D01*
X55416344Y-26666094D01*
X55416335Y-26666098D01*
X55202171Y-26765964D01*
X55202169Y-26765965D01*
X55008597Y-26901505D01*
X54841505Y-27068597D01*
X54711575Y-27254158D01*
X54656998Y-27297783D01*
X54587500Y-27304977D01*
X54525145Y-27273454D01*
X54508425Y-27254158D01*
X54378494Y-27068597D01*
X54211402Y-26901506D01*
X54211395Y-26901501D01*
X54017834Y-26765967D01*
X54017830Y-26765965D01*
X53946727Y-26732809D01*
X53803663Y-26666097D01*
X53803659Y-26666096D01*
X53803655Y-26666094D01*
X53575413Y-26604938D01*
X53575403Y-26604936D01*
X53340001Y-26584341D01*
X53339999Y-26584341D01*
X53104596Y-26604936D01*
X53104586Y-26604938D01*
X52876344Y-26666094D01*
X52876335Y-26666098D01*
X52662171Y-26765964D01*
X52662169Y-26765965D01*
X52468600Y-26901503D01*
X52346284Y-27023819D01*
X52284961Y-27057303D01*
X52215269Y-27052319D01*
X52159336Y-27010447D01*
X52142421Y-26979470D01*
X52093354Y-26847913D01*
X52093350Y-26847906D01*
X52007190Y-26732812D01*
X52007187Y-26732809D01*
X51892093Y-26646649D01*
X51892086Y-26646645D01*
X51757379Y-26596403D01*
X51757372Y-26596401D01*
X51697844Y-26590000D01*
X51050000Y-26590000D01*
X51049999Y-27493505D01*
X50945161Y-27445627D01*
X50836473Y-27430000D01*
X50763527Y-27430000D01*
X50654839Y-27445627D01*
X50550000Y-27493505D01*
X50550000Y-26590000D01*
X49902155Y-26590000D01*
X49842627Y-26596401D01*
X49842620Y-26596403D01*
X49707913Y-26646645D01*
X49707906Y-26646649D01*
X49592812Y-26732809D01*
X49592809Y-26732812D01*
X49506649Y-26847906D01*
X49506645Y-26847913D01*
X49457578Y-26979470D01*
X49415707Y-27035404D01*
X49350242Y-27059821D01*
X49281969Y-27044969D01*
X49253715Y-27023819D01*
X49208977Y-26979081D01*
X49131401Y-26901505D01*
X49131397Y-26901502D01*
X49131396Y-26901501D01*
X48937834Y-26765967D01*
X48937830Y-26765965D01*
X48866727Y-26732809D01*
X48723663Y-26666097D01*
X48723659Y-26666096D01*
X48723655Y-26666094D01*
X48495413Y-26604938D01*
X48495403Y-26604936D01*
X48260001Y-26584341D01*
X48259999Y-26584341D01*
X48024596Y-26604936D01*
X48024586Y-26604938D01*
X47796344Y-26666094D01*
X47796335Y-26666098D01*
X47582171Y-26765964D01*
X47582169Y-26765965D01*
X47388597Y-26901505D01*
X47221505Y-27068597D01*
X47091575Y-27254158D01*
X47036998Y-27297783D01*
X46967500Y-27304977D01*
X46905145Y-27273454D01*
X46888425Y-27254158D01*
X46758494Y-27068597D01*
X46591402Y-26901506D01*
X46591395Y-26901501D01*
X46397834Y-26765967D01*
X46397830Y-26765965D01*
X46326727Y-26732809D01*
X46183663Y-26666097D01*
X46183659Y-26666096D01*
X46183655Y-26666094D01*
X45955413Y-26604938D01*
X45955403Y-26604936D01*
X45720001Y-26584341D01*
X45719999Y-26584341D01*
X45484596Y-26604936D01*
X45484586Y-26604938D01*
X45256344Y-26666094D01*
X45256335Y-26666098D01*
X45042171Y-26765964D01*
X45042169Y-26765965D01*
X44848597Y-26901505D01*
X44681505Y-27068597D01*
X44545965Y-27262169D01*
X44545961Y-27262176D01*
X44485655Y-27391502D01*
X44482095Y-27398071D01*
X44467323Y-27421798D01*
X44467323Y-27421799D01*
X44467320Y-27421804D01*
X44467319Y-27421807D01*
X44343040Y-27704592D01*
X43920388Y-28666292D01*
X43894548Y-28704082D01*
X32534358Y-40064272D01*
X32520729Y-40076051D01*
X32501468Y-40090390D01*
X32467898Y-40130397D01*
X32464253Y-40134376D01*
X32458407Y-40140223D01*
X32438618Y-40165251D01*
X32437481Y-40166647D01*
X32388694Y-40224790D01*
X32384729Y-40230819D01*
X32384682Y-40230788D01*
X32380630Y-40237147D01*
X32380679Y-40237177D01*
X32376889Y-40243321D01*
X32344812Y-40312110D01*
X32344027Y-40313731D01*
X32309957Y-40381572D01*
X32307488Y-40388357D01*
X32307432Y-40388336D01*
X32304960Y-40395450D01*
X32305015Y-40395469D01*
X32302743Y-40402325D01*
X32287391Y-40476670D01*
X32287001Y-40478428D01*
X32269499Y-40552279D01*
X32268661Y-40559454D01*
X32268601Y-40559447D01*
X32267835Y-40566945D01*
X32267895Y-40566951D01*
X32267265Y-40574140D01*
X32269474Y-40650030D01*
X32269500Y-40651833D01*
X32269500Y-43813119D01*
X32249815Y-43880158D01*
X32246804Y-43884628D01*
X31762675Y-44570476D01*
X31756495Y-44579436D01*
X31756482Y-44579458D01*
X31751096Y-44590601D01*
X31738727Y-44610939D01*
X31726202Y-44627671D01*
X31703632Y-44688183D01*
X31701363Y-44693495D01*
X31693879Y-44708981D01*
X31691735Y-44715733D01*
X31689358Y-44725312D01*
X31687274Y-44732043D01*
X31675909Y-44762516D01*
X31675908Y-44762517D01*
X31671468Y-44803819D01*
X31669501Y-44822123D01*
X31669500Y-44822135D01*
X31669500Y-46617870D01*
X31669501Y-46617876D01*
X31675908Y-46677483D01*
X31726202Y-46812328D01*
X31726206Y-46812335D01*
X31812452Y-46927544D01*
X31812455Y-46927547D01*
X31927664Y-47013793D01*
X31927671Y-47013797D01*
X32059081Y-47062810D01*
X32115015Y-47104681D01*
X32139432Y-47170145D01*
X32124580Y-47238418D01*
X32103430Y-47266673D01*
X31981503Y-47388600D01*
X31845965Y-47582169D01*
X31845961Y-47582176D01*
X31785655Y-47711502D01*
X31782095Y-47718071D01*
X31767323Y-47741798D01*
X31767323Y-47741799D01*
X31767320Y-47741804D01*
X31767319Y-47741807D01*
X31605160Y-48110782D01*
X31220386Y-48986294D01*
X31194546Y-49024084D01*
X29994358Y-50224272D01*
X29980729Y-50236051D01*
X29961468Y-50250390D01*
X29927898Y-50290397D01*
X29924253Y-50294376D01*
X29918407Y-50300223D01*
X29898618Y-50325251D01*
X29897481Y-50326647D01*
X29848694Y-50384790D01*
X29844729Y-50390819D01*
X29844682Y-50390788D01*
X29840630Y-50397147D01*
X29840679Y-50397177D01*
X29836889Y-50403321D01*
X29804812Y-50472110D01*
X29804027Y-50473731D01*
X29769957Y-50541572D01*
X29767488Y-50548357D01*
X29767432Y-50548336D01*
X29764960Y-50555450D01*
X29765015Y-50555469D01*
X29762743Y-50562325D01*
X29747391Y-50636670D01*
X29747001Y-50638428D01*
X29729499Y-50712279D01*
X29728661Y-50719454D01*
X29728601Y-50719447D01*
X29727835Y-50726945D01*
X29727895Y-50726951D01*
X29727265Y-50734140D01*
X29729474Y-50810030D01*
X29729500Y-50811833D01*
X29729500Y-61668922D01*
X29721049Y-61713915D01*
X29456976Y-62392089D01*
X29414308Y-62447417D01*
X29348500Y-62470894D01*
X29280447Y-62455066D01*
X29239989Y-62414022D01*
X29238669Y-62415011D01*
X29147190Y-62292812D01*
X29147187Y-62292809D01*
X29032093Y-62206649D01*
X29032086Y-62206645D01*
X28897379Y-62156403D01*
X28897372Y-62156401D01*
X28837844Y-62150000D01*
X28190000Y-62150000D01*
X28190000Y-63064498D01*
X28082315Y-63015320D01*
X27975763Y-63000000D01*
X27904237Y-63000000D01*
X27797685Y-63015320D01*
X27690000Y-63064498D01*
X27690000Y-62150000D01*
X27042155Y-62150000D01*
X26982627Y-62156401D01*
X26982620Y-62156403D01*
X26847913Y-62206645D01*
X26847906Y-62206649D01*
X26732812Y-62292809D01*
X26732809Y-62292812D01*
X26646649Y-62407906D01*
X26646645Y-62407913D01*
X26596403Y-62542620D01*
X26596401Y-62542627D01*
X26590000Y-62602155D01*
X26590000Y-62602172D01*
X26589999Y-63250000D01*
X27506314Y-63250000D01*
X27480507Y-63290156D01*
X27440000Y-63428111D01*
X27440000Y-63571889D01*
X27480507Y-63709844D01*
X27506314Y-63750000D01*
X26590000Y-63750000D01*
X26590000Y-64397844D01*
X26596401Y-64457372D01*
X26596403Y-64457379D01*
X26646645Y-64592086D01*
X26646649Y-64592093D01*
X26732809Y-64707187D01*
X26732812Y-64707190D01*
X26847906Y-64793350D01*
X26847913Y-64793354D01*
X26982620Y-64843596D01*
X26982627Y-64843598D01*
X27042155Y-64849999D01*
X27042172Y-64850000D01*
X27690000Y-64850000D01*
X27690000Y-63935501D01*
X27797685Y-63984680D01*
X27904237Y-64000000D01*
X27975763Y-64000000D01*
X28082315Y-63984680D01*
X28190000Y-63935501D01*
X28190000Y-64850000D01*
X28837828Y-64850000D01*
X28837844Y-64849999D01*
X28897372Y-64843598D01*
X28897379Y-64843596D01*
X29032086Y-64793354D01*
X29032093Y-64793350D01*
X29147187Y-64707190D01*
X29147190Y-64707187D01*
X29233350Y-64592093D01*
X29233354Y-64592086D01*
X29282422Y-64460529D01*
X29324293Y-64404595D01*
X29389757Y-64380178D01*
X29458030Y-64395030D01*
X29486285Y-64416180D01*
X29608599Y-64538495D01*
X29685135Y-64592086D01*
X29802165Y-64674032D01*
X29802167Y-64674033D01*
X29802170Y-64674035D01*
X30016337Y-64773903D01*
X30244592Y-64835063D01*
X30415319Y-64850000D01*
X30479999Y-64855659D01*
X30480000Y-64855659D01*
X30480001Y-64855659D01*
X30544681Y-64850000D01*
X30715408Y-64835063D01*
X30943663Y-64773903D01*
X31157830Y-64674035D01*
X31351401Y-64538495D01*
X31518495Y-64371401D01*
X31648424Y-64185842D01*
X31703002Y-64142217D01*
X31772500Y-64135023D01*
X31834855Y-64166546D01*
X31851575Y-64185842D01*
X31981500Y-64371395D01*
X31981505Y-64371401D01*
X32148599Y-64538495D01*
X32225135Y-64592086D01*
X32342165Y-64674032D01*
X32342167Y-64674033D01*
X32342170Y-64674035D01*
X32556337Y-64773903D01*
X32784592Y-64835063D01*
X32955319Y-64850000D01*
X33019999Y-64855659D01*
X33020000Y-64855659D01*
X33020001Y-64855659D01*
X33084681Y-64850000D01*
X33255408Y-64835063D01*
X33483663Y-64773903D01*
X33697830Y-64674035D01*
X33891401Y-64538495D01*
X34058495Y-64371401D01*
X34188424Y-64185842D01*
X34243002Y-64142217D01*
X34312500Y-64135023D01*
X34374855Y-64166546D01*
X34391575Y-64185842D01*
X34521500Y-64371395D01*
X34521505Y-64371401D01*
X34688599Y-64538495D01*
X34765135Y-64592086D01*
X34882165Y-64674032D01*
X34882167Y-64674033D01*
X34882170Y-64674035D01*
X35096337Y-64773903D01*
X35324592Y-64835063D01*
X35495319Y-64850000D01*
X35559999Y-64855659D01*
X35560000Y-64855659D01*
X35560001Y-64855659D01*
X35624681Y-64850000D01*
X35795408Y-64835063D01*
X36023663Y-64773903D01*
X36237830Y-64674035D01*
X36431401Y-64538495D01*
X36598495Y-64371401D01*
X36728424Y-64185842D01*
X36783002Y-64142217D01*
X36852500Y-64135023D01*
X36914855Y-64166546D01*
X36931575Y-64185842D01*
X37061500Y-64371395D01*
X37061505Y-64371401D01*
X37228599Y-64538495D01*
X37305135Y-64592086D01*
X37422165Y-64674032D01*
X37422167Y-64674033D01*
X37422170Y-64674035D01*
X37636337Y-64773903D01*
X37864592Y-64835063D01*
X38035319Y-64850000D01*
X38099999Y-64855659D01*
X38100000Y-64855659D01*
X38100001Y-64855659D01*
X38164681Y-64850000D01*
X38335408Y-64835063D01*
X38563663Y-64773903D01*
X38777830Y-64674035D01*
X38971401Y-64538495D01*
X39138495Y-64371401D01*
X39268424Y-64185842D01*
X39323002Y-64142217D01*
X39392500Y-64135023D01*
X39454855Y-64166546D01*
X39471575Y-64185842D01*
X39601500Y-64371395D01*
X39601505Y-64371401D01*
X39768599Y-64538495D01*
X39845135Y-64592086D01*
X39962165Y-64674032D01*
X39962167Y-64674033D01*
X39962170Y-64674035D01*
X40176337Y-64773903D01*
X40404592Y-64835063D01*
X40575319Y-64850000D01*
X40639999Y-64855659D01*
X40640000Y-64855659D01*
X40640001Y-64855659D01*
X40704681Y-64850000D01*
X40875408Y-64835063D01*
X41103663Y-64773903D01*
X41317830Y-64674035D01*
X41511401Y-64538495D01*
X41678495Y-64371401D01*
X41808424Y-64185842D01*
X41863002Y-64142217D01*
X41932500Y-64135023D01*
X41994855Y-64166546D01*
X42011575Y-64185842D01*
X42141500Y-64371395D01*
X42141505Y-64371401D01*
X42308599Y-64538495D01*
X42385135Y-64592086D01*
X42502165Y-64674032D01*
X42502167Y-64674033D01*
X42502170Y-64674035D01*
X42716337Y-64773903D01*
X42944592Y-64835063D01*
X43115319Y-64850000D01*
X43179999Y-64855659D01*
X43180000Y-64855659D01*
X43180001Y-64855659D01*
X43244681Y-64850000D01*
X43415408Y-64835063D01*
X43643663Y-64773903D01*
X43857830Y-64674035D01*
X44051401Y-64538495D01*
X44218495Y-64371401D01*
X44348424Y-64185842D01*
X44403002Y-64142217D01*
X44472500Y-64135023D01*
X44534855Y-64166546D01*
X44551575Y-64185842D01*
X44681500Y-64371395D01*
X44681505Y-64371401D01*
X44848599Y-64538495D01*
X44925135Y-64592086D01*
X45042165Y-64674032D01*
X45042167Y-64674033D01*
X45042170Y-64674035D01*
X45256337Y-64773903D01*
X45484592Y-64835063D01*
X45655319Y-64850000D01*
X45719999Y-64855659D01*
X45720000Y-64855659D01*
X45720001Y-64855659D01*
X45784681Y-64850000D01*
X45955408Y-64835063D01*
X46183663Y-64773903D01*
X46397830Y-64674035D01*
X46591401Y-64538495D01*
X46758495Y-64371401D01*
X46888424Y-64185842D01*
X46943002Y-64142217D01*
X47012500Y-64135023D01*
X47074855Y-64166546D01*
X47091575Y-64185842D01*
X47221500Y-64371395D01*
X47221505Y-64371401D01*
X47388599Y-64538495D01*
X47465135Y-64592086D01*
X47582165Y-64674032D01*
X47582167Y-64674033D01*
X47582170Y-64674035D01*
X47796337Y-64773903D01*
X48024592Y-64835063D01*
X48195319Y-64850000D01*
X48259999Y-64855659D01*
X48260000Y-64855659D01*
X48260001Y-64855659D01*
X48324681Y-64850000D01*
X48495408Y-64835063D01*
X48723663Y-64773903D01*
X48937830Y-64674035D01*
X49131401Y-64538495D01*
X49298495Y-64371401D01*
X49428424Y-64185842D01*
X49483002Y-64142217D01*
X49552500Y-64135023D01*
X49614855Y-64166546D01*
X49631575Y-64185842D01*
X49761500Y-64371395D01*
X49761505Y-64371401D01*
X49928599Y-64538495D01*
X50005135Y-64592086D01*
X50122165Y-64674032D01*
X50122167Y-64674033D01*
X50122170Y-64674035D01*
X50336337Y-64773903D01*
X50564592Y-64835063D01*
X50735319Y-64850000D01*
X50799999Y-64855659D01*
X50800000Y-64855659D01*
X50800001Y-64855659D01*
X50864681Y-64850000D01*
X51035408Y-64835063D01*
X51263663Y-64773903D01*
X51477830Y-64674035D01*
X51671401Y-64538495D01*
X51838495Y-64371401D01*
X51968424Y-64185842D01*
X52023002Y-64142217D01*
X52092500Y-64135023D01*
X52154855Y-64166546D01*
X52171575Y-64185842D01*
X52301500Y-64371395D01*
X52301505Y-64371401D01*
X52468599Y-64538495D01*
X52545135Y-64592086D01*
X52662165Y-64674032D01*
X52662167Y-64674033D01*
X52662170Y-64674035D01*
X52876337Y-64773903D01*
X53104592Y-64835063D01*
X53275319Y-64850000D01*
X53339999Y-64855659D01*
X53340000Y-64855659D01*
X53340001Y-64855659D01*
X53404681Y-64850000D01*
X53575408Y-64835063D01*
X53803663Y-64773903D01*
X54017830Y-64674035D01*
X54211401Y-64538495D01*
X54378495Y-64371401D01*
X54508424Y-64185842D01*
X54563002Y-64142217D01*
X54632500Y-64135023D01*
X54694855Y-64166546D01*
X54711575Y-64185842D01*
X54841500Y-64371395D01*
X54841505Y-64371401D01*
X55008599Y-64538495D01*
X55085135Y-64592086D01*
X55202165Y-64674032D01*
X55202167Y-64674033D01*
X55202170Y-64674035D01*
X55416337Y-64773903D01*
X55644592Y-64835063D01*
X55815319Y-64850000D01*
X55879999Y-64855659D01*
X55880000Y-64855659D01*
X55880001Y-64855659D01*
X55944681Y-64850000D01*
X56115408Y-64835063D01*
X56343663Y-64773903D01*
X56557830Y-64674035D01*
X56751401Y-64538495D01*
X56918495Y-64371401D01*
X57048424Y-64185842D01*
X57103002Y-64142217D01*
X57172500Y-64135023D01*
X57234855Y-64166546D01*
X57251575Y-64185842D01*
X57381500Y-64371395D01*
X57381505Y-64371401D01*
X57548599Y-64538495D01*
X57625135Y-64592086D01*
X57742165Y-64674032D01*
X57742167Y-64674033D01*
X57742170Y-64674035D01*
X57956337Y-64773903D01*
X58184592Y-64835063D01*
X58355319Y-64850000D01*
X58419999Y-64855659D01*
X58420000Y-64855659D01*
X58420001Y-64855659D01*
X58484681Y-64850000D01*
X58655408Y-64835063D01*
X58883663Y-64773903D01*
X59097830Y-64674035D01*
X59291401Y-64538495D01*
X59458495Y-64371401D01*
X59588424Y-64185842D01*
X59643002Y-64142217D01*
X59712500Y-64135023D01*
X59774855Y-64166546D01*
X59791575Y-64185842D01*
X59921500Y-64371395D01*
X59921505Y-64371401D01*
X60088599Y-64538495D01*
X60165135Y-64592086D01*
X60282165Y-64674032D01*
X60282167Y-64674033D01*
X60282170Y-64674035D01*
X60496337Y-64773903D01*
X60724592Y-64835063D01*
X60895319Y-64850000D01*
X60959999Y-64855659D01*
X60960000Y-64855659D01*
X60960001Y-64855659D01*
X61024681Y-64850000D01*
X61195408Y-64835063D01*
X61423663Y-64773903D01*
X61637830Y-64674035D01*
X61831401Y-64538495D01*
X61998495Y-64371401D01*
X62128424Y-64185842D01*
X62183002Y-64142217D01*
X62252500Y-64135023D01*
X62314855Y-64166546D01*
X62331575Y-64185842D01*
X62461500Y-64371395D01*
X62461505Y-64371401D01*
X62628599Y-64538495D01*
X62705135Y-64592086D01*
X62822165Y-64674032D01*
X62822167Y-64674033D01*
X62822170Y-64674035D01*
X63036337Y-64773903D01*
X63264592Y-64835063D01*
X63435319Y-64850000D01*
X63499999Y-64855659D01*
X63500000Y-64855659D01*
X63500001Y-64855659D01*
X63564681Y-64850000D01*
X63735408Y-64835063D01*
X63963663Y-64773903D01*
X64177830Y-64674035D01*
X64371401Y-64538495D01*
X64538495Y-64371401D01*
X64668424Y-64185842D01*
X64723002Y-64142217D01*
X64792500Y-64135023D01*
X64854855Y-64166546D01*
X64871575Y-64185842D01*
X65001500Y-64371395D01*
X65001505Y-64371401D01*
X65168599Y-64538495D01*
X65245135Y-64592086D01*
X65362165Y-64674032D01*
X65362167Y-64674033D01*
X65362170Y-64674035D01*
X65576337Y-64773903D01*
X65804592Y-64835063D01*
X65975319Y-64850000D01*
X66039999Y-64855659D01*
X66040000Y-64855659D01*
X66040001Y-64855659D01*
X66104681Y-64850000D01*
X66275408Y-64835063D01*
X66503663Y-64773903D01*
X66717830Y-64674035D01*
X66911401Y-64538495D01*
X67078495Y-64371401D01*
X67208424Y-64185842D01*
X67263002Y-64142217D01*
X67332500Y-64135023D01*
X67394855Y-64166546D01*
X67411575Y-64185842D01*
X67541500Y-64371395D01*
X67541505Y-64371401D01*
X67708599Y-64538495D01*
X67785135Y-64592086D01*
X67902165Y-64674032D01*
X67902167Y-64674033D01*
X67902170Y-64674035D01*
X68116337Y-64773903D01*
X68344592Y-64835063D01*
X68515319Y-64850000D01*
X68579999Y-64855659D01*
X68580000Y-64855659D01*
X68580001Y-64855659D01*
X68644681Y-64850000D01*
X68815408Y-64835063D01*
X69043663Y-64773903D01*
X69257830Y-64674035D01*
X69451401Y-64538495D01*
X69618495Y-64371401D01*
X69748424Y-64185842D01*
X69803002Y-64142217D01*
X69872500Y-64135023D01*
X69934855Y-64166546D01*
X69951575Y-64185842D01*
X70081500Y-64371395D01*
X70081505Y-64371401D01*
X70248599Y-64538495D01*
X70325135Y-64592086D01*
X70442165Y-64674032D01*
X70442167Y-64674033D01*
X70442170Y-64674035D01*
X70656337Y-64773903D01*
X70884592Y-64835063D01*
X71055319Y-64850000D01*
X71119999Y-64855659D01*
X71120000Y-64855659D01*
X71120001Y-64855659D01*
X71184681Y-64850000D01*
X71355408Y-64835063D01*
X71583663Y-64773903D01*
X71797830Y-64674035D01*
X71991401Y-64538495D01*
X72158495Y-64371401D01*
X72288424Y-64185842D01*
X72343002Y-64142217D01*
X72412500Y-64135023D01*
X72474855Y-64166546D01*
X72491575Y-64185842D01*
X72621500Y-64371395D01*
X72621505Y-64371401D01*
X72788599Y-64538495D01*
X72865135Y-64592086D01*
X72982165Y-64674032D01*
X72982167Y-64674033D01*
X72982170Y-64674035D01*
X73196337Y-64773903D01*
X73424592Y-64835063D01*
X73595319Y-64850000D01*
X73659999Y-64855659D01*
X73660000Y-64855659D01*
X73660001Y-64855659D01*
X73724681Y-64850000D01*
X73895408Y-64835063D01*
X74123663Y-64773903D01*
X74337830Y-64674035D01*
X74531401Y-64538495D01*
X74698495Y-64371401D01*
X74828424Y-64185842D01*
X74883002Y-64142217D01*
X74952500Y-64135023D01*
X75014855Y-64166546D01*
X75031575Y-64185842D01*
X75161500Y-64371395D01*
X75161505Y-64371401D01*
X75328599Y-64538495D01*
X75405135Y-64592086D01*
X75522165Y-64674032D01*
X75522167Y-64674033D01*
X75522170Y-64674035D01*
X75736337Y-64773903D01*
X75964592Y-64835063D01*
X76135319Y-64850000D01*
X76199999Y-64855659D01*
X76200000Y-64855659D01*
X76200001Y-64855659D01*
X76264681Y-64850000D01*
X76435408Y-64835063D01*
X76663663Y-64773903D01*
X76877830Y-64674035D01*
X77071401Y-64538495D01*
X77238495Y-64371401D01*
X77368424Y-64185842D01*
X77423002Y-64142217D01*
X77492500Y-64135023D01*
X77554855Y-64166546D01*
X77571575Y-64185842D01*
X77701500Y-64371395D01*
X77701505Y-64371401D01*
X77868599Y-64538495D01*
X77945135Y-64592086D01*
X78062165Y-64674032D01*
X78062167Y-64674033D01*
X78062170Y-64674035D01*
X78276337Y-64773903D01*
X78504592Y-64835063D01*
X78675319Y-64850000D01*
X78739999Y-64855659D01*
X78740000Y-64855659D01*
X78740001Y-64855659D01*
X78804681Y-64850000D01*
X78975408Y-64835063D01*
X79203663Y-64773903D01*
X79417830Y-64674035D01*
X79611401Y-64538495D01*
X79778495Y-64371401D01*
X79908424Y-64185842D01*
X79963002Y-64142217D01*
X80032500Y-64135023D01*
X80094855Y-64166546D01*
X80111575Y-64185842D01*
X80241500Y-64371395D01*
X80241505Y-64371401D01*
X80408599Y-64538495D01*
X80485135Y-64592086D01*
X80602165Y-64674032D01*
X80602167Y-64674033D01*
X80602170Y-64674035D01*
X80816337Y-64773903D01*
X81044592Y-64835063D01*
X81215319Y-64850000D01*
X81279999Y-64855659D01*
X81280000Y-64855659D01*
X81280001Y-64855659D01*
X81344681Y-64850000D01*
X81515408Y-64835063D01*
X81743663Y-64773903D01*
X81957830Y-64674035D01*
X82151401Y-64538495D01*
X82318495Y-64371401D01*
X82448424Y-64185842D01*
X82503002Y-64142217D01*
X82572500Y-64135023D01*
X82634855Y-64166546D01*
X82651575Y-64185842D01*
X82781500Y-64371395D01*
X82781505Y-64371401D01*
X82948599Y-64538495D01*
X83025135Y-64592086D01*
X83142165Y-64674032D01*
X83142167Y-64674033D01*
X83142170Y-64674035D01*
X83356337Y-64773903D01*
X83584592Y-64835063D01*
X83755319Y-64850000D01*
X83819999Y-64855659D01*
X83820000Y-64855659D01*
X83820001Y-64855659D01*
X83884681Y-64850000D01*
X84055408Y-64835063D01*
X84283663Y-64773903D01*
X84497830Y-64674035D01*
X84691401Y-64538495D01*
X84858495Y-64371401D01*
X84988424Y-64185842D01*
X85043002Y-64142217D01*
X85112500Y-64135023D01*
X85174855Y-64166546D01*
X85191575Y-64185842D01*
X85321500Y-64371395D01*
X85321505Y-64371401D01*
X85488599Y-64538495D01*
X85565135Y-64592086D01*
X85682165Y-64674032D01*
X85682167Y-64674033D01*
X85682170Y-64674035D01*
X85896337Y-64773903D01*
X86124592Y-64835063D01*
X86295319Y-64850000D01*
X86359999Y-64855659D01*
X86360000Y-64855659D01*
X86360001Y-64855659D01*
X86424681Y-64850000D01*
X86595408Y-64835063D01*
X86823663Y-64773903D01*
X87037830Y-64674035D01*
X87231401Y-64538495D01*
X87398495Y-64371401D01*
X87528424Y-64185842D01*
X87583002Y-64142217D01*
X87652500Y-64135023D01*
X87714855Y-64166546D01*
X87731575Y-64185842D01*
X87861500Y-64371395D01*
X87861505Y-64371401D01*
X88028599Y-64538495D01*
X88105135Y-64592086D01*
X88222165Y-64674032D01*
X88222167Y-64674033D01*
X88222170Y-64674035D01*
X88436337Y-64773903D01*
X88664592Y-64835063D01*
X88835319Y-64850000D01*
X88899999Y-64855659D01*
X88900000Y-64855659D01*
X88900001Y-64855659D01*
X88964681Y-64850000D01*
X89135408Y-64835063D01*
X89363663Y-64773903D01*
X89577830Y-64674035D01*
X89771401Y-64538495D01*
X89938495Y-64371401D01*
X90068424Y-64185842D01*
X90123002Y-64142217D01*
X90192500Y-64135023D01*
X90254855Y-64166546D01*
X90271575Y-64185842D01*
X90401500Y-64371395D01*
X90401505Y-64371401D01*
X90568599Y-64538495D01*
X90645135Y-64592086D01*
X90762165Y-64674032D01*
X90762167Y-64674033D01*
X90762170Y-64674035D01*
X90976337Y-64773903D01*
X91204592Y-64835063D01*
X91375319Y-64850000D01*
X91439999Y-64855659D01*
X91440000Y-64855659D01*
X91440001Y-64855659D01*
X91504681Y-64850000D01*
X91675408Y-64835063D01*
X91903663Y-64773903D01*
X92117830Y-64674035D01*
X92311401Y-64538495D01*
X92478495Y-64371401D01*
X92608424Y-64185842D01*
X92663002Y-64142217D01*
X92732500Y-64135023D01*
X92794855Y-64166546D01*
X92811575Y-64185842D01*
X92941500Y-64371395D01*
X92941505Y-64371401D01*
X93108599Y-64538495D01*
X93185135Y-64592086D01*
X93302165Y-64674032D01*
X93302167Y-64674033D01*
X93302170Y-64674035D01*
X93516337Y-64773903D01*
X93744592Y-64835063D01*
X93915319Y-64850000D01*
X93979999Y-64855659D01*
X93980000Y-64855659D01*
X93980001Y-64855659D01*
X94044681Y-64850000D01*
X94215408Y-64835063D01*
X94443663Y-64773903D01*
X94657830Y-64674035D01*
X94851401Y-64538495D01*
X95018495Y-64371401D01*
X95148424Y-64185842D01*
X95203002Y-64142217D01*
X95272500Y-64135023D01*
X95334855Y-64166546D01*
X95351575Y-64185842D01*
X95481500Y-64371395D01*
X95481505Y-64371401D01*
X95648599Y-64538495D01*
X95725135Y-64592086D01*
X95842165Y-64674032D01*
X95842167Y-64674033D01*
X95842170Y-64674035D01*
X96056337Y-64773903D01*
X96284592Y-64835063D01*
X96455319Y-64850000D01*
X96519999Y-64855659D01*
X96520000Y-64855659D01*
X96520001Y-64855659D01*
X96584681Y-64850000D01*
X96755408Y-64835063D01*
X96983663Y-64773903D01*
X97197830Y-64674035D01*
X97391401Y-64538495D01*
X97558495Y-64371401D01*
X97688424Y-64185842D01*
X97743002Y-64142217D01*
X97812500Y-64135023D01*
X97874855Y-64166546D01*
X97891575Y-64185842D01*
X98021500Y-64371395D01*
X98021505Y-64371401D01*
X98188599Y-64538495D01*
X98265135Y-64592086D01*
X98382165Y-64674032D01*
X98382167Y-64674033D01*
X98382170Y-64674035D01*
X98596337Y-64773903D01*
X98824592Y-64835063D01*
X98995319Y-64850000D01*
X99059999Y-64855659D01*
X99060000Y-64855659D01*
X99060001Y-64855659D01*
X99124681Y-64850000D01*
X99295408Y-64835063D01*
X99523663Y-64773903D01*
X99737830Y-64674035D01*
X99931401Y-64538495D01*
X100098495Y-64371401D01*
X100228424Y-64185842D01*
X100283002Y-64142217D01*
X100352500Y-64135023D01*
X100414855Y-64166546D01*
X100431575Y-64185842D01*
X100561500Y-64371395D01*
X100561505Y-64371401D01*
X100728599Y-64538495D01*
X100805135Y-64592086D01*
X100922165Y-64674032D01*
X100922167Y-64674033D01*
X100922170Y-64674035D01*
X101136337Y-64773903D01*
X101364592Y-64835063D01*
X101535319Y-64850000D01*
X101599999Y-64855659D01*
X101600000Y-64855659D01*
X101600001Y-64855659D01*
X101664681Y-64850000D01*
X101835408Y-64835063D01*
X102063663Y-64773903D01*
X102277830Y-64674035D01*
X102471401Y-64538495D01*
X102638495Y-64371401D01*
X102768424Y-64185842D01*
X102823002Y-64142217D01*
X102892500Y-64135023D01*
X102954855Y-64166546D01*
X102971575Y-64185842D01*
X103101500Y-64371395D01*
X103101505Y-64371401D01*
X103268599Y-64538495D01*
X103345135Y-64592086D01*
X103462165Y-64674032D01*
X103462167Y-64674033D01*
X103462170Y-64674035D01*
X103676337Y-64773903D01*
X103904592Y-64835063D01*
X104075319Y-64850000D01*
X104139999Y-64855659D01*
X104140000Y-64855659D01*
X104140001Y-64855659D01*
X104204681Y-64850000D01*
X104375408Y-64835063D01*
X104603663Y-64773903D01*
X104817830Y-64674035D01*
X105011401Y-64538495D01*
X105178495Y-64371401D01*
X105308424Y-64185842D01*
X105363002Y-64142217D01*
X105432500Y-64135023D01*
X105494855Y-64166546D01*
X105511575Y-64185842D01*
X105641500Y-64371395D01*
X105641505Y-64371401D01*
X105808599Y-64538495D01*
X105885135Y-64592086D01*
X106002165Y-64674032D01*
X106002167Y-64674033D01*
X106002170Y-64674035D01*
X106216337Y-64773903D01*
X106444592Y-64835063D01*
X106615319Y-64850000D01*
X106679999Y-64855659D01*
X106680000Y-64855659D01*
X106680001Y-64855659D01*
X106744681Y-64850000D01*
X106915408Y-64835063D01*
X107143663Y-64773903D01*
X107357830Y-64674035D01*
X107551401Y-64538495D01*
X107718495Y-64371401D01*
X107854035Y-64177830D01*
X107953903Y-63963663D01*
X108015063Y-63735408D01*
X108035659Y-63500000D01*
X108015063Y-63264592D01*
X107953903Y-63036337D01*
X107854035Y-62822171D01*
X107848425Y-62814158D01*
X107718494Y-62628597D01*
X107551402Y-62461506D01*
X107551395Y-62461501D01*
X107357834Y-62325967D01*
X107357830Y-62325965D01*
X107255563Y-62278277D01*
X107143663Y-62226097D01*
X107143659Y-62226096D01*
X107143655Y-62226094D01*
X106915413Y-62164938D01*
X106915403Y-62164936D01*
X106680001Y-62144341D01*
X106679999Y-62144341D01*
X106444596Y-62164936D01*
X106444586Y-62164938D01*
X106216344Y-62226094D01*
X106216335Y-62226098D01*
X106002171Y-62325964D01*
X106002169Y-62325965D01*
X105808597Y-62461505D01*
X105641508Y-62628594D01*
X105511574Y-62814159D01*
X105456997Y-62857784D01*
X105387498Y-62864976D01*
X105325144Y-62833454D01*
X105308424Y-62814158D01*
X105304686Y-62808820D01*
X105178495Y-62628599D01*
X105178494Y-62628597D01*
X105011402Y-62461506D01*
X105011395Y-62461501D01*
X104817834Y-62325967D01*
X104817830Y-62325965D01*
X104715563Y-62278277D01*
X104603663Y-62226097D01*
X104603659Y-62226096D01*
X104603655Y-62226094D01*
X104375413Y-62164938D01*
X104375403Y-62164936D01*
X104140001Y-62144341D01*
X104139999Y-62144341D01*
X103904596Y-62164936D01*
X103904586Y-62164938D01*
X103676344Y-62226094D01*
X103676335Y-62226098D01*
X103462171Y-62325964D01*
X103462169Y-62325965D01*
X103268597Y-62461505D01*
X103101508Y-62628594D01*
X102971574Y-62814159D01*
X102916997Y-62857784D01*
X102847498Y-62864976D01*
X102785144Y-62833454D01*
X102768424Y-62814158D01*
X102764686Y-62808820D01*
X102638495Y-62628599D01*
X102638494Y-62628597D01*
X102471402Y-62461506D01*
X102471395Y-62461501D01*
X102277834Y-62325967D01*
X102277830Y-62325965D01*
X102175563Y-62278277D01*
X102063663Y-62226097D01*
X102063659Y-62226096D01*
X102063655Y-62226094D01*
X101835413Y-62164938D01*
X101835403Y-62164936D01*
X101600001Y-62144341D01*
X101599999Y-62144341D01*
X101364596Y-62164936D01*
X101364586Y-62164938D01*
X101136344Y-62226094D01*
X101136335Y-62226098D01*
X100922171Y-62325964D01*
X100922169Y-62325965D01*
X100728597Y-62461505D01*
X100561505Y-62628597D01*
X100431575Y-62814158D01*
X100376998Y-62857783D01*
X100307500Y-62864977D01*
X100245145Y-62833454D01*
X100228425Y-62814158D01*
X100098494Y-62628597D01*
X99931402Y-62461506D01*
X99931395Y-62461501D01*
X99737834Y-62325967D01*
X99737830Y-62325965D01*
X99635563Y-62278277D01*
X99523663Y-62226097D01*
X99523659Y-62226096D01*
X99523655Y-62226094D01*
X99295413Y-62164938D01*
X99295403Y-62164936D01*
X99060001Y-62144341D01*
X99059611Y-62144341D01*
X99059445Y-62144292D01*
X99054606Y-62143869D01*
X99054691Y-62142896D01*
X98992572Y-62124656D01*
X98946817Y-62071852D01*
X98936873Y-62002694D01*
X98965898Y-61939138D01*
X98971930Y-61932660D01*
X104615484Y-56289107D01*
X104615499Y-56289089D01*
X108968788Y-51935801D01*
X108981042Y-51925986D01*
X108980859Y-51925764D01*
X108986870Y-51920790D01*
X108986877Y-51920786D01*
X109005107Y-51901371D01*
X109065346Y-51865976D01*
X109135160Y-51868767D01*
X109192382Y-51908860D01*
X109218845Y-51973524D01*
X109219500Y-51986254D01*
X109219500Y-65915500D01*
X109199815Y-65982539D01*
X109147011Y-66028294D01*
X109095500Y-66039500D01*
X25524500Y-66039500D01*
X25457461Y-66019815D01*
X25411706Y-65967011D01*
X25400500Y-65915500D01*
X25400500Y-17904500D01*
X25420185Y-17837461D01*
X25472989Y-17791706D01*
X25524500Y-17780500D01*
X109095500Y-17780500D01*
X109162539Y-17800185D01*
G37*
%TD.AperFunction*%
%TA.AperFunction,Conductor*%
G36*
X81530000Y-47074046D02*
G01*
X81510315Y-47141085D01*
X81493681Y-47161727D01*
X66908504Y-61746903D01*
X66861897Y-61776222D01*
X65595880Y-62220675D01*
X65591391Y-62222062D01*
X65576338Y-62226096D01*
X65566619Y-62230627D01*
X65560971Y-62232930D01*
X65555636Y-62234804D01*
X65549044Y-62237220D01*
X65545289Y-62238656D01*
X65545244Y-62238675D01*
X65484017Y-62266897D01*
X65478425Y-62270225D01*
X65478288Y-62269995D01*
X65464433Y-62278277D01*
X65362172Y-62325963D01*
X65362169Y-62325965D01*
X65168597Y-62461505D01*
X65001505Y-62628597D01*
X64875313Y-62808820D01*
X64820736Y-62852445D01*
X64751238Y-62859639D01*
X64688883Y-62828116D01*
X64661963Y-62791384D01*
X64137725Y-61699937D01*
X64125500Y-61646250D01*
X64125500Y-61270451D01*
X64145185Y-61203412D01*
X64161814Y-61182775D01*
X77871496Y-47473092D01*
X77918098Y-47443776D01*
X79184108Y-46999325D01*
X79188595Y-46997939D01*
X79203663Y-46993903D01*
X79213411Y-46989356D01*
X79219038Y-46987064D01*
X79224258Y-46985232D01*
X79230597Y-46982911D01*
X79234341Y-46981483D01*
X79295989Y-46953097D01*
X79295994Y-46953093D01*
X79301592Y-46949765D01*
X79301729Y-46949996D01*
X79315570Y-46941719D01*
X79349490Y-46925901D01*
X79417830Y-46894035D01*
X79611401Y-46758495D01*
X79733717Y-46636178D01*
X79795036Y-46602696D01*
X79864728Y-46607680D01*
X79920662Y-46649551D01*
X79937577Y-46680528D01*
X79986646Y-46812088D01*
X79986649Y-46812093D01*
X80072809Y-46927187D01*
X80072812Y-46927190D01*
X80187906Y-47013350D01*
X80187913Y-47013354D01*
X80322620Y-47063596D01*
X80322627Y-47063598D01*
X80382155Y-47069999D01*
X80382172Y-47070000D01*
X81030000Y-47070000D01*
X81030000Y-46166494D01*
X81134839Y-46214373D01*
X81243527Y-46230000D01*
X81316473Y-46230000D01*
X81425161Y-46214373D01*
X81530000Y-46166494D01*
X81530000Y-47074046D01*
G37*
%TD.AperFunction*%
%TA.AperFunction,Conductor*%
G36*
X45675898Y-47247545D02*
G01*
X45708188Y-47309506D01*
X45701854Y-47379088D01*
X45674215Y-47421192D01*
X35176208Y-57919199D01*
X35163951Y-57929020D01*
X35164134Y-57929241D01*
X35158122Y-57934214D01*
X35111432Y-57983932D01*
X35110079Y-57985329D01*
X35089889Y-58005519D01*
X35089877Y-58005532D01*
X35085621Y-58011017D01*
X35081837Y-58015447D01*
X35049937Y-58049418D01*
X35049936Y-58049420D01*
X35040284Y-58066976D01*
X35029610Y-58083226D01*
X35017329Y-58099061D01*
X35017324Y-58099068D01*
X34998815Y-58141838D01*
X34996245Y-58147084D01*
X34973803Y-58187906D01*
X34968822Y-58207307D01*
X34962521Y-58225710D01*
X34954562Y-58244102D01*
X34954561Y-58244105D01*
X34947271Y-58290127D01*
X34946087Y-58295846D01*
X34934501Y-58340972D01*
X34934500Y-58340982D01*
X34934500Y-58361016D01*
X34932973Y-58380415D01*
X34929840Y-58400194D01*
X34929840Y-58400195D01*
X34934225Y-58446583D01*
X34934500Y-58452421D01*
X34934500Y-61646250D01*
X34922275Y-61699937D01*
X34401774Y-62783600D01*
X34355005Y-62835508D01*
X34287596Y-62853890D01*
X34220951Y-62832910D01*
X34178224Y-62783600D01*
X33657725Y-61699937D01*
X33645500Y-61646250D01*
X33645500Y-58730452D01*
X33665185Y-58663413D01*
X33681819Y-58642771D01*
X39220004Y-53104586D01*
X44851498Y-47473091D01*
X44898100Y-47443775D01*
X45545461Y-47216510D01*
X45615235Y-47212878D01*
X45675898Y-47247545D01*
G37*
%TD.AperFunction*%
%TA.AperFunction,Conductor*%
G36*
X48215898Y-47247545D02*
G01*
X48248188Y-47309506D01*
X48241854Y-47379088D01*
X48214215Y-47421192D01*
X37716208Y-57919199D01*
X37703951Y-57929020D01*
X37704134Y-57929241D01*
X37698122Y-57934214D01*
X37651432Y-57983932D01*
X37650079Y-57985329D01*
X37629889Y-58005519D01*
X37629877Y-58005532D01*
X37625621Y-58011017D01*
X37621837Y-58015447D01*
X37589937Y-58049418D01*
X37589936Y-58049420D01*
X37580284Y-58066976D01*
X37569610Y-58083226D01*
X37557329Y-58099061D01*
X37557324Y-58099068D01*
X37538815Y-58141838D01*
X37536245Y-58147084D01*
X37513803Y-58187906D01*
X37508822Y-58207307D01*
X37502521Y-58225710D01*
X37494562Y-58244102D01*
X37494561Y-58244105D01*
X37487271Y-58290127D01*
X37486087Y-58295846D01*
X37474501Y-58340972D01*
X37474500Y-58340982D01*
X37474500Y-58361016D01*
X37472973Y-58380415D01*
X37469840Y-58400194D01*
X37469840Y-58400195D01*
X37474225Y-58446583D01*
X37474500Y-58452421D01*
X37474500Y-61646250D01*
X37462275Y-61699937D01*
X36941774Y-62783600D01*
X36895005Y-62835508D01*
X36827596Y-62853890D01*
X36760951Y-62832910D01*
X36718224Y-62783600D01*
X36197725Y-61699937D01*
X36185500Y-61646250D01*
X36185500Y-58730452D01*
X36205185Y-58663413D01*
X36221819Y-58642771D01*
X41760004Y-53104586D01*
X47391498Y-47473091D01*
X47438100Y-47443775D01*
X48085461Y-47216510D01*
X48155235Y-47212878D01*
X48215898Y-47247545D01*
G37*
%TD.AperFunction*%
%TA.AperFunction,Conductor*%
G36*
X50755898Y-47247545D02*
G01*
X50788188Y-47309506D01*
X50781854Y-47379088D01*
X50754215Y-47421192D01*
X40256208Y-57919199D01*
X40243951Y-57929020D01*
X40244134Y-57929241D01*
X40238122Y-57934214D01*
X40191432Y-57983932D01*
X40190079Y-57985329D01*
X40169889Y-58005519D01*
X40169877Y-58005532D01*
X40165621Y-58011017D01*
X40161837Y-58015447D01*
X40129937Y-58049418D01*
X40129936Y-58049420D01*
X40120284Y-58066976D01*
X40109610Y-58083226D01*
X40097329Y-58099061D01*
X40097324Y-58099068D01*
X40078815Y-58141838D01*
X40076245Y-58147084D01*
X40053803Y-58187906D01*
X40048822Y-58207307D01*
X40042521Y-58225710D01*
X40034562Y-58244102D01*
X40034561Y-58244105D01*
X40027271Y-58290127D01*
X40026087Y-58295846D01*
X40014501Y-58340972D01*
X40014500Y-58340982D01*
X40014500Y-58361016D01*
X40012973Y-58380415D01*
X40009840Y-58400194D01*
X40009840Y-58400195D01*
X40014225Y-58446583D01*
X40014500Y-58452421D01*
X40014500Y-61646250D01*
X40002275Y-61699937D01*
X39481774Y-62783600D01*
X39435005Y-62835508D01*
X39367596Y-62853890D01*
X39300951Y-62832910D01*
X39258224Y-62783600D01*
X38737725Y-61699937D01*
X38725500Y-61646250D01*
X38725500Y-58730452D01*
X38745185Y-58663413D01*
X38761819Y-58642771D01*
X44300004Y-53104586D01*
X49931498Y-47473091D01*
X49978100Y-47443775D01*
X50625461Y-47216510D01*
X50695235Y-47212878D01*
X50755898Y-47247545D01*
G37*
%TD.AperFunction*%
%TA.AperFunction,Conductor*%
G36*
X53295898Y-47247545D02*
G01*
X53328188Y-47309506D01*
X53321854Y-47379088D01*
X53294215Y-47421192D01*
X42796208Y-57919199D01*
X42783951Y-57929020D01*
X42784134Y-57929241D01*
X42778122Y-57934214D01*
X42731432Y-57983932D01*
X42730079Y-57985329D01*
X42709889Y-58005519D01*
X42709877Y-58005532D01*
X42705621Y-58011017D01*
X42701837Y-58015447D01*
X42669937Y-58049418D01*
X42669936Y-58049420D01*
X42660284Y-58066976D01*
X42649610Y-58083226D01*
X42637329Y-58099061D01*
X42637324Y-58099068D01*
X42618815Y-58141838D01*
X42616245Y-58147084D01*
X42593803Y-58187906D01*
X42588822Y-58207307D01*
X42582521Y-58225710D01*
X42574562Y-58244102D01*
X42574561Y-58244105D01*
X42567271Y-58290127D01*
X42566087Y-58295846D01*
X42554501Y-58340972D01*
X42554500Y-58340982D01*
X42554500Y-58361016D01*
X42552973Y-58380415D01*
X42549840Y-58400194D01*
X42549840Y-58400195D01*
X42554225Y-58446583D01*
X42554500Y-58452421D01*
X42554500Y-61646250D01*
X42542275Y-61699937D01*
X42021774Y-62783600D01*
X41975005Y-62835508D01*
X41907596Y-62853890D01*
X41840951Y-62832910D01*
X41798224Y-62783600D01*
X41617776Y-62407913D01*
X41277723Y-61699933D01*
X41265500Y-61646254D01*
X41265499Y-58730450D01*
X41285185Y-58663412D01*
X41301814Y-58642775D01*
X52471498Y-47473091D01*
X52518100Y-47443775D01*
X53165461Y-47216510D01*
X53235235Y-47212878D01*
X53295898Y-47247545D01*
G37*
%TD.AperFunction*%
%TA.AperFunction,Conductor*%
G36*
X58670000Y-47074046D02*
G01*
X58650315Y-47141085D01*
X58633681Y-47161727D01*
X45336208Y-60459199D01*
X45323951Y-60469020D01*
X45324134Y-60469241D01*
X45318122Y-60474214D01*
X45271432Y-60523932D01*
X45270079Y-60525329D01*
X45249889Y-60545519D01*
X45249877Y-60545532D01*
X45245621Y-60551017D01*
X45241837Y-60555447D01*
X45209937Y-60589418D01*
X45209936Y-60589420D01*
X45200284Y-60606976D01*
X45189610Y-60623226D01*
X45177329Y-60639061D01*
X45177324Y-60639068D01*
X45158815Y-60681838D01*
X45156245Y-60687084D01*
X45133803Y-60727906D01*
X45128822Y-60747307D01*
X45122521Y-60765710D01*
X45114562Y-60784102D01*
X45114561Y-60784105D01*
X45107271Y-60830127D01*
X45106087Y-60835846D01*
X45094501Y-60880972D01*
X45094500Y-60880982D01*
X45094500Y-60901016D01*
X45092973Y-60920415D01*
X45089840Y-60940194D01*
X45089840Y-60940195D01*
X45094225Y-60986583D01*
X45094500Y-60992421D01*
X45094500Y-61646250D01*
X45082275Y-61699937D01*
X44561774Y-62783600D01*
X44515005Y-62835508D01*
X44447596Y-62853890D01*
X44380951Y-62832910D01*
X44338224Y-62783600D01*
X43817724Y-61699937D01*
X43805499Y-61646250D01*
X43805499Y-60459199D01*
X43805499Y-58730448D01*
X43825184Y-58663413D01*
X43841813Y-58642776D01*
X55011498Y-47473091D01*
X55058100Y-47443775D01*
X56324108Y-46999325D01*
X56328595Y-46997939D01*
X56343663Y-46993903D01*
X56353411Y-46989356D01*
X56359038Y-46987064D01*
X56364258Y-46985232D01*
X56370597Y-46982911D01*
X56374341Y-46981483D01*
X56435989Y-46953097D01*
X56435994Y-46953093D01*
X56441592Y-46949765D01*
X56441729Y-46949996D01*
X56455570Y-46941719D01*
X56489490Y-46925901D01*
X56557830Y-46894035D01*
X56751401Y-46758495D01*
X56873717Y-46636178D01*
X56935036Y-46602696D01*
X57004728Y-46607680D01*
X57060662Y-46649551D01*
X57077577Y-46680528D01*
X57126646Y-46812088D01*
X57126649Y-46812093D01*
X57212809Y-46927187D01*
X57212812Y-46927190D01*
X57327906Y-47013350D01*
X57327913Y-47013354D01*
X57462620Y-47063596D01*
X57462627Y-47063598D01*
X57522155Y-47069999D01*
X57522172Y-47070000D01*
X58170000Y-47070000D01*
X58170000Y-46166494D01*
X58274839Y-46214373D01*
X58383527Y-46230000D01*
X58456473Y-46230000D01*
X58565161Y-46214373D01*
X58670000Y-46166494D01*
X58670000Y-47074046D01*
G37*
%TD.AperFunction*%
%TA.AperFunction,Conductor*%
G36*
X60915900Y-47247544D02*
G01*
X60948190Y-47309505D01*
X60941856Y-47379087D01*
X60914217Y-47421191D01*
X47876208Y-60459199D01*
X47863951Y-60469020D01*
X47864134Y-60469241D01*
X47858122Y-60474214D01*
X47811432Y-60523932D01*
X47810079Y-60525329D01*
X47789889Y-60545519D01*
X47789877Y-60545532D01*
X47785621Y-60551017D01*
X47781837Y-60555447D01*
X47749937Y-60589418D01*
X47749936Y-60589420D01*
X47740284Y-60606976D01*
X47729610Y-60623226D01*
X47717329Y-60639061D01*
X47717324Y-60639068D01*
X47698815Y-60681838D01*
X47696245Y-60687084D01*
X47673803Y-60727906D01*
X47668822Y-60747307D01*
X47662521Y-60765710D01*
X47654562Y-60784102D01*
X47654561Y-60784105D01*
X47647271Y-60830127D01*
X47646087Y-60835846D01*
X47634501Y-60880972D01*
X47634500Y-60880982D01*
X47634500Y-60901016D01*
X47632973Y-60920415D01*
X47629840Y-60940194D01*
X47629840Y-60940195D01*
X47634225Y-60986583D01*
X47634500Y-60992421D01*
X47634499Y-61646250D01*
X47622274Y-61699937D01*
X47101774Y-62783600D01*
X47055005Y-62835508D01*
X46987596Y-62853890D01*
X46920951Y-62832910D01*
X46878224Y-62783600D01*
X46357725Y-61699937D01*
X46345500Y-61646250D01*
X46345500Y-61270451D01*
X46365185Y-61203412D01*
X46381814Y-61182775D01*
X60091496Y-47473092D01*
X60138098Y-47443776D01*
X60785464Y-47216509D01*
X60855237Y-47212877D01*
X60915900Y-47247544D01*
G37*
%TD.AperFunction*%
%TA.AperFunction,Conductor*%
G36*
X63455900Y-47247544D02*
G01*
X63488190Y-47309505D01*
X63481856Y-47379087D01*
X63454217Y-47421191D01*
X50416208Y-60459199D01*
X50403951Y-60469020D01*
X50404134Y-60469241D01*
X50398122Y-60474214D01*
X50351432Y-60523932D01*
X50350079Y-60525329D01*
X50329889Y-60545519D01*
X50329877Y-60545532D01*
X50325621Y-60551017D01*
X50321837Y-60555447D01*
X50289937Y-60589418D01*
X50289936Y-60589420D01*
X50280284Y-60606976D01*
X50269610Y-60623226D01*
X50257329Y-60639061D01*
X50257324Y-60639068D01*
X50238815Y-60681838D01*
X50236245Y-60687084D01*
X50213803Y-60727906D01*
X50208822Y-60747307D01*
X50202521Y-60765710D01*
X50194562Y-60784102D01*
X50194561Y-60784105D01*
X50187271Y-60830127D01*
X50186087Y-60835846D01*
X50174501Y-60880972D01*
X50174500Y-60880982D01*
X50174500Y-60901016D01*
X50172973Y-60920415D01*
X50169840Y-60940194D01*
X50169839Y-60940197D01*
X50174224Y-60986585D01*
X50174499Y-60992421D01*
X50174499Y-61646249D01*
X50162274Y-61699936D01*
X49641774Y-62783600D01*
X49595005Y-62835508D01*
X49527596Y-62853890D01*
X49460951Y-62832910D01*
X49418224Y-62783600D01*
X48897725Y-61699937D01*
X48885500Y-61646250D01*
X48885500Y-61270451D01*
X48905185Y-61203412D01*
X48921814Y-61182775D01*
X62631496Y-47473092D01*
X62678098Y-47443776D01*
X63325464Y-47216509D01*
X63395237Y-47212877D01*
X63455900Y-47247544D01*
G37*
%TD.AperFunction*%
%TA.AperFunction,Conductor*%
G36*
X65995900Y-47247544D02*
G01*
X66028190Y-47309505D01*
X66021856Y-47379087D01*
X65994217Y-47421191D01*
X52956208Y-60459199D01*
X52943951Y-60469020D01*
X52944134Y-60469241D01*
X52938122Y-60474214D01*
X52891432Y-60523932D01*
X52890079Y-60525329D01*
X52869889Y-60545519D01*
X52869877Y-60545532D01*
X52865621Y-60551017D01*
X52861837Y-60555447D01*
X52829937Y-60589418D01*
X52829936Y-60589420D01*
X52820284Y-60606976D01*
X52809610Y-60623226D01*
X52797329Y-60639061D01*
X52797324Y-60639068D01*
X52778815Y-60681838D01*
X52776245Y-60687084D01*
X52753803Y-60727906D01*
X52748822Y-60747307D01*
X52742521Y-60765710D01*
X52734562Y-60784102D01*
X52734561Y-60784105D01*
X52727271Y-60830127D01*
X52726087Y-60835846D01*
X52714501Y-60880972D01*
X52714500Y-60880982D01*
X52714500Y-60901016D01*
X52712973Y-60920415D01*
X52709840Y-60940194D01*
X52709839Y-60940197D01*
X52714224Y-60986585D01*
X52714499Y-60992421D01*
X52714499Y-61646249D01*
X52702274Y-61699936D01*
X52181774Y-62783600D01*
X52135005Y-62835508D01*
X52067596Y-62853890D01*
X52000951Y-62832910D01*
X51958224Y-62783600D01*
X51437724Y-61699937D01*
X51425499Y-61646250D01*
X51425499Y-61646249D01*
X51425499Y-61270448D01*
X51445184Y-61203413D01*
X51461813Y-61182776D01*
X65171496Y-47473092D01*
X65218098Y-47443776D01*
X65865464Y-47216509D01*
X65935237Y-47212877D01*
X65995900Y-47247544D01*
G37*
%TD.AperFunction*%
%TA.AperFunction,Conductor*%
G36*
X68535900Y-47247544D02*
G01*
X68568190Y-47309505D01*
X68561856Y-47379087D01*
X68534217Y-47421191D01*
X55496208Y-60459199D01*
X55483951Y-60469020D01*
X55484134Y-60469241D01*
X55478122Y-60474214D01*
X55431432Y-60523932D01*
X55430079Y-60525329D01*
X55409889Y-60545519D01*
X55409877Y-60545532D01*
X55405621Y-60551017D01*
X55401837Y-60555447D01*
X55369937Y-60589418D01*
X55369936Y-60589420D01*
X55360284Y-60606976D01*
X55349610Y-60623226D01*
X55337329Y-60639061D01*
X55337324Y-60639068D01*
X55318815Y-60681838D01*
X55316245Y-60687084D01*
X55293803Y-60727906D01*
X55288822Y-60747307D01*
X55282521Y-60765710D01*
X55274562Y-60784102D01*
X55274561Y-60784105D01*
X55267271Y-60830127D01*
X55266087Y-60835846D01*
X55254501Y-60880972D01*
X55254500Y-60880982D01*
X55254500Y-60901016D01*
X55252973Y-60920415D01*
X55249840Y-60940194D01*
X55249840Y-60940195D01*
X55254225Y-60986583D01*
X55254500Y-60992421D01*
X55254500Y-61646250D01*
X55242275Y-61699937D01*
X54721774Y-62783600D01*
X54675005Y-62835508D01*
X54607596Y-62853890D01*
X54540951Y-62832910D01*
X54498224Y-62783600D01*
X53977725Y-61699937D01*
X53965500Y-61646250D01*
X53965500Y-61270451D01*
X53985185Y-61203412D01*
X54001814Y-61182775D01*
X67711496Y-47473092D01*
X67758098Y-47443776D01*
X68405464Y-47216509D01*
X68475237Y-47212877D01*
X68535900Y-47247544D01*
G37*
%TD.AperFunction*%
%TA.AperFunction,Conductor*%
G36*
X71075900Y-47247544D02*
G01*
X71108190Y-47309505D01*
X71101856Y-47379087D01*
X71074217Y-47421191D01*
X58036208Y-60459199D01*
X58023951Y-60469020D01*
X58024134Y-60469241D01*
X58018122Y-60474214D01*
X57971432Y-60523932D01*
X57970079Y-60525329D01*
X57949889Y-60545519D01*
X57949877Y-60545532D01*
X57945621Y-60551017D01*
X57941837Y-60555447D01*
X57909937Y-60589418D01*
X57909936Y-60589420D01*
X57900284Y-60606976D01*
X57889610Y-60623226D01*
X57877329Y-60639061D01*
X57877324Y-60639068D01*
X57858815Y-60681838D01*
X57856245Y-60687084D01*
X57833803Y-60727906D01*
X57828822Y-60747307D01*
X57822521Y-60765710D01*
X57814562Y-60784102D01*
X57814561Y-60784105D01*
X57807271Y-60830127D01*
X57806087Y-60835846D01*
X57794501Y-60880972D01*
X57794500Y-60880982D01*
X57794500Y-60901016D01*
X57792973Y-60920415D01*
X57789840Y-60940194D01*
X57789840Y-60940195D01*
X57794225Y-60986583D01*
X57794500Y-60992421D01*
X57794500Y-61646250D01*
X57782275Y-61699937D01*
X57261774Y-62783600D01*
X57215005Y-62835508D01*
X57147596Y-62853890D01*
X57080951Y-62832910D01*
X57038224Y-62783600D01*
X56517725Y-61699937D01*
X56505500Y-61646250D01*
X56505500Y-61270451D01*
X56525185Y-61203412D01*
X56541814Y-61182775D01*
X70251496Y-47473092D01*
X70298098Y-47443776D01*
X70945464Y-47216509D01*
X71015237Y-47212877D01*
X71075900Y-47247544D01*
G37*
%TD.AperFunction*%
%TA.AperFunction,Conductor*%
G36*
X73615900Y-47247544D02*
G01*
X73648190Y-47309505D01*
X73641856Y-47379087D01*
X73614217Y-47421191D01*
X60576208Y-60459199D01*
X60563951Y-60469020D01*
X60564134Y-60469241D01*
X60558122Y-60474214D01*
X60511432Y-60523932D01*
X60510079Y-60525329D01*
X60489889Y-60545519D01*
X60489877Y-60545532D01*
X60485621Y-60551017D01*
X60481837Y-60555447D01*
X60449937Y-60589418D01*
X60449936Y-60589420D01*
X60440284Y-60606976D01*
X60429610Y-60623226D01*
X60417329Y-60639061D01*
X60417324Y-60639068D01*
X60398815Y-60681838D01*
X60396245Y-60687084D01*
X60373803Y-60727906D01*
X60368822Y-60747307D01*
X60362521Y-60765710D01*
X60354562Y-60784102D01*
X60354561Y-60784105D01*
X60347271Y-60830127D01*
X60346087Y-60835846D01*
X60334501Y-60880972D01*
X60334500Y-60880982D01*
X60334500Y-60901016D01*
X60332973Y-60920415D01*
X60329840Y-60940194D01*
X60329840Y-60940195D01*
X60334225Y-60986583D01*
X60334500Y-60992421D01*
X60334500Y-61646250D01*
X60322275Y-61699937D01*
X59801774Y-62783600D01*
X59755005Y-62835508D01*
X59687596Y-62853890D01*
X59620951Y-62832910D01*
X59578224Y-62783600D01*
X59057725Y-61699937D01*
X59045500Y-61646250D01*
X59045500Y-61270451D01*
X59065185Y-61203412D01*
X59081814Y-61182775D01*
X72791496Y-47473092D01*
X72838098Y-47443776D01*
X73485464Y-47216509D01*
X73555237Y-47212877D01*
X73615900Y-47247544D01*
G37*
%TD.AperFunction*%
%TA.AperFunction,Conductor*%
G36*
X76155900Y-47247544D02*
G01*
X76188190Y-47309505D01*
X76181856Y-47379087D01*
X76154217Y-47421191D01*
X63116208Y-60459199D01*
X63103951Y-60469020D01*
X63104134Y-60469241D01*
X63098122Y-60474214D01*
X63051432Y-60523932D01*
X63050079Y-60525329D01*
X63029889Y-60545519D01*
X63029877Y-60545532D01*
X63025621Y-60551017D01*
X63021837Y-60555447D01*
X62989937Y-60589418D01*
X62989936Y-60589420D01*
X62980284Y-60606976D01*
X62969610Y-60623226D01*
X62957329Y-60639061D01*
X62957324Y-60639068D01*
X62938815Y-60681838D01*
X62936245Y-60687084D01*
X62913803Y-60727906D01*
X62908822Y-60747307D01*
X62902521Y-60765710D01*
X62894562Y-60784102D01*
X62894561Y-60784105D01*
X62887271Y-60830127D01*
X62886087Y-60835846D01*
X62874501Y-60880972D01*
X62874500Y-60880982D01*
X62874500Y-60901016D01*
X62872973Y-60920416D01*
X62869839Y-60940194D01*
X62874224Y-60986580D01*
X62874499Y-60992417D01*
X62874499Y-61646250D01*
X62862274Y-61699937D01*
X62341774Y-62783600D01*
X62295005Y-62835508D01*
X62227596Y-62853890D01*
X62160951Y-62832910D01*
X62118224Y-62783600D01*
X61597725Y-61699937D01*
X61585500Y-61646250D01*
X61585500Y-61270451D01*
X61605185Y-61203412D01*
X61621819Y-61182770D01*
X68426094Y-54378495D01*
X75331496Y-47473092D01*
X75378098Y-47443776D01*
X76025464Y-47216509D01*
X76095237Y-47212877D01*
X76155900Y-47247544D01*
G37*
%TD.AperFunction*%
%TA.AperFunction,Conductor*%
G36*
X73910000Y-29290000D02*
G01*
X74557828Y-29290000D01*
X74557844Y-29289999D01*
X74617372Y-29283598D01*
X74617379Y-29283596D01*
X74752086Y-29233354D01*
X74752093Y-29233350D01*
X74867187Y-29147190D01*
X74867190Y-29147187D01*
X74953350Y-29032093D01*
X74953354Y-29032086D01*
X75002422Y-28900529D01*
X75044293Y-28844595D01*
X75109757Y-28820178D01*
X75178030Y-28835030D01*
X75206285Y-28856181D01*
X75328599Y-28978495D01*
X75425384Y-29046264D01*
X75522165Y-29114032D01*
X75522167Y-29114033D01*
X75522170Y-29114035D01*
X75736337Y-29213903D01*
X75964592Y-29275063D01*
X76141034Y-29290500D01*
X76199999Y-29295659D01*
X76200000Y-29295659D01*
X76200001Y-29295659D01*
X76258966Y-29290500D01*
X76435408Y-29275063D01*
X76663663Y-29213903D01*
X76877830Y-29114035D01*
X77071401Y-28978495D01*
X77238495Y-28811401D01*
X77368426Y-28625841D01*
X77423002Y-28582217D01*
X77492500Y-28575023D01*
X77554855Y-28606546D01*
X77571575Y-28625842D01*
X77701411Y-28811268D01*
X77701505Y-28811401D01*
X77868599Y-28978495D01*
X77965384Y-29046264D01*
X78062165Y-29114032D01*
X78062167Y-29114033D01*
X78062170Y-29114035D01*
X78276337Y-29213903D01*
X78504592Y-29275063D01*
X78681034Y-29290500D01*
X78739999Y-29295659D01*
X78740000Y-29295659D01*
X78740001Y-29295659D01*
X78798966Y-29290500D01*
X78975408Y-29275063D01*
X79203663Y-29213903D01*
X79417830Y-29114035D01*
X79611401Y-28978495D01*
X79778495Y-28811401D01*
X79908426Y-28625841D01*
X79963002Y-28582217D01*
X80032500Y-28575023D01*
X80094855Y-28606546D01*
X80111575Y-28625842D01*
X80241411Y-28811268D01*
X80241505Y-28811401D01*
X80408599Y-28978495D01*
X80505384Y-29046264D01*
X80602165Y-29114032D01*
X80602167Y-29114033D01*
X80602170Y-29114035D01*
X80816337Y-29213903D01*
X81044592Y-29275063D01*
X81221034Y-29290500D01*
X81279999Y-29295659D01*
X81280000Y-29295659D01*
X81280001Y-29295659D01*
X81338966Y-29290500D01*
X81515408Y-29275063D01*
X81743663Y-29213903D01*
X81957830Y-29114035D01*
X82151401Y-28978495D01*
X82318495Y-28811401D01*
X82448426Y-28625840D01*
X82503001Y-28582217D01*
X82572499Y-28575023D01*
X82634854Y-28606546D01*
X82651574Y-28625841D01*
X82672970Y-28656397D01*
X82781505Y-28811401D01*
X82948599Y-28978495D01*
X83045384Y-29046264D01*
X83142165Y-29114032D01*
X83142167Y-29114033D01*
X83142170Y-29114035D01*
X83356337Y-29213903D01*
X83584592Y-29275063D01*
X83761034Y-29290500D01*
X83819999Y-29295659D01*
X83820000Y-29295659D01*
X83820001Y-29295659D01*
X83878966Y-29290500D01*
X84055408Y-29275063D01*
X84283663Y-29213903D01*
X84497830Y-29114035D01*
X84691401Y-28978495D01*
X84858495Y-28811401D01*
X84988426Y-28625841D01*
X85043002Y-28582217D01*
X85112500Y-28575023D01*
X85174855Y-28606546D01*
X85191575Y-28625842D01*
X85321411Y-28811268D01*
X85321505Y-28811401D01*
X85488599Y-28978495D01*
X85585384Y-29046264D01*
X85682165Y-29114032D01*
X85682167Y-29114033D01*
X85682170Y-29114035D01*
X85896337Y-29213903D01*
X86124592Y-29275063D01*
X86301034Y-29290500D01*
X86359999Y-29295659D01*
X86360000Y-29295659D01*
X86360001Y-29295659D01*
X86418966Y-29290500D01*
X86595408Y-29275063D01*
X86823663Y-29213903D01*
X87037830Y-29114035D01*
X87231401Y-28978495D01*
X87398495Y-28811401D01*
X87528426Y-28625840D01*
X87583001Y-28582217D01*
X87652499Y-28575023D01*
X87714854Y-28606546D01*
X87731574Y-28625841D01*
X87752970Y-28656397D01*
X87861505Y-28811401D01*
X88028599Y-28978495D01*
X88125384Y-29046264D01*
X88222165Y-29114032D01*
X88222167Y-29114033D01*
X88222170Y-29114035D01*
X88436337Y-29213903D01*
X88664592Y-29275063D01*
X88841034Y-29290500D01*
X88899999Y-29295659D01*
X88900000Y-29295659D01*
X88900001Y-29295659D01*
X88958966Y-29290500D01*
X89135408Y-29275063D01*
X89363663Y-29213903D01*
X89577830Y-29114035D01*
X89771401Y-28978495D01*
X89938495Y-28811401D01*
X90068426Y-28625841D01*
X90123002Y-28582217D01*
X90192500Y-28575023D01*
X90254855Y-28606546D01*
X90271575Y-28625842D01*
X90401411Y-28811268D01*
X90401505Y-28811401D01*
X90568599Y-28978495D01*
X90665384Y-29046264D01*
X90762165Y-29114032D01*
X90762167Y-29114033D01*
X90762170Y-29114035D01*
X90976337Y-29213903D01*
X91204592Y-29275063D01*
X91381034Y-29290500D01*
X91439999Y-29295659D01*
X91440000Y-29295659D01*
X91440001Y-29295659D01*
X91498966Y-29290500D01*
X91675408Y-29275063D01*
X91903663Y-29213903D01*
X92117830Y-29114035D01*
X92311401Y-28978495D01*
X92478495Y-28811401D01*
X92608426Y-28625840D01*
X92663001Y-28582217D01*
X92732499Y-28575023D01*
X92794854Y-28606546D01*
X92811574Y-28625841D01*
X92832970Y-28656397D01*
X92941505Y-28811401D01*
X93108599Y-28978495D01*
X93205384Y-29046264D01*
X93302165Y-29114032D01*
X93302167Y-29114033D01*
X93302170Y-29114035D01*
X93516337Y-29213903D01*
X93567344Y-29227569D01*
X93569686Y-29228247D01*
X94422280Y-29493584D01*
X94442347Y-29499829D01*
X94500509Y-29538546D01*
X94528506Y-29602561D01*
X94529500Y-29618228D01*
X94529500Y-44307496D01*
X94509815Y-44374535D01*
X94457011Y-44420290D01*
X94387853Y-44430234D01*
X94373408Y-44427271D01*
X94215416Y-44384939D01*
X94215412Y-44384938D01*
X94215408Y-44384937D01*
X94215406Y-44384936D01*
X94215403Y-44384936D01*
X93980001Y-44364341D01*
X93979999Y-44364341D01*
X93744596Y-44384936D01*
X93744586Y-44384938D01*
X93516344Y-44446094D01*
X93516335Y-44446098D01*
X93302171Y-44545964D01*
X93302169Y-44545965D01*
X93108597Y-44681505D01*
X92941505Y-44848597D01*
X92811575Y-45034158D01*
X92756998Y-45077783D01*
X92687500Y-45084977D01*
X92625145Y-45053454D01*
X92608425Y-45034158D01*
X92478494Y-44848597D01*
X92311402Y-44681506D01*
X92311395Y-44681501D01*
X92117834Y-44545967D01*
X92117830Y-44545965D01*
X92046727Y-44512809D01*
X91903663Y-44446097D01*
X91903659Y-44446096D01*
X91903655Y-44446094D01*
X91675413Y-44384938D01*
X91675403Y-44384936D01*
X91440001Y-44364341D01*
X91439999Y-44364341D01*
X91204596Y-44384936D01*
X91204586Y-44384938D01*
X90976344Y-44446094D01*
X90976335Y-44446098D01*
X90762171Y-44545964D01*
X90762169Y-44545965D01*
X90568597Y-44681505D01*
X90401505Y-44848597D01*
X90271575Y-45034158D01*
X90216998Y-45077783D01*
X90147500Y-45084977D01*
X90085145Y-45053454D01*
X90068425Y-45034158D01*
X89938494Y-44848597D01*
X89771402Y-44681506D01*
X89771395Y-44681501D01*
X89577834Y-44545967D01*
X89577830Y-44545965D01*
X89506727Y-44512809D01*
X89363663Y-44446097D01*
X89363659Y-44446096D01*
X89363655Y-44446094D01*
X89135413Y-44384938D01*
X89135403Y-44384936D01*
X88900001Y-44364341D01*
X88899999Y-44364341D01*
X88664596Y-44384936D01*
X88664586Y-44384938D01*
X88436344Y-44446094D01*
X88436335Y-44446098D01*
X88222171Y-44545964D01*
X88222169Y-44545965D01*
X88028597Y-44681505D01*
X87861505Y-44848597D01*
X87731575Y-45034158D01*
X87676998Y-45077783D01*
X87607500Y-45084977D01*
X87545145Y-45053454D01*
X87528425Y-45034158D01*
X87398494Y-44848597D01*
X87231402Y-44681506D01*
X87231395Y-44681501D01*
X87037834Y-44545967D01*
X87037830Y-44545965D01*
X86966727Y-44512809D01*
X86823663Y-44446097D01*
X86823659Y-44446096D01*
X86823655Y-44446094D01*
X86595413Y-44384938D01*
X86595403Y-44384936D01*
X86360001Y-44364341D01*
X86359999Y-44364341D01*
X86124596Y-44384936D01*
X86124586Y-44384938D01*
X85896344Y-44446094D01*
X85896335Y-44446098D01*
X85682171Y-44545964D01*
X85682169Y-44545965D01*
X85488597Y-44681505D01*
X85321505Y-44848597D01*
X85191575Y-45034158D01*
X85136998Y-45077783D01*
X85067500Y-45084977D01*
X85005145Y-45053454D01*
X84988425Y-45034158D01*
X84858494Y-44848597D01*
X84691402Y-44681506D01*
X84691395Y-44681501D01*
X84497834Y-44545967D01*
X84497830Y-44545965D01*
X84426727Y-44512809D01*
X84283663Y-44446097D01*
X84283659Y-44446096D01*
X84283655Y-44446094D01*
X84055413Y-44384938D01*
X84055403Y-44384936D01*
X83820001Y-44364341D01*
X83819999Y-44364341D01*
X83584596Y-44384936D01*
X83584586Y-44384938D01*
X83356344Y-44446094D01*
X83356335Y-44446098D01*
X83142171Y-44545964D01*
X83142169Y-44545965D01*
X82948600Y-44681503D01*
X82826284Y-44803819D01*
X82764961Y-44837303D01*
X82695269Y-44832319D01*
X82639336Y-44790447D01*
X82622421Y-44759470D01*
X82573354Y-44627913D01*
X82573350Y-44627906D01*
X82487190Y-44512812D01*
X82487187Y-44512809D01*
X82372093Y-44426649D01*
X82372086Y-44426645D01*
X82237379Y-44376403D01*
X82237372Y-44376401D01*
X82177844Y-44370000D01*
X81530000Y-44370000D01*
X81530000Y-45273505D01*
X81425161Y-45225627D01*
X81316473Y-45210000D01*
X81243527Y-45210000D01*
X81134839Y-45225627D01*
X81030000Y-45273505D01*
X81030000Y-44370000D01*
X80382155Y-44370000D01*
X80322627Y-44376401D01*
X80322620Y-44376403D01*
X80187913Y-44426645D01*
X80187906Y-44426649D01*
X80072812Y-44512809D01*
X80072809Y-44512812D01*
X79986649Y-44627906D01*
X79986645Y-44627913D01*
X79937578Y-44759470D01*
X79895707Y-44815404D01*
X79830242Y-44839821D01*
X79761969Y-44824969D01*
X79733715Y-44803819D01*
X79689366Y-44759470D01*
X79611401Y-44681505D01*
X79611397Y-44681502D01*
X79611396Y-44681501D01*
X79417834Y-44545967D01*
X79417830Y-44545965D01*
X79346727Y-44512809D01*
X79203663Y-44446097D01*
X79203659Y-44446096D01*
X79203655Y-44446094D01*
X78975413Y-44384938D01*
X78975403Y-44384936D01*
X78740001Y-44364341D01*
X78739999Y-44364341D01*
X78504596Y-44384936D01*
X78504586Y-44384938D01*
X78276344Y-44446094D01*
X78276335Y-44446098D01*
X78062171Y-44545964D01*
X78062169Y-44545965D01*
X77868597Y-44681505D01*
X77701505Y-44848597D01*
X77571575Y-45034158D01*
X77516998Y-45077783D01*
X77447500Y-45084977D01*
X77385145Y-45053454D01*
X77368425Y-45034158D01*
X77238494Y-44848597D01*
X77071402Y-44681506D01*
X77071395Y-44681501D01*
X76877834Y-44545967D01*
X76877830Y-44545965D01*
X76806727Y-44512809D01*
X76663663Y-44446097D01*
X76663659Y-44446096D01*
X76663655Y-44446094D01*
X76435413Y-44384938D01*
X76435403Y-44384936D01*
X76200001Y-44364341D01*
X76199999Y-44364341D01*
X75964596Y-44384936D01*
X75964586Y-44384938D01*
X75736344Y-44446094D01*
X75736335Y-44446098D01*
X75522171Y-44545964D01*
X75522169Y-44545965D01*
X75328597Y-44681505D01*
X75161505Y-44848597D01*
X75031575Y-45034158D01*
X74976998Y-45077783D01*
X74907500Y-45084977D01*
X74845145Y-45053454D01*
X74828425Y-45034158D01*
X74698494Y-44848597D01*
X74531402Y-44681506D01*
X74531395Y-44681501D01*
X74337834Y-44545967D01*
X74337830Y-44545965D01*
X74266727Y-44512809D01*
X74123663Y-44446097D01*
X74123659Y-44446096D01*
X74123655Y-44446094D01*
X73895413Y-44384938D01*
X73895403Y-44384936D01*
X73660001Y-44364341D01*
X73659999Y-44364341D01*
X73424596Y-44384936D01*
X73424586Y-44384938D01*
X73196344Y-44446094D01*
X73196335Y-44446098D01*
X72982171Y-44545964D01*
X72982169Y-44545965D01*
X72788597Y-44681505D01*
X72621505Y-44848597D01*
X72491575Y-45034158D01*
X72436998Y-45077783D01*
X72367500Y-45084977D01*
X72305145Y-45053454D01*
X72288425Y-45034158D01*
X72158494Y-44848597D01*
X71991402Y-44681506D01*
X71991395Y-44681501D01*
X71797834Y-44545967D01*
X71797830Y-44545965D01*
X71726727Y-44512809D01*
X71583663Y-44446097D01*
X71583659Y-44446096D01*
X71583655Y-44446094D01*
X71355413Y-44384938D01*
X71355403Y-44384936D01*
X71120001Y-44364341D01*
X71119999Y-44364341D01*
X70884596Y-44384936D01*
X70884586Y-44384938D01*
X70656344Y-44446094D01*
X70656335Y-44446098D01*
X70442171Y-44545964D01*
X70442169Y-44545965D01*
X70248597Y-44681505D01*
X70081505Y-44848597D01*
X69951575Y-45034158D01*
X69896998Y-45077783D01*
X69827500Y-45084977D01*
X69765145Y-45053454D01*
X69748425Y-45034158D01*
X69618494Y-44848597D01*
X69451402Y-44681506D01*
X69451395Y-44681501D01*
X69257834Y-44545967D01*
X69257830Y-44545965D01*
X69186727Y-44512809D01*
X69043663Y-44446097D01*
X69043659Y-44446096D01*
X69043655Y-44446094D01*
X68815413Y-44384938D01*
X68815403Y-44384936D01*
X68580001Y-44364341D01*
X68579999Y-44364341D01*
X68344596Y-44384936D01*
X68344586Y-44384938D01*
X68116344Y-44446094D01*
X68116335Y-44446098D01*
X67902171Y-44545964D01*
X67902169Y-44545965D01*
X67708597Y-44681505D01*
X67541505Y-44848597D01*
X67411575Y-45034158D01*
X67356998Y-45077783D01*
X67287500Y-45084977D01*
X67225145Y-45053454D01*
X67208425Y-45034158D01*
X67078494Y-44848597D01*
X66911402Y-44681506D01*
X66911395Y-44681501D01*
X66717834Y-44545967D01*
X66717830Y-44545965D01*
X66646727Y-44512809D01*
X66503663Y-44446097D01*
X66503659Y-44446096D01*
X66503655Y-44446094D01*
X66275413Y-44384938D01*
X66275403Y-44384936D01*
X66040001Y-44364341D01*
X66039999Y-44364341D01*
X65804596Y-44384936D01*
X65804586Y-44384938D01*
X65576344Y-44446094D01*
X65576335Y-44446098D01*
X65362171Y-44545964D01*
X65362169Y-44545965D01*
X65168597Y-44681505D01*
X65001508Y-44848594D01*
X64871574Y-45034160D01*
X64816997Y-45077784D01*
X64747498Y-45084977D01*
X64685144Y-45053455D01*
X64668429Y-45034164D01*
X64538495Y-44848599D01*
X64538493Y-44848596D01*
X64371402Y-44681506D01*
X64371395Y-44681501D01*
X64177834Y-44545967D01*
X64177830Y-44545965D01*
X64106727Y-44512809D01*
X63963663Y-44446097D01*
X63963659Y-44446096D01*
X63963655Y-44446094D01*
X63735413Y-44384938D01*
X63735403Y-44384936D01*
X63500001Y-44364341D01*
X63499999Y-44364341D01*
X63264596Y-44384936D01*
X63264586Y-44384938D01*
X63036344Y-44446094D01*
X63036335Y-44446098D01*
X62822171Y-44545964D01*
X62822169Y-44545965D01*
X62628597Y-44681505D01*
X62461505Y-44848597D01*
X62331575Y-45034158D01*
X62276998Y-45077783D01*
X62207500Y-45084977D01*
X62145145Y-45053454D01*
X62128425Y-45034158D01*
X61998494Y-44848597D01*
X61831402Y-44681506D01*
X61831395Y-44681501D01*
X61637834Y-44545967D01*
X61637830Y-44545965D01*
X61566727Y-44512809D01*
X61423663Y-44446097D01*
X61423659Y-44446096D01*
X61423655Y-44446094D01*
X61195413Y-44384938D01*
X61195403Y-44384936D01*
X60960001Y-44364341D01*
X60959999Y-44364341D01*
X60724596Y-44384936D01*
X60724586Y-44384938D01*
X60496344Y-44446094D01*
X60496335Y-44446098D01*
X60282171Y-44545964D01*
X60282169Y-44545965D01*
X60088600Y-44681503D01*
X59966284Y-44803819D01*
X59904961Y-44837303D01*
X59835269Y-44832319D01*
X59779336Y-44790447D01*
X59762421Y-44759470D01*
X59713354Y-44627913D01*
X59713350Y-44627906D01*
X59627190Y-44512812D01*
X59627187Y-44512809D01*
X59512093Y-44426649D01*
X59512086Y-44426645D01*
X59377379Y-44376403D01*
X59377372Y-44376401D01*
X59317844Y-44370000D01*
X58670000Y-44370000D01*
X58670000Y-45273505D01*
X58565161Y-45225627D01*
X58456473Y-45210000D01*
X58383527Y-45210000D01*
X58274839Y-45225627D01*
X58170000Y-45273505D01*
X58170000Y-44370000D01*
X57522155Y-44370000D01*
X57462627Y-44376401D01*
X57462620Y-44376403D01*
X57327913Y-44426645D01*
X57327906Y-44426649D01*
X57212812Y-44512809D01*
X57212809Y-44512812D01*
X57126649Y-44627906D01*
X57126645Y-44627913D01*
X57077578Y-44759470D01*
X57035707Y-44815404D01*
X56970242Y-44839821D01*
X56901969Y-44824969D01*
X56873715Y-44803819D01*
X56829366Y-44759470D01*
X56751401Y-44681505D01*
X56751397Y-44681502D01*
X56751396Y-44681501D01*
X56557834Y-44545967D01*
X56557830Y-44545965D01*
X56486727Y-44512809D01*
X56343663Y-44446097D01*
X56343659Y-44446096D01*
X56343655Y-44446094D01*
X56115413Y-44384938D01*
X56115403Y-44384936D01*
X55880001Y-44364341D01*
X55879999Y-44364341D01*
X55644596Y-44384936D01*
X55644586Y-44384938D01*
X55416344Y-44446094D01*
X55416335Y-44446098D01*
X55202171Y-44545964D01*
X55202169Y-44545965D01*
X55008597Y-44681505D01*
X54841508Y-44848594D01*
X54711574Y-45034160D01*
X54656997Y-45077784D01*
X54587498Y-45084977D01*
X54525144Y-45053455D01*
X54508429Y-45034164D01*
X54378495Y-44848599D01*
X54378493Y-44848596D01*
X54211402Y-44681506D01*
X54211395Y-44681501D01*
X54017834Y-44545967D01*
X54017830Y-44545965D01*
X53946727Y-44512809D01*
X53803663Y-44446097D01*
X53803659Y-44446096D01*
X53803655Y-44446094D01*
X53575413Y-44384938D01*
X53575403Y-44384936D01*
X53340001Y-44364341D01*
X53339999Y-44364341D01*
X53104596Y-44384936D01*
X53104586Y-44384938D01*
X52876344Y-44446094D01*
X52876335Y-44446098D01*
X52662171Y-44545964D01*
X52662169Y-44545965D01*
X52468597Y-44681505D01*
X52301505Y-44848597D01*
X52171575Y-45034158D01*
X52116998Y-45077783D01*
X52047500Y-45084977D01*
X51985145Y-45053454D01*
X51968425Y-45034158D01*
X51838494Y-44848597D01*
X51671402Y-44681506D01*
X51671395Y-44681501D01*
X51477834Y-44545967D01*
X51477830Y-44545965D01*
X51406727Y-44512809D01*
X51263663Y-44446097D01*
X51263659Y-44446096D01*
X51263655Y-44446094D01*
X51035413Y-44384938D01*
X51035403Y-44384936D01*
X50800001Y-44364341D01*
X50799999Y-44364341D01*
X50564596Y-44384936D01*
X50564586Y-44384938D01*
X50336344Y-44446094D01*
X50336335Y-44446098D01*
X50122171Y-44545964D01*
X50122169Y-44545965D01*
X49928597Y-44681505D01*
X49761505Y-44848597D01*
X49631575Y-45034158D01*
X49576998Y-45077783D01*
X49507500Y-45084977D01*
X49445145Y-45053454D01*
X49428425Y-45034158D01*
X49298494Y-44848597D01*
X49131402Y-44681506D01*
X49131395Y-44681501D01*
X48937834Y-44545967D01*
X48937830Y-44545965D01*
X48866727Y-44512809D01*
X48723663Y-44446097D01*
X48723659Y-44446096D01*
X48723655Y-44446094D01*
X48495413Y-44384938D01*
X48495403Y-44384936D01*
X48260001Y-44364341D01*
X48259999Y-44364341D01*
X48024596Y-44384936D01*
X48024586Y-44384938D01*
X47796344Y-44446094D01*
X47796335Y-44446098D01*
X47582171Y-44545964D01*
X47582169Y-44545965D01*
X47388597Y-44681505D01*
X47221505Y-44848597D01*
X47091575Y-45034158D01*
X47036998Y-45077783D01*
X46967500Y-45084977D01*
X46905145Y-45053454D01*
X46888425Y-45034158D01*
X46758494Y-44848597D01*
X46591402Y-44681506D01*
X46591395Y-44681501D01*
X46397834Y-44545967D01*
X46397830Y-44545965D01*
X46326727Y-44512809D01*
X46183663Y-44446097D01*
X46183659Y-44446096D01*
X46183655Y-44446094D01*
X45955413Y-44384938D01*
X45955403Y-44384936D01*
X45720001Y-44364341D01*
X45719999Y-44364341D01*
X45484596Y-44384936D01*
X45484586Y-44384938D01*
X45256344Y-44446094D01*
X45256335Y-44446098D01*
X45042171Y-44545964D01*
X45042169Y-44545965D01*
X44848597Y-44681505D01*
X44681505Y-44848597D01*
X44545965Y-45042169D01*
X44545964Y-45042171D01*
X44459616Y-45227343D01*
X44458409Y-45229791D01*
X44453649Y-45238924D01*
X44453645Y-45238933D01*
X44452930Y-45240969D01*
X44450629Y-45246614D01*
X44446097Y-45256334D01*
X44446097Y-45256336D01*
X44442064Y-45271385D01*
X44440677Y-45275874D01*
X43996222Y-46541897D01*
X43966903Y-46588504D01*
X34818823Y-55736583D01*
X34757500Y-55770068D01*
X34687808Y-55765084D01*
X34631875Y-55723212D01*
X34607524Y-55658628D01*
X34605187Y-55628928D01*
X34546396Y-55384043D01*
X34450019Y-55151368D01*
X34385022Y-55045305D01*
X33519999Y-55910328D01*
X33520000Y-55808111D01*
X33479493Y-55670156D01*
X33401761Y-55549202D01*
X33293100Y-55455048D01*
X33162315Y-55395320D01*
X33055763Y-55380000D01*
X32984237Y-55380000D01*
X32877685Y-55395320D01*
X32746900Y-55455048D01*
X32638239Y-55549202D01*
X32560507Y-55670156D01*
X32520000Y-55808111D01*
X32520000Y-55951889D01*
X32560507Y-56089844D01*
X32638239Y-56210798D01*
X32746900Y-56304952D01*
X32877685Y-56364680D01*
X32984237Y-56380000D01*
X33050330Y-56380000D01*
X33020000Y-56410330D01*
X32185305Y-57245022D01*
X32185305Y-57245023D01*
X32291368Y-57310019D01*
X32524043Y-57406396D01*
X32768929Y-57465187D01*
X32768927Y-57465187D01*
X32798628Y-57467524D01*
X32863917Y-57492406D01*
X32905389Y-57548637D01*
X32909877Y-57618362D01*
X32876583Y-57678823D01*
X32636207Y-57919200D01*
X32623951Y-57929020D01*
X32624134Y-57929241D01*
X32618122Y-57934214D01*
X32571432Y-57983932D01*
X32570079Y-57985329D01*
X32549889Y-58005519D01*
X32549877Y-58005532D01*
X32545621Y-58011017D01*
X32541837Y-58015447D01*
X32509937Y-58049418D01*
X32509936Y-58049420D01*
X32500284Y-58066976D01*
X32489610Y-58083226D01*
X32477329Y-58099061D01*
X32477324Y-58099068D01*
X32458815Y-58141838D01*
X32456245Y-58147084D01*
X32433803Y-58187906D01*
X32428822Y-58207307D01*
X32422521Y-58225710D01*
X32414562Y-58244102D01*
X32414561Y-58244105D01*
X32407271Y-58290127D01*
X32406087Y-58295846D01*
X32394501Y-58340972D01*
X32394500Y-58340982D01*
X32394500Y-58361016D01*
X32392973Y-58380415D01*
X32389840Y-58400194D01*
X32389840Y-58400195D01*
X32394225Y-58446583D01*
X32394500Y-58452421D01*
X32394500Y-61646250D01*
X32382275Y-61699937D01*
X31871514Y-62763323D01*
X31824745Y-62815231D01*
X31757336Y-62833613D01*
X31690691Y-62812633D01*
X31645968Y-62758952D01*
X31644190Y-62754629D01*
X31533707Y-62470894D01*
X31326649Y-61939138D01*
X31238951Y-61713917D01*
X31230500Y-61668924D01*
X31230500Y-56327720D01*
X31250185Y-56260681D01*
X31302989Y-56214926D01*
X31372147Y-56204982D01*
X31435703Y-56234007D01*
X31473477Y-56292785D01*
X31475074Y-56298773D01*
X31493603Y-56375956D01*
X31589980Y-56608631D01*
X31654976Y-56714693D01*
X32489670Y-55880000D01*
X32489670Y-55879999D01*
X31654976Y-55045305D01*
X31589980Y-55151371D01*
X31589977Y-55151376D01*
X31493603Y-55384043D01*
X31475074Y-55461226D01*
X31440283Y-55521818D01*
X31378257Y-55553982D01*
X31308688Y-55547506D01*
X31253664Y-55504447D01*
X31230655Y-55438474D01*
X31230500Y-55432279D01*
X31230500Y-51162229D01*
X31250185Y-51095190D01*
X31266819Y-51074548D01*
X31365474Y-50975893D01*
X31466417Y-50874949D01*
X31527738Y-50841466D01*
X31597429Y-50846450D01*
X31653363Y-50888321D01*
X31677624Y-50951824D01*
X31684936Y-51035403D01*
X31684938Y-51035413D01*
X31746094Y-51263655D01*
X31746096Y-51263659D01*
X31746097Y-51263663D01*
X31758902Y-51291123D01*
X31845965Y-51477830D01*
X31845967Y-51477834D01*
X31981501Y-51671395D01*
X31981506Y-51671402D01*
X32148597Y-51838493D01*
X32148603Y-51838498D01*
X32334158Y-51968425D01*
X32377783Y-52023002D01*
X32384977Y-52092500D01*
X32353454Y-52154855D01*
X32334158Y-52171575D01*
X32148597Y-52301505D01*
X31981505Y-52468597D01*
X31845965Y-52662169D01*
X31845964Y-52662171D01*
X31746098Y-52876335D01*
X31746094Y-52876344D01*
X31684938Y-53104586D01*
X31684936Y-53104596D01*
X31664341Y-53339999D01*
X31664341Y-53340000D01*
X31684936Y-53575403D01*
X31684938Y-53575413D01*
X31746094Y-53803655D01*
X31746096Y-53803659D01*
X31746097Y-53803663D01*
X31845963Y-54017826D01*
X31845965Y-54017830D01*
X31845967Y-54017834D01*
X31981501Y-54211395D01*
X31981506Y-54211402D01*
X32152427Y-54382323D01*
X32150801Y-54383948D01*
X32184075Y-54433949D01*
X32188812Y-54485354D01*
X32185305Y-54514976D01*
X33020000Y-55349670D01*
X33020001Y-55349670D01*
X33854693Y-54514977D01*
X33851187Y-54485358D01*
X33862854Y-54416470D01*
X33888674Y-54383425D01*
X33887573Y-54382324D01*
X33973032Y-54296862D01*
X34058495Y-54211401D01*
X34194035Y-54017830D01*
X34280411Y-53832592D01*
X34281607Y-53830172D01*
X34286348Y-53821076D01*
X34286350Y-53821073D01*
X34287059Y-53819050D01*
X34289369Y-53813385D01*
X34293901Y-53803668D01*
X34293901Y-53803667D01*
X34293900Y-53803667D01*
X34293903Y-53803663D01*
X34297943Y-53788581D01*
X34299319Y-53784129D01*
X34743775Y-52518099D01*
X34773091Y-52471497D01*
X51022771Y-36221819D01*
X51084095Y-36188334D01*
X51110453Y-36185500D01*
X53257257Y-36185500D01*
X53272877Y-36187224D01*
X53272904Y-36186939D01*
X53280666Y-36187673D01*
X53280666Y-36187672D01*
X53280667Y-36187673D01*
X53283999Y-36187568D01*
X53348847Y-36185531D01*
X53350794Y-36185500D01*
X53379347Y-36185500D01*
X53379350Y-36185500D01*
X53386228Y-36184630D01*
X53392041Y-36184172D01*
X53438627Y-36182709D01*
X53457869Y-36177117D01*
X53476912Y-36173174D01*
X53496792Y-36170664D01*
X53540122Y-36153507D01*
X53545646Y-36151617D01*
X53549396Y-36150527D01*
X53590390Y-36138618D01*
X53607629Y-36128422D01*
X53625103Y-36119862D01*
X53643727Y-36112488D01*
X53643727Y-36112487D01*
X53643732Y-36112486D01*
X53681449Y-36085082D01*
X53686305Y-36081892D01*
X53726420Y-36058170D01*
X53740589Y-36043999D01*
X53755379Y-36031368D01*
X53771587Y-36019594D01*
X53801299Y-35983676D01*
X53805212Y-35979376D01*
X60091498Y-29693091D01*
X60138100Y-29663775D01*
X61404108Y-29219325D01*
X61408595Y-29217939D01*
X61423663Y-29213903D01*
X61433411Y-29209356D01*
X61439038Y-29207064D01*
X61444258Y-29205232D01*
X61450597Y-29202911D01*
X61454341Y-29201483D01*
X61515989Y-29173097D01*
X61515994Y-29173093D01*
X61521592Y-29169765D01*
X61521729Y-29169996D01*
X61535570Y-29161719D01*
X61569490Y-29145901D01*
X61637830Y-29114035D01*
X61831401Y-28978495D01*
X61998495Y-28811401D01*
X62124687Y-28631179D01*
X62179264Y-28587555D01*
X62248762Y-28580361D01*
X62311117Y-28611884D01*
X62338036Y-28648615D01*
X62862273Y-29740060D01*
X62862274Y-29740061D01*
X62874499Y-29793748D01*
X62874499Y-35266761D01*
X62866488Y-35310607D01*
X62661606Y-35852594D01*
X62647418Y-35895945D01*
X62646980Y-35899344D01*
X62641932Y-35921778D01*
X62614328Y-36006737D01*
X62614326Y-36006743D01*
X62595539Y-36185499D01*
X62594540Y-36195000D01*
X62614326Y-36383256D01*
X62614327Y-36383259D01*
X62672818Y-36563277D01*
X62672821Y-36563284D01*
X62767467Y-36727216D01*
X62894129Y-36867887D01*
X62894129Y-36867888D01*
X63047265Y-36979148D01*
X63047270Y-36979151D01*
X63220192Y-37056142D01*
X63220197Y-37056144D01*
X63405354Y-37095500D01*
X63405355Y-37095500D01*
X63594644Y-37095500D01*
X63594646Y-37095500D01*
X63779803Y-37056144D01*
X63952730Y-36979151D01*
X64105871Y-36867888D01*
X64232533Y-36727216D01*
X64327179Y-36563284D01*
X64385674Y-36383256D01*
X64405460Y-36195000D01*
X64385674Y-36006744D01*
X64345374Y-35882715D01*
X64343814Y-35876998D01*
X64338394Y-35852601D01*
X64338392Y-35852595D01*
X64133511Y-35310610D01*
X64125500Y-35266764D01*
X64125500Y-29793747D01*
X64137725Y-29740060D01*
X64137942Y-29739609D01*
X64658225Y-28656394D01*
X64704993Y-28604489D01*
X64772402Y-28586107D01*
X64839047Y-28607087D01*
X64881774Y-28656397D01*
X65402274Y-29740061D01*
X65414499Y-29793748D01*
X65414499Y-37171762D01*
X65406488Y-37215608D01*
X65201615Y-37757572D01*
X65201594Y-37757631D01*
X65187418Y-37800945D01*
X65186980Y-37804344D01*
X65181932Y-37826778D01*
X65154328Y-37911737D01*
X65154327Y-37911742D01*
X65154326Y-37911744D01*
X65134540Y-38100000D01*
X65154326Y-38288256D01*
X65154327Y-38288259D01*
X65212818Y-38468277D01*
X65212821Y-38468284D01*
X65307467Y-38632216D01*
X65434128Y-38772887D01*
X65434129Y-38772888D01*
X65587265Y-38884148D01*
X65587270Y-38884151D01*
X65760192Y-38961142D01*
X65760197Y-38961144D01*
X65945354Y-39000500D01*
X65945355Y-39000500D01*
X66134644Y-39000500D01*
X66134646Y-39000500D01*
X66319803Y-38961144D01*
X66492730Y-38884151D01*
X66645871Y-38772888D01*
X66772533Y-38632216D01*
X66867179Y-38468284D01*
X66925674Y-38288256D01*
X66945460Y-38100000D01*
X66925674Y-37911744D01*
X66885374Y-37787715D01*
X66883814Y-37781998D01*
X66878394Y-37757601D01*
X66878392Y-37757595D01*
X66673511Y-37215610D01*
X66665500Y-37171764D01*
X66665500Y-34024500D01*
X66665499Y-29793742D01*
X66677722Y-29740065D01*
X67198225Y-28656394D01*
X67244993Y-28604489D01*
X67312402Y-28586107D01*
X67379047Y-28607087D01*
X67421774Y-28656397D01*
X67618450Y-29065869D01*
X67942274Y-29740060D01*
X67942275Y-29740061D01*
X67954500Y-29793748D01*
X67954500Y-39076761D01*
X67946489Y-39120607D01*
X67741606Y-39662594D01*
X67727418Y-39705945D01*
X67726980Y-39709344D01*
X67721932Y-39731778D01*
X67694328Y-39816737D01*
X67694327Y-39816742D01*
X67694326Y-39816744D01*
X67674540Y-40005000D01*
X67694326Y-40193256D01*
X67694327Y-40193259D01*
X67752818Y-40373277D01*
X67752821Y-40373284D01*
X67847467Y-40537216D01*
X67949843Y-40650916D01*
X67974129Y-40677888D01*
X68127265Y-40789148D01*
X68127270Y-40789151D01*
X68300192Y-40866142D01*
X68300197Y-40866144D01*
X68485354Y-40905500D01*
X68485355Y-40905500D01*
X68674644Y-40905500D01*
X68674646Y-40905500D01*
X68859803Y-40866144D01*
X69032730Y-40789151D01*
X69185871Y-40677888D01*
X69312533Y-40537216D01*
X69407179Y-40373284D01*
X69465674Y-40193256D01*
X69485460Y-40005000D01*
X69465674Y-39816744D01*
X69425374Y-39692715D01*
X69423814Y-39686998D01*
X69418394Y-39662601D01*
X69418392Y-39662595D01*
X69213511Y-39120610D01*
X69205500Y-39076764D01*
X69205500Y-29793747D01*
X69217725Y-29740060D01*
X69217942Y-29739609D01*
X69738225Y-28656394D01*
X69784993Y-28604489D01*
X69852402Y-28586107D01*
X69919047Y-28607087D01*
X69961774Y-28656397D01*
X70158450Y-29065869D01*
X70482274Y-29740060D01*
X70482275Y-29740061D01*
X70494500Y-29793748D01*
X70494500Y-40981761D01*
X70486489Y-41025607D01*
X70281606Y-41567594D01*
X70267418Y-41610945D01*
X70266980Y-41614344D01*
X70261932Y-41636778D01*
X70234328Y-41721737D01*
X70234327Y-41721742D01*
X70234326Y-41721744D01*
X70214540Y-41910000D01*
X70234326Y-42098256D01*
X70234327Y-42098259D01*
X70292818Y-42278277D01*
X70292821Y-42278284D01*
X70387467Y-42442216D01*
X70514128Y-42582888D01*
X70514129Y-42582888D01*
X70667265Y-42694148D01*
X70667270Y-42694151D01*
X70840192Y-42771142D01*
X70840197Y-42771144D01*
X71025354Y-42810500D01*
X71025355Y-42810500D01*
X71214644Y-42810500D01*
X71214646Y-42810500D01*
X71399803Y-42771144D01*
X71572730Y-42694151D01*
X71725871Y-42582888D01*
X71852533Y-42442216D01*
X71947179Y-42278284D01*
X72005674Y-42098256D01*
X72025460Y-41910000D01*
X72005674Y-41721744D01*
X71965374Y-41597715D01*
X71963814Y-41591998D01*
X71958394Y-41567601D01*
X71958392Y-41567595D01*
X71753511Y-41025610D01*
X71745500Y-40981764D01*
X71745500Y-29793747D01*
X71757725Y-29740060D01*
X71757942Y-29739609D01*
X72122980Y-28979611D01*
X72169748Y-28927705D01*
X72237157Y-28909323D01*
X72303802Y-28930303D01*
X72348525Y-28983984D01*
X72350936Y-28989967D01*
X72366645Y-29032086D01*
X72366649Y-29032093D01*
X72452809Y-29147187D01*
X72452812Y-29147190D01*
X72567906Y-29233350D01*
X72567913Y-29233354D01*
X72702620Y-29283596D01*
X72702627Y-29283598D01*
X72762155Y-29289999D01*
X72762172Y-29290000D01*
X73410000Y-29290000D01*
X73410000Y-28386494D01*
X73514839Y-28434373D01*
X73623527Y-28450000D01*
X73696473Y-28450000D01*
X73805161Y-28434373D01*
X73910000Y-28386494D01*
X73910000Y-29290000D01*
G37*
%TD.AperFunction*%
%TA.AperFunction,Conductor*%
G36*
X83775898Y-47247545D02*
G01*
X83808188Y-47309506D01*
X83801854Y-47379088D01*
X83774215Y-47421192D01*
X69448504Y-61746903D01*
X69401897Y-61776222D01*
X68754537Y-62003487D01*
X68684762Y-62007120D01*
X68624099Y-61972453D01*
X68591809Y-61910493D01*
X68598143Y-61840911D01*
X68625780Y-61798808D01*
X82951498Y-47473091D01*
X82998100Y-47443775D01*
X83645461Y-47216510D01*
X83715235Y-47212878D01*
X83775898Y-47247545D01*
G37*
%TD.AperFunction*%
%TA.AperFunction,Conductor*%
G36*
X86315898Y-47247545D02*
G01*
X86348188Y-47309506D01*
X86341854Y-47379088D01*
X86314215Y-47421192D01*
X71988504Y-61746903D01*
X71941897Y-61776222D01*
X71294537Y-62003487D01*
X71224762Y-62007120D01*
X71164099Y-61972453D01*
X71131809Y-61910493D01*
X71138143Y-61840911D01*
X71165780Y-61798808D01*
X85491498Y-47473091D01*
X85538100Y-47443775D01*
X86185461Y-47216510D01*
X86255235Y-47212878D01*
X86315898Y-47247545D01*
G37*
%TD.AperFunction*%
%TA.AperFunction,Conductor*%
G36*
X88855898Y-47247545D02*
G01*
X88888188Y-47309506D01*
X88881854Y-47379088D01*
X88854215Y-47421192D01*
X74528504Y-61746903D01*
X74481897Y-61776222D01*
X73834537Y-62003487D01*
X73764762Y-62007120D01*
X73704099Y-61972453D01*
X73671809Y-61910493D01*
X73678143Y-61840911D01*
X73705780Y-61798808D01*
X88031498Y-47473091D01*
X88078100Y-47443775D01*
X88725461Y-47216510D01*
X88795235Y-47212878D01*
X88855898Y-47247545D01*
G37*
%TD.AperFunction*%
%TA.AperFunction,Conductor*%
G36*
X91395898Y-47247545D02*
G01*
X91428188Y-47309506D01*
X91421854Y-47379088D01*
X91394215Y-47421192D01*
X77068504Y-61746903D01*
X77021897Y-61776222D01*
X76374537Y-62003487D01*
X76304762Y-62007120D01*
X76244099Y-61972453D01*
X76211809Y-61910493D01*
X76218143Y-61840911D01*
X76245780Y-61798808D01*
X90571498Y-47473091D01*
X90618100Y-47443775D01*
X91265461Y-47216510D01*
X91335235Y-47212878D01*
X91395898Y-47247545D01*
G37*
%TD.AperFunction*%
%TA.AperFunction,Conductor*%
G36*
X93935900Y-47247544D02*
G01*
X93968190Y-47309505D01*
X93961856Y-47379087D01*
X93934217Y-47421191D01*
X79608504Y-61746903D01*
X79561897Y-61776222D01*
X78914537Y-62003487D01*
X78844762Y-62007120D01*
X78784099Y-61972453D01*
X78751809Y-61910493D01*
X78758143Y-61840911D01*
X78785780Y-61798808D01*
X93111498Y-47473091D01*
X93158100Y-47443775D01*
X93805463Y-47216509D01*
X93875237Y-47212877D01*
X93935900Y-47247544D01*
G37*
%TD.AperFunction*%
%TA.AperFunction,Conductor*%
G36*
X57004340Y-28828068D02*
G01*
X57060274Y-28869939D01*
X57077189Y-28900917D01*
X57126202Y-29032328D01*
X57126206Y-29032335D01*
X57212452Y-29147544D01*
X57212455Y-29147547D01*
X57327664Y-29233793D01*
X57327671Y-29233797D01*
X57462517Y-29284091D01*
X57462516Y-29284091D01*
X57469444Y-29284835D01*
X57522127Y-29290500D01*
X58425546Y-29290499D01*
X58492585Y-29310183D01*
X58538340Y-29362987D01*
X58548284Y-29432146D01*
X58519259Y-29495702D01*
X58513227Y-29502180D01*
X53117228Y-34898181D01*
X53055905Y-34931666D01*
X53029547Y-34934500D01*
X50882738Y-34934500D01*
X50867121Y-34932776D01*
X50867094Y-34933062D01*
X50859332Y-34932327D01*
X50791172Y-34934469D01*
X50789225Y-34934500D01*
X50760650Y-34934500D01*
X50759929Y-34934590D01*
X50753757Y-34935369D01*
X50747945Y-34935826D01*
X50701373Y-34937290D01*
X50701372Y-34937290D01*
X50682129Y-34942881D01*
X50663079Y-34946825D01*
X50643211Y-34949334D01*
X50643209Y-34949335D01*
X50599884Y-34966488D01*
X50594357Y-34968380D01*
X50549610Y-34981381D01*
X50549609Y-34981382D01*
X50532367Y-34991579D01*
X50514899Y-35000137D01*
X50496269Y-35007513D01*
X50496267Y-35007514D01*
X50458576Y-35034898D01*
X50453694Y-35038105D01*
X50413579Y-35061830D01*
X50399408Y-35076000D01*
X50384623Y-35088628D01*
X50368412Y-35100407D01*
X50338709Y-35136310D01*
X50334777Y-35140631D01*
X34830033Y-50645374D01*
X34768710Y-50678859D01*
X34699018Y-50673875D01*
X34643085Y-50632003D01*
X34618668Y-50566539D01*
X34628830Y-50507805D01*
X34819610Y-50073705D01*
X34845445Y-50035921D01*
X55115921Y-29765445D01*
X55153705Y-29739610D01*
X56398191Y-29192680D01*
X56441520Y-29171106D01*
X56441523Y-29171103D01*
X56441528Y-29171101D01*
X56446548Y-29167973D01*
X56446673Y-29168174D01*
X56463227Y-29158148D01*
X56557830Y-29114035D01*
X56751401Y-28978495D01*
X56873329Y-28856566D01*
X56934648Y-28823084D01*
X57004340Y-28828068D01*
G37*
%TD.AperFunction*%
%TA.AperFunction,Conductor*%
G36*
X50654839Y-28434373D02*
G01*
X50763527Y-28450000D01*
X50836473Y-28450000D01*
X50945161Y-28434373D01*
X51049999Y-28386495D01*
X51049999Y-29289999D01*
X51050000Y-29290000D01*
X51697828Y-29290000D01*
X51697844Y-29289999D01*
X51757372Y-29283598D01*
X51757379Y-29283596D01*
X51892086Y-29233354D01*
X51892093Y-29233350D01*
X52007187Y-29147190D01*
X52007190Y-29147187D01*
X52093350Y-29032093D01*
X52093354Y-29032086D01*
X52142422Y-28900529D01*
X52184293Y-28844595D01*
X52249757Y-28820178D01*
X52318030Y-28835030D01*
X52346285Y-28856181D01*
X52468599Y-28978495D01*
X52565384Y-29046264D01*
X52662165Y-29114032D01*
X52662167Y-29114033D01*
X52662170Y-29114035D01*
X52876337Y-29213903D01*
X53104592Y-29275063D01*
X53188173Y-29282375D01*
X53253241Y-29307827D01*
X53294220Y-29364418D01*
X53298098Y-29434180D01*
X53265046Y-29493584D01*
X34573584Y-48185046D01*
X34512261Y-48218531D01*
X34442569Y-48213547D01*
X34386636Y-48171675D01*
X34362375Y-48108172D01*
X34356364Y-48039470D01*
X34355063Y-48024592D01*
X34293903Y-47796337D01*
X34194035Y-47582171D01*
X34189800Y-47576123D01*
X34058496Y-47388600D01*
X34027813Y-47357917D01*
X33936567Y-47266671D01*
X33903084Y-47205351D01*
X33908068Y-47135659D01*
X33949939Y-47079725D01*
X33980915Y-47062810D01*
X34112331Y-47013796D01*
X34227546Y-46927546D01*
X34313796Y-46812331D01*
X34364091Y-46677483D01*
X34370500Y-46617873D01*
X34370499Y-44909030D01*
X34370625Y-44905084D01*
X34370767Y-44902853D01*
X34370693Y-44901919D01*
X34370499Y-44897018D01*
X34370499Y-44822129D01*
X34370498Y-44822123D01*
X34370497Y-44822116D01*
X34364091Y-44762517D01*
X34351241Y-44728067D01*
X34349673Y-44723274D01*
X34347541Y-44715733D01*
X34342698Y-44698597D01*
X34335216Y-44683936D01*
X34332362Y-44677449D01*
X34313796Y-44627669D01*
X34297241Y-44605554D01*
X34286058Y-44587607D01*
X34277297Y-44570439D01*
X33793196Y-43884629D01*
X33770617Y-43818508D01*
X33770500Y-43813120D01*
X33770500Y-41002228D01*
X33790185Y-40935189D01*
X33806814Y-40914552D01*
X44955919Y-29765446D01*
X44993703Y-29739611D01*
X46238191Y-29192680D01*
X46281520Y-29171106D01*
X46281523Y-29171103D01*
X46281528Y-29171101D01*
X46286548Y-29167973D01*
X46286673Y-29168174D01*
X46303227Y-29158148D01*
X46397830Y-29114035D01*
X46591401Y-28978495D01*
X46758495Y-28811401D01*
X46888426Y-28625841D01*
X46943002Y-28582217D01*
X47012500Y-28575023D01*
X47074855Y-28606546D01*
X47091575Y-28625842D01*
X47221411Y-28811268D01*
X47221505Y-28811401D01*
X47388599Y-28978495D01*
X47485384Y-29046265D01*
X47582165Y-29114032D01*
X47582167Y-29114033D01*
X47582170Y-29114035D01*
X47796337Y-29213903D01*
X48024592Y-29275063D01*
X48201034Y-29290500D01*
X48259999Y-29295659D01*
X48260000Y-29295659D01*
X48260001Y-29295659D01*
X48318966Y-29290500D01*
X48495408Y-29275063D01*
X48723663Y-29213903D01*
X48937830Y-29114035D01*
X49131401Y-28978495D01*
X49253717Y-28856178D01*
X49315036Y-28822696D01*
X49384728Y-28827680D01*
X49440662Y-28869551D01*
X49457577Y-28900528D01*
X49506646Y-29032088D01*
X49506649Y-29032093D01*
X49592809Y-29147187D01*
X49592812Y-29147190D01*
X49707906Y-29233350D01*
X49707913Y-29233354D01*
X49842620Y-29283596D01*
X49842627Y-29283598D01*
X49902155Y-29289999D01*
X49902172Y-29290000D01*
X50550000Y-29290000D01*
X50550000Y-28386494D01*
X50654839Y-28434373D01*
G37*
%TD.AperFunction*%
%TD*%
%TA.AperFunction,Conductor*%
%TO.N,D5*%
G36*
X101324109Y-35073719D02*
G01*
X101330427Y-35080066D01*
X101330551Y-35088655D01*
X101092859Y-35717437D01*
X101086728Y-35723964D01*
X101081915Y-35725000D01*
X100848085Y-35725000D01*
X100839812Y-35721573D01*
X100837141Y-35717437D01*
X100599448Y-35088655D01*
X100599728Y-35079705D01*
X100605889Y-35073719D01*
X100960500Y-34925875D01*
X100969449Y-34925855D01*
X101324109Y-35073719D01*
G37*
%TD.AperFunction*%
%TD*%
%TA.AperFunction,Conductor*%
%TO.N,A10*%
G36*
X72886106Y-45399428D02*
G01*
X73656215Y-45717438D01*
X73662552Y-45723761D01*
X73662562Y-45723785D01*
X73980567Y-46493883D01*
X73980558Y-46502838D01*
X73974219Y-46509163D01*
X73973629Y-46509388D01*
X72553251Y-47008031D01*
X72544309Y-47007539D01*
X72541102Y-47005265D01*
X72374734Y-46838897D01*
X72371307Y-46830624D01*
X72371968Y-46826748D01*
X72483461Y-46509163D01*
X72870612Y-45406368D01*
X72876584Y-45399699D01*
X72885526Y-45399207D01*
X72886106Y-45399428D01*
G37*
%TD.AperFunction*%
%TD*%
%TA.AperFunction,Conductor*%
%TO.N,D3*%
G36*
X97514109Y-30628719D02*
G01*
X97520427Y-30635066D01*
X97520551Y-30643655D01*
X97282859Y-31272437D01*
X97276728Y-31278964D01*
X97271915Y-31280000D01*
X97038085Y-31280000D01*
X97029812Y-31276573D01*
X97027141Y-31272437D01*
X96789448Y-30643655D01*
X96789728Y-30634705D01*
X96795889Y-30628719D01*
X97150500Y-30480875D01*
X97159449Y-30480855D01*
X97514109Y-30628719D01*
G37*
%TD.AperFunction*%
%TD*%
%TA.AperFunction,Conductor*%
%TO.N,A11*%
G36*
X61085912Y-61803427D02*
G01*
X61088186Y-61806634D01*
X61739950Y-63163586D01*
X61740442Y-63172528D01*
X61734469Y-63179199D01*
X61733892Y-63179457D01*
X60964489Y-63499134D01*
X60955534Y-63499143D01*
X60955511Y-63499134D01*
X60186107Y-63179457D01*
X60179782Y-63173118D01*
X60179791Y-63164163D01*
X60180049Y-63163586D01*
X60831814Y-61806634D01*
X60838485Y-61800661D01*
X60842361Y-61800000D01*
X61077639Y-61800000D01*
X61085912Y-61803427D01*
G37*
%TD.AperFunction*%
%TD*%
%TA.AperFunction,Conductor*%
%TO.N,A8*%
G36*
X67806106Y-45399428D02*
G01*
X68576215Y-45717438D01*
X68582552Y-45723761D01*
X68582562Y-45723785D01*
X68900567Y-46493883D01*
X68900558Y-46502838D01*
X68894219Y-46509163D01*
X68893629Y-46509388D01*
X67473251Y-47008031D01*
X67464309Y-47007539D01*
X67461102Y-47005265D01*
X67294734Y-46838897D01*
X67291307Y-46830624D01*
X67291968Y-46826748D01*
X67403461Y-46509163D01*
X67790612Y-45406368D01*
X67796584Y-45399699D01*
X67805526Y-45399207D01*
X67806106Y-45399428D01*
G37*
%TD.AperFunction*%
%TD*%
%TA.AperFunction,Conductor*%
%TO.N,RUN*%
G36*
X60186106Y-27619428D02*
G01*
X60956215Y-27937438D01*
X60962552Y-27943761D01*
X60962562Y-27943785D01*
X61280567Y-28713883D01*
X61280558Y-28722838D01*
X61274219Y-28729163D01*
X61273629Y-28729388D01*
X59853251Y-29228031D01*
X59844309Y-29227539D01*
X59841102Y-29225265D01*
X59674734Y-29058897D01*
X59671307Y-29050624D01*
X59671968Y-29046748D01*
X59783461Y-28729163D01*
X60170612Y-27626368D01*
X60176584Y-27619699D01*
X60185526Y-27619207D01*
X60186106Y-27619428D01*
G37*
%TD.AperFunction*%
%TD*%
%TA.AperFunction,Conductor*%
%TO.N,R~W*%
G36*
X107039109Y-40788719D02*
G01*
X107045427Y-40795066D01*
X107045551Y-40803655D01*
X106807859Y-41432437D01*
X106801728Y-41438964D01*
X106796915Y-41440000D01*
X106563085Y-41440000D01*
X106554812Y-41436573D01*
X106552141Y-41432437D01*
X106314448Y-40803655D01*
X106314728Y-40794705D01*
X106320889Y-40788719D01*
X106675500Y-40640875D01*
X106684449Y-40640855D01*
X107039109Y-40788719D01*
G37*
%TD.AperFunction*%
%TD*%
%TA.AperFunction,Conductor*%
%TO.N,D2*%
G36*
X94762667Y-27619512D02*
G01*
X94768992Y-27625851D01*
X94769274Y-27626605D01*
X95274844Y-29137888D01*
X95274218Y-29146821D01*
X95267460Y-29152696D01*
X95263748Y-29153300D01*
X95031780Y-29153300D01*
X95028303Y-29152772D01*
X93666950Y-28729104D01*
X93660069Y-28723373D01*
X93659255Y-28714455D01*
X93659611Y-28713471D01*
X93978144Y-27943485D01*
X93984471Y-27937153D01*
X94753712Y-27619503D01*
X94762667Y-27619512D01*
G37*
%TD.AperFunction*%
%TD*%
%TA.AperFunction,Conductor*%
%TO.N,A9*%
G36*
X70346106Y-45399428D02*
G01*
X71116215Y-45717438D01*
X71122552Y-45723761D01*
X71122562Y-45723785D01*
X71440567Y-46493883D01*
X71440558Y-46502838D01*
X71434219Y-46509163D01*
X71433629Y-46509388D01*
X70013251Y-47008031D01*
X70004309Y-47007539D01*
X70001102Y-47005265D01*
X69834734Y-46838897D01*
X69831307Y-46830624D01*
X69831968Y-46826748D01*
X69943461Y-46509163D01*
X70330612Y-45406368D01*
X70336584Y-45399699D01*
X70345526Y-45399207D01*
X70346106Y-45399428D01*
G37*
%TD.AperFunction*%
%TD*%
%TA.AperFunction,Conductor*%
%TO.N,A6*%
G36*
X48385912Y-61803427D02*
G01*
X48388186Y-61806634D01*
X49039950Y-63163586D01*
X49040442Y-63172528D01*
X49034469Y-63179199D01*
X49033892Y-63179457D01*
X48264489Y-63499134D01*
X48255534Y-63499143D01*
X48255511Y-63499134D01*
X47486107Y-63179457D01*
X47479782Y-63173118D01*
X47479791Y-63164163D01*
X47480049Y-63163586D01*
X48131814Y-61806634D01*
X48138485Y-61800661D01*
X48142361Y-61800000D01*
X48377639Y-61800000D01*
X48385912Y-61803427D01*
G37*
%TD.AperFunction*%
%TD*%
%TA.AperFunction,Conductor*%
%TO.N,A0*%
G36*
X44946106Y-45399428D02*
G01*
X45716215Y-45717438D01*
X45722552Y-45723761D01*
X45722562Y-45723785D01*
X46040567Y-46493883D01*
X46040558Y-46502838D01*
X46034219Y-46509163D01*
X46033629Y-46509388D01*
X44613251Y-47008031D01*
X44604309Y-47007539D01*
X44601102Y-47005265D01*
X44434734Y-46838897D01*
X44431307Y-46830624D01*
X44431968Y-46826748D01*
X44543461Y-46509163D01*
X44930612Y-45406368D01*
X44936584Y-45399699D01*
X44945526Y-45399207D01*
X44946106Y-45399428D01*
G37*
%TD.AperFunction*%
%TD*%
%TA.AperFunction,Conductor*%
%TO.N,3V3*%
G36*
X55105274Y-27619084D02*
G01*
X55876215Y-27937438D01*
X55882552Y-27943761D01*
X55882562Y-27943785D01*
X56200914Y-28714723D01*
X56200905Y-28723678D01*
X56194807Y-28729900D01*
X54862018Y-29315639D01*
X54853066Y-29315831D01*
X54849038Y-29313201D01*
X54506798Y-28970961D01*
X54503371Y-28962688D01*
X54504359Y-28957984D01*
X55090099Y-27625191D01*
X55096565Y-27618996D01*
X55105274Y-27619084D01*
G37*
%TD.AperFunction*%
%TD*%
%TA.AperFunction,Conductor*%
%TO.N,A2*%
G36*
X38225912Y-61803427D02*
G01*
X38228186Y-61806634D01*
X38879950Y-63163586D01*
X38880442Y-63172528D01*
X38874469Y-63179199D01*
X38873892Y-63179457D01*
X38104489Y-63499134D01*
X38095534Y-63499143D01*
X38095511Y-63499134D01*
X37326107Y-63179457D01*
X37319782Y-63173118D01*
X37319791Y-63164163D01*
X37320049Y-63163586D01*
X37971814Y-61806634D01*
X37978485Y-61800661D01*
X37982361Y-61800000D01*
X38217639Y-61800000D01*
X38225912Y-61803427D01*
G37*
%TD.AperFunction*%
%TD*%
%TA.AperFunction,Conductor*%
%TO.N,VCC*%
G36*
X32245274Y-47939084D02*
G01*
X33016215Y-48257438D01*
X33022552Y-48263761D01*
X33022562Y-48263785D01*
X33340914Y-49034723D01*
X33340905Y-49043678D01*
X33334807Y-49049900D01*
X32002018Y-49635639D01*
X31993066Y-49635831D01*
X31989038Y-49633201D01*
X31646798Y-49290961D01*
X31643371Y-49282688D01*
X31644359Y-49277984D01*
X32230099Y-47945191D01*
X32236565Y-47938996D01*
X32245274Y-47939084D01*
G37*
%TD.AperFunction*%
%TD*%
%TA.AperFunction,Conductor*%
%TO.N,3V3*%
G36*
X34050961Y-49426798D02*
G01*
X34393201Y-49769038D01*
X34396628Y-49777311D01*
X34395639Y-49782018D01*
X33809900Y-51114807D01*
X33803434Y-51121003D01*
X33794723Y-51120914D01*
X33023785Y-50802562D01*
X33017447Y-50796238D01*
X32699085Y-50025274D01*
X32699094Y-50016321D01*
X32705191Y-50010099D01*
X34037982Y-49424359D01*
X34046933Y-49424168D01*
X34050961Y-49426798D01*
G37*
%TD.AperFunction*%
%TD*%
%TA.AperFunction,Conductor*%
%TO.N,A5*%
G36*
X45845912Y-61803427D02*
G01*
X45848186Y-61806634D01*
X46499950Y-63163586D01*
X46500442Y-63172528D01*
X46494469Y-63179199D01*
X46493892Y-63179457D01*
X45724489Y-63499134D01*
X45715534Y-63499143D01*
X45715511Y-63499134D01*
X44946107Y-63179457D01*
X44939782Y-63173118D01*
X44939791Y-63164163D01*
X44940049Y-63163586D01*
X45591814Y-61806634D01*
X45598485Y-61800661D01*
X45602361Y-61800000D01*
X45837639Y-61800000D01*
X45845912Y-61803427D01*
G37*
%TD.AperFunction*%
%TD*%
%TA.AperFunction,Conductor*%
%TO.N,D3*%
G36*
X82395690Y-62212460D02*
G01*
X82398897Y-62214734D01*
X82565265Y-62381102D01*
X82568692Y-62389375D01*
X82568031Y-62393251D01*
X82069388Y-63813629D01*
X82063415Y-63820300D01*
X82054473Y-63820792D01*
X82053883Y-63820567D01*
X81283785Y-63502562D01*
X81277447Y-63496238D01*
X80959432Y-62726115D01*
X80959441Y-62717161D01*
X80965780Y-62710836D01*
X80966345Y-62710620D01*
X82386748Y-62211968D01*
X82395690Y-62212460D01*
G37*
%TD.AperFunction*%
%TD*%
%TA.AperFunction,Conductor*%
%TO.N,CLK*%
G36*
X108944109Y-42693719D02*
G01*
X108950427Y-42700066D01*
X108950551Y-42708655D01*
X108712859Y-43337437D01*
X108706728Y-43343964D01*
X108701915Y-43345000D01*
X108468085Y-43345000D01*
X108459812Y-43341573D01*
X108457141Y-43337437D01*
X108219448Y-42708655D01*
X108219728Y-42699705D01*
X108225889Y-42693719D01*
X108580500Y-42545875D01*
X108589449Y-42545855D01*
X108944109Y-42693719D01*
G37*
%TD.AperFunction*%
%TD*%
%TA.AperFunction,Conductor*%
%TO.N,A7*%
G36*
X50925912Y-61803427D02*
G01*
X50928186Y-61806634D01*
X51579950Y-63163586D01*
X51580442Y-63172528D01*
X51574469Y-63179199D01*
X51573892Y-63179457D01*
X50804489Y-63499134D01*
X50795534Y-63499143D01*
X50795511Y-63499134D01*
X50026107Y-63179457D01*
X50019782Y-63173118D01*
X50019791Y-63164163D01*
X50020049Y-63163586D01*
X50671814Y-61806634D01*
X50678485Y-61800661D01*
X50682361Y-61800000D01*
X50917639Y-61800000D01*
X50925912Y-61803427D01*
G37*
%TD.AperFunction*%
%TD*%
%TA.AperFunction,Conductor*%
%TO.N,A10*%
G36*
X58545912Y-61803427D02*
G01*
X58548186Y-61806634D01*
X59199950Y-63163586D01*
X59200442Y-63172528D01*
X59194469Y-63179199D01*
X59193892Y-63179457D01*
X58424489Y-63499134D01*
X58415534Y-63499143D01*
X58415511Y-63499134D01*
X57646107Y-63179457D01*
X57639782Y-63173118D01*
X57639791Y-63164163D01*
X57640049Y-63163586D01*
X58291814Y-61806634D01*
X58298485Y-61800661D01*
X58302361Y-61800000D01*
X58537639Y-61800000D01*
X58545912Y-61803427D01*
G37*
%TD.AperFunction*%
%TD*%
%TA.AperFunction,Conductor*%
%TO.N,A2*%
G36*
X50026106Y-45399428D02*
G01*
X50796215Y-45717438D01*
X50802552Y-45723761D01*
X50802562Y-45723785D01*
X51120567Y-46493883D01*
X51120558Y-46502838D01*
X51114219Y-46509163D01*
X51113629Y-46509388D01*
X49693251Y-47008031D01*
X49684309Y-47007539D01*
X49681102Y-47005265D01*
X49514734Y-46838897D01*
X49511307Y-46830624D01*
X49511968Y-46826748D01*
X49623461Y-46509163D01*
X50010612Y-45406368D01*
X50016584Y-45399699D01*
X50025526Y-45399207D01*
X50026106Y-45399428D01*
G37*
%TD.AperFunction*%
%TD*%
%TA.AperFunction,Conductor*%
%TO.N,D7*%
G36*
X105134109Y-38883719D02*
G01*
X105140427Y-38890066D01*
X105140551Y-38898655D01*
X104902859Y-39527437D01*
X104896728Y-39533964D01*
X104891915Y-39535000D01*
X104658085Y-39535000D01*
X104649812Y-39531573D01*
X104647141Y-39527437D01*
X104409448Y-38898655D01*
X104409728Y-38889705D01*
X104415889Y-38883719D01*
X104770500Y-38735875D01*
X104779449Y-38735855D01*
X105134109Y-38883719D01*
G37*
%TD.AperFunction*%
%TD*%
%TA.AperFunction,Conductor*%
%TO.N,RUN*%
G36*
X34135690Y-52052460D02*
G01*
X34138897Y-52054734D01*
X34305265Y-52221102D01*
X34308692Y-52229375D01*
X34308031Y-52233251D01*
X33809388Y-53653629D01*
X33803415Y-53660300D01*
X33794473Y-53660792D01*
X33793883Y-53660567D01*
X33023785Y-53342562D01*
X33017447Y-53336238D01*
X32699432Y-52566115D01*
X32699441Y-52557161D01*
X32705780Y-52550836D01*
X32706345Y-52550620D01*
X34126748Y-52051968D01*
X34135690Y-52052460D01*
G37*
%TD.AperFunction*%
%TD*%
%TA.AperFunction,Conductor*%
%TO.N,A1*%
G36*
X47486106Y-45399428D02*
G01*
X48256215Y-45717438D01*
X48262552Y-45723761D01*
X48262562Y-45723785D01*
X48580567Y-46493883D01*
X48580558Y-46502838D01*
X48574219Y-46509163D01*
X48573629Y-46509388D01*
X47153251Y-47008031D01*
X47144309Y-47007539D01*
X47141102Y-47005265D01*
X46974734Y-46838897D01*
X46971307Y-46830624D01*
X46971968Y-46826748D01*
X47083461Y-46509163D01*
X47470612Y-45406368D01*
X47476584Y-45399699D01*
X47485526Y-45399207D01*
X47486106Y-45399428D01*
G37*
%TD.AperFunction*%
%TD*%
%TA.AperFunction,Conductor*%
%TO.N,A0*%
G36*
X33145912Y-61803427D02*
G01*
X33148186Y-61806634D01*
X33799950Y-63163586D01*
X33800442Y-63172528D01*
X33794469Y-63179199D01*
X33793892Y-63179457D01*
X33024489Y-63499134D01*
X33015534Y-63499143D01*
X33015511Y-63499134D01*
X32246107Y-63179457D01*
X32239782Y-63173118D01*
X32239791Y-63164163D01*
X32240049Y-63163586D01*
X32891814Y-61806634D01*
X32898485Y-61800661D01*
X32902361Y-61800000D01*
X33137639Y-61800000D01*
X33145912Y-61803427D01*
G37*
%TD.AperFunction*%
%TD*%
%TA.AperFunction,Conductor*%
%TO.N,A3*%
G36*
X40765912Y-61803427D02*
G01*
X40768186Y-61806634D01*
X41419950Y-63163586D01*
X41420442Y-63172528D01*
X41414469Y-63179199D01*
X41413892Y-63179457D01*
X40644489Y-63499134D01*
X40635534Y-63499143D01*
X40635511Y-63499134D01*
X39866107Y-63179457D01*
X39859782Y-63173118D01*
X39859791Y-63164163D01*
X39860049Y-63163586D01*
X40511814Y-61806634D01*
X40518485Y-61800661D01*
X40522361Y-61800000D01*
X40757639Y-61800000D01*
X40765912Y-61803427D01*
G37*
%TD.AperFunction*%
%TD*%
%TA.AperFunction,Conductor*%
%TO.N,D7*%
G36*
X92555690Y-62212460D02*
G01*
X92558897Y-62214734D01*
X92725265Y-62381102D01*
X92728692Y-62389375D01*
X92728031Y-62393251D01*
X92229388Y-63813629D01*
X92223415Y-63820300D01*
X92214473Y-63820792D01*
X92213883Y-63820567D01*
X91443785Y-63502562D01*
X91437447Y-63496238D01*
X91119432Y-62726115D01*
X91119441Y-62717161D01*
X91125780Y-62710836D01*
X91126345Y-62710620D01*
X92546748Y-62211968D01*
X92555690Y-62212460D01*
G37*
%TD.AperFunction*%
%TD*%
%TA.AperFunction,Conductor*%
%TO.N,VCC*%
G36*
X30730273Y-61803427D02*
G01*
X30732903Y-61807455D01*
X31261146Y-63164058D01*
X31260954Y-63173010D01*
X31254732Y-63179108D01*
X30484489Y-63499134D01*
X30475534Y-63499143D01*
X30475511Y-63499134D01*
X29705267Y-63179108D01*
X29698942Y-63172769D01*
X29698853Y-63164058D01*
X30227097Y-61807455D01*
X30233293Y-61800989D01*
X30238000Y-61800000D01*
X30722000Y-61800000D01*
X30730273Y-61803427D01*
G37*
%TD.AperFunction*%
%TD*%
%TA.AperFunction,Conductor*%
%TO.N,~{IRQ}*%
G36*
X68705188Y-39208427D02*
G01*
X68707859Y-39212563D01*
X68945551Y-39841344D01*
X68945271Y-39850294D01*
X68939109Y-39856280D01*
X68584501Y-40004123D01*
X68575548Y-40004143D01*
X68414555Y-39937023D01*
X68220890Y-39856280D01*
X68214572Y-39849933D01*
X68214448Y-39841345D01*
X68452141Y-39212562D01*
X68458272Y-39206036D01*
X68463085Y-39205000D01*
X68696915Y-39205000D01*
X68705188Y-39208427D01*
G37*
%TD.AperFunction*%
%TD*%
%TA.AperFunction,Conductor*%
%TO.N,VBUS*%
G36*
X44945274Y-27619084D02*
G01*
X45716215Y-27937438D01*
X45722552Y-27943761D01*
X45722562Y-27943785D01*
X46040914Y-28714723D01*
X46040905Y-28723678D01*
X46034807Y-28729900D01*
X44702018Y-29315639D01*
X44693066Y-29315831D01*
X44689038Y-29313201D01*
X44346798Y-28970961D01*
X44343371Y-28962688D01*
X44344359Y-28957984D01*
X44930099Y-27625191D01*
X44936565Y-27618996D01*
X44945274Y-27619084D01*
G37*
%TD.AperFunction*%
%TD*%
%TA.AperFunction,Conductor*%
%TO.N,D5*%
G36*
X87475690Y-62212460D02*
G01*
X87478897Y-62214734D01*
X87645265Y-62381102D01*
X87648692Y-62389375D01*
X87648031Y-62393251D01*
X87149388Y-63813629D01*
X87143415Y-63820300D01*
X87134473Y-63820792D01*
X87133883Y-63820567D01*
X86363785Y-63502562D01*
X86357447Y-63496238D01*
X86039432Y-62726115D01*
X86039441Y-62717161D01*
X86045780Y-62710836D01*
X86046345Y-62710620D01*
X87466748Y-62211968D01*
X87475690Y-62212460D01*
G37*
%TD.AperFunction*%
%TD*%
%TA.AperFunction,Conductor*%
%TO.N,~{NMI}*%
G36*
X66165188Y-37303427D02*
G01*
X66167859Y-37307563D01*
X66405551Y-37936344D01*
X66405271Y-37945294D01*
X66399109Y-37951280D01*
X66044502Y-38099123D01*
X66035548Y-38099144D01*
X66035498Y-38099123D01*
X65680890Y-37951280D01*
X65674572Y-37944933D01*
X65674448Y-37936345D01*
X65912141Y-37307562D01*
X65918272Y-37301036D01*
X65923085Y-37300000D01*
X66156915Y-37300000D01*
X66165188Y-37303427D01*
G37*
%TD.AperFunction*%
%TD*%
%TA.AperFunction,Conductor*%
%TO.N,R~W*%
G36*
X95095690Y-62212460D02*
G01*
X95098897Y-62214734D01*
X95265265Y-62381102D01*
X95268692Y-62389375D01*
X95268031Y-62393251D01*
X94769388Y-63813629D01*
X94763415Y-63820300D01*
X94754473Y-63820792D01*
X94753883Y-63820567D01*
X93983785Y-63502562D01*
X93977447Y-63496238D01*
X93659432Y-62726115D01*
X93659441Y-62717161D01*
X93665780Y-62710836D01*
X93666345Y-62710620D01*
X95086748Y-62211968D01*
X95095690Y-62212460D01*
G37*
%TD.AperFunction*%
%TD*%
%TA.AperFunction,Conductor*%
%TO.N,D0*%
G36*
X74775690Y-62212460D02*
G01*
X74778897Y-62214734D01*
X74945265Y-62381102D01*
X74948692Y-62389375D01*
X74948031Y-62393251D01*
X74449388Y-63813629D01*
X74443415Y-63820300D01*
X74434473Y-63820792D01*
X74433883Y-63820567D01*
X73663785Y-63502562D01*
X73657447Y-63496238D01*
X73339432Y-62726115D01*
X73339441Y-62717161D01*
X73345780Y-62710836D01*
X73346345Y-62710620D01*
X74766748Y-62211968D01*
X74775690Y-62212460D01*
G37*
%TD.AperFunction*%
%TD*%
%TA.AperFunction,Conductor*%
%TO.N,A12*%
G36*
X77966106Y-45399428D02*
G01*
X78736215Y-45717438D01*
X78742552Y-45723761D01*
X78742562Y-45723785D01*
X79060567Y-46493883D01*
X79060558Y-46502838D01*
X79054219Y-46509163D01*
X79053629Y-46509388D01*
X77633251Y-47008031D01*
X77624309Y-47007539D01*
X77621102Y-47005265D01*
X77454734Y-46838897D01*
X77451307Y-46830624D01*
X77451968Y-46826748D01*
X77563461Y-46509163D01*
X77950612Y-45406368D01*
X77956584Y-45399699D01*
X77965526Y-45399207D01*
X77966106Y-45399428D01*
G37*
%TD.AperFunction*%
%TD*%
%TA.AperFunction,Conductor*%
%TO.N,~{RESET}*%
G36*
X63625188Y-35398427D02*
G01*
X63627859Y-35402563D01*
X63865551Y-36031344D01*
X63865271Y-36040294D01*
X63859109Y-36046280D01*
X63504502Y-36194123D01*
X63495548Y-36194144D01*
X63495498Y-36194123D01*
X63140890Y-36046280D01*
X63134572Y-36039933D01*
X63134448Y-36031345D01*
X63372141Y-35402562D01*
X63378272Y-35396036D01*
X63383085Y-35395000D01*
X63616915Y-35395000D01*
X63625188Y-35398427D01*
G37*
%TD.AperFunction*%
%TD*%
%TA.AperFunction,Conductor*%
%TO.N,RDY*%
G36*
X71124489Y-27940865D02*
G01*
X71893892Y-28260542D01*
X71900217Y-28266881D01*
X71900208Y-28275836D01*
X71899950Y-28276413D01*
X71248186Y-29633366D01*
X71241515Y-29639339D01*
X71237639Y-29640000D01*
X71002361Y-29640000D01*
X70994088Y-29636573D01*
X70991814Y-29633366D01*
X70340049Y-28276413D01*
X70339557Y-28267471D01*
X70345530Y-28260800D01*
X70346095Y-28260547D01*
X71115511Y-27940864D01*
X71124466Y-27940856D01*
X71124489Y-27940865D01*
G37*
%TD.AperFunction*%
%TD*%
%TA.AperFunction,Conductor*%
%TO.N,D6*%
G36*
X90015690Y-62212460D02*
G01*
X90018897Y-62214734D01*
X90185265Y-62381102D01*
X90188692Y-62389375D01*
X90188031Y-62393251D01*
X89689388Y-63813629D01*
X89683415Y-63820300D01*
X89674473Y-63820792D01*
X89673883Y-63820567D01*
X88903785Y-63502562D01*
X88897447Y-63496238D01*
X88579432Y-62726115D01*
X88579441Y-62717161D01*
X88585780Y-62710836D01*
X88586345Y-62710620D01*
X90006748Y-62211968D01*
X90015690Y-62212460D01*
G37*
%TD.AperFunction*%
%TD*%
%TA.AperFunction,Conductor*%
%TO.N,D1*%
G36*
X93206106Y-45399428D02*
G01*
X93976215Y-45717438D01*
X93982552Y-45723761D01*
X93982562Y-45723785D01*
X94300567Y-46493883D01*
X94300558Y-46502838D01*
X94294219Y-46509163D01*
X94293629Y-46509388D01*
X92873251Y-47008031D01*
X92864309Y-47007539D01*
X92861102Y-47005265D01*
X92694734Y-46838897D01*
X92691307Y-46830624D01*
X92691968Y-46826748D01*
X92803461Y-46509163D01*
X93190612Y-45406368D01*
X93196584Y-45399699D01*
X93205526Y-45399207D01*
X93206106Y-45399428D01*
G37*
%TD.AperFunction*%
%TD*%
%TA.AperFunction,Conductor*%
%TO.N,A1*%
G36*
X35685912Y-61803427D02*
G01*
X35688186Y-61806634D01*
X36339950Y-63163586D01*
X36340442Y-63172528D01*
X36334469Y-63179199D01*
X36333892Y-63179457D01*
X35564489Y-63499134D01*
X35555534Y-63499143D01*
X35555511Y-63499134D01*
X34786107Y-63179457D01*
X34779782Y-63173118D01*
X34779791Y-63164163D01*
X34780049Y-63163586D01*
X35431814Y-61806634D01*
X35438485Y-61800661D01*
X35442361Y-61800000D01*
X35677639Y-61800000D01*
X35685912Y-61803427D01*
G37*
%TD.AperFunction*%
%TD*%
%TA.AperFunction,Conductor*%
%TO.N,A14*%
G36*
X69695690Y-62212460D02*
G01*
X69698897Y-62214734D01*
X69865265Y-62381102D01*
X69868692Y-62389375D01*
X69868031Y-62393251D01*
X69369388Y-63813629D01*
X69363415Y-63820300D01*
X69354473Y-63820792D01*
X69353883Y-63820567D01*
X68583785Y-63502562D01*
X68577447Y-63496238D01*
X68259432Y-62726115D01*
X68259441Y-62717161D01*
X68265780Y-62710836D01*
X68266345Y-62710620D01*
X69686748Y-62211968D01*
X69695690Y-62212460D01*
G37*
%TD.AperFunction*%
%TD*%
%TA.AperFunction,Conductor*%
%TO.N,A9*%
G36*
X56005912Y-61803427D02*
G01*
X56008186Y-61806634D01*
X56659950Y-63163586D01*
X56660442Y-63172528D01*
X56654469Y-63179199D01*
X56653892Y-63179457D01*
X55884489Y-63499134D01*
X55875534Y-63499143D01*
X55875511Y-63499134D01*
X55106107Y-63179457D01*
X55099782Y-63173118D01*
X55099791Y-63164163D01*
X55100049Y-63163586D01*
X55751814Y-61806634D01*
X55758485Y-61800661D01*
X55762361Y-61800000D01*
X55997639Y-61800000D01*
X56005912Y-61803427D01*
G37*
%TD.AperFunction*%
%TD*%
%TA.AperFunction,Conductor*%
%TO.N,A3*%
G36*
X52566106Y-45399428D02*
G01*
X53336215Y-45717438D01*
X53342552Y-45723761D01*
X53342562Y-45723785D01*
X53660567Y-46493883D01*
X53660558Y-46502838D01*
X53654219Y-46509163D01*
X53653629Y-46509388D01*
X52233251Y-47008031D01*
X52224309Y-47007539D01*
X52221102Y-47005265D01*
X52054734Y-46838897D01*
X52051307Y-46830624D01*
X52051968Y-46826748D01*
X52163461Y-46509163D01*
X52550612Y-45406368D01*
X52556584Y-45399699D01*
X52565526Y-45399207D01*
X52566106Y-45399428D01*
G37*
%TD.AperFunction*%
%TD*%
%TA.AperFunction,Conductor*%
%TO.N,D6*%
G36*
X103229109Y-36978719D02*
G01*
X103235427Y-36985066D01*
X103235551Y-36993655D01*
X102997859Y-37622437D01*
X102991728Y-37628964D01*
X102986915Y-37630000D01*
X102753085Y-37630000D01*
X102744812Y-37626573D01*
X102742141Y-37622437D01*
X102504448Y-36993655D01*
X102504728Y-36984705D01*
X102510889Y-36978719D01*
X102865500Y-36830875D01*
X102874449Y-36830855D01*
X103229109Y-36978719D01*
G37*
%TD.AperFunction*%
%TD*%
%TA.AperFunction,Conductor*%
%TO.N,D2*%
G36*
X79855690Y-62212460D02*
G01*
X79858897Y-62214734D01*
X80025265Y-62381102D01*
X80028692Y-62389375D01*
X80028031Y-62393251D01*
X79529388Y-63813629D01*
X79523415Y-63820300D01*
X79514473Y-63820792D01*
X79513883Y-63820567D01*
X78743785Y-63502562D01*
X78737447Y-63496238D01*
X78419432Y-62726115D01*
X78419441Y-62717161D01*
X78425780Y-62710836D01*
X78426345Y-62710620D01*
X79846748Y-62211968D01*
X79855690Y-62212460D01*
G37*
%TD.AperFunction*%
%TD*%
%TA.AperFunction,Conductor*%
%TO.N,A15*%
G36*
X88126106Y-45399428D02*
G01*
X88896215Y-45717438D01*
X88902552Y-45723761D01*
X88902562Y-45723785D01*
X89220567Y-46493883D01*
X89220558Y-46502838D01*
X89214219Y-46509163D01*
X89213629Y-46509388D01*
X87793251Y-47008031D01*
X87784309Y-47007539D01*
X87781102Y-47005265D01*
X87614734Y-46838897D01*
X87611307Y-46830624D01*
X87611968Y-46826748D01*
X87723461Y-46509163D01*
X88110612Y-45406368D01*
X88116584Y-45399699D01*
X88125526Y-45399207D01*
X88126106Y-45399428D01*
G37*
%TD.AperFunction*%
%TD*%
%TA.AperFunction,Conductor*%
%TO.N,A8*%
G36*
X53465912Y-61803427D02*
G01*
X53468186Y-61806634D01*
X54119950Y-63163586D01*
X54120442Y-63172528D01*
X54114469Y-63179199D01*
X54113892Y-63179457D01*
X53344489Y-63499134D01*
X53335534Y-63499143D01*
X53335511Y-63499134D01*
X52566107Y-63179457D01*
X52559782Y-63173118D01*
X52559791Y-63164163D01*
X52560049Y-63163586D01*
X53211814Y-61806634D01*
X53218485Y-61800661D01*
X53222361Y-61800000D01*
X53457639Y-61800000D01*
X53465912Y-61803427D01*
G37*
%TD.AperFunction*%
%TD*%
%TA.AperFunction,Conductor*%
%TO.N,VBUS*%
G36*
X33272210Y-44023427D02*
G01*
X33273496Y-44024953D01*
X33864320Y-44861953D01*
X33866291Y-44870688D01*
X33863039Y-44876968D01*
X33028278Y-45712712D01*
X33020007Y-45716144D01*
X33011732Y-45712722D01*
X33011722Y-45712712D01*
X32176960Y-44876968D01*
X32173538Y-44868693D01*
X32175677Y-44861956D01*
X32766503Y-44024953D01*
X32774075Y-44020170D01*
X32776063Y-44020000D01*
X33263937Y-44020000D01*
X33272210Y-44023427D01*
G37*
%TD.AperFunction*%
%TD*%
%TA.AperFunction,Conductor*%
%TO.N,~{RESET}*%
G36*
X63504489Y-27940865D02*
G01*
X64273892Y-28260542D01*
X64280217Y-28266881D01*
X64280208Y-28275836D01*
X64279950Y-28276413D01*
X63628186Y-29633366D01*
X63621515Y-29639339D01*
X63617639Y-29640000D01*
X63382361Y-29640000D01*
X63374088Y-29636573D01*
X63371814Y-29633366D01*
X62720049Y-28276413D01*
X62719557Y-28267471D01*
X62725530Y-28260800D01*
X62726095Y-28260547D01*
X63495511Y-27940864D01*
X63504466Y-27940856D01*
X63504489Y-27940865D01*
G37*
%TD.AperFunction*%
%TD*%
%TA.AperFunction,Conductor*%
%TO.N,D1*%
G36*
X77315690Y-62212460D02*
G01*
X77318897Y-62214734D01*
X77485265Y-62381102D01*
X77488692Y-62389375D01*
X77488031Y-62393251D01*
X76989388Y-63813629D01*
X76983415Y-63820300D01*
X76974473Y-63820792D01*
X76973883Y-63820567D01*
X76203785Y-63502562D01*
X76197447Y-63496238D01*
X75879432Y-62726115D01*
X75879441Y-62717161D01*
X75885780Y-62710836D01*
X75886345Y-62710620D01*
X77306748Y-62211968D01*
X77315690Y-62212460D01*
G37*
%TD.AperFunction*%
%TD*%
%TA.AperFunction,Conductor*%
%TO.N,A13*%
G36*
X83046106Y-45399428D02*
G01*
X83816215Y-45717438D01*
X83822552Y-45723761D01*
X83822562Y-45723785D01*
X84140567Y-46493883D01*
X84140558Y-46502838D01*
X84134219Y-46509163D01*
X84133629Y-46509388D01*
X82713251Y-47008031D01*
X82704309Y-47007539D01*
X82701102Y-47005265D01*
X82534734Y-46838897D01*
X82531307Y-46830624D01*
X82531968Y-46826748D01*
X82643461Y-46509163D01*
X83030612Y-45406368D01*
X83036584Y-45399699D01*
X83045526Y-45399207D01*
X83046106Y-45399428D01*
G37*
%TD.AperFunction*%
%TD*%
%TA.AperFunction,Conductor*%
%TO.N,D0*%
G36*
X90666106Y-45399428D02*
G01*
X91436215Y-45717438D01*
X91442552Y-45723761D01*
X91442562Y-45723785D01*
X91760567Y-46493883D01*
X91760558Y-46502838D01*
X91754219Y-46509163D01*
X91753629Y-46509388D01*
X90333251Y-47008031D01*
X90324309Y-47007539D01*
X90321102Y-47005265D01*
X90154734Y-46838897D01*
X90151307Y-46830624D01*
X90151968Y-46826748D01*
X90263461Y-46509163D01*
X90650612Y-45406368D01*
X90656584Y-45399699D01*
X90665526Y-45399207D01*
X90666106Y-45399428D01*
G37*
%TD.AperFunction*%
%TD*%
%TA.AperFunction,Conductor*%
%TO.N,A6*%
G36*
X62726106Y-45399428D02*
G01*
X63496215Y-45717438D01*
X63502552Y-45723761D01*
X63502562Y-45723785D01*
X63820567Y-46493883D01*
X63820558Y-46502838D01*
X63814219Y-46509163D01*
X63813629Y-46509388D01*
X62393251Y-47008031D01*
X62384309Y-47007539D01*
X62381102Y-47005265D01*
X62214734Y-46838897D01*
X62211307Y-46830624D01*
X62211968Y-46826748D01*
X62323461Y-46509163D01*
X62710612Y-45406368D01*
X62716584Y-45399699D01*
X62725526Y-45399207D01*
X62726106Y-45399428D01*
G37*
%TD.AperFunction*%
%TD*%
%TA.AperFunction,Conductor*%
%TO.N,~{NMI}*%
G36*
X66044489Y-27940865D02*
G01*
X66813892Y-28260542D01*
X66820217Y-28266881D01*
X66820208Y-28275836D01*
X66819950Y-28276413D01*
X66168186Y-29633366D01*
X66161515Y-29639339D01*
X66157639Y-29640000D01*
X65922361Y-29640000D01*
X65914088Y-29636573D01*
X65911814Y-29633366D01*
X65260049Y-28276413D01*
X65259557Y-28267471D01*
X65265530Y-28260800D01*
X65266095Y-28260547D01*
X66035511Y-27940864D01*
X66044466Y-27940856D01*
X66044489Y-27940865D01*
G37*
%TD.AperFunction*%
%TD*%
%TA.AperFunction,Conductor*%
%TO.N,A5*%
G36*
X60186106Y-45399428D02*
G01*
X60956215Y-45717438D01*
X60962552Y-45723761D01*
X60962562Y-45723785D01*
X61280567Y-46493883D01*
X61280558Y-46502838D01*
X61274219Y-46509163D01*
X61273629Y-46509388D01*
X59853251Y-47008031D01*
X59844309Y-47007539D01*
X59841102Y-47005265D01*
X59674734Y-46838897D01*
X59671307Y-46830624D01*
X59671968Y-46826748D01*
X59783461Y-46509163D01*
X60170612Y-45406368D01*
X60176584Y-45399699D01*
X60185526Y-45399207D01*
X60186106Y-45399428D01*
G37*
%TD.AperFunction*%
%TD*%
%TA.AperFunction,Conductor*%
%TO.N,RDY*%
G36*
X71245188Y-41113427D02*
G01*
X71247859Y-41117563D01*
X71485551Y-41746344D01*
X71485271Y-41755294D01*
X71479109Y-41761280D01*
X71124502Y-41909123D01*
X71115548Y-41909144D01*
X71115498Y-41909123D01*
X70760890Y-41761280D01*
X70754572Y-41754933D01*
X70754448Y-41746345D01*
X70992141Y-41117562D01*
X70998272Y-41111036D01*
X71003085Y-41110000D01*
X71236915Y-41110000D01*
X71245188Y-41113427D01*
G37*
%TD.AperFunction*%
%TD*%
%TA.AperFunction,Conductor*%
%TO.N,A14*%
G36*
X85586106Y-45399428D02*
G01*
X86356215Y-45717438D01*
X86362552Y-45723761D01*
X86362562Y-45723785D01*
X86680567Y-46493883D01*
X86680558Y-46502838D01*
X86674219Y-46509163D01*
X86673629Y-46509388D01*
X85253251Y-47008031D01*
X85244309Y-47007539D01*
X85241102Y-47005265D01*
X85074734Y-46838897D01*
X85071307Y-46830624D01*
X85071968Y-46826748D01*
X85183461Y-46509163D01*
X85570612Y-45406368D01*
X85576584Y-45399699D01*
X85585526Y-45399207D01*
X85586106Y-45399428D01*
G37*
%TD.AperFunction*%
%TD*%
%TA.AperFunction,Conductor*%
%TO.N,~{IRQ}*%
G36*
X68584489Y-27940865D02*
G01*
X69353892Y-28260542D01*
X69360217Y-28266881D01*
X69360208Y-28275836D01*
X69359950Y-28276413D01*
X68708186Y-29633366D01*
X68701515Y-29639339D01*
X68697639Y-29640000D01*
X68462361Y-29640000D01*
X68454088Y-29636573D01*
X68451814Y-29633366D01*
X67800049Y-28276413D01*
X67799557Y-28267471D01*
X67805530Y-28260800D01*
X67806095Y-28260547D01*
X68575511Y-27940864D01*
X68584466Y-27940856D01*
X68584489Y-27940865D01*
G37*
%TD.AperFunction*%
%TD*%
%TA.AperFunction,Conductor*%
%TO.N,A4*%
G36*
X55106106Y-45399428D02*
G01*
X55876215Y-45717438D01*
X55882552Y-45723761D01*
X55882562Y-45723785D01*
X56200567Y-46493883D01*
X56200558Y-46502838D01*
X56194219Y-46509163D01*
X56193629Y-46509388D01*
X54773251Y-47008031D01*
X54764309Y-47007539D01*
X54761102Y-47005265D01*
X54594734Y-46838897D01*
X54591307Y-46830624D01*
X54591968Y-46826748D01*
X54703461Y-46509163D01*
X55090612Y-45406368D01*
X55096584Y-45399699D01*
X55105526Y-45399207D01*
X55106106Y-45399428D01*
G37*
%TD.AperFunction*%
%TD*%
%TA.AperFunction,Conductor*%
%TO.N,D4*%
G36*
X99419109Y-32533719D02*
G01*
X99425427Y-32540066D01*
X99425551Y-32548655D01*
X99187859Y-33177437D01*
X99181728Y-33183964D01*
X99176915Y-33185000D01*
X98943085Y-33185000D01*
X98934812Y-33181573D01*
X98932141Y-33177437D01*
X98694448Y-32548655D01*
X98694728Y-32539705D01*
X98700889Y-32533719D01*
X99055500Y-32385875D01*
X99064449Y-32385855D01*
X99419109Y-32533719D01*
G37*
%TD.AperFunction*%
%TD*%
%TA.AperFunction,Conductor*%
%TO.N,A11*%
G36*
X75426106Y-45399428D02*
G01*
X76196215Y-45717438D01*
X76202552Y-45723761D01*
X76202562Y-45723785D01*
X76520567Y-46493883D01*
X76520558Y-46502838D01*
X76514219Y-46509163D01*
X76513629Y-46509388D01*
X75093251Y-47008031D01*
X75084309Y-47007539D01*
X75081102Y-47005265D01*
X74914734Y-46838897D01*
X74911307Y-46830624D01*
X74911968Y-46826748D01*
X75023461Y-46509163D01*
X75410612Y-45406368D01*
X75416584Y-45399699D01*
X75425526Y-45399207D01*
X75426106Y-45399428D01*
G37*
%TD.AperFunction*%
%TD*%
%TA.AperFunction,Conductor*%
%TO.N,A15*%
G36*
X72235690Y-62212460D02*
G01*
X72238897Y-62214734D01*
X72405265Y-62381102D01*
X72408692Y-62389375D01*
X72408031Y-62393251D01*
X71909388Y-63813629D01*
X71903415Y-63820300D01*
X71894473Y-63820792D01*
X71893883Y-63820567D01*
X71123785Y-63502562D01*
X71117447Y-63496238D01*
X70799432Y-62726115D01*
X70799441Y-62717161D01*
X70805780Y-62710836D01*
X70806345Y-62710620D01*
X72226748Y-62211968D01*
X72235690Y-62212460D01*
G37*
%TD.AperFunction*%
%TD*%
%TA.AperFunction,Conductor*%
%TO.N,A7*%
G36*
X65266106Y-45399428D02*
G01*
X66036215Y-45717438D01*
X66042552Y-45723761D01*
X66042562Y-45723785D01*
X66360567Y-46493883D01*
X66360558Y-46502838D01*
X66354219Y-46509163D01*
X66353629Y-46509388D01*
X64933251Y-47008031D01*
X64924309Y-47007539D01*
X64921102Y-47005265D01*
X64754734Y-46838897D01*
X64751307Y-46830624D01*
X64751968Y-46826748D01*
X64863461Y-46509163D01*
X65250612Y-45406368D01*
X65256584Y-45399699D01*
X65265526Y-45399207D01*
X65266106Y-45399428D01*
G37*
%TD.AperFunction*%
%TD*%
%TA.AperFunction,Conductor*%
%TO.N,A4*%
G36*
X43305912Y-61803427D02*
G01*
X43308186Y-61806634D01*
X43959950Y-63163586D01*
X43960442Y-63172528D01*
X43954469Y-63179199D01*
X43953892Y-63179457D01*
X43184489Y-63499134D01*
X43175534Y-63499143D01*
X43175511Y-63499134D01*
X42406107Y-63179457D01*
X42399782Y-63173118D01*
X42399791Y-63164163D01*
X42400049Y-63163586D01*
X43051814Y-61806634D01*
X43058485Y-61800661D01*
X43062361Y-61800000D01*
X43297639Y-61800000D01*
X43305912Y-61803427D01*
G37*
%TD.AperFunction*%
%TD*%
%TA.AperFunction,Conductor*%
%TO.N,A13*%
G36*
X67155690Y-62212460D02*
G01*
X67158897Y-62214734D01*
X67325265Y-62381102D01*
X67328692Y-62389375D01*
X67328031Y-62393251D01*
X66829388Y-63813629D01*
X66823415Y-63820300D01*
X66814473Y-63820792D01*
X66813883Y-63820567D01*
X66043785Y-63502562D01*
X66037447Y-63496238D01*
X65719432Y-62726115D01*
X65719441Y-62717161D01*
X65725780Y-62710836D01*
X65726345Y-62710620D01*
X67146748Y-62211968D01*
X67155690Y-62212460D01*
G37*
%TD.AperFunction*%
%TD*%
M02*
