%TF.GenerationSoftware,KiCad,Pcbnew,7.0.5*%
%TF.CreationDate,2023-06-09T17:20:22+02:00*%
%TF.ProjectId,Sorbus-Chipset-PurplePico,536f7262-7573-42d4-9368-69707365742d,rev?*%
%TF.SameCoordinates,Original*%
%TF.FileFunction,Copper,L2,Bot*%
%TF.FilePolarity,Positive*%
%FSLAX46Y46*%
G04 Gerber Fmt 4.6, Leading zero omitted, Abs format (unit mm)*
G04 Created by KiCad (PCBNEW 7.0.5) date 2023-06-09 17:20:22*
%MOMM*%
%LPD*%
G01*
G04 APERTURE LIST*
%TA.AperFunction,ComponentPad*%
%ADD10R,1.700000X1.700000*%
%TD*%
%TA.AperFunction,ComponentPad*%
%ADD11O,1.700000X1.700000*%
%TD*%
%TA.AperFunction,ViaPad*%
%ADD12C,0.800000*%
%TD*%
%TA.AperFunction,Conductor*%
%ADD13C,0.250000*%
%TD*%
G04 APERTURE END LIST*
D10*
%TO.P,J3,1,Pin_1*%
%TO.N,VBUS*%
X45720000Y-27940000D03*
D11*
%TO.P,J3,2,Pin_2*%
%TO.N,unconnected-(J3-Pin_2-Pad2)*%
X48260000Y-27940000D03*
%TO.P,J3,3,Pin_3*%
%TO.N,GND*%
X50800000Y-27940000D03*
%TO.P,J3,4,Pin_4*%
%TO.N,unconnected-(J3-Pin_4-Pad4)*%
X53340000Y-27940000D03*
%TO.P,J3,5,Pin_5*%
%TO.N,3V3*%
X55880000Y-27940000D03*
%TO.P,J3,6,Pin_6*%
%TO.N,ADC_VREF*%
X58420000Y-27940000D03*
%TO.P,J3,7,Pin_7*%
%TO.N,RUN*%
X60960000Y-27940000D03*
%TO.P,J3,8,Pin_8*%
%TO.N,~{RESET}*%
X63500000Y-27940000D03*
%TO.P,J3,9,Pin_9*%
%TO.N,~{NMI}*%
X66040000Y-27940000D03*
%TO.P,J3,10,Pin_10*%
%TO.N,~{IRQ}*%
X68580000Y-27940000D03*
%TO.P,J3,11,Pin_11*%
%TO.N,RDY*%
X71120000Y-27940000D03*
%TO.P,J3,12,Pin_12*%
%TO.N,GND*%
X73660000Y-27940000D03*
%TO.P,J3,13,Pin_13*%
%TO.N,CLK*%
X76200000Y-27940000D03*
%TO.P,J3,14,Pin_14*%
%TO.N,R~W*%
X78740000Y-27940000D03*
%TO.P,J3,15,Pin_15*%
%TO.N,D7*%
X81280000Y-27940000D03*
%TO.P,J3,16,Pin_16*%
%TO.N,D6*%
X83820000Y-27940000D03*
%TO.P,J3,17,Pin_17*%
%TO.N,D5*%
X86360000Y-27940000D03*
%TO.P,J3,18,Pin_18*%
%TO.N,D4*%
X88900000Y-27940000D03*
%TO.P,J3,19,Pin_19*%
%TO.N,D3*%
X91440000Y-27940000D03*
%TO.P,J3,20,Pin_20*%
%TO.N,D2*%
X93980000Y-27940000D03*
%TD*%
D10*
%TO.P,J2,1,Pin_1*%
%TO.N,A0*%
X45720000Y-45720000D03*
D11*
%TO.P,J2,2,Pin_2*%
%TO.N,A1*%
X48260000Y-45720000D03*
%TO.P,J2,3,Pin_3*%
%TO.N,A2*%
X50800000Y-45720000D03*
%TO.P,J2,4,Pin_4*%
%TO.N,A3*%
X53340000Y-45720000D03*
%TO.P,J2,5,Pin_5*%
%TO.N,A4*%
X55880000Y-45720000D03*
%TO.P,J2,6,Pin_6*%
%TO.N,GND*%
X58420000Y-45720000D03*
%TO.P,J2,7,Pin_7*%
%TO.N,A5*%
X60960000Y-45720000D03*
%TO.P,J2,8,Pin_8*%
%TO.N,A6*%
X63500000Y-45720000D03*
%TO.P,J2,9,Pin_9*%
%TO.N,A7*%
X66040000Y-45720000D03*
%TO.P,J2,10,Pin_10*%
%TO.N,A8*%
X68580000Y-45720000D03*
%TO.P,J2,11,Pin_11*%
%TO.N,A9*%
X71120000Y-45720000D03*
%TO.P,J2,12,Pin_12*%
%TO.N,A10*%
X73660000Y-45720000D03*
%TO.P,J2,13,Pin_13*%
%TO.N,A11*%
X76200000Y-45720000D03*
%TO.P,J2,14,Pin_14*%
%TO.N,A12*%
X78740000Y-45720000D03*
%TO.P,J2,15,Pin_15*%
%TO.N,GND*%
X81280000Y-45720000D03*
%TO.P,J2,16,Pin_16*%
%TO.N,A13*%
X83820000Y-45720000D03*
%TO.P,J2,17,Pin_17*%
%TO.N,A14*%
X86360000Y-45720000D03*
%TO.P,J2,18,Pin_18*%
%TO.N,A15*%
X88900000Y-45720000D03*
%TO.P,J2,19,Pin_19*%
%TO.N,D0*%
X91440000Y-45720000D03*
%TO.P,J2,20,Pin_20*%
%TO.N,D1*%
X93980000Y-45720000D03*
%TD*%
D10*
%TO.P,J4,1,Pin_1*%
%TO.N,VBUS*%
X33020000Y-45720000D03*
D11*
%TO.P,J4,2,Pin_2*%
%TO.N,VCC*%
X33020000Y-48260000D03*
%TO.P,J4,3,Pin_3*%
%TO.N,3V3*%
X33020000Y-50800000D03*
%TO.P,J4,4,Pin_4*%
%TO.N,RUN*%
X33020000Y-53340000D03*
%TO.P,J4,5,Pin_5*%
%TO.N,GND*%
X33020000Y-55880000D03*
%TD*%
D10*
%TO.P,J1,1,Pin_1*%
%TO.N,GND*%
X27940000Y-63500000D03*
D11*
%TO.P,J1,2,Pin_2*%
%TO.N,VCC*%
X30480000Y-63500000D03*
%TO.P,J1,3,Pin_3*%
%TO.N,A0*%
X33020000Y-63500000D03*
%TO.P,J1,4,Pin_4*%
%TO.N,A1*%
X35560000Y-63500000D03*
%TO.P,J1,5,Pin_5*%
%TO.N,A2*%
X38100000Y-63500000D03*
%TO.P,J1,6,Pin_6*%
%TO.N,A3*%
X40640000Y-63500000D03*
%TO.P,J1,7,Pin_7*%
%TO.N,A4*%
X43180000Y-63500000D03*
%TO.P,J1,8,Pin_8*%
%TO.N,A5*%
X45720000Y-63500000D03*
%TO.P,J1,9,Pin_9*%
%TO.N,A6*%
X48260000Y-63500000D03*
%TO.P,J1,10,Pin_10*%
%TO.N,A7*%
X50800000Y-63500000D03*
%TO.P,J1,11,Pin_11*%
%TO.N,A8*%
X53340000Y-63500000D03*
%TO.P,J1,12,Pin_12*%
%TO.N,A9*%
X55880000Y-63500000D03*
%TO.P,J1,13,Pin_13*%
%TO.N,A10*%
X58420000Y-63500000D03*
%TO.P,J1,14,Pin_14*%
%TO.N,A11*%
X60960000Y-63500000D03*
%TO.P,J1,15,Pin_15*%
%TO.N,A12*%
X63500000Y-63500000D03*
%TO.P,J1,16,Pin_16*%
%TO.N,A13*%
X66040000Y-63500000D03*
%TO.P,J1,17,Pin_17*%
%TO.N,A14*%
X68580000Y-63500000D03*
%TO.P,J1,18,Pin_18*%
%TO.N,A15*%
X71120000Y-63500000D03*
%TO.P,J1,19,Pin_19*%
%TO.N,D0*%
X73660000Y-63500000D03*
%TO.P,J1,20,Pin_20*%
%TO.N,D1*%
X76200000Y-63500000D03*
%TO.P,J1,21,Pin_21*%
%TO.N,D2*%
X78740000Y-63500000D03*
%TO.P,J1,22,Pin_22*%
%TO.N,D3*%
X81280000Y-63500000D03*
%TO.P,J1,23,Pin_23*%
%TO.N,D4*%
X83820000Y-63500000D03*
%TO.P,J1,24,Pin_24*%
%TO.N,D5*%
X86360000Y-63500000D03*
%TO.P,J1,25,Pin_25*%
%TO.N,D6*%
X88900000Y-63500000D03*
%TO.P,J1,26,Pin_26*%
%TO.N,D7*%
X91440000Y-63500000D03*
%TO.P,J1,27,Pin_27*%
%TO.N,R~W*%
X93980000Y-63500000D03*
%TO.P,J1,28,Pin_28*%
%TO.N,CLK*%
X96520000Y-63500000D03*
%TO.P,J1,29,Pin_29*%
%TO.N,RDY*%
X99060000Y-63500000D03*
%TO.P,J1,30,Pin_30*%
%TO.N,~{IRQ}*%
X101600000Y-63500000D03*
%TO.P,J1,31,Pin_31*%
%TO.N,~{NMI}*%
X104140000Y-63500000D03*
%TO.P,J1,32,Pin_32*%
%TO.N,~{RESET}*%
X106680000Y-63500000D03*
%TD*%
D12*
%TO.N,GND*%
X95250000Y-60960000D03*
X85090000Y-60960000D03*
X67310000Y-60960000D03*
X55880000Y-48260000D03*
X74930000Y-48260000D03*
X105410000Y-60960000D03*
X52070000Y-48260000D03*
X67310000Y-30480000D03*
X77470000Y-60960000D03*
X44450000Y-60960000D03*
X44450000Y-48260000D03*
X35560000Y-49530000D03*
X64770000Y-48260000D03*
X36830000Y-60960000D03*
X90170000Y-48260000D03*
X85090000Y-30480000D03*
X59690000Y-48260000D03*
X64770000Y-30480000D03*
X82550000Y-60960000D03*
X76200000Y-43180000D03*
X62230000Y-60960000D03*
X95250000Y-48260000D03*
X57150000Y-60960000D03*
X90170000Y-30480000D03*
X52070000Y-60960000D03*
X87630000Y-48260000D03*
X39370000Y-60960000D03*
X82550000Y-30480000D03*
X102870000Y-60960000D03*
X97790000Y-60960000D03*
X41910000Y-60960000D03*
X77470000Y-48260000D03*
X49530000Y-48260000D03*
X73660000Y-43180000D03*
X64770000Y-60960000D03*
X76200000Y-30480000D03*
X69850000Y-60960000D03*
X85090000Y-48260000D03*
X31750000Y-60960000D03*
X74930000Y-60960000D03*
X78740000Y-43180000D03*
X59690000Y-60960000D03*
X67310000Y-48260000D03*
X34290000Y-60960000D03*
X62230000Y-48260000D03*
X80010000Y-30480000D03*
X100330000Y-60960000D03*
X92710000Y-60960000D03*
X46990000Y-60960000D03*
X90170000Y-60960000D03*
X69850000Y-30480000D03*
X92710000Y-48260000D03*
X82550000Y-48260000D03*
X87630000Y-60960000D03*
X72390000Y-48260000D03*
X54610000Y-60960000D03*
X80010000Y-48260000D03*
X49530000Y-60960000D03*
X72390000Y-60960000D03*
X87630000Y-30480000D03*
X55880000Y-30480000D03*
X46990000Y-48260000D03*
X92710000Y-30480000D03*
X62230000Y-30480000D03*
X80010000Y-60960000D03*
X72390000Y-30480000D03*
X69850000Y-48260000D03*
%TO.N,D3*%
X97155000Y-30480000D03*
%TO.N,D4*%
X99060000Y-32385000D03*
%TO.N,D5*%
X100965000Y-34925000D03*
%TO.N,D6*%
X102870000Y-36830000D03*
%TO.N,D7*%
X104775000Y-38735000D03*
%TO.N,R~W*%
X106680000Y-40640000D03*
%TO.N,CLK*%
X108585000Y-42545000D03*
%TO.N,RDY*%
X71120000Y-41910000D03*
%TO.N,~{IRQ}*%
X68580000Y-40005000D03*
%TO.N,~{NMI}*%
X66040000Y-38100000D03*
%TO.N,~{RESET}*%
X63500000Y-36195000D03*
%TD*%
D13*
%TO.N,D3*%
X97155000Y-30480000D02*
X93980000Y-30480000D01*
X93980000Y-30480000D02*
X91440000Y-27940000D01*
%TO.N,D4*%
X93345000Y-32385000D02*
X88900000Y-27940000D01*
X99060000Y-32385000D02*
X93345000Y-32385000D01*
%TO.N,D5*%
X93345000Y-34925000D02*
X86360000Y-27940000D01*
X100965000Y-34925000D02*
X93345000Y-34925000D01*
%TO.N,D6*%
X102870000Y-36830000D02*
X92710000Y-36830000D01*
X92710000Y-36830000D02*
X83820000Y-27940000D01*
%TO.N,D7*%
X92075000Y-38735000D02*
X81280000Y-27940000D01*
X104775000Y-38735000D02*
X92075000Y-38735000D01*
%TO.N,R~W*%
X106680000Y-40640000D02*
X91440000Y-40640000D01*
X91440000Y-40640000D02*
X78740000Y-27940000D01*
%TO.N,CLK*%
X90805000Y-42545000D02*
X76200000Y-27940000D01*
X108585000Y-42545000D02*
X90805000Y-42545000D01*
%TO.N,RDY*%
X72485000Y-43275000D02*
X71120000Y-41910000D01*
X85090000Y-59690000D02*
X72485000Y-47085000D01*
X99060000Y-63500000D02*
X95250000Y-59690000D01*
X95250000Y-59690000D02*
X85090000Y-59690000D01*
X72485000Y-47085000D02*
X72485000Y-43275000D01*
%TO.N,~{IRQ}*%
X76385499Y-48446189D02*
X76385499Y-48445499D01*
X76385499Y-48445499D02*
X75025000Y-47085000D01*
X75025000Y-42640000D02*
X72390000Y-40005000D01*
X101600000Y-63500000D02*
X95885000Y-57785000D01*
X72390000Y-40005000D02*
X68580000Y-40005000D01*
X85724310Y-57785000D02*
X76385499Y-48446189D01*
X75025000Y-47085000D02*
X75025000Y-42640000D01*
X95885000Y-57785000D02*
X85724310Y-57785000D01*
%TO.N,~{NMI}*%
X86360000Y-55880000D02*
X77375000Y-46895000D01*
X96520000Y-55880000D02*
X86360000Y-55880000D01*
X77375000Y-41815000D02*
X73660000Y-38100000D01*
X104140000Y-63500000D02*
X96520000Y-55880000D01*
X77375000Y-46895000D02*
X77375000Y-41910000D01*
X73660000Y-38100000D02*
X66040000Y-38100000D01*
X77375000Y-41910000D02*
X77375000Y-41815000D01*
%TO.N,~{RESET}*%
X79915000Y-46895000D02*
X79915000Y-40545000D01*
X86995000Y-53975000D02*
X79915000Y-46895000D01*
X79915000Y-40545000D02*
X75565000Y-36195000D01*
X97155000Y-53975000D02*
X86995000Y-53975000D01*
X106680000Y-63500000D02*
X97155000Y-53975000D01*
X75565000Y-36195000D02*
X63500000Y-36195000D01*
%TD*%
%TA.AperFunction,Conductor*%
%TO.N,D4*%
G36*
X89682838Y-27619441D02*
G01*
X89689163Y-27625780D01*
X89689388Y-27626370D01*
X90188031Y-29046748D01*
X90187539Y-29055690D01*
X90185265Y-29058897D01*
X90018897Y-29225265D01*
X90010624Y-29228692D01*
X90006748Y-29228031D01*
X88586370Y-28729388D01*
X88579699Y-28723415D01*
X88579207Y-28714473D01*
X88579423Y-28713905D01*
X88897438Y-27943783D01*
X88903759Y-27937448D01*
X89673884Y-27619432D01*
X89682838Y-27619441D01*
G37*
%TD.AperFunction*%
%TD*%
%TA.AperFunction,Conductor*%
%TO.N,~{NMI}*%
G36*
X66220696Y-37740890D02*
G01*
X66832437Y-37972141D01*
X66838964Y-37978272D01*
X66840000Y-37983085D01*
X66840000Y-38216914D01*
X66836573Y-38225187D01*
X66832437Y-38227858D01*
X66203655Y-38465551D01*
X66194705Y-38465271D01*
X66188719Y-38459109D01*
X66092306Y-38227858D01*
X66040875Y-38104499D01*
X66040855Y-38095550D01*
X66188719Y-37740889D01*
X66195066Y-37734572D01*
X66203654Y-37734448D01*
X66220696Y-37740890D01*
G37*
%TD.AperFunction*%
%TD*%
%TA.AperFunction,Conductor*%
%TO.N,~{IRQ}*%
G36*
X100493251Y-62211968D02*
G01*
X100975027Y-62381102D01*
X101913629Y-62710611D01*
X101920300Y-62716584D01*
X101920792Y-62725526D01*
X101920567Y-62726116D01*
X101602562Y-63496214D01*
X101596237Y-63502553D01*
X101596214Y-63502562D01*
X100826116Y-63820567D01*
X100817161Y-63820558D01*
X100810836Y-63814219D01*
X100810611Y-63813629D01*
X100700755Y-63500707D01*
X100424818Y-62714702D01*
X100311968Y-62393251D01*
X100312460Y-62384309D01*
X100314731Y-62381105D01*
X100481103Y-62214733D01*
X100489375Y-62211307D01*
X100493251Y-62211968D01*
G37*
%TD.AperFunction*%
%TD*%
%TA.AperFunction,Conductor*%
%TO.N,GND*%
G36*
X74354814Y-46966097D02*
G01*
X74393054Y-47024573D01*
X74398297Y-47056554D01*
X74399469Y-47093844D01*
X74399500Y-47095792D01*
X74399500Y-47124343D01*
X74399501Y-47124360D01*
X74400368Y-47131231D01*
X74400826Y-47137050D01*
X74402290Y-47183624D01*
X74402291Y-47183627D01*
X74407880Y-47202867D01*
X74411824Y-47221911D01*
X74414336Y-47241792D01*
X74430027Y-47281424D01*
X74431490Y-47285119D01*
X74433382Y-47290647D01*
X74446381Y-47335388D01*
X74456580Y-47352634D01*
X74465138Y-47370103D01*
X74472514Y-47388732D01*
X74499898Y-47426423D01*
X74503106Y-47431307D01*
X74526827Y-47471416D01*
X74526833Y-47471424D01*
X74540990Y-47485580D01*
X74553628Y-47500376D01*
X74565405Y-47516586D01*
X74565406Y-47516587D01*
X74601309Y-47546288D01*
X74605620Y-47550210D01*
X75882190Y-48826781D01*
X75887325Y-48832606D01*
X75901489Y-48846769D01*
X75914127Y-48861565D01*
X75925904Y-48877775D01*
X75925905Y-48877776D01*
X75961808Y-48907477D01*
X75966119Y-48911399D01*
X82934718Y-55879999D01*
X85223507Y-58168788D01*
X85233332Y-58181051D01*
X85233553Y-58180869D01*
X85238521Y-58186874D01*
X85288242Y-58233566D01*
X85289642Y-58234923D01*
X85309833Y-58255115D01*
X85309837Y-58255118D01*
X85309839Y-58255120D01*
X85315321Y-58259373D01*
X85319753Y-58263157D01*
X85353728Y-58295062D01*
X85371286Y-58304714D01*
X85387545Y-58315395D01*
X85403374Y-58327673D01*
X85446148Y-58346182D01*
X85451366Y-58348738D01*
X85492218Y-58371197D01*
X85511626Y-58376180D01*
X85530027Y-58382480D01*
X85548414Y-58390437D01*
X85591798Y-58397308D01*
X85594429Y-58397725D01*
X85600149Y-58398909D01*
X85645291Y-58410500D01*
X85665326Y-58410500D01*
X85684724Y-58412026D01*
X85704504Y-58415159D01*
X85704505Y-58415160D01*
X85704505Y-58415159D01*
X85704506Y-58415160D01*
X85750893Y-58410775D01*
X85756732Y-58410500D01*
X95574548Y-58410500D01*
X95641587Y-58430185D01*
X95662229Y-58446819D01*
X99014216Y-61798806D01*
X99047701Y-61860129D01*
X99042717Y-61929821D01*
X99000845Y-61985754D01*
X98935381Y-62010171D01*
X98885461Y-62003487D01*
X98238100Y-61776222D01*
X98191493Y-61746903D01*
X95750803Y-59306212D01*
X95740980Y-59293950D01*
X95740759Y-59294134D01*
X95735786Y-59288122D01*
X95686066Y-59241432D01*
X95684666Y-59240075D01*
X95664476Y-59219884D01*
X95658986Y-59215625D01*
X95654561Y-59211847D01*
X95620582Y-59179938D01*
X95620580Y-59179936D01*
X95620577Y-59179935D01*
X95603029Y-59170288D01*
X95586763Y-59159604D01*
X95570933Y-59147325D01*
X95528168Y-59128818D01*
X95522922Y-59126248D01*
X95482093Y-59103803D01*
X95482092Y-59103802D01*
X95462693Y-59098822D01*
X95444281Y-59092518D01*
X95425898Y-59084562D01*
X95425892Y-59084560D01*
X95379874Y-59077272D01*
X95374152Y-59076087D01*
X95329021Y-59064500D01*
X95329019Y-59064500D01*
X95308984Y-59064500D01*
X95289586Y-59062973D01*
X95282162Y-59061797D01*
X95269805Y-59059840D01*
X95269804Y-59059840D01*
X95223416Y-59064225D01*
X95217578Y-59064500D01*
X85400452Y-59064500D01*
X85333413Y-59044815D01*
X85312771Y-59028181D01*
X73571931Y-47287340D01*
X73538446Y-47226017D01*
X73543430Y-47156325D01*
X73585302Y-47100392D01*
X73650766Y-47075975D01*
X73659612Y-47075659D01*
X73660001Y-47075659D01*
X73718966Y-47070500D01*
X73895408Y-47055063D01*
X74123663Y-46993903D01*
X74221954Y-46948068D01*
X74291030Y-46937577D01*
X74354814Y-46966097D01*
G37*
%TD.AperFunction*%
%TA.AperFunction,Conductor*%
G36*
X76697092Y-47005324D02*
G01*
X76754955Y-47044486D01*
X76774629Y-47077791D01*
X76781489Y-47095119D01*
X76783382Y-47100647D01*
X76796381Y-47145388D01*
X76806580Y-47162634D01*
X76815136Y-47180100D01*
X76822514Y-47198732D01*
X76839359Y-47221918D01*
X76849898Y-47236423D01*
X76853106Y-47241307D01*
X76876827Y-47281416D01*
X76876833Y-47281424D01*
X76890990Y-47295580D01*
X76903628Y-47310376D01*
X76915405Y-47326586D01*
X76915406Y-47326587D01*
X76951309Y-47356288D01*
X76955620Y-47360210D01*
X83806804Y-54211395D01*
X85859197Y-56263788D01*
X85869022Y-56276051D01*
X85869243Y-56275869D01*
X85874211Y-56281874D01*
X85923932Y-56328566D01*
X85925332Y-56329923D01*
X85945523Y-56350115D01*
X85945527Y-56350118D01*
X85945529Y-56350120D01*
X85951011Y-56354373D01*
X85955443Y-56358157D01*
X85989418Y-56390062D01*
X86006976Y-56399714D01*
X86023233Y-56410393D01*
X86039064Y-56422673D01*
X86058737Y-56431186D01*
X86081833Y-56441182D01*
X86087077Y-56443750D01*
X86127908Y-56466197D01*
X86140523Y-56469435D01*
X86147305Y-56471177D01*
X86165719Y-56477481D01*
X86184104Y-56485438D01*
X86230157Y-56492732D01*
X86235826Y-56493906D01*
X86280981Y-56505500D01*
X86301016Y-56505500D01*
X86320413Y-56507026D01*
X86340196Y-56510160D01*
X86386583Y-56505775D01*
X86392422Y-56505500D01*
X96209548Y-56505500D01*
X96276587Y-56525185D01*
X96297229Y-56541819D01*
X101554214Y-61798805D01*
X101587699Y-61860128D01*
X101582715Y-61929820D01*
X101540843Y-61985753D01*
X101475379Y-62010170D01*
X101425459Y-62003486D01*
X100778101Y-61776222D01*
X100731494Y-61746903D01*
X96385803Y-57401212D01*
X96375980Y-57388950D01*
X96375759Y-57389134D01*
X96370786Y-57383122D01*
X96321066Y-57336432D01*
X96319666Y-57335075D01*
X96299476Y-57314884D01*
X96293986Y-57310625D01*
X96289561Y-57306847D01*
X96255582Y-57274938D01*
X96255580Y-57274936D01*
X96255577Y-57274935D01*
X96238029Y-57265288D01*
X96221763Y-57254604D01*
X96205936Y-57242327D01*
X96205935Y-57242326D01*
X96205933Y-57242325D01*
X96163168Y-57223818D01*
X96157922Y-57221248D01*
X96117093Y-57198803D01*
X96117092Y-57198802D01*
X96097693Y-57193822D01*
X96079281Y-57187518D01*
X96060898Y-57179562D01*
X96060892Y-57179560D01*
X96014874Y-57172272D01*
X96009152Y-57171087D01*
X95964021Y-57159500D01*
X95964019Y-57159500D01*
X95943984Y-57159500D01*
X95924586Y-57157973D01*
X95917162Y-57156797D01*
X95904805Y-57154840D01*
X95904804Y-57154840D01*
X95858416Y-57159225D01*
X95852578Y-57159500D01*
X86034763Y-57159500D01*
X85967724Y-57139815D01*
X85947082Y-57123181D01*
X81486070Y-52662169D01*
X76888806Y-48064905D01*
X76883679Y-48059088D01*
X76869504Y-48044913D01*
X76856867Y-48030118D01*
X76852848Y-48024586D01*
X76845093Y-48013912D01*
X76845090Y-48013910D01*
X76845090Y-48013909D01*
X76809192Y-47984212D01*
X76804880Y-47980289D01*
X76111931Y-47287340D01*
X76078446Y-47226017D01*
X76083430Y-47156325D01*
X76125302Y-47100392D01*
X76190766Y-47075975D01*
X76199612Y-47075659D01*
X76200001Y-47075659D01*
X76258966Y-47070500D01*
X76435408Y-47055063D01*
X76627245Y-47003661D01*
X76697092Y-47005324D01*
G37*
%TD.AperFunction*%
%TA.AperFunction,Conductor*%
G36*
X79237092Y-47005324D02*
G01*
X79294955Y-47044486D01*
X79314629Y-47077791D01*
X79321489Y-47095119D01*
X79323382Y-47100647D01*
X79336381Y-47145388D01*
X79346580Y-47162634D01*
X79355136Y-47180100D01*
X79362514Y-47198732D01*
X79379359Y-47221918D01*
X79389898Y-47236423D01*
X79393106Y-47241307D01*
X79416827Y-47281416D01*
X79416833Y-47281424D01*
X79430990Y-47295580D01*
X79443628Y-47310376D01*
X79455405Y-47326586D01*
X79455406Y-47326587D01*
X79491309Y-47356288D01*
X79495620Y-47360210D01*
X84797578Y-52662169D01*
X86494197Y-54358788D01*
X86504022Y-54371051D01*
X86504243Y-54370869D01*
X86509211Y-54376874D01*
X86509213Y-54376876D01*
X86509214Y-54376877D01*
X86516187Y-54383425D01*
X86558932Y-54423566D01*
X86560332Y-54424923D01*
X86580523Y-54445115D01*
X86580527Y-54445118D01*
X86580529Y-54445120D01*
X86586011Y-54449373D01*
X86590443Y-54453157D01*
X86624418Y-54485062D01*
X86641976Y-54494714D01*
X86658233Y-54505393D01*
X86674064Y-54517673D01*
X86693737Y-54526186D01*
X86716833Y-54536182D01*
X86722077Y-54538750D01*
X86762908Y-54561197D01*
X86775523Y-54564435D01*
X86782305Y-54566177D01*
X86800719Y-54572481D01*
X86819104Y-54580438D01*
X86865157Y-54587732D01*
X86870826Y-54588906D01*
X86915981Y-54600500D01*
X86936016Y-54600500D01*
X86955413Y-54602026D01*
X86975196Y-54605160D01*
X87021583Y-54600775D01*
X87027422Y-54600500D01*
X96844548Y-54600500D01*
X96911587Y-54620185D01*
X96932229Y-54636819D01*
X104094214Y-61798805D01*
X104127699Y-61860128D01*
X104122715Y-61929820D01*
X104080843Y-61985753D01*
X104015379Y-62010170D01*
X103965459Y-62003486D01*
X103318101Y-61776222D01*
X103271494Y-61746903D01*
X97020803Y-55496212D01*
X97010980Y-55483950D01*
X97010759Y-55484134D01*
X97005786Y-55478122D01*
X96956066Y-55431432D01*
X96954666Y-55430075D01*
X96934476Y-55409884D01*
X96928986Y-55405625D01*
X96924561Y-55401847D01*
X96890582Y-55369938D01*
X96890580Y-55369936D01*
X96890577Y-55369935D01*
X96873029Y-55360288D01*
X96856763Y-55349604D01*
X96840933Y-55337325D01*
X96798168Y-55318818D01*
X96792922Y-55316248D01*
X96752093Y-55293803D01*
X96752092Y-55293802D01*
X96732693Y-55288822D01*
X96714281Y-55282518D01*
X96695898Y-55274562D01*
X96695892Y-55274560D01*
X96649874Y-55267272D01*
X96644152Y-55266087D01*
X96599021Y-55254500D01*
X96599019Y-55254500D01*
X96578984Y-55254500D01*
X96559586Y-55252973D01*
X96552162Y-55251797D01*
X96539805Y-55249840D01*
X96539804Y-55249840D01*
X96493416Y-55254225D01*
X96487578Y-55254500D01*
X86670452Y-55254500D01*
X86603413Y-55234815D01*
X86582771Y-55218181D01*
X78651930Y-47287340D01*
X78618445Y-47226017D01*
X78623429Y-47156325D01*
X78665301Y-47100392D01*
X78730765Y-47075975D01*
X78739611Y-47075659D01*
X78740001Y-47075659D01*
X78798966Y-47070500D01*
X78975408Y-47055063D01*
X79167245Y-47003661D01*
X79237092Y-47005324D01*
G37*
%TD.AperFunction*%
%TA.AperFunction,Conductor*%
G36*
X109162539Y-17800185D02*
G01*
X109208294Y-17852989D01*
X109219500Y-17904500D01*
X109219500Y-41651020D01*
X109199815Y-41718059D01*
X109147011Y-41763814D01*
X109077853Y-41773758D01*
X109044269Y-41762136D01*
X109043666Y-41763492D01*
X108864807Y-41683857D01*
X108864802Y-41683855D01*
X108710320Y-41651020D01*
X108679646Y-41644500D01*
X108490354Y-41644500D01*
X108459680Y-41651020D01*
X108305198Y-41683855D01*
X108305193Y-41683857D01*
X108276938Y-41696437D01*
X108253400Y-41704205D01*
X108242607Y-41706602D01*
X108242593Y-41706607D01*
X107700609Y-41911489D01*
X107656763Y-41919500D01*
X91115452Y-41919500D01*
X91048413Y-41899815D01*
X91027771Y-41883181D01*
X78785783Y-29641192D01*
X78752298Y-29579869D01*
X78757282Y-29510177D01*
X78799154Y-29454244D01*
X78864618Y-29429827D01*
X78914537Y-29436510D01*
X79561898Y-29663775D01*
X79608503Y-29693093D01*
X85278454Y-35363045D01*
X90939197Y-41023788D01*
X90949022Y-41036051D01*
X90949243Y-41035869D01*
X90954211Y-41041874D01*
X91003932Y-41088566D01*
X91005332Y-41089923D01*
X91025523Y-41110115D01*
X91025527Y-41110118D01*
X91025529Y-41110120D01*
X91031011Y-41114373D01*
X91035443Y-41118157D01*
X91069418Y-41150062D01*
X91086976Y-41159714D01*
X91103235Y-41170395D01*
X91119064Y-41182673D01*
X91161838Y-41201182D01*
X91167056Y-41203738D01*
X91207908Y-41226197D01*
X91227316Y-41231180D01*
X91245717Y-41237480D01*
X91264104Y-41245437D01*
X91307488Y-41252308D01*
X91310119Y-41252725D01*
X91315839Y-41253909D01*
X91360981Y-41265500D01*
X91381016Y-41265500D01*
X91400414Y-41267026D01*
X91420194Y-41270159D01*
X91420195Y-41270160D01*
X91420195Y-41270159D01*
X91420196Y-41270160D01*
X91466583Y-41265775D01*
X91472422Y-41265500D01*
X105751766Y-41265500D01*
X105795610Y-41273510D01*
X106071450Y-41377784D01*
X106337606Y-41478397D01*
X106366307Y-41487789D01*
X106377986Y-41491611D01*
X106383915Y-41493894D01*
X106392073Y-41497527D01*
X106400194Y-41501143D01*
X106400197Y-41501144D01*
X106585354Y-41540500D01*
X106585355Y-41540500D01*
X106774644Y-41540500D01*
X106774646Y-41540500D01*
X106959803Y-41501144D01*
X107132730Y-41424151D01*
X107285871Y-41312888D01*
X107412533Y-41172216D01*
X107507179Y-41008284D01*
X107565674Y-40828256D01*
X107585460Y-40640000D01*
X107565674Y-40451744D01*
X107507179Y-40271716D01*
X107412533Y-40107784D01*
X107285871Y-39967112D01*
X107285870Y-39967111D01*
X107132734Y-39855851D01*
X107132729Y-39855848D01*
X106959807Y-39778857D01*
X106959802Y-39778855D01*
X106814000Y-39747865D01*
X106774646Y-39739500D01*
X106585354Y-39739500D01*
X106545998Y-39747865D01*
X106400198Y-39778855D01*
X106400193Y-39778857D01*
X106371938Y-39791437D01*
X106348400Y-39799205D01*
X106337607Y-39801602D01*
X106337593Y-39801607D01*
X105795609Y-40006489D01*
X105751763Y-40014500D01*
X91750453Y-40014500D01*
X91683414Y-39994815D01*
X91662772Y-39978181D01*
X81325783Y-29641192D01*
X81292298Y-29579869D01*
X81297282Y-29510177D01*
X81339154Y-29454244D01*
X81404618Y-29429827D01*
X81454537Y-29436510D01*
X82101898Y-29663775D01*
X82148504Y-29693094D01*
X91574197Y-39118788D01*
X91584022Y-39131051D01*
X91584243Y-39130869D01*
X91589211Y-39136874D01*
X91638932Y-39183566D01*
X91640332Y-39184923D01*
X91660523Y-39205115D01*
X91660527Y-39205118D01*
X91660529Y-39205120D01*
X91666011Y-39209373D01*
X91670443Y-39213157D01*
X91704418Y-39245062D01*
X91721976Y-39254714D01*
X91738235Y-39265395D01*
X91754064Y-39277673D01*
X91796838Y-39296182D01*
X91802056Y-39298738D01*
X91842908Y-39321197D01*
X91862316Y-39326180D01*
X91880717Y-39332480D01*
X91899104Y-39340437D01*
X91942488Y-39347308D01*
X91945119Y-39347725D01*
X91950839Y-39348909D01*
X91995981Y-39360500D01*
X92016016Y-39360500D01*
X92035414Y-39362026D01*
X92055194Y-39365159D01*
X92055195Y-39365160D01*
X92055195Y-39365159D01*
X92055196Y-39365160D01*
X92101583Y-39360775D01*
X92107422Y-39360500D01*
X103846766Y-39360500D01*
X103890610Y-39368510D01*
X104138783Y-39462325D01*
X104432606Y-39573397D01*
X104461307Y-39582789D01*
X104472986Y-39586611D01*
X104478915Y-39588894D01*
X104487073Y-39592527D01*
X104495194Y-39596143D01*
X104495197Y-39596144D01*
X104680354Y-39635500D01*
X104680355Y-39635500D01*
X104869644Y-39635500D01*
X104869646Y-39635500D01*
X105054803Y-39596144D01*
X105227730Y-39519151D01*
X105380871Y-39407888D01*
X105507533Y-39267216D01*
X105602179Y-39103284D01*
X105660674Y-38923256D01*
X105680460Y-38735000D01*
X105660674Y-38546744D01*
X105602179Y-38366716D01*
X105507533Y-38202784D01*
X105380871Y-38062112D01*
X105380870Y-38062111D01*
X105227734Y-37950851D01*
X105227729Y-37950848D01*
X105054807Y-37873857D01*
X105054802Y-37873855D01*
X104909001Y-37842865D01*
X104869646Y-37834500D01*
X104680354Y-37834500D01*
X104640998Y-37842865D01*
X104495198Y-37873855D01*
X104495193Y-37873857D01*
X104466938Y-37886437D01*
X104443400Y-37894205D01*
X104432607Y-37896602D01*
X104432593Y-37896607D01*
X103890609Y-38101489D01*
X103846763Y-38109500D01*
X92385453Y-38109500D01*
X92318414Y-38089815D01*
X92297772Y-38073181D01*
X83865783Y-29641192D01*
X83832298Y-29579869D01*
X83837282Y-29510177D01*
X83879154Y-29454244D01*
X83944618Y-29429827D01*
X83994537Y-29436510D01*
X84641898Y-29663775D01*
X84688504Y-29693094D01*
X92209194Y-37213784D01*
X92219019Y-37226048D01*
X92219240Y-37225866D01*
X92224210Y-37231874D01*
X92273949Y-37278582D01*
X92275316Y-37279906D01*
X92295530Y-37300120D01*
X92301004Y-37304366D01*
X92305442Y-37308156D01*
X92339418Y-37340062D01*
X92339422Y-37340064D01*
X92356973Y-37349713D01*
X92373231Y-37360392D01*
X92389064Y-37372674D01*
X92411015Y-37382172D01*
X92431837Y-37391183D01*
X92437081Y-37393752D01*
X92477908Y-37416197D01*
X92497312Y-37421179D01*
X92515710Y-37427478D01*
X92534105Y-37435438D01*
X92580129Y-37442726D01*
X92585832Y-37443907D01*
X92630981Y-37455500D01*
X92651016Y-37455500D01*
X92670413Y-37457026D01*
X92690196Y-37460160D01*
X92736583Y-37455775D01*
X92742422Y-37455500D01*
X101941766Y-37455500D01*
X101985610Y-37463510D01*
X102233783Y-37557325D01*
X102527606Y-37668397D01*
X102556307Y-37677789D01*
X102567986Y-37681611D01*
X102573915Y-37683894D01*
X102582073Y-37687527D01*
X102590194Y-37691143D01*
X102590197Y-37691144D01*
X102775354Y-37730500D01*
X102775355Y-37730500D01*
X102964644Y-37730500D01*
X102964646Y-37730500D01*
X103149803Y-37691144D01*
X103322730Y-37614151D01*
X103475871Y-37502888D01*
X103602533Y-37362216D01*
X103697179Y-37198284D01*
X103755674Y-37018256D01*
X103775460Y-36830000D01*
X103755674Y-36641744D01*
X103697179Y-36461716D01*
X103602533Y-36297784D01*
X103475871Y-36157112D01*
X103475870Y-36157111D01*
X103322734Y-36045851D01*
X103322729Y-36045848D01*
X103149807Y-35968857D01*
X103149802Y-35968855D01*
X103004000Y-35937865D01*
X102964646Y-35929500D01*
X102775354Y-35929500D01*
X102735998Y-35937865D01*
X102590198Y-35968855D01*
X102590193Y-35968857D01*
X102561938Y-35981437D01*
X102538400Y-35989205D01*
X102527607Y-35991602D01*
X102527593Y-35991607D01*
X101985609Y-36196489D01*
X101941763Y-36204500D01*
X93020452Y-36204500D01*
X92953413Y-36184815D01*
X92932771Y-36168181D01*
X86405783Y-29641192D01*
X86372298Y-29579869D01*
X86377282Y-29510177D01*
X86419154Y-29454244D01*
X86484618Y-29429827D01*
X86534537Y-29436510D01*
X87181898Y-29663775D01*
X87228504Y-29693094D01*
X92844194Y-35308784D01*
X92854019Y-35321048D01*
X92854240Y-35320866D01*
X92859210Y-35326874D01*
X92908949Y-35373582D01*
X92910316Y-35374906D01*
X92930530Y-35395120D01*
X92936004Y-35399366D01*
X92940442Y-35403156D01*
X92974418Y-35435062D01*
X92974422Y-35435064D01*
X92991973Y-35444713D01*
X93008231Y-35455392D01*
X93024064Y-35467674D01*
X93046015Y-35477172D01*
X93066837Y-35486183D01*
X93072081Y-35488752D01*
X93112908Y-35511197D01*
X93132312Y-35516179D01*
X93150710Y-35522478D01*
X93169105Y-35530438D01*
X93215129Y-35537726D01*
X93220832Y-35538907D01*
X93265981Y-35550500D01*
X93286016Y-35550500D01*
X93305413Y-35552026D01*
X93325196Y-35555160D01*
X93371583Y-35550775D01*
X93377422Y-35550500D01*
X100036766Y-35550500D01*
X100080610Y-35558510D01*
X100328783Y-35652325D01*
X100622606Y-35763397D01*
X100651307Y-35772789D01*
X100662986Y-35776611D01*
X100668915Y-35778894D01*
X100677073Y-35782527D01*
X100685194Y-35786143D01*
X100685197Y-35786144D01*
X100870354Y-35825500D01*
X100870355Y-35825500D01*
X101059644Y-35825500D01*
X101059646Y-35825500D01*
X101244803Y-35786144D01*
X101417730Y-35709151D01*
X101570871Y-35597888D01*
X101697533Y-35457216D01*
X101792179Y-35293284D01*
X101850674Y-35113256D01*
X101870460Y-34925000D01*
X101850674Y-34736744D01*
X101792179Y-34556716D01*
X101697533Y-34392784D01*
X101570871Y-34252112D01*
X101570870Y-34252111D01*
X101417734Y-34140851D01*
X101417729Y-34140848D01*
X101244807Y-34063857D01*
X101244802Y-34063855D01*
X101099000Y-34032865D01*
X101059646Y-34024500D01*
X100870354Y-34024500D01*
X100830998Y-34032865D01*
X100685198Y-34063855D01*
X100685193Y-34063857D01*
X100656938Y-34076437D01*
X100633400Y-34084205D01*
X100622607Y-34086602D01*
X100622593Y-34086607D01*
X100080609Y-34291489D01*
X100036763Y-34299500D01*
X93655452Y-34299500D01*
X93588413Y-34279815D01*
X93567771Y-34263181D01*
X88945783Y-29641192D01*
X88912298Y-29579869D01*
X88917282Y-29510177D01*
X88959154Y-29454244D01*
X89024618Y-29429827D01*
X89074537Y-29436510D01*
X89721898Y-29663775D01*
X89768504Y-29693094D01*
X92844197Y-32768788D01*
X92854022Y-32781051D01*
X92854243Y-32780869D01*
X92859211Y-32786874D01*
X92908932Y-32833566D01*
X92910332Y-32834923D01*
X92930523Y-32855115D01*
X92930527Y-32855118D01*
X92930529Y-32855120D01*
X92936011Y-32859373D01*
X92940443Y-32863157D01*
X92974418Y-32895062D01*
X92991976Y-32904714D01*
X93008235Y-32915395D01*
X93024064Y-32927673D01*
X93066838Y-32946182D01*
X93072056Y-32948738D01*
X93112908Y-32971197D01*
X93132316Y-32976180D01*
X93150717Y-32982480D01*
X93169104Y-32990437D01*
X93212488Y-32997308D01*
X93215119Y-32997725D01*
X93220839Y-32998909D01*
X93265981Y-33010500D01*
X93286016Y-33010500D01*
X93305414Y-33012026D01*
X93325194Y-33015159D01*
X93325195Y-33015160D01*
X93325195Y-33015159D01*
X93325196Y-33015160D01*
X93371583Y-33010775D01*
X93377422Y-33010500D01*
X98131766Y-33010500D01*
X98175610Y-33018510D01*
X98469227Y-33129504D01*
X98717606Y-33223397D01*
X98746307Y-33232789D01*
X98757986Y-33236611D01*
X98763915Y-33238894D01*
X98772073Y-33242527D01*
X98780194Y-33246143D01*
X98780197Y-33246144D01*
X98965354Y-33285500D01*
X98965355Y-33285500D01*
X99154644Y-33285500D01*
X99154646Y-33285500D01*
X99339803Y-33246144D01*
X99512730Y-33169151D01*
X99665871Y-33057888D01*
X99792533Y-32917216D01*
X99887179Y-32753284D01*
X99945674Y-32573256D01*
X99965460Y-32385000D01*
X99945674Y-32196744D01*
X99887179Y-32016716D01*
X99792533Y-31852784D01*
X99665871Y-31712112D01*
X99665870Y-31712111D01*
X99512734Y-31600851D01*
X99512729Y-31600848D01*
X99339807Y-31523857D01*
X99339802Y-31523855D01*
X99194000Y-31492865D01*
X99154646Y-31484500D01*
X98965354Y-31484500D01*
X98925998Y-31492865D01*
X98780198Y-31523855D01*
X98780193Y-31523857D01*
X98751938Y-31536437D01*
X98728400Y-31544205D01*
X98717607Y-31546602D01*
X98717593Y-31546607D01*
X98175609Y-31751489D01*
X98131763Y-31759500D01*
X93655453Y-31759500D01*
X93588414Y-31739815D01*
X93567772Y-31723181D01*
X91485783Y-29641192D01*
X91452298Y-29579869D01*
X91457282Y-29510177D01*
X91499154Y-29454244D01*
X91564618Y-29429827D01*
X91614536Y-29436510D01*
X92261897Y-29663775D01*
X92308503Y-29693094D01*
X93479197Y-30863788D01*
X93489022Y-30876051D01*
X93489243Y-30875869D01*
X93494211Y-30881874D01*
X93543932Y-30928566D01*
X93545332Y-30929923D01*
X93565523Y-30950115D01*
X93565527Y-30950118D01*
X93565529Y-30950120D01*
X93571011Y-30954373D01*
X93575443Y-30958157D01*
X93609418Y-30990062D01*
X93626976Y-30999714D01*
X93643235Y-31010395D01*
X93659064Y-31022673D01*
X93701838Y-31041182D01*
X93707056Y-31043738D01*
X93747908Y-31066197D01*
X93767316Y-31071180D01*
X93785717Y-31077480D01*
X93804104Y-31085437D01*
X93847488Y-31092308D01*
X93850119Y-31092725D01*
X93855839Y-31093909D01*
X93900981Y-31105500D01*
X93921016Y-31105500D01*
X93940414Y-31107026D01*
X93960194Y-31110159D01*
X93960195Y-31110160D01*
X93960195Y-31110159D01*
X93960196Y-31110160D01*
X94006583Y-31105775D01*
X94012422Y-31105500D01*
X96226766Y-31105500D01*
X96270610Y-31113510D01*
X96564227Y-31224504D01*
X96812606Y-31318397D01*
X96841307Y-31327789D01*
X96852986Y-31331611D01*
X96858915Y-31333894D01*
X96867073Y-31337527D01*
X96875194Y-31341143D01*
X96875197Y-31341144D01*
X97060354Y-31380500D01*
X97060355Y-31380500D01*
X97249644Y-31380500D01*
X97249646Y-31380500D01*
X97434803Y-31341144D01*
X97607730Y-31264151D01*
X97760871Y-31152888D01*
X97887533Y-31012216D01*
X97982179Y-30848284D01*
X98040674Y-30668256D01*
X98060460Y-30480000D01*
X98040674Y-30291744D01*
X97982179Y-30111716D01*
X97887533Y-29947784D01*
X97760871Y-29807112D01*
X97760870Y-29807111D01*
X97607734Y-29695851D01*
X97607729Y-29695848D01*
X97434807Y-29618857D01*
X97434802Y-29618855D01*
X97289000Y-29587865D01*
X97249646Y-29579500D01*
X97060354Y-29579500D01*
X97020998Y-29587865D01*
X96875198Y-29618855D01*
X96875193Y-29618857D01*
X96846938Y-29631437D01*
X96823400Y-29639205D01*
X96812607Y-29641602D01*
X96812593Y-29641607D01*
X96270609Y-29846489D01*
X96226763Y-29854500D01*
X94290453Y-29854500D01*
X94223414Y-29834815D01*
X94202772Y-29818181D01*
X93891931Y-29507340D01*
X93858446Y-29446017D01*
X93863430Y-29376325D01*
X93905302Y-29320392D01*
X93970766Y-29295975D01*
X93979612Y-29295659D01*
X93980001Y-29295659D01*
X94038966Y-29290500D01*
X94215408Y-29275063D01*
X94443663Y-29213903D01*
X94657830Y-29114035D01*
X94851401Y-28978495D01*
X95018495Y-28811401D01*
X95154035Y-28617830D01*
X95253903Y-28403663D01*
X95315063Y-28175408D01*
X95335659Y-27940000D01*
X95315063Y-27704592D01*
X95253903Y-27476337D01*
X95154035Y-27262171D01*
X95148731Y-27254595D01*
X95018494Y-27068597D01*
X94851402Y-26901506D01*
X94851395Y-26901501D01*
X94657834Y-26765967D01*
X94657830Y-26765965D01*
X94657828Y-26765964D01*
X94443663Y-26666097D01*
X94443659Y-26666096D01*
X94443655Y-26666094D01*
X94215413Y-26604938D01*
X94215403Y-26604936D01*
X93980001Y-26584341D01*
X93979999Y-26584341D01*
X93744596Y-26604936D01*
X93744586Y-26604938D01*
X93516344Y-26666094D01*
X93516335Y-26666098D01*
X93302171Y-26765964D01*
X93302169Y-26765965D01*
X93108597Y-26901505D01*
X92941505Y-27068597D01*
X92811575Y-27254158D01*
X92756998Y-27297783D01*
X92687500Y-27304977D01*
X92625145Y-27273454D01*
X92608425Y-27254158D01*
X92478494Y-27068597D01*
X92311402Y-26901506D01*
X92311395Y-26901501D01*
X92117834Y-26765967D01*
X92117830Y-26765965D01*
X92117828Y-26765964D01*
X91903663Y-26666097D01*
X91903659Y-26666096D01*
X91903655Y-26666094D01*
X91675413Y-26604938D01*
X91675403Y-26604936D01*
X91440001Y-26584341D01*
X91439999Y-26584341D01*
X91204596Y-26604936D01*
X91204586Y-26604938D01*
X90976344Y-26666094D01*
X90976335Y-26666098D01*
X90762171Y-26765964D01*
X90762169Y-26765965D01*
X90568597Y-26901505D01*
X90401505Y-27068597D01*
X90271575Y-27254158D01*
X90216998Y-27297783D01*
X90147500Y-27304977D01*
X90085145Y-27273454D01*
X90068425Y-27254158D01*
X89938494Y-27068597D01*
X89771402Y-26901506D01*
X89771395Y-26901501D01*
X89577834Y-26765967D01*
X89577830Y-26765965D01*
X89577828Y-26765964D01*
X89363663Y-26666097D01*
X89363659Y-26666096D01*
X89363655Y-26666094D01*
X89135413Y-26604938D01*
X89135403Y-26604936D01*
X88900001Y-26584341D01*
X88899999Y-26584341D01*
X88664596Y-26604936D01*
X88664586Y-26604938D01*
X88436344Y-26666094D01*
X88436335Y-26666098D01*
X88222171Y-26765964D01*
X88222169Y-26765965D01*
X88028597Y-26901505D01*
X87861505Y-27068597D01*
X87731575Y-27254158D01*
X87676998Y-27297783D01*
X87607500Y-27304977D01*
X87545145Y-27273454D01*
X87528425Y-27254158D01*
X87398494Y-27068597D01*
X87231402Y-26901506D01*
X87231395Y-26901501D01*
X87037834Y-26765967D01*
X87037830Y-26765965D01*
X87037828Y-26765964D01*
X86823663Y-26666097D01*
X86823659Y-26666096D01*
X86823655Y-26666094D01*
X86595413Y-26604938D01*
X86595403Y-26604936D01*
X86360001Y-26584341D01*
X86359999Y-26584341D01*
X86124596Y-26604936D01*
X86124586Y-26604938D01*
X85896344Y-26666094D01*
X85896335Y-26666098D01*
X85682171Y-26765964D01*
X85682169Y-26765965D01*
X85488597Y-26901505D01*
X85321505Y-27068597D01*
X85191575Y-27254158D01*
X85136998Y-27297783D01*
X85067500Y-27304977D01*
X85005145Y-27273454D01*
X84988425Y-27254158D01*
X84858494Y-27068597D01*
X84691402Y-26901506D01*
X84691395Y-26901501D01*
X84497834Y-26765967D01*
X84497830Y-26765965D01*
X84497829Y-26765964D01*
X84283663Y-26666097D01*
X84283659Y-26666096D01*
X84283655Y-26666094D01*
X84055413Y-26604938D01*
X84055403Y-26604936D01*
X83820001Y-26584341D01*
X83819999Y-26584341D01*
X83584596Y-26604936D01*
X83584586Y-26604938D01*
X83356344Y-26666094D01*
X83356335Y-26666098D01*
X83142171Y-26765964D01*
X83142169Y-26765965D01*
X82948597Y-26901505D01*
X82781505Y-27068597D01*
X82651575Y-27254158D01*
X82596998Y-27297783D01*
X82527500Y-27304977D01*
X82465145Y-27273454D01*
X82448425Y-27254158D01*
X82318494Y-27068597D01*
X82151402Y-26901506D01*
X82151395Y-26901501D01*
X81957834Y-26765967D01*
X81957830Y-26765965D01*
X81957830Y-26765964D01*
X81743663Y-26666097D01*
X81743659Y-26666096D01*
X81743655Y-26666094D01*
X81515413Y-26604938D01*
X81515403Y-26604936D01*
X81280001Y-26584341D01*
X81279999Y-26584341D01*
X81044596Y-26604936D01*
X81044586Y-26604938D01*
X80816344Y-26666094D01*
X80816335Y-26666098D01*
X80602171Y-26765964D01*
X80602169Y-26765965D01*
X80408597Y-26901505D01*
X80241505Y-27068597D01*
X80111575Y-27254158D01*
X80056998Y-27297783D01*
X79987500Y-27304977D01*
X79925145Y-27273454D01*
X79908425Y-27254158D01*
X79778494Y-27068597D01*
X79611402Y-26901506D01*
X79611395Y-26901501D01*
X79417834Y-26765967D01*
X79417830Y-26765965D01*
X79417829Y-26765964D01*
X79203663Y-26666097D01*
X79203659Y-26666096D01*
X79203655Y-26666094D01*
X78975413Y-26604938D01*
X78975403Y-26604936D01*
X78740001Y-26584341D01*
X78739999Y-26584341D01*
X78504596Y-26604936D01*
X78504586Y-26604938D01*
X78276344Y-26666094D01*
X78276335Y-26666098D01*
X78062171Y-26765964D01*
X78062169Y-26765965D01*
X77868597Y-26901505D01*
X77701505Y-27068597D01*
X77571575Y-27254158D01*
X77516998Y-27297783D01*
X77447500Y-27304977D01*
X77385145Y-27273454D01*
X77368425Y-27254158D01*
X77238494Y-27068597D01*
X77071402Y-26901506D01*
X77071395Y-26901501D01*
X76877834Y-26765967D01*
X76877830Y-26765965D01*
X76877830Y-26765964D01*
X76663663Y-26666097D01*
X76663659Y-26666096D01*
X76663655Y-26666094D01*
X76435413Y-26604938D01*
X76435403Y-26604936D01*
X76200001Y-26584341D01*
X76199999Y-26584341D01*
X75964596Y-26604936D01*
X75964586Y-26604938D01*
X75736344Y-26666094D01*
X75736335Y-26666098D01*
X75522171Y-26765964D01*
X75522169Y-26765965D01*
X75328597Y-26901505D01*
X75161505Y-27068597D01*
X75031269Y-27254595D01*
X74976692Y-27298220D01*
X74907194Y-27305414D01*
X74844839Y-27273891D01*
X74828119Y-27254595D01*
X74774925Y-27178626D01*
X74774925Y-27178625D01*
X74143076Y-27810474D01*
X74119493Y-27730156D01*
X74041761Y-27609202D01*
X73933100Y-27515048D01*
X73802315Y-27455320D01*
X73792533Y-27453913D01*
X74421373Y-26825073D01*
X74421373Y-26825072D01*
X74337583Y-26766402D01*
X74337579Y-26766400D01*
X74123492Y-26666570D01*
X74123483Y-26666566D01*
X73895326Y-26605432D01*
X73895315Y-26605430D01*
X73660002Y-26584843D01*
X73659998Y-26584843D01*
X73424684Y-26605430D01*
X73424673Y-26605432D01*
X73196516Y-26666566D01*
X73196507Y-26666570D01*
X72982419Y-26766401D01*
X72898625Y-26825072D01*
X73527466Y-27453913D01*
X73517685Y-27455320D01*
X73386900Y-27515048D01*
X73278239Y-27609202D01*
X73200507Y-27730156D01*
X73176923Y-27810475D01*
X72545073Y-27178626D01*
X72491881Y-27254594D01*
X72437304Y-27298219D01*
X72367806Y-27305413D01*
X72305451Y-27273891D01*
X72288730Y-27254594D01*
X72158494Y-27068597D01*
X71991402Y-26901506D01*
X71991395Y-26901501D01*
X71797834Y-26765967D01*
X71797830Y-26765965D01*
X71797828Y-26765964D01*
X71583663Y-26666097D01*
X71583659Y-26666096D01*
X71583655Y-26666094D01*
X71355413Y-26604938D01*
X71355403Y-26604936D01*
X71120001Y-26584341D01*
X71119999Y-26584341D01*
X70884596Y-26604936D01*
X70884586Y-26604938D01*
X70656344Y-26666094D01*
X70656335Y-26666098D01*
X70442171Y-26765964D01*
X70442169Y-26765965D01*
X70248597Y-26901505D01*
X70081505Y-27068597D01*
X69951575Y-27254158D01*
X69896998Y-27297783D01*
X69827500Y-27304977D01*
X69765145Y-27273454D01*
X69748425Y-27254158D01*
X69618494Y-27068597D01*
X69451402Y-26901506D01*
X69451395Y-26901501D01*
X69257834Y-26765967D01*
X69257830Y-26765965D01*
X69257828Y-26765964D01*
X69043663Y-26666097D01*
X69043659Y-26666096D01*
X69043655Y-26666094D01*
X68815413Y-26604938D01*
X68815403Y-26604936D01*
X68580001Y-26584341D01*
X68579999Y-26584341D01*
X68344596Y-26604936D01*
X68344586Y-26604938D01*
X68116344Y-26666094D01*
X68116335Y-26666098D01*
X67902171Y-26765964D01*
X67902169Y-26765965D01*
X67708597Y-26901505D01*
X67541505Y-27068597D01*
X67411575Y-27254158D01*
X67356998Y-27297783D01*
X67287500Y-27304977D01*
X67225145Y-27273454D01*
X67208425Y-27254158D01*
X67078494Y-27068597D01*
X66911402Y-26901506D01*
X66911395Y-26901501D01*
X66717834Y-26765967D01*
X66717830Y-26765965D01*
X66717828Y-26765964D01*
X66503663Y-26666097D01*
X66503659Y-26666096D01*
X66503655Y-26666094D01*
X66275413Y-26604938D01*
X66275403Y-26604936D01*
X66040001Y-26584341D01*
X66039999Y-26584341D01*
X65804596Y-26604936D01*
X65804586Y-26604938D01*
X65576344Y-26666094D01*
X65576335Y-26666098D01*
X65362171Y-26765964D01*
X65362169Y-26765965D01*
X65168597Y-26901505D01*
X65001508Y-27068594D01*
X64871574Y-27254160D01*
X64816997Y-27297784D01*
X64747498Y-27304977D01*
X64685144Y-27273455D01*
X64668429Y-27254164D01*
X64538495Y-27068599D01*
X64538493Y-27068596D01*
X64371402Y-26901506D01*
X64371395Y-26901501D01*
X64177834Y-26765967D01*
X64177830Y-26765965D01*
X64177828Y-26765964D01*
X63963663Y-26666097D01*
X63963659Y-26666096D01*
X63963655Y-26666094D01*
X63735413Y-26604938D01*
X63735403Y-26604936D01*
X63500001Y-26584341D01*
X63499999Y-26584341D01*
X63264596Y-26604936D01*
X63264586Y-26604938D01*
X63036344Y-26666094D01*
X63036335Y-26666098D01*
X62822171Y-26765964D01*
X62822169Y-26765965D01*
X62628597Y-26901505D01*
X62461505Y-27068597D01*
X62331575Y-27254158D01*
X62276998Y-27297783D01*
X62207500Y-27304977D01*
X62145145Y-27273454D01*
X62128425Y-27254158D01*
X61998494Y-27068597D01*
X61831402Y-26901506D01*
X61831395Y-26901501D01*
X61637834Y-26765967D01*
X61637830Y-26765965D01*
X61637828Y-26765964D01*
X61423663Y-26666097D01*
X61423659Y-26666096D01*
X61423655Y-26666094D01*
X61195413Y-26604938D01*
X61195403Y-26604936D01*
X60960001Y-26584341D01*
X60959999Y-26584341D01*
X60724596Y-26604936D01*
X60724586Y-26604938D01*
X60496344Y-26666094D01*
X60496335Y-26666098D01*
X60282171Y-26765964D01*
X60282169Y-26765965D01*
X60088597Y-26901505D01*
X59921508Y-27068594D01*
X59791574Y-27254160D01*
X59736997Y-27297784D01*
X59667498Y-27304977D01*
X59605144Y-27273455D01*
X59588429Y-27254164D01*
X59458495Y-27068599D01*
X59458493Y-27068596D01*
X59291402Y-26901506D01*
X59291395Y-26901501D01*
X59097834Y-26765967D01*
X59097830Y-26765965D01*
X59097828Y-26765964D01*
X58883663Y-26666097D01*
X58883659Y-26666096D01*
X58883655Y-26666094D01*
X58655413Y-26604938D01*
X58655403Y-26604936D01*
X58420001Y-26584341D01*
X58419999Y-26584341D01*
X58184596Y-26604936D01*
X58184586Y-26604938D01*
X57956344Y-26666094D01*
X57956335Y-26666098D01*
X57742171Y-26765964D01*
X57742169Y-26765965D01*
X57548597Y-26901505D01*
X57381505Y-27068597D01*
X57251575Y-27254158D01*
X57196998Y-27297783D01*
X57127500Y-27304977D01*
X57065145Y-27273454D01*
X57048425Y-27254158D01*
X56918494Y-27068597D01*
X56751402Y-26901506D01*
X56751395Y-26901501D01*
X56557834Y-26765967D01*
X56557830Y-26765965D01*
X56557828Y-26765964D01*
X56343663Y-26666097D01*
X56343659Y-26666096D01*
X56343655Y-26666094D01*
X56115413Y-26604938D01*
X56115403Y-26604936D01*
X55880001Y-26584341D01*
X55879999Y-26584341D01*
X55644596Y-26604936D01*
X55644586Y-26604938D01*
X55416344Y-26666094D01*
X55416335Y-26666098D01*
X55202171Y-26765964D01*
X55202169Y-26765965D01*
X55008597Y-26901505D01*
X54841508Y-27068594D01*
X54711574Y-27254160D01*
X54656997Y-27297784D01*
X54587498Y-27304977D01*
X54525144Y-27273455D01*
X54508429Y-27254164D01*
X54378495Y-27068599D01*
X54378493Y-27068596D01*
X54211402Y-26901506D01*
X54211395Y-26901501D01*
X54017834Y-26765967D01*
X54017830Y-26765965D01*
X54017828Y-26765964D01*
X53803663Y-26666097D01*
X53803659Y-26666096D01*
X53803655Y-26666094D01*
X53575413Y-26604938D01*
X53575403Y-26604936D01*
X53340001Y-26584341D01*
X53339999Y-26584341D01*
X53104596Y-26604936D01*
X53104586Y-26604938D01*
X52876344Y-26666094D01*
X52876335Y-26666098D01*
X52662171Y-26765964D01*
X52662169Y-26765965D01*
X52468597Y-26901505D01*
X52301505Y-27068597D01*
X52171269Y-27254595D01*
X52116692Y-27298220D01*
X52047194Y-27305414D01*
X51984839Y-27273891D01*
X51968119Y-27254595D01*
X51914925Y-27178626D01*
X51914925Y-27178625D01*
X51283076Y-27810475D01*
X51259493Y-27730156D01*
X51181761Y-27609202D01*
X51073100Y-27515048D01*
X50942315Y-27455320D01*
X50932533Y-27453913D01*
X51561373Y-26825073D01*
X51561373Y-26825072D01*
X51477583Y-26766402D01*
X51477579Y-26766400D01*
X51263492Y-26666570D01*
X51263483Y-26666566D01*
X51035326Y-26605432D01*
X51035315Y-26605430D01*
X50800002Y-26584843D01*
X50799998Y-26584843D01*
X50564684Y-26605430D01*
X50564673Y-26605432D01*
X50336516Y-26666566D01*
X50336507Y-26666570D01*
X50122419Y-26766401D01*
X50038625Y-26825072D01*
X50667466Y-27453913D01*
X50657685Y-27455320D01*
X50526900Y-27515048D01*
X50418239Y-27609202D01*
X50340507Y-27730156D01*
X50316923Y-27810476D01*
X49685073Y-27178626D01*
X49631881Y-27254594D01*
X49577304Y-27298219D01*
X49507806Y-27305413D01*
X49445451Y-27273891D01*
X49428730Y-27254594D01*
X49298494Y-27068597D01*
X49131402Y-26901506D01*
X49131395Y-26901501D01*
X48937834Y-26765967D01*
X48937830Y-26765965D01*
X48937828Y-26765964D01*
X48723663Y-26666097D01*
X48723659Y-26666096D01*
X48723655Y-26666094D01*
X48495413Y-26604938D01*
X48495403Y-26604936D01*
X48260001Y-26584341D01*
X48259999Y-26584341D01*
X48024596Y-26604936D01*
X48024586Y-26604938D01*
X47796344Y-26666094D01*
X47796335Y-26666098D01*
X47582171Y-26765964D01*
X47582169Y-26765965D01*
X47388600Y-26901503D01*
X47266673Y-27023430D01*
X47205350Y-27056914D01*
X47135658Y-27051930D01*
X47079725Y-27010058D01*
X47062810Y-26979081D01*
X47013797Y-26847671D01*
X47013793Y-26847664D01*
X46927547Y-26732455D01*
X46927544Y-26732452D01*
X46812335Y-26646206D01*
X46812328Y-26646202D01*
X46677482Y-26595908D01*
X46677483Y-26595908D01*
X46617883Y-26589501D01*
X46617881Y-26589500D01*
X46617873Y-26589500D01*
X46617864Y-26589500D01*
X44822129Y-26589500D01*
X44822123Y-26589501D01*
X44762516Y-26595908D01*
X44627671Y-26646202D01*
X44627664Y-26646206D01*
X44512455Y-26732452D01*
X44512452Y-26732455D01*
X44426206Y-26847664D01*
X44426202Y-26847671D01*
X44375908Y-26982517D01*
X44369501Y-27042116D01*
X44369500Y-27042135D01*
X44369500Y-28837870D01*
X44369501Y-28837876D01*
X44375908Y-28897483D01*
X44426202Y-29032328D01*
X44426206Y-29032335D01*
X44512452Y-29147544D01*
X44512455Y-29147547D01*
X44627664Y-29233793D01*
X44627671Y-29233797D01*
X44762517Y-29284091D01*
X44762516Y-29284091D01*
X44769444Y-29284835D01*
X44822127Y-29290500D01*
X46617872Y-29290499D01*
X46677483Y-29284091D01*
X46812331Y-29233796D01*
X46927546Y-29147546D01*
X47013796Y-29032331D01*
X47062810Y-28900916D01*
X47104681Y-28844984D01*
X47170145Y-28820566D01*
X47238418Y-28835417D01*
X47266673Y-28856569D01*
X47388599Y-28978495D01*
X47485384Y-29046265D01*
X47582165Y-29114032D01*
X47582167Y-29114033D01*
X47582170Y-29114035D01*
X47796337Y-29213903D01*
X47796343Y-29213904D01*
X47796344Y-29213905D01*
X47813669Y-29218547D01*
X48024592Y-29275063D01*
X48201034Y-29290500D01*
X48259999Y-29295659D01*
X48260000Y-29295659D01*
X48260001Y-29295659D01*
X48318966Y-29290500D01*
X48495408Y-29275063D01*
X48723663Y-29213903D01*
X48937830Y-29114035D01*
X49131401Y-28978495D01*
X49298495Y-28811401D01*
X49428732Y-28625403D01*
X49483307Y-28581780D01*
X49552805Y-28574586D01*
X49615160Y-28606109D01*
X49631880Y-28625405D01*
X49685073Y-28701373D01*
X50316923Y-28069523D01*
X50340507Y-28149844D01*
X50418239Y-28270798D01*
X50526900Y-28364952D01*
X50657685Y-28424680D01*
X50667466Y-28426086D01*
X50038625Y-29054925D01*
X50122421Y-29113599D01*
X50336507Y-29213429D01*
X50336516Y-29213433D01*
X50564673Y-29274567D01*
X50564684Y-29274569D01*
X50799998Y-29295157D01*
X50800002Y-29295157D01*
X51035315Y-29274569D01*
X51035326Y-29274567D01*
X51263483Y-29213433D01*
X51263492Y-29213429D01*
X51477578Y-29113600D01*
X51477582Y-29113598D01*
X51561373Y-29054926D01*
X51561373Y-29054925D01*
X50932533Y-28426086D01*
X50942315Y-28424680D01*
X51073100Y-28364952D01*
X51181761Y-28270798D01*
X51259493Y-28149844D01*
X51283076Y-28069524D01*
X51914925Y-28701373D01*
X51968119Y-28625405D01*
X52022696Y-28581781D01*
X52092195Y-28574588D01*
X52154549Y-28606110D01*
X52171269Y-28625405D01*
X52301505Y-28811401D01*
X52468599Y-28978495D01*
X52565384Y-29046264D01*
X52662165Y-29114032D01*
X52662167Y-29114033D01*
X52662170Y-29114035D01*
X52876337Y-29213903D01*
X52876343Y-29213904D01*
X52876344Y-29213905D01*
X52893669Y-29218547D01*
X53104592Y-29275063D01*
X53281034Y-29290500D01*
X53339999Y-29295659D01*
X53340000Y-29295659D01*
X53340001Y-29295659D01*
X53398966Y-29290500D01*
X53575408Y-29275063D01*
X53803663Y-29213903D01*
X54017830Y-29114035D01*
X54211401Y-28978495D01*
X54378495Y-28811401D01*
X54508424Y-28625842D01*
X54563002Y-28582217D01*
X54632500Y-28575023D01*
X54694855Y-28606546D01*
X54711575Y-28625842D01*
X54841500Y-28811395D01*
X54841505Y-28811401D01*
X55008599Y-28978495D01*
X55105384Y-29046264D01*
X55202165Y-29114032D01*
X55202167Y-29114033D01*
X55202170Y-29114035D01*
X55416337Y-29213903D01*
X55416343Y-29213904D01*
X55416344Y-29213905D01*
X55433669Y-29218547D01*
X55644592Y-29275063D01*
X55821034Y-29290500D01*
X55879999Y-29295659D01*
X55880000Y-29295659D01*
X55880001Y-29295659D01*
X55938966Y-29290500D01*
X56115408Y-29275063D01*
X56343663Y-29213903D01*
X56557830Y-29114035D01*
X56751401Y-28978495D01*
X56918495Y-28811401D01*
X57048424Y-28625842D01*
X57103002Y-28582217D01*
X57172500Y-28575023D01*
X57234855Y-28606546D01*
X57251575Y-28625842D01*
X57381500Y-28811395D01*
X57381505Y-28811401D01*
X57548599Y-28978495D01*
X57645384Y-29046264D01*
X57742165Y-29114032D01*
X57742167Y-29114033D01*
X57742170Y-29114035D01*
X57956337Y-29213903D01*
X57956343Y-29213904D01*
X57956344Y-29213905D01*
X57973669Y-29218547D01*
X58184592Y-29275063D01*
X58361034Y-29290500D01*
X58419999Y-29295659D01*
X58420000Y-29295659D01*
X58420001Y-29295659D01*
X58478966Y-29290500D01*
X58655408Y-29275063D01*
X58883663Y-29213903D01*
X59097830Y-29114035D01*
X59291401Y-28978495D01*
X59458495Y-28811401D01*
X59588424Y-28625842D01*
X59643002Y-28582217D01*
X59712500Y-28575023D01*
X59774855Y-28606546D01*
X59791575Y-28625842D01*
X59921500Y-28811395D01*
X59921505Y-28811401D01*
X60088599Y-28978495D01*
X60185384Y-29046264D01*
X60282165Y-29114032D01*
X60282167Y-29114033D01*
X60282170Y-29114035D01*
X60496337Y-29213903D01*
X60496343Y-29213904D01*
X60496344Y-29213905D01*
X60513669Y-29218547D01*
X60724592Y-29275063D01*
X60901034Y-29290500D01*
X60959999Y-29295659D01*
X60960000Y-29295659D01*
X60960001Y-29295659D01*
X61018966Y-29290500D01*
X61195408Y-29275063D01*
X61423663Y-29213903D01*
X61637830Y-29114035D01*
X61831401Y-28978495D01*
X61998495Y-28811401D01*
X62128424Y-28625842D01*
X62183002Y-28582217D01*
X62252500Y-28575023D01*
X62314855Y-28606546D01*
X62331575Y-28625842D01*
X62461500Y-28811395D01*
X62461505Y-28811401D01*
X62628599Y-28978495D01*
X62725384Y-29046264D01*
X62822165Y-29114032D01*
X62822167Y-29114033D01*
X62822170Y-29114035D01*
X63036337Y-29213903D01*
X63036343Y-29213904D01*
X63036344Y-29213905D01*
X63053669Y-29218547D01*
X63264592Y-29275063D01*
X63441034Y-29290500D01*
X63499999Y-29295659D01*
X63500000Y-29295659D01*
X63500001Y-29295659D01*
X63558966Y-29290500D01*
X63735408Y-29275063D01*
X63963663Y-29213903D01*
X64177830Y-29114035D01*
X64371401Y-28978495D01*
X64538495Y-28811401D01*
X64668424Y-28625842D01*
X64723002Y-28582217D01*
X64792500Y-28575023D01*
X64854855Y-28606546D01*
X64871575Y-28625842D01*
X65001500Y-28811395D01*
X65001505Y-28811401D01*
X65168599Y-28978495D01*
X65265384Y-29046264D01*
X65362165Y-29114032D01*
X65362167Y-29114033D01*
X65362170Y-29114035D01*
X65576337Y-29213903D01*
X65576343Y-29213904D01*
X65576344Y-29213905D01*
X65593669Y-29218547D01*
X65804592Y-29275063D01*
X65981034Y-29290500D01*
X66039999Y-29295659D01*
X66040000Y-29295659D01*
X66040001Y-29295659D01*
X66098966Y-29290500D01*
X66275408Y-29275063D01*
X66503663Y-29213903D01*
X66717830Y-29114035D01*
X66911401Y-28978495D01*
X67078495Y-28811401D01*
X67208424Y-28625842D01*
X67263002Y-28582217D01*
X67332500Y-28575023D01*
X67394855Y-28606546D01*
X67411575Y-28625842D01*
X67541500Y-28811395D01*
X67541505Y-28811401D01*
X67708599Y-28978495D01*
X67805384Y-29046264D01*
X67902165Y-29114032D01*
X67902167Y-29114033D01*
X67902170Y-29114035D01*
X68116337Y-29213903D01*
X68116343Y-29213904D01*
X68116344Y-29213905D01*
X68133669Y-29218547D01*
X68344592Y-29275063D01*
X68521034Y-29290500D01*
X68579999Y-29295659D01*
X68580000Y-29295659D01*
X68580001Y-29295659D01*
X68638966Y-29290500D01*
X68815408Y-29275063D01*
X69043663Y-29213903D01*
X69257830Y-29114035D01*
X69451401Y-28978495D01*
X69618495Y-28811401D01*
X69748424Y-28625842D01*
X69803002Y-28582217D01*
X69872500Y-28575023D01*
X69934855Y-28606546D01*
X69951575Y-28625842D01*
X70081500Y-28811395D01*
X70081505Y-28811401D01*
X70248599Y-28978495D01*
X70345384Y-29046264D01*
X70442165Y-29114032D01*
X70442167Y-29114033D01*
X70442170Y-29114035D01*
X70656337Y-29213903D01*
X70656343Y-29213904D01*
X70656344Y-29213905D01*
X70673669Y-29218547D01*
X70884592Y-29275063D01*
X71061034Y-29290500D01*
X71119999Y-29295659D01*
X71120000Y-29295659D01*
X71120001Y-29295659D01*
X71178966Y-29290500D01*
X71355408Y-29275063D01*
X71583663Y-29213903D01*
X71797830Y-29114035D01*
X71991401Y-28978495D01*
X72158495Y-28811401D01*
X72288732Y-28625403D01*
X72343307Y-28581780D01*
X72412805Y-28574586D01*
X72475160Y-28606109D01*
X72491880Y-28625405D01*
X72545073Y-28701373D01*
X73176923Y-28069523D01*
X73200507Y-28149844D01*
X73278239Y-28270798D01*
X73386900Y-28364952D01*
X73517685Y-28424680D01*
X73527466Y-28426086D01*
X72898625Y-29054925D01*
X72982421Y-29113599D01*
X73196507Y-29213429D01*
X73196516Y-29213433D01*
X73424673Y-29274567D01*
X73424684Y-29274569D01*
X73659998Y-29295157D01*
X73660002Y-29295157D01*
X73895315Y-29274569D01*
X73895326Y-29274567D01*
X74123483Y-29213433D01*
X74123492Y-29213429D01*
X74337578Y-29113600D01*
X74337582Y-29113598D01*
X74421373Y-29054926D01*
X74421373Y-29054925D01*
X73792533Y-28426086D01*
X73802315Y-28424680D01*
X73933100Y-28364952D01*
X74041761Y-28270798D01*
X74119493Y-28149844D01*
X74143077Y-28069523D01*
X74774925Y-28701372D01*
X74828119Y-28625405D01*
X74882696Y-28581781D01*
X74952195Y-28574588D01*
X75014549Y-28606110D01*
X75031269Y-28625405D01*
X75161505Y-28811401D01*
X75328599Y-28978495D01*
X75436189Y-29053830D01*
X75522168Y-29114034D01*
X75522170Y-29114035D01*
X75707393Y-29200406D01*
X75709815Y-29201602D01*
X75718926Y-29206350D01*
X75720886Y-29207037D01*
X75720935Y-29207055D01*
X75726614Y-29209369D01*
X75732142Y-29211946D01*
X75736337Y-29213903D01*
X75751413Y-29217942D01*
X75755884Y-29219325D01*
X76043773Y-29320392D01*
X77021898Y-29663775D01*
X77068504Y-29693094D01*
X90304197Y-42928788D01*
X90314022Y-42941051D01*
X90314243Y-42940869D01*
X90319211Y-42946874D01*
X90368932Y-42993566D01*
X90370332Y-42994923D01*
X90390523Y-43015115D01*
X90390527Y-43015118D01*
X90390529Y-43015120D01*
X90396011Y-43019373D01*
X90400443Y-43023157D01*
X90434418Y-43055062D01*
X90451976Y-43064714D01*
X90468235Y-43075395D01*
X90484064Y-43087673D01*
X90526838Y-43106182D01*
X90532056Y-43108738D01*
X90572908Y-43131197D01*
X90592316Y-43136180D01*
X90610717Y-43142480D01*
X90629104Y-43150437D01*
X90671388Y-43157134D01*
X90675119Y-43157725D01*
X90680839Y-43158909D01*
X90725981Y-43170500D01*
X90746016Y-43170500D01*
X90765414Y-43172026D01*
X90785194Y-43175159D01*
X90785195Y-43175160D01*
X90785195Y-43175159D01*
X90785196Y-43175160D01*
X90831583Y-43170775D01*
X90837422Y-43170500D01*
X107656766Y-43170500D01*
X107700610Y-43178510D01*
X107927268Y-43264192D01*
X108242606Y-43383397D01*
X108271307Y-43392789D01*
X108282986Y-43396611D01*
X108288915Y-43398894D01*
X108297073Y-43402527D01*
X108305194Y-43406143D01*
X108305197Y-43406144D01*
X108490354Y-43445500D01*
X108490355Y-43445500D01*
X108679644Y-43445500D01*
X108679646Y-43445500D01*
X108864803Y-43406144D01*
X109037730Y-43329151D01*
X109037730Y-43329150D01*
X109043666Y-43326508D01*
X109044722Y-43328880D01*
X109101343Y-43315117D01*
X109167380Y-43337938D01*
X109210596Y-43392839D01*
X109219500Y-43438979D01*
X109219500Y-65915500D01*
X109199815Y-65982539D01*
X109147011Y-66028294D01*
X109095500Y-66039500D01*
X25524500Y-66039500D01*
X25457461Y-66019815D01*
X25411706Y-65967011D01*
X25400500Y-65915500D01*
X25400500Y-63250000D01*
X26589999Y-63250000D01*
X27506314Y-63250000D01*
X27480507Y-63290156D01*
X27440000Y-63428111D01*
X27440000Y-63571889D01*
X27480507Y-63709844D01*
X27506314Y-63750000D01*
X26590000Y-63750000D01*
X26590000Y-64397844D01*
X26596401Y-64457372D01*
X26596403Y-64457379D01*
X26646645Y-64592086D01*
X26646649Y-64592093D01*
X26732809Y-64707187D01*
X26732812Y-64707190D01*
X26847906Y-64793350D01*
X26847913Y-64793354D01*
X26982620Y-64843596D01*
X26982627Y-64843598D01*
X27042155Y-64849999D01*
X27042172Y-64850000D01*
X27690000Y-64850000D01*
X27690000Y-63935501D01*
X27797685Y-63984680D01*
X27904237Y-64000000D01*
X27975763Y-64000000D01*
X28082315Y-63984680D01*
X28190000Y-63935501D01*
X28190000Y-64850000D01*
X28837828Y-64850000D01*
X28837844Y-64849999D01*
X28897372Y-64843598D01*
X28897379Y-64843596D01*
X29032086Y-64793354D01*
X29032093Y-64793350D01*
X29147187Y-64707190D01*
X29147190Y-64707187D01*
X29233350Y-64592093D01*
X29233354Y-64592086D01*
X29282422Y-64460529D01*
X29324293Y-64404595D01*
X29389757Y-64380178D01*
X29458030Y-64395030D01*
X29486285Y-64416180D01*
X29608599Y-64538495D01*
X29685135Y-64592086D01*
X29802165Y-64674032D01*
X29802167Y-64674033D01*
X29802170Y-64674035D01*
X30016337Y-64773903D01*
X30244592Y-64835063D01*
X30415319Y-64850000D01*
X30479999Y-64855659D01*
X30480000Y-64855659D01*
X30480001Y-64855659D01*
X30544681Y-64850000D01*
X30715408Y-64835063D01*
X30943663Y-64773903D01*
X31157830Y-64674035D01*
X31351401Y-64538495D01*
X31518495Y-64371401D01*
X31648424Y-64185842D01*
X31703002Y-64142217D01*
X31772500Y-64135023D01*
X31834855Y-64166546D01*
X31851575Y-64185842D01*
X31981500Y-64371395D01*
X31981505Y-64371401D01*
X32148599Y-64538495D01*
X32225135Y-64592086D01*
X32342165Y-64674032D01*
X32342167Y-64674033D01*
X32342170Y-64674035D01*
X32556337Y-64773903D01*
X32784592Y-64835063D01*
X32955319Y-64850000D01*
X33019999Y-64855659D01*
X33020000Y-64855659D01*
X33020001Y-64855659D01*
X33084681Y-64850000D01*
X33255408Y-64835063D01*
X33483663Y-64773903D01*
X33697830Y-64674035D01*
X33891401Y-64538495D01*
X34058495Y-64371401D01*
X34188424Y-64185842D01*
X34243002Y-64142217D01*
X34312500Y-64135023D01*
X34374855Y-64166546D01*
X34391575Y-64185842D01*
X34521500Y-64371395D01*
X34521505Y-64371401D01*
X34688599Y-64538495D01*
X34765135Y-64592086D01*
X34882165Y-64674032D01*
X34882167Y-64674033D01*
X34882170Y-64674035D01*
X35096337Y-64773903D01*
X35324592Y-64835063D01*
X35495319Y-64850000D01*
X35559999Y-64855659D01*
X35560000Y-64855659D01*
X35560001Y-64855659D01*
X35624681Y-64850000D01*
X35795408Y-64835063D01*
X36023663Y-64773903D01*
X36237830Y-64674035D01*
X36431401Y-64538495D01*
X36598495Y-64371401D01*
X36728424Y-64185842D01*
X36783002Y-64142217D01*
X36852500Y-64135023D01*
X36914855Y-64166546D01*
X36931575Y-64185842D01*
X37061500Y-64371395D01*
X37061505Y-64371401D01*
X37228599Y-64538495D01*
X37305135Y-64592086D01*
X37422165Y-64674032D01*
X37422167Y-64674033D01*
X37422170Y-64674035D01*
X37636337Y-64773903D01*
X37864592Y-64835063D01*
X38035319Y-64850000D01*
X38099999Y-64855659D01*
X38100000Y-64855659D01*
X38100001Y-64855659D01*
X38164681Y-64850000D01*
X38335408Y-64835063D01*
X38563663Y-64773903D01*
X38777830Y-64674035D01*
X38971401Y-64538495D01*
X39138495Y-64371401D01*
X39268424Y-64185842D01*
X39323002Y-64142217D01*
X39392500Y-64135023D01*
X39454855Y-64166546D01*
X39471575Y-64185842D01*
X39601500Y-64371395D01*
X39601505Y-64371401D01*
X39768599Y-64538495D01*
X39845135Y-64592086D01*
X39962165Y-64674032D01*
X39962167Y-64674033D01*
X39962170Y-64674035D01*
X40176337Y-64773903D01*
X40404592Y-64835063D01*
X40575319Y-64850000D01*
X40639999Y-64855659D01*
X40640000Y-64855659D01*
X40640001Y-64855659D01*
X40704681Y-64850000D01*
X40875408Y-64835063D01*
X41103663Y-64773903D01*
X41317830Y-64674035D01*
X41511401Y-64538495D01*
X41678495Y-64371401D01*
X41808424Y-64185842D01*
X41863002Y-64142217D01*
X41932500Y-64135023D01*
X41994855Y-64166546D01*
X42011575Y-64185842D01*
X42141500Y-64371395D01*
X42141505Y-64371401D01*
X42308599Y-64538495D01*
X42385135Y-64592086D01*
X42502165Y-64674032D01*
X42502167Y-64674033D01*
X42502170Y-64674035D01*
X42716337Y-64773903D01*
X42944592Y-64835063D01*
X43115319Y-64850000D01*
X43179999Y-64855659D01*
X43180000Y-64855659D01*
X43180001Y-64855659D01*
X43244681Y-64850000D01*
X43415408Y-64835063D01*
X43643663Y-64773903D01*
X43857830Y-64674035D01*
X44051401Y-64538495D01*
X44218495Y-64371401D01*
X44348424Y-64185842D01*
X44403002Y-64142217D01*
X44472500Y-64135023D01*
X44534855Y-64166546D01*
X44551575Y-64185842D01*
X44681500Y-64371395D01*
X44681505Y-64371401D01*
X44848599Y-64538495D01*
X44925135Y-64592086D01*
X45042165Y-64674032D01*
X45042167Y-64674033D01*
X45042170Y-64674035D01*
X45256337Y-64773903D01*
X45484592Y-64835063D01*
X45655319Y-64850000D01*
X45719999Y-64855659D01*
X45720000Y-64855659D01*
X45720001Y-64855659D01*
X45784681Y-64850000D01*
X45955408Y-64835063D01*
X46183663Y-64773903D01*
X46397830Y-64674035D01*
X46591401Y-64538495D01*
X46758495Y-64371401D01*
X46888424Y-64185842D01*
X46943002Y-64142217D01*
X47012500Y-64135023D01*
X47074855Y-64166546D01*
X47091575Y-64185842D01*
X47221500Y-64371395D01*
X47221505Y-64371401D01*
X47388599Y-64538495D01*
X47465135Y-64592086D01*
X47582165Y-64674032D01*
X47582167Y-64674033D01*
X47582170Y-64674035D01*
X47796337Y-64773903D01*
X48024592Y-64835063D01*
X48195319Y-64850000D01*
X48259999Y-64855659D01*
X48260000Y-64855659D01*
X48260001Y-64855659D01*
X48324681Y-64850000D01*
X48495408Y-64835063D01*
X48723663Y-64773903D01*
X48937830Y-64674035D01*
X49131401Y-64538495D01*
X49298495Y-64371401D01*
X49428424Y-64185842D01*
X49483002Y-64142217D01*
X49552500Y-64135023D01*
X49614855Y-64166546D01*
X49631575Y-64185842D01*
X49761500Y-64371395D01*
X49761505Y-64371401D01*
X49928599Y-64538495D01*
X50005135Y-64592086D01*
X50122165Y-64674032D01*
X50122167Y-64674033D01*
X50122170Y-64674035D01*
X50336337Y-64773903D01*
X50564592Y-64835063D01*
X50735319Y-64850000D01*
X50799999Y-64855659D01*
X50800000Y-64855659D01*
X50800001Y-64855659D01*
X50864681Y-64850000D01*
X51035408Y-64835063D01*
X51263663Y-64773903D01*
X51477830Y-64674035D01*
X51671401Y-64538495D01*
X51838495Y-64371401D01*
X51968424Y-64185842D01*
X52023002Y-64142217D01*
X52092500Y-64135023D01*
X52154855Y-64166546D01*
X52171575Y-64185842D01*
X52301500Y-64371395D01*
X52301505Y-64371401D01*
X52468599Y-64538495D01*
X52545135Y-64592086D01*
X52662165Y-64674032D01*
X52662167Y-64674033D01*
X52662170Y-64674035D01*
X52876337Y-64773903D01*
X53104592Y-64835063D01*
X53275319Y-64850000D01*
X53339999Y-64855659D01*
X53340000Y-64855659D01*
X53340001Y-64855659D01*
X53404681Y-64850000D01*
X53575408Y-64835063D01*
X53803663Y-64773903D01*
X54017830Y-64674035D01*
X54211401Y-64538495D01*
X54378495Y-64371401D01*
X54508424Y-64185842D01*
X54563002Y-64142217D01*
X54632500Y-64135023D01*
X54694855Y-64166546D01*
X54711575Y-64185842D01*
X54841500Y-64371395D01*
X54841505Y-64371401D01*
X55008599Y-64538495D01*
X55085135Y-64592086D01*
X55202165Y-64674032D01*
X55202167Y-64674033D01*
X55202170Y-64674035D01*
X55416337Y-64773903D01*
X55644592Y-64835063D01*
X55815319Y-64850000D01*
X55879999Y-64855659D01*
X55880000Y-64855659D01*
X55880001Y-64855659D01*
X55944681Y-64850000D01*
X56115408Y-64835063D01*
X56343663Y-64773903D01*
X56557830Y-64674035D01*
X56751401Y-64538495D01*
X56918495Y-64371401D01*
X57048424Y-64185842D01*
X57103002Y-64142217D01*
X57172500Y-64135023D01*
X57234855Y-64166546D01*
X57251575Y-64185842D01*
X57381500Y-64371395D01*
X57381505Y-64371401D01*
X57548599Y-64538495D01*
X57625135Y-64592086D01*
X57742165Y-64674032D01*
X57742167Y-64674033D01*
X57742170Y-64674035D01*
X57956337Y-64773903D01*
X58184592Y-64835063D01*
X58355319Y-64850000D01*
X58419999Y-64855659D01*
X58420000Y-64855659D01*
X58420001Y-64855659D01*
X58484681Y-64850000D01*
X58655408Y-64835063D01*
X58883663Y-64773903D01*
X59097830Y-64674035D01*
X59291401Y-64538495D01*
X59458495Y-64371401D01*
X59588424Y-64185842D01*
X59643002Y-64142217D01*
X59712500Y-64135023D01*
X59774855Y-64166546D01*
X59791575Y-64185842D01*
X59921500Y-64371395D01*
X59921505Y-64371401D01*
X60088599Y-64538495D01*
X60165135Y-64592086D01*
X60282165Y-64674032D01*
X60282167Y-64674033D01*
X60282170Y-64674035D01*
X60496337Y-64773903D01*
X60724592Y-64835063D01*
X60895319Y-64850000D01*
X60959999Y-64855659D01*
X60960000Y-64855659D01*
X60960001Y-64855659D01*
X61024681Y-64850000D01*
X61195408Y-64835063D01*
X61423663Y-64773903D01*
X61637830Y-64674035D01*
X61831401Y-64538495D01*
X61998495Y-64371401D01*
X62128424Y-64185842D01*
X62183002Y-64142217D01*
X62252500Y-64135023D01*
X62314855Y-64166546D01*
X62331575Y-64185842D01*
X62461500Y-64371395D01*
X62461505Y-64371401D01*
X62628599Y-64538495D01*
X62705135Y-64592086D01*
X62822165Y-64674032D01*
X62822167Y-64674033D01*
X62822170Y-64674035D01*
X63036337Y-64773903D01*
X63264592Y-64835063D01*
X63435319Y-64850000D01*
X63499999Y-64855659D01*
X63500000Y-64855659D01*
X63500001Y-64855659D01*
X63564681Y-64850000D01*
X63735408Y-64835063D01*
X63963663Y-64773903D01*
X64177830Y-64674035D01*
X64371401Y-64538495D01*
X64538495Y-64371401D01*
X64668424Y-64185842D01*
X64723002Y-64142217D01*
X64792500Y-64135023D01*
X64854855Y-64166546D01*
X64871575Y-64185842D01*
X65001500Y-64371395D01*
X65001505Y-64371401D01*
X65168599Y-64538495D01*
X65245135Y-64592086D01*
X65362165Y-64674032D01*
X65362167Y-64674033D01*
X65362170Y-64674035D01*
X65576337Y-64773903D01*
X65804592Y-64835063D01*
X65975319Y-64850000D01*
X66039999Y-64855659D01*
X66040000Y-64855659D01*
X66040001Y-64855659D01*
X66104681Y-64850000D01*
X66275408Y-64835063D01*
X66503663Y-64773903D01*
X66717830Y-64674035D01*
X66911401Y-64538495D01*
X67078495Y-64371401D01*
X67208424Y-64185842D01*
X67263002Y-64142217D01*
X67332500Y-64135023D01*
X67394855Y-64166546D01*
X67411575Y-64185842D01*
X67541500Y-64371395D01*
X67541505Y-64371401D01*
X67708599Y-64538495D01*
X67785135Y-64592086D01*
X67902165Y-64674032D01*
X67902167Y-64674033D01*
X67902170Y-64674035D01*
X68116337Y-64773903D01*
X68344592Y-64835063D01*
X68515319Y-64850000D01*
X68579999Y-64855659D01*
X68580000Y-64855659D01*
X68580001Y-64855659D01*
X68644681Y-64850000D01*
X68815408Y-64835063D01*
X69043663Y-64773903D01*
X69257830Y-64674035D01*
X69451401Y-64538495D01*
X69618495Y-64371401D01*
X69748424Y-64185842D01*
X69803002Y-64142217D01*
X69872500Y-64135023D01*
X69934855Y-64166546D01*
X69951575Y-64185842D01*
X70081500Y-64371395D01*
X70081505Y-64371401D01*
X70248599Y-64538495D01*
X70325135Y-64592086D01*
X70442165Y-64674032D01*
X70442167Y-64674033D01*
X70442170Y-64674035D01*
X70656337Y-64773903D01*
X70884592Y-64835063D01*
X71055319Y-64850000D01*
X71119999Y-64855659D01*
X71120000Y-64855659D01*
X71120001Y-64855659D01*
X71184681Y-64850000D01*
X71355408Y-64835063D01*
X71583663Y-64773903D01*
X71797830Y-64674035D01*
X71991401Y-64538495D01*
X72158495Y-64371401D01*
X72288424Y-64185842D01*
X72343002Y-64142217D01*
X72412500Y-64135023D01*
X72474855Y-64166546D01*
X72491575Y-64185842D01*
X72621500Y-64371395D01*
X72621505Y-64371401D01*
X72788599Y-64538495D01*
X72865135Y-64592086D01*
X72982165Y-64674032D01*
X72982167Y-64674033D01*
X72982170Y-64674035D01*
X73196337Y-64773903D01*
X73424592Y-64835063D01*
X73595319Y-64850000D01*
X73659999Y-64855659D01*
X73660000Y-64855659D01*
X73660001Y-64855659D01*
X73724681Y-64850000D01*
X73895408Y-64835063D01*
X74123663Y-64773903D01*
X74337830Y-64674035D01*
X74531401Y-64538495D01*
X74698495Y-64371401D01*
X74828424Y-64185842D01*
X74883002Y-64142217D01*
X74952500Y-64135023D01*
X75014855Y-64166546D01*
X75031575Y-64185842D01*
X75161500Y-64371395D01*
X75161505Y-64371401D01*
X75328599Y-64538495D01*
X75405135Y-64592086D01*
X75522165Y-64674032D01*
X75522167Y-64674033D01*
X75522170Y-64674035D01*
X75736337Y-64773903D01*
X75964592Y-64835063D01*
X76135319Y-64850000D01*
X76199999Y-64855659D01*
X76200000Y-64855659D01*
X76200001Y-64855659D01*
X76264681Y-64850000D01*
X76435408Y-64835063D01*
X76663663Y-64773903D01*
X76877830Y-64674035D01*
X77071401Y-64538495D01*
X77238495Y-64371401D01*
X77368424Y-64185842D01*
X77423002Y-64142217D01*
X77492500Y-64135023D01*
X77554855Y-64166546D01*
X77571575Y-64185842D01*
X77701500Y-64371395D01*
X77701505Y-64371401D01*
X77868599Y-64538495D01*
X77945135Y-64592086D01*
X78062165Y-64674032D01*
X78062167Y-64674033D01*
X78062170Y-64674035D01*
X78276337Y-64773903D01*
X78504592Y-64835063D01*
X78675319Y-64850000D01*
X78739999Y-64855659D01*
X78740000Y-64855659D01*
X78740001Y-64855659D01*
X78804681Y-64850000D01*
X78975408Y-64835063D01*
X79203663Y-64773903D01*
X79417830Y-64674035D01*
X79611401Y-64538495D01*
X79778495Y-64371401D01*
X79908424Y-64185842D01*
X79963002Y-64142217D01*
X80032500Y-64135023D01*
X80094855Y-64166546D01*
X80111575Y-64185842D01*
X80241500Y-64371395D01*
X80241505Y-64371401D01*
X80408599Y-64538495D01*
X80485135Y-64592086D01*
X80602165Y-64674032D01*
X80602167Y-64674033D01*
X80602170Y-64674035D01*
X80816337Y-64773903D01*
X81044592Y-64835063D01*
X81215319Y-64850000D01*
X81279999Y-64855659D01*
X81280000Y-64855659D01*
X81280001Y-64855659D01*
X81344681Y-64850000D01*
X81515408Y-64835063D01*
X81743663Y-64773903D01*
X81957830Y-64674035D01*
X82151401Y-64538495D01*
X82318495Y-64371401D01*
X82448424Y-64185842D01*
X82503002Y-64142217D01*
X82572500Y-64135023D01*
X82634855Y-64166546D01*
X82651575Y-64185842D01*
X82781500Y-64371395D01*
X82781505Y-64371401D01*
X82948599Y-64538495D01*
X83025135Y-64592086D01*
X83142165Y-64674032D01*
X83142167Y-64674033D01*
X83142170Y-64674035D01*
X83356337Y-64773903D01*
X83584592Y-64835063D01*
X83755319Y-64850000D01*
X83819999Y-64855659D01*
X83820000Y-64855659D01*
X83820001Y-64855659D01*
X83884681Y-64850000D01*
X84055408Y-64835063D01*
X84283663Y-64773903D01*
X84497830Y-64674035D01*
X84691401Y-64538495D01*
X84858495Y-64371401D01*
X84988424Y-64185842D01*
X85043002Y-64142217D01*
X85112500Y-64135023D01*
X85174855Y-64166546D01*
X85191575Y-64185842D01*
X85321500Y-64371395D01*
X85321505Y-64371401D01*
X85488599Y-64538495D01*
X85565135Y-64592086D01*
X85682165Y-64674032D01*
X85682167Y-64674033D01*
X85682170Y-64674035D01*
X85896337Y-64773903D01*
X86124592Y-64835063D01*
X86295319Y-64850000D01*
X86359999Y-64855659D01*
X86360000Y-64855659D01*
X86360001Y-64855659D01*
X86424681Y-64850000D01*
X86595408Y-64835063D01*
X86823663Y-64773903D01*
X87037830Y-64674035D01*
X87231401Y-64538495D01*
X87398495Y-64371401D01*
X87528424Y-64185842D01*
X87583002Y-64142217D01*
X87652500Y-64135023D01*
X87714855Y-64166546D01*
X87731575Y-64185842D01*
X87861500Y-64371395D01*
X87861505Y-64371401D01*
X88028599Y-64538495D01*
X88105135Y-64592086D01*
X88222165Y-64674032D01*
X88222167Y-64674033D01*
X88222170Y-64674035D01*
X88436337Y-64773903D01*
X88664592Y-64835063D01*
X88835319Y-64850000D01*
X88899999Y-64855659D01*
X88900000Y-64855659D01*
X88900001Y-64855659D01*
X88964681Y-64850000D01*
X89135408Y-64835063D01*
X89363663Y-64773903D01*
X89577830Y-64674035D01*
X89771401Y-64538495D01*
X89938495Y-64371401D01*
X90068424Y-64185842D01*
X90123002Y-64142217D01*
X90192500Y-64135023D01*
X90254855Y-64166546D01*
X90271575Y-64185842D01*
X90401500Y-64371395D01*
X90401505Y-64371401D01*
X90568599Y-64538495D01*
X90645135Y-64592086D01*
X90762165Y-64674032D01*
X90762167Y-64674033D01*
X90762170Y-64674035D01*
X90976337Y-64773903D01*
X91204592Y-64835063D01*
X91375319Y-64850000D01*
X91439999Y-64855659D01*
X91440000Y-64855659D01*
X91440001Y-64855659D01*
X91504681Y-64850000D01*
X91675408Y-64835063D01*
X91903663Y-64773903D01*
X92117830Y-64674035D01*
X92311401Y-64538495D01*
X92478495Y-64371401D01*
X92608424Y-64185842D01*
X92663002Y-64142217D01*
X92732500Y-64135023D01*
X92794855Y-64166546D01*
X92811575Y-64185842D01*
X92941500Y-64371395D01*
X92941505Y-64371401D01*
X93108599Y-64538495D01*
X93185135Y-64592086D01*
X93302165Y-64674032D01*
X93302167Y-64674033D01*
X93302170Y-64674035D01*
X93516337Y-64773903D01*
X93744592Y-64835063D01*
X93915319Y-64850000D01*
X93979999Y-64855659D01*
X93980000Y-64855659D01*
X93980001Y-64855659D01*
X94044681Y-64850000D01*
X94215408Y-64835063D01*
X94443663Y-64773903D01*
X94657830Y-64674035D01*
X94851401Y-64538495D01*
X95018495Y-64371401D01*
X95148424Y-64185842D01*
X95203002Y-64142217D01*
X95272500Y-64135023D01*
X95334855Y-64166546D01*
X95351575Y-64185842D01*
X95481500Y-64371395D01*
X95481505Y-64371401D01*
X95648599Y-64538495D01*
X95725135Y-64592086D01*
X95842165Y-64674032D01*
X95842167Y-64674033D01*
X95842170Y-64674035D01*
X96056337Y-64773903D01*
X96284592Y-64835063D01*
X96455319Y-64850000D01*
X96519999Y-64855659D01*
X96520000Y-64855659D01*
X96520001Y-64855659D01*
X96584681Y-64850000D01*
X96755408Y-64835063D01*
X96983663Y-64773903D01*
X97197830Y-64674035D01*
X97391401Y-64538495D01*
X97558495Y-64371401D01*
X97688424Y-64185842D01*
X97743002Y-64142217D01*
X97812500Y-64135023D01*
X97874855Y-64166546D01*
X97891575Y-64185842D01*
X98021500Y-64371395D01*
X98021505Y-64371401D01*
X98188599Y-64538495D01*
X98265135Y-64592086D01*
X98382165Y-64674032D01*
X98382167Y-64674033D01*
X98382170Y-64674035D01*
X98596337Y-64773903D01*
X98824592Y-64835063D01*
X98995319Y-64850000D01*
X99059999Y-64855659D01*
X99060000Y-64855659D01*
X99060001Y-64855659D01*
X99124681Y-64850000D01*
X99295408Y-64835063D01*
X99523663Y-64773903D01*
X99737830Y-64674035D01*
X99931401Y-64538495D01*
X100098495Y-64371401D01*
X100228424Y-64185842D01*
X100283002Y-64142217D01*
X100352500Y-64135023D01*
X100414855Y-64166546D01*
X100431575Y-64185842D01*
X100561500Y-64371395D01*
X100561505Y-64371401D01*
X100728599Y-64538495D01*
X100805135Y-64592086D01*
X100922165Y-64674032D01*
X100922167Y-64674033D01*
X100922170Y-64674035D01*
X101136337Y-64773903D01*
X101364592Y-64835063D01*
X101535319Y-64850000D01*
X101599999Y-64855659D01*
X101600000Y-64855659D01*
X101600001Y-64855659D01*
X101664681Y-64850000D01*
X101835408Y-64835063D01*
X102063663Y-64773903D01*
X102277830Y-64674035D01*
X102471401Y-64538495D01*
X102638495Y-64371401D01*
X102768424Y-64185842D01*
X102823002Y-64142217D01*
X102892500Y-64135023D01*
X102954855Y-64166546D01*
X102971575Y-64185842D01*
X103101500Y-64371395D01*
X103101505Y-64371401D01*
X103268599Y-64538495D01*
X103345135Y-64592086D01*
X103462165Y-64674032D01*
X103462167Y-64674033D01*
X103462170Y-64674035D01*
X103676337Y-64773903D01*
X103904592Y-64835063D01*
X104075319Y-64850000D01*
X104139999Y-64855659D01*
X104140000Y-64855659D01*
X104140001Y-64855659D01*
X104204681Y-64850000D01*
X104375408Y-64835063D01*
X104603663Y-64773903D01*
X104817830Y-64674035D01*
X105011401Y-64538495D01*
X105178495Y-64371401D01*
X105308424Y-64185842D01*
X105363002Y-64142217D01*
X105432500Y-64135023D01*
X105494855Y-64166546D01*
X105511575Y-64185842D01*
X105641500Y-64371395D01*
X105641505Y-64371401D01*
X105808599Y-64538495D01*
X105885135Y-64592086D01*
X106002165Y-64674032D01*
X106002167Y-64674033D01*
X106002170Y-64674035D01*
X106216337Y-64773903D01*
X106444592Y-64835063D01*
X106615319Y-64850000D01*
X106679999Y-64855659D01*
X106680000Y-64855659D01*
X106680001Y-64855659D01*
X106744681Y-64850000D01*
X106915408Y-64835063D01*
X107143663Y-64773903D01*
X107357830Y-64674035D01*
X107551401Y-64538495D01*
X107718495Y-64371401D01*
X107854035Y-64177830D01*
X107953903Y-63963663D01*
X108015063Y-63735408D01*
X108035659Y-63500000D01*
X108015063Y-63264592D01*
X107953903Y-63036337D01*
X107854035Y-62822171D01*
X107848425Y-62814158D01*
X107718494Y-62628597D01*
X107551402Y-62461506D01*
X107551395Y-62461501D01*
X107357831Y-62325965D01*
X107357829Y-62325964D01*
X107172644Y-62239610D01*
X107170195Y-62238402D01*
X107161083Y-62233653D01*
X107161075Y-62233650D01*
X107161073Y-62233649D01*
X107159045Y-62232937D01*
X107153389Y-62230632D01*
X107147266Y-62227777D01*
X107143664Y-62226097D01*
X107128614Y-62222064D01*
X107124126Y-62220677D01*
X105858101Y-61776222D01*
X105811494Y-61746903D01*
X97655803Y-53591212D01*
X97645980Y-53578950D01*
X97645759Y-53579134D01*
X97640786Y-53573122D01*
X97591066Y-53526432D01*
X97589666Y-53525075D01*
X97569476Y-53504884D01*
X97563986Y-53500625D01*
X97559561Y-53496847D01*
X97525582Y-53464938D01*
X97525580Y-53464936D01*
X97525577Y-53464935D01*
X97508029Y-53455288D01*
X97491763Y-53444604D01*
X97475933Y-53432325D01*
X97433168Y-53413818D01*
X97427922Y-53411248D01*
X97387093Y-53388803D01*
X97387092Y-53388802D01*
X97367693Y-53383822D01*
X97349281Y-53377518D01*
X97330898Y-53369562D01*
X97330892Y-53369560D01*
X97284874Y-53362272D01*
X97279152Y-53361087D01*
X97234021Y-53349500D01*
X97234019Y-53349500D01*
X97213984Y-53349500D01*
X97194586Y-53347973D01*
X97187162Y-53346797D01*
X97174805Y-53344840D01*
X97174804Y-53344840D01*
X97128416Y-53349225D01*
X97122578Y-53349500D01*
X87305452Y-53349500D01*
X87238413Y-53329815D01*
X87217771Y-53313181D01*
X81191429Y-47286838D01*
X81157944Y-47225515D01*
X81162928Y-47155823D01*
X81204800Y-47099890D01*
X81270264Y-47075473D01*
X81279110Y-47075157D01*
X81280002Y-47075157D01*
X81515315Y-47054569D01*
X81515326Y-47054567D01*
X81743483Y-46993433D01*
X81743492Y-46993429D01*
X81957578Y-46893600D01*
X81957582Y-46893598D01*
X82041373Y-46834926D01*
X82041373Y-46834925D01*
X81412534Y-46206086D01*
X81422315Y-46204680D01*
X81553100Y-46144952D01*
X81661761Y-46050798D01*
X81739493Y-45929844D01*
X81763077Y-45849523D01*
X82394925Y-46481372D01*
X82448119Y-46405405D01*
X82502696Y-46361781D01*
X82572195Y-46354588D01*
X82634549Y-46386110D01*
X82651269Y-46405405D01*
X82781505Y-46591401D01*
X82948599Y-46758495D01*
X83045384Y-46826264D01*
X83142165Y-46894032D01*
X83142167Y-46894033D01*
X83142170Y-46894035D01*
X83356337Y-46993903D01*
X83584592Y-47055063D01*
X83761034Y-47070500D01*
X83819999Y-47075659D01*
X83820000Y-47075659D01*
X83820001Y-47075659D01*
X83878966Y-47070500D01*
X84055408Y-47055063D01*
X84283663Y-46993903D01*
X84497830Y-46894035D01*
X84691401Y-46758495D01*
X84858495Y-46591401D01*
X84988426Y-46405840D01*
X85043001Y-46362217D01*
X85112499Y-46355023D01*
X85174854Y-46386546D01*
X85191574Y-46405841D01*
X85321505Y-46591401D01*
X85488599Y-46758495D01*
X85585384Y-46826264D01*
X85682165Y-46894032D01*
X85682167Y-46894033D01*
X85682170Y-46894035D01*
X85896337Y-46993903D01*
X86124592Y-47055063D01*
X86301034Y-47070500D01*
X86359999Y-47075659D01*
X86360000Y-47075659D01*
X86360001Y-47075659D01*
X86418966Y-47070500D01*
X86595408Y-47055063D01*
X86823663Y-46993903D01*
X87037830Y-46894035D01*
X87231401Y-46758495D01*
X87398495Y-46591401D01*
X87528426Y-46405840D01*
X87583001Y-46362217D01*
X87652499Y-46355023D01*
X87714854Y-46386546D01*
X87731574Y-46405841D01*
X87861505Y-46591401D01*
X88028599Y-46758495D01*
X88125384Y-46826264D01*
X88222165Y-46894032D01*
X88222167Y-46894033D01*
X88222170Y-46894035D01*
X88436337Y-46993903D01*
X88664592Y-47055063D01*
X88841034Y-47070500D01*
X88899999Y-47075659D01*
X88900000Y-47075659D01*
X88900001Y-47075659D01*
X88958966Y-47070500D01*
X89135408Y-47055063D01*
X89363663Y-46993903D01*
X89577830Y-46894035D01*
X89771401Y-46758495D01*
X89938495Y-46591401D01*
X90068426Y-46405840D01*
X90123001Y-46362217D01*
X90192499Y-46355023D01*
X90254854Y-46386546D01*
X90271574Y-46405841D01*
X90401505Y-46591401D01*
X90568599Y-46758495D01*
X90665384Y-46826264D01*
X90762165Y-46894032D01*
X90762167Y-46894033D01*
X90762170Y-46894035D01*
X90976337Y-46993903D01*
X91204592Y-47055063D01*
X91381034Y-47070500D01*
X91439999Y-47075659D01*
X91440000Y-47075659D01*
X91440001Y-47075659D01*
X91498966Y-47070500D01*
X91675408Y-47055063D01*
X91903663Y-46993903D01*
X92117830Y-46894035D01*
X92311401Y-46758495D01*
X92478495Y-46591401D01*
X92608426Y-46405840D01*
X92663001Y-46362217D01*
X92732499Y-46355023D01*
X92794854Y-46386546D01*
X92811574Y-46405841D01*
X92941505Y-46591401D01*
X93108599Y-46758495D01*
X93205384Y-46826264D01*
X93302165Y-46894032D01*
X93302167Y-46894033D01*
X93302170Y-46894035D01*
X93516337Y-46993903D01*
X93744592Y-47055063D01*
X93921034Y-47070500D01*
X93979999Y-47075659D01*
X93980000Y-47075659D01*
X93980001Y-47075659D01*
X94038966Y-47070500D01*
X94215408Y-47055063D01*
X94443663Y-46993903D01*
X94657830Y-46894035D01*
X94851401Y-46758495D01*
X95018495Y-46591401D01*
X95154035Y-46397830D01*
X95253903Y-46183663D01*
X95315063Y-45955408D01*
X95335659Y-45720000D01*
X95315063Y-45484592D01*
X95253903Y-45256337D01*
X95154035Y-45042171D01*
X95148731Y-45034595D01*
X95018494Y-44848597D01*
X94851402Y-44681506D01*
X94851395Y-44681501D01*
X94657834Y-44545967D01*
X94657830Y-44545965D01*
X94657828Y-44545964D01*
X94443663Y-44446097D01*
X94443659Y-44446096D01*
X94443655Y-44446094D01*
X94215413Y-44384938D01*
X94215403Y-44384936D01*
X93980001Y-44364341D01*
X93979999Y-44364341D01*
X93744596Y-44384936D01*
X93744586Y-44384938D01*
X93516344Y-44446094D01*
X93516335Y-44446098D01*
X93302171Y-44545964D01*
X93302169Y-44545965D01*
X93108597Y-44681505D01*
X92941505Y-44848597D01*
X92811575Y-45034158D01*
X92756998Y-45077783D01*
X92687500Y-45084977D01*
X92625145Y-45053454D01*
X92608425Y-45034158D01*
X92478494Y-44848597D01*
X92311402Y-44681506D01*
X92311395Y-44681501D01*
X92117834Y-44545967D01*
X92117830Y-44545965D01*
X92117828Y-44545964D01*
X91903663Y-44446097D01*
X91903659Y-44446096D01*
X91903655Y-44446094D01*
X91675413Y-44384938D01*
X91675403Y-44384936D01*
X91440001Y-44364341D01*
X91439999Y-44364341D01*
X91204596Y-44384936D01*
X91204586Y-44384938D01*
X90976344Y-44446094D01*
X90976335Y-44446098D01*
X90762171Y-44545964D01*
X90762169Y-44545965D01*
X90568597Y-44681505D01*
X90401505Y-44848597D01*
X90271575Y-45034158D01*
X90216998Y-45077783D01*
X90147500Y-45084977D01*
X90085145Y-45053454D01*
X90068425Y-45034158D01*
X89938494Y-44848597D01*
X89771402Y-44681506D01*
X89771395Y-44681501D01*
X89577834Y-44545967D01*
X89577830Y-44545965D01*
X89577828Y-44545964D01*
X89363663Y-44446097D01*
X89363659Y-44446096D01*
X89363655Y-44446094D01*
X89135413Y-44384938D01*
X89135403Y-44384936D01*
X88900001Y-44364341D01*
X88899999Y-44364341D01*
X88664596Y-44384936D01*
X88664586Y-44384938D01*
X88436344Y-44446094D01*
X88436335Y-44446098D01*
X88222171Y-44545964D01*
X88222169Y-44545965D01*
X88028597Y-44681505D01*
X87861505Y-44848597D01*
X87731575Y-45034158D01*
X87676998Y-45077783D01*
X87607500Y-45084977D01*
X87545145Y-45053454D01*
X87528425Y-45034158D01*
X87398494Y-44848597D01*
X87231402Y-44681506D01*
X87231395Y-44681501D01*
X87037834Y-44545967D01*
X87037830Y-44545965D01*
X87037828Y-44545964D01*
X86823663Y-44446097D01*
X86823659Y-44446096D01*
X86823655Y-44446094D01*
X86595413Y-44384938D01*
X86595403Y-44384936D01*
X86360001Y-44364341D01*
X86359999Y-44364341D01*
X86124596Y-44384936D01*
X86124586Y-44384938D01*
X85896344Y-44446094D01*
X85896335Y-44446098D01*
X85682171Y-44545964D01*
X85682169Y-44545965D01*
X85488597Y-44681505D01*
X85321505Y-44848597D01*
X85191575Y-45034158D01*
X85136998Y-45077783D01*
X85067500Y-45084977D01*
X85005145Y-45053454D01*
X84988425Y-45034158D01*
X84858494Y-44848597D01*
X84691402Y-44681506D01*
X84691395Y-44681501D01*
X84497834Y-44545967D01*
X84497830Y-44545965D01*
X84497828Y-44545964D01*
X84283663Y-44446097D01*
X84283659Y-44446096D01*
X84283655Y-44446094D01*
X84055413Y-44384938D01*
X84055403Y-44384936D01*
X83820001Y-44364341D01*
X83819999Y-44364341D01*
X83584596Y-44384936D01*
X83584586Y-44384938D01*
X83356344Y-44446094D01*
X83356335Y-44446098D01*
X83142171Y-44545964D01*
X83142169Y-44545965D01*
X82948597Y-44681505D01*
X82781505Y-44848597D01*
X82651269Y-45034595D01*
X82596692Y-45078220D01*
X82527194Y-45085414D01*
X82464839Y-45053891D01*
X82448119Y-45034595D01*
X82394925Y-44958626D01*
X82394925Y-44958625D01*
X81763076Y-45590474D01*
X81739493Y-45510156D01*
X81661761Y-45389202D01*
X81553100Y-45295048D01*
X81422315Y-45235320D01*
X81412533Y-45233913D01*
X82041373Y-44605073D01*
X82041373Y-44605072D01*
X81957583Y-44546402D01*
X81957579Y-44546400D01*
X81743492Y-44446570D01*
X81743483Y-44446566D01*
X81515326Y-44385432D01*
X81515315Y-44385430D01*
X81280002Y-44364843D01*
X81279998Y-44364843D01*
X81044684Y-44385430D01*
X81044673Y-44385432D01*
X80816516Y-44446566D01*
X80816502Y-44446571D01*
X80716904Y-44493015D01*
X80647827Y-44503507D01*
X80584043Y-44474987D01*
X80545804Y-44416510D01*
X80540500Y-44380633D01*
X80540500Y-40627742D01*
X80542224Y-40612122D01*
X80541939Y-40612096D01*
X80542673Y-40604333D01*
X80540531Y-40536152D01*
X80540500Y-40534205D01*
X80540500Y-40505654D01*
X80540500Y-40505650D01*
X80539631Y-40498772D01*
X80539172Y-40492943D01*
X80537709Y-40446372D01*
X80532122Y-40427144D01*
X80528174Y-40408084D01*
X80525663Y-40388204D01*
X80508512Y-40344887D01*
X80506619Y-40339358D01*
X80493618Y-40294609D01*
X80493616Y-40294606D01*
X80483423Y-40277371D01*
X80474861Y-40259894D01*
X80467487Y-40241270D01*
X80467486Y-40241268D01*
X80440079Y-40203545D01*
X80436888Y-40198686D01*
X80413172Y-40158583D01*
X80413165Y-40158574D01*
X80399006Y-40144415D01*
X80386368Y-40129619D01*
X80374594Y-40113413D01*
X80338688Y-40083709D01*
X80334376Y-40079786D01*
X76065803Y-35811212D01*
X76055980Y-35798950D01*
X76055759Y-35799134D01*
X76050786Y-35793122D01*
X76001066Y-35746432D01*
X75999666Y-35745075D01*
X75979476Y-35724884D01*
X75973986Y-35720625D01*
X75969561Y-35716847D01*
X75935582Y-35684938D01*
X75935580Y-35684936D01*
X75935577Y-35684935D01*
X75918029Y-35675288D01*
X75901763Y-35664604D01*
X75885933Y-35652325D01*
X75843168Y-35633818D01*
X75837922Y-35631248D01*
X75797093Y-35608803D01*
X75797092Y-35608802D01*
X75777693Y-35603822D01*
X75759281Y-35597518D01*
X75740898Y-35589562D01*
X75740892Y-35589560D01*
X75694874Y-35582272D01*
X75689152Y-35581087D01*
X75644021Y-35569500D01*
X75644019Y-35569500D01*
X75623984Y-35569500D01*
X75604586Y-35567973D01*
X75597162Y-35566797D01*
X75584805Y-35564840D01*
X75584804Y-35564840D01*
X75538416Y-35569225D01*
X75532578Y-35569500D01*
X64428236Y-35569500D01*
X64384391Y-35561489D01*
X64185179Y-35486183D01*
X63859438Y-35363045D01*
X63859438Y-35363046D01*
X63842397Y-35356604D01*
X63822786Y-35350186D01*
X63802016Y-35343388D01*
X63796088Y-35341106D01*
X63790567Y-35338648D01*
X63779804Y-35333856D01*
X63687224Y-35314178D01*
X63594646Y-35294500D01*
X63405354Y-35294500D01*
X63372897Y-35301398D01*
X63220197Y-35333855D01*
X63220192Y-35333857D01*
X63047270Y-35410848D01*
X63047265Y-35410851D01*
X62894129Y-35522111D01*
X62767466Y-35662785D01*
X62672821Y-35826715D01*
X62672818Y-35826722D01*
X62619246Y-35991602D01*
X62614326Y-36006744D01*
X62594540Y-36195000D01*
X62614326Y-36383256D01*
X62614327Y-36383259D01*
X62672818Y-36563277D01*
X62672821Y-36563284D01*
X62767467Y-36727216D01*
X62869185Y-36840185D01*
X62894129Y-36867888D01*
X63047265Y-36979148D01*
X63047270Y-36979151D01*
X63220192Y-37056142D01*
X63220197Y-37056144D01*
X63405354Y-37095500D01*
X63405355Y-37095500D01*
X63594644Y-37095500D01*
X63594646Y-37095500D01*
X63779803Y-37056144D01*
X63808056Y-37043563D01*
X63831607Y-37035792D01*
X63839286Y-37034085D01*
X63842400Y-37033394D01*
X64384388Y-36828510D01*
X64428233Y-36820500D01*
X75254548Y-36820500D01*
X75321587Y-36840185D01*
X75342229Y-36856819D01*
X79253181Y-40767771D01*
X79286666Y-40829094D01*
X79289500Y-40855452D01*
X79289500Y-44307496D01*
X79269815Y-44374535D01*
X79217011Y-44420290D01*
X79147853Y-44430234D01*
X79133408Y-44427271D01*
X78975416Y-44384939D01*
X78975412Y-44384938D01*
X78975408Y-44384937D01*
X78975406Y-44384936D01*
X78975403Y-44384936D01*
X78740001Y-44364341D01*
X78739999Y-44364341D01*
X78504596Y-44384936D01*
X78504586Y-44384938D01*
X78276344Y-44446094D01*
X78276335Y-44446098D01*
X78176905Y-44492463D01*
X78107827Y-44502955D01*
X78044043Y-44474435D01*
X78005804Y-44415959D01*
X78000500Y-44380081D01*
X78000500Y-41897737D01*
X78002224Y-41882123D01*
X78001938Y-41882096D01*
X78002672Y-41874333D01*
X78000531Y-41806170D01*
X78000500Y-41804223D01*
X78000500Y-41775651D01*
X78000500Y-41775650D01*
X77999629Y-41768759D01*
X77999172Y-41762945D01*
X77997709Y-41716374D01*
X77997709Y-41716372D01*
X77992120Y-41697137D01*
X77988174Y-41678084D01*
X77985664Y-41658208D01*
X77968501Y-41614859D01*
X77966614Y-41609346D01*
X77953617Y-41564610D01*
X77953616Y-41564608D01*
X77943421Y-41547369D01*
X77934860Y-41529893D01*
X77930379Y-41518576D01*
X77927486Y-41511268D01*
X77927486Y-41511267D01*
X77914865Y-41493897D01*
X77900083Y-41473550D01*
X77896900Y-41468705D01*
X77873170Y-41428579D01*
X77873165Y-41428573D01*
X77859005Y-41414413D01*
X77846370Y-41399620D01*
X77834593Y-41383412D01*
X77798693Y-41353713D01*
X77794381Y-41349790D01*
X74160803Y-37716212D01*
X74150980Y-37703950D01*
X74150759Y-37704134D01*
X74145786Y-37698122D01*
X74096066Y-37651432D01*
X74094666Y-37650075D01*
X74074476Y-37629884D01*
X74068986Y-37625625D01*
X74064561Y-37621847D01*
X74030582Y-37589938D01*
X74030580Y-37589936D01*
X74030577Y-37589935D01*
X74013029Y-37580288D01*
X73996763Y-37569604D01*
X73980933Y-37557325D01*
X73938168Y-37538818D01*
X73932922Y-37536248D01*
X73892093Y-37513803D01*
X73892092Y-37513802D01*
X73872693Y-37508822D01*
X73854281Y-37502518D01*
X73835898Y-37494562D01*
X73835892Y-37494560D01*
X73789874Y-37487272D01*
X73784152Y-37486087D01*
X73739021Y-37474500D01*
X73739019Y-37474500D01*
X73718984Y-37474500D01*
X73699586Y-37472973D01*
X73692162Y-37471797D01*
X73679805Y-37469840D01*
X73679804Y-37469840D01*
X73633416Y-37474225D01*
X73627578Y-37474500D01*
X66968236Y-37474500D01*
X66924391Y-37466489D01*
X66725179Y-37391183D01*
X66399438Y-37268045D01*
X66399438Y-37268046D01*
X66382397Y-37261604D01*
X66362786Y-37255186D01*
X66342016Y-37248388D01*
X66336088Y-37246106D01*
X66330567Y-37243648D01*
X66319804Y-37238856D01*
X66227224Y-37219177D01*
X66134646Y-37199500D01*
X65945354Y-37199500D01*
X65912897Y-37206398D01*
X65760197Y-37238855D01*
X65760192Y-37238857D01*
X65587270Y-37315848D01*
X65587265Y-37315851D01*
X65434129Y-37427111D01*
X65307466Y-37567785D01*
X65212821Y-37731715D01*
X65212818Y-37731722D01*
X65159246Y-37896602D01*
X65154326Y-37911744D01*
X65134540Y-38100000D01*
X65154326Y-38288256D01*
X65154327Y-38288259D01*
X65212818Y-38468277D01*
X65212821Y-38468284D01*
X65307467Y-38632216D01*
X65409185Y-38745185D01*
X65434129Y-38772888D01*
X65587265Y-38884148D01*
X65587270Y-38884151D01*
X65760192Y-38961142D01*
X65760197Y-38961144D01*
X65945354Y-39000500D01*
X65945355Y-39000500D01*
X66134644Y-39000500D01*
X66134646Y-39000500D01*
X66319803Y-38961144D01*
X66348056Y-38948563D01*
X66371607Y-38940792D01*
X66379286Y-38939085D01*
X66382400Y-38938394D01*
X66924389Y-38733510D01*
X66968234Y-38725500D01*
X73349548Y-38725500D01*
X73416587Y-38745185D01*
X73437229Y-38761819D01*
X76713181Y-42037771D01*
X76746666Y-42099094D01*
X76749500Y-42125452D01*
X76749500Y-44307496D01*
X76729815Y-44374535D01*
X76677011Y-44420290D01*
X76607853Y-44430234D01*
X76593408Y-44427271D01*
X76435416Y-44384939D01*
X76435412Y-44384938D01*
X76435408Y-44384937D01*
X76435406Y-44384936D01*
X76435403Y-44384936D01*
X76200001Y-44364341D01*
X76199999Y-44364341D01*
X75964596Y-44384936D01*
X75964583Y-44384939D01*
X75806592Y-44427271D01*
X75736742Y-44425608D01*
X75678880Y-44386445D01*
X75651377Y-44322216D01*
X75650500Y-44307496D01*
X75650500Y-42722742D01*
X75652224Y-42707122D01*
X75651939Y-42707095D01*
X75652673Y-42699333D01*
X75650531Y-42631139D01*
X75650500Y-42629192D01*
X75650500Y-42600656D01*
X75650500Y-42600650D01*
X75649631Y-42593779D01*
X75649173Y-42587952D01*
X75649014Y-42582888D01*
X75647710Y-42541373D01*
X75642119Y-42522130D01*
X75638173Y-42503078D01*
X75635664Y-42483208D01*
X75618504Y-42439867D01*
X75616624Y-42434379D01*
X75603618Y-42389610D01*
X75593422Y-42372370D01*
X75584861Y-42354894D01*
X75577487Y-42336270D01*
X75577486Y-42336268D01*
X75550079Y-42298545D01*
X75546888Y-42293686D01*
X75537775Y-42278277D01*
X75523170Y-42253580D01*
X75523168Y-42253578D01*
X75523165Y-42253574D01*
X75509006Y-42239415D01*
X75496368Y-42224619D01*
X75484594Y-42208413D01*
X75448688Y-42178709D01*
X75444376Y-42174786D01*
X72890803Y-39621212D01*
X72880980Y-39608950D01*
X72880759Y-39609134D01*
X72875786Y-39603122D01*
X72826066Y-39556432D01*
X72824666Y-39555075D01*
X72804476Y-39534884D01*
X72798986Y-39530625D01*
X72794561Y-39526847D01*
X72760582Y-39494938D01*
X72760580Y-39494936D01*
X72760577Y-39494935D01*
X72743029Y-39485288D01*
X72726763Y-39474604D01*
X72710933Y-39462325D01*
X72668168Y-39443818D01*
X72662922Y-39441248D01*
X72622093Y-39418803D01*
X72622092Y-39418802D01*
X72602693Y-39413822D01*
X72584281Y-39407518D01*
X72565898Y-39399562D01*
X72565892Y-39399560D01*
X72519874Y-39392272D01*
X72514152Y-39391087D01*
X72469021Y-39379500D01*
X72469019Y-39379500D01*
X72448984Y-39379500D01*
X72429586Y-39377973D01*
X72422162Y-39376797D01*
X72409805Y-39374840D01*
X72409804Y-39374840D01*
X72363416Y-39379225D01*
X72357578Y-39379500D01*
X69508236Y-39379500D01*
X69464391Y-39371489D01*
X69268237Y-39297339D01*
X68939438Y-39173045D01*
X68939438Y-39173046D01*
X68922397Y-39166604D01*
X68902786Y-39160186D01*
X68882016Y-39153388D01*
X68876088Y-39151106D01*
X68870567Y-39148648D01*
X68859804Y-39143856D01*
X68741866Y-39118788D01*
X68674646Y-39104500D01*
X68485354Y-39104500D01*
X68452897Y-39111398D01*
X68300197Y-39143855D01*
X68300192Y-39143857D01*
X68127270Y-39220848D01*
X68127265Y-39220851D01*
X67974129Y-39332111D01*
X67847466Y-39472785D01*
X67752821Y-39636715D01*
X67752818Y-39636722D01*
X67699246Y-39801602D01*
X67694326Y-39816744D01*
X67674540Y-40005000D01*
X67694326Y-40193256D01*
X67694327Y-40193259D01*
X67752818Y-40373277D01*
X67752821Y-40373284D01*
X67847467Y-40537216D01*
X67949185Y-40650185D01*
X67974129Y-40677888D01*
X68127265Y-40789148D01*
X68127270Y-40789151D01*
X68300192Y-40866142D01*
X68300197Y-40866144D01*
X68485354Y-40905500D01*
X68485355Y-40905500D01*
X68674644Y-40905500D01*
X68674646Y-40905500D01*
X68859803Y-40866144D01*
X68888056Y-40853563D01*
X68911607Y-40845792D01*
X68919286Y-40844085D01*
X68922400Y-40843394D01*
X69464389Y-40638510D01*
X69508234Y-40630500D01*
X72079548Y-40630500D01*
X72146587Y-40650185D01*
X72167229Y-40666819D01*
X74363181Y-42862770D01*
X74396666Y-42924093D01*
X74399500Y-42950451D01*
X74399500Y-44380081D01*
X74379815Y-44447120D01*
X74327011Y-44492875D01*
X74257853Y-44502819D01*
X74223095Y-44492463D01*
X74209499Y-44486123D01*
X74123663Y-44446097D01*
X74123659Y-44446096D01*
X74123655Y-44446094D01*
X73895413Y-44384938D01*
X73895403Y-44384936D01*
X73660001Y-44364341D01*
X73659999Y-44364341D01*
X73424596Y-44384936D01*
X73424583Y-44384939D01*
X73266592Y-44427271D01*
X73196742Y-44425608D01*
X73138880Y-44386445D01*
X73111377Y-44322216D01*
X73110500Y-44307496D01*
X73110500Y-43357742D01*
X73112224Y-43342122D01*
X73111939Y-43342095D01*
X73112673Y-43334333D01*
X73110531Y-43266139D01*
X73110500Y-43264192D01*
X73110500Y-43235656D01*
X73110500Y-43235650D01*
X73109631Y-43228779D01*
X73109173Y-43222952D01*
X73109014Y-43217888D01*
X73107710Y-43176373D01*
X73102119Y-43157130D01*
X73098173Y-43138078D01*
X73095664Y-43118208D01*
X73078504Y-43074867D01*
X73076624Y-43069379D01*
X73063618Y-43024610D01*
X73062761Y-43023161D01*
X73053419Y-43007364D01*
X73044858Y-42989888D01*
X73037487Y-42971270D01*
X73037486Y-42971268D01*
X73010090Y-42933560D01*
X73006892Y-42928691D01*
X72983173Y-42888583D01*
X72983166Y-42888574D01*
X72969005Y-42874413D01*
X72956370Y-42859620D01*
X72944593Y-42843412D01*
X72908693Y-42813713D01*
X72904381Y-42809790D01*
X72218656Y-42124065D01*
X72193316Y-42087397D01*
X71954951Y-41559286D01*
X71954936Y-41559255D01*
X71953555Y-41556531D01*
X71949877Y-41547626D01*
X71949821Y-41547652D01*
X71947180Y-41541721D01*
X71947179Y-41541716D01*
X71938729Y-41527080D01*
X71937133Y-41524133D01*
X71934316Y-41518576D01*
X71933126Y-41516690D01*
X71930256Y-41512403D01*
X71865140Y-41399620D01*
X71852533Y-41377784D01*
X71725871Y-41237112D01*
X71725870Y-41237111D01*
X71572734Y-41125851D01*
X71572729Y-41125848D01*
X71399807Y-41048857D01*
X71399802Y-41048855D01*
X71254001Y-41017865D01*
X71214646Y-41009500D01*
X71025354Y-41009500D01*
X70992897Y-41016398D01*
X70840197Y-41048855D01*
X70840192Y-41048857D01*
X70667270Y-41125848D01*
X70667265Y-41125851D01*
X70514129Y-41237111D01*
X70387466Y-41377785D01*
X70292821Y-41541715D01*
X70292818Y-41541722D01*
X70239246Y-41706602D01*
X70234326Y-41721744D01*
X70214540Y-41910000D01*
X70234326Y-42098256D01*
X70234327Y-42098259D01*
X70292818Y-42278277D01*
X70292821Y-42278284D01*
X70387467Y-42442216D01*
X70514128Y-42582888D01*
X70514129Y-42582888D01*
X70667265Y-42694148D01*
X70667267Y-42694149D01*
X70667270Y-42694151D01*
X70700743Y-42709054D01*
X70732757Y-42723308D01*
X70748898Y-42731977D01*
X70769271Y-42744943D01*
X70769274Y-42744945D01*
X70769278Y-42744946D01*
X70769280Y-42744948D01*
X71297400Y-42983318D01*
X71334067Y-43008657D01*
X71823181Y-43497771D01*
X71856666Y-43559094D01*
X71859500Y-43585452D01*
X71859500Y-44380081D01*
X71839815Y-44447120D01*
X71787011Y-44492875D01*
X71717853Y-44502819D01*
X71683095Y-44492463D01*
X71669499Y-44486123D01*
X71583663Y-44446097D01*
X71583659Y-44446096D01*
X71583655Y-44446094D01*
X71355413Y-44384938D01*
X71355403Y-44384936D01*
X71120001Y-44364341D01*
X71119999Y-44364341D01*
X70884596Y-44384936D01*
X70884586Y-44384938D01*
X70656344Y-44446094D01*
X70656335Y-44446098D01*
X70442171Y-44545964D01*
X70442169Y-44545965D01*
X70248597Y-44681505D01*
X70081505Y-44848597D01*
X69951575Y-45034158D01*
X69896998Y-45077783D01*
X69827500Y-45084977D01*
X69765145Y-45053454D01*
X69748425Y-45034158D01*
X69618494Y-44848597D01*
X69451402Y-44681506D01*
X69451395Y-44681501D01*
X69257834Y-44545967D01*
X69257830Y-44545965D01*
X69257829Y-44545964D01*
X69043663Y-44446097D01*
X69043659Y-44446096D01*
X69043655Y-44446094D01*
X68815413Y-44384938D01*
X68815403Y-44384936D01*
X68580001Y-44364341D01*
X68579999Y-44364341D01*
X68344596Y-44384936D01*
X68344586Y-44384938D01*
X68116344Y-44446094D01*
X68116335Y-44446098D01*
X67902171Y-44545964D01*
X67902169Y-44545965D01*
X67708597Y-44681505D01*
X67541505Y-44848597D01*
X67411575Y-45034158D01*
X67356998Y-45077783D01*
X67287500Y-45084977D01*
X67225145Y-45053454D01*
X67208425Y-45034158D01*
X67078494Y-44848597D01*
X66911402Y-44681506D01*
X66911395Y-44681501D01*
X66717834Y-44545967D01*
X66717830Y-44545965D01*
X66717830Y-44545964D01*
X66503663Y-44446097D01*
X66503659Y-44446096D01*
X66503655Y-44446094D01*
X66275413Y-44384938D01*
X66275403Y-44384936D01*
X66040001Y-44364341D01*
X66039999Y-44364341D01*
X65804596Y-44384936D01*
X65804586Y-44384938D01*
X65576344Y-44446094D01*
X65576335Y-44446098D01*
X65362171Y-44545964D01*
X65362169Y-44545965D01*
X65168597Y-44681505D01*
X65001508Y-44848594D01*
X64871574Y-45034160D01*
X64816997Y-45077784D01*
X64747498Y-45084977D01*
X64685144Y-45053455D01*
X64668429Y-45034164D01*
X64538495Y-44848599D01*
X64538493Y-44848596D01*
X64371402Y-44681506D01*
X64371395Y-44681501D01*
X64177834Y-44545967D01*
X64177830Y-44545965D01*
X64177830Y-44545964D01*
X63963663Y-44446097D01*
X63963659Y-44446096D01*
X63963655Y-44446094D01*
X63735413Y-44384938D01*
X63735403Y-44384936D01*
X63500001Y-44364341D01*
X63499999Y-44364341D01*
X63264596Y-44384936D01*
X63264586Y-44384938D01*
X63036344Y-44446094D01*
X63036335Y-44446098D01*
X62822171Y-44545964D01*
X62822169Y-44545965D01*
X62628597Y-44681505D01*
X62461505Y-44848597D01*
X62331575Y-45034158D01*
X62276998Y-45077783D01*
X62207500Y-45084977D01*
X62145145Y-45053454D01*
X62128425Y-45034158D01*
X61998494Y-44848597D01*
X61831402Y-44681506D01*
X61831395Y-44681501D01*
X61637834Y-44545967D01*
X61637830Y-44545965D01*
X61637829Y-44545964D01*
X61423663Y-44446097D01*
X61423659Y-44446096D01*
X61423655Y-44446094D01*
X61195413Y-44384938D01*
X61195403Y-44384936D01*
X60960001Y-44364341D01*
X60959999Y-44364341D01*
X60724596Y-44384936D01*
X60724586Y-44384938D01*
X60496344Y-44446094D01*
X60496335Y-44446098D01*
X60282171Y-44545964D01*
X60282169Y-44545965D01*
X60088597Y-44681505D01*
X59921505Y-44848597D01*
X59791269Y-45034595D01*
X59736692Y-45078220D01*
X59667194Y-45085414D01*
X59604839Y-45053891D01*
X59588119Y-45034595D01*
X59534925Y-44958626D01*
X59534925Y-44958625D01*
X58903076Y-45590475D01*
X58879493Y-45510156D01*
X58801761Y-45389202D01*
X58693100Y-45295048D01*
X58562315Y-45235320D01*
X58552533Y-45233913D01*
X59181373Y-44605073D01*
X59181373Y-44605072D01*
X59097583Y-44546402D01*
X59097579Y-44546400D01*
X58883492Y-44446570D01*
X58883483Y-44446566D01*
X58655326Y-44385432D01*
X58655315Y-44385430D01*
X58420002Y-44364843D01*
X58419998Y-44364843D01*
X58184684Y-44385430D01*
X58184673Y-44385432D01*
X57956516Y-44446566D01*
X57956507Y-44446570D01*
X57742419Y-44546401D01*
X57658625Y-44605072D01*
X58287466Y-45233913D01*
X58277685Y-45235320D01*
X58146900Y-45295048D01*
X58038239Y-45389202D01*
X57960507Y-45510156D01*
X57936923Y-45590476D01*
X57305073Y-44958626D01*
X57251881Y-45034594D01*
X57197304Y-45078219D01*
X57127806Y-45085413D01*
X57065451Y-45053891D01*
X57048730Y-45034594D01*
X56918494Y-44848597D01*
X56751402Y-44681506D01*
X56751395Y-44681501D01*
X56557834Y-44545967D01*
X56557830Y-44545965D01*
X56557830Y-44545964D01*
X56343663Y-44446097D01*
X56343659Y-44446096D01*
X56343655Y-44446094D01*
X56115413Y-44384938D01*
X56115403Y-44384936D01*
X55880001Y-44364341D01*
X55879999Y-44364341D01*
X55644596Y-44384936D01*
X55644586Y-44384938D01*
X55416344Y-44446094D01*
X55416335Y-44446098D01*
X55202171Y-44545964D01*
X55202169Y-44545965D01*
X55008597Y-44681505D01*
X54841508Y-44848594D01*
X54711574Y-45034160D01*
X54656997Y-45077784D01*
X54587498Y-45084977D01*
X54525144Y-45053455D01*
X54508429Y-45034164D01*
X54378495Y-44848599D01*
X54378493Y-44848596D01*
X54211402Y-44681506D01*
X54211395Y-44681501D01*
X54017834Y-44545967D01*
X54017830Y-44545965D01*
X54017830Y-44545964D01*
X53803663Y-44446097D01*
X53803659Y-44446096D01*
X53803655Y-44446094D01*
X53575413Y-44384938D01*
X53575403Y-44384936D01*
X53340001Y-44364341D01*
X53339999Y-44364341D01*
X53104596Y-44384936D01*
X53104586Y-44384938D01*
X52876344Y-44446094D01*
X52876335Y-44446098D01*
X52662171Y-44545964D01*
X52662169Y-44545965D01*
X52468597Y-44681505D01*
X52301505Y-44848597D01*
X52171575Y-45034158D01*
X52116998Y-45077783D01*
X52047500Y-45084977D01*
X51985145Y-45053454D01*
X51968425Y-45034158D01*
X51838494Y-44848597D01*
X51671402Y-44681506D01*
X51671395Y-44681501D01*
X51477834Y-44545967D01*
X51477830Y-44545965D01*
X51477829Y-44545964D01*
X51263663Y-44446097D01*
X51263659Y-44446096D01*
X51263655Y-44446094D01*
X51035413Y-44384938D01*
X51035403Y-44384936D01*
X50800001Y-44364341D01*
X50799999Y-44364341D01*
X50564596Y-44384936D01*
X50564586Y-44384938D01*
X50336344Y-44446094D01*
X50336335Y-44446098D01*
X50122171Y-44545964D01*
X50122169Y-44545965D01*
X49928597Y-44681505D01*
X49761505Y-44848597D01*
X49631575Y-45034158D01*
X49576998Y-45077783D01*
X49507500Y-45084977D01*
X49445145Y-45053454D01*
X49428425Y-45034158D01*
X49298494Y-44848597D01*
X49131402Y-44681506D01*
X49131395Y-44681501D01*
X48937834Y-44545967D01*
X48937830Y-44545965D01*
X48937829Y-44545964D01*
X48723663Y-44446097D01*
X48723659Y-44446096D01*
X48723655Y-44446094D01*
X48495413Y-44384938D01*
X48495403Y-44384936D01*
X48260001Y-44364341D01*
X48259999Y-44364341D01*
X48024596Y-44384936D01*
X48024586Y-44384938D01*
X47796344Y-44446094D01*
X47796335Y-44446098D01*
X47582171Y-44545964D01*
X47582169Y-44545965D01*
X47388600Y-44681503D01*
X47266673Y-44803430D01*
X47205350Y-44836914D01*
X47135658Y-44831930D01*
X47079725Y-44790058D01*
X47062810Y-44759081D01*
X47013797Y-44627671D01*
X47013793Y-44627664D01*
X46927547Y-44512455D01*
X46927544Y-44512452D01*
X46812335Y-44426206D01*
X46812328Y-44426202D01*
X46677482Y-44375908D01*
X46677483Y-44375908D01*
X46617883Y-44369501D01*
X46617881Y-44369500D01*
X46617873Y-44369500D01*
X46617864Y-44369500D01*
X44822129Y-44369500D01*
X44822123Y-44369501D01*
X44762516Y-44375908D01*
X44627671Y-44426202D01*
X44627664Y-44426206D01*
X44512455Y-44512452D01*
X44512452Y-44512455D01*
X44426206Y-44627664D01*
X44426202Y-44627671D01*
X44375908Y-44762517D01*
X44371510Y-44803430D01*
X44369501Y-44822123D01*
X44369500Y-44822135D01*
X44369500Y-46617870D01*
X44369501Y-46617876D01*
X44375908Y-46677483D01*
X44426202Y-46812328D01*
X44426206Y-46812335D01*
X44512452Y-46927544D01*
X44512455Y-46927547D01*
X44627664Y-47013793D01*
X44627671Y-47013797D01*
X44762517Y-47064091D01*
X44762516Y-47064091D01*
X44769444Y-47064835D01*
X44822127Y-47070500D01*
X46617872Y-47070499D01*
X46677483Y-47064091D01*
X46812331Y-47013796D01*
X46927546Y-46927546D01*
X47013796Y-46812331D01*
X47062810Y-46680916D01*
X47104681Y-46624984D01*
X47170145Y-46600566D01*
X47238418Y-46615417D01*
X47266673Y-46636569D01*
X47388599Y-46758495D01*
X47485384Y-46826264D01*
X47582165Y-46894032D01*
X47582167Y-46894033D01*
X47582170Y-46894035D01*
X47796337Y-46993903D01*
X48024592Y-47055063D01*
X48201034Y-47070500D01*
X48259999Y-47075659D01*
X48260000Y-47075659D01*
X48260001Y-47075659D01*
X48318966Y-47070500D01*
X48495408Y-47055063D01*
X48723663Y-46993903D01*
X48937830Y-46894035D01*
X49131401Y-46758495D01*
X49298495Y-46591401D01*
X49428426Y-46405841D01*
X49483002Y-46362217D01*
X49552500Y-46355023D01*
X49614855Y-46386546D01*
X49631575Y-46405842D01*
X49761500Y-46591395D01*
X49761505Y-46591401D01*
X49928599Y-46758495D01*
X50025384Y-46826264D01*
X50122165Y-46894032D01*
X50122167Y-46894033D01*
X50122170Y-46894035D01*
X50336337Y-46993903D01*
X50564592Y-47055063D01*
X50741034Y-47070500D01*
X50799999Y-47075659D01*
X50800000Y-47075659D01*
X50800001Y-47075659D01*
X50858966Y-47070500D01*
X51035408Y-47055063D01*
X51263663Y-46993903D01*
X51477830Y-46894035D01*
X51671401Y-46758495D01*
X51838495Y-46591401D01*
X51968426Y-46405841D01*
X52023002Y-46362217D01*
X52092500Y-46355023D01*
X52154855Y-46386546D01*
X52171575Y-46405842D01*
X52301500Y-46591395D01*
X52301505Y-46591401D01*
X52468599Y-46758495D01*
X52565384Y-46826264D01*
X52662165Y-46894032D01*
X52662167Y-46894033D01*
X52662170Y-46894035D01*
X52876337Y-46993903D01*
X53104592Y-47055063D01*
X53281034Y-47070500D01*
X53339999Y-47075659D01*
X53340000Y-47075659D01*
X53340001Y-47075659D01*
X53398966Y-47070500D01*
X53575408Y-47055063D01*
X53803663Y-46993903D01*
X54017830Y-46894035D01*
X54211401Y-46758495D01*
X54378495Y-46591401D01*
X54508426Y-46405840D01*
X54563001Y-46362217D01*
X54632499Y-46355023D01*
X54694854Y-46386546D01*
X54711574Y-46405841D01*
X54841505Y-46591401D01*
X55008599Y-46758495D01*
X55105384Y-46826264D01*
X55202165Y-46894032D01*
X55202167Y-46894033D01*
X55202170Y-46894035D01*
X55416337Y-46993903D01*
X55644592Y-47055063D01*
X55821034Y-47070500D01*
X55879999Y-47075659D01*
X55880000Y-47075659D01*
X55880001Y-47075659D01*
X55938966Y-47070500D01*
X56115408Y-47055063D01*
X56343663Y-46993903D01*
X56557830Y-46894035D01*
X56751401Y-46758495D01*
X56918495Y-46591401D01*
X57048732Y-46405403D01*
X57103307Y-46361780D01*
X57172805Y-46354586D01*
X57235160Y-46386109D01*
X57251880Y-46405405D01*
X57305073Y-46481373D01*
X57936923Y-45849523D01*
X57960507Y-45929844D01*
X58038239Y-46050798D01*
X58146900Y-46144952D01*
X58277685Y-46204680D01*
X58287466Y-46206086D01*
X57658625Y-46834925D01*
X57742421Y-46893599D01*
X57956507Y-46993429D01*
X57956516Y-46993433D01*
X58184673Y-47054567D01*
X58184684Y-47054569D01*
X58419998Y-47075157D01*
X58420002Y-47075157D01*
X58655315Y-47054569D01*
X58655326Y-47054567D01*
X58883483Y-46993433D01*
X58883492Y-46993429D01*
X59097578Y-46893600D01*
X59097582Y-46893598D01*
X59181373Y-46834926D01*
X59181373Y-46834925D01*
X58552533Y-46206086D01*
X58562315Y-46204680D01*
X58693100Y-46144952D01*
X58801761Y-46050798D01*
X58879493Y-45929844D01*
X58903076Y-45849524D01*
X59534925Y-46481373D01*
X59588119Y-46405405D01*
X59642696Y-46361781D01*
X59712195Y-46354588D01*
X59774549Y-46386110D01*
X59791269Y-46405405D01*
X59921505Y-46591401D01*
X60088599Y-46758495D01*
X60185384Y-46826265D01*
X60282165Y-46894032D01*
X60282167Y-46894033D01*
X60282170Y-46894035D01*
X60496337Y-46993903D01*
X60724592Y-47055063D01*
X60901034Y-47070500D01*
X60959999Y-47075659D01*
X60960000Y-47075659D01*
X60960001Y-47075659D01*
X61018966Y-47070500D01*
X61195408Y-47055063D01*
X61423663Y-46993903D01*
X61637830Y-46894035D01*
X61831401Y-46758495D01*
X61998495Y-46591401D01*
X62128426Y-46405840D01*
X62183001Y-46362217D01*
X62252499Y-46355023D01*
X62314854Y-46386546D01*
X62331574Y-46405841D01*
X62461505Y-46591401D01*
X62628599Y-46758495D01*
X62725384Y-46826265D01*
X62822165Y-46894032D01*
X62822167Y-46894033D01*
X62822170Y-46894035D01*
X63036337Y-46993903D01*
X63264592Y-47055063D01*
X63441034Y-47070500D01*
X63499999Y-47075659D01*
X63500000Y-47075659D01*
X63500001Y-47075659D01*
X63558966Y-47070500D01*
X63735408Y-47055063D01*
X63963663Y-46993903D01*
X64177830Y-46894035D01*
X64371401Y-46758495D01*
X64538495Y-46591401D01*
X64668426Y-46405840D01*
X64723001Y-46362217D01*
X64792499Y-46355023D01*
X64854854Y-46386546D01*
X64871574Y-46405841D01*
X65001505Y-46591401D01*
X65168599Y-46758495D01*
X65265384Y-46826265D01*
X65362165Y-46894032D01*
X65362167Y-46894033D01*
X65362170Y-46894035D01*
X65576337Y-46993903D01*
X65804592Y-47055063D01*
X65981034Y-47070500D01*
X66039999Y-47075659D01*
X66040000Y-47075659D01*
X66040001Y-47075659D01*
X66098966Y-47070500D01*
X66275408Y-47055063D01*
X66503663Y-46993903D01*
X66717830Y-46894035D01*
X66911401Y-46758495D01*
X67078495Y-46591401D01*
X67208426Y-46405840D01*
X67263001Y-46362217D01*
X67332499Y-46355023D01*
X67394854Y-46386546D01*
X67411574Y-46405841D01*
X67541505Y-46591401D01*
X67708599Y-46758495D01*
X67805384Y-46826265D01*
X67902165Y-46894032D01*
X67902167Y-46894033D01*
X67902170Y-46894035D01*
X68116337Y-46993903D01*
X68344592Y-47055063D01*
X68521034Y-47070500D01*
X68579999Y-47075659D01*
X68580000Y-47075659D01*
X68580001Y-47075659D01*
X68638966Y-47070500D01*
X68815408Y-47055063D01*
X69043663Y-46993903D01*
X69257830Y-46894035D01*
X69451401Y-46758495D01*
X69618495Y-46591401D01*
X69748426Y-46405840D01*
X69803001Y-46362217D01*
X69872499Y-46355023D01*
X69934854Y-46386546D01*
X69951574Y-46405841D01*
X70081505Y-46591401D01*
X70248599Y-46758495D01*
X70345384Y-46826265D01*
X70442165Y-46894032D01*
X70442167Y-46894033D01*
X70442170Y-46894035D01*
X70656337Y-46993903D01*
X70884592Y-47055063D01*
X71061034Y-47070500D01*
X71119999Y-47075659D01*
X71120000Y-47075659D01*
X71120001Y-47075659D01*
X71178966Y-47070500D01*
X71355408Y-47055063D01*
X71583663Y-46993903D01*
X71681954Y-46948068D01*
X71751030Y-46937577D01*
X71814814Y-46966097D01*
X71853054Y-47024573D01*
X71858297Y-47056554D01*
X71859469Y-47093844D01*
X71859500Y-47095792D01*
X71859500Y-47124343D01*
X71859501Y-47124360D01*
X71860368Y-47131231D01*
X71860826Y-47137050D01*
X71862290Y-47183624D01*
X71862291Y-47183627D01*
X71867880Y-47202867D01*
X71871824Y-47221911D01*
X71874336Y-47241792D01*
X71890027Y-47281424D01*
X71891490Y-47285119D01*
X71893382Y-47290647D01*
X71906381Y-47335388D01*
X71916580Y-47352634D01*
X71925138Y-47370103D01*
X71932514Y-47388732D01*
X71959898Y-47426423D01*
X71963106Y-47431307D01*
X71986827Y-47471416D01*
X71986833Y-47471424D01*
X72000990Y-47485580D01*
X72013628Y-47500376D01*
X72025405Y-47516586D01*
X72025406Y-47516587D01*
X72061309Y-47546288D01*
X72065620Y-47550210D01*
X81638590Y-57123181D01*
X84589197Y-60073788D01*
X84599022Y-60086051D01*
X84599243Y-60085869D01*
X84604211Y-60091874D01*
X84653932Y-60138566D01*
X84655332Y-60139923D01*
X84675523Y-60160115D01*
X84675527Y-60160118D01*
X84675529Y-60160120D01*
X84681011Y-60164373D01*
X84685443Y-60168157D01*
X84719418Y-60200062D01*
X84736976Y-60209714D01*
X84753233Y-60220393D01*
X84769064Y-60232673D01*
X84788737Y-60241186D01*
X84811833Y-60251182D01*
X84817077Y-60253750D01*
X84857908Y-60276197D01*
X84870523Y-60279435D01*
X84877305Y-60281177D01*
X84895719Y-60287481D01*
X84914104Y-60295438D01*
X84960157Y-60302732D01*
X84965826Y-60303906D01*
X85010981Y-60315500D01*
X85031016Y-60315500D01*
X85050413Y-60317026D01*
X85070196Y-60320160D01*
X85116583Y-60315775D01*
X85122422Y-60315500D01*
X94939548Y-60315500D01*
X95006587Y-60335185D01*
X95027229Y-60351819D01*
X96608070Y-61932660D01*
X96641555Y-61993983D01*
X96636571Y-62063675D01*
X96594699Y-62119608D01*
X96529235Y-62144025D01*
X96520389Y-62144341D01*
X96519999Y-62144341D01*
X96284596Y-62164936D01*
X96284586Y-62164938D01*
X96056344Y-62226094D01*
X96056335Y-62226098D01*
X95842171Y-62325964D01*
X95842169Y-62325965D01*
X95648597Y-62461505D01*
X95481505Y-62628597D01*
X95351575Y-62814158D01*
X95296998Y-62857783D01*
X95227500Y-62864977D01*
X95165145Y-62833454D01*
X95148425Y-62814158D01*
X95018494Y-62628597D01*
X94851402Y-62461506D01*
X94851395Y-62461501D01*
X94657834Y-62325967D01*
X94657830Y-62325965D01*
X94586727Y-62292809D01*
X94443663Y-62226097D01*
X94443659Y-62226096D01*
X94443655Y-62226094D01*
X94215413Y-62164938D01*
X94215403Y-62164936D01*
X93980001Y-62144341D01*
X93979999Y-62144341D01*
X93744596Y-62164936D01*
X93744586Y-62164938D01*
X93516344Y-62226094D01*
X93516335Y-62226098D01*
X93302171Y-62325964D01*
X93302169Y-62325965D01*
X93108597Y-62461505D01*
X92941505Y-62628597D01*
X92811575Y-62814158D01*
X92756998Y-62857783D01*
X92687500Y-62864977D01*
X92625145Y-62833454D01*
X92608425Y-62814158D01*
X92478494Y-62628597D01*
X92311402Y-62461506D01*
X92311395Y-62461501D01*
X92117834Y-62325967D01*
X92117830Y-62325965D01*
X92046727Y-62292809D01*
X91903663Y-62226097D01*
X91903659Y-62226096D01*
X91903655Y-62226094D01*
X91675413Y-62164938D01*
X91675403Y-62164936D01*
X91440001Y-62144341D01*
X91439999Y-62144341D01*
X91204596Y-62164936D01*
X91204586Y-62164938D01*
X90976344Y-62226094D01*
X90976335Y-62226098D01*
X90762171Y-62325964D01*
X90762169Y-62325965D01*
X90568597Y-62461505D01*
X90401508Y-62628594D01*
X90271574Y-62814159D01*
X90216997Y-62857784D01*
X90147498Y-62864976D01*
X90085144Y-62833454D01*
X90068424Y-62814158D01*
X89938494Y-62628597D01*
X89771402Y-62461506D01*
X89771395Y-62461501D01*
X89577834Y-62325967D01*
X89577830Y-62325965D01*
X89506727Y-62292809D01*
X89363663Y-62226097D01*
X89363659Y-62226096D01*
X89363655Y-62226094D01*
X89135413Y-62164938D01*
X89135403Y-62164936D01*
X88900001Y-62144341D01*
X88899999Y-62144341D01*
X88664596Y-62164936D01*
X88664586Y-62164938D01*
X88436344Y-62226094D01*
X88436335Y-62226098D01*
X88222171Y-62325964D01*
X88222169Y-62325965D01*
X88028597Y-62461505D01*
X87861505Y-62628597D01*
X87731575Y-62814158D01*
X87676998Y-62857783D01*
X87607500Y-62864977D01*
X87545145Y-62833454D01*
X87528425Y-62814158D01*
X87398494Y-62628597D01*
X87231402Y-62461506D01*
X87231395Y-62461501D01*
X87037834Y-62325967D01*
X87037830Y-62325965D01*
X86966727Y-62292809D01*
X86823663Y-62226097D01*
X86823659Y-62226096D01*
X86823655Y-62226094D01*
X86595413Y-62164938D01*
X86595403Y-62164936D01*
X86360001Y-62144341D01*
X86359999Y-62144341D01*
X86124596Y-62164936D01*
X86124586Y-62164938D01*
X85896344Y-62226094D01*
X85896335Y-62226098D01*
X85682171Y-62325964D01*
X85682169Y-62325965D01*
X85488597Y-62461505D01*
X85321505Y-62628597D01*
X85191575Y-62814158D01*
X85136998Y-62857783D01*
X85067500Y-62864977D01*
X85005145Y-62833454D01*
X84988425Y-62814158D01*
X84858494Y-62628597D01*
X84691402Y-62461506D01*
X84691395Y-62461501D01*
X84497834Y-62325967D01*
X84497830Y-62325965D01*
X84426727Y-62292809D01*
X84283663Y-62226097D01*
X84283659Y-62226096D01*
X84283655Y-62226094D01*
X84055413Y-62164938D01*
X84055403Y-62164936D01*
X83820001Y-62144341D01*
X83819999Y-62144341D01*
X83584596Y-62164936D01*
X83584586Y-62164938D01*
X83356344Y-62226094D01*
X83356335Y-62226098D01*
X83142171Y-62325964D01*
X83142169Y-62325965D01*
X82948597Y-62461505D01*
X82781505Y-62628597D01*
X82651575Y-62814158D01*
X82596998Y-62857783D01*
X82527500Y-62864977D01*
X82465145Y-62833454D01*
X82448425Y-62814158D01*
X82318494Y-62628597D01*
X82151402Y-62461506D01*
X82151395Y-62461501D01*
X81957834Y-62325967D01*
X81957830Y-62325965D01*
X81886727Y-62292809D01*
X81743663Y-62226097D01*
X81743659Y-62226096D01*
X81743655Y-62226094D01*
X81515413Y-62164938D01*
X81515403Y-62164936D01*
X81280001Y-62144341D01*
X81279999Y-62144341D01*
X81044596Y-62164936D01*
X81044586Y-62164938D01*
X80816344Y-62226094D01*
X80816335Y-62226098D01*
X80602171Y-62325964D01*
X80602169Y-62325965D01*
X80408597Y-62461505D01*
X80241505Y-62628597D01*
X80111575Y-62814158D01*
X80056998Y-62857783D01*
X79987500Y-62864977D01*
X79925145Y-62833454D01*
X79908425Y-62814158D01*
X79778494Y-62628597D01*
X79611402Y-62461506D01*
X79611395Y-62461501D01*
X79417834Y-62325967D01*
X79417830Y-62325965D01*
X79346727Y-62292809D01*
X79203663Y-62226097D01*
X79203659Y-62226096D01*
X79203655Y-62226094D01*
X78975413Y-62164938D01*
X78975403Y-62164936D01*
X78740001Y-62144341D01*
X78739999Y-62144341D01*
X78504596Y-62164936D01*
X78504586Y-62164938D01*
X78276344Y-62226094D01*
X78276335Y-62226098D01*
X78062171Y-62325964D01*
X78062169Y-62325965D01*
X77868597Y-62461505D01*
X77701505Y-62628597D01*
X77571575Y-62814158D01*
X77516998Y-62857783D01*
X77447500Y-62864977D01*
X77385145Y-62833454D01*
X77368425Y-62814158D01*
X77238494Y-62628597D01*
X77071402Y-62461506D01*
X77071395Y-62461501D01*
X76877834Y-62325967D01*
X76877830Y-62325965D01*
X76806727Y-62292809D01*
X76663663Y-62226097D01*
X76663659Y-62226096D01*
X76663655Y-62226094D01*
X76435413Y-62164938D01*
X76435403Y-62164936D01*
X76200001Y-62144341D01*
X76199999Y-62144341D01*
X75964596Y-62164936D01*
X75964586Y-62164938D01*
X75736344Y-62226094D01*
X75736335Y-62226098D01*
X75522171Y-62325964D01*
X75522169Y-62325965D01*
X75328597Y-62461505D01*
X75161505Y-62628597D01*
X75031575Y-62814158D01*
X74976998Y-62857783D01*
X74907500Y-62864977D01*
X74845145Y-62833454D01*
X74828425Y-62814158D01*
X74698494Y-62628597D01*
X74531402Y-62461506D01*
X74531395Y-62461501D01*
X74337834Y-62325967D01*
X74337830Y-62325965D01*
X74266727Y-62292809D01*
X74123663Y-62226097D01*
X74123659Y-62226096D01*
X74123655Y-62226094D01*
X73895413Y-62164938D01*
X73895403Y-62164936D01*
X73660001Y-62144341D01*
X73659999Y-62144341D01*
X73424596Y-62164936D01*
X73424586Y-62164938D01*
X73196344Y-62226094D01*
X73196335Y-62226098D01*
X72982171Y-62325964D01*
X72982169Y-62325965D01*
X72788597Y-62461505D01*
X72621505Y-62628597D01*
X72491575Y-62814158D01*
X72436998Y-62857783D01*
X72367500Y-62864977D01*
X72305145Y-62833454D01*
X72288425Y-62814158D01*
X72158494Y-62628597D01*
X71991402Y-62461506D01*
X71991395Y-62461501D01*
X71797834Y-62325967D01*
X71797830Y-62325965D01*
X71726727Y-62292809D01*
X71583663Y-62226097D01*
X71583659Y-62226096D01*
X71583655Y-62226094D01*
X71355413Y-62164938D01*
X71355403Y-62164936D01*
X71120001Y-62144341D01*
X71119999Y-62144341D01*
X70884596Y-62164936D01*
X70884586Y-62164938D01*
X70656344Y-62226094D01*
X70656335Y-62226098D01*
X70442171Y-62325964D01*
X70442169Y-62325965D01*
X70248597Y-62461505D01*
X70081505Y-62628597D01*
X69951575Y-62814158D01*
X69896998Y-62857783D01*
X69827500Y-62864977D01*
X69765145Y-62833454D01*
X69748425Y-62814158D01*
X69618494Y-62628597D01*
X69451402Y-62461506D01*
X69451395Y-62461501D01*
X69257834Y-62325967D01*
X69257830Y-62325965D01*
X69186727Y-62292809D01*
X69043663Y-62226097D01*
X69043659Y-62226096D01*
X69043655Y-62226094D01*
X68815413Y-62164938D01*
X68815403Y-62164936D01*
X68580001Y-62144341D01*
X68579999Y-62144341D01*
X68344596Y-62164936D01*
X68344586Y-62164938D01*
X68116344Y-62226094D01*
X68116335Y-62226098D01*
X67902171Y-62325964D01*
X67902169Y-62325965D01*
X67708597Y-62461505D01*
X67541505Y-62628597D01*
X67411575Y-62814158D01*
X67356998Y-62857783D01*
X67287500Y-62864977D01*
X67225145Y-62833454D01*
X67208425Y-62814158D01*
X67078494Y-62628597D01*
X66911402Y-62461506D01*
X66911395Y-62461501D01*
X66717834Y-62325967D01*
X66717830Y-62325965D01*
X66646727Y-62292809D01*
X66503663Y-62226097D01*
X66503659Y-62226096D01*
X66503655Y-62226094D01*
X66275413Y-62164938D01*
X66275403Y-62164936D01*
X66040001Y-62144341D01*
X66039999Y-62144341D01*
X65804596Y-62164936D01*
X65804586Y-62164938D01*
X65576344Y-62226094D01*
X65576335Y-62226098D01*
X65362171Y-62325964D01*
X65362169Y-62325965D01*
X65168597Y-62461505D01*
X65001508Y-62628594D01*
X64871574Y-62814160D01*
X64816997Y-62857784D01*
X64747498Y-62864977D01*
X64685144Y-62833455D01*
X64668429Y-62814164D01*
X64538495Y-62628599D01*
X64538493Y-62628596D01*
X64371402Y-62461506D01*
X64371395Y-62461501D01*
X64177834Y-62325967D01*
X64177830Y-62325965D01*
X64106727Y-62292809D01*
X63963663Y-62226097D01*
X63963659Y-62226096D01*
X63963655Y-62226094D01*
X63735413Y-62164938D01*
X63735403Y-62164936D01*
X63500001Y-62144341D01*
X63499999Y-62144341D01*
X63264596Y-62164936D01*
X63264586Y-62164938D01*
X63036344Y-62226094D01*
X63036335Y-62226098D01*
X62822171Y-62325964D01*
X62822169Y-62325965D01*
X62628597Y-62461505D01*
X62461508Y-62628594D01*
X62331574Y-62814159D01*
X62276997Y-62857784D01*
X62207498Y-62864976D01*
X62145144Y-62833454D01*
X62128424Y-62814158D01*
X61998494Y-62628597D01*
X61831402Y-62461506D01*
X61831395Y-62461501D01*
X61637834Y-62325967D01*
X61637830Y-62325965D01*
X61566727Y-62292809D01*
X61423663Y-62226097D01*
X61423659Y-62226096D01*
X61423655Y-62226094D01*
X61195413Y-62164938D01*
X61195403Y-62164936D01*
X60960001Y-62144341D01*
X60959999Y-62144341D01*
X60724596Y-62164936D01*
X60724586Y-62164938D01*
X60496344Y-62226094D01*
X60496335Y-62226098D01*
X60282171Y-62325964D01*
X60282169Y-62325965D01*
X60088597Y-62461505D01*
X59921508Y-62628594D01*
X59791574Y-62814160D01*
X59736997Y-62857784D01*
X59667498Y-62864977D01*
X59605144Y-62833455D01*
X59588429Y-62814164D01*
X59458495Y-62628599D01*
X59458493Y-62628596D01*
X59291402Y-62461506D01*
X59291395Y-62461501D01*
X59097834Y-62325967D01*
X59097830Y-62325965D01*
X59026727Y-62292809D01*
X58883663Y-62226097D01*
X58883659Y-62226096D01*
X58883655Y-62226094D01*
X58655413Y-62164938D01*
X58655403Y-62164936D01*
X58420001Y-62144341D01*
X58419999Y-62144341D01*
X58184596Y-62164936D01*
X58184586Y-62164938D01*
X57956344Y-62226094D01*
X57956335Y-62226098D01*
X57742171Y-62325964D01*
X57742169Y-62325965D01*
X57548597Y-62461505D01*
X57381505Y-62628597D01*
X57251575Y-62814158D01*
X57196998Y-62857783D01*
X57127500Y-62864977D01*
X57065145Y-62833454D01*
X57048425Y-62814158D01*
X56918494Y-62628597D01*
X56751402Y-62461506D01*
X56751395Y-62461501D01*
X56557834Y-62325967D01*
X56557830Y-62325965D01*
X56486727Y-62292809D01*
X56343663Y-62226097D01*
X56343659Y-62226096D01*
X56343655Y-62226094D01*
X56115413Y-62164938D01*
X56115403Y-62164936D01*
X55880001Y-62144341D01*
X55879999Y-62144341D01*
X55644596Y-62164936D01*
X55644586Y-62164938D01*
X55416344Y-62226094D01*
X55416335Y-62226098D01*
X55202171Y-62325964D01*
X55202169Y-62325965D01*
X55008597Y-62461505D01*
X54841508Y-62628594D01*
X54711574Y-62814160D01*
X54656997Y-62857784D01*
X54587498Y-62864977D01*
X54525144Y-62833455D01*
X54508429Y-62814164D01*
X54378495Y-62628599D01*
X54378493Y-62628596D01*
X54211402Y-62461506D01*
X54211395Y-62461501D01*
X54017834Y-62325967D01*
X54017830Y-62325965D01*
X53946727Y-62292809D01*
X53803663Y-62226097D01*
X53803659Y-62226096D01*
X53803655Y-62226094D01*
X53575413Y-62164938D01*
X53575403Y-62164936D01*
X53340001Y-62144341D01*
X53339999Y-62144341D01*
X53104596Y-62164936D01*
X53104586Y-62164938D01*
X52876344Y-62226094D01*
X52876335Y-62226098D01*
X52662171Y-62325964D01*
X52662169Y-62325965D01*
X52468597Y-62461505D01*
X52301505Y-62628597D01*
X52171575Y-62814158D01*
X52116998Y-62857783D01*
X52047500Y-62864977D01*
X51985145Y-62833454D01*
X51968425Y-62814158D01*
X51838494Y-62628597D01*
X51671402Y-62461506D01*
X51671395Y-62461501D01*
X51477834Y-62325967D01*
X51477830Y-62325965D01*
X51406727Y-62292809D01*
X51263663Y-62226097D01*
X51263659Y-62226096D01*
X51263655Y-62226094D01*
X51035413Y-62164938D01*
X51035403Y-62164936D01*
X50800001Y-62144341D01*
X50799999Y-62144341D01*
X50564596Y-62164936D01*
X50564586Y-62164938D01*
X50336344Y-62226094D01*
X50336335Y-62226098D01*
X50122171Y-62325964D01*
X50122169Y-62325965D01*
X49928597Y-62461505D01*
X49761505Y-62628597D01*
X49631575Y-62814158D01*
X49576998Y-62857783D01*
X49507500Y-62864977D01*
X49445145Y-62833454D01*
X49428425Y-62814158D01*
X49298494Y-62628597D01*
X49131402Y-62461506D01*
X49131395Y-62461501D01*
X48937834Y-62325967D01*
X48937830Y-62325965D01*
X48866727Y-62292809D01*
X48723663Y-62226097D01*
X48723659Y-62226096D01*
X48723655Y-62226094D01*
X48495413Y-62164938D01*
X48495403Y-62164936D01*
X48260001Y-62144341D01*
X48259999Y-62144341D01*
X48024596Y-62164936D01*
X48024586Y-62164938D01*
X47796344Y-62226094D01*
X47796335Y-62226098D01*
X47582171Y-62325964D01*
X47582169Y-62325965D01*
X47388597Y-62461505D01*
X47221505Y-62628597D01*
X47091575Y-62814158D01*
X47036998Y-62857783D01*
X46967500Y-62864977D01*
X46905145Y-62833454D01*
X46888425Y-62814158D01*
X46758494Y-62628597D01*
X46591402Y-62461506D01*
X46591395Y-62461501D01*
X46397834Y-62325967D01*
X46397830Y-62325965D01*
X46326727Y-62292809D01*
X46183663Y-62226097D01*
X46183659Y-62226096D01*
X46183655Y-62226094D01*
X45955413Y-62164938D01*
X45955403Y-62164936D01*
X45720001Y-62144341D01*
X45719999Y-62144341D01*
X45484596Y-62164936D01*
X45484586Y-62164938D01*
X45256344Y-62226094D01*
X45256335Y-62226098D01*
X45042171Y-62325964D01*
X45042169Y-62325965D01*
X44848597Y-62461505D01*
X44681505Y-62628597D01*
X44551575Y-62814158D01*
X44496998Y-62857783D01*
X44427500Y-62864977D01*
X44365145Y-62833454D01*
X44348425Y-62814158D01*
X44218494Y-62628597D01*
X44051402Y-62461506D01*
X44051395Y-62461501D01*
X43857834Y-62325967D01*
X43857830Y-62325965D01*
X43786727Y-62292809D01*
X43643663Y-62226097D01*
X43643659Y-62226096D01*
X43643655Y-62226094D01*
X43415413Y-62164938D01*
X43415403Y-62164936D01*
X43180001Y-62144341D01*
X43179999Y-62144341D01*
X42944596Y-62164936D01*
X42944586Y-62164938D01*
X42716344Y-62226094D01*
X42716335Y-62226098D01*
X42502171Y-62325964D01*
X42502169Y-62325965D01*
X42308597Y-62461505D01*
X42141508Y-62628594D01*
X42011574Y-62814159D01*
X41956997Y-62857784D01*
X41887498Y-62864976D01*
X41825144Y-62833454D01*
X41808424Y-62814158D01*
X41678494Y-62628597D01*
X41511402Y-62461506D01*
X41511395Y-62461501D01*
X41317834Y-62325967D01*
X41317830Y-62325965D01*
X41246727Y-62292809D01*
X41103663Y-62226097D01*
X41103659Y-62226096D01*
X41103655Y-62226094D01*
X40875413Y-62164938D01*
X40875403Y-62164936D01*
X40640001Y-62144341D01*
X40639999Y-62144341D01*
X40404596Y-62164936D01*
X40404586Y-62164938D01*
X40176344Y-62226094D01*
X40176335Y-62226098D01*
X39962171Y-62325964D01*
X39962169Y-62325965D01*
X39768597Y-62461505D01*
X39601505Y-62628597D01*
X39471575Y-62814158D01*
X39416998Y-62857783D01*
X39347500Y-62864977D01*
X39285145Y-62833454D01*
X39268425Y-62814158D01*
X39138494Y-62628597D01*
X38971402Y-62461506D01*
X38971395Y-62461501D01*
X38777834Y-62325967D01*
X38777830Y-62325965D01*
X38706727Y-62292809D01*
X38563663Y-62226097D01*
X38563659Y-62226096D01*
X38563655Y-62226094D01*
X38335413Y-62164938D01*
X38335403Y-62164936D01*
X38100001Y-62144341D01*
X38099999Y-62144341D01*
X37864596Y-62164936D01*
X37864586Y-62164938D01*
X37636344Y-62226094D01*
X37636335Y-62226098D01*
X37422171Y-62325964D01*
X37422169Y-62325965D01*
X37228597Y-62461505D01*
X37061505Y-62628597D01*
X36931575Y-62814158D01*
X36876998Y-62857783D01*
X36807500Y-62864977D01*
X36745145Y-62833454D01*
X36728425Y-62814158D01*
X36598494Y-62628597D01*
X36431402Y-62461506D01*
X36431395Y-62461501D01*
X36237834Y-62325967D01*
X36237830Y-62325965D01*
X36166727Y-62292809D01*
X36023663Y-62226097D01*
X36023659Y-62226096D01*
X36023655Y-62226094D01*
X35795413Y-62164938D01*
X35795403Y-62164936D01*
X35560001Y-62144341D01*
X35559999Y-62144341D01*
X35324596Y-62164936D01*
X35324586Y-62164938D01*
X35096344Y-62226094D01*
X35096335Y-62226098D01*
X34882171Y-62325964D01*
X34882169Y-62325965D01*
X34688597Y-62461505D01*
X34521505Y-62628597D01*
X34391575Y-62814158D01*
X34336998Y-62857783D01*
X34267500Y-62864977D01*
X34205145Y-62833454D01*
X34188425Y-62814158D01*
X34058494Y-62628597D01*
X33891402Y-62461506D01*
X33891395Y-62461501D01*
X33697834Y-62325967D01*
X33697830Y-62325965D01*
X33626727Y-62292809D01*
X33483663Y-62226097D01*
X33483659Y-62226096D01*
X33483655Y-62226094D01*
X33255413Y-62164938D01*
X33255403Y-62164936D01*
X33020001Y-62144341D01*
X33019999Y-62144341D01*
X32784596Y-62164936D01*
X32784586Y-62164938D01*
X32556344Y-62226094D01*
X32556335Y-62226098D01*
X32342171Y-62325964D01*
X32342169Y-62325965D01*
X32148597Y-62461505D01*
X31981505Y-62628597D01*
X31851575Y-62814158D01*
X31796998Y-62857783D01*
X31727500Y-62864977D01*
X31665145Y-62833454D01*
X31648425Y-62814158D01*
X31518494Y-62628597D01*
X31351402Y-62461506D01*
X31351395Y-62461501D01*
X31157834Y-62325967D01*
X31157830Y-62325965D01*
X31086727Y-62292809D01*
X30943663Y-62226097D01*
X30943659Y-62226096D01*
X30943655Y-62226094D01*
X30715413Y-62164938D01*
X30715403Y-62164936D01*
X30480001Y-62144341D01*
X30479999Y-62144341D01*
X30244596Y-62164936D01*
X30244586Y-62164938D01*
X30016344Y-62226094D01*
X30016335Y-62226098D01*
X29802171Y-62325964D01*
X29802169Y-62325965D01*
X29608600Y-62461503D01*
X29486284Y-62583819D01*
X29424961Y-62617303D01*
X29355269Y-62612319D01*
X29299336Y-62570447D01*
X29282421Y-62539470D01*
X29233354Y-62407913D01*
X29233350Y-62407906D01*
X29147190Y-62292812D01*
X29147187Y-62292809D01*
X29032093Y-62206649D01*
X29032086Y-62206645D01*
X28897379Y-62156403D01*
X28897372Y-62156401D01*
X28837844Y-62150000D01*
X28190000Y-62150000D01*
X28190000Y-63064498D01*
X28082315Y-63015320D01*
X27975763Y-63000000D01*
X27904237Y-63000000D01*
X27797685Y-63015320D01*
X27690000Y-63064498D01*
X27690000Y-62150000D01*
X27042155Y-62150000D01*
X26982627Y-62156401D01*
X26982620Y-62156403D01*
X26847913Y-62206645D01*
X26847906Y-62206649D01*
X26732812Y-62292809D01*
X26732809Y-62292812D01*
X26646649Y-62407906D01*
X26646645Y-62407913D01*
X26596403Y-62542620D01*
X26596401Y-62542627D01*
X26590000Y-62602155D01*
X26590000Y-62602172D01*
X26589999Y-63250000D01*
X25400500Y-63250000D01*
X25400500Y-57245023D01*
X32185305Y-57245023D01*
X32291368Y-57310019D01*
X32524043Y-57406396D01*
X32768927Y-57465187D01*
X33019999Y-57484947D01*
X33271072Y-57465187D01*
X33515956Y-57406396D01*
X33748627Y-57310020D01*
X33854692Y-57245022D01*
X33020000Y-56410330D01*
X32185305Y-57245022D01*
X32185305Y-57245023D01*
X25400500Y-57245023D01*
X25400500Y-55880000D01*
X31415052Y-55880000D01*
X31434812Y-56131072D01*
X31493603Y-56375956D01*
X31589980Y-56608631D01*
X31654976Y-56714693D01*
X32417781Y-55951889D01*
X32520000Y-55951889D01*
X32560507Y-56089844D01*
X32638239Y-56210798D01*
X32746900Y-56304952D01*
X32877685Y-56364680D01*
X32984237Y-56380000D01*
X33055763Y-56380000D01*
X33162315Y-56364680D01*
X33293100Y-56304952D01*
X33401761Y-56210798D01*
X33479493Y-56089844D01*
X33520000Y-55951889D01*
X33520000Y-55880000D01*
X33550329Y-55880000D01*
X34385022Y-56714692D01*
X34450020Y-56608627D01*
X34546396Y-56375956D01*
X34605187Y-56131072D01*
X34624947Y-55879999D01*
X34605187Y-55628927D01*
X34546396Y-55384043D01*
X34450019Y-55151368D01*
X34385022Y-55045305D01*
X33550329Y-55879999D01*
X33550329Y-55880000D01*
X33520000Y-55880000D01*
X33520000Y-55808111D01*
X33479493Y-55670156D01*
X33401761Y-55549202D01*
X33293100Y-55455048D01*
X33162315Y-55395320D01*
X33055763Y-55380000D01*
X32984237Y-55380000D01*
X32877685Y-55395320D01*
X32746900Y-55455048D01*
X32638239Y-55549202D01*
X32560507Y-55670156D01*
X32520000Y-55808111D01*
X32520000Y-55951889D01*
X32417781Y-55951889D01*
X32489670Y-55880000D01*
X32489670Y-55879999D01*
X31654976Y-55045305D01*
X31589980Y-55151371D01*
X31589977Y-55151376D01*
X31493603Y-55384043D01*
X31434812Y-55628927D01*
X31415052Y-55880000D01*
X25400500Y-55880000D01*
X25400500Y-53340000D01*
X31664341Y-53340000D01*
X31684936Y-53575403D01*
X31684938Y-53575413D01*
X31746094Y-53803655D01*
X31746096Y-53803659D01*
X31746097Y-53803663D01*
X31845965Y-54017829D01*
X31845965Y-54017830D01*
X31845967Y-54017834D01*
X31981501Y-54211395D01*
X31981506Y-54211402D01*
X32152427Y-54382323D01*
X32150801Y-54383948D01*
X32184075Y-54433949D01*
X32188812Y-54485354D01*
X32185305Y-54514976D01*
X33020000Y-55349670D01*
X33020001Y-55349670D01*
X33854693Y-54514977D01*
X33851187Y-54485358D01*
X33862854Y-54416470D01*
X33888674Y-54383425D01*
X33887573Y-54382324D01*
X33973032Y-54296862D01*
X34058495Y-54211401D01*
X34194035Y-54017830D01*
X34293903Y-53803663D01*
X34355063Y-53575408D01*
X34375659Y-53340000D01*
X34355063Y-53104592D01*
X34293903Y-52876337D01*
X34194035Y-52662171D01*
X34058495Y-52468599D01*
X34058494Y-52468597D01*
X33891402Y-52301506D01*
X33891396Y-52301501D01*
X33705842Y-52171575D01*
X33662217Y-52116998D01*
X33655023Y-52047500D01*
X33686546Y-51985145D01*
X33705842Y-51968425D01*
X33728026Y-51952891D01*
X33891401Y-51838495D01*
X34058495Y-51671401D01*
X34194035Y-51477830D01*
X34293903Y-51263663D01*
X34355063Y-51035408D01*
X34375659Y-50800000D01*
X34355063Y-50564592D01*
X34293903Y-50336337D01*
X34194035Y-50122171D01*
X34058495Y-49928599D01*
X34058494Y-49928597D01*
X33891402Y-49761506D01*
X33891396Y-49761501D01*
X33705842Y-49631575D01*
X33662217Y-49576998D01*
X33655023Y-49507500D01*
X33686546Y-49445145D01*
X33705842Y-49428425D01*
X33728026Y-49412891D01*
X33891401Y-49298495D01*
X34058495Y-49131401D01*
X34194035Y-48937830D01*
X34293903Y-48723663D01*
X34355063Y-48495408D01*
X34375659Y-48260000D01*
X34355063Y-48024592D01*
X34293903Y-47796337D01*
X34194035Y-47582171D01*
X34171663Y-47550221D01*
X34058496Y-47388600D01*
X34005284Y-47335388D01*
X33936567Y-47266671D01*
X33903084Y-47205351D01*
X33908068Y-47135659D01*
X33949939Y-47079725D01*
X33980915Y-47062810D01*
X34112331Y-47013796D01*
X34227546Y-46927546D01*
X34313796Y-46812331D01*
X34364091Y-46677483D01*
X34370500Y-46617873D01*
X34370499Y-44822128D01*
X34364091Y-44762517D01*
X34362809Y-44759081D01*
X34313797Y-44627671D01*
X34313793Y-44627664D01*
X34227547Y-44512455D01*
X34227544Y-44512452D01*
X34112335Y-44426206D01*
X34112328Y-44426202D01*
X33977482Y-44375908D01*
X33977483Y-44375908D01*
X33917883Y-44369501D01*
X33917881Y-44369500D01*
X33917873Y-44369500D01*
X33917864Y-44369500D01*
X32122129Y-44369500D01*
X32122123Y-44369501D01*
X32062516Y-44375908D01*
X31927671Y-44426202D01*
X31927664Y-44426206D01*
X31812455Y-44512452D01*
X31812452Y-44512455D01*
X31726206Y-44627664D01*
X31726202Y-44627671D01*
X31675908Y-44762517D01*
X31671510Y-44803430D01*
X31669501Y-44822123D01*
X31669500Y-44822135D01*
X31669500Y-46617870D01*
X31669501Y-46617876D01*
X31675908Y-46677483D01*
X31726202Y-46812328D01*
X31726206Y-46812335D01*
X31812452Y-46927544D01*
X31812455Y-46927547D01*
X31927664Y-47013793D01*
X31927671Y-47013797D01*
X32059081Y-47062810D01*
X32115015Y-47104681D01*
X32139432Y-47170145D01*
X32124580Y-47238418D01*
X32103430Y-47266673D01*
X31981503Y-47388600D01*
X31845965Y-47582169D01*
X31845964Y-47582171D01*
X31746098Y-47796335D01*
X31746094Y-47796344D01*
X31684938Y-48024586D01*
X31684936Y-48024596D01*
X31664341Y-48259999D01*
X31664341Y-48260000D01*
X31684936Y-48495403D01*
X31684938Y-48495413D01*
X31746094Y-48723655D01*
X31746096Y-48723659D01*
X31746097Y-48723663D01*
X31806722Y-48853673D01*
X31845965Y-48937830D01*
X31845967Y-48937834D01*
X31981501Y-49131395D01*
X31981506Y-49131402D01*
X32148597Y-49298493D01*
X32148603Y-49298498D01*
X32334158Y-49428425D01*
X32377783Y-49483002D01*
X32384977Y-49552500D01*
X32353454Y-49614855D01*
X32334158Y-49631575D01*
X32148597Y-49761505D01*
X31981505Y-49928597D01*
X31845965Y-50122169D01*
X31845964Y-50122171D01*
X31746098Y-50336335D01*
X31746094Y-50336344D01*
X31684938Y-50564586D01*
X31684936Y-50564596D01*
X31664341Y-50799999D01*
X31664341Y-50800000D01*
X31684936Y-51035403D01*
X31684938Y-51035413D01*
X31746094Y-51263655D01*
X31746096Y-51263659D01*
X31746097Y-51263663D01*
X31845964Y-51477830D01*
X31845965Y-51477830D01*
X31845967Y-51477834D01*
X31981501Y-51671395D01*
X31981506Y-51671402D01*
X32148597Y-51838493D01*
X32148603Y-51838498D01*
X32334158Y-51968425D01*
X32377783Y-52023002D01*
X32384977Y-52092500D01*
X32353454Y-52154855D01*
X32334158Y-52171575D01*
X32148597Y-52301505D01*
X31981505Y-52468597D01*
X31845965Y-52662169D01*
X31845964Y-52662171D01*
X31746098Y-52876335D01*
X31746094Y-52876344D01*
X31684938Y-53104586D01*
X31684936Y-53104596D01*
X31664341Y-53339999D01*
X31664341Y-53340000D01*
X25400500Y-53340000D01*
X25400500Y-17904500D01*
X25420185Y-17837461D01*
X25472989Y-17791706D01*
X25524500Y-17780500D01*
X109095500Y-17780500D01*
X109162539Y-17800185D01*
G37*
%TD.AperFunction*%
%TD*%
%TA.AperFunction,Conductor*%
%TO.N,RDY*%
G36*
X71488044Y-41761253D02*
G01*
X71494206Y-41767239D01*
X71770747Y-42379928D01*
X71771027Y-42388878D01*
X71768356Y-42393014D01*
X71603014Y-42558356D01*
X71594741Y-42561783D01*
X71589928Y-42560747D01*
X70977239Y-42284206D01*
X70971108Y-42277679D01*
X70971232Y-42269090D01*
X71117437Y-41913802D01*
X71123753Y-41907457D01*
X71479090Y-41761232D01*
X71488044Y-41761253D01*
G37*
%TD.AperFunction*%
%TD*%
%TA.AperFunction,Conductor*%
%TO.N,D7*%
G36*
X104620294Y-38369728D02*
G01*
X104626280Y-38375890D01*
X104774123Y-38730497D01*
X104774144Y-38739451D01*
X104774123Y-38739501D01*
X104626280Y-39094109D01*
X104619933Y-39100427D01*
X104611344Y-39100551D01*
X103982563Y-38862858D01*
X103976036Y-38856727D01*
X103975000Y-38851914D01*
X103975000Y-38618085D01*
X103978427Y-38609812D01*
X103982563Y-38607141D01*
X104611345Y-38369448D01*
X104620294Y-38369728D01*
G37*
%TD.AperFunction*%
%TD*%
%TA.AperFunction,Conductor*%
%TO.N,~{NMI}*%
G36*
X103033251Y-62211968D02*
G01*
X103515027Y-62381102D01*
X104453629Y-62710611D01*
X104460300Y-62716584D01*
X104460792Y-62725526D01*
X104460567Y-62726116D01*
X104142562Y-63496214D01*
X104136237Y-63502553D01*
X104136214Y-63502562D01*
X103366116Y-63820567D01*
X103357161Y-63820558D01*
X103350836Y-63814219D01*
X103350611Y-63813629D01*
X103240755Y-63500707D01*
X102964818Y-62714702D01*
X102851968Y-62393251D01*
X102852460Y-62384309D01*
X102854731Y-62381105D01*
X103021103Y-62214733D01*
X103029375Y-62211307D01*
X103033251Y-62211968D01*
G37*
%TD.AperFunction*%
%TD*%
%TA.AperFunction,Conductor*%
%TO.N,R~W*%
G36*
X106525294Y-40274728D02*
G01*
X106531280Y-40280890D01*
X106679123Y-40635498D01*
X106679144Y-40644452D01*
X106679123Y-40644502D01*
X106531280Y-40999109D01*
X106524933Y-41005427D01*
X106516344Y-41005551D01*
X105887563Y-40767858D01*
X105881036Y-40761727D01*
X105880000Y-40756914D01*
X105880000Y-40523085D01*
X105883427Y-40514812D01*
X105887563Y-40512141D01*
X106516345Y-40274448D01*
X106525294Y-40274728D01*
G37*
%TD.AperFunction*%
%TD*%
%TA.AperFunction,Conductor*%
%TO.N,CLK*%
G36*
X76982838Y-27619441D02*
G01*
X76989163Y-27625780D01*
X76989388Y-27626370D01*
X77488031Y-29046748D01*
X77487539Y-29055690D01*
X77485265Y-29058897D01*
X77318897Y-29225265D01*
X77310624Y-29228692D01*
X77306748Y-29228031D01*
X75886370Y-28729388D01*
X75879699Y-28723415D01*
X75879207Y-28714473D01*
X75879423Y-28713905D01*
X76197438Y-27943783D01*
X76203759Y-27937448D01*
X76973884Y-27619432D01*
X76982838Y-27619441D01*
G37*
%TD.AperFunction*%
%TD*%
%TA.AperFunction,Conductor*%
%TO.N,~{RESET}*%
G36*
X105573251Y-62211968D02*
G01*
X106055027Y-62381102D01*
X106993629Y-62710611D01*
X107000300Y-62716584D01*
X107000792Y-62725526D01*
X107000567Y-62726116D01*
X106682562Y-63496214D01*
X106676237Y-63502553D01*
X106676214Y-63502562D01*
X105906116Y-63820567D01*
X105897161Y-63820558D01*
X105890836Y-63814219D01*
X105890611Y-63813629D01*
X105780755Y-63500707D01*
X105504818Y-62714702D01*
X105391968Y-62393251D01*
X105392460Y-62384309D01*
X105394731Y-62381105D01*
X105561103Y-62214733D01*
X105569375Y-62211307D01*
X105573251Y-62211968D01*
G37*
%TD.AperFunction*%
%TD*%
%TA.AperFunction,Conductor*%
%TO.N,R~W*%
G36*
X79522838Y-27619441D02*
G01*
X79529163Y-27625780D01*
X79529388Y-27626370D01*
X80028031Y-29046748D01*
X80027539Y-29055690D01*
X80025265Y-29058897D01*
X79858897Y-29225265D01*
X79850624Y-29228692D01*
X79846748Y-29228031D01*
X78426370Y-28729388D01*
X78419699Y-28723415D01*
X78419207Y-28714473D01*
X78419423Y-28713905D01*
X78737438Y-27943783D01*
X78743759Y-27937448D01*
X79513884Y-27619432D01*
X79522838Y-27619441D01*
G37*
%TD.AperFunction*%
%TD*%
%TA.AperFunction,Conductor*%
%TO.N,D7*%
G36*
X82062838Y-27619441D02*
G01*
X82069163Y-27625780D01*
X82069388Y-27626370D01*
X82568031Y-29046748D01*
X82567539Y-29055690D01*
X82565265Y-29058897D01*
X82398897Y-29225265D01*
X82390624Y-29228692D01*
X82386748Y-29228031D01*
X80966370Y-28729388D01*
X80959699Y-28723415D01*
X80959207Y-28714473D01*
X80959423Y-28713905D01*
X81277438Y-27943783D01*
X81283759Y-27937448D01*
X82053884Y-27619432D01*
X82062838Y-27619441D01*
G37*
%TD.AperFunction*%
%TD*%
%TA.AperFunction,Conductor*%
%TO.N,D3*%
G36*
X92222838Y-27619441D02*
G01*
X92229163Y-27625780D01*
X92229388Y-27626370D01*
X92728031Y-29046748D01*
X92727539Y-29055690D01*
X92725265Y-29058897D01*
X92558897Y-29225265D01*
X92550624Y-29228692D01*
X92546748Y-29228031D01*
X91126370Y-28729388D01*
X91119699Y-28723415D01*
X91119207Y-28714473D01*
X91119423Y-28713905D01*
X91437438Y-27943783D01*
X91443759Y-27937448D01*
X92213884Y-27619432D01*
X92222838Y-27619441D01*
G37*
%TD.AperFunction*%
%TD*%
%TA.AperFunction,Conductor*%
%TO.N,CLK*%
G36*
X108430294Y-42179728D02*
G01*
X108436280Y-42185890D01*
X108584123Y-42540498D01*
X108584144Y-42549452D01*
X108584123Y-42549502D01*
X108436280Y-42904109D01*
X108429933Y-42910427D01*
X108421344Y-42910551D01*
X107792563Y-42672858D01*
X107786036Y-42666727D01*
X107785000Y-42661914D01*
X107785000Y-42428085D01*
X107788427Y-42419812D01*
X107792563Y-42417141D01*
X108421345Y-42179448D01*
X108430294Y-42179728D01*
G37*
%TD.AperFunction*%
%TD*%
%TA.AperFunction,Conductor*%
%TO.N,~{RESET}*%
G36*
X63680696Y-35835890D02*
G01*
X64292436Y-36067141D01*
X64298963Y-36073272D01*
X64299999Y-36078085D01*
X64299999Y-36311914D01*
X64296572Y-36320187D01*
X64292436Y-36322858D01*
X63663655Y-36560551D01*
X63654705Y-36560271D01*
X63648719Y-36554109D01*
X63552306Y-36322858D01*
X63500875Y-36199499D01*
X63500855Y-36190550D01*
X63648719Y-35835889D01*
X63655066Y-35829572D01*
X63663654Y-35829448D01*
X63680696Y-35835890D01*
G37*
%TD.AperFunction*%
%TD*%
%TA.AperFunction,Conductor*%
%TO.N,D6*%
G36*
X84602838Y-27619441D02*
G01*
X84609163Y-27625780D01*
X84609388Y-27626370D01*
X85108031Y-29046748D01*
X85107539Y-29055690D01*
X85105265Y-29058897D01*
X84938897Y-29225265D01*
X84930624Y-29228692D01*
X84926748Y-29228031D01*
X83506370Y-28729388D01*
X83499699Y-28723415D01*
X83499207Y-28714473D01*
X83499423Y-28713905D01*
X83817438Y-27943783D01*
X83823759Y-27937448D01*
X84593884Y-27619432D01*
X84602838Y-27619441D01*
G37*
%TD.AperFunction*%
%TD*%
%TA.AperFunction,Conductor*%
%TO.N,D6*%
G36*
X102715294Y-36464728D02*
G01*
X102721280Y-36470890D01*
X102869123Y-36825498D01*
X102869144Y-36834452D01*
X102869123Y-36834502D01*
X102721280Y-37189109D01*
X102714933Y-37195427D01*
X102706344Y-37195551D01*
X102077563Y-36957858D01*
X102071036Y-36951727D01*
X102070000Y-36946914D01*
X102070000Y-36713085D01*
X102073427Y-36704812D01*
X102077563Y-36702141D01*
X102706345Y-36464448D01*
X102715294Y-36464728D01*
G37*
%TD.AperFunction*%
%TD*%
%TA.AperFunction,Conductor*%
%TO.N,D4*%
G36*
X98905294Y-32019728D02*
G01*
X98911280Y-32025890D01*
X99059123Y-32380498D01*
X99059144Y-32389452D01*
X99059123Y-32389502D01*
X98911280Y-32744109D01*
X98904933Y-32750427D01*
X98896344Y-32750551D01*
X98267563Y-32512858D01*
X98261036Y-32506727D01*
X98260000Y-32501914D01*
X98260000Y-32268085D01*
X98263427Y-32259812D01*
X98267563Y-32257141D01*
X98896345Y-32019448D01*
X98905294Y-32019728D01*
G37*
%TD.AperFunction*%
%TD*%
%TA.AperFunction,Conductor*%
%TO.N,~{IRQ}*%
G36*
X68760696Y-39645890D02*
G01*
X69372437Y-39877141D01*
X69378964Y-39883272D01*
X69380000Y-39888085D01*
X69380000Y-40121914D01*
X69376573Y-40130187D01*
X69372437Y-40132858D01*
X68743655Y-40370551D01*
X68734705Y-40370271D01*
X68728719Y-40364109D01*
X68632306Y-40132858D01*
X68580875Y-40009499D01*
X68580855Y-40000550D01*
X68728719Y-39645889D01*
X68735066Y-39639572D01*
X68743654Y-39639448D01*
X68760696Y-39645890D01*
G37*
%TD.AperFunction*%
%TD*%
%TA.AperFunction,Conductor*%
%TO.N,D5*%
G36*
X100810294Y-34559728D02*
G01*
X100816280Y-34565890D01*
X100964123Y-34920498D01*
X100964144Y-34929452D01*
X100964123Y-34929502D01*
X100816280Y-35284109D01*
X100809933Y-35290427D01*
X100801344Y-35290551D01*
X100172563Y-35052858D01*
X100166036Y-35046727D01*
X100165000Y-35041914D01*
X100165000Y-34808085D01*
X100168427Y-34799812D01*
X100172563Y-34797141D01*
X100801345Y-34559448D01*
X100810294Y-34559728D01*
G37*
%TD.AperFunction*%
%TD*%
%TA.AperFunction,Conductor*%
%TO.N,D3*%
G36*
X97000294Y-30114728D02*
G01*
X97006280Y-30120890D01*
X97154123Y-30475498D01*
X97154144Y-30484452D01*
X97154123Y-30484502D01*
X97006280Y-30839109D01*
X96999933Y-30845427D01*
X96991344Y-30845551D01*
X96362563Y-30607858D01*
X96356036Y-30601727D01*
X96355000Y-30596914D01*
X96355000Y-30363085D01*
X96358427Y-30354812D01*
X96362563Y-30352141D01*
X96991345Y-30114448D01*
X97000294Y-30114728D01*
G37*
%TD.AperFunction*%
%TD*%
%TA.AperFunction,Conductor*%
%TO.N,D5*%
G36*
X87142838Y-27619441D02*
G01*
X87149163Y-27625780D01*
X87149388Y-27626370D01*
X87648031Y-29046748D01*
X87647539Y-29055690D01*
X87645265Y-29058897D01*
X87478897Y-29225265D01*
X87470624Y-29228692D01*
X87466748Y-29228031D01*
X86046370Y-28729388D01*
X86039699Y-28723415D01*
X86039207Y-28714473D01*
X86039423Y-28713905D01*
X86357438Y-27943783D01*
X86363759Y-27937448D01*
X87133884Y-27619432D01*
X87142838Y-27619441D01*
G37*
%TD.AperFunction*%
%TD*%
%TA.AperFunction,Conductor*%
%TO.N,RDY*%
G36*
X97953251Y-62211968D02*
G01*
X98435027Y-62381102D01*
X99373629Y-62710611D01*
X99380300Y-62716584D01*
X99380792Y-62725526D01*
X99380567Y-62726116D01*
X99062562Y-63496214D01*
X99056237Y-63502553D01*
X99056214Y-63502562D01*
X98286116Y-63820567D01*
X98277161Y-63820558D01*
X98270836Y-63814219D01*
X98270611Y-63813629D01*
X98160755Y-63500707D01*
X97884818Y-62714702D01*
X97771968Y-62393251D01*
X97772460Y-62384309D01*
X97774731Y-62381105D01*
X97941103Y-62214733D01*
X97949375Y-62211307D01*
X97953251Y-62211968D01*
G37*
%TD.AperFunction*%
%TD*%
M02*
