%TF.GenerationSoftware,KiCad,Pcbnew,7.0.5*%
%TF.CreationDate,2023-06-09T17:20:31+02:00*%
%TF.ProjectId,Sorbus-Chipset-PurplePico,536f7262-7573-42d4-9368-69707365742d,rev?*%
%TF.SameCoordinates,Original*%
%TF.FileFunction,Plated,1,2,PTH,Drill*%
%TF.FilePolarity,Positive*%
%FSLAX46Y46*%
G04 Gerber Fmt 4.6, Leading zero omitted, Abs format (unit mm)*
G04 Created by KiCad (PCBNEW 7.0.5) date 2023-06-09 17:20:31*
%MOMM*%
%LPD*%
G01*
G04 APERTURE LIST*
%TA.AperFunction,ViaDrill*%
%ADD10C,0.400000*%
%TD*%
%TA.AperFunction,ComponentDrill*%
%ADD11C,1.000000*%
%TD*%
G04 APERTURE END LIST*
D10*
X31750000Y-60960000D03*
X34290000Y-60960000D03*
X35560000Y-49530000D03*
X36830000Y-60960000D03*
X39370000Y-60960000D03*
X41910000Y-60960000D03*
X44450000Y-48260000D03*
X44450000Y-60960000D03*
X46990000Y-48260000D03*
X46990000Y-60960000D03*
X49530000Y-48260000D03*
X49530000Y-60960000D03*
X52070000Y-48260000D03*
X52070000Y-60960000D03*
X54610000Y-60960000D03*
X55880000Y-30480000D03*
X55880000Y-48260000D03*
X57150000Y-60960000D03*
X59690000Y-48260000D03*
X59690000Y-60960000D03*
X62230000Y-30480000D03*
X62230000Y-48260000D03*
X62230000Y-60960000D03*
X63500000Y-36195000D03*
X64770000Y-30480000D03*
X64770000Y-48260000D03*
X64770000Y-60960000D03*
X66040000Y-38100000D03*
X67310000Y-30480000D03*
X67310000Y-48260000D03*
X67310000Y-60960000D03*
X68580000Y-40005000D03*
X69850000Y-30480000D03*
X69850000Y-48260000D03*
X69850000Y-60960000D03*
X71120000Y-41910000D03*
X72390000Y-30480000D03*
X72390000Y-48260000D03*
X72390000Y-60960000D03*
X73660000Y-43180000D03*
X74930000Y-48260000D03*
X74930000Y-60960000D03*
X76200000Y-30480000D03*
X76200000Y-43180000D03*
X77470000Y-48260000D03*
X77470000Y-60960000D03*
X78740000Y-43180000D03*
X80010000Y-30480000D03*
X80010000Y-48260000D03*
X80010000Y-60960000D03*
X82550000Y-30480000D03*
X82550000Y-48260000D03*
X82550000Y-60960000D03*
X85090000Y-30480000D03*
X85090000Y-48260000D03*
X85090000Y-60960000D03*
X87630000Y-30480000D03*
X87630000Y-48260000D03*
X87630000Y-60960000D03*
X90170000Y-30480000D03*
X90170000Y-48260000D03*
X90170000Y-60960000D03*
X92710000Y-30480000D03*
X92710000Y-48260000D03*
X92710000Y-60960000D03*
X95250000Y-48260000D03*
X95250000Y-60960000D03*
X97155000Y-30480000D03*
X97790000Y-60960000D03*
X99060000Y-32385000D03*
X100330000Y-60960000D03*
X100965000Y-34925000D03*
X102870000Y-36830000D03*
X102870000Y-60960000D03*
X104775000Y-38735000D03*
X105410000Y-60960000D03*
X106680000Y-40640000D03*
X108585000Y-42545000D03*
D11*
%TO.C,J1*%
X27940000Y-63500000D03*
X30480000Y-63500000D03*
%TO.C,J4*%
X33020000Y-45720000D03*
X33020000Y-48260000D03*
X33020000Y-50800000D03*
X33020000Y-53340000D03*
X33020000Y-55880000D03*
%TO.C,J1*%
X33020000Y-63500000D03*
X35560000Y-63500000D03*
X38100000Y-63500000D03*
X40640000Y-63500000D03*
X43180000Y-63500000D03*
%TO.C,J3*%
X45720000Y-27940000D03*
%TO.C,J2*%
X45720000Y-45720000D03*
%TO.C,J1*%
X45720000Y-63500000D03*
%TO.C,J3*%
X48260000Y-27940000D03*
%TO.C,J2*%
X48260000Y-45720000D03*
%TO.C,J1*%
X48260000Y-63500000D03*
%TO.C,J3*%
X50800000Y-27940000D03*
%TO.C,J2*%
X50800000Y-45720000D03*
%TO.C,J1*%
X50800000Y-63500000D03*
%TO.C,J3*%
X53340000Y-27940000D03*
%TO.C,J2*%
X53340000Y-45720000D03*
%TO.C,J1*%
X53340000Y-63500000D03*
%TO.C,J3*%
X55880000Y-27940000D03*
%TO.C,J2*%
X55880000Y-45720000D03*
%TO.C,J1*%
X55880000Y-63500000D03*
%TO.C,J3*%
X58420000Y-27940000D03*
%TO.C,J2*%
X58420000Y-45720000D03*
%TO.C,J1*%
X58420000Y-63500000D03*
%TO.C,J3*%
X60960000Y-27940000D03*
%TO.C,J2*%
X60960000Y-45720000D03*
%TO.C,J1*%
X60960000Y-63500000D03*
%TO.C,J3*%
X63500000Y-27940000D03*
%TO.C,J2*%
X63500000Y-45720000D03*
%TO.C,J1*%
X63500000Y-63500000D03*
%TO.C,J3*%
X66040000Y-27940000D03*
%TO.C,J2*%
X66040000Y-45720000D03*
%TO.C,J1*%
X66040000Y-63500000D03*
%TO.C,J3*%
X68580000Y-27940000D03*
%TO.C,J2*%
X68580000Y-45720000D03*
%TO.C,J1*%
X68580000Y-63500000D03*
%TO.C,J3*%
X71120000Y-27940000D03*
%TO.C,J2*%
X71120000Y-45720000D03*
%TO.C,J1*%
X71120000Y-63500000D03*
%TO.C,J3*%
X73660000Y-27940000D03*
%TO.C,J2*%
X73660000Y-45720000D03*
%TO.C,J1*%
X73660000Y-63500000D03*
%TO.C,J3*%
X76200000Y-27940000D03*
%TO.C,J2*%
X76200000Y-45720000D03*
%TO.C,J1*%
X76200000Y-63500000D03*
%TO.C,J3*%
X78740000Y-27940000D03*
%TO.C,J2*%
X78740000Y-45720000D03*
%TO.C,J1*%
X78740000Y-63500000D03*
%TO.C,J3*%
X81280000Y-27940000D03*
%TO.C,J2*%
X81280000Y-45720000D03*
%TO.C,J1*%
X81280000Y-63500000D03*
%TO.C,J3*%
X83820000Y-27940000D03*
%TO.C,J2*%
X83820000Y-45720000D03*
%TO.C,J1*%
X83820000Y-63500000D03*
%TO.C,J3*%
X86360000Y-27940000D03*
%TO.C,J2*%
X86360000Y-45720000D03*
%TO.C,J1*%
X86360000Y-63500000D03*
%TO.C,J3*%
X88900000Y-27940000D03*
%TO.C,J2*%
X88900000Y-45720000D03*
%TO.C,J1*%
X88900000Y-63500000D03*
%TO.C,J3*%
X91440000Y-27940000D03*
%TO.C,J2*%
X91440000Y-45720000D03*
%TO.C,J1*%
X91440000Y-63500000D03*
%TO.C,J3*%
X93980000Y-27940000D03*
%TO.C,J2*%
X93980000Y-45720000D03*
%TO.C,J1*%
X93980000Y-63500000D03*
X96520000Y-63500000D03*
X99060000Y-63500000D03*
X101600000Y-63500000D03*
X104140000Y-63500000D03*
X106680000Y-63500000D03*
M02*
