%TF.GenerationSoftware,KiCad,Pcbnew,7.0.5*%
%TF.CreationDate,2023-06-09T17:15:13+02:00*%
%TF.ProjectId,Sorbus-backplane,536f7262-7573-42d6-9261-636b706c616e,rev?*%
%TF.SameCoordinates,Original*%
%TF.FileFunction,Soldermask,Bot*%
%TF.FilePolarity,Negative*%
%FSLAX46Y46*%
G04 Gerber Fmt 4.6, Leading zero omitted, Abs format (unit mm)*
G04 Created by KiCad (PCBNEW 7.0.5) date 2023-06-09 17:15:13*
%MOMM*%
%LPD*%
G01*
G04 APERTURE LIST*
%ADD10R,1.700000X1.700000*%
%ADD11O,1.700000X1.700000*%
G04 APERTURE END LIST*
D10*
%TO.C,J6*%
X152400000Y-127000000D03*
D11*
X152400000Y-124460000D03*
X152400000Y-121920000D03*
X152400000Y-119380000D03*
X152400000Y-116840000D03*
X152400000Y-114300000D03*
X152400000Y-111760000D03*
X152400000Y-109220000D03*
X152400000Y-106680000D03*
X152400000Y-104140000D03*
X152400000Y-101600000D03*
X152400000Y-99060000D03*
X152400000Y-96520000D03*
X152400000Y-93980000D03*
X152400000Y-91440000D03*
X152400000Y-88900000D03*
X152400000Y-86360000D03*
X152400000Y-83820000D03*
X152400000Y-81280000D03*
X152400000Y-78740000D03*
X152400000Y-76200000D03*
X152400000Y-73660000D03*
X152400000Y-71120000D03*
X152400000Y-68580000D03*
X152400000Y-66040000D03*
X152400000Y-63500000D03*
X152400000Y-60960000D03*
X152400000Y-58420000D03*
X152400000Y-55880000D03*
X152400000Y-53340000D03*
X152400000Y-50800000D03*
X152400000Y-48260000D03*
%TD*%
D10*
%TO.C,J4*%
X127000000Y-127000000D03*
D11*
X127000000Y-124460000D03*
X127000000Y-121920000D03*
X127000000Y-119380000D03*
X127000000Y-116840000D03*
X127000000Y-114300000D03*
X127000000Y-111760000D03*
X127000000Y-109220000D03*
X127000000Y-106680000D03*
X127000000Y-104140000D03*
X127000000Y-101600000D03*
X127000000Y-99060000D03*
X127000000Y-96520000D03*
X127000000Y-93980000D03*
X127000000Y-91440000D03*
X127000000Y-88900000D03*
X127000000Y-86360000D03*
X127000000Y-83820000D03*
X127000000Y-81280000D03*
X127000000Y-78740000D03*
X127000000Y-76200000D03*
X127000000Y-73660000D03*
X127000000Y-71120000D03*
X127000000Y-68580000D03*
X127000000Y-66040000D03*
X127000000Y-63500000D03*
X127000000Y-60960000D03*
X127000000Y-58420000D03*
X127000000Y-55880000D03*
X127000000Y-53340000D03*
X127000000Y-50800000D03*
X127000000Y-48260000D03*
%TD*%
D10*
%TO.C,J1*%
X88900000Y-127000000D03*
D11*
X88900000Y-124460000D03*
X88900000Y-121920000D03*
X88900000Y-119380000D03*
X88900000Y-116840000D03*
X88900000Y-114300000D03*
X88900000Y-111760000D03*
X88900000Y-109220000D03*
X88900000Y-106680000D03*
X88900000Y-104140000D03*
X88900000Y-101600000D03*
X88900000Y-99060000D03*
X88900000Y-96520000D03*
X88900000Y-93980000D03*
X88900000Y-91440000D03*
X88900000Y-88900000D03*
X88900000Y-86360000D03*
X88900000Y-83820000D03*
X88900000Y-81280000D03*
X88900000Y-78740000D03*
X88900000Y-76200000D03*
X88900000Y-73660000D03*
X88900000Y-71120000D03*
X88900000Y-68580000D03*
X88900000Y-66040000D03*
X88900000Y-63500000D03*
X88900000Y-60960000D03*
X88900000Y-58420000D03*
X88900000Y-55880000D03*
X88900000Y-53340000D03*
X88900000Y-50800000D03*
X88900000Y-48260000D03*
%TD*%
D10*
%TO.C,J5*%
X139700000Y-127000000D03*
D11*
X139700000Y-124460000D03*
X139700000Y-121920000D03*
X139700000Y-119380000D03*
X139700000Y-116840000D03*
X139700000Y-114300000D03*
X139700000Y-111760000D03*
X139700000Y-109220000D03*
X139700000Y-106680000D03*
X139700000Y-104140000D03*
X139700000Y-101600000D03*
X139700000Y-99060000D03*
X139700000Y-96520000D03*
X139700000Y-93980000D03*
X139700000Y-91440000D03*
X139700000Y-88900000D03*
X139700000Y-86360000D03*
X139700000Y-83820000D03*
X139700000Y-81280000D03*
X139700000Y-78740000D03*
X139700000Y-76200000D03*
X139700000Y-73660000D03*
X139700000Y-71120000D03*
X139700000Y-68580000D03*
X139700000Y-66040000D03*
X139700000Y-63500000D03*
X139700000Y-60960000D03*
X139700000Y-58420000D03*
X139700000Y-55880000D03*
X139700000Y-53340000D03*
X139700000Y-50800000D03*
X139700000Y-48260000D03*
%TD*%
D10*
%TO.C,J7*%
X76200000Y-127000000D03*
D11*
X76200000Y-124460000D03*
X76200000Y-121920000D03*
X76200000Y-119380000D03*
%TD*%
D10*
%TO.C,J2*%
X101600000Y-127000000D03*
D11*
X101600000Y-124460000D03*
X101600000Y-121920000D03*
X101600000Y-119380000D03*
X101600000Y-116840000D03*
X101600000Y-114300000D03*
X101600000Y-111760000D03*
X101600000Y-109220000D03*
X101600000Y-106680000D03*
X101600000Y-104140000D03*
X101600000Y-101600000D03*
X101600000Y-99060000D03*
X101600000Y-96520000D03*
X101600000Y-93980000D03*
X101600000Y-91440000D03*
X101600000Y-88900000D03*
X101600000Y-86360000D03*
X101600000Y-83820000D03*
X101600000Y-81280000D03*
X101600000Y-78740000D03*
X101600000Y-76200000D03*
X101600000Y-73660000D03*
X101600000Y-71120000D03*
X101600000Y-68580000D03*
X101600000Y-66040000D03*
X101600000Y-63500000D03*
X101600000Y-60960000D03*
X101600000Y-58420000D03*
X101600000Y-55880000D03*
X101600000Y-53340000D03*
X101600000Y-50800000D03*
X101600000Y-48260000D03*
%TD*%
D10*
%TO.C,J3*%
X114300000Y-127000000D03*
D11*
X114300000Y-124460000D03*
X114300000Y-121920000D03*
X114300000Y-119380000D03*
X114300000Y-116840000D03*
X114300000Y-114300000D03*
X114300000Y-111760000D03*
X114300000Y-109220000D03*
X114300000Y-106680000D03*
X114300000Y-104140000D03*
X114300000Y-101600000D03*
X114300000Y-99060000D03*
X114300000Y-96520000D03*
X114300000Y-93980000D03*
X114300000Y-91440000D03*
X114300000Y-88900000D03*
X114300000Y-86360000D03*
X114300000Y-83820000D03*
X114300000Y-81280000D03*
X114300000Y-78740000D03*
X114300000Y-76200000D03*
X114300000Y-73660000D03*
X114300000Y-71120000D03*
X114300000Y-68580000D03*
X114300000Y-66040000D03*
X114300000Y-63500000D03*
X114300000Y-60960000D03*
X114300000Y-58420000D03*
X114300000Y-55880000D03*
X114300000Y-53340000D03*
X114300000Y-50800000D03*
X114300000Y-48260000D03*
%TD*%
M02*
