%TF.GenerationSoftware,KiCad,Pcbnew,7.0.5*%
%TF.CreationDate,2023-08-13T15:57:13+02:00*%
%TF.ProjectId,Sorbus-65C02,536f7262-7573-42d3-9635-4330322e6b69,rev?*%
%TF.SameCoordinates,Original*%
%TF.FileFunction,Copper,L2,Bot*%
%TF.FilePolarity,Positive*%
%FSLAX46Y46*%
G04 Gerber Fmt 4.6, Leading zero omitted, Abs format (unit mm)*
G04 Created by KiCad (PCBNEW 7.0.5) date 2023-08-13 15:57:13*
%MOMM*%
%LPD*%
G01*
G04 APERTURE LIST*
%TA.AperFunction,ComponentPad*%
%ADD10C,1.600000*%
%TD*%
%TA.AperFunction,ComponentPad*%
%ADD11O,1.600000X1.600000*%
%TD*%
%TA.AperFunction,ComponentPad*%
%ADD12R,1.600000X1.600000*%
%TD*%
%TA.AperFunction,ComponentPad*%
%ADD13R,1.700000X1.700000*%
%TD*%
%TA.AperFunction,ComponentPad*%
%ADD14O,1.700000X1.700000*%
%TD*%
%TA.AperFunction,ViaPad*%
%ADD15C,0.800000*%
%TD*%
%TA.AperFunction,Conductor*%
%ADD16C,0.250000*%
%TD*%
G04 APERTURE END LIST*
D10*
%TO.P,R5,1*%
%TO.N,VCC*%
X104140000Y-49530000D03*
D11*
%TO.P,R5,2*%
%TO.N,~{NMI}*%
X104140000Y-59690000D03*
%TD*%
D10*
%TO.P,R1,1*%
%TO.N,VCC*%
X27940000Y-66040000D03*
D11*
%TO.P,R1,2*%
%TO.N,Net-(U1-\u03D51)*%
X38100000Y-66040000D03*
%TD*%
D10*
%TO.P,R2,1*%
%TO.N,VCC*%
X27940000Y-41910000D03*
D11*
%TO.P,R2,2*%
%TO.N,Net-(U1-~{SO})*%
X38100000Y-41910000D03*
%TD*%
D12*
%TO.P,U1,1,~{VP}*%
%TO.N,unconnected-(U1-~{VP}-Pad1)*%
X33020000Y-60960000D03*
D11*
%TO.P,U1,2,RDY*%
%TO.N,RDY*%
X35560000Y-60960000D03*
%TO.P,U1,3,\u03D51*%
%TO.N,Net-(U1-\u03D51)*%
X38100000Y-60960000D03*
%TO.P,U1,4,~{IRQ}*%
%TO.N,~{IRQ}*%
X40640000Y-60960000D03*
%TO.P,U1,5,~{ML}*%
%TO.N,unconnected-(U1-~{ML}-Pad5)*%
X43180000Y-60960000D03*
%TO.P,U1,6,~{NMI}*%
%TO.N,~{NMI}*%
X45720000Y-60960000D03*
%TO.P,U1,7,SYNC*%
%TO.N,unconnected-(U1-SYNC-Pad7)*%
X48260000Y-60960000D03*
%TO.P,U1,8,VDD*%
%TO.N,VCC*%
X50800000Y-60960000D03*
%TO.P,U1,9,A0*%
%TO.N,A0*%
X53340000Y-60960000D03*
%TO.P,U1,10,A1*%
%TO.N,A1*%
X55880000Y-60960000D03*
%TO.P,U1,11,A2*%
%TO.N,A2*%
X58420000Y-60960000D03*
%TO.P,U1,12,A3*%
%TO.N,A3*%
X60960000Y-60960000D03*
%TO.P,U1,13,A4*%
%TO.N,A4*%
X63500000Y-60960000D03*
%TO.P,U1,14,A5*%
%TO.N,A5*%
X66040000Y-60960000D03*
%TO.P,U1,15,A6*%
%TO.N,A6*%
X68580000Y-60960000D03*
%TO.P,U1,16,A7*%
%TO.N,A7*%
X71120000Y-60960000D03*
%TO.P,U1,17,A8*%
%TO.N,A8*%
X73660000Y-60960000D03*
%TO.P,U1,18,A9*%
%TO.N,A9*%
X76200000Y-60960000D03*
%TO.P,U1,19,A10*%
%TO.N,A10*%
X78740000Y-60960000D03*
%TO.P,U1,20,A11*%
%TO.N,A11*%
X81280000Y-60960000D03*
%TO.P,U1,21,VSS*%
%TO.N,GND*%
X81280000Y-45720000D03*
%TO.P,U1,22,A12*%
%TO.N,A12*%
X78740000Y-45720000D03*
%TO.P,U1,23,A13*%
%TO.N,A13*%
X76200000Y-45720000D03*
%TO.P,U1,24,A14*%
%TO.N,A14*%
X73660000Y-45720000D03*
%TO.P,U1,25,A15*%
%TO.N,A15*%
X71120000Y-45720000D03*
%TO.P,U1,26,D7*%
%TO.N,D7*%
X68580000Y-45720000D03*
%TO.P,U1,27,D6*%
%TO.N,D6*%
X66040000Y-45720000D03*
%TO.P,U1,28,D5*%
%TO.N,D5*%
X63500000Y-45720000D03*
%TO.P,U1,29,D4*%
%TO.N,D4*%
X60960000Y-45720000D03*
%TO.P,U1,30,D3*%
%TO.N,D3*%
X58420000Y-45720000D03*
%TO.P,U1,31,D2*%
%TO.N,D2*%
X55880000Y-45720000D03*
%TO.P,U1,32,D1*%
%TO.N,D1*%
X53340000Y-45720000D03*
%TO.P,U1,33,D0*%
%TO.N,D0*%
X50800000Y-45720000D03*
%TO.P,U1,34,R/~{W}*%
%TO.N,R{slash}~{W}*%
X48260000Y-45720000D03*
%TO.P,U1,35,nc*%
%TO.N,unconnected-(U1-nc-Pad35)*%
X45720000Y-45720000D03*
%TO.P,U1,36,BE*%
%TO.N,Net-(U1-BE)*%
X43180000Y-45720000D03*
%TO.P,U1,37,\u03D50*%
%TO.N,CLK*%
X40640000Y-45720000D03*
%TO.P,U1,38,~{SO}*%
%TO.N,Net-(U1-~{SO})*%
X38100000Y-45720000D03*
%TO.P,U1,39,\u03D52*%
%TO.N,unconnected-(U1-\u03D52-Pad39)*%
X35560000Y-45720000D03*
%TO.P,U1,40,~{RES}*%
%TO.N,~{RESET}*%
X33020000Y-45720000D03*
%TD*%
D10*
%TO.P,R7,1*%
%TO.N,VCC*%
X99060000Y-49530000D03*
D11*
%TO.P,R7,2*%
%TO.N,RDY*%
X99060000Y-59690000D03*
%TD*%
D10*
%TO.P,R6,1*%
%TO.N,VCC*%
X101600000Y-36830000D03*
D11*
%TO.P,R6,2*%
%TO.N,~{IRQ}*%
X101600000Y-46990000D03*
%TD*%
D10*
%TO.P,R4,1*%
%TO.N,VCC*%
X106680000Y-36830000D03*
D11*
%TO.P,R4,2*%
%TO.N,~{RESET}*%
X106680000Y-46990000D03*
%TD*%
D10*
%TO.P,C1,1*%
%TO.N,GND*%
X33060000Y-73660000D03*
%TO.P,C1,2*%
%TO.N,VCC*%
X38060000Y-73660000D03*
%TD*%
%TO.P,R3,1*%
%TO.N,VCC*%
X27940000Y-69850000D03*
D11*
%TO.P,R3,2*%
%TO.N,Net-(U1-BE)*%
X38100000Y-69850000D03*
%TD*%
D13*
%TO.P,J1,1,Pin_1*%
%TO.N,GND*%
X27940000Y-81280000D03*
D14*
%TO.P,J1,2,Pin_2*%
%TO.N,VCC*%
X30480000Y-81280000D03*
%TO.P,J1,3,Pin_3*%
%TO.N,A0*%
X33020000Y-81280000D03*
%TO.P,J1,4,Pin_4*%
%TO.N,A1*%
X35560000Y-81280000D03*
%TO.P,J1,5,Pin_5*%
%TO.N,A2*%
X38100000Y-81280000D03*
%TO.P,J1,6,Pin_6*%
%TO.N,A3*%
X40640000Y-81280000D03*
%TO.P,J1,7,Pin_7*%
%TO.N,A4*%
X43180000Y-81280000D03*
%TO.P,J1,8,Pin_8*%
%TO.N,A5*%
X45720000Y-81280000D03*
%TO.P,J1,9,Pin_9*%
%TO.N,A6*%
X48260000Y-81280000D03*
%TO.P,J1,10,Pin_10*%
%TO.N,A7*%
X50800000Y-81280000D03*
%TO.P,J1,11,Pin_11*%
%TO.N,A8*%
X53340000Y-81280000D03*
%TO.P,J1,12,Pin_12*%
%TO.N,A9*%
X55880000Y-81280000D03*
%TO.P,J1,13,Pin_13*%
%TO.N,A10*%
X58420000Y-81280000D03*
%TO.P,J1,14,Pin_14*%
%TO.N,A11*%
X60960000Y-81280000D03*
%TO.P,J1,15,Pin_15*%
%TO.N,A12*%
X63500000Y-81280000D03*
%TO.P,J1,16,Pin_16*%
%TO.N,A13*%
X66040000Y-81280000D03*
%TO.P,J1,17,Pin_17*%
%TO.N,A14*%
X68580000Y-81280000D03*
%TO.P,J1,18,Pin_18*%
%TO.N,A15*%
X71120000Y-81280000D03*
%TO.P,J1,19,Pin_19*%
%TO.N,D0*%
X73660000Y-81280000D03*
%TO.P,J1,20,Pin_20*%
%TO.N,D1*%
X76200000Y-81280000D03*
%TO.P,J1,21,Pin_21*%
%TO.N,D2*%
X78740000Y-81280000D03*
%TO.P,J1,22,Pin_22*%
%TO.N,D3*%
X81280000Y-81280000D03*
%TO.P,J1,23,Pin_23*%
%TO.N,D4*%
X83820000Y-81280000D03*
%TO.P,J1,24,Pin_24*%
%TO.N,D5*%
X86360000Y-81280000D03*
%TO.P,J1,25,Pin_25*%
%TO.N,D6*%
X88900000Y-81280000D03*
%TO.P,J1,26,Pin_26*%
%TO.N,D7*%
X91440000Y-81280000D03*
%TO.P,J1,27,Pin_27*%
%TO.N,R{slash}~{W}*%
X93980000Y-81280000D03*
%TO.P,J1,28,Pin_28*%
%TO.N,CLK*%
X96520000Y-81280000D03*
%TO.P,J1,29,Pin_29*%
%TO.N,RDY*%
X99060000Y-81280000D03*
%TO.P,J1,30,Pin_30*%
%TO.N,~{IRQ}*%
X101600000Y-81280000D03*
%TO.P,J1,31,Pin_31*%
%TO.N,~{NMI}*%
X104140000Y-81280000D03*
%TO.P,J1,32,Pin_32*%
%TO.N,~{RESET}*%
X106680000Y-81280000D03*
%TD*%
D15*
%TO.N,GND*%
X76200000Y-64770000D03*
X62230000Y-48260000D03*
X82550000Y-58420000D03*
X48260000Y-64770000D03*
X90170000Y-78740000D03*
X52070000Y-78740000D03*
X41910000Y-58420000D03*
X39370000Y-78740000D03*
X53340000Y-64770000D03*
X44450000Y-44450000D03*
X57150000Y-78740000D03*
X45720000Y-64770000D03*
X80010000Y-48260000D03*
X57150000Y-48260000D03*
X44450000Y-78740000D03*
X64770000Y-48260000D03*
X54610000Y-78740000D03*
X68580000Y-64770000D03*
X36830000Y-78740000D03*
X107950000Y-78740000D03*
X59690000Y-48260000D03*
X67310000Y-78740000D03*
X69850000Y-48260000D03*
X77470000Y-78740000D03*
X71120000Y-64770000D03*
X57785000Y-55880000D03*
X31750000Y-78740000D03*
X64770000Y-78740000D03*
X85090000Y-78740000D03*
X80010000Y-78740000D03*
X50800000Y-64770000D03*
X46990000Y-78740000D03*
X106680000Y-39370000D03*
X87630000Y-78740000D03*
X102870000Y-78740000D03*
X52070000Y-44450000D03*
X100330000Y-78740000D03*
X55880000Y-64770000D03*
X97790000Y-78740000D03*
X67310000Y-48260000D03*
X97790000Y-38100000D03*
X49530000Y-48260000D03*
X66040000Y-64770000D03*
X101600000Y-39370000D03*
X59690000Y-78740000D03*
X60325000Y-55880000D03*
X58420000Y-64770000D03*
X34290000Y-78740000D03*
X92710000Y-78740000D03*
X69850000Y-78740000D03*
X49530000Y-78740000D03*
X62230000Y-78740000D03*
X36830000Y-44450000D03*
X67945000Y-55880000D03*
X95250000Y-78740000D03*
X63500000Y-64770000D03*
X55245000Y-55880000D03*
X41910000Y-78740000D03*
X54610000Y-48260000D03*
X72390000Y-78740000D03*
X105410000Y-78740000D03*
X82550000Y-78740000D03*
X78740000Y-64770000D03*
X65405000Y-55880000D03*
X52070000Y-48260000D03*
X73660000Y-64770000D03*
X74930000Y-78740000D03*
X54610000Y-58420000D03*
X41910000Y-48260000D03*
X45720000Y-38100000D03*
X70485000Y-55880000D03*
X60960000Y-64770000D03*
X62865000Y-55880000D03*
X75819000Y-42291000D03*
%TO.N,A13*%
X85725000Y-49530000D03*
%TO.N,D0*%
X57150000Y-59055000D03*
%TO.N,D1*%
X59690000Y-59055000D03*
%TO.N,D2*%
X62085000Y-59055000D03*
%TO.N,D3*%
X64625000Y-59055000D03*
%TO.N,D4*%
X67165000Y-59055000D03*
%TO.N,D5*%
X69705000Y-59055000D03*
%TO.N,D6*%
X72245000Y-59055000D03*
%TO.N,D7*%
X74785000Y-59055000D03*
%TO.N,~{IRQ}*%
X40640000Y-52070000D03*
%TD*%
D16*
%TO.N,A13*%
X76200000Y-45720000D02*
X80010000Y-49530000D01*
X80010000Y-49530000D02*
X85725000Y-49530000D01*
%TO.N,D0*%
X73660000Y-81280000D02*
X57150000Y-64770000D01*
X57150000Y-64770000D02*
X57150000Y-59055000D01*
%TO.N,D1*%
X59690000Y-64770000D02*
X59690000Y-59055000D01*
X76200000Y-81280000D02*
X59690000Y-64770000D01*
%TO.N,D2*%
X62085000Y-64625000D02*
X62085000Y-59055000D01*
X78740000Y-81280000D02*
X62085000Y-64625000D01*
%TO.N,D3*%
X64625000Y-64625000D02*
X64625000Y-59055000D01*
X81280000Y-81280000D02*
X64625000Y-64625000D01*
%TO.N,D4*%
X67165000Y-64625000D02*
X67165000Y-59055000D01*
X83820000Y-81280000D02*
X67165000Y-64625000D01*
%TO.N,D5*%
X86360000Y-81280000D02*
X69705000Y-64625000D01*
X69705000Y-64625000D02*
X69705000Y-59055000D01*
%TO.N,D6*%
X88900000Y-81280000D02*
X72245000Y-64625000D01*
X72245000Y-64625000D02*
X72245000Y-59055000D01*
%TO.N,D7*%
X74785000Y-64625000D02*
X74785000Y-59055000D01*
X91440000Y-81280000D02*
X74785000Y-64625000D01*
%TO.N,RDY*%
X93980000Y-54610000D02*
X99060000Y-59690000D01*
X41910000Y-54610000D02*
X93980000Y-54610000D01*
X35560000Y-60960000D02*
X41910000Y-54610000D01*
%TO.N,~{IRQ}*%
X99060000Y-46990000D02*
X101600000Y-46990000D01*
X93980000Y-52070000D02*
X99060000Y-46990000D01*
X40640000Y-52070000D02*
X93980000Y-52070000D01*
%TO.N,~{NMI}*%
X97790000Y-62230000D02*
X101600000Y-62230000D01*
X49530000Y-57150000D02*
X92710000Y-57150000D01*
X92710000Y-57150000D02*
X97790000Y-62230000D01*
X101600000Y-62230000D02*
X104140000Y-59690000D01*
X45720000Y-60960000D02*
X49530000Y-57150000D01*
%TO.N,~{RESET}*%
X33020000Y-45720000D02*
X35560000Y-43180000D01*
X35560000Y-43180000D02*
X102870000Y-43180000D01*
X102870000Y-43180000D02*
X106680000Y-46990000D01*
%TD*%
%TA.AperFunction,Conductor*%
%TO.N,~{RESET}*%
G36*
X105643982Y-45772723D02*
G01*
X106974569Y-46246771D01*
X106981211Y-46252774D01*
X106981662Y-46261718D01*
X106981456Y-46262256D01*
X106682562Y-46986212D01*
X106676237Y-46992551D01*
X106676212Y-46992562D01*
X105952256Y-47291456D01*
X105943301Y-47291445D01*
X105936976Y-47285106D01*
X105936780Y-47284596D01*
X105462724Y-45953984D01*
X105463175Y-45945043D01*
X105465469Y-45941790D01*
X105631788Y-45775471D01*
X105640060Y-45772045D01*
X105643982Y-45772723D01*
G37*
%TD.AperFunction*%
%TD*%
%TA.AperFunction,Conductor*%
%TO.N,A13*%
G36*
X85570294Y-49164728D02*
G01*
X85576280Y-49170890D01*
X85724123Y-49525497D01*
X85724144Y-49534451D01*
X85724123Y-49534501D01*
X85576280Y-49889109D01*
X85569933Y-49895427D01*
X85561344Y-49895551D01*
X84932563Y-49657858D01*
X84926036Y-49651727D01*
X84925000Y-49646914D01*
X84925000Y-49413085D01*
X84928427Y-49404812D01*
X84932563Y-49402141D01*
X85561345Y-49164448D01*
X85570294Y-49164728D01*
G37*
%TD.AperFunction*%
%TD*%
%TA.AperFunction,Conductor*%
%TO.N,D0*%
G36*
X57509109Y-59203719D02*
G01*
X57515427Y-59210066D01*
X57515551Y-59218655D01*
X57277859Y-59847437D01*
X57271728Y-59853964D01*
X57266915Y-59855000D01*
X57033085Y-59855000D01*
X57024812Y-59851573D01*
X57022141Y-59847437D01*
X56784448Y-59218655D01*
X56784728Y-59209705D01*
X56790889Y-59203719D01*
X57145500Y-59055875D01*
X57154449Y-59055855D01*
X57509109Y-59203719D01*
G37*
%TD.AperFunction*%
%TD*%
%TA.AperFunction,Conductor*%
%TO.N,~{IRQ}*%
G36*
X101298335Y-46261719D02*
G01*
X101298569Y-46262246D01*
X101599134Y-46985510D01*
X101599144Y-46994463D01*
X101599135Y-46994485D01*
X101599134Y-46994490D01*
X101298569Y-47717753D01*
X101292230Y-47724078D01*
X101283275Y-47724067D01*
X101282748Y-47723833D01*
X100006683Y-47118171D01*
X100000679Y-47111528D01*
X100000000Y-47107601D01*
X100000000Y-46872398D01*
X100003427Y-46864125D01*
X100006683Y-46861828D01*
X101282749Y-46256165D01*
X101291692Y-46255715D01*
X101298335Y-46261719D01*
G37*
%TD.AperFunction*%
%TD*%
%TA.AperFunction,Conductor*%
%TO.N,D3*%
G36*
X80173251Y-79991968D02*
G01*
X80655027Y-80161102D01*
X81593629Y-80490611D01*
X81600300Y-80496584D01*
X81600792Y-80505526D01*
X81600567Y-80506116D01*
X81282562Y-81276214D01*
X81276237Y-81282553D01*
X81276214Y-81282562D01*
X80506116Y-81600567D01*
X80497161Y-81600558D01*
X80490836Y-81594219D01*
X80490611Y-81593629D01*
X80380755Y-81280707D01*
X80104818Y-80494702D01*
X79991968Y-80173251D01*
X79992460Y-80164309D01*
X79994731Y-80161105D01*
X80161103Y-79994733D01*
X80169375Y-79991307D01*
X80173251Y-79991968D01*
G37*
%TD.AperFunction*%
%TD*%
%TA.AperFunction,Conductor*%
%TO.N,D3*%
G36*
X64984109Y-59203719D02*
G01*
X64990427Y-59210066D01*
X64990551Y-59218655D01*
X64752859Y-59847437D01*
X64746728Y-59853964D01*
X64741915Y-59855000D01*
X64508085Y-59855000D01*
X64499812Y-59851573D01*
X64497141Y-59847437D01*
X64259448Y-59218655D01*
X64259728Y-59209705D01*
X64265889Y-59203719D01*
X64620500Y-59055875D01*
X64629449Y-59055855D01*
X64984109Y-59203719D01*
G37*
%TD.AperFunction*%
%TD*%
%TA.AperFunction,Conductor*%
%TO.N,RDY*%
G36*
X98023982Y-58472723D02*
G01*
X99354569Y-58946771D01*
X99361211Y-58952774D01*
X99361662Y-58961718D01*
X99361456Y-58962256D01*
X99062562Y-59686212D01*
X99056237Y-59692551D01*
X99056212Y-59692562D01*
X98332256Y-59991456D01*
X98323301Y-59991445D01*
X98316976Y-59985106D01*
X98316780Y-59984596D01*
X97842724Y-58653984D01*
X97843175Y-58645043D01*
X97845469Y-58641790D01*
X98011788Y-58475471D01*
X98020060Y-58472045D01*
X98023982Y-58472723D01*
G37*
%TD.AperFunction*%
%TD*%
%TA.AperFunction,Conductor*%
%TO.N,D1*%
G36*
X60049109Y-59203719D02*
G01*
X60055427Y-59210066D01*
X60055551Y-59218655D01*
X59817859Y-59847437D01*
X59811728Y-59853964D01*
X59806915Y-59855000D01*
X59573085Y-59855000D01*
X59564812Y-59851573D01*
X59562141Y-59847437D01*
X59324448Y-59218655D01*
X59324728Y-59209705D01*
X59330889Y-59203719D01*
X59685500Y-59055875D01*
X59694449Y-59055855D01*
X60049109Y-59203719D01*
G37*
%TD.AperFunction*%
%TD*%
%TA.AperFunction,Conductor*%
%TO.N,D5*%
G36*
X85253251Y-79991968D02*
G01*
X85735027Y-80161102D01*
X86673629Y-80490611D01*
X86680300Y-80496584D01*
X86680792Y-80505526D01*
X86680567Y-80506116D01*
X86362562Y-81276214D01*
X86356237Y-81282553D01*
X86356214Y-81282562D01*
X85586116Y-81600567D01*
X85577161Y-81600558D01*
X85570836Y-81594219D01*
X85570611Y-81593629D01*
X85460755Y-81280707D01*
X85184818Y-80494702D01*
X85071968Y-80173251D01*
X85072460Y-80164309D01*
X85074731Y-80161105D01*
X85241103Y-79994733D01*
X85249375Y-79991307D01*
X85253251Y-79991968D01*
G37*
%TD.AperFunction*%
%TD*%
%TA.AperFunction,Conductor*%
%TO.N,D4*%
G36*
X67524109Y-59203719D02*
G01*
X67530427Y-59210066D01*
X67530551Y-59218655D01*
X67292859Y-59847437D01*
X67286728Y-59853964D01*
X67281915Y-59855000D01*
X67048085Y-59855000D01*
X67039812Y-59851573D01*
X67037141Y-59847437D01*
X66799448Y-59218655D01*
X66799728Y-59209705D01*
X66805889Y-59203719D01*
X67160500Y-59055875D01*
X67169449Y-59055855D01*
X67524109Y-59203719D01*
G37*
%TD.AperFunction*%
%TD*%
%TA.AperFunction,Conductor*%
%TO.N,D0*%
G36*
X72553251Y-79991968D02*
G01*
X73035027Y-80161102D01*
X73973629Y-80490611D01*
X73980300Y-80496584D01*
X73980792Y-80505526D01*
X73980567Y-80506116D01*
X73662562Y-81276214D01*
X73656237Y-81282553D01*
X73656214Y-81282562D01*
X72886116Y-81600567D01*
X72877161Y-81600558D01*
X72870836Y-81594219D01*
X72870611Y-81593629D01*
X72760755Y-81280707D01*
X72484818Y-80494702D01*
X72371968Y-80173251D01*
X72372460Y-80164309D01*
X72374731Y-80161105D01*
X72541103Y-79994733D01*
X72549375Y-79991307D01*
X72553251Y-79991968D01*
G37*
%TD.AperFunction*%
%TD*%
%TA.AperFunction,Conductor*%
%TO.N,D2*%
G36*
X62444109Y-59203719D02*
G01*
X62450427Y-59210066D01*
X62450551Y-59218655D01*
X62212859Y-59847437D01*
X62206728Y-59853964D01*
X62201915Y-59855000D01*
X61968085Y-59855000D01*
X61959812Y-59851573D01*
X61957141Y-59847437D01*
X61719448Y-59218655D01*
X61719728Y-59209705D01*
X61725889Y-59203719D01*
X62080500Y-59055875D01*
X62089449Y-59055855D01*
X62444109Y-59203719D01*
G37*
%TD.AperFunction*%
%TD*%
%TA.AperFunction,Conductor*%
%TO.N,D7*%
G36*
X90333251Y-79991968D02*
G01*
X90815027Y-80161102D01*
X91753629Y-80490611D01*
X91760300Y-80496584D01*
X91760792Y-80505526D01*
X91760567Y-80506116D01*
X91442562Y-81276214D01*
X91436237Y-81282553D01*
X91436214Y-81282562D01*
X90666116Y-81600567D01*
X90657161Y-81600558D01*
X90650836Y-81594219D01*
X90650611Y-81593629D01*
X90540755Y-81280707D01*
X90264818Y-80494702D01*
X90151968Y-80173251D01*
X90152460Y-80164309D01*
X90154731Y-80161105D01*
X90321103Y-79994733D01*
X90329375Y-79991307D01*
X90333251Y-79991968D01*
G37*
%TD.AperFunction*%
%TD*%
%TA.AperFunction,Conductor*%
%TO.N,GND*%
G36*
X59020951Y-62194690D02*
G01*
X59059194Y-62253165D01*
X59064499Y-62289048D01*
X59064499Y-64687261D01*
X59062776Y-64702878D01*
X59063060Y-64702905D01*
X59062326Y-64710665D01*
X59064469Y-64778845D01*
X59064500Y-64780793D01*
X59064500Y-64809343D01*
X59064501Y-64809360D01*
X59065368Y-64816231D01*
X59065826Y-64822050D01*
X59067290Y-64868624D01*
X59067291Y-64868627D01*
X59072880Y-64887867D01*
X59076824Y-64906911D01*
X59077228Y-64910103D01*
X59079336Y-64926791D01*
X59096490Y-64970119D01*
X59098382Y-64975647D01*
X59111381Y-65020388D01*
X59121580Y-65037634D01*
X59130136Y-65055100D01*
X59137514Y-65073732D01*
X59164898Y-65111423D01*
X59168106Y-65116307D01*
X59191827Y-65156416D01*
X59191833Y-65156424D01*
X59205990Y-65170580D01*
X59218628Y-65185376D01*
X59230405Y-65201586D01*
X59230406Y-65201587D01*
X59266309Y-65231288D01*
X59270620Y-65235210D01*
X73248870Y-79213461D01*
X73614214Y-79578805D01*
X73647699Y-79640128D01*
X73642715Y-79709820D01*
X73600843Y-79765753D01*
X73535379Y-79790170D01*
X73485459Y-79783486D01*
X72838100Y-79556222D01*
X72791493Y-79526903D01*
X57811819Y-64547228D01*
X57778334Y-64485905D01*
X57775500Y-64459547D01*
X57775500Y-62289048D01*
X57795185Y-62222009D01*
X57847989Y-62176254D01*
X57917147Y-62166310D01*
X57951905Y-62176667D01*
X57973504Y-62186739D01*
X57973509Y-62186740D01*
X57973511Y-62186741D01*
X58003181Y-62194691D01*
X58193308Y-62245635D01*
X58355230Y-62259801D01*
X58419998Y-62265468D01*
X58420000Y-62265468D01*
X58420002Y-62265468D01*
X58476807Y-62260498D01*
X58646692Y-62245635D01*
X58866496Y-62186739D01*
X58888094Y-62176667D01*
X58957166Y-62166173D01*
X59020951Y-62194690D01*
G37*
%TD.AperFunction*%
%TA.AperFunction,Conductor*%
G36*
X60491905Y-62176667D02*
G01*
X60513504Y-62186739D01*
X60513509Y-62186740D01*
X60513511Y-62186741D01*
X60543181Y-62194691D01*
X60733308Y-62245635D01*
X60895230Y-62259801D01*
X60959998Y-62265468D01*
X60960000Y-62265468D01*
X60960002Y-62265468D01*
X61016807Y-62260498D01*
X61186692Y-62245635D01*
X61303408Y-62214361D01*
X61373256Y-62216024D01*
X61431119Y-62255186D01*
X61458623Y-62319415D01*
X61459500Y-62334136D01*
X61459500Y-64542255D01*
X61457775Y-64557872D01*
X61458061Y-64557899D01*
X61457326Y-64565666D01*
X61459469Y-64633846D01*
X61459500Y-64635793D01*
X61459500Y-64664343D01*
X61459501Y-64664360D01*
X61460368Y-64671231D01*
X61460826Y-64677050D01*
X61462290Y-64723624D01*
X61462291Y-64723627D01*
X61467880Y-64742867D01*
X61471824Y-64761911D01*
X61473964Y-64778845D01*
X61474336Y-64781791D01*
X61491490Y-64825119D01*
X61493382Y-64830647D01*
X61506382Y-64875390D01*
X61513755Y-64887858D01*
X61516580Y-64892634D01*
X61525138Y-64910103D01*
X61532514Y-64928732D01*
X61559898Y-64966423D01*
X61563106Y-64971307D01*
X61586827Y-65011416D01*
X61586833Y-65011424D01*
X61600990Y-65025580D01*
X61613628Y-65040376D01*
X61625405Y-65056586D01*
X61625406Y-65056587D01*
X61661309Y-65086288D01*
X61665620Y-65090210D01*
X75788682Y-79213273D01*
X76154214Y-79578805D01*
X76187699Y-79640128D01*
X76182715Y-79709820D01*
X76140843Y-79765753D01*
X76075379Y-79790170D01*
X76025459Y-79783486D01*
X75378100Y-79556222D01*
X75331493Y-79526903D01*
X60351819Y-64547228D01*
X60318334Y-64485905D01*
X60315500Y-64459547D01*
X60315500Y-62289048D01*
X60335185Y-62222009D01*
X60387989Y-62176254D01*
X60457147Y-62166310D01*
X60491905Y-62176667D01*
G37*
%TD.AperFunction*%
%TA.AperFunction,Conductor*%
G36*
X62886904Y-62109051D02*
G01*
X63053504Y-62186739D01*
X63053510Y-62186740D01*
X63053511Y-62186741D01*
X63083181Y-62194691D01*
X63273308Y-62245635D01*
X63435230Y-62259801D01*
X63499998Y-62265468D01*
X63500000Y-62265468D01*
X63500002Y-62265468D01*
X63556807Y-62260498D01*
X63726692Y-62245635D01*
X63843408Y-62214361D01*
X63913256Y-62216024D01*
X63971119Y-62255186D01*
X63998623Y-62319415D01*
X63999500Y-62334136D01*
X63999500Y-64542255D01*
X63997775Y-64557872D01*
X63998061Y-64557899D01*
X63997326Y-64565666D01*
X63999469Y-64633846D01*
X63999500Y-64635793D01*
X63999500Y-64664343D01*
X63999501Y-64664360D01*
X64000368Y-64671231D01*
X64000826Y-64677050D01*
X64002290Y-64723624D01*
X64002291Y-64723627D01*
X64007880Y-64742867D01*
X64011824Y-64761911D01*
X64013964Y-64778845D01*
X64014336Y-64781791D01*
X64031490Y-64825119D01*
X64033382Y-64830647D01*
X64046382Y-64875390D01*
X64053755Y-64887858D01*
X64056580Y-64892634D01*
X64065138Y-64910103D01*
X64072514Y-64928732D01*
X64099898Y-64966423D01*
X64103106Y-64971307D01*
X64126827Y-65011416D01*
X64126833Y-65011424D01*
X64140990Y-65025580D01*
X64153628Y-65040376D01*
X64165405Y-65056586D01*
X64165406Y-65056587D01*
X64201309Y-65086288D01*
X64205620Y-65090210D01*
X78328682Y-79213273D01*
X78694214Y-79578805D01*
X78727699Y-79640128D01*
X78722715Y-79709820D01*
X78680843Y-79765753D01*
X78615379Y-79790170D01*
X78565459Y-79783486D01*
X77918100Y-79556222D01*
X77871493Y-79526903D01*
X62746819Y-64402228D01*
X62713334Y-64340905D01*
X62710500Y-64314547D01*
X62710500Y-62221434D01*
X62730185Y-62154395D01*
X62782989Y-62108640D01*
X62852147Y-62098696D01*
X62886904Y-62109051D01*
G37*
%TD.AperFunction*%
%TA.AperFunction,Conductor*%
G36*
X65426904Y-62109051D02*
G01*
X65593504Y-62186739D01*
X65593510Y-62186740D01*
X65593511Y-62186741D01*
X65623181Y-62194691D01*
X65813308Y-62245635D01*
X65975230Y-62259801D01*
X66039998Y-62265468D01*
X66040000Y-62265468D01*
X66040002Y-62265468D01*
X66096807Y-62260498D01*
X66266692Y-62245635D01*
X66383408Y-62214361D01*
X66453256Y-62216024D01*
X66511119Y-62255186D01*
X66538623Y-62319415D01*
X66539500Y-62334136D01*
X66539500Y-64542255D01*
X66537775Y-64557872D01*
X66538061Y-64557899D01*
X66537326Y-64565666D01*
X66539469Y-64633846D01*
X66539500Y-64635793D01*
X66539500Y-64664343D01*
X66539501Y-64664360D01*
X66540368Y-64671231D01*
X66540826Y-64677050D01*
X66542290Y-64723624D01*
X66542291Y-64723627D01*
X66547880Y-64742867D01*
X66551824Y-64761911D01*
X66553964Y-64778845D01*
X66554336Y-64781791D01*
X66571490Y-64825119D01*
X66573382Y-64830647D01*
X66586382Y-64875390D01*
X66593755Y-64887858D01*
X66596580Y-64892634D01*
X66605138Y-64910103D01*
X66612514Y-64928732D01*
X66639898Y-64966423D01*
X66643106Y-64971307D01*
X66666827Y-65011416D01*
X66666833Y-65011424D01*
X66680990Y-65025580D01*
X66693628Y-65040376D01*
X66705405Y-65056586D01*
X66705406Y-65056587D01*
X66741309Y-65086288D01*
X66745620Y-65090210D01*
X80868682Y-79213273D01*
X81234214Y-79578805D01*
X81267699Y-79640128D01*
X81262715Y-79709820D01*
X81220843Y-79765753D01*
X81155379Y-79790170D01*
X81105459Y-79783486D01*
X80458100Y-79556222D01*
X80411493Y-79526903D01*
X65286819Y-64402228D01*
X65253334Y-64340905D01*
X65250500Y-64314547D01*
X65250500Y-62221434D01*
X65270185Y-62154395D01*
X65322989Y-62108640D01*
X65392147Y-62098696D01*
X65426904Y-62109051D01*
G37*
%TD.AperFunction*%
%TA.AperFunction,Conductor*%
G36*
X67966904Y-62109051D02*
G01*
X68133504Y-62186739D01*
X68133510Y-62186740D01*
X68133511Y-62186741D01*
X68163181Y-62194691D01*
X68353308Y-62245635D01*
X68515230Y-62259801D01*
X68579998Y-62265468D01*
X68580000Y-62265468D01*
X68580002Y-62265468D01*
X68636807Y-62260498D01*
X68806692Y-62245635D01*
X68923408Y-62214361D01*
X68993256Y-62216024D01*
X69051119Y-62255186D01*
X69078623Y-62319415D01*
X69079500Y-62334136D01*
X69079500Y-64542255D01*
X69077775Y-64557872D01*
X69078061Y-64557899D01*
X69077326Y-64565666D01*
X69079469Y-64633846D01*
X69079500Y-64635793D01*
X69079500Y-64664343D01*
X69079501Y-64664360D01*
X69080368Y-64671231D01*
X69080826Y-64677050D01*
X69082290Y-64723624D01*
X69082291Y-64723627D01*
X69087880Y-64742867D01*
X69091824Y-64761911D01*
X69093964Y-64778845D01*
X69094336Y-64781791D01*
X69111490Y-64825119D01*
X69113382Y-64830647D01*
X69126382Y-64875390D01*
X69133755Y-64887858D01*
X69136580Y-64892634D01*
X69145138Y-64910103D01*
X69152514Y-64928732D01*
X69179898Y-64966423D01*
X69183106Y-64971307D01*
X69206827Y-65011416D01*
X69206833Y-65011424D01*
X69220990Y-65025580D01*
X69233628Y-65040376D01*
X69245405Y-65056586D01*
X69245406Y-65056587D01*
X69281309Y-65086288D01*
X69285620Y-65090210D01*
X83408682Y-79213273D01*
X83774214Y-79578805D01*
X83807699Y-79640128D01*
X83802715Y-79709820D01*
X83760843Y-79765753D01*
X83695379Y-79790170D01*
X83645459Y-79783486D01*
X82998100Y-79556222D01*
X82951493Y-79526903D01*
X67826819Y-64402228D01*
X67793334Y-64340905D01*
X67790500Y-64314547D01*
X67790500Y-62221434D01*
X67810185Y-62154395D01*
X67862989Y-62108640D01*
X67932147Y-62098696D01*
X67966904Y-62109051D01*
G37*
%TD.AperFunction*%
%TA.AperFunction,Conductor*%
G36*
X70506904Y-62109051D02*
G01*
X70673504Y-62186739D01*
X70673510Y-62186740D01*
X70673511Y-62186741D01*
X70703181Y-62194691D01*
X70893308Y-62245635D01*
X71055230Y-62259801D01*
X71119998Y-62265468D01*
X71120000Y-62265468D01*
X71120002Y-62265468D01*
X71176807Y-62260498D01*
X71346692Y-62245635D01*
X71463408Y-62214361D01*
X71533256Y-62216024D01*
X71591119Y-62255186D01*
X71618623Y-62319415D01*
X71619500Y-62334136D01*
X71619500Y-64542255D01*
X71617775Y-64557872D01*
X71618061Y-64557899D01*
X71617326Y-64565666D01*
X71619469Y-64633846D01*
X71619500Y-64635793D01*
X71619500Y-64664343D01*
X71619501Y-64664360D01*
X71620368Y-64671231D01*
X71620826Y-64677050D01*
X71622290Y-64723624D01*
X71622291Y-64723627D01*
X71627880Y-64742867D01*
X71631824Y-64761911D01*
X71633964Y-64778845D01*
X71634336Y-64781791D01*
X71651490Y-64825119D01*
X71653382Y-64830647D01*
X71666382Y-64875390D01*
X71673755Y-64887858D01*
X71676580Y-64892634D01*
X71685138Y-64910103D01*
X71692514Y-64928732D01*
X71719898Y-64966423D01*
X71723106Y-64971307D01*
X71746827Y-65011416D01*
X71746833Y-65011424D01*
X71760990Y-65025580D01*
X71773628Y-65040376D01*
X71785405Y-65056586D01*
X71785406Y-65056587D01*
X71821309Y-65086288D01*
X71825620Y-65090210D01*
X85948682Y-79213273D01*
X86314214Y-79578805D01*
X86347699Y-79640128D01*
X86342715Y-79709820D01*
X86300843Y-79765753D01*
X86235379Y-79790170D01*
X86185459Y-79783486D01*
X85538100Y-79556222D01*
X85491493Y-79526903D01*
X70366819Y-64402228D01*
X70333334Y-64340905D01*
X70330500Y-64314547D01*
X70330500Y-62221434D01*
X70350185Y-62154395D01*
X70402989Y-62108640D01*
X70472147Y-62098696D01*
X70506904Y-62109051D01*
G37*
%TD.AperFunction*%
%TA.AperFunction,Conductor*%
G36*
X73046904Y-62109051D02*
G01*
X73213504Y-62186739D01*
X73213510Y-62186740D01*
X73213511Y-62186741D01*
X73243181Y-62194691D01*
X73433308Y-62245635D01*
X73595230Y-62259801D01*
X73659998Y-62265468D01*
X73660000Y-62265468D01*
X73660002Y-62265468D01*
X73716807Y-62260498D01*
X73886692Y-62245635D01*
X74003408Y-62214361D01*
X74073256Y-62216024D01*
X74131119Y-62255186D01*
X74158623Y-62319415D01*
X74159500Y-62334136D01*
X74159500Y-64542255D01*
X74157775Y-64557872D01*
X74158061Y-64557899D01*
X74157326Y-64565666D01*
X74159469Y-64633846D01*
X74159500Y-64635793D01*
X74159500Y-64664343D01*
X74159501Y-64664360D01*
X74160368Y-64671231D01*
X74160826Y-64677050D01*
X74162290Y-64723624D01*
X74162291Y-64723627D01*
X74167880Y-64742867D01*
X74171824Y-64761911D01*
X74173964Y-64778845D01*
X74174336Y-64781791D01*
X74191490Y-64825119D01*
X74193382Y-64830647D01*
X74206382Y-64875390D01*
X74213755Y-64887858D01*
X74216580Y-64892634D01*
X74225138Y-64910103D01*
X74232514Y-64928732D01*
X74259898Y-64966423D01*
X74263106Y-64971307D01*
X74286827Y-65011416D01*
X74286833Y-65011424D01*
X74300990Y-65025580D01*
X74313628Y-65040376D01*
X74325405Y-65056586D01*
X74325406Y-65056587D01*
X74361309Y-65086288D01*
X74365620Y-65090210D01*
X88488682Y-79213273D01*
X88854214Y-79578805D01*
X88887699Y-79640128D01*
X88882715Y-79709820D01*
X88840843Y-79765753D01*
X88775379Y-79790170D01*
X88725459Y-79783486D01*
X88078100Y-79556222D01*
X88031493Y-79526903D01*
X72906819Y-64402228D01*
X72873334Y-64340905D01*
X72870500Y-64314547D01*
X72870500Y-62221434D01*
X72890185Y-62154395D01*
X72942989Y-62108640D01*
X73012147Y-62098696D01*
X73046904Y-62109051D01*
G37*
%TD.AperFunction*%
%TA.AperFunction,Conductor*%
G36*
X100819442Y-35580185D02*
G01*
X100865197Y-35632989D01*
X100875141Y-35702147D01*
X100846116Y-35765703D01*
X100823531Y-35786071D01*
X100770496Y-35823205D01*
X100760855Y-35829957D01*
X100599954Y-35990858D01*
X100469432Y-36177265D01*
X100469431Y-36177267D01*
X100373261Y-36383502D01*
X100373258Y-36383511D01*
X100314366Y-36603302D01*
X100314364Y-36603313D01*
X100294532Y-36829998D01*
X100294532Y-36830001D01*
X100314364Y-37056686D01*
X100314366Y-37056697D01*
X100373258Y-37276488D01*
X100373261Y-37276497D01*
X100469431Y-37482732D01*
X100469432Y-37482734D01*
X100599954Y-37669141D01*
X100760858Y-37830045D01*
X100760861Y-37830047D01*
X100947266Y-37960568D01*
X101153504Y-38056739D01*
X101373308Y-38115635D01*
X101535230Y-38129801D01*
X101599998Y-38135468D01*
X101600000Y-38135468D01*
X101600002Y-38135468D01*
X101656672Y-38130509D01*
X101826692Y-38115635D01*
X102046496Y-38056739D01*
X102252734Y-37960568D01*
X102439139Y-37830047D01*
X102600047Y-37669139D01*
X102730568Y-37482734D01*
X102826739Y-37276496D01*
X102885635Y-37056692D01*
X102905468Y-36830000D01*
X102885635Y-36603308D01*
X102826739Y-36383504D01*
X102730568Y-36177266D01*
X102600047Y-35990861D01*
X102600045Y-35990858D01*
X102439144Y-35829957D01*
X102439140Y-35829954D01*
X102439139Y-35829953D01*
X102376471Y-35786073D01*
X102332849Y-35731499D01*
X102325655Y-35662001D01*
X102357177Y-35599646D01*
X102417407Y-35564231D01*
X102447597Y-35560500D01*
X105832403Y-35560500D01*
X105899442Y-35580185D01*
X105945197Y-35632989D01*
X105955141Y-35702147D01*
X105926116Y-35765703D01*
X105903531Y-35786071D01*
X105850496Y-35823205D01*
X105840855Y-35829957D01*
X105679954Y-35990858D01*
X105549432Y-36177265D01*
X105549431Y-36177267D01*
X105453261Y-36383502D01*
X105453258Y-36383511D01*
X105394366Y-36603302D01*
X105394364Y-36603313D01*
X105374532Y-36829998D01*
X105374532Y-36830001D01*
X105394364Y-37056686D01*
X105394366Y-37056697D01*
X105453258Y-37276488D01*
X105453261Y-37276497D01*
X105549431Y-37482732D01*
X105549432Y-37482734D01*
X105679954Y-37669141D01*
X105840858Y-37830045D01*
X105840861Y-37830047D01*
X106027266Y-37960568D01*
X106233504Y-38056739D01*
X106453308Y-38115635D01*
X106615230Y-38129801D01*
X106679998Y-38135468D01*
X106680000Y-38135468D01*
X106680002Y-38135468D01*
X106736673Y-38130509D01*
X106906692Y-38115635D01*
X107126496Y-38056739D01*
X107332734Y-37960568D01*
X107519139Y-37830047D01*
X107680047Y-37669139D01*
X107810568Y-37482734D01*
X107906739Y-37276496D01*
X107965635Y-37056692D01*
X107985468Y-36830000D01*
X107965635Y-36603308D01*
X107906739Y-36383504D01*
X107810568Y-36177266D01*
X107680047Y-35990861D01*
X107680045Y-35990858D01*
X107519144Y-35829957D01*
X107519140Y-35829954D01*
X107519139Y-35829953D01*
X107456471Y-35786073D01*
X107412849Y-35731499D01*
X107405655Y-35662001D01*
X107437177Y-35599646D01*
X107497407Y-35564231D01*
X107527597Y-35560500D01*
X109095500Y-35560500D01*
X109162539Y-35580185D01*
X109208294Y-35632989D01*
X109219500Y-35684500D01*
X109219500Y-83695500D01*
X109199815Y-83762539D01*
X109147011Y-83808294D01*
X109095500Y-83819500D01*
X25524500Y-83819500D01*
X25457461Y-83799815D01*
X25411706Y-83747011D01*
X25400500Y-83695500D01*
X25400500Y-81030000D01*
X26589999Y-81030000D01*
X27506314Y-81030000D01*
X27480507Y-81070156D01*
X27440000Y-81208111D01*
X27440000Y-81351889D01*
X27480507Y-81489844D01*
X27506314Y-81530000D01*
X26590000Y-81530000D01*
X26590000Y-82177844D01*
X26596401Y-82237372D01*
X26596403Y-82237379D01*
X26646645Y-82372086D01*
X26646649Y-82372093D01*
X26732809Y-82487187D01*
X26732812Y-82487190D01*
X26847906Y-82573350D01*
X26847913Y-82573354D01*
X26982620Y-82623596D01*
X26982627Y-82623598D01*
X27042155Y-82629999D01*
X27042172Y-82630000D01*
X27690000Y-82630000D01*
X27690000Y-81715501D01*
X27797685Y-81764680D01*
X27904237Y-81780000D01*
X27975763Y-81780000D01*
X28082315Y-81764680D01*
X28190000Y-81715501D01*
X28190000Y-82630000D01*
X28837828Y-82630000D01*
X28837844Y-82629999D01*
X28897372Y-82623598D01*
X28897379Y-82623596D01*
X29032086Y-82573354D01*
X29032093Y-82573350D01*
X29147187Y-82487190D01*
X29147190Y-82487187D01*
X29233350Y-82372093D01*
X29233354Y-82372086D01*
X29282422Y-82240529D01*
X29324293Y-82184595D01*
X29389757Y-82160178D01*
X29458030Y-82175030D01*
X29486285Y-82196181D01*
X29608599Y-82318495D01*
X29685135Y-82372086D01*
X29802165Y-82454032D01*
X29802167Y-82454033D01*
X29802170Y-82454035D01*
X30016337Y-82553903D01*
X30244592Y-82615063D01*
X30415319Y-82630000D01*
X30479999Y-82635659D01*
X30480000Y-82635659D01*
X30480001Y-82635659D01*
X30544681Y-82630000D01*
X30715408Y-82615063D01*
X30943663Y-82553903D01*
X31157830Y-82454035D01*
X31351401Y-82318495D01*
X31518495Y-82151401D01*
X31648426Y-81965841D01*
X31703002Y-81922217D01*
X31772500Y-81915023D01*
X31834855Y-81946546D01*
X31851575Y-81965842D01*
X31981500Y-82151395D01*
X31981505Y-82151401D01*
X32148599Y-82318495D01*
X32225135Y-82372086D01*
X32342165Y-82454032D01*
X32342167Y-82454033D01*
X32342170Y-82454035D01*
X32556337Y-82553903D01*
X32784592Y-82615063D01*
X32955319Y-82630000D01*
X33019999Y-82635659D01*
X33020000Y-82635659D01*
X33020001Y-82635659D01*
X33084681Y-82630000D01*
X33255408Y-82615063D01*
X33483663Y-82553903D01*
X33697830Y-82454035D01*
X33891401Y-82318495D01*
X34058495Y-82151401D01*
X34188426Y-81965841D01*
X34243002Y-81922217D01*
X34312500Y-81915023D01*
X34374855Y-81946546D01*
X34391575Y-81965842D01*
X34521500Y-82151395D01*
X34521505Y-82151401D01*
X34688599Y-82318495D01*
X34765135Y-82372086D01*
X34882165Y-82454032D01*
X34882167Y-82454033D01*
X34882170Y-82454035D01*
X35096337Y-82553903D01*
X35324592Y-82615063D01*
X35495319Y-82630000D01*
X35559999Y-82635659D01*
X35560000Y-82635659D01*
X35560001Y-82635659D01*
X35624681Y-82630000D01*
X35795408Y-82615063D01*
X36023663Y-82553903D01*
X36237830Y-82454035D01*
X36431401Y-82318495D01*
X36598495Y-82151401D01*
X36728426Y-81965841D01*
X36783002Y-81922217D01*
X36852500Y-81915023D01*
X36914855Y-81946546D01*
X36931575Y-81965842D01*
X37061500Y-82151395D01*
X37061505Y-82151401D01*
X37228599Y-82318495D01*
X37305135Y-82372086D01*
X37422165Y-82454032D01*
X37422167Y-82454033D01*
X37422170Y-82454035D01*
X37636337Y-82553903D01*
X37864592Y-82615063D01*
X38035319Y-82630000D01*
X38099999Y-82635659D01*
X38100000Y-82635659D01*
X38100001Y-82635659D01*
X38164681Y-82630000D01*
X38335408Y-82615063D01*
X38563663Y-82553903D01*
X38777830Y-82454035D01*
X38971401Y-82318495D01*
X39138495Y-82151401D01*
X39268426Y-81965841D01*
X39323002Y-81922217D01*
X39392500Y-81915023D01*
X39454855Y-81946546D01*
X39471575Y-81965842D01*
X39601500Y-82151395D01*
X39601505Y-82151401D01*
X39768599Y-82318495D01*
X39845135Y-82372086D01*
X39962165Y-82454032D01*
X39962167Y-82454033D01*
X39962170Y-82454035D01*
X40176337Y-82553903D01*
X40404592Y-82615063D01*
X40575319Y-82630000D01*
X40639999Y-82635659D01*
X40640000Y-82635659D01*
X40640001Y-82635659D01*
X40704681Y-82630000D01*
X40875408Y-82615063D01*
X41103663Y-82553903D01*
X41317830Y-82454035D01*
X41511401Y-82318495D01*
X41678495Y-82151401D01*
X41808426Y-81965841D01*
X41863002Y-81922217D01*
X41932500Y-81915023D01*
X41994855Y-81946546D01*
X42011575Y-81965842D01*
X42141500Y-82151395D01*
X42141505Y-82151401D01*
X42308599Y-82318495D01*
X42385135Y-82372086D01*
X42502165Y-82454032D01*
X42502167Y-82454033D01*
X42502170Y-82454035D01*
X42716337Y-82553903D01*
X42944592Y-82615063D01*
X43115319Y-82630000D01*
X43179999Y-82635659D01*
X43180000Y-82635659D01*
X43180001Y-82635659D01*
X43244681Y-82630000D01*
X43415408Y-82615063D01*
X43643663Y-82553903D01*
X43857830Y-82454035D01*
X44051401Y-82318495D01*
X44218495Y-82151401D01*
X44348426Y-81965841D01*
X44403002Y-81922217D01*
X44472500Y-81915023D01*
X44534855Y-81946546D01*
X44551575Y-81965842D01*
X44681500Y-82151395D01*
X44681505Y-82151401D01*
X44848599Y-82318495D01*
X44925135Y-82372086D01*
X45042165Y-82454032D01*
X45042167Y-82454033D01*
X45042170Y-82454035D01*
X45256337Y-82553903D01*
X45484592Y-82615063D01*
X45655319Y-82630000D01*
X45719999Y-82635659D01*
X45720000Y-82635659D01*
X45720001Y-82635659D01*
X45784681Y-82630000D01*
X45955408Y-82615063D01*
X46183663Y-82553903D01*
X46397830Y-82454035D01*
X46591401Y-82318495D01*
X46758495Y-82151401D01*
X46888426Y-81965841D01*
X46943002Y-81922217D01*
X47012500Y-81915023D01*
X47074855Y-81946546D01*
X47091575Y-81965842D01*
X47221500Y-82151395D01*
X47221505Y-82151401D01*
X47388599Y-82318495D01*
X47465135Y-82372086D01*
X47582165Y-82454032D01*
X47582167Y-82454033D01*
X47582170Y-82454035D01*
X47796337Y-82553903D01*
X48024592Y-82615063D01*
X48195319Y-82630000D01*
X48259999Y-82635659D01*
X48260000Y-82635659D01*
X48260001Y-82635659D01*
X48324681Y-82630000D01*
X48495408Y-82615063D01*
X48723663Y-82553903D01*
X48937830Y-82454035D01*
X49131401Y-82318495D01*
X49298495Y-82151401D01*
X49428426Y-81965841D01*
X49483002Y-81922217D01*
X49552500Y-81915023D01*
X49614855Y-81946546D01*
X49631575Y-81965842D01*
X49761500Y-82151395D01*
X49761505Y-82151401D01*
X49928599Y-82318495D01*
X50005135Y-82372086D01*
X50122165Y-82454032D01*
X50122167Y-82454033D01*
X50122170Y-82454035D01*
X50336337Y-82553903D01*
X50564592Y-82615063D01*
X50735319Y-82630000D01*
X50799999Y-82635659D01*
X50800000Y-82635659D01*
X50800001Y-82635659D01*
X50864681Y-82630000D01*
X51035408Y-82615063D01*
X51263663Y-82553903D01*
X51477830Y-82454035D01*
X51671401Y-82318495D01*
X51838495Y-82151401D01*
X51968426Y-81965841D01*
X52023002Y-81922217D01*
X52092500Y-81915023D01*
X52154855Y-81946546D01*
X52171575Y-81965842D01*
X52301500Y-82151395D01*
X52301505Y-82151401D01*
X52468599Y-82318495D01*
X52545135Y-82372086D01*
X52662165Y-82454032D01*
X52662167Y-82454033D01*
X52662170Y-82454035D01*
X52876337Y-82553903D01*
X53104592Y-82615063D01*
X53275319Y-82630000D01*
X53339999Y-82635659D01*
X53340000Y-82635659D01*
X53340001Y-82635659D01*
X53404681Y-82630000D01*
X53575408Y-82615063D01*
X53803663Y-82553903D01*
X54017830Y-82454035D01*
X54211401Y-82318495D01*
X54378495Y-82151401D01*
X54508426Y-81965841D01*
X54563002Y-81922217D01*
X54632500Y-81915023D01*
X54694855Y-81946546D01*
X54711575Y-81965842D01*
X54841500Y-82151395D01*
X54841505Y-82151401D01*
X55008599Y-82318495D01*
X55085135Y-82372086D01*
X55202165Y-82454032D01*
X55202167Y-82454033D01*
X55202170Y-82454035D01*
X55416337Y-82553903D01*
X55644592Y-82615063D01*
X55815319Y-82630000D01*
X55879999Y-82635659D01*
X55880000Y-82635659D01*
X55880001Y-82635659D01*
X55944681Y-82630000D01*
X56115408Y-82615063D01*
X56343663Y-82553903D01*
X56557830Y-82454035D01*
X56751401Y-82318495D01*
X56918495Y-82151401D01*
X57048426Y-81965841D01*
X57103002Y-81922217D01*
X57172500Y-81915023D01*
X57234855Y-81946546D01*
X57251575Y-81965842D01*
X57381500Y-82151395D01*
X57381505Y-82151401D01*
X57548599Y-82318495D01*
X57625135Y-82372086D01*
X57742165Y-82454032D01*
X57742167Y-82454033D01*
X57742170Y-82454035D01*
X57956337Y-82553903D01*
X58184592Y-82615063D01*
X58355319Y-82630000D01*
X58419999Y-82635659D01*
X58420000Y-82635659D01*
X58420001Y-82635659D01*
X58484681Y-82630000D01*
X58655408Y-82615063D01*
X58883663Y-82553903D01*
X59097830Y-82454035D01*
X59291401Y-82318495D01*
X59458495Y-82151401D01*
X59588426Y-81965841D01*
X59643002Y-81922217D01*
X59712500Y-81915023D01*
X59774855Y-81946546D01*
X59791575Y-81965842D01*
X59921500Y-82151395D01*
X59921505Y-82151401D01*
X60088599Y-82318495D01*
X60165135Y-82372086D01*
X60282165Y-82454032D01*
X60282167Y-82454033D01*
X60282170Y-82454035D01*
X60496337Y-82553903D01*
X60724592Y-82615063D01*
X60895319Y-82630000D01*
X60959999Y-82635659D01*
X60960000Y-82635659D01*
X60960001Y-82635659D01*
X61024681Y-82630000D01*
X61195408Y-82615063D01*
X61423663Y-82553903D01*
X61637830Y-82454035D01*
X61831401Y-82318495D01*
X61998495Y-82151401D01*
X62128426Y-81965841D01*
X62183002Y-81922217D01*
X62252500Y-81915023D01*
X62314855Y-81946546D01*
X62331575Y-81965842D01*
X62461500Y-82151395D01*
X62461505Y-82151401D01*
X62628599Y-82318495D01*
X62705135Y-82372086D01*
X62822165Y-82454032D01*
X62822167Y-82454033D01*
X62822170Y-82454035D01*
X63036337Y-82553903D01*
X63264592Y-82615063D01*
X63435319Y-82630000D01*
X63499999Y-82635659D01*
X63500000Y-82635659D01*
X63500001Y-82635659D01*
X63564681Y-82630000D01*
X63735408Y-82615063D01*
X63963663Y-82553903D01*
X64177830Y-82454035D01*
X64371401Y-82318495D01*
X64538495Y-82151401D01*
X64668426Y-81965841D01*
X64723002Y-81922217D01*
X64792500Y-81915023D01*
X64854855Y-81946546D01*
X64871575Y-81965842D01*
X65001500Y-82151395D01*
X65001505Y-82151401D01*
X65168599Y-82318495D01*
X65245135Y-82372086D01*
X65362165Y-82454032D01*
X65362167Y-82454033D01*
X65362170Y-82454035D01*
X65576337Y-82553903D01*
X65804592Y-82615063D01*
X65975319Y-82630000D01*
X66039999Y-82635659D01*
X66040000Y-82635659D01*
X66040001Y-82635659D01*
X66104681Y-82630000D01*
X66275408Y-82615063D01*
X66503663Y-82553903D01*
X66717830Y-82454035D01*
X66911401Y-82318495D01*
X67078495Y-82151401D01*
X67208426Y-81965841D01*
X67263002Y-81922217D01*
X67332500Y-81915023D01*
X67394855Y-81946546D01*
X67411575Y-81965842D01*
X67541500Y-82151395D01*
X67541505Y-82151401D01*
X67708599Y-82318495D01*
X67785135Y-82372086D01*
X67902165Y-82454032D01*
X67902167Y-82454033D01*
X67902170Y-82454035D01*
X68116337Y-82553903D01*
X68344592Y-82615063D01*
X68515319Y-82630000D01*
X68579999Y-82635659D01*
X68580000Y-82635659D01*
X68580001Y-82635659D01*
X68644681Y-82630000D01*
X68815408Y-82615063D01*
X69043663Y-82553903D01*
X69257830Y-82454035D01*
X69451401Y-82318495D01*
X69618495Y-82151401D01*
X69748426Y-81965841D01*
X69803002Y-81922217D01*
X69872500Y-81915023D01*
X69934855Y-81946546D01*
X69951575Y-81965842D01*
X70081500Y-82151395D01*
X70081505Y-82151401D01*
X70248599Y-82318495D01*
X70325135Y-82372086D01*
X70442165Y-82454032D01*
X70442167Y-82454033D01*
X70442170Y-82454035D01*
X70656337Y-82553903D01*
X70884592Y-82615063D01*
X71055319Y-82630000D01*
X71119999Y-82635659D01*
X71120000Y-82635659D01*
X71120001Y-82635659D01*
X71184681Y-82630000D01*
X71355408Y-82615063D01*
X71583663Y-82553903D01*
X71797830Y-82454035D01*
X71991401Y-82318495D01*
X72158495Y-82151401D01*
X72288426Y-81965841D01*
X72343002Y-81922217D01*
X72412500Y-81915023D01*
X72474855Y-81946546D01*
X72491575Y-81965842D01*
X72621500Y-82151395D01*
X72621505Y-82151401D01*
X72788599Y-82318495D01*
X72865135Y-82372086D01*
X72982165Y-82454032D01*
X72982167Y-82454033D01*
X72982170Y-82454035D01*
X73196337Y-82553903D01*
X73424592Y-82615063D01*
X73595319Y-82630000D01*
X73659999Y-82635659D01*
X73660000Y-82635659D01*
X73660001Y-82635659D01*
X73724681Y-82630000D01*
X73895408Y-82615063D01*
X74123663Y-82553903D01*
X74337830Y-82454035D01*
X74531401Y-82318495D01*
X74698495Y-82151401D01*
X74828426Y-81965841D01*
X74883002Y-81922217D01*
X74952500Y-81915023D01*
X75014855Y-81946546D01*
X75031575Y-81965842D01*
X75161500Y-82151395D01*
X75161505Y-82151401D01*
X75328599Y-82318495D01*
X75405135Y-82372086D01*
X75522165Y-82454032D01*
X75522167Y-82454033D01*
X75522170Y-82454035D01*
X75736337Y-82553903D01*
X75964592Y-82615063D01*
X76135319Y-82630000D01*
X76199999Y-82635659D01*
X76200000Y-82635659D01*
X76200001Y-82635659D01*
X76264681Y-82630000D01*
X76435408Y-82615063D01*
X76663663Y-82553903D01*
X76877830Y-82454035D01*
X77071401Y-82318495D01*
X77238495Y-82151401D01*
X77368426Y-81965841D01*
X77423002Y-81922217D01*
X77492500Y-81915023D01*
X77554855Y-81946546D01*
X77571575Y-81965842D01*
X77701500Y-82151395D01*
X77701505Y-82151401D01*
X77868599Y-82318495D01*
X77945135Y-82372086D01*
X78062165Y-82454032D01*
X78062167Y-82454033D01*
X78062170Y-82454035D01*
X78276337Y-82553903D01*
X78504592Y-82615063D01*
X78675319Y-82630000D01*
X78739999Y-82635659D01*
X78740000Y-82635659D01*
X78740001Y-82635659D01*
X78804681Y-82630000D01*
X78975408Y-82615063D01*
X79203663Y-82553903D01*
X79417830Y-82454035D01*
X79611401Y-82318495D01*
X79778495Y-82151401D01*
X79908426Y-81965841D01*
X79963002Y-81922217D01*
X80032500Y-81915023D01*
X80094855Y-81946546D01*
X80111575Y-81965842D01*
X80241500Y-82151395D01*
X80241505Y-82151401D01*
X80408599Y-82318495D01*
X80485135Y-82372086D01*
X80602165Y-82454032D01*
X80602167Y-82454033D01*
X80602170Y-82454035D01*
X80816337Y-82553903D01*
X81044592Y-82615063D01*
X81215319Y-82630000D01*
X81279999Y-82635659D01*
X81280000Y-82635659D01*
X81280001Y-82635659D01*
X81344681Y-82630000D01*
X81515408Y-82615063D01*
X81743663Y-82553903D01*
X81957830Y-82454035D01*
X82151401Y-82318495D01*
X82318495Y-82151401D01*
X82448426Y-81965840D01*
X82503001Y-81922217D01*
X82572499Y-81915023D01*
X82634854Y-81946546D01*
X82651574Y-81965841D01*
X82781505Y-82151401D01*
X82948599Y-82318495D01*
X83025135Y-82372086D01*
X83142165Y-82454032D01*
X83142167Y-82454033D01*
X83142170Y-82454035D01*
X83356337Y-82553903D01*
X83584592Y-82615063D01*
X83755319Y-82630000D01*
X83819999Y-82635659D01*
X83820000Y-82635659D01*
X83820001Y-82635659D01*
X83884681Y-82630000D01*
X84055408Y-82615063D01*
X84283663Y-82553903D01*
X84497830Y-82454035D01*
X84691401Y-82318495D01*
X84858495Y-82151401D01*
X84988426Y-81965841D01*
X85043002Y-81922217D01*
X85112500Y-81915023D01*
X85174855Y-81946546D01*
X85191575Y-81965842D01*
X85321500Y-82151395D01*
X85321505Y-82151401D01*
X85488599Y-82318495D01*
X85565135Y-82372086D01*
X85682165Y-82454032D01*
X85682167Y-82454033D01*
X85682170Y-82454035D01*
X85896337Y-82553903D01*
X86124592Y-82615063D01*
X86295319Y-82630000D01*
X86359999Y-82635659D01*
X86360000Y-82635659D01*
X86360001Y-82635659D01*
X86424681Y-82630000D01*
X86595408Y-82615063D01*
X86823663Y-82553903D01*
X87037830Y-82454035D01*
X87231401Y-82318495D01*
X87398495Y-82151401D01*
X87528426Y-81965840D01*
X87583001Y-81922217D01*
X87652499Y-81915023D01*
X87714854Y-81946546D01*
X87731574Y-81965841D01*
X87861505Y-82151401D01*
X88028599Y-82318495D01*
X88105135Y-82372086D01*
X88222165Y-82454032D01*
X88222167Y-82454033D01*
X88222170Y-82454035D01*
X88436337Y-82553903D01*
X88664592Y-82615063D01*
X88835319Y-82630000D01*
X88899999Y-82635659D01*
X88900000Y-82635659D01*
X88900001Y-82635659D01*
X88964681Y-82630000D01*
X89135408Y-82615063D01*
X89363663Y-82553903D01*
X89577830Y-82454035D01*
X89771401Y-82318495D01*
X89938495Y-82151401D01*
X90068426Y-81965841D01*
X90123002Y-81922217D01*
X90192500Y-81915023D01*
X90254855Y-81946546D01*
X90271575Y-81965842D01*
X90401500Y-82151395D01*
X90401505Y-82151401D01*
X90568599Y-82318495D01*
X90645135Y-82372086D01*
X90762165Y-82454032D01*
X90762167Y-82454033D01*
X90762170Y-82454035D01*
X90976337Y-82553903D01*
X91204592Y-82615063D01*
X91375319Y-82630000D01*
X91439999Y-82635659D01*
X91440000Y-82635659D01*
X91440001Y-82635659D01*
X91504681Y-82630000D01*
X91675408Y-82615063D01*
X91903663Y-82553903D01*
X92117830Y-82454035D01*
X92311401Y-82318495D01*
X92478495Y-82151401D01*
X92608426Y-81965840D01*
X92663001Y-81922217D01*
X92732499Y-81915023D01*
X92794854Y-81946546D01*
X92811574Y-81965841D01*
X92941505Y-82151401D01*
X93108599Y-82318495D01*
X93185135Y-82372086D01*
X93302165Y-82454032D01*
X93302167Y-82454033D01*
X93302170Y-82454035D01*
X93516337Y-82553903D01*
X93744592Y-82615063D01*
X93915319Y-82630000D01*
X93979999Y-82635659D01*
X93980000Y-82635659D01*
X93980001Y-82635659D01*
X94044681Y-82630000D01*
X94215408Y-82615063D01*
X94443663Y-82553903D01*
X94657830Y-82454035D01*
X94851401Y-82318495D01*
X95018495Y-82151401D01*
X95148426Y-81965841D01*
X95203002Y-81922217D01*
X95272500Y-81915023D01*
X95334855Y-81946546D01*
X95351575Y-81965842D01*
X95481500Y-82151395D01*
X95481505Y-82151401D01*
X95648599Y-82318495D01*
X95725135Y-82372086D01*
X95842165Y-82454032D01*
X95842167Y-82454033D01*
X95842170Y-82454035D01*
X96056337Y-82553903D01*
X96284592Y-82615063D01*
X96455319Y-82630000D01*
X96519999Y-82635659D01*
X96520000Y-82635659D01*
X96520001Y-82635659D01*
X96584681Y-82630000D01*
X96755408Y-82615063D01*
X96983663Y-82553903D01*
X97197830Y-82454035D01*
X97391401Y-82318495D01*
X97558495Y-82151401D01*
X97688426Y-81965840D01*
X97743001Y-81922217D01*
X97812499Y-81915023D01*
X97874854Y-81946546D01*
X97891574Y-81965841D01*
X98021505Y-82151401D01*
X98188599Y-82318495D01*
X98265135Y-82372086D01*
X98382165Y-82454032D01*
X98382167Y-82454033D01*
X98382170Y-82454035D01*
X98596337Y-82553903D01*
X98824592Y-82615063D01*
X98995319Y-82630000D01*
X99059999Y-82635659D01*
X99060000Y-82635659D01*
X99060001Y-82635659D01*
X99124681Y-82630000D01*
X99295408Y-82615063D01*
X99523663Y-82553903D01*
X99737830Y-82454035D01*
X99931401Y-82318495D01*
X100098495Y-82151401D01*
X100228426Y-81965841D01*
X100283002Y-81922217D01*
X100352500Y-81915023D01*
X100414855Y-81946546D01*
X100431575Y-81965842D01*
X100561500Y-82151395D01*
X100561505Y-82151401D01*
X100728599Y-82318495D01*
X100805135Y-82372086D01*
X100922165Y-82454032D01*
X100922167Y-82454033D01*
X100922170Y-82454035D01*
X101136337Y-82553903D01*
X101364592Y-82615063D01*
X101535319Y-82630000D01*
X101599999Y-82635659D01*
X101600000Y-82635659D01*
X101600001Y-82635659D01*
X101664681Y-82630000D01*
X101835408Y-82615063D01*
X102063663Y-82553903D01*
X102277830Y-82454035D01*
X102471401Y-82318495D01*
X102638495Y-82151401D01*
X102768426Y-81965840D01*
X102823001Y-81922217D01*
X102892499Y-81915023D01*
X102954854Y-81946546D01*
X102971574Y-81965841D01*
X103101505Y-82151401D01*
X103268599Y-82318495D01*
X103345135Y-82372086D01*
X103462165Y-82454032D01*
X103462167Y-82454033D01*
X103462170Y-82454035D01*
X103676337Y-82553903D01*
X103904592Y-82615063D01*
X104075319Y-82630000D01*
X104139999Y-82635659D01*
X104140000Y-82635659D01*
X104140001Y-82635659D01*
X104204681Y-82630000D01*
X104375408Y-82615063D01*
X104603663Y-82553903D01*
X104817830Y-82454035D01*
X105011401Y-82318495D01*
X105178495Y-82151401D01*
X105308426Y-81965840D01*
X105363001Y-81922217D01*
X105432499Y-81915023D01*
X105494854Y-81946546D01*
X105511574Y-81965841D01*
X105641505Y-82151401D01*
X105808599Y-82318495D01*
X105885135Y-82372086D01*
X106002165Y-82454032D01*
X106002167Y-82454033D01*
X106002170Y-82454035D01*
X106216337Y-82553903D01*
X106444592Y-82615063D01*
X106615319Y-82630000D01*
X106679999Y-82635659D01*
X106680000Y-82635659D01*
X106680001Y-82635659D01*
X106744681Y-82630000D01*
X106915408Y-82615063D01*
X107143663Y-82553903D01*
X107357830Y-82454035D01*
X107551401Y-82318495D01*
X107718495Y-82151401D01*
X107854035Y-81957830D01*
X107953903Y-81743663D01*
X108015063Y-81515408D01*
X108035659Y-81280000D01*
X108015063Y-81044592D01*
X107953903Y-80816337D01*
X107854035Y-80602171D01*
X107848425Y-80594158D01*
X107718494Y-80408597D01*
X107551402Y-80241506D01*
X107551395Y-80241501D01*
X107357834Y-80105967D01*
X107357830Y-80105965D01*
X107286727Y-80072809D01*
X107143663Y-80006097D01*
X107143659Y-80006096D01*
X107143655Y-80006094D01*
X106915413Y-79944938D01*
X106915403Y-79944936D01*
X106680001Y-79924341D01*
X106679999Y-79924341D01*
X106444596Y-79944936D01*
X106444586Y-79944938D01*
X106216344Y-80006094D01*
X106216335Y-80006098D01*
X106002171Y-80105964D01*
X106002169Y-80105965D01*
X105808597Y-80241505D01*
X105641508Y-80408594D01*
X105511574Y-80594159D01*
X105456997Y-80637784D01*
X105387498Y-80644976D01*
X105325144Y-80613454D01*
X105308424Y-80594158D01*
X105178494Y-80408597D01*
X105011402Y-80241506D01*
X105011395Y-80241501D01*
X104817834Y-80105967D01*
X104817830Y-80105965D01*
X104746727Y-80072809D01*
X104603663Y-80006097D01*
X104603659Y-80006096D01*
X104603655Y-80006094D01*
X104375413Y-79944938D01*
X104375403Y-79944936D01*
X104140001Y-79924341D01*
X104139999Y-79924341D01*
X103904596Y-79944936D01*
X103904586Y-79944938D01*
X103676344Y-80006094D01*
X103676335Y-80006098D01*
X103462171Y-80105964D01*
X103462169Y-80105965D01*
X103268597Y-80241505D01*
X103101505Y-80408597D01*
X102971575Y-80594158D01*
X102916998Y-80637783D01*
X102847500Y-80644977D01*
X102785145Y-80613454D01*
X102768425Y-80594158D01*
X102638494Y-80408597D01*
X102471402Y-80241506D01*
X102471395Y-80241501D01*
X102277834Y-80105967D01*
X102277830Y-80105965D01*
X102206727Y-80072809D01*
X102063663Y-80006097D01*
X102063659Y-80006096D01*
X102063655Y-80006094D01*
X101835413Y-79944938D01*
X101835403Y-79944936D01*
X101600001Y-79924341D01*
X101599999Y-79924341D01*
X101364596Y-79944936D01*
X101364586Y-79944938D01*
X101136344Y-80006094D01*
X101136335Y-80006098D01*
X100922171Y-80105964D01*
X100922169Y-80105965D01*
X100728597Y-80241505D01*
X100561505Y-80408597D01*
X100431575Y-80594158D01*
X100376998Y-80637783D01*
X100307500Y-80644977D01*
X100245145Y-80613454D01*
X100228425Y-80594158D01*
X100098494Y-80408597D01*
X99931402Y-80241506D01*
X99931395Y-80241501D01*
X99737834Y-80105967D01*
X99737830Y-80105965D01*
X99666727Y-80072809D01*
X99523663Y-80006097D01*
X99523659Y-80006096D01*
X99523655Y-80006094D01*
X99295413Y-79944938D01*
X99295403Y-79944936D01*
X99060001Y-79924341D01*
X99059999Y-79924341D01*
X98824596Y-79944936D01*
X98824586Y-79944938D01*
X98596344Y-80006094D01*
X98596335Y-80006098D01*
X98382171Y-80105964D01*
X98382169Y-80105965D01*
X98188597Y-80241505D01*
X98021508Y-80408594D01*
X97891574Y-80594159D01*
X97836997Y-80637784D01*
X97767498Y-80644976D01*
X97705144Y-80613454D01*
X97688424Y-80594158D01*
X97558494Y-80408597D01*
X97391402Y-80241506D01*
X97391395Y-80241501D01*
X97197834Y-80105967D01*
X97197830Y-80105965D01*
X97126727Y-80072809D01*
X96983663Y-80006097D01*
X96983659Y-80006096D01*
X96983655Y-80006094D01*
X96755413Y-79944938D01*
X96755403Y-79944936D01*
X96520001Y-79924341D01*
X96519999Y-79924341D01*
X96284596Y-79944936D01*
X96284586Y-79944938D01*
X96056344Y-80006094D01*
X96056335Y-80006098D01*
X95842171Y-80105964D01*
X95842169Y-80105965D01*
X95648597Y-80241505D01*
X95481505Y-80408597D01*
X95351575Y-80594158D01*
X95296998Y-80637783D01*
X95227500Y-80644977D01*
X95165145Y-80613454D01*
X95148425Y-80594158D01*
X95018494Y-80408597D01*
X94851402Y-80241506D01*
X94851395Y-80241501D01*
X94657834Y-80105967D01*
X94657830Y-80105965D01*
X94586727Y-80072809D01*
X94443663Y-80006097D01*
X94443659Y-80006096D01*
X94443655Y-80006094D01*
X94215413Y-79944938D01*
X94215403Y-79944936D01*
X93980001Y-79924341D01*
X93979999Y-79924341D01*
X93744596Y-79944936D01*
X93744586Y-79944938D01*
X93516344Y-80006094D01*
X93516335Y-80006098D01*
X93302171Y-80105964D01*
X93302169Y-80105965D01*
X93108597Y-80241505D01*
X92941505Y-80408597D01*
X92811575Y-80594158D01*
X92756998Y-80637783D01*
X92687500Y-80644977D01*
X92625145Y-80613454D01*
X92608425Y-80594158D01*
X92478494Y-80408597D01*
X92311402Y-80241506D01*
X92311395Y-80241501D01*
X92117831Y-80105965D01*
X92117829Y-80105964D01*
X91932644Y-80019610D01*
X91930195Y-80018402D01*
X91921083Y-80013653D01*
X91921075Y-80013650D01*
X91921073Y-80013649D01*
X91919045Y-80012937D01*
X91913389Y-80010632D01*
X91907266Y-80007777D01*
X91903664Y-80006097D01*
X91888614Y-80002064D01*
X91884126Y-80000677D01*
X90618100Y-79556222D01*
X90571493Y-79526903D01*
X75446819Y-64402228D01*
X75413334Y-64340905D01*
X75410500Y-64314547D01*
X75410500Y-62221434D01*
X75430185Y-62154395D01*
X75482989Y-62108640D01*
X75552147Y-62098696D01*
X75586904Y-62109051D01*
X75753504Y-62186739D01*
X75753510Y-62186740D01*
X75753511Y-62186741D01*
X75783181Y-62194691D01*
X75973308Y-62245635D01*
X76135230Y-62259801D01*
X76199998Y-62265468D01*
X76200000Y-62265468D01*
X76200002Y-62265468D01*
X76256807Y-62260498D01*
X76426692Y-62245635D01*
X76646496Y-62186739D01*
X76852734Y-62090568D01*
X77039139Y-61960047D01*
X77200047Y-61799139D01*
X77330568Y-61612734D01*
X77357618Y-61554724D01*
X77403790Y-61502285D01*
X77470983Y-61483133D01*
X77537865Y-61503348D01*
X77582381Y-61554724D01*
X77596413Y-61584815D01*
X77609429Y-61612728D01*
X77609432Y-61612734D01*
X77739954Y-61799141D01*
X77900858Y-61960045D01*
X77900861Y-61960047D01*
X78087266Y-62090568D01*
X78293504Y-62186739D01*
X78293509Y-62186740D01*
X78293511Y-62186741D01*
X78323181Y-62194691D01*
X78513308Y-62245635D01*
X78675230Y-62259801D01*
X78739998Y-62265468D01*
X78740000Y-62265468D01*
X78740002Y-62265468D01*
X78796807Y-62260498D01*
X78966692Y-62245635D01*
X79186496Y-62186739D01*
X79392734Y-62090568D01*
X79579139Y-61960047D01*
X79740047Y-61799139D01*
X79870568Y-61612734D01*
X79897618Y-61554724D01*
X79943790Y-61502285D01*
X80010983Y-61483133D01*
X80077865Y-61503348D01*
X80122381Y-61554724D01*
X80136413Y-61584815D01*
X80149429Y-61612728D01*
X80149432Y-61612734D01*
X80279954Y-61799141D01*
X80440858Y-61960045D01*
X80440861Y-61960047D01*
X80627266Y-62090568D01*
X80833504Y-62186739D01*
X80833509Y-62186740D01*
X80833511Y-62186741D01*
X80863181Y-62194691D01*
X81053308Y-62245635D01*
X81215230Y-62259801D01*
X81279998Y-62265468D01*
X81280000Y-62265468D01*
X81280002Y-62265468D01*
X81336807Y-62260498D01*
X81506692Y-62245635D01*
X81726496Y-62186739D01*
X81932734Y-62090568D01*
X82119139Y-61960047D01*
X82280047Y-61799139D01*
X82410568Y-61612734D01*
X82506739Y-61406496D01*
X82565635Y-61186692D01*
X82585468Y-60960000D01*
X82581952Y-60919817D01*
X82565635Y-60733313D01*
X82565635Y-60733308D01*
X82506739Y-60513504D01*
X82410568Y-60307266D01*
X82299366Y-60148452D01*
X82280045Y-60120858D01*
X82119141Y-59959954D01*
X81932734Y-59829432D01*
X81932732Y-59829431D01*
X81726497Y-59733261D01*
X81726488Y-59733258D01*
X81506697Y-59674366D01*
X81506693Y-59674365D01*
X81506692Y-59674365D01*
X81506691Y-59674364D01*
X81506686Y-59674364D01*
X81280002Y-59654532D01*
X81279998Y-59654532D01*
X81053313Y-59674364D01*
X81053302Y-59674366D01*
X80833511Y-59733258D01*
X80833502Y-59733261D01*
X80627267Y-59829431D01*
X80627265Y-59829432D01*
X80440858Y-59959954D01*
X80279954Y-60120858D01*
X80149432Y-60307265D01*
X80149431Y-60307267D01*
X80122382Y-60365275D01*
X80076209Y-60417714D01*
X80009016Y-60436866D01*
X79942135Y-60416650D01*
X79897618Y-60365275D01*
X79887106Y-60342732D01*
X79870568Y-60307266D01*
X79759366Y-60148452D01*
X79740045Y-60120858D01*
X79579141Y-59959954D01*
X79392734Y-59829432D01*
X79392732Y-59829431D01*
X79186497Y-59733261D01*
X79186488Y-59733258D01*
X78966697Y-59674366D01*
X78966693Y-59674365D01*
X78966692Y-59674365D01*
X78966691Y-59674364D01*
X78966686Y-59674364D01*
X78740002Y-59654532D01*
X78739998Y-59654532D01*
X78513313Y-59674364D01*
X78513302Y-59674366D01*
X78293511Y-59733258D01*
X78293502Y-59733261D01*
X78087267Y-59829431D01*
X78087265Y-59829432D01*
X77900858Y-59959954D01*
X77739954Y-60120858D01*
X77609432Y-60307265D01*
X77609431Y-60307267D01*
X77582382Y-60365275D01*
X77536209Y-60417714D01*
X77469016Y-60436866D01*
X77402135Y-60416650D01*
X77357618Y-60365275D01*
X77347106Y-60342732D01*
X77330568Y-60307266D01*
X77219366Y-60148452D01*
X77200045Y-60120858D01*
X77039141Y-59959954D01*
X76852734Y-59829432D01*
X76852732Y-59829431D01*
X76646497Y-59733261D01*
X76646488Y-59733258D01*
X76426697Y-59674366D01*
X76426693Y-59674365D01*
X76426692Y-59674365D01*
X76426691Y-59674364D01*
X76426686Y-59674364D01*
X76200002Y-59654532D01*
X76199998Y-59654532D01*
X75973313Y-59674364D01*
X75973302Y-59674366D01*
X75753511Y-59733258D01*
X75753496Y-59733263D01*
X75717540Y-59750030D01*
X75648463Y-59760521D01*
X75584679Y-59731999D01*
X75546441Y-59673522D01*
X75545888Y-59603655D01*
X75549140Y-59593825D01*
X75623394Y-59397399D01*
X75637580Y-59354054D01*
X75638016Y-59350674D01*
X75643066Y-59328221D01*
X75670672Y-59243262D01*
X75670671Y-59243262D01*
X75670674Y-59243256D01*
X75690460Y-59055000D01*
X75670674Y-58866744D01*
X75612179Y-58686716D01*
X75517533Y-58522784D01*
X75390871Y-58382112D01*
X75390870Y-58382111D01*
X75237734Y-58270851D01*
X75237729Y-58270848D01*
X75064807Y-58193857D01*
X75064802Y-58193855D01*
X74919001Y-58162865D01*
X74879646Y-58154500D01*
X74690354Y-58154500D01*
X74657897Y-58161398D01*
X74505197Y-58193855D01*
X74505192Y-58193857D01*
X74332270Y-58270848D01*
X74332265Y-58270851D01*
X74179129Y-58382111D01*
X74052466Y-58522785D01*
X73957821Y-58686715D01*
X73957818Y-58686722D01*
X73899327Y-58866740D01*
X73899326Y-58866744D01*
X73891704Y-58939268D01*
X73879540Y-59054999D01*
X73899326Y-59243256D01*
X73899328Y-59243262D01*
X73939621Y-59367274D01*
X73941181Y-59372989D01*
X73946602Y-59397390D01*
X73946607Y-59397406D01*
X73987161Y-59504687D01*
X73992453Y-59574356D01*
X73959239Y-59635826D01*
X73898065Y-59669582D01*
X73860365Y-59672061D01*
X73660002Y-59654532D01*
X73659998Y-59654532D01*
X73433313Y-59674364D01*
X73433302Y-59674366D01*
X73213511Y-59733258D01*
X73213496Y-59733263D01*
X73177540Y-59750030D01*
X73108463Y-59760521D01*
X73044679Y-59731999D01*
X73006441Y-59673522D01*
X73005888Y-59603655D01*
X73009140Y-59593825D01*
X73083394Y-59397399D01*
X73097580Y-59354054D01*
X73098016Y-59350674D01*
X73103066Y-59328221D01*
X73130672Y-59243262D01*
X73130671Y-59243262D01*
X73130674Y-59243256D01*
X73150460Y-59055000D01*
X73130674Y-58866744D01*
X73072179Y-58686716D01*
X72977533Y-58522784D01*
X72850871Y-58382112D01*
X72850870Y-58382111D01*
X72697734Y-58270851D01*
X72697729Y-58270848D01*
X72524807Y-58193857D01*
X72524802Y-58193855D01*
X72379000Y-58162865D01*
X72339646Y-58154500D01*
X72150354Y-58154500D01*
X72117897Y-58161398D01*
X71965197Y-58193855D01*
X71965192Y-58193857D01*
X71792270Y-58270848D01*
X71792265Y-58270851D01*
X71639129Y-58382111D01*
X71512466Y-58522785D01*
X71417821Y-58686715D01*
X71417818Y-58686722D01*
X71359327Y-58866740D01*
X71359326Y-58866744D01*
X71351704Y-58939268D01*
X71339540Y-59055000D01*
X71359326Y-59243256D01*
X71359328Y-59243262D01*
X71399621Y-59367274D01*
X71401181Y-59372989D01*
X71406602Y-59397390D01*
X71406607Y-59397406D01*
X71447161Y-59504687D01*
X71452453Y-59574356D01*
X71419239Y-59635826D01*
X71358065Y-59669582D01*
X71320365Y-59672061D01*
X71120002Y-59654532D01*
X71119998Y-59654532D01*
X70893313Y-59674364D01*
X70893302Y-59674366D01*
X70673511Y-59733258D01*
X70673496Y-59733263D01*
X70637540Y-59750030D01*
X70568463Y-59760521D01*
X70504679Y-59731999D01*
X70466441Y-59673522D01*
X70465888Y-59603655D01*
X70469140Y-59593825D01*
X70543394Y-59397399D01*
X70557580Y-59354054D01*
X70558016Y-59350674D01*
X70563066Y-59328221D01*
X70590672Y-59243262D01*
X70590671Y-59243262D01*
X70590674Y-59243256D01*
X70610460Y-59055000D01*
X70590674Y-58866744D01*
X70532179Y-58686716D01*
X70437533Y-58522784D01*
X70310871Y-58382112D01*
X70310870Y-58382111D01*
X70157734Y-58270851D01*
X70157729Y-58270848D01*
X69984807Y-58193857D01*
X69984802Y-58193855D01*
X69839000Y-58162865D01*
X69799646Y-58154500D01*
X69610354Y-58154500D01*
X69577897Y-58161398D01*
X69425197Y-58193855D01*
X69425192Y-58193857D01*
X69252270Y-58270848D01*
X69252265Y-58270851D01*
X69099129Y-58382111D01*
X68972466Y-58522785D01*
X68877821Y-58686715D01*
X68877818Y-58686722D01*
X68819327Y-58866740D01*
X68819326Y-58866744D01*
X68811704Y-58939268D01*
X68799540Y-59054999D01*
X68819326Y-59243256D01*
X68819328Y-59243262D01*
X68859621Y-59367274D01*
X68861181Y-59372989D01*
X68866602Y-59397390D01*
X68866607Y-59397406D01*
X68907161Y-59504687D01*
X68912453Y-59574356D01*
X68879239Y-59635826D01*
X68818065Y-59669582D01*
X68780365Y-59672061D01*
X68580002Y-59654532D01*
X68579998Y-59654532D01*
X68353313Y-59674364D01*
X68353302Y-59674366D01*
X68133511Y-59733258D01*
X68133496Y-59733263D01*
X68097540Y-59750030D01*
X68028463Y-59760521D01*
X67964679Y-59731999D01*
X67926441Y-59673522D01*
X67925888Y-59603655D01*
X67929140Y-59593825D01*
X68003394Y-59397399D01*
X68017580Y-59354054D01*
X68018016Y-59350674D01*
X68023066Y-59328221D01*
X68050672Y-59243262D01*
X68050671Y-59243262D01*
X68050674Y-59243256D01*
X68070460Y-59055000D01*
X68050674Y-58866744D01*
X67992179Y-58686716D01*
X67897533Y-58522784D01*
X67770871Y-58382112D01*
X67770870Y-58382111D01*
X67617734Y-58270851D01*
X67617729Y-58270848D01*
X67444807Y-58193857D01*
X67444802Y-58193855D01*
X67299001Y-58162865D01*
X67259646Y-58154500D01*
X67070354Y-58154500D01*
X67037897Y-58161398D01*
X66885197Y-58193855D01*
X66885192Y-58193857D01*
X66712270Y-58270848D01*
X66712265Y-58270851D01*
X66559129Y-58382111D01*
X66432466Y-58522785D01*
X66337821Y-58686715D01*
X66337818Y-58686722D01*
X66279327Y-58866740D01*
X66279326Y-58866744D01*
X66271704Y-58939268D01*
X66259540Y-59054999D01*
X66279326Y-59243256D01*
X66279328Y-59243262D01*
X66319621Y-59367274D01*
X66321181Y-59372989D01*
X66326602Y-59397390D01*
X66326607Y-59397406D01*
X66367161Y-59504687D01*
X66372453Y-59574356D01*
X66339239Y-59635826D01*
X66278065Y-59669582D01*
X66240365Y-59672061D01*
X66040002Y-59654532D01*
X66039998Y-59654532D01*
X65813313Y-59674364D01*
X65813302Y-59674366D01*
X65593511Y-59733258D01*
X65593496Y-59733263D01*
X65557540Y-59750030D01*
X65488463Y-59760521D01*
X65424679Y-59731999D01*
X65386441Y-59673522D01*
X65385888Y-59603655D01*
X65389140Y-59593825D01*
X65463394Y-59397399D01*
X65477580Y-59354054D01*
X65478016Y-59350674D01*
X65483066Y-59328221D01*
X65510672Y-59243262D01*
X65510671Y-59243262D01*
X65510674Y-59243256D01*
X65530460Y-59055000D01*
X65510674Y-58866744D01*
X65452179Y-58686716D01*
X65357533Y-58522784D01*
X65230871Y-58382112D01*
X65230870Y-58382111D01*
X65077734Y-58270851D01*
X65077729Y-58270848D01*
X64904807Y-58193857D01*
X64904802Y-58193855D01*
X64759001Y-58162865D01*
X64719646Y-58154500D01*
X64530354Y-58154500D01*
X64497897Y-58161398D01*
X64345197Y-58193855D01*
X64345192Y-58193857D01*
X64172270Y-58270848D01*
X64172265Y-58270851D01*
X64019129Y-58382111D01*
X63892466Y-58522785D01*
X63797821Y-58686715D01*
X63797818Y-58686722D01*
X63739327Y-58866740D01*
X63739326Y-58866744D01*
X63731704Y-58939268D01*
X63719540Y-59054999D01*
X63739326Y-59243256D01*
X63739328Y-59243262D01*
X63779621Y-59367274D01*
X63781181Y-59372989D01*
X63786602Y-59397390D01*
X63786607Y-59397406D01*
X63827161Y-59504687D01*
X63832453Y-59574356D01*
X63799239Y-59635826D01*
X63738065Y-59669582D01*
X63700365Y-59672061D01*
X63500002Y-59654532D01*
X63499998Y-59654532D01*
X63273313Y-59674364D01*
X63273302Y-59674366D01*
X63053511Y-59733258D01*
X63053496Y-59733263D01*
X63017540Y-59750030D01*
X62948463Y-59760521D01*
X62884679Y-59731999D01*
X62846441Y-59673522D01*
X62845888Y-59603655D01*
X62849140Y-59593825D01*
X62923394Y-59397399D01*
X62937580Y-59354054D01*
X62938016Y-59350674D01*
X62943066Y-59328221D01*
X62970672Y-59243262D01*
X62970671Y-59243262D01*
X62970674Y-59243256D01*
X62990460Y-59055000D01*
X62970674Y-58866744D01*
X62912179Y-58686716D01*
X62817533Y-58522784D01*
X62690871Y-58382112D01*
X62690870Y-58382111D01*
X62537734Y-58270851D01*
X62537729Y-58270848D01*
X62364807Y-58193857D01*
X62364802Y-58193855D01*
X62219000Y-58162865D01*
X62179646Y-58154500D01*
X61990354Y-58154500D01*
X61957897Y-58161398D01*
X61805197Y-58193855D01*
X61805192Y-58193857D01*
X61632270Y-58270848D01*
X61632265Y-58270851D01*
X61479129Y-58382111D01*
X61352466Y-58522785D01*
X61257821Y-58686715D01*
X61257818Y-58686722D01*
X61199327Y-58866740D01*
X61199326Y-58866744D01*
X61191704Y-58939268D01*
X61179540Y-59055000D01*
X61199326Y-59243256D01*
X61199328Y-59243262D01*
X61239621Y-59367274D01*
X61241181Y-59372989D01*
X61246602Y-59397390D01*
X61246607Y-59397406D01*
X61287161Y-59504687D01*
X61292453Y-59574356D01*
X61259239Y-59635826D01*
X61198065Y-59669582D01*
X61160365Y-59672061D01*
X60960002Y-59654532D01*
X60959998Y-59654532D01*
X60733313Y-59674364D01*
X60733299Y-59674367D01*
X60622394Y-59704083D01*
X60552545Y-59702420D01*
X60494682Y-59663257D01*
X60467179Y-59599028D01*
X60474313Y-59540462D01*
X60528394Y-59397399D01*
X60542580Y-59354054D01*
X60543016Y-59350674D01*
X60548066Y-59328221D01*
X60575672Y-59243262D01*
X60575671Y-59243262D01*
X60575674Y-59243256D01*
X60595460Y-59055000D01*
X60575674Y-58866744D01*
X60517179Y-58686716D01*
X60422533Y-58522784D01*
X60295871Y-58382112D01*
X60295870Y-58382111D01*
X60142734Y-58270851D01*
X60142729Y-58270848D01*
X59969807Y-58193857D01*
X59969802Y-58193855D01*
X59824001Y-58162865D01*
X59784646Y-58154500D01*
X59595354Y-58154500D01*
X59562897Y-58161398D01*
X59410197Y-58193855D01*
X59410192Y-58193857D01*
X59237270Y-58270848D01*
X59237265Y-58270851D01*
X59084129Y-58382111D01*
X58957466Y-58522785D01*
X58862821Y-58686715D01*
X58862818Y-58686722D01*
X58804327Y-58866740D01*
X58804326Y-58866744D01*
X58796704Y-58939268D01*
X58784540Y-59055000D01*
X58804326Y-59243256D01*
X58804328Y-59243262D01*
X58844621Y-59367274D01*
X58846181Y-59372989D01*
X58851602Y-59397390D01*
X58851607Y-59397406D01*
X58905685Y-59540462D01*
X58910977Y-59610131D01*
X58877764Y-59671601D01*
X58816589Y-59705357D01*
X58757603Y-59704083D01*
X58646697Y-59674366D01*
X58646693Y-59674365D01*
X58646692Y-59674365D01*
X58646691Y-59674364D01*
X58646686Y-59674364D01*
X58420002Y-59654532D01*
X58419998Y-59654532D01*
X58193313Y-59674364D01*
X58193299Y-59674367D01*
X58082394Y-59704083D01*
X58012545Y-59702420D01*
X57954682Y-59663257D01*
X57927179Y-59599028D01*
X57934313Y-59540462D01*
X57988394Y-59397399D01*
X58002580Y-59354054D01*
X58003016Y-59350674D01*
X58008066Y-59328221D01*
X58035672Y-59243262D01*
X58035671Y-59243262D01*
X58035674Y-59243256D01*
X58055460Y-59055000D01*
X58035674Y-58866744D01*
X57977179Y-58686716D01*
X57882533Y-58522784D01*
X57755871Y-58382112D01*
X57755870Y-58382111D01*
X57602734Y-58270851D01*
X57602729Y-58270848D01*
X57429807Y-58193857D01*
X57429802Y-58193855D01*
X57284000Y-58162865D01*
X57244646Y-58154500D01*
X57055354Y-58154500D01*
X57022897Y-58161398D01*
X56870197Y-58193855D01*
X56870192Y-58193857D01*
X56697270Y-58270848D01*
X56697265Y-58270851D01*
X56544129Y-58382111D01*
X56417466Y-58522785D01*
X56322821Y-58686715D01*
X56322818Y-58686722D01*
X56264327Y-58866740D01*
X56264326Y-58866744D01*
X56256704Y-58939268D01*
X56244540Y-59055000D01*
X56264326Y-59243256D01*
X56264328Y-59243262D01*
X56304621Y-59367274D01*
X56306181Y-59372989D01*
X56311602Y-59397390D01*
X56311607Y-59397406D01*
X56365685Y-59540462D01*
X56370977Y-59610131D01*
X56337764Y-59671601D01*
X56276589Y-59705357D01*
X56217603Y-59704083D01*
X56106697Y-59674366D01*
X56106693Y-59674365D01*
X56106692Y-59674365D01*
X56106691Y-59674364D01*
X56106686Y-59674364D01*
X55880002Y-59654532D01*
X55879998Y-59654532D01*
X55653313Y-59674364D01*
X55653302Y-59674366D01*
X55433511Y-59733258D01*
X55433502Y-59733261D01*
X55227267Y-59829431D01*
X55227265Y-59829432D01*
X55040858Y-59959954D01*
X54879954Y-60120858D01*
X54749432Y-60307265D01*
X54749431Y-60307267D01*
X54722382Y-60365275D01*
X54676209Y-60417714D01*
X54609016Y-60436866D01*
X54542135Y-60416650D01*
X54497618Y-60365275D01*
X54487106Y-60342732D01*
X54470568Y-60307266D01*
X54359366Y-60148452D01*
X54340045Y-60120858D01*
X54179141Y-59959954D01*
X53992734Y-59829432D01*
X53992732Y-59829431D01*
X53786497Y-59733261D01*
X53786488Y-59733258D01*
X53566697Y-59674366D01*
X53566693Y-59674365D01*
X53566692Y-59674365D01*
X53566691Y-59674364D01*
X53566686Y-59674364D01*
X53340002Y-59654532D01*
X53339998Y-59654532D01*
X53113313Y-59674364D01*
X53113302Y-59674366D01*
X52893511Y-59733258D01*
X52893502Y-59733261D01*
X52687267Y-59829431D01*
X52687265Y-59829432D01*
X52500858Y-59959954D01*
X52339954Y-60120858D01*
X52209432Y-60307265D01*
X52209431Y-60307267D01*
X52182382Y-60365275D01*
X52136209Y-60417714D01*
X52069016Y-60436866D01*
X52002135Y-60416650D01*
X51957618Y-60365275D01*
X51947106Y-60342732D01*
X51930568Y-60307266D01*
X51819366Y-60148452D01*
X51800045Y-60120858D01*
X51639141Y-59959954D01*
X51452734Y-59829432D01*
X51452732Y-59829431D01*
X51246497Y-59733261D01*
X51246488Y-59733258D01*
X51026697Y-59674366D01*
X51026693Y-59674365D01*
X51026692Y-59674365D01*
X51026691Y-59674364D01*
X51026686Y-59674364D01*
X50800002Y-59654532D01*
X50799998Y-59654532D01*
X50573313Y-59674364D01*
X50573302Y-59674366D01*
X50353511Y-59733258D01*
X50353502Y-59733261D01*
X50147267Y-59829431D01*
X50147265Y-59829432D01*
X49960858Y-59959954D01*
X49799954Y-60120858D01*
X49669432Y-60307265D01*
X49669431Y-60307267D01*
X49642382Y-60365275D01*
X49596209Y-60417714D01*
X49529016Y-60436866D01*
X49462135Y-60416650D01*
X49417618Y-60365275D01*
X49407106Y-60342732D01*
X49390568Y-60307266D01*
X49279366Y-60148452D01*
X49260045Y-60120858D01*
X49099141Y-59959954D01*
X48912734Y-59829432D01*
X48912732Y-59829431D01*
X48706497Y-59733261D01*
X48706488Y-59733258D01*
X48486697Y-59674366D01*
X48486693Y-59674365D01*
X48486692Y-59674365D01*
X48486691Y-59674364D01*
X48486686Y-59674364D01*
X48260002Y-59654532D01*
X48259996Y-59654532D01*
X48215894Y-59658390D01*
X48147394Y-59644623D01*
X48097212Y-59596007D01*
X48081279Y-59527978D01*
X48104655Y-59462135D01*
X48117400Y-59447188D01*
X49752770Y-57811819D01*
X49814094Y-57778334D01*
X49840452Y-57775500D01*
X92399548Y-57775500D01*
X92466587Y-57795185D01*
X92487229Y-57811819D01*
X97289197Y-62613788D01*
X97299022Y-62626051D01*
X97299243Y-62625869D01*
X97304211Y-62631874D01*
X97353932Y-62678566D01*
X97355332Y-62679923D01*
X97375523Y-62700115D01*
X97375527Y-62700118D01*
X97375529Y-62700120D01*
X97381011Y-62704373D01*
X97385443Y-62708157D01*
X97419418Y-62740062D01*
X97436976Y-62749714D01*
X97453233Y-62760393D01*
X97469064Y-62772673D01*
X97488737Y-62781186D01*
X97511833Y-62791182D01*
X97517077Y-62793750D01*
X97557908Y-62816197D01*
X97570523Y-62819435D01*
X97577305Y-62821177D01*
X97595719Y-62827481D01*
X97614104Y-62835438D01*
X97660157Y-62842732D01*
X97665826Y-62843906D01*
X97710981Y-62855500D01*
X97731016Y-62855500D01*
X97750413Y-62857026D01*
X97770196Y-62860160D01*
X97816583Y-62855775D01*
X97822422Y-62855500D01*
X101517257Y-62855500D01*
X101532877Y-62857224D01*
X101532904Y-62856939D01*
X101540666Y-62857673D01*
X101540666Y-62857672D01*
X101540667Y-62857673D01*
X101543999Y-62857568D01*
X101608847Y-62855531D01*
X101610794Y-62855500D01*
X101639347Y-62855500D01*
X101639350Y-62855500D01*
X101646228Y-62854630D01*
X101652041Y-62854172D01*
X101698627Y-62852709D01*
X101717869Y-62847117D01*
X101736912Y-62843174D01*
X101756792Y-62840664D01*
X101800122Y-62823507D01*
X101805646Y-62821617D01*
X101809396Y-62820527D01*
X101850390Y-62808618D01*
X101867629Y-62798422D01*
X101885103Y-62789862D01*
X101903727Y-62782488D01*
X101903727Y-62782487D01*
X101903732Y-62782486D01*
X101941449Y-62755082D01*
X101946305Y-62751892D01*
X101986420Y-62728170D01*
X102000589Y-62713999D01*
X102015379Y-62701368D01*
X102031587Y-62689594D01*
X102061299Y-62653676D01*
X102065212Y-62649376D01*
X103343204Y-61371385D01*
X103389266Y-61342261D01*
X104572681Y-60920644D01*
X104577385Y-60919179D01*
X104586496Y-60916739D01*
X104593084Y-60913666D01*
X104598455Y-60911462D01*
X104607006Y-60908417D01*
X104612561Y-60906365D01*
X104615864Y-60905100D01*
X104676876Y-60876957D01*
X104676886Y-60876949D01*
X104682457Y-60873635D01*
X104682568Y-60873822D01*
X104696866Y-60865272D01*
X104792734Y-60820568D01*
X104979139Y-60690047D01*
X105140047Y-60529139D01*
X105270568Y-60342734D01*
X105366739Y-60136496D01*
X105425635Y-59916692D01*
X105445468Y-59690000D01*
X105442702Y-59658390D01*
X105437245Y-59596007D01*
X105425635Y-59463308D01*
X105366739Y-59243504D01*
X105270568Y-59037266D01*
X105151168Y-58866744D01*
X105140045Y-58850858D01*
X104979141Y-58689954D01*
X104792734Y-58559432D01*
X104792732Y-58559431D01*
X104586497Y-58463261D01*
X104586488Y-58463258D01*
X104366697Y-58404366D01*
X104366693Y-58404365D01*
X104366692Y-58404365D01*
X104366691Y-58404364D01*
X104366686Y-58404364D01*
X104140002Y-58384532D01*
X104139998Y-58384532D01*
X103913313Y-58404364D01*
X103913302Y-58404366D01*
X103693511Y-58463258D01*
X103693502Y-58463261D01*
X103487267Y-58559431D01*
X103487265Y-58559432D01*
X103300858Y-58689954D01*
X103139954Y-58850858D01*
X103009431Y-59037266D01*
X102929363Y-59208969D01*
X102928024Y-59211667D01*
X102920595Y-59225766D01*
X102920584Y-59225789D01*
X102918532Y-59231550D01*
X102916324Y-59236931D01*
X102913263Y-59243498D01*
X102913261Y-59243502D01*
X102910831Y-59252570D01*
X102909348Y-59257327D01*
X102487737Y-60440731D01*
X102458610Y-60486797D01*
X101377228Y-61568181D01*
X101315905Y-61601666D01*
X101289547Y-61604500D01*
X98100452Y-61604500D01*
X98033413Y-61584815D01*
X98012771Y-61568181D01*
X93210803Y-56766212D01*
X93200980Y-56753950D01*
X93200759Y-56754134D01*
X93195786Y-56748122D01*
X93146066Y-56701432D01*
X93144666Y-56700075D01*
X93124476Y-56679884D01*
X93118986Y-56675625D01*
X93114561Y-56671847D01*
X93080582Y-56639938D01*
X93080580Y-56639936D01*
X93080577Y-56639935D01*
X93063029Y-56630288D01*
X93046763Y-56619604D01*
X93030933Y-56607325D01*
X92988168Y-56588818D01*
X92982922Y-56586248D01*
X92942093Y-56563803D01*
X92942092Y-56563802D01*
X92922693Y-56558822D01*
X92904281Y-56552518D01*
X92885898Y-56544562D01*
X92885892Y-56544560D01*
X92839874Y-56537272D01*
X92834152Y-56536087D01*
X92789021Y-56524500D01*
X92789019Y-56524500D01*
X92768984Y-56524500D01*
X92749586Y-56522973D01*
X92742162Y-56521797D01*
X92729805Y-56519840D01*
X92729804Y-56519840D01*
X92683416Y-56524225D01*
X92677578Y-56524500D01*
X49612743Y-56524500D01*
X49597122Y-56522775D01*
X49597095Y-56523061D01*
X49589333Y-56522326D01*
X49521140Y-56524469D01*
X49519193Y-56524500D01*
X49490649Y-56524500D01*
X49483778Y-56525367D01*
X49477959Y-56525825D01*
X49431374Y-56527289D01*
X49431368Y-56527290D01*
X49412126Y-56532880D01*
X49393087Y-56536823D01*
X49373217Y-56539334D01*
X49373203Y-56539337D01*
X49329883Y-56556488D01*
X49324358Y-56558380D01*
X49279613Y-56571380D01*
X49279610Y-56571381D01*
X49262366Y-56581579D01*
X49244905Y-56590133D01*
X49226274Y-56597510D01*
X49226262Y-56597517D01*
X49188570Y-56624902D01*
X49183687Y-56628109D01*
X49143580Y-56651829D01*
X49129414Y-56665995D01*
X49114624Y-56678627D01*
X49098414Y-56690404D01*
X49098411Y-56690407D01*
X49068710Y-56726309D01*
X49064777Y-56730631D01*
X46516797Y-59278610D01*
X46470731Y-59307737D01*
X45287325Y-59729349D01*
X45282567Y-59730831D01*
X45273511Y-59733257D01*
X45273503Y-59733260D01*
X45266946Y-59736318D01*
X45261563Y-59738526D01*
X45252693Y-59741687D01*
X45246773Y-59743882D01*
X45243228Y-59745247D01*
X45183117Y-59773044D01*
X45177574Y-59776347D01*
X45177461Y-59776158D01*
X45163133Y-59784726D01*
X45067271Y-59829428D01*
X45067264Y-59829432D01*
X44880858Y-59959954D01*
X44719954Y-60120858D01*
X44589432Y-60307265D01*
X44589431Y-60307267D01*
X44562382Y-60365275D01*
X44516209Y-60417714D01*
X44449016Y-60436866D01*
X44382135Y-60416650D01*
X44337618Y-60365275D01*
X44327106Y-60342732D01*
X44310568Y-60307266D01*
X44199366Y-60148452D01*
X44180045Y-60120858D01*
X44019141Y-59959954D01*
X43832734Y-59829432D01*
X43832732Y-59829431D01*
X43626497Y-59733261D01*
X43626488Y-59733258D01*
X43406697Y-59674366D01*
X43406693Y-59674365D01*
X43406692Y-59674365D01*
X43406691Y-59674364D01*
X43406686Y-59674364D01*
X43180002Y-59654532D01*
X43179998Y-59654532D01*
X42953313Y-59674364D01*
X42953302Y-59674366D01*
X42733511Y-59733258D01*
X42733502Y-59733261D01*
X42527267Y-59829431D01*
X42527265Y-59829432D01*
X42340858Y-59959954D01*
X42179954Y-60120858D01*
X42049432Y-60307265D01*
X42049431Y-60307267D01*
X42022382Y-60365275D01*
X41976209Y-60417714D01*
X41909016Y-60436866D01*
X41842135Y-60416650D01*
X41797618Y-60365275D01*
X41787106Y-60342732D01*
X41770568Y-60307266D01*
X41659366Y-60148452D01*
X41640045Y-60120858D01*
X41479141Y-59959954D01*
X41292734Y-59829432D01*
X41292732Y-59829431D01*
X41086497Y-59733261D01*
X41086488Y-59733258D01*
X40866697Y-59674366D01*
X40866693Y-59674365D01*
X40866692Y-59674365D01*
X40866691Y-59674364D01*
X40866686Y-59674364D01*
X40640002Y-59654532D01*
X40639998Y-59654532D01*
X40413313Y-59674364D01*
X40413302Y-59674366D01*
X40193511Y-59733258D01*
X40193502Y-59733261D01*
X39987267Y-59829431D01*
X39987265Y-59829432D01*
X39800858Y-59959954D01*
X39639954Y-60120858D01*
X39509432Y-60307265D01*
X39509431Y-60307267D01*
X39482382Y-60365275D01*
X39436209Y-60417714D01*
X39369016Y-60436866D01*
X39302135Y-60416650D01*
X39257618Y-60365275D01*
X39247106Y-60342732D01*
X39230568Y-60307266D01*
X39119366Y-60148452D01*
X39100045Y-60120858D01*
X38939141Y-59959954D01*
X38752734Y-59829432D01*
X38752732Y-59829431D01*
X38546497Y-59733261D01*
X38546488Y-59733258D01*
X38326697Y-59674366D01*
X38326693Y-59674365D01*
X38326692Y-59674365D01*
X38326691Y-59674364D01*
X38326686Y-59674364D01*
X38100002Y-59654532D01*
X38099996Y-59654532D01*
X38055894Y-59658390D01*
X37987394Y-59644623D01*
X37937212Y-59596007D01*
X37921279Y-59527978D01*
X37944655Y-59462135D01*
X37957400Y-59447188D01*
X42132771Y-55271819D01*
X42194095Y-55238334D01*
X42220453Y-55235500D01*
X93669548Y-55235500D01*
X93736587Y-55255185D01*
X93757229Y-55271819D01*
X97378611Y-58893202D01*
X97407738Y-58939268D01*
X97594020Y-59462135D01*
X97828704Y-60120861D01*
X97829346Y-60122661D01*
X97830829Y-60127421D01*
X97833258Y-60136488D01*
X97833261Y-60136496D01*
X97833263Y-60136500D01*
X97836324Y-60143067D01*
X97838533Y-60148452D01*
X97841648Y-60157193D01*
X97843784Y-60162965D01*
X97845126Y-60166456D01*
X97873038Y-60226869D01*
X97876352Y-60232433D01*
X97876164Y-60232544D01*
X97884729Y-60246869D01*
X97929430Y-60342731D01*
X98059954Y-60529141D01*
X98220858Y-60690045D01*
X98220861Y-60690047D01*
X98407266Y-60820568D01*
X98613504Y-60916739D01*
X98833308Y-60975635D01*
X98995230Y-60989801D01*
X99059998Y-60995468D01*
X99060000Y-60995468D01*
X99060002Y-60995468D01*
X99116673Y-60990509D01*
X99286692Y-60975635D01*
X99506496Y-60916739D01*
X99712734Y-60820568D01*
X99899139Y-60690047D01*
X100060047Y-60529139D01*
X100190568Y-60342734D01*
X100286739Y-60136496D01*
X100345635Y-59916692D01*
X100365468Y-59690000D01*
X100362702Y-59658390D01*
X100357245Y-59596007D01*
X100345635Y-59463308D01*
X100286739Y-59243504D01*
X100190568Y-59037266D01*
X100071168Y-58866744D01*
X100060045Y-58850858D01*
X99899141Y-58689954D01*
X99712731Y-58559430D01*
X99541005Y-58479352D01*
X99538302Y-58478011D01*
X99524213Y-58470586D01*
X99518453Y-58468534D01*
X99513063Y-58466323D01*
X99506494Y-58463260D01*
X99497422Y-58460829D01*
X99492659Y-58459345D01*
X98309267Y-58037738D01*
X98263201Y-58008611D01*
X94480803Y-54226212D01*
X94470980Y-54213950D01*
X94470759Y-54214134D01*
X94465786Y-54208122D01*
X94416066Y-54161432D01*
X94414666Y-54160075D01*
X94394476Y-54139884D01*
X94388986Y-54135625D01*
X94384561Y-54131847D01*
X94350582Y-54099938D01*
X94350580Y-54099936D01*
X94350577Y-54099935D01*
X94333029Y-54090288D01*
X94316763Y-54079604D01*
X94300933Y-54067325D01*
X94258168Y-54048818D01*
X94252922Y-54046248D01*
X94212093Y-54023803D01*
X94212092Y-54023802D01*
X94192693Y-54018822D01*
X94174281Y-54012518D01*
X94155898Y-54004562D01*
X94155892Y-54004560D01*
X94109874Y-53997272D01*
X94104152Y-53996087D01*
X94059021Y-53984500D01*
X94059019Y-53984500D01*
X94038984Y-53984500D01*
X94019586Y-53982973D01*
X94012162Y-53981797D01*
X93999805Y-53979840D01*
X93999804Y-53979840D01*
X93953416Y-53984225D01*
X93947578Y-53984500D01*
X41992738Y-53984500D01*
X41977121Y-53982776D01*
X41977094Y-53983062D01*
X41969332Y-53982327D01*
X41901172Y-53984469D01*
X41899225Y-53984500D01*
X41870650Y-53984500D01*
X41869929Y-53984590D01*
X41863757Y-53985369D01*
X41857945Y-53985826D01*
X41811373Y-53987290D01*
X41811372Y-53987290D01*
X41792129Y-53992881D01*
X41773079Y-53996825D01*
X41753211Y-53999334D01*
X41753209Y-53999335D01*
X41709884Y-54016488D01*
X41704357Y-54018380D01*
X41659610Y-54031381D01*
X41659609Y-54031382D01*
X41642367Y-54041579D01*
X41624899Y-54050137D01*
X41606269Y-54057513D01*
X41606267Y-54057514D01*
X41568576Y-54084898D01*
X41563694Y-54088105D01*
X41523579Y-54111830D01*
X41509408Y-54126000D01*
X41494623Y-54138628D01*
X41478412Y-54150407D01*
X41448709Y-54186310D01*
X41444777Y-54190631D01*
X36356797Y-59278610D01*
X36310731Y-59307737D01*
X35127325Y-59729349D01*
X35122567Y-59730831D01*
X35113511Y-59733257D01*
X35113503Y-59733260D01*
X35106946Y-59736318D01*
X35101563Y-59738526D01*
X35092693Y-59741687D01*
X35086773Y-59743882D01*
X35083228Y-59745247D01*
X35023117Y-59773044D01*
X35017574Y-59776347D01*
X35017461Y-59776158D01*
X35003133Y-59784726D01*
X34907271Y-59829428D01*
X34907264Y-59829432D01*
X34720858Y-59959954D01*
X34559954Y-60120858D01*
X34542725Y-60145464D01*
X34488147Y-60189088D01*
X34418648Y-60196280D01*
X34356294Y-60164757D01*
X34320882Y-60104526D01*
X34317861Y-60087591D01*
X34314091Y-60052516D01*
X34263797Y-59917671D01*
X34263793Y-59917664D01*
X34177547Y-59802455D01*
X34177544Y-59802452D01*
X34062335Y-59716206D01*
X34062328Y-59716202D01*
X33927482Y-59665908D01*
X33927483Y-59665908D01*
X33867883Y-59659501D01*
X33867881Y-59659500D01*
X33867873Y-59659500D01*
X33867864Y-59659500D01*
X32172129Y-59659500D01*
X32172123Y-59659501D01*
X32112516Y-59665908D01*
X31977671Y-59716202D01*
X31977664Y-59716206D01*
X31862455Y-59802452D01*
X31862452Y-59802455D01*
X31776206Y-59917664D01*
X31776202Y-59917671D01*
X31725908Y-60052517D01*
X31719501Y-60112116D01*
X31719500Y-60112135D01*
X31719500Y-61807870D01*
X31719501Y-61807876D01*
X31725908Y-61867483D01*
X31776202Y-62002328D01*
X31776206Y-62002335D01*
X31862452Y-62117544D01*
X31862455Y-62117547D01*
X31977664Y-62203793D01*
X31977671Y-62203797D01*
X32112517Y-62254091D01*
X32112516Y-62254091D01*
X32119444Y-62254835D01*
X32172127Y-62260500D01*
X33867872Y-62260499D01*
X33927483Y-62254091D01*
X34062331Y-62203796D01*
X34177546Y-62117546D01*
X34263796Y-62002331D01*
X34314091Y-61867483D01*
X34317862Y-61832401D01*
X34344599Y-61767855D01*
X34401990Y-61728006D01*
X34471816Y-61725511D01*
X34531905Y-61761163D01*
X34542726Y-61774536D01*
X34559956Y-61799143D01*
X34720858Y-61960045D01*
X34720861Y-61960047D01*
X34907266Y-62090568D01*
X35113504Y-62186739D01*
X35113509Y-62186740D01*
X35113511Y-62186741D01*
X35143181Y-62194691D01*
X35333308Y-62245635D01*
X35495230Y-62259801D01*
X35559998Y-62265468D01*
X35560000Y-62265468D01*
X35560002Y-62265468D01*
X35616807Y-62260498D01*
X35786692Y-62245635D01*
X36006496Y-62186739D01*
X36212734Y-62090568D01*
X36399139Y-61960047D01*
X36560047Y-61799139D01*
X36690568Y-61612734D01*
X36717619Y-61554722D01*
X36763788Y-61502286D01*
X36830981Y-61483133D01*
X36897862Y-61503348D01*
X36942380Y-61554722D01*
X36969432Y-61612734D01*
X36969433Y-61612735D01*
X37099954Y-61799141D01*
X37260858Y-61960045D01*
X37260861Y-61960047D01*
X37447266Y-62090568D01*
X37653504Y-62186739D01*
X37653509Y-62186740D01*
X37653511Y-62186741D01*
X37683181Y-62194691D01*
X37873308Y-62245635D01*
X38035230Y-62259801D01*
X38099998Y-62265468D01*
X38100000Y-62265468D01*
X38100002Y-62265468D01*
X38156807Y-62260498D01*
X38326692Y-62245635D01*
X38546496Y-62186739D01*
X38752734Y-62090568D01*
X38939139Y-61960047D01*
X39100047Y-61799139D01*
X39230568Y-61612734D01*
X39257618Y-61554724D01*
X39303790Y-61502285D01*
X39370983Y-61483133D01*
X39437865Y-61503348D01*
X39482381Y-61554724D01*
X39496413Y-61584815D01*
X39509429Y-61612728D01*
X39509432Y-61612734D01*
X39639954Y-61799141D01*
X39800858Y-61960045D01*
X39800861Y-61960047D01*
X39987266Y-62090568D01*
X40193504Y-62186739D01*
X40193509Y-62186740D01*
X40193511Y-62186741D01*
X40223181Y-62194691D01*
X40413308Y-62245635D01*
X40575230Y-62259801D01*
X40639998Y-62265468D01*
X40640000Y-62265468D01*
X40640002Y-62265468D01*
X40696807Y-62260498D01*
X40866692Y-62245635D01*
X41086496Y-62186739D01*
X41292734Y-62090568D01*
X41479139Y-61960047D01*
X41640047Y-61799139D01*
X41770568Y-61612734D01*
X41797618Y-61554724D01*
X41843790Y-61502285D01*
X41910983Y-61483133D01*
X41977865Y-61503348D01*
X42022381Y-61554724D01*
X42036413Y-61584815D01*
X42049429Y-61612728D01*
X42049432Y-61612734D01*
X42179954Y-61799141D01*
X42340858Y-61960045D01*
X42340861Y-61960047D01*
X42527266Y-62090568D01*
X42733504Y-62186739D01*
X42733509Y-62186740D01*
X42733511Y-62186741D01*
X42763181Y-62194691D01*
X42953308Y-62245635D01*
X43115230Y-62259801D01*
X43179998Y-62265468D01*
X43180000Y-62265468D01*
X43180002Y-62265468D01*
X43236807Y-62260498D01*
X43406692Y-62245635D01*
X43626496Y-62186739D01*
X43832734Y-62090568D01*
X44019139Y-61960047D01*
X44180047Y-61799139D01*
X44310568Y-61612734D01*
X44337618Y-61554724D01*
X44383790Y-61502285D01*
X44450983Y-61483133D01*
X44517865Y-61503348D01*
X44562381Y-61554724D01*
X44576413Y-61584815D01*
X44589429Y-61612728D01*
X44589432Y-61612734D01*
X44719954Y-61799141D01*
X44880858Y-61960045D01*
X44880861Y-61960047D01*
X45067266Y-62090568D01*
X45273504Y-62186739D01*
X45273509Y-62186740D01*
X45273511Y-62186741D01*
X45303181Y-62194691D01*
X45493308Y-62245635D01*
X45655230Y-62259801D01*
X45719998Y-62265468D01*
X45720000Y-62265468D01*
X45720002Y-62265468D01*
X45776807Y-62260498D01*
X45946692Y-62245635D01*
X46166496Y-62186739D01*
X46372734Y-62090568D01*
X46559139Y-61960047D01*
X46720047Y-61799139D01*
X46850568Y-61612734D01*
X46877619Y-61554722D01*
X46923788Y-61502286D01*
X46990981Y-61483133D01*
X47057862Y-61503348D01*
X47102380Y-61554722D01*
X47129432Y-61612734D01*
X47129433Y-61612735D01*
X47259954Y-61799141D01*
X47420858Y-61960045D01*
X47420861Y-61960047D01*
X47607266Y-62090568D01*
X47813504Y-62186739D01*
X47813509Y-62186740D01*
X47813511Y-62186741D01*
X47843181Y-62194691D01*
X48033308Y-62245635D01*
X48195230Y-62259801D01*
X48259998Y-62265468D01*
X48260000Y-62265468D01*
X48260002Y-62265468D01*
X48316807Y-62260498D01*
X48486692Y-62245635D01*
X48706496Y-62186739D01*
X48912734Y-62090568D01*
X49099139Y-61960047D01*
X49260047Y-61799139D01*
X49390568Y-61612734D01*
X49417618Y-61554724D01*
X49463790Y-61502285D01*
X49530983Y-61483133D01*
X49597865Y-61503348D01*
X49642381Y-61554724D01*
X49656413Y-61584815D01*
X49669429Y-61612728D01*
X49669432Y-61612734D01*
X49799954Y-61799141D01*
X49960858Y-61960045D01*
X49960861Y-61960047D01*
X50147266Y-62090568D01*
X50353504Y-62186739D01*
X50353509Y-62186740D01*
X50353511Y-62186741D01*
X50383181Y-62194691D01*
X50573308Y-62245635D01*
X50735230Y-62259801D01*
X50799998Y-62265468D01*
X50800000Y-62265468D01*
X50800002Y-62265468D01*
X50856807Y-62260498D01*
X51026692Y-62245635D01*
X51246496Y-62186739D01*
X51452734Y-62090568D01*
X51639139Y-61960047D01*
X51800047Y-61799139D01*
X51930568Y-61612734D01*
X51957618Y-61554724D01*
X52003790Y-61502285D01*
X52070983Y-61483133D01*
X52137865Y-61503348D01*
X52182381Y-61554724D01*
X52196413Y-61584815D01*
X52209429Y-61612728D01*
X52209432Y-61612734D01*
X52339954Y-61799141D01*
X52500858Y-61960045D01*
X52500861Y-61960047D01*
X52687266Y-62090568D01*
X52893504Y-62186739D01*
X52893509Y-62186740D01*
X52893511Y-62186741D01*
X52923181Y-62194691D01*
X53113308Y-62245635D01*
X53275230Y-62259801D01*
X53339998Y-62265468D01*
X53340000Y-62265468D01*
X53340002Y-62265468D01*
X53396807Y-62260498D01*
X53566692Y-62245635D01*
X53786496Y-62186739D01*
X53992734Y-62090568D01*
X54179139Y-61960047D01*
X54340047Y-61799139D01*
X54470568Y-61612734D01*
X54497618Y-61554724D01*
X54543790Y-61502285D01*
X54610983Y-61483133D01*
X54677865Y-61503348D01*
X54722381Y-61554724D01*
X54736413Y-61584815D01*
X54749429Y-61612728D01*
X54749432Y-61612734D01*
X54879954Y-61799141D01*
X55040858Y-61960045D01*
X55040861Y-61960047D01*
X55227266Y-62090568D01*
X55433504Y-62186739D01*
X55433509Y-62186740D01*
X55433511Y-62186741D01*
X55463181Y-62194691D01*
X55653308Y-62245635D01*
X55815230Y-62259801D01*
X55879998Y-62265468D01*
X55880000Y-62265468D01*
X55880002Y-62265468D01*
X55936807Y-62260498D01*
X56106692Y-62245635D01*
X56326496Y-62186739D01*
X56348093Y-62176667D01*
X56417169Y-62166173D01*
X56480954Y-62194691D01*
X56519195Y-62253167D01*
X56524500Y-62289048D01*
X56524500Y-64687255D01*
X56522775Y-64702872D01*
X56523061Y-64702899D01*
X56522326Y-64710666D01*
X56524469Y-64778846D01*
X56524500Y-64780793D01*
X56524500Y-64809343D01*
X56524501Y-64809360D01*
X56525368Y-64816231D01*
X56525826Y-64822050D01*
X56527290Y-64868624D01*
X56527291Y-64868627D01*
X56532880Y-64887867D01*
X56536824Y-64906911D01*
X56537228Y-64910103D01*
X56539336Y-64926791D01*
X56556490Y-64970119D01*
X56558382Y-64975647D01*
X56571381Y-65020388D01*
X56581580Y-65037634D01*
X56590136Y-65055100D01*
X56597514Y-65073732D01*
X56624898Y-65111423D01*
X56628106Y-65116307D01*
X56651827Y-65156416D01*
X56651833Y-65156424D01*
X56665990Y-65170580D01*
X56678628Y-65185376D01*
X56690405Y-65201586D01*
X56690406Y-65201587D01*
X56726309Y-65231288D01*
X56730620Y-65235210D01*
X64024841Y-72529431D01*
X71208070Y-79712660D01*
X71241555Y-79773983D01*
X71236571Y-79843675D01*
X71194699Y-79899608D01*
X71129235Y-79924025D01*
X71120389Y-79924341D01*
X71119999Y-79924341D01*
X70884596Y-79944936D01*
X70884586Y-79944938D01*
X70656344Y-80006094D01*
X70656335Y-80006098D01*
X70442171Y-80105964D01*
X70442169Y-80105965D01*
X70248597Y-80241505D01*
X70081505Y-80408597D01*
X69951575Y-80594158D01*
X69896998Y-80637783D01*
X69827500Y-80644977D01*
X69765145Y-80613454D01*
X69748425Y-80594158D01*
X69618494Y-80408597D01*
X69451402Y-80241506D01*
X69451395Y-80241501D01*
X69257834Y-80105967D01*
X69257830Y-80105965D01*
X69186727Y-80072809D01*
X69043663Y-80006097D01*
X69043659Y-80006096D01*
X69043655Y-80006094D01*
X68815413Y-79944938D01*
X68815403Y-79944936D01*
X68580001Y-79924341D01*
X68579999Y-79924341D01*
X68344596Y-79944936D01*
X68344586Y-79944938D01*
X68116344Y-80006094D01*
X68116335Y-80006098D01*
X67902171Y-80105964D01*
X67902169Y-80105965D01*
X67708597Y-80241505D01*
X67541505Y-80408597D01*
X67411575Y-80594158D01*
X67356998Y-80637783D01*
X67287500Y-80644977D01*
X67225145Y-80613454D01*
X67208425Y-80594158D01*
X67078494Y-80408597D01*
X66911402Y-80241506D01*
X66911395Y-80241501D01*
X66717834Y-80105967D01*
X66717830Y-80105965D01*
X66646727Y-80072809D01*
X66503663Y-80006097D01*
X66503659Y-80006096D01*
X66503655Y-80006094D01*
X66275413Y-79944938D01*
X66275403Y-79944936D01*
X66040001Y-79924341D01*
X66039999Y-79924341D01*
X65804596Y-79944936D01*
X65804586Y-79944938D01*
X65576344Y-80006094D01*
X65576335Y-80006098D01*
X65362171Y-80105964D01*
X65362169Y-80105965D01*
X65168597Y-80241505D01*
X65001508Y-80408594D01*
X64871574Y-80594160D01*
X64816997Y-80637784D01*
X64747498Y-80644977D01*
X64685144Y-80613455D01*
X64668429Y-80594164D01*
X64538495Y-80408599D01*
X64538493Y-80408596D01*
X64371402Y-80241506D01*
X64371395Y-80241501D01*
X64177834Y-80105967D01*
X64177830Y-80105965D01*
X64106727Y-80072809D01*
X63963663Y-80006097D01*
X63963659Y-80006096D01*
X63963655Y-80006094D01*
X63735413Y-79944938D01*
X63735403Y-79944936D01*
X63500001Y-79924341D01*
X63499999Y-79924341D01*
X63264596Y-79944936D01*
X63264586Y-79944938D01*
X63036344Y-80006094D01*
X63036335Y-80006098D01*
X62822171Y-80105964D01*
X62822169Y-80105965D01*
X62628597Y-80241505D01*
X62461505Y-80408597D01*
X62331575Y-80594158D01*
X62276998Y-80637783D01*
X62207500Y-80644977D01*
X62145145Y-80613454D01*
X62128425Y-80594158D01*
X61998494Y-80408597D01*
X61831402Y-80241506D01*
X61831395Y-80241501D01*
X61637834Y-80105967D01*
X61637830Y-80105965D01*
X61566727Y-80072809D01*
X61423663Y-80006097D01*
X61423659Y-80006096D01*
X61423655Y-80006094D01*
X61195413Y-79944938D01*
X61195403Y-79944936D01*
X60960001Y-79924341D01*
X60959999Y-79924341D01*
X60724596Y-79944936D01*
X60724586Y-79944938D01*
X60496344Y-80006094D01*
X60496335Y-80006098D01*
X60282171Y-80105964D01*
X60282169Y-80105965D01*
X60088597Y-80241505D01*
X59921508Y-80408594D01*
X59791574Y-80594160D01*
X59736997Y-80637784D01*
X59667498Y-80644977D01*
X59605144Y-80613455D01*
X59588429Y-80594164D01*
X59458495Y-80408599D01*
X59458493Y-80408596D01*
X59291402Y-80241506D01*
X59291395Y-80241501D01*
X59097834Y-80105967D01*
X59097830Y-80105965D01*
X59026727Y-80072809D01*
X58883663Y-80006097D01*
X58883659Y-80006096D01*
X58883655Y-80006094D01*
X58655413Y-79944938D01*
X58655403Y-79944936D01*
X58420001Y-79924341D01*
X58419999Y-79924341D01*
X58184596Y-79944936D01*
X58184586Y-79944938D01*
X57956344Y-80006094D01*
X57956335Y-80006098D01*
X57742171Y-80105964D01*
X57742169Y-80105965D01*
X57548597Y-80241505D01*
X57381505Y-80408597D01*
X57251575Y-80594158D01*
X57196998Y-80637783D01*
X57127500Y-80644977D01*
X57065145Y-80613454D01*
X57048425Y-80594158D01*
X56918494Y-80408597D01*
X56751402Y-80241506D01*
X56751395Y-80241501D01*
X56557834Y-80105967D01*
X56557830Y-80105965D01*
X56486727Y-80072809D01*
X56343663Y-80006097D01*
X56343659Y-80006096D01*
X56343655Y-80006094D01*
X56115413Y-79944938D01*
X56115403Y-79944936D01*
X55880001Y-79924341D01*
X55879999Y-79924341D01*
X55644596Y-79944936D01*
X55644586Y-79944938D01*
X55416344Y-80006094D01*
X55416335Y-80006098D01*
X55202171Y-80105964D01*
X55202169Y-80105965D01*
X55008597Y-80241505D01*
X54841508Y-80408594D01*
X54711574Y-80594160D01*
X54656997Y-80637784D01*
X54587498Y-80644977D01*
X54525144Y-80613455D01*
X54508429Y-80594164D01*
X54378495Y-80408599D01*
X54378493Y-80408596D01*
X54211402Y-80241506D01*
X54211395Y-80241501D01*
X54017834Y-80105967D01*
X54017830Y-80105965D01*
X53946727Y-80072809D01*
X53803663Y-80006097D01*
X53803659Y-80006096D01*
X53803655Y-80006094D01*
X53575413Y-79944938D01*
X53575403Y-79944936D01*
X53340001Y-79924341D01*
X53339999Y-79924341D01*
X53104596Y-79944936D01*
X53104586Y-79944938D01*
X52876344Y-80006094D01*
X52876335Y-80006098D01*
X52662171Y-80105964D01*
X52662169Y-80105965D01*
X52468597Y-80241505D01*
X52301508Y-80408594D01*
X52171574Y-80594159D01*
X52116997Y-80637784D01*
X52047498Y-80644976D01*
X51985144Y-80613454D01*
X51968424Y-80594158D01*
X51838494Y-80408597D01*
X51671402Y-80241506D01*
X51671395Y-80241501D01*
X51477834Y-80105967D01*
X51477830Y-80105965D01*
X51406727Y-80072809D01*
X51263663Y-80006097D01*
X51263659Y-80006096D01*
X51263655Y-80006094D01*
X51035413Y-79944938D01*
X51035403Y-79944936D01*
X50800001Y-79924341D01*
X50799999Y-79924341D01*
X50564596Y-79944936D01*
X50564586Y-79944938D01*
X50336344Y-80006094D01*
X50336335Y-80006098D01*
X50122171Y-80105964D01*
X50122169Y-80105965D01*
X49928597Y-80241505D01*
X49761505Y-80408597D01*
X49631575Y-80594158D01*
X49576998Y-80637783D01*
X49507500Y-80644977D01*
X49445145Y-80613454D01*
X49428425Y-80594158D01*
X49298494Y-80408597D01*
X49131402Y-80241506D01*
X49131395Y-80241501D01*
X48937834Y-80105967D01*
X48937830Y-80105965D01*
X48866727Y-80072809D01*
X48723663Y-80006097D01*
X48723659Y-80006096D01*
X48723655Y-80006094D01*
X48495413Y-79944938D01*
X48495403Y-79944936D01*
X48260001Y-79924341D01*
X48259999Y-79924341D01*
X48024596Y-79944936D01*
X48024586Y-79944938D01*
X47796344Y-80006094D01*
X47796335Y-80006098D01*
X47582171Y-80105964D01*
X47582169Y-80105965D01*
X47388597Y-80241505D01*
X47221505Y-80408597D01*
X47091575Y-80594158D01*
X47036998Y-80637783D01*
X46967500Y-80644977D01*
X46905145Y-80613454D01*
X46888425Y-80594158D01*
X46758494Y-80408597D01*
X46591402Y-80241506D01*
X46591395Y-80241501D01*
X46397834Y-80105967D01*
X46397830Y-80105965D01*
X46326727Y-80072809D01*
X46183663Y-80006097D01*
X46183659Y-80006096D01*
X46183655Y-80006094D01*
X45955413Y-79944938D01*
X45955403Y-79944936D01*
X45720001Y-79924341D01*
X45719999Y-79924341D01*
X45484596Y-79944936D01*
X45484586Y-79944938D01*
X45256344Y-80006094D01*
X45256335Y-80006098D01*
X45042171Y-80105964D01*
X45042169Y-80105965D01*
X44848597Y-80241505D01*
X44681508Y-80408594D01*
X44551574Y-80594159D01*
X44496997Y-80637784D01*
X44427498Y-80644976D01*
X44365144Y-80613454D01*
X44348424Y-80594158D01*
X44218494Y-80408597D01*
X44051402Y-80241506D01*
X44051395Y-80241501D01*
X43857834Y-80105967D01*
X43857830Y-80105965D01*
X43786727Y-80072809D01*
X43643663Y-80006097D01*
X43643659Y-80006096D01*
X43643655Y-80006094D01*
X43415413Y-79944938D01*
X43415403Y-79944936D01*
X43180001Y-79924341D01*
X43179999Y-79924341D01*
X42944596Y-79944936D01*
X42944586Y-79944938D01*
X42716344Y-80006094D01*
X42716335Y-80006098D01*
X42502171Y-80105964D01*
X42502169Y-80105965D01*
X42308597Y-80241505D01*
X42141505Y-80408597D01*
X42011575Y-80594158D01*
X41956998Y-80637783D01*
X41887500Y-80644977D01*
X41825145Y-80613454D01*
X41808425Y-80594158D01*
X41678494Y-80408597D01*
X41511402Y-80241506D01*
X41511395Y-80241501D01*
X41317834Y-80105967D01*
X41317830Y-80105965D01*
X41246727Y-80072809D01*
X41103663Y-80006097D01*
X41103659Y-80006096D01*
X41103655Y-80006094D01*
X40875413Y-79944938D01*
X40875403Y-79944936D01*
X40640001Y-79924341D01*
X40639999Y-79924341D01*
X40404596Y-79944936D01*
X40404586Y-79944938D01*
X40176344Y-80006094D01*
X40176335Y-80006098D01*
X39962171Y-80105964D01*
X39962169Y-80105965D01*
X39768597Y-80241505D01*
X39601505Y-80408597D01*
X39471575Y-80594158D01*
X39416998Y-80637783D01*
X39347500Y-80644977D01*
X39285145Y-80613454D01*
X39268425Y-80594158D01*
X39138494Y-80408597D01*
X38971402Y-80241506D01*
X38971395Y-80241501D01*
X38777834Y-80105967D01*
X38777830Y-80105965D01*
X38706727Y-80072809D01*
X38563663Y-80006097D01*
X38563659Y-80006096D01*
X38563655Y-80006094D01*
X38335413Y-79944938D01*
X38335403Y-79944936D01*
X38100001Y-79924341D01*
X38099999Y-79924341D01*
X37864596Y-79944936D01*
X37864586Y-79944938D01*
X37636344Y-80006094D01*
X37636335Y-80006098D01*
X37422171Y-80105964D01*
X37422169Y-80105965D01*
X37228597Y-80241505D01*
X37061508Y-80408594D01*
X36931574Y-80594159D01*
X36876997Y-80637784D01*
X36807498Y-80644976D01*
X36745144Y-80613454D01*
X36728424Y-80594158D01*
X36598494Y-80408597D01*
X36431402Y-80241506D01*
X36431395Y-80241501D01*
X36237834Y-80105967D01*
X36237830Y-80105965D01*
X36166727Y-80072809D01*
X36023663Y-80006097D01*
X36023659Y-80006096D01*
X36023655Y-80006094D01*
X35795413Y-79944938D01*
X35795403Y-79944936D01*
X35560001Y-79924341D01*
X35559999Y-79924341D01*
X35324596Y-79944936D01*
X35324586Y-79944938D01*
X35096344Y-80006094D01*
X35096335Y-80006098D01*
X34882171Y-80105964D01*
X34882169Y-80105965D01*
X34688597Y-80241505D01*
X34521505Y-80408597D01*
X34391575Y-80594158D01*
X34336998Y-80637783D01*
X34267500Y-80644977D01*
X34205145Y-80613454D01*
X34188425Y-80594158D01*
X34058494Y-80408597D01*
X33891402Y-80241506D01*
X33891395Y-80241501D01*
X33697834Y-80105967D01*
X33697830Y-80105965D01*
X33626727Y-80072809D01*
X33483663Y-80006097D01*
X33483659Y-80006096D01*
X33483655Y-80006094D01*
X33255413Y-79944938D01*
X33255403Y-79944936D01*
X33020001Y-79924341D01*
X33019999Y-79924341D01*
X32784596Y-79944936D01*
X32784586Y-79944938D01*
X32556344Y-80006094D01*
X32556335Y-80006098D01*
X32342171Y-80105964D01*
X32342169Y-80105965D01*
X32148597Y-80241505D01*
X31981505Y-80408597D01*
X31851575Y-80594158D01*
X31796998Y-80637783D01*
X31727500Y-80644977D01*
X31665145Y-80613454D01*
X31648425Y-80594158D01*
X31518494Y-80408597D01*
X31351402Y-80241506D01*
X31351395Y-80241501D01*
X31157834Y-80105967D01*
X31157830Y-80105965D01*
X31086727Y-80072809D01*
X30943663Y-80006097D01*
X30943659Y-80006096D01*
X30943655Y-80006094D01*
X30715413Y-79944938D01*
X30715403Y-79944936D01*
X30480001Y-79924341D01*
X30479999Y-79924341D01*
X30244596Y-79944936D01*
X30244586Y-79944938D01*
X30016344Y-80006094D01*
X30016335Y-80006098D01*
X29802171Y-80105964D01*
X29802169Y-80105965D01*
X29608600Y-80241503D01*
X29486284Y-80363819D01*
X29424961Y-80397303D01*
X29355269Y-80392319D01*
X29299336Y-80350447D01*
X29282421Y-80319470D01*
X29233354Y-80187913D01*
X29233350Y-80187906D01*
X29147190Y-80072812D01*
X29147187Y-80072809D01*
X29032093Y-79986649D01*
X29032086Y-79986645D01*
X28897379Y-79936403D01*
X28897372Y-79936401D01*
X28837844Y-79930000D01*
X28190000Y-79930000D01*
X28190000Y-80844498D01*
X28082315Y-80795320D01*
X27975763Y-80780000D01*
X27904237Y-80780000D01*
X27797685Y-80795320D01*
X27690000Y-80844498D01*
X27690000Y-79930000D01*
X27042155Y-79930000D01*
X26982627Y-79936401D01*
X26982620Y-79936403D01*
X26847913Y-79986645D01*
X26847906Y-79986649D01*
X26732812Y-80072809D01*
X26732809Y-80072812D01*
X26646649Y-80187906D01*
X26646645Y-80187913D01*
X26596403Y-80322620D01*
X26596401Y-80322627D01*
X26590000Y-80382155D01*
X26590000Y-80382172D01*
X26589999Y-81030000D01*
X25400500Y-81030000D01*
X25400500Y-73660002D01*
X31755034Y-73660002D01*
X31774858Y-73886599D01*
X31774860Y-73886610D01*
X31833730Y-74106317D01*
X31833734Y-74106326D01*
X31929865Y-74312481D01*
X31929866Y-74312483D01*
X31980973Y-74385471D01*
X31980974Y-74385472D01*
X32662046Y-73704399D01*
X32674835Y-73785148D01*
X32732359Y-73898045D01*
X32821955Y-73987641D01*
X32934852Y-74045165D01*
X33015599Y-74057953D01*
X32334526Y-74739025D01*
X32334526Y-74739026D01*
X32407512Y-74790131D01*
X32407516Y-74790133D01*
X32613673Y-74886265D01*
X32613682Y-74886269D01*
X32833389Y-74945139D01*
X32833400Y-74945141D01*
X33059998Y-74964966D01*
X33060002Y-74964966D01*
X33286599Y-74945141D01*
X33286610Y-74945139D01*
X33506317Y-74886269D01*
X33506331Y-74886264D01*
X33712478Y-74790136D01*
X33785472Y-74739025D01*
X33104401Y-74057953D01*
X33185148Y-74045165D01*
X33298045Y-73987641D01*
X33387641Y-73898045D01*
X33445165Y-73785148D01*
X33457953Y-73704400D01*
X34139025Y-74385472D01*
X34190136Y-74312478D01*
X34286264Y-74106331D01*
X34286269Y-74106317D01*
X34345139Y-73886610D01*
X34345141Y-73886599D01*
X34364966Y-73660002D01*
X34364966Y-73660001D01*
X36754532Y-73660001D01*
X36774364Y-73886686D01*
X36774366Y-73886697D01*
X36833258Y-74106488D01*
X36833261Y-74106497D01*
X36929431Y-74312732D01*
X36929432Y-74312734D01*
X37059954Y-74499141D01*
X37220858Y-74660045D01*
X37220861Y-74660047D01*
X37407266Y-74790568D01*
X37613504Y-74886739D01*
X37833308Y-74945635D01*
X37995230Y-74959801D01*
X38059998Y-74965468D01*
X38060000Y-74965468D01*
X38060002Y-74965468D01*
X38116673Y-74960509D01*
X38286692Y-74945635D01*
X38506496Y-74886739D01*
X38712734Y-74790568D01*
X38899139Y-74660047D01*
X39060047Y-74499139D01*
X39190568Y-74312734D01*
X39286739Y-74106496D01*
X39345635Y-73886692D01*
X39365468Y-73660000D01*
X39345635Y-73433308D01*
X39286739Y-73213504D01*
X39190568Y-73007266D01*
X39060047Y-72820861D01*
X39060045Y-72820858D01*
X38899141Y-72659954D01*
X38712734Y-72529432D01*
X38712732Y-72529431D01*
X38506497Y-72433261D01*
X38506488Y-72433258D01*
X38286697Y-72374366D01*
X38286693Y-72374365D01*
X38286692Y-72374365D01*
X38286691Y-72374364D01*
X38286686Y-72374364D01*
X38060002Y-72354532D01*
X38059998Y-72354532D01*
X37833313Y-72374364D01*
X37833302Y-72374366D01*
X37613511Y-72433258D01*
X37613502Y-72433261D01*
X37407267Y-72529431D01*
X37407265Y-72529432D01*
X37220858Y-72659954D01*
X37059954Y-72820858D01*
X36929432Y-73007265D01*
X36929431Y-73007267D01*
X36833261Y-73213502D01*
X36833258Y-73213511D01*
X36774366Y-73433302D01*
X36774364Y-73433313D01*
X36754532Y-73659998D01*
X36754532Y-73660001D01*
X34364966Y-73660001D01*
X34364966Y-73659997D01*
X34345141Y-73433400D01*
X34345139Y-73433389D01*
X34286269Y-73213682D01*
X34286265Y-73213673D01*
X34190133Y-73007516D01*
X34190131Y-73007512D01*
X34139026Y-72934526D01*
X34139025Y-72934526D01*
X33457953Y-73615598D01*
X33445165Y-73534852D01*
X33387641Y-73421955D01*
X33298045Y-73332359D01*
X33185148Y-73274835D01*
X33104399Y-73262045D01*
X33785472Y-72580973D01*
X33712483Y-72529866D01*
X33712481Y-72529865D01*
X33506326Y-72433734D01*
X33506317Y-72433730D01*
X33286610Y-72374860D01*
X33286599Y-72374858D01*
X33060002Y-72355034D01*
X33059998Y-72355034D01*
X32833400Y-72374858D01*
X32833389Y-72374860D01*
X32613682Y-72433730D01*
X32613673Y-72433734D01*
X32407513Y-72529868D01*
X32334526Y-72580973D01*
X33015598Y-73262046D01*
X32934852Y-73274835D01*
X32821955Y-73332359D01*
X32732359Y-73421955D01*
X32674835Y-73534852D01*
X32662046Y-73615599D01*
X31980973Y-72934526D01*
X31980972Y-72934527D01*
X31929868Y-73007513D01*
X31833734Y-73213673D01*
X31833730Y-73213682D01*
X31774860Y-73433389D01*
X31774858Y-73433400D01*
X31755034Y-73659997D01*
X31755034Y-73660002D01*
X25400500Y-73660002D01*
X25400500Y-69850001D01*
X26634532Y-69850001D01*
X26654364Y-70076686D01*
X26654366Y-70076697D01*
X26713258Y-70296488D01*
X26713261Y-70296497D01*
X26809431Y-70502732D01*
X26809432Y-70502734D01*
X26939954Y-70689141D01*
X27100858Y-70850045D01*
X27100861Y-70850047D01*
X27287266Y-70980568D01*
X27493504Y-71076739D01*
X27713308Y-71135635D01*
X27875230Y-71149801D01*
X27939998Y-71155468D01*
X27940000Y-71155468D01*
X27940002Y-71155468D01*
X27996673Y-71150509D01*
X28166692Y-71135635D01*
X28386496Y-71076739D01*
X28592734Y-70980568D01*
X28779139Y-70850047D01*
X28940047Y-70689139D01*
X29070568Y-70502734D01*
X29166739Y-70296496D01*
X29225635Y-70076692D01*
X29245468Y-69850001D01*
X36794532Y-69850001D01*
X36814364Y-70076686D01*
X36814366Y-70076697D01*
X36873258Y-70296488D01*
X36873261Y-70296497D01*
X36969431Y-70502732D01*
X36969432Y-70502734D01*
X37099954Y-70689141D01*
X37260858Y-70850045D01*
X37260861Y-70850047D01*
X37447266Y-70980568D01*
X37653504Y-71076739D01*
X37873308Y-71135635D01*
X38035230Y-71149801D01*
X38099998Y-71155468D01*
X38100000Y-71155468D01*
X38100002Y-71155468D01*
X38156673Y-71150509D01*
X38326692Y-71135635D01*
X38546496Y-71076739D01*
X38752734Y-70980568D01*
X38939139Y-70850047D01*
X39100047Y-70689139D01*
X39230568Y-70502734D01*
X39326739Y-70296496D01*
X39385635Y-70076692D01*
X39405468Y-69850000D01*
X39385635Y-69623308D01*
X39326739Y-69403504D01*
X39230568Y-69197266D01*
X39100047Y-69010861D01*
X39100045Y-69010858D01*
X38939141Y-68849954D01*
X38752734Y-68719432D01*
X38752732Y-68719431D01*
X38546497Y-68623261D01*
X38546488Y-68623258D01*
X38326697Y-68564366D01*
X38326693Y-68564365D01*
X38326692Y-68564365D01*
X38326691Y-68564364D01*
X38326686Y-68564364D01*
X38100002Y-68544532D01*
X38099998Y-68544532D01*
X37873313Y-68564364D01*
X37873302Y-68564366D01*
X37653511Y-68623258D01*
X37653502Y-68623261D01*
X37447267Y-68719431D01*
X37447265Y-68719432D01*
X37260858Y-68849954D01*
X37099954Y-69010858D01*
X36969432Y-69197265D01*
X36969431Y-69197267D01*
X36873261Y-69403502D01*
X36873258Y-69403511D01*
X36814366Y-69623302D01*
X36814364Y-69623313D01*
X36794532Y-69849998D01*
X36794532Y-69850001D01*
X29245468Y-69850001D01*
X29245468Y-69850000D01*
X29225635Y-69623308D01*
X29166739Y-69403504D01*
X29070568Y-69197266D01*
X28940047Y-69010861D01*
X28940045Y-69010858D01*
X28779141Y-68849954D01*
X28592734Y-68719432D01*
X28592732Y-68719431D01*
X28386497Y-68623261D01*
X28386488Y-68623258D01*
X28166697Y-68564366D01*
X28166693Y-68564365D01*
X28166692Y-68564365D01*
X28166691Y-68564364D01*
X28166686Y-68564364D01*
X27940002Y-68544532D01*
X27939998Y-68544532D01*
X27713313Y-68564364D01*
X27713302Y-68564366D01*
X27493511Y-68623258D01*
X27493502Y-68623261D01*
X27287267Y-68719431D01*
X27287265Y-68719432D01*
X27100858Y-68849954D01*
X26939954Y-69010858D01*
X26809432Y-69197265D01*
X26809431Y-69197267D01*
X26713261Y-69403502D01*
X26713258Y-69403511D01*
X26654366Y-69623302D01*
X26654364Y-69623313D01*
X26634532Y-69849998D01*
X26634532Y-69850001D01*
X25400500Y-69850001D01*
X25400500Y-66040001D01*
X26634532Y-66040001D01*
X26654364Y-66266686D01*
X26654366Y-66266697D01*
X26713258Y-66486488D01*
X26713261Y-66486497D01*
X26809431Y-66692732D01*
X26809432Y-66692734D01*
X26939954Y-66879141D01*
X27100858Y-67040045D01*
X27100861Y-67040047D01*
X27287266Y-67170568D01*
X27493504Y-67266739D01*
X27713308Y-67325635D01*
X27875230Y-67339801D01*
X27939998Y-67345468D01*
X27940000Y-67345468D01*
X27940002Y-67345468D01*
X27996673Y-67340509D01*
X28166692Y-67325635D01*
X28386496Y-67266739D01*
X28592734Y-67170568D01*
X28779139Y-67040047D01*
X28940047Y-66879139D01*
X29070568Y-66692734D01*
X29166739Y-66486496D01*
X29225635Y-66266692D01*
X29245468Y-66040001D01*
X36794532Y-66040001D01*
X36814364Y-66266686D01*
X36814366Y-66266697D01*
X36873258Y-66486488D01*
X36873261Y-66486497D01*
X36969431Y-66692732D01*
X36969432Y-66692734D01*
X37099954Y-66879141D01*
X37260858Y-67040045D01*
X37260861Y-67040047D01*
X37447266Y-67170568D01*
X37653504Y-67266739D01*
X37873308Y-67325635D01*
X38035230Y-67339801D01*
X38099998Y-67345468D01*
X38100000Y-67345468D01*
X38100002Y-67345468D01*
X38156673Y-67340509D01*
X38326692Y-67325635D01*
X38546496Y-67266739D01*
X38752734Y-67170568D01*
X38939139Y-67040047D01*
X39100047Y-66879139D01*
X39230568Y-66692734D01*
X39326739Y-66486496D01*
X39385635Y-66266692D01*
X39405468Y-66040000D01*
X39385635Y-65813308D01*
X39326739Y-65593504D01*
X39230568Y-65387266D01*
X39100047Y-65200861D01*
X39100045Y-65200858D01*
X38939141Y-65039954D01*
X38752734Y-64909432D01*
X38752732Y-64909431D01*
X38546497Y-64813261D01*
X38546488Y-64813258D01*
X38326697Y-64754366D01*
X38326693Y-64754365D01*
X38326692Y-64754365D01*
X38326691Y-64754364D01*
X38326686Y-64754364D01*
X38100002Y-64734532D01*
X38099998Y-64734532D01*
X37873313Y-64754364D01*
X37873302Y-64754366D01*
X37653511Y-64813258D01*
X37653502Y-64813261D01*
X37447267Y-64909431D01*
X37447265Y-64909432D01*
X37260858Y-65039954D01*
X37099954Y-65200858D01*
X36969432Y-65387265D01*
X36969431Y-65387267D01*
X36873261Y-65593502D01*
X36873258Y-65593511D01*
X36814366Y-65813302D01*
X36814364Y-65813313D01*
X36794532Y-66039998D01*
X36794532Y-66040001D01*
X29245468Y-66040001D01*
X29245468Y-66040000D01*
X29225635Y-65813308D01*
X29166739Y-65593504D01*
X29070568Y-65387266D01*
X28940047Y-65200861D01*
X28940045Y-65200858D01*
X28779141Y-65039954D01*
X28592734Y-64909432D01*
X28592732Y-64909431D01*
X28386497Y-64813261D01*
X28386488Y-64813258D01*
X28166697Y-64754366D01*
X28166693Y-64754365D01*
X28166692Y-64754365D01*
X28166691Y-64754364D01*
X28166686Y-64754364D01*
X27940002Y-64734532D01*
X27939998Y-64734532D01*
X27713313Y-64754364D01*
X27713302Y-64754366D01*
X27493511Y-64813258D01*
X27493502Y-64813261D01*
X27287267Y-64909431D01*
X27287265Y-64909432D01*
X27100858Y-65039954D01*
X26939954Y-65200858D01*
X26809432Y-65387265D01*
X26809431Y-65387267D01*
X26713261Y-65593502D01*
X26713258Y-65593511D01*
X26654366Y-65813302D01*
X26654364Y-65813313D01*
X26634532Y-66039998D01*
X26634532Y-66040001D01*
X25400500Y-66040001D01*
X25400500Y-52070000D01*
X39734540Y-52070000D01*
X39754326Y-52258256D01*
X39754327Y-52258259D01*
X39812818Y-52438277D01*
X39812821Y-52438284D01*
X39907467Y-52602216D01*
X39992756Y-52696939D01*
X40034129Y-52742888D01*
X40187265Y-52854148D01*
X40187270Y-52854151D01*
X40360192Y-52931142D01*
X40360197Y-52931144D01*
X40545354Y-52970500D01*
X40545355Y-52970500D01*
X40734644Y-52970500D01*
X40734646Y-52970500D01*
X40919803Y-52931144D01*
X40948056Y-52918563D01*
X40971607Y-52910792D01*
X40979286Y-52909085D01*
X40982400Y-52908394D01*
X41524389Y-52703510D01*
X41568234Y-52695500D01*
X93897257Y-52695500D01*
X93912877Y-52697224D01*
X93912904Y-52696939D01*
X93920666Y-52697673D01*
X93920666Y-52697672D01*
X93920667Y-52697673D01*
X93923999Y-52697568D01*
X93988847Y-52695531D01*
X93990794Y-52695500D01*
X94019347Y-52695500D01*
X94019350Y-52695500D01*
X94026228Y-52694630D01*
X94032041Y-52694172D01*
X94078627Y-52692709D01*
X94097869Y-52687117D01*
X94116912Y-52683174D01*
X94136792Y-52680664D01*
X94180122Y-52663507D01*
X94185646Y-52661617D01*
X94189396Y-52660527D01*
X94230390Y-52648618D01*
X94247629Y-52638422D01*
X94265103Y-52629862D01*
X94283727Y-52622488D01*
X94283727Y-52622487D01*
X94283732Y-52622486D01*
X94321449Y-52595082D01*
X94326305Y-52591892D01*
X94366420Y-52568170D01*
X94380589Y-52553999D01*
X94395379Y-52541368D01*
X94411587Y-52529594D01*
X94441299Y-52493676D01*
X94445212Y-52489376D01*
X97547183Y-49387406D01*
X97608504Y-49353923D01*
X97678196Y-49358907D01*
X97734129Y-49400779D01*
X97758546Y-49466243D01*
X97758390Y-49485895D01*
X97754532Y-49529996D01*
X97754532Y-49530001D01*
X97774364Y-49756686D01*
X97774366Y-49756697D01*
X97833258Y-49976488D01*
X97833261Y-49976497D01*
X97929431Y-50182732D01*
X97929432Y-50182734D01*
X98059954Y-50369141D01*
X98220858Y-50530045D01*
X98220861Y-50530047D01*
X98407266Y-50660568D01*
X98613504Y-50756739D01*
X98833308Y-50815635D01*
X98995230Y-50829801D01*
X99059998Y-50835468D01*
X99060000Y-50835468D01*
X99060002Y-50835468D01*
X99116673Y-50830509D01*
X99286692Y-50815635D01*
X99506496Y-50756739D01*
X99712734Y-50660568D01*
X99899139Y-50530047D01*
X100060047Y-50369139D01*
X100190568Y-50182734D01*
X100286739Y-49976496D01*
X100345635Y-49756692D01*
X100365468Y-49530001D01*
X102834532Y-49530001D01*
X102854364Y-49756686D01*
X102854366Y-49756697D01*
X102913258Y-49976488D01*
X102913261Y-49976497D01*
X103009431Y-50182732D01*
X103009432Y-50182734D01*
X103139954Y-50369141D01*
X103300858Y-50530045D01*
X103300861Y-50530047D01*
X103487266Y-50660568D01*
X103693504Y-50756739D01*
X103913308Y-50815635D01*
X104075230Y-50829801D01*
X104139998Y-50835468D01*
X104140000Y-50835468D01*
X104140002Y-50835468D01*
X104196673Y-50830509D01*
X104366692Y-50815635D01*
X104586496Y-50756739D01*
X104792734Y-50660568D01*
X104979139Y-50530047D01*
X105140047Y-50369139D01*
X105270568Y-50182734D01*
X105366739Y-49976496D01*
X105425635Y-49756692D01*
X105445468Y-49530000D01*
X105425635Y-49303308D01*
X105366739Y-49083504D01*
X105270568Y-48877266D01*
X105140047Y-48690861D01*
X105140045Y-48690858D01*
X104979141Y-48529954D01*
X104792734Y-48399432D01*
X104792732Y-48399431D01*
X104586497Y-48303261D01*
X104586488Y-48303258D01*
X104366697Y-48244366D01*
X104366693Y-48244365D01*
X104366692Y-48244365D01*
X104366691Y-48244364D01*
X104366686Y-48244364D01*
X104140002Y-48224532D01*
X104139998Y-48224532D01*
X103913313Y-48244364D01*
X103913302Y-48244366D01*
X103693511Y-48303258D01*
X103693502Y-48303261D01*
X103487267Y-48399431D01*
X103487265Y-48399432D01*
X103300858Y-48529954D01*
X103139954Y-48690858D01*
X103009432Y-48877265D01*
X103009431Y-48877267D01*
X102913261Y-49083502D01*
X102913258Y-49083511D01*
X102854366Y-49303302D01*
X102854364Y-49303313D01*
X102834532Y-49529998D01*
X102834532Y-49530001D01*
X100365468Y-49530001D01*
X100365468Y-49530000D01*
X100345635Y-49303308D01*
X100286739Y-49083504D01*
X100190568Y-48877266D01*
X100060047Y-48690861D01*
X100060045Y-48690858D01*
X99899141Y-48529954D01*
X99712734Y-48399432D01*
X99712732Y-48399431D01*
X99506497Y-48303261D01*
X99506488Y-48303258D01*
X99286697Y-48244366D01*
X99286693Y-48244365D01*
X99286692Y-48244365D01*
X99286691Y-48244364D01*
X99286686Y-48244364D01*
X99060002Y-48224532D01*
X99059997Y-48224532D01*
X99015896Y-48228390D01*
X98947397Y-48214623D01*
X98897214Y-48166007D01*
X98881281Y-48097979D01*
X98904657Y-48032135D01*
X98917409Y-48017181D01*
X99282772Y-47651819D01*
X99344095Y-47618334D01*
X99370453Y-47615500D01*
X99847659Y-47615500D01*
X99900828Y-47627478D01*
X101068847Y-48181858D01*
X101068882Y-48181874D01*
X101074688Y-48184541D01*
X101074713Y-48184552D01*
X101078133Y-48186070D01*
X101078132Y-48186070D01*
X101078136Y-48186071D01*
X101078135Y-48186071D01*
X101121085Y-48201862D01*
X101125884Y-48203859D01*
X101153504Y-48216739D01*
X101373308Y-48275635D01*
X101535230Y-48289801D01*
X101599998Y-48295468D01*
X101600000Y-48295468D01*
X101600002Y-48295468D01*
X101656672Y-48290509D01*
X101826692Y-48275635D01*
X102046496Y-48216739D01*
X102252734Y-48120568D01*
X102439139Y-47990047D01*
X102600047Y-47829139D01*
X102730568Y-47642734D01*
X102826739Y-47436496D01*
X102885635Y-47216692D01*
X102905468Y-46990000D01*
X102901952Y-46949817D01*
X102885635Y-46763313D01*
X102885635Y-46763308D01*
X102826739Y-46543504D01*
X102730568Y-46337266D01*
X102610869Y-46166317D01*
X102600045Y-46150858D01*
X102439141Y-45989954D01*
X102252734Y-45859432D01*
X102252732Y-45859431D01*
X102046497Y-45763261D01*
X102046488Y-45763258D01*
X101826697Y-45704366D01*
X101826693Y-45704365D01*
X101826692Y-45704365D01*
X101826691Y-45704364D01*
X101826686Y-45704364D01*
X101600002Y-45684532D01*
X101599998Y-45684532D01*
X101373313Y-45704364D01*
X101373302Y-45704366D01*
X101153504Y-45763260D01*
X101099025Y-45788664D01*
X101091163Y-45791698D01*
X101084353Y-45793807D01*
X101065995Y-45799493D01*
X99900825Y-46352522D01*
X99847656Y-46364500D01*
X99142743Y-46364500D01*
X99127122Y-46362775D01*
X99127096Y-46363061D01*
X99119333Y-46362326D01*
X99051153Y-46364469D01*
X99049206Y-46364500D01*
X99020649Y-46364500D01*
X99013766Y-46365369D01*
X99007949Y-46365826D01*
X98961373Y-46367290D01*
X98942129Y-46372881D01*
X98923079Y-46376825D01*
X98903211Y-46379334D01*
X98859884Y-46396488D01*
X98854358Y-46398379D01*
X98809614Y-46411379D01*
X98809610Y-46411381D01*
X98792366Y-46421579D01*
X98774905Y-46430133D01*
X98756274Y-46437510D01*
X98756262Y-46437517D01*
X98718570Y-46464902D01*
X98713687Y-46468109D01*
X98673580Y-46491829D01*
X98659414Y-46505995D01*
X98644624Y-46518627D01*
X98628414Y-46530404D01*
X98628411Y-46530407D01*
X98598710Y-46566309D01*
X98594777Y-46570631D01*
X93757228Y-51408181D01*
X93695905Y-51441666D01*
X93669547Y-51444500D01*
X41568236Y-51444500D01*
X41524391Y-51436489D01*
X41373629Y-51379498D01*
X40999438Y-51238045D01*
X40999438Y-51238046D01*
X40982397Y-51231604D01*
X40962786Y-51225186D01*
X40942016Y-51218388D01*
X40936088Y-51216106D01*
X40930567Y-51213648D01*
X40919804Y-51208856D01*
X40827224Y-51189177D01*
X40734646Y-51169500D01*
X40545354Y-51169500D01*
X40512897Y-51176398D01*
X40360197Y-51208855D01*
X40360192Y-51208857D01*
X40187270Y-51285848D01*
X40187265Y-51285851D01*
X40034129Y-51397111D01*
X39907466Y-51537785D01*
X39812821Y-51701715D01*
X39812818Y-51701722D01*
X39754327Y-51881740D01*
X39754326Y-51881744D01*
X39734540Y-52070000D01*
X25400500Y-52070000D01*
X25400500Y-45720001D01*
X31714532Y-45720001D01*
X31734364Y-45946686D01*
X31734366Y-45946697D01*
X31793258Y-46166488D01*
X31793261Y-46166497D01*
X31889431Y-46372732D01*
X31889432Y-46372734D01*
X32019954Y-46559141D01*
X32180858Y-46720045D01*
X32180861Y-46720047D01*
X32367266Y-46850568D01*
X32573504Y-46946739D01*
X32573509Y-46946740D01*
X32573511Y-46946741D01*
X32597852Y-46953263D01*
X32793308Y-47005635D01*
X32955230Y-47019801D01*
X33019998Y-47025468D01*
X33020000Y-47025468D01*
X33020002Y-47025468D01*
X33076673Y-47020509D01*
X33246692Y-47005635D01*
X33466496Y-46946739D01*
X33672734Y-46850568D01*
X33859139Y-46720047D01*
X34020047Y-46559139D01*
X34150568Y-46372734D01*
X34177619Y-46314722D01*
X34223788Y-46262286D01*
X34290981Y-46243133D01*
X34357862Y-46263348D01*
X34402380Y-46314722D01*
X34429432Y-46372734D01*
X34463633Y-46421579D01*
X34559954Y-46559141D01*
X34720858Y-46720045D01*
X34720861Y-46720047D01*
X34907266Y-46850568D01*
X35113504Y-46946739D01*
X35113509Y-46946740D01*
X35113511Y-46946741D01*
X35137852Y-46953263D01*
X35333308Y-47005635D01*
X35495230Y-47019801D01*
X35559998Y-47025468D01*
X35560000Y-47025468D01*
X35560002Y-47025468D01*
X35616672Y-47020509D01*
X35786692Y-47005635D01*
X36006496Y-46946739D01*
X36212734Y-46850568D01*
X36399139Y-46720047D01*
X36560047Y-46559139D01*
X36690568Y-46372734D01*
X36717618Y-46314724D01*
X36763790Y-46262285D01*
X36830983Y-46243133D01*
X36897865Y-46263348D01*
X36942382Y-46314725D01*
X36969429Y-46372728D01*
X36969432Y-46372734D01*
X37099954Y-46559141D01*
X37260858Y-46720045D01*
X37260861Y-46720047D01*
X37447266Y-46850568D01*
X37653504Y-46946739D01*
X37653509Y-46946740D01*
X37653511Y-46946741D01*
X37677852Y-46953263D01*
X37873308Y-47005635D01*
X38035230Y-47019801D01*
X38099998Y-47025468D01*
X38100000Y-47025468D01*
X38100002Y-47025468D01*
X38156673Y-47020509D01*
X38326692Y-47005635D01*
X38546496Y-46946739D01*
X38752734Y-46850568D01*
X38939139Y-46720047D01*
X39100047Y-46559139D01*
X39230568Y-46372734D01*
X39257618Y-46314724D01*
X39303790Y-46262285D01*
X39370983Y-46243133D01*
X39437865Y-46263348D01*
X39482382Y-46314725D01*
X39509429Y-46372728D01*
X39509432Y-46372734D01*
X39639954Y-46559141D01*
X39800858Y-46720045D01*
X39800861Y-46720047D01*
X39987266Y-46850568D01*
X40193504Y-46946739D01*
X40193509Y-46946740D01*
X40193511Y-46946741D01*
X40217852Y-46953263D01*
X40413308Y-47005635D01*
X40575230Y-47019801D01*
X40639998Y-47025468D01*
X40640000Y-47025468D01*
X40640002Y-47025468D01*
X40696673Y-47020509D01*
X40866692Y-47005635D01*
X41086496Y-46946739D01*
X41292734Y-46850568D01*
X41479139Y-46720047D01*
X41640047Y-46559139D01*
X41770568Y-46372734D01*
X41797618Y-46314724D01*
X41843790Y-46262285D01*
X41910983Y-46243133D01*
X41977865Y-46263348D01*
X42022382Y-46314725D01*
X42049429Y-46372728D01*
X42049432Y-46372734D01*
X42179954Y-46559141D01*
X42340858Y-46720045D01*
X42340861Y-46720047D01*
X42527266Y-46850568D01*
X42733504Y-46946739D01*
X42733509Y-46946740D01*
X42733511Y-46946741D01*
X42757852Y-46953263D01*
X42953308Y-47005635D01*
X43115230Y-47019801D01*
X43179998Y-47025468D01*
X43180000Y-47025468D01*
X43180002Y-47025468D01*
X43236673Y-47020509D01*
X43406692Y-47005635D01*
X43626496Y-46946739D01*
X43832734Y-46850568D01*
X44019139Y-46720047D01*
X44180047Y-46559139D01*
X44310568Y-46372734D01*
X44337618Y-46314724D01*
X44383790Y-46262285D01*
X44450983Y-46243133D01*
X44517865Y-46263348D01*
X44562382Y-46314725D01*
X44589429Y-46372728D01*
X44589432Y-46372734D01*
X44719954Y-46559141D01*
X44880858Y-46720045D01*
X44880861Y-46720047D01*
X45067266Y-46850568D01*
X45273504Y-46946739D01*
X45273509Y-46946740D01*
X45273511Y-46946741D01*
X45297852Y-46953263D01*
X45493308Y-47005635D01*
X45655230Y-47019801D01*
X45719998Y-47025468D01*
X45720000Y-47025468D01*
X45720002Y-47025468D01*
X45776672Y-47020509D01*
X45946692Y-47005635D01*
X46166496Y-46946739D01*
X46372734Y-46850568D01*
X46559139Y-46720047D01*
X46720047Y-46559139D01*
X46850568Y-46372734D01*
X46877618Y-46314724D01*
X46923790Y-46262285D01*
X46990983Y-46243133D01*
X47057865Y-46263348D01*
X47102382Y-46314725D01*
X47129429Y-46372728D01*
X47129432Y-46372734D01*
X47259954Y-46559141D01*
X47420858Y-46720045D01*
X47420861Y-46720047D01*
X47607266Y-46850568D01*
X47813504Y-46946739D01*
X47813509Y-46946740D01*
X47813511Y-46946741D01*
X47837852Y-46953263D01*
X48033308Y-47005635D01*
X48195230Y-47019801D01*
X48259998Y-47025468D01*
X48260000Y-47025468D01*
X48260002Y-47025468D01*
X48316673Y-47020509D01*
X48486692Y-47005635D01*
X48706496Y-46946739D01*
X48912734Y-46850568D01*
X49099139Y-46720047D01*
X49260047Y-46559139D01*
X49390568Y-46372734D01*
X49417618Y-46314724D01*
X49463790Y-46262285D01*
X49530983Y-46243133D01*
X49597865Y-46263348D01*
X49642382Y-46314725D01*
X49669429Y-46372728D01*
X49669432Y-46372734D01*
X49799954Y-46559141D01*
X49960858Y-46720045D01*
X49960861Y-46720047D01*
X50147266Y-46850568D01*
X50353504Y-46946739D01*
X50353509Y-46946740D01*
X50353511Y-46946741D01*
X50377852Y-46953263D01*
X50573308Y-47005635D01*
X50735230Y-47019801D01*
X50799998Y-47025468D01*
X50800000Y-47025468D01*
X50800002Y-47025468D01*
X50856673Y-47020509D01*
X51026692Y-47005635D01*
X51246496Y-46946739D01*
X51452734Y-46850568D01*
X51639139Y-46720047D01*
X51800047Y-46559139D01*
X51930568Y-46372734D01*
X51957619Y-46314721D01*
X52003788Y-46262286D01*
X52070981Y-46243133D01*
X52137862Y-46263348D01*
X52182380Y-46314722D01*
X52209432Y-46372734D01*
X52243633Y-46421579D01*
X52339954Y-46559141D01*
X52500858Y-46720045D01*
X52500861Y-46720047D01*
X52687266Y-46850568D01*
X52893504Y-46946739D01*
X52893509Y-46946740D01*
X52893511Y-46946741D01*
X52917852Y-46953263D01*
X53113308Y-47005635D01*
X53275230Y-47019801D01*
X53339998Y-47025468D01*
X53340000Y-47025468D01*
X53340002Y-47025468D01*
X53396673Y-47020509D01*
X53566692Y-47005635D01*
X53786496Y-46946739D01*
X53992734Y-46850568D01*
X54179139Y-46720047D01*
X54340047Y-46559139D01*
X54470568Y-46372734D01*
X54497618Y-46314724D01*
X54543790Y-46262285D01*
X54610983Y-46243133D01*
X54677865Y-46263348D01*
X54722382Y-46314725D01*
X54749429Y-46372728D01*
X54749432Y-46372734D01*
X54879954Y-46559141D01*
X55040858Y-46720045D01*
X55040861Y-46720047D01*
X55227266Y-46850568D01*
X55433504Y-46946739D01*
X55433509Y-46946740D01*
X55433511Y-46946741D01*
X55457852Y-46953263D01*
X55653308Y-47005635D01*
X55815230Y-47019801D01*
X55879998Y-47025468D01*
X55880000Y-47025468D01*
X55880002Y-47025468D01*
X55936672Y-47020509D01*
X56106692Y-47005635D01*
X56326496Y-46946739D01*
X56532734Y-46850568D01*
X56719139Y-46720047D01*
X56880047Y-46559139D01*
X57010568Y-46372734D01*
X57037618Y-46314724D01*
X57083790Y-46262285D01*
X57150983Y-46243133D01*
X57217865Y-46263348D01*
X57262382Y-46314725D01*
X57289429Y-46372728D01*
X57289432Y-46372734D01*
X57419954Y-46559141D01*
X57580858Y-46720045D01*
X57580861Y-46720047D01*
X57767266Y-46850568D01*
X57973504Y-46946739D01*
X57973509Y-46946740D01*
X57973511Y-46946741D01*
X57997852Y-46953263D01*
X58193308Y-47005635D01*
X58355230Y-47019801D01*
X58419998Y-47025468D01*
X58420000Y-47025468D01*
X58420002Y-47025468D01*
X58476673Y-47020509D01*
X58646692Y-47005635D01*
X58866496Y-46946739D01*
X59072734Y-46850568D01*
X59259139Y-46720047D01*
X59420047Y-46559139D01*
X59550568Y-46372734D01*
X59577618Y-46314724D01*
X59623790Y-46262285D01*
X59690983Y-46243133D01*
X59757865Y-46263348D01*
X59802382Y-46314725D01*
X59829429Y-46372728D01*
X59829432Y-46372734D01*
X59959954Y-46559141D01*
X60120858Y-46720045D01*
X60120861Y-46720047D01*
X60307266Y-46850568D01*
X60513504Y-46946739D01*
X60513509Y-46946740D01*
X60513511Y-46946741D01*
X60537852Y-46953263D01*
X60733308Y-47005635D01*
X60895230Y-47019801D01*
X60959998Y-47025468D01*
X60960000Y-47025468D01*
X60960002Y-47025468D01*
X61016673Y-47020509D01*
X61186692Y-47005635D01*
X61406496Y-46946739D01*
X61612734Y-46850568D01*
X61799139Y-46720047D01*
X61960047Y-46559139D01*
X62090568Y-46372734D01*
X62117618Y-46314724D01*
X62163790Y-46262285D01*
X62230983Y-46243133D01*
X62297865Y-46263348D01*
X62342382Y-46314725D01*
X62369429Y-46372728D01*
X62369432Y-46372734D01*
X62499954Y-46559141D01*
X62660858Y-46720045D01*
X62660861Y-46720047D01*
X62847266Y-46850568D01*
X63053504Y-46946739D01*
X63053509Y-46946740D01*
X63053511Y-46946741D01*
X63077852Y-46953263D01*
X63273308Y-47005635D01*
X63435230Y-47019801D01*
X63499998Y-47025468D01*
X63500000Y-47025468D01*
X63500002Y-47025468D01*
X63556673Y-47020509D01*
X63726692Y-47005635D01*
X63946496Y-46946739D01*
X64152734Y-46850568D01*
X64339139Y-46720047D01*
X64500047Y-46559139D01*
X64630568Y-46372734D01*
X64657618Y-46314724D01*
X64703790Y-46262285D01*
X64770983Y-46243133D01*
X64837865Y-46263348D01*
X64882382Y-46314725D01*
X64909429Y-46372728D01*
X64909432Y-46372734D01*
X65039954Y-46559141D01*
X65200858Y-46720045D01*
X65200861Y-46720047D01*
X65387266Y-46850568D01*
X65593504Y-46946739D01*
X65593509Y-46946740D01*
X65593511Y-46946741D01*
X65617852Y-46953263D01*
X65813308Y-47005635D01*
X65975230Y-47019801D01*
X66039998Y-47025468D01*
X66040000Y-47025468D01*
X66040002Y-47025468D01*
X66096672Y-47020509D01*
X66266692Y-47005635D01*
X66486496Y-46946739D01*
X66692734Y-46850568D01*
X66879139Y-46720047D01*
X67040047Y-46559139D01*
X67170568Y-46372734D01*
X67197618Y-46314724D01*
X67243790Y-46262285D01*
X67310983Y-46243133D01*
X67377865Y-46263348D01*
X67422382Y-46314725D01*
X67449429Y-46372728D01*
X67449432Y-46372734D01*
X67579954Y-46559141D01*
X67740858Y-46720045D01*
X67740861Y-46720047D01*
X67927266Y-46850568D01*
X68133504Y-46946739D01*
X68133509Y-46946740D01*
X68133511Y-46946741D01*
X68157852Y-46953263D01*
X68353308Y-47005635D01*
X68515230Y-47019801D01*
X68579998Y-47025468D01*
X68580000Y-47025468D01*
X68580002Y-47025468D01*
X68636673Y-47020509D01*
X68806692Y-47005635D01*
X69026496Y-46946739D01*
X69232734Y-46850568D01*
X69419139Y-46720047D01*
X69580047Y-46559139D01*
X69710568Y-46372734D01*
X69737618Y-46314724D01*
X69783790Y-46262285D01*
X69850983Y-46243133D01*
X69917865Y-46263348D01*
X69962382Y-46314725D01*
X69989429Y-46372728D01*
X69989432Y-46372734D01*
X70119954Y-46559141D01*
X70280858Y-46720045D01*
X70280861Y-46720047D01*
X70467266Y-46850568D01*
X70673504Y-46946739D01*
X70673509Y-46946740D01*
X70673511Y-46946741D01*
X70697852Y-46953263D01*
X70893308Y-47005635D01*
X71055230Y-47019801D01*
X71119998Y-47025468D01*
X71120000Y-47025468D01*
X71120002Y-47025468D01*
X71176673Y-47020509D01*
X71346692Y-47005635D01*
X71566496Y-46946739D01*
X71772734Y-46850568D01*
X71959139Y-46720047D01*
X72120047Y-46559139D01*
X72250568Y-46372734D01*
X72277618Y-46314724D01*
X72323790Y-46262285D01*
X72390983Y-46243133D01*
X72457865Y-46263348D01*
X72502382Y-46314725D01*
X72529429Y-46372728D01*
X72529432Y-46372734D01*
X72659954Y-46559141D01*
X72820858Y-46720045D01*
X72820861Y-46720047D01*
X73007266Y-46850568D01*
X73213504Y-46946739D01*
X73213509Y-46946740D01*
X73213511Y-46946741D01*
X73237852Y-46953263D01*
X73433308Y-47005635D01*
X73595230Y-47019801D01*
X73659998Y-47025468D01*
X73660000Y-47025468D01*
X73660002Y-47025468D01*
X73716673Y-47020509D01*
X73886692Y-47005635D01*
X74106496Y-46946739D01*
X74312734Y-46850568D01*
X74499139Y-46720047D01*
X74660047Y-46559139D01*
X74790568Y-46372734D01*
X74817618Y-46314724D01*
X74863790Y-46262285D01*
X74930983Y-46243133D01*
X74997865Y-46263348D01*
X75042382Y-46314725D01*
X75069429Y-46372728D01*
X75069432Y-46372734D01*
X75199954Y-46559141D01*
X75360858Y-46720045D01*
X75360861Y-46720047D01*
X75547266Y-46850568D01*
X75719008Y-46930653D01*
X75721693Y-46931985D01*
X75735781Y-46939410D01*
X75739266Y-46940651D01*
X75741537Y-46941461D01*
X75746930Y-46943674D01*
X75750420Y-46945300D01*
X75753504Y-46946739D01*
X75762593Y-46949173D01*
X75767334Y-46950650D01*
X76950731Y-47372260D01*
X76996797Y-47401387D01*
X79509194Y-49913784D01*
X79519019Y-49926048D01*
X79519240Y-49925866D01*
X79524210Y-49931874D01*
X79573949Y-49978582D01*
X79575316Y-49979906D01*
X79595530Y-50000120D01*
X79601004Y-50004366D01*
X79605442Y-50008156D01*
X79639418Y-50040062D01*
X79639422Y-50040064D01*
X79656973Y-50049713D01*
X79673231Y-50060392D01*
X79689064Y-50072674D01*
X79711015Y-50082172D01*
X79731837Y-50091183D01*
X79737081Y-50093752D01*
X79777908Y-50116197D01*
X79797312Y-50121179D01*
X79815710Y-50127478D01*
X79834105Y-50135438D01*
X79880129Y-50142726D01*
X79885832Y-50143907D01*
X79930981Y-50155500D01*
X79951016Y-50155500D01*
X79970413Y-50157026D01*
X79990196Y-50160160D01*
X80036583Y-50155775D01*
X80042422Y-50155500D01*
X84796766Y-50155500D01*
X84840610Y-50163510D01*
X85134227Y-50274504D01*
X85382606Y-50368397D01*
X85411307Y-50377789D01*
X85422986Y-50381611D01*
X85428915Y-50383894D01*
X85437073Y-50387527D01*
X85445194Y-50391143D01*
X85445197Y-50391144D01*
X85630354Y-50430500D01*
X85630355Y-50430500D01*
X85819644Y-50430500D01*
X85819646Y-50430500D01*
X86004803Y-50391144D01*
X86177730Y-50314151D01*
X86330871Y-50202888D01*
X86457533Y-50062216D01*
X86552179Y-49898284D01*
X86610674Y-49718256D01*
X86630460Y-49530000D01*
X86610674Y-49341744D01*
X86552179Y-49161716D01*
X86457533Y-48997784D01*
X86330871Y-48857112D01*
X86330870Y-48857111D01*
X86177734Y-48745851D01*
X86177729Y-48745848D01*
X86004807Y-48668857D01*
X86004802Y-48668855D01*
X85859001Y-48637865D01*
X85819646Y-48629500D01*
X85630354Y-48629500D01*
X85590999Y-48637865D01*
X85445198Y-48668855D01*
X85445193Y-48668857D01*
X85416938Y-48681437D01*
X85393400Y-48689205D01*
X85382607Y-48691602D01*
X85382593Y-48691607D01*
X84840609Y-48896489D01*
X84796763Y-48904500D01*
X80320452Y-48904500D01*
X80253413Y-48884815D01*
X80232771Y-48868181D01*
X78597409Y-47232818D01*
X78563924Y-47171495D01*
X78568908Y-47101803D01*
X78610780Y-47045870D01*
X78676244Y-47021453D01*
X78695890Y-47021608D01*
X78740000Y-47025468D01*
X78740000Y-47025467D01*
X78740001Y-47025468D01*
X78740002Y-47025468D01*
X78796673Y-47020509D01*
X78966692Y-47005635D01*
X79186496Y-46946739D01*
X79392734Y-46850568D01*
X79579139Y-46720047D01*
X79740047Y-46559139D01*
X79870568Y-46372734D01*
X79897895Y-46314129D01*
X79944064Y-46261695D01*
X80011257Y-46242542D01*
X80078139Y-46262757D01*
X80122657Y-46314133D01*
X80149865Y-46372482D01*
X80280342Y-46558820D01*
X80441179Y-46719657D01*
X80627517Y-46850134D01*
X80833673Y-46946265D01*
X80833682Y-46946269D01*
X81029999Y-46998872D01*
X81030000Y-46998871D01*
X81030000Y-46035686D01*
X81041955Y-46047641D01*
X81154852Y-46105165D01*
X81248519Y-46120000D01*
X81311481Y-46120000D01*
X81405148Y-46105165D01*
X81518045Y-46047641D01*
X81530000Y-46035685D01*
X81530000Y-46998872D01*
X81726317Y-46946269D01*
X81726326Y-46946265D01*
X81932482Y-46850134D01*
X82118820Y-46719657D01*
X82279657Y-46558820D01*
X82410134Y-46372482D01*
X82506265Y-46166326D01*
X82506269Y-46166317D01*
X82558872Y-45970000D01*
X81595686Y-45970000D01*
X81607641Y-45958045D01*
X81665165Y-45845148D01*
X81684986Y-45720000D01*
X81665165Y-45594852D01*
X81607641Y-45481955D01*
X81595686Y-45470000D01*
X82558872Y-45470000D01*
X82558872Y-45469999D01*
X82506269Y-45273682D01*
X82506265Y-45273673D01*
X82410134Y-45067517D01*
X82279657Y-44881179D01*
X82118820Y-44720342D01*
X81932482Y-44589865D01*
X81726328Y-44493734D01*
X81530000Y-44441127D01*
X81530000Y-45404314D01*
X81518045Y-45392359D01*
X81405148Y-45334835D01*
X81311481Y-45320000D01*
X81248519Y-45320000D01*
X81154852Y-45334835D01*
X81041955Y-45392359D01*
X81030000Y-45404313D01*
X81030000Y-44441127D01*
X80833671Y-44493734D01*
X80627517Y-44589865D01*
X80441179Y-44720342D01*
X80280342Y-44881179D01*
X80149867Y-45067515D01*
X80122657Y-45125867D01*
X80076484Y-45178306D01*
X80009290Y-45197457D01*
X79942409Y-45177241D01*
X79897893Y-45125865D01*
X79897617Y-45125274D01*
X79870568Y-45067266D01*
X79740047Y-44880861D01*
X79740045Y-44880858D01*
X79579141Y-44719954D01*
X79392734Y-44589432D01*
X79392732Y-44589431D01*
X79186497Y-44493261D01*
X79186488Y-44493258D01*
X78966697Y-44434366D01*
X78966693Y-44434365D01*
X78966692Y-44434365D01*
X78966691Y-44434364D01*
X78966686Y-44434364D01*
X78740002Y-44414532D01*
X78739998Y-44414532D01*
X78513313Y-44434364D01*
X78513302Y-44434366D01*
X78293511Y-44493258D01*
X78293502Y-44493261D01*
X78087267Y-44589431D01*
X78087265Y-44589432D01*
X77900858Y-44719954D01*
X77739954Y-44880858D01*
X77609432Y-45067265D01*
X77609430Y-45067268D01*
X77582380Y-45125277D01*
X77536207Y-45177715D01*
X77469013Y-45196866D01*
X77402132Y-45176649D01*
X77357618Y-45125277D01*
X77330568Y-45067266D01*
X77200047Y-44880861D01*
X77200045Y-44880858D01*
X77039141Y-44719954D01*
X76852734Y-44589432D01*
X76852732Y-44589431D01*
X76646497Y-44493261D01*
X76646488Y-44493258D01*
X76426697Y-44434366D01*
X76426693Y-44434365D01*
X76426692Y-44434365D01*
X76426691Y-44434364D01*
X76426686Y-44434364D01*
X76200002Y-44414532D01*
X76199998Y-44414532D01*
X75973313Y-44434364D01*
X75973302Y-44434366D01*
X75753511Y-44493258D01*
X75753502Y-44493261D01*
X75547267Y-44589431D01*
X75547265Y-44589432D01*
X75360858Y-44719954D01*
X75199954Y-44880858D01*
X75069432Y-45067265D01*
X75069431Y-45067267D01*
X75042382Y-45125275D01*
X74996209Y-45177714D01*
X74929016Y-45196866D01*
X74862135Y-45176650D01*
X74817618Y-45125275D01*
X74790570Y-45067271D01*
X74790568Y-45067266D01*
X74660047Y-44880861D01*
X74660045Y-44880858D01*
X74499141Y-44719954D01*
X74312734Y-44589432D01*
X74312732Y-44589431D01*
X74106497Y-44493261D01*
X74106488Y-44493258D01*
X73886697Y-44434366D01*
X73886693Y-44434365D01*
X73886692Y-44434365D01*
X73886691Y-44434364D01*
X73886686Y-44434364D01*
X73660002Y-44414532D01*
X73659998Y-44414532D01*
X73433313Y-44434364D01*
X73433302Y-44434366D01*
X73213511Y-44493258D01*
X73213502Y-44493261D01*
X73007267Y-44589431D01*
X73007265Y-44589432D01*
X72820858Y-44719954D01*
X72659954Y-44880858D01*
X72529432Y-45067265D01*
X72529431Y-45067267D01*
X72502382Y-45125275D01*
X72456209Y-45177714D01*
X72389016Y-45196866D01*
X72322135Y-45176650D01*
X72277618Y-45125275D01*
X72250570Y-45067271D01*
X72250568Y-45067266D01*
X72120047Y-44880861D01*
X72120045Y-44880858D01*
X71959141Y-44719954D01*
X71772734Y-44589432D01*
X71772732Y-44589431D01*
X71566497Y-44493261D01*
X71566488Y-44493258D01*
X71346697Y-44434366D01*
X71346693Y-44434365D01*
X71346692Y-44434365D01*
X71346691Y-44434364D01*
X71346686Y-44434364D01*
X71120002Y-44414532D01*
X71119998Y-44414532D01*
X70893313Y-44434364D01*
X70893302Y-44434366D01*
X70673511Y-44493258D01*
X70673502Y-44493261D01*
X70467267Y-44589431D01*
X70467265Y-44589432D01*
X70280858Y-44719954D01*
X70119954Y-44880858D01*
X69989432Y-45067265D01*
X69989431Y-45067267D01*
X69962382Y-45125275D01*
X69916209Y-45177714D01*
X69849016Y-45196866D01*
X69782135Y-45176650D01*
X69737618Y-45125275D01*
X69710570Y-45067271D01*
X69710568Y-45067266D01*
X69580047Y-44880861D01*
X69580045Y-44880858D01*
X69419141Y-44719954D01*
X69232734Y-44589432D01*
X69232732Y-44589431D01*
X69026497Y-44493261D01*
X69026488Y-44493258D01*
X68806697Y-44434366D01*
X68806693Y-44434365D01*
X68806692Y-44434365D01*
X68806691Y-44434364D01*
X68806686Y-44434364D01*
X68580002Y-44414532D01*
X68579998Y-44414532D01*
X68353313Y-44434364D01*
X68353302Y-44434366D01*
X68133511Y-44493258D01*
X68133502Y-44493261D01*
X67927267Y-44589431D01*
X67927265Y-44589432D01*
X67740858Y-44719954D01*
X67579954Y-44880858D01*
X67449432Y-45067265D01*
X67449430Y-45067268D01*
X67422380Y-45125277D01*
X67376207Y-45177715D01*
X67309013Y-45196866D01*
X67242132Y-45176649D01*
X67197619Y-45125277D01*
X67170568Y-45067266D01*
X67040047Y-44880861D01*
X67040045Y-44880858D01*
X66879141Y-44719954D01*
X66692734Y-44589432D01*
X66692732Y-44589431D01*
X66486497Y-44493261D01*
X66486488Y-44493258D01*
X66266697Y-44434366D01*
X66266693Y-44434365D01*
X66266692Y-44434365D01*
X66266691Y-44434364D01*
X66266686Y-44434364D01*
X66040002Y-44414532D01*
X66039998Y-44414532D01*
X65813313Y-44434364D01*
X65813302Y-44434366D01*
X65593511Y-44493258D01*
X65593502Y-44493261D01*
X65387267Y-44589431D01*
X65387265Y-44589432D01*
X65200858Y-44719954D01*
X65039954Y-44880858D01*
X64909432Y-45067265D01*
X64909431Y-45067267D01*
X64882382Y-45125275D01*
X64836209Y-45177714D01*
X64769016Y-45196866D01*
X64702135Y-45176650D01*
X64657618Y-45125275D01*
X64630570Y-45067271D01*
X64630568Y-45067266D01*
X64500047Y-44880861D01*
X64500045Y-44880858D01*
X64339141Y-44719954D01*
X64152734Y-44589432D01*
X64152732Y-44589431D01*
X63946497Y-44493261D01*
X63946488Y-44493258D01*
X63726697Y-44434366D01*
X63726693Y-44434365D01*
X63726692Y-44434365D01*
X63726691Y-44434364D01*
X63726686Y-44434364D01*
X63500002Y-44414532D01*
X63499998Y-44414532D01*
X63273313Y-44434364D01*
X63273302Y-44434366D01*
X63053511Y-44493258D01*
X63053502Y-44493261D01*
X62847267Y-44589431D01*
X62847265Y-44589432D01*
X62660858Y-44719954D01*
X62499954Y-44880858D01*
X62369432Y-45067265D01*
X62369431Y-45067267D01*
X62342382Y-45125275D01*
X62296209Y-45177714D01*
X62229016Y-45196866D01*
X62162135Y-45176650D01*
X62117618Y-45125275D01*
X62090570Y-45067271D01*
X62090568Y-45067266D01*
X61960047Y-44880861D01*
X61960045Y-44880858D01*
X61799141Y-44719954D01*
X61612734Y-44589432D01*
X61612732Y-44589431D01*
X61406497Y-44493261D01*
X61406488Y-44493258D01*
X61186697Y-44434366D01*
X61186693Y-44434365D01*
X61186692Y-44434365D01*
X61186691Y-44434364D01*
X61186686Y-44434364D01*
X60960002Y-44414532D01*
X60959998Y-44414532D01*
X60733313Y-44434364D01*
X60733302Y-44434366D01*
X60513511Y-44493258D01*
X60513502Y-44493261D01*
X60307267Y-44589431D01*
X60307265Y-44589432D01*
X60120858Y-44719954D01*
X59959954Y-44880858D01*
X59829432Y-45067265D01*
X59829431Y-45067267D01*
X59802382Y-45125275D01*
X59756209Y-45177714D01*
X59689016Y-45196866D01*
X59622135Y-45176650D01*
X59577618Y-45125275D01*
X59550570Y-45067271D01*
X59550568Y-45067266D01*
X59420047Y-44880861D01*
X59420045Y-44880858D01*
X59259141Y-44719954D01*
X59072734Y-44589432D01*
X59072732Y-44589431D01*
X58866497Y-44493261D01*
X58866488Y-44493258D01*
X58646697Y-44434366D01*
X58646693Y-44434365D01*
X58646692Y-44434365D01*
X58646691Y-44434364D01*
X58646686Y-44434364D01*
X58420002Y-44414532D01*
X58419998Y-44414532D01*
X58193313Y-44434364D01*
X58193302Y-44434366D01*
X57973511Y-44493258D01*
X57973502Y-44493261D01*
X57767267Y-44589431D01*
X57767265Y-44589432D01*
X57580858Y-44719954D01*
X57419954Y-44880858D01*
X57289432Y-45067265D01*
X57289431Y-45067267D01*
X57262382Y-45125275D01*
X57216209Y-45177714D01*
X57149016Y-45196866D01*
X57082135Y-45176650D01*
X57037618Y-45125275D01*
X57010570Y-45067271D01*
X57010568Y-45067266D01*
X56880047Y-44880861D01*
X56880045Y-44880858D01*
X56719141Y-44719954D01*
X56532734Y-44589432D01*
X56532732Y-44589431D01*
X56326497Y-44493261D01*
X56326488Y-44493258D01*
X56106697Y-44434366D01*
X56106693Y-44434365D01*
X56106692Y-44434365D01*
X56106691Y-44434364D01*
X56106686Y-44434364D01*
X55880002Y-44414532D01*
X55879998Y-44414532D01*
X55653313Y-44434364D01*
X55653302Y-44434366D01*
X55433511Y-44493258D01*
X55433502Y-44493261D01*
X55227267Y-44589431D01*
X55227265Y-44589432D01*
X55040858Y-44719954D01*
X54879954Y-44880858D01*
X54749432Y-45067265D01*
X54749431Y-45067267D01*
X54722382Y-45125275D01*
X54676209Y-45177714D01*
X54609016Y-45196866D01*
X54542135Y-45176650D01*
X54497618Y-45125275D01*
X54470570Y-45067271D01*
X54470568Y-45067266D01*
X54340047Y-44880861D01*
X54340045Y-44880858D01*
X54179141Y-44719954D01*
X53992734Y-44589432D01*
X53992732Y-44589431D01*
X53786497Y-44493261D01*
X53786488Y-44493258D01*
X53566697Y-44434366D01*
X53566693Y-44434365D01*
X53566692Y-44434365D01*
X53566691Y-44434364D01*
X53566686Y-44434364D01*
X53340002Y-44414532D01*
X53339998Y-44414532D01*
X53113313Y-44434364D01*
X53113302Y-44434366D01*
X52893511Y-44493258D01*
X52893502Y-44493261D01*
X52687267Y-44589431D01*
X52687265Y-44589432D01*
X52500858Y-44719954D01*
X52339954Y-44880858D01*
X52209432Y-45067265D01*
X52209431Y-45067267D01*
X52182382Y-45125275D01*
X52136209Y-45177714D01*
X52069016Y-45196866D01*
X52002135Y-45176650D01*
X51957618Y-45125275D01*
X51930570Y-45067271D01*
X51930568Y-45067266D01*
X51800047Y-44880861D01*
X51800045Y-44880858D01*
X51639141Y-44719954D01*
X51452734Y-44589432D01*
X51452732Y-44589431D01*
X51246497Y-44493261D01*
X51246488Y-44493258D01*
X51026697Y-44434366D01*
X51026693Y-44434365D01*
X51026692Y-44434365D01*
X51026691Y-44434364D01*
X51026686Y-44434364D01*
X50800002Y-44414532D01*
X50799998Y-44414532D01*
X50573313Y-44434364D01*
X50573302Y-44434366D01*
X50353511Y-44493258D01*
X50353502Y-44493261D01*
X50147267Y-44589431D01*
X50147265Y-44589432D01*
X49960858Y-44719954D01*
X49799954Y-44880858D01*
X49669432Y-45067265D01*
X49669431Y-45067267D01*
X49642382Y-45125275D01*
X49596209Y-45177714D01*
X49529016Y-45196866D01*
X49462135Y-45176650D01*
X49417618Y-45125275D01*
X49390570Y-45067271D01*
X49390568Y-45067266D01*
X49260047Y-44880861D01*
X49260045Y-44880858D01*
X49099141Y-44719954D01*
X48912734Y-44589432D01*
X48912732Y-44589431D01*
X48706497Y-44493261D01*
X48706488Y-44493258D01*
X48486697Y-44434366D01*
X48486693Y-44434365D01*
X48486692Y-44434365D01*
X48486691Y-44434364D01*
X48486686Y-44434364D01*
X48260002Y-44414532D01*
X48259998Y-44414532D01*
X48033313Y-44434364D01*
X48033302Y-44434366D01*
X47813511Y-44493258D01*
X47813502Y-44493261D01*
X47607267Y-44589431D01*
X47607265Y-44589432D01*
X47420858Y-44719954D01*
X47259954Y-44880858D01*
X47129432Y-45067265D01*
X47129431Y-45067267D01*
X47102382Y-45125275D01*
X47056209Y-45177714D01*
X46989016Y-45196866D01*
X46922135Y-45176650D01*
X46877618Y-45125275D01*
X46850570Y-45067271D01*
X46850568Y-45067266D01*
X46720047Y-44880861D01*
X46720045Y-44880858D01*
X46559141Y-44719954D01*
X46372734Y-44589432D01*
X46372732Y-44589431D01*
X46166497Y-44493261D01*
X46166488Y-44493258D01*
X45946697Y-44434366D01*
X45946693Y-44434365D01*
X45946692Y-44434365D01*
X45946691Y-44434364D01*
X45946686Y-44434364D01*
X45720002Y-44414532D01*
X45719998Y-44414532D01*
X45493313Y-44434364D01*
X45493302Y-44434366D01*
X45273511Y-44493258D01*
X45273502Y-44493261D01*
X45067267Y-44589431D01*
X45067265Y-44589432D01*
X44880858Y-44719954D01*
X44719954Y-44880858D01*
X44589432Y-45067265D01*
X44589431Y-45067267D01*
X44562382Y-45125275D01*
X44516209Y-45177714D01*
X44449016Y-45196866D01*
X44382135Y-45176650D01*
X44337618Y-45125275D01*
X44310570Y-45067271D01*
X44310568Y-45067266D01*
X44180047Y-44880861D01*
X44180045Y-44880858D01*
X44019141Y-44719954D01*
X43832734Y-44589432D01*
X43832732Y-44589431D01*
X43626497Y-44493261D01*
X43626488Y-44493258D01*
X43406697Y-44434366D01*
X43406693Y-44434365D01*
X43406692Y-44434365D01*
X43406691Y-44434364D01*
X43406686Y-44434364D01*
X43180002Y-44414532D01*
X43179998Y-44414532D01*
X42953313Y-44434364D01*
X42953302Y-44434366D01*
X42733511Y-44493258D01*
X42733502Y-44493261D01*
X42527267Y-44589431D01*
X42527265Y-44589432D01*
X42340858Y-44719954D01*
X42179954Y-44880858D01*
X42049432Y-45067265D01*
X42049431Y-45067267D01*
X42022382Y-45125275D01*
X41976209Y-45177714D01*
X41909016Y-45196866D01*
X41842135Y-45176650D01*
X41797618Y-45125275D01*
X41770570Y-45067271D01*
X41770568Y-45067266D01*
X41640047Y-44880861D01*
X41640045Y-44880858D01*
X41479141Y-44719954D01*
X41292734Y-44589432D01*
X41292732Y-44589431D01*
X41086497Y-44493261D01*
X41086488Y-44493258D01*
X40866697Y-44434366D01*
X40866693Y-44434365D01*
X40866692Y-44434365D01*
X40866691Y-44434364D01*
X40866686Y-44434364D01*
X40640002Y-44414532D01*
X40639998Y-44414532D01*
X40413313Y-44434364D01*
X40413302Y-44434366D01*
X40193511Y-44493258D01*
X40193502Y-44493261D01*
X39987267Y-44589431D01*
X39987265Y-44589432D01*
X39800858Y-44719954D01*
X39639954Y-44880858D01*
X39509432Y-45067265D01*
X39509431Y-45067267D01*
X39482382Y-45125275D01*
X39436209Y-45177714D01*
X39369016Y-45196866D01*
X39302135Y-45176650D01*
X39257618Y-45125275D01*
X39230570Y-45067271D01*
X39230568Y-45067266D01*
X39100047Y-44880861D01*
X39100045Y-44880858D01*
X38939141Y-44719954D01*
X38752734Y-44589432D01*
X38752732Y-44589431D01*
X38546497Y-44493261D01*
X38546488Y-44493258D01*
X38326697Y-44434366D01*
X38326693Y-44434365D01*
X38326692Y-44434365D01*
X38326691Y-44434364D01*
X38326686Y-44434364D01*
X38100002Y-44414532D01*
X38099998Y-44414532D01*
X37873313Y-44434364D01*
X37873302Y-44434366D01*
X37653511Y-44493258D01*
X37653502Y-44493261D01*
X37447267Y-44589431D01*
X37447265Y-44589432D01*
X37260858Y-44719954D01*
X37099954Y-44880858D01*
X36969432Y-45067265D01*
X36969431Y-45067267D01*
X36942382Y-45125275D01*
X36896209Y-45177714D01*
X36829016Y-45196866D01*
X36762135Y-45176650D01*
X36717618Y-45125275D01*
X36690570Y-45067271D01*
X36690568Y-45067266D01*
X36560047Y-44880861D01*
X36560045Y-44880858D01*
X36399141Y-44719954D01*
X36212734Y-44589432D01*
X36212732Y-44589431D01*
X36006497Y-44493261D01*
X36006488Y-44493258D01*
X35786697Y-44434366D01*
X35786693Y-44434365D01*
X35786692Y-44434365D01*
X35786691Y-44434364D01*
X35786686Y-44434364D01*
X35560002Y-44414532D01*
X35559997Y-44414532D01*
X35515896Y-44418390D01*
X35447397Y-44404623D01*
X35397214Y-44356007D01*
X35381281Y-44287979D01*
X35404657Y-44222135D01*
X35417409Y-44207181D01*
X35556854Y-44067737D01*
X35782771Y-43841819D01*
X35844095Y-43808334D01*
X35870453Y-43805500D01*
X102559548Y-43805500D01*
X102626587Y-43825185D01*
X102647229Y-43841819D01*
X104998611Y-46193201D01*
X105027738Y-46239267D01*
X105145056Y-46568562D01*
X105441766Y-47401387D01*
X105449346Y-47422661D01*
X105450829Y-47427421D01*
X105453258Y-47436488D01*
X105453261Y-47436496D01*
X105453263Y-47436500D01*
X105456324Y-47443067D01*
X105458533Y-47448452D01*
X105461648Y-47457193D01*
X105463784Y-47462965D01*
X105465126Y-47466456D01*
X105493038Y-47526869D01*
X105496352Y-47532433D01*
X105496164Y-47532544D01*
X105504729Y-47546869D01*
X105549430Y-47642731D01*
X105679954Y-47829141D01*
X105840858Y-47990045D01*
X105840861Y-47990047D01*
X106027266Y-48120568D01*
X106233504Y-48216739D01*
X106453308Y-48275635D01*
X106615230Y-48289801D01*
X106679998Y-48295468D01*
X106680000Y-48295468D01*
X106680002Y-48295468D01*
X106736673Y-48290509D01*
X106906692Y-48275635D01*
X107126496Y-48216739D01*
X107332734Y-48120568D01*
X107519139Y-47990047D01*
X107680047Y-47829139D01*
X107810568Y-47642734D01*
X107906739Y-47436496D01*
X107965635Y-47216692D01*
X107985468Y-46990000D01*
X107981952Y-46949817D01*
X107965635Y-46763313D01*
X107965635Y-46763308D01*
X107906739Y-46543504D01*
X107810568Y-46337266D01*
X107690869Y-46166317D01*
X107680045Y-46150858D01*
X107519141Y-45989954D01*
X107332731Y-45859430D01*
X107161005Y-45779352D01*
X107158302Y-45778011D01*
X107144213Y-45770586D01*
X107138453Y-45768534D01*
X107133063Y-45766323D01*
X107126494Y-45763260D01*
X107117422Y-45760829D01*
X107112659Y-45759345D01*
X105929267Y-45337738D01*
X105883201Y-45308611D01*
X103370803Y-42796212D01*
X103360980Y-42783950D01*
X103360759Y-42784134D01*
X103355786Y-42778122D01*
X103306066Y-42731432D01*
X103304666Y-42730075D01*
X103284476Y-42709884D01*
X103278986Y-42705625D01*
X103274561Y-42701847D01*
X103240582Y-42669938D01*
X103240580Y-42669936D01*
X103240577Y-42669935D01*
X103223029Y-42660288D01*
X103206763Y-42649604D01*
X103190933Y-42637325D01*
X103148168Y-42618818D01*
X103142922Y-42616248D01*
X103102093Y-42593803D01*
X103102092Y-42593802D01*
X103082693Y-42588822D01*
X103064281Y-42582518D01*
X103045898Y-42574562D01*
X103045892Y-42574560D01*
X102999874Y-42567272D01*
X102994152Y-42566087D01*
X102949021Y-42554500D01*
X102949019Y-42554500D01*
X102928984Y-42554500D01*
X102909586Y-42552973D01*
X102902162Y-42551797D01*
X102889805Y-42549840D01*
X102889804Y-42549840D01*
X102843416Y-42554225D01*
X102837578Y-42554500D01*
X39429049Y-42554500D01*
X39362010Y-42534815D01*
X39316255Y-42482011D01*
X39306311Y-42412853D01*
X39316667Y-42378095D01*
X39326739Y-42356496D01*
X39385635Y-42136692D01*
X39405468Y-41910000D01*
X39385635Y-41683308D01*
X39326739Y-41463504D01*
X39230568Y-41257266D01*
X39100047Y-41070861D01*
X39100045Y-41070858D01*
X38939141Y-40909954D01*
X38752734Y-40779432D01*
X38752732Y-40779431D01*
X38546497Y-40683261D01*
X38546488Y-40683258D01*
X38326697Y-40624366D01*
X38326693Y-40624365D01*
X38326692Y-40624365D01*
X38326691Y-40624364D01*
X38326686Y-40624364D01*
X38100002Y-40604532D01*
X38099998Y-40604532D01*
X37873313Y-40624364D01*
X37873302Y-40624366D01*
X37653511Y-40683258D01*
X37653502Y-40683261D01*
X37447267Y-40779431D01*
X37447265Y-40779432D01*
X37260858Y-40909954D01*
X37099954Y-41070858D01*
X36969432Y-41257265D01*
X36969431Y-41257267D01*
X36873261Y-41463502D01*
X36873258Y-41463511D01*
X36814366Y-41683302D01*
X36814364Y-41683313D01*
X36794532Y-41909998D01*
X36794532Y-41910001D01*
X36814364Y-42136686D01*
X36814366Y-42136697D01*
X36873258Y-42356488D01*
X36873260Y-42356492D01*
X36873261Y-42356496D01*
X36883333Y-42378095D01*
X36893825Y-42447173D01*
X36865305Y-42510957D01*
X36806829Y-42549196D01*
X36770951Y-42554500D01*
X35642737Y-42554500D01*
X35627120Y-42552776D01*
X35627093Y-42553062D01*
X35619331Y-42552327D01*
X35551171Y-42554469D01*
X35549224Y-42554500D01*
X35520650Y-42554500D01*
X35519929Y-42554590D01*
X35513757Y-42555369D01*
X35507945Y-42555826D01*
X35461372Y-42557290D01*
X35461369Y-42557291D01*
X35442126Y-42562881D01*
X35423083Y-42566825D01*
X35403204Y-42569336D01*
X35403203Y-42569337D01*
X35359878Y-42586490D01*
X35354352Y-42588382D01*
X35309608Y-42601383D01*
X35309604Y-42601385D01*
X35292365Y-42611580D01*
X35274898Y-42620137D01*
X35256269Y-42627512D01*
X35256267Y-42627513D01*
X35218564Y-42654906D01*
X35213682Y-42658112D01*
X35173580Y-42681828D01*
X35159408Y-42696000D01*
X35144623Y-42708628D01*
X35128412Y-42720407D01*
X35098709Y-42756310D01*
X35094777Y-42760631D01*
X33816797Y-44038610D01*
X33770731Y-44067737D01*
X32587325Y-44489349D01*
X32582567Y-44490831D01*
X32573511Y-44493257D01*
X32573503Y-44493260D01*
X32566946Y-44496318D01*
X32561563Y-44498526D01*
X32552693Y-44501687D01*
X32546773Y-44503882D01*
X32543228Y-44505247D01*
X32483117Y-44533044D01*
X32477574Y-44536347D01*
X32477461Y-44536158D01*
X32463133Y-44544726D01*
X32367271Y-44589428D01*
X32367264Y-44589432D01*
X32180858Y-44719954D01*
X32019954Y-44880858D01*
X31889432Y-45067265D01*
X31889431Y-45067267D01*
X31793261Y-45273502D01*
X31793258Y-45273511D01*
X31734366Y-45493302D01*
X31734364Y-45493313D01*
X31714532Y-45719998D01*
X31714532Y-45720001D01*
X25400500Y-45720001D01*
X25400500Y-41910001D01*
X26634532Y-41910001D01*
X26654364Y-42136686D01*
X26654366Y-42136697D01*
X26713258Y-42356488D01*
X26713261Y-42356497D01*
X26809431Y-42562732D01*
X26809432Y-42562734D01*
X26939954Y-42749141D01*
X27100858Y-42910045D01*
X27100861Y-42910047D01*
X27287266Y-43040568D01*
X27493504Y-43136739D01*
X27713308Y-43195635D01*
X27875230Y-43209801D01*
X27939998Y-43215468D01*
X27940000Y-43215468D01*
X27940002Y-43215468D01*
X27996673Y-43210509D01*
X28166692Y-43195635D01*
X28386496Y-43136739D01*
X28592734Y-43040568D01*
X28779139Y-42910047D01*
X28940047Y-42749139D01*
X29070568Y-42562734D01*
X29166739Y-42356496D01*
X29225635Y-42136692D01*
X29245468Y-41910000D01*
X29225635Y-41683308D01*
X29166739Y-41463504D01*
X29070568Y-41257266D01*
X28940047Y-41070861D01*
X28940045Y-41070858D01*
X28779141Y-40909954D01*
X28592734Y-40779432D01*
X28592732Y-40779431D01*
X28386497Y-40683261D01*
X28386488Y-40683258D01*
X28166697Y-40624366D01*
X28166693Y-40624365D01*
X28166692Y-40624365D01*
X28166691Y-40624364D01*
X28166686Y-40624364D01*
X27940002Y-40604532D01*
X27939998Y-40604532D01*
X27713313Y-40624364D01*
X27713302Y-40624366D01*
X27493511Y-40683258D01*
X27493502Y-40683261D01*
X27287267Y-40779431D01*
X27287265Y-40779432D01*
X27100858Y-40909954D01*
X26939954Y-41070858D01*
X26809432Y-41257265D01*
X26809431Y-41257267D01*
X26713261Y-41463502D01*
X26713258Y-41463511D01*
X26654366Y-41683302D01*
X26654364Y-41683313D01*
X26634532Y-41909998D01*
X26634532Y-41910001D01*
X25400500Y-41910001D01*
X25400500Y-35684500D01*
X25420185Y-35617461D01*
X25472989Y-35571706D01*
X25524500Y-35560500D01*
X100752403Y-35560500D01*
X100819442Y-35580185D01*
G37*
%TD.AperFunction*%
%TD*%
%TA.AperFunction,Conductor*%
%TO.N,A13*%
G36*
X76936698Y-45418554D02*
G01*
X76943023Y-45424893D01*
X76943227Y-45425426D01*
X77311495Y-46459104D01*
X77417275Y-46756012D01*
X77416824Y-46764956D01*
X77414527Y-46768212D01*
X77248212Y-46934527D01*
X77239939Y-46937954D01*
X77236013Y-46937275D01*
X75905430Y-46463228D01*
X75898788Y-46457225D01*
X75898337Y-46448281D01*
X75898536Y-46447760D01*
X76197438Y-45723785D01*
X76203762Y-45717448D01*
X76203764Y-45717446D01*
X76927744Y-45418543D01*
X76936698Y-45418554D01*
G37*
%TD.AperFunction*%
%TD*%
%TA.AperFunction,Conductor*%
%TO.N,D1*%
G36*
X75093251Y-79991968D02*
G01*
X75575027Y-80161102D01*
X76513629Y-80490611D01*
X76520300Y-80496584D01*
X76520792Y-80505526D01*
X76520567Y-80506116D01*
X76202562Y-81276214D01*
X76196237Y-81282553D01*
X76196214Y-81282562D01*
X75426116Y-81600567D01*
X75417161Y-81600558D01*
X75410836Y-81594219D01*
X75410611Y-81593629D01*
X75300755Y-81280707D01*
X75024818Y-80494702D01*
X74911968Y-80173251D01*
X74912460Y-80164309D01*
X74914731Y-80161105D01*
X75081103Y-79994733D01*
X75089375Y-79991307D01*
X75093251Y-79991968D01*
G37*
%TD.AperFunction*%
%TD*%
%TA.AperFunction,Conductor*%
%TO.N,~{NMI}*%
G36*
X103412252Y-59388541D02*
G01*
X103428939Y-59395431D01*
X104136212Y-59687437D01*
X104142551Y-59693762D01*
X104142562Y-59693787D01*
X104441456Y-60417743D01*
X104441445Y-60426698D01*
X104435106Y-60433023D01*
X104434568Y-60433229D01*
X103103987Y-60907275D01*
X103095043Y-60906824D01*
X103091787Y-60904527D01*
X102925472Y-60738212D01*
X102922045Y-60729939D01*
X102922722Y-60726018D01*
X103396771Y-59395428D01*
X103402774Y-59388788D01*
X103411718Y-59388337D01*
X103412252Y-59388541D01*
G37*
%TD.AperFunction*%
%TD*%
%TA.AperFunction,Conductor*%
%TO.N,D7*%
G36*
X75144109Y-59203719D02*
G01*
X75150427Y-59210066D01*
X75150551Y-59218655D01*
X74912859Y-59847437D01*
X74906728Y-59853964D01*
X74901915Y-59855000D01*
X74668085Y-59855000D01*
X74659812Y-59851573D01*
X74657141Y-59847437D01*
X74419448Y-59218655D01*
X74419728Y-59209705D01*
X74425889Y-59203719D01*
X74780500Y-59055875D01*
X74789449Y-59055855D01*
X75144109Y-59203719D01*
G37*
%TD.AperFunction*%
%TD*%
%TA.AperFunction,Conductor*%
%TO.N,~{NMI}*%
G36*
X46764956Y-59743175D02*
G01*
X46768212Y-59745472D01*
X46934527Y-59911787D01*
X46937954Y-59920060D01*
X46937275Y-59923987D01*
X46463229Y-61254568D01*
X46457225Y-61261211D01*
X46448281Y-61261662D01*
X46447743Y-61261456D01*
X45723787Y-60962562D01*
X45717448Y-60956237D01*
X45717437Y-60956212D01*
X45418543Y-60232256D01*
X45418554Y-60223301D01*
X45424893Y-60216976D01*
X45425389Y-60216785D01*
X46756014Y-59742724D01*
X46764956Y-59743175D01*
G37*
%TD.AperFunction*%
%TD*%
%TA.AperFunction,Conductor*%
%TO.N,~{RESET}*%
G36*
X34064956Y-44503175D02*
G01*
X34068212Y-44505472D01*
X34234527Y-44671787D01*
X34237954Y-44680060D01*
X34237275Y-44683987D01*
X33763229Y-46014568D01*
X33757225Y-46021211D01*
X33748281Y-46021662D01*
X33747743Y-46021456D01*
X33023787Y-45722562D01*
X33017448Y-45716237D01*
X33017437Y-45716212D01*
X32718543Y-44992256D01*
X32718554Y-44983301D01*
X32724893Y-44976976D01*
X32725389Y-44976785D01*
X34056014Y-44502724D01*
X34064956Y-44503175D01*
G37*
%TD.AperFunction*%
%TD*%
%TA.AperFunction,Conductor*%
%TO.N,~{IRQ}*%
G36*
X40820696Y-51710890D02*
G01*
X41432437Y-51942141D01*
X41438964Y-51948272D01*
X41440000Y-51953085D01*
X41440000Y-52186914D01*
X41436573Y-52195187D01*
X41432437Y-52197858D01*
X40803655Y-52435551D01*
X40794705Y-52435271D01*
X40788719Y-52429109D01*
X40692306Y-52197858D01*
X40640875Y-52074499D01*
X40640855Y-52065550D01*
X40788719Y-51710889D01*
X40795066Y-51704572D01*
X40803654Y-51704448D01*
X40820696Y-51710890D01*
G37*
%TD.AperFunction*%
%TD*%
%TA.AperFunction,Conductor*%
%TO.N,D6*%
G36*
X72604109Y-59203719D02*
G01*
X72610427Y-59210066D01*
X72610551Y-59218655D01*
X72372859Y-59847437D01*
X72366728Y-59853964D01*
X72361915Y-59855000D01*
X72128085Y-59855000D01*
X72119812Y-59851573D01*
X72117141Y-59847437D01*
X71879448Y-59218655D01*
X71879728Y-59209705D01*
X71885889Y-59203719D01*
X72240500Y-59055875D01*
X72249449Y-59055855D01*
X72604109Y-59203719D01*
G37*
%TD.AperFunction*%
%TD*%
%TA.AperFunction,Conductor*%
%TO.N,D4*%
G36*
X82713251Y-79991968D02*
G01*
X83195027Y-80161102D01*
X84133629Y-80490611D01*
X84140300Y-80496584D01*
X84140792Y-80505526D01*
X84140567Y-80506116D01*
X83822562Y-81276214D01*
X83816237Y-81282553D01*
X83816214Y-81282562D01*
X83046116Y-81600567D01*
X83037161Y-81600558D01*
X83030836Y-81594219D01*
X83030611Y-81593629D01*
X82920755Y-81280707D01*
X82644818Y-80494702D01*
X82531968Y-80173251D01*
X82532460Y-80164309D01*
X82534731Y-80161105D01*
X82701103Y-79994733D01*
X82709375Y-79991307D01*
X82713251Y-79991968D01*
G37*
%TD.AperFunction*%
%TD*%
%TA.AperFunction,Conductor*%
%TO.N,RDY*%
G36*
X36604956Y-59743175D02*
G01*
X36608212Y-59745472D01*
X36774527Y-59911787D01*
X36777954Y-59920060D01*
X36777275Y-59923987D01*
X36303229Y-61254568D01*
X36297225Y-61261211D01*
X36288281Y-61261662D01*
X36287743Y-61261456D01*
X35563787Y-60962562D01*
X35557448Y-60956237D01*
X35557437Y-60956212D01*
X35258543Y-60232256D01*
X35258554Y-60223301D01*
X35264893Y-60216976D01*
X35265389Y-60216785D01*
X36596014Y-59742724D01*
X36604956Y-59743175D01*
G37*
%TD.AperFunction*%
%TD*%
%TA.AperFunction,Conductor*%
%TO.N,D2*%
G36*
X77633251Y-79991968D02*
G01*
X78115027Y-80161102D01*
X79053629Y-80490611D01*
X79060300Y-80496584D01*
X79060792Y-80505526D01*
X79060567Y-80506116D01*
X78742562Y-81276214D01*
X78736237Y-81282553D01*
X78736214Y-81282562D01*
X77966116Y-81600567D01*
X77957161Y-81600558D01*
X77950836Y-81594219D01*
X77950611Y-81593629D01*
X77840755Y-81280707D01*
X77564818Y-80494702D01*
X77451968Y-80173251D01*
X77452460Y-80164309D01*
X77454731Y-80161105D01*
X77621103Y-79994733D01*
X77629375Y-79991307D01*
X77633251Y-79991968D01*
G37*
%TD.AperFunction*%
%TD*%
%TA.AperFunction,Conductor*%
%TO.N,D5*%
G36*
X70064109Y-59203719D02*
G01*
X70070427Y-59210066D01*
X70070551Y-59218655D01*
X69832859Y-59847437D01*
X69826728Y-59853964D01*
X69821915Y-59855000D01*
X69588085Y-59855000D01*
X69579812Y-59851573D01*
X69577141Y-59847437D01*
X69339448Y-59218655D01*
X69339728Y-59209705D01*
X69345889Y-59203719D01*
X69700500Y-59055875D01*
X69709449Y-59055855D01*
X70064109Y-59203719D01*
G37*
%TD.AperFunction*%
%TD*%
%TA.AperFunction,Conductor*%
%TO.N,D6*%
G36*
X87793251Y-79991968D02*
G01*
X88275027Y-80161102D01*
X89213629Y-80490611D01*
X89220300Y-80496584D01*
X89220792Y-80505526D01*
X89220567Y-80506116D01*
X88902562Y-81276214D01*
X88896237Y-81282553D01*
X88896214Y-81282562D01*
X88126116Y-81600567D01*
X88117161Y-81600558D01*
X88110836Y-81594219D01*
X88110611Y-81593629D01*
X88000755Y-81280707D01*
X87724818Y-80494702D01*
X87611968Y-80173251D01*
X87612460Y-80164309D01*
X87614731Y-80161105D01*
X87781103Y-79994733D01*
X87789375Y-79991307D01*
X87793251Y-79991968D01*
G37*
%TD.AperFunction*%
%TD*%
M02*
