%TF.GenerationSoftware,KiCad,Pcbnew,7.0.5*%
%TF.CreationDate,2023-06-09T17:19:17+02:00*%
%TF.ProjectId,Sorbus-65C02,536f7262-7573-42d3-9635-4330322e6b69,rev?*%
%TF.SameCoordinates,Original*%
%TF.FileFunction,Copper,L1,Top*%
%TF.FilePolarity,Positive*%
%FSLAX46Y46*%
G04 Gerber Fmt 4.6, Leading zero omitted, Abs format (unit mm)*
G04 Created by KiCad (PCBNEW 7.0.5) date 2023-06-09 17:19:17*
%MOMM*%
%LPD*%
G01*
G04 APERTURE LIST*
%TA.AperFunction,ComponentPad*%
%ADD10C,1.600000*%
%TD*%
%TA.AperFunction,ComponentPad*%
%ADD11O,1.600000X1.600000*%
%TD*%
%TA.AperFunction,ComponentPad*%
%ADD12R,1.600000X1.600000*%
%TD*%
%TA.AperFunction,ComponentPad*%
%ADD13R,1.700000X1.700000*%
%TD*%
%TA.AperFunction,ComponentPad*%
%ADD14O,1.700000X1.700000*%
%TD*%
%TA.AperFunction,ViaPad*%
%ADD15C,0.800000*%
%TD*%
%TA.AperFunction,Conductor*%
%ADD16C,0.500000*%
%TD*%
%TA.AperFunction,Conductor*%
%ADD17C,0.250000*%
%TD*%
G04 APERTURE END LIST*
D10*
%TO.P,R5,1*%
%TO.N,VCC*%
X104140000Y-49530000D03*
D11*
%TO.P,R5,2*%
%TO.N,~{NMI}*%
X104140000Y-59690000D03*
%TD*%
D10*
%TO.P,R1,1*%
%TO.N,VCC*%
X27940000Y-66040000D03*
D11*
%TO.P,R1,2*%
%TO.N,Net-(U1-\u03D51)*%
X38100000Y-66040000D03*
%TD*%
D10*
%TO.P,R2,1*%
%TO.N,VCC*%
X27940000Y-41910000D03*
D11*
%TO.P,R2,2*%
%TO.N,Net-(U1-~{SO})*%
X38100000Y-41910000D03*
%TD*%
D12*
%TO.P,U1,1,~{VP}*%
%TO.N,unconnected-(U1-~{VP}-Pad1)*%
X33020000Y-60960000D03*
D11*
%TO.P,U1,2,RDY*%
%TO.N,RDY*%
X35560000Y-60960000D03*
%TO.P,U1,3,\u03D51*%
%TO.N,Net-(U1-\u03D51)*%
X38100000Y-60960000D03*
%TO.P,U1,4,~{IRQ}*%
%TO.N,~{IRQ}*%
X40640000Y-60960000D03*
%TO.P,U1,5,~{ML}*%
%TO.N,unconnected-(U1-~{ML}-Pad5)*%
X43180000Y-60960000D03*
%TO.P,U1,6,~{NMI}*%
%TO.N,~{NMI}*%
X45720000Y-60960000D03*
%TO.P,U1,7,SYNC*%
%TO.N,unconnected-(U1-SYNC-Pad7)*%
X48260000Y-60960000D03*
%TO.P,U1,8,VDD*%
%TO.N,VCC*%
X50800000Y-60960000D03*
%TO.P,U1,9,A0*%
%TO.N,A0*%
X53340000Y-60960000D03*
%TO.P,U1,10,A1*%
%TO.N,A1*%
X55880000Y-60960000D03*
%TO.P,U1,11,A2*%
%TO.N,A2*%
X58420000Y-60960000D03*
%TO.P,U1,12,A3*%
%TO.N,A3*%
X60960000Y-60960000D03*
%TO.P,U1,13,A4*%
%TO.N,A4*%
X63500000Y-60960000D03*
%TO.P,U1,14,A5*%
%TO.N,A5*%
X66040000Y-60960000D03*
%TO.P,U1,15,A6*%
%TO.N,A6*%
X68580000Y-60960000D03*
%TO.P,U1,16,A7*%
%TO.N,A7*%
X71120000Y-60960000D03*
%TO.P,U1,17,A8*%
%TO.N,A8*%
X73660000Y-60960000D03*
%TO.P,U1,18,A9*%
%TO.N,A9*%
X76200000Y-60960000D03*
%TO.P,U1,19,A10*%
%TO.N,A10*%
X78740000Y-60960000D03*
%TO.P,U1,20,A11*%
%TO.N,A11*%
X81280000Y-60960000D03*
%TO.P,U1,21,VSS*%
%TO.N,GND*%
X81280000Y-45720000D03*
%TO.P,U1,22,A12*%
%TO.N,A12*%
X78740000Y-45720000D03*
%TO.P,U1,23,A13*%
%TO.N,A13*%
X76200000Y-45720000D03*
%TO.P,U1,24,A14*%
%TO.N,A14*%
X73660000Y-45720000D03*
%TO.P,U1,25,A15*%
%TO.N,A15*%
X71120000Y-45720000D03*
%TO.P,U1,26,D7*%
%TO.N,D7*%
X68580000Y-45720000D03*
%TO.P,U1,27,D6*%
%TO.N,D6*%
X66040000Y-45720000D03*
%TO.P,U1,28,D5*%
%TO.N,D5*%
X63500000Y-45720000D03*
%TO.P,U1,29,D4*%
%TO.N,D4*%
X60960000Y-45720000D03*
%TO.P,U1,30,D3*%
%TO.N,D3*%
X58420000Y-45720000D03*
%TO.P,U1,31,D2*%
%TO.N,D2*%
X55880000Y-45720000D03*
%TO.P,U1,32,D1*%
%TO.N,D1*%
X53340000Y-45720000D03*
%TO.P,U1,33,D0*%
%TO.N,D0*%
X50800000Y-45720000D03*
%TO.P,U1,34,R/~{W}*%
%TO.N,R{slash}~{W}*%
X48260000Y-45720000D03*
%TO.P,U1,35,nc*%
%TO.N,unconnected-(U1-nc-Pad35)*%
X45720000Y-45720000D03*
%TO.P,U1,36,BE*%
%TO.N,Net-(U1-BE)*%
X43180000Y-45720000D03*
%TO.P,U1,37,\u03D50*%
%TO.N,CLK*%
X40640000Y-45720000D03*
%TO.P,U1,38,~{SO}*%
%TO.N,Net-(U1-~{SO})*%
X38100000Y-45720000D03*
%TO.P,U1,39,\u03D52*%
%TO.N,unconnected-(U1-\u03D52-Pad39)*%
X35560000Y-45720000D03*
%TO.P,U1,40,~{RES}*%
%TO.N,~{RESET}*%
X33020000Y-45720000D03*
%TD*%
D10*
%TO.P,R7,1*%
%TO.N,VCC*%
X99060000Y-49530000D03*
D11*
%TO.P,R7,2*%
%TO.N,RDY*%
X99060000Y-59690000D03*
%TD*%
D10*
%TO.P,R6,1*%
%TO.N,VCC*%
X101600000Y-36830000D03*
D11*
%TO.P,R6,2*%
%TO.N,~{IRQ}*%
X101600000Y-46990000D03*
%TD*%
D10*
%TO.P,R4,1*%
%TO.N,VCC*%
X106680000Y-36830000D03*
D11*
%TO.P,R4,2*%
%TO.N,~{RESET}*%
X106680000Y-46990000D03*
%TD*%
D10*
%TO.P,R3,1*%
%TO.N,VCC*%
X27940000Y-69850000D03*
D11*
%TO.P,R3,2*%
%TO.N,Net-(U1-BE)*%
X38100000Y-69850000D03*
%TD*%
D13*
%TO.P,J1,1,Pin_1*%
%TO.N,GND*%
X27940000Y-81280000D03*
D14*
%TO.P,J1,2,Pin_2*%
%TO.N,VCC*%
X30480000Y-81280000D03*
%TO.P,J1,3,Pin_3*%
%TO.N,A0*%
X33020000Y-81280000D03*
%TO.P,J1,4,Pin_4*%
%TO.N,A1*%
X35560000Y-81280000D03*
%TO.P,J1,5,Pin_5*%
%TO.N,A2*%
X38100000Y-81280000D03*
%TO.P,J1,6,Pin_6*%
%TO.N,A3*%
X40640000Y-81280000D03*
%TO.P,J1,7,Pin_7*%
%TO.N,A4*%
X43180000Y-81280000D03*
%TO.P,J1,8,Pin_8*%
%TO.N,A5*%
X45720000Y-81280000D03*
%TO.P,J1,9,Pin_9*%
%TO.N,A6*%
X48260000Y-81280000D03*
%TO.P,J1,10,Pin_10*%
%TO.N,A7*%
X50800000Y-81280000D03*
%TO.P,J1,11,Pin_11*%
%TO.N,A8*%
X53340000Y-81280000D03*
%TO.P,J1,12,Pin_12*%
%TO.N,A9*%
X55880000Y-81280000D03*
%TO.P,J1,13,Pin_13*%
%TO.N,A10*%
X58420000Y-81280000D03*
%TO.P,J1,14,Pin_14*%
%TO.N,A11*%
X60960000Y-81280000D03*
%TO.P,J1,15,Pin_15*%
%TO.N,A12*%
X63500000Y-81280000D03*
%TO.P,J1,16,Pin_16*%
%TO.N,A13*%
X66040000Y-81280000D03*
%TO.P,J1,17,Pin_17*%
%TO.N,A14*%
X68580000Y-81280000D03*
%TO.P,J1,18,Pin_18*%
%TO.N,A15*%
X71120000Y-81280000D03*
%TO.P,J1,19,Pin_19*%
%TO.N,D0*%
X73660000Y-81280000D03*
%TO.P,J1,20,Pin_20*%
%TO.N,D1*%
X76200000Y-81280000D03*
%TO.P,J1,21,Pin_21*%
%TO.N,D2*%
X78740000Y-81280000D03*
%TO.P,J1,22,Pin_22*%
%TO.N,D3*%
X81280000Y-81280000D03*
%TO.P,J1,23,Pin_23*%
%TO.N,D4*%
X83820000Y-81280000D03*
%TO.P,J1,24,Pin_24*%
%TO.N,D5*%
X86360000Y-81280000D03*
%TO.P,J1,25,Pin_25*%
%TO.N,D6*%
X88900000Y-81280000D03*
%TO.P,J1,26,Pin_26*%
%TO.N,D7*%
X91440000Y-81280000D03*
%TO.P,J1,27,Pin_27*%
%TO.N,R{slash}~{W}*%
X93980000Y-81280000D03*
%TO.P,J1,28,Pin_28*%
%TO.N,CLK*%
X96520000Y-81280000D03*
%TO.P,J1,29,Pin_29*%
%TO.N,RDY*%
X99060000Y-81280000D03*
%TO.P,J1,30,Pin_30*%
%TO.N,~{IRQ}*%
X101600000Y-81280000D03*
%TO.P,J1,31,Pin_31*%
%TO.N,~{NMI}*%
X104140000Y-81280000D03*
%TO.P,J1,32,Pin_32*%
%TO.N,~{RESET}*%
X106680000Y-81280000D03*
%TD*%
D15*
%TO.N,GND*%
X76200000Y-64770000D03*
X62230000Y-48260000D03*
X82550000Y-58420000D03*
X48260000Y-64770000D03*
X90170000Y-78740000D03*
X52070000Y-78740000D03*
X41910000Y-58420000D03*
X39370000Y-78740000D03*
X53340000Y-64770000D03*
X44450000Y-44450000D03*
X57150000Y-78740000D03*
X45720000Y-64770000D03*
X80010000Y-48260000D03*
X57150000Y-48260000D03*
X44450000Y-78740000D03*
X64770000Y-48260000D03*
X54610000Y-78740000D03*
X68580000Y-64770000D03*
X36830000Y-78740000D03*
X107950000Y-78740000D03*
X59690000Y-48260000D03*
X67310000Y-78740000D03*
X69850000Y-48260000D03*
X77470000Y-78740000D03*
X71120000Y-64770000D03*
X57785000Y-55880000D03*
X31750000Y-78740000D03*
X64770000Y-78740000D03*
X85090000Y-78740000D03*
X80010000Y-78740000D03*
X50800000Y-64770000D03*
X46990000Y-78740000D03*
X106680000Y-39370000D03*
X87630000Y-78740000D03*
X102870000Y-78740000D03*
X52070000Y-44450000D03*
X100330000Y-78740000D03*
X55880000Y-64770000D03*
X97790000Y-78740000D03*
X67310000Y-48260000D03*
X97790000Y-38100000D03*
X49530000Y-48260000D03*
X66040000Y-64770000D03*
X101600000Y-39370000D03*
X59690000Y-78740000D03*
X60325000Y-55880000D03*
X58420000Y-64770000D03*
X34290000Y-78740000D03*
X92710000Y-78740000D03*
X69850000Y-78740000D03*
X49530000Y-78740000D03*
X62230000Y-78740000D03*
X36830000Y-44450000D03*
X67945000Y-55880000D03*
X95250000Y-78740000D03*
X63500000Y-64770000D03*
X55245000Y-55880000D03*
X41910000Y-78740000D03*
X54610000Y-48260000D03*
X72390000Y-78740000D03*
X105410000Y-78740000D03*
X82550000Y-78740000D03*
X78740000Y-64770000D03*
X65405000Y-55880000D03*
X52070000Y-48260000D03*
X73660000Y-64770000D03*
X74930000Y-78740000D03*
X54610000Y-58420000D03*
X41910000Y-48260000D03*
X45720000Y-38100000D03*
X70485000Y-55880000D03*
X60960000Y-64770000D03*
X62865000Y-55880000D03*
X75819000Y-42291000D03*
%TO.N,A13*%
X85725000Y-49530000D03*
%TO.N,D0*%
X57150000Y-59055000D03*
%TO.N,D1*%
X59690000Y-59055000D03*
%TO.N,D2*%
X62085000Y-59055000D03*
%TO.N,D3*%
X64625000Y-59055000D03*
%TO.N,D4*%
X67165000Y-59055000D03*
%TO.N,D5*%
X69705000Y-59055000D03*
%TO.N,D6*%
X72245000Y-59055000D03*
%TO.N,D7*%
X74785000Y-59055000D03*
%TO.N,~{IRQ}*%
X40640000Y-52070000D03*
%TD*%
D16*
%TO.N,VCC*%
X31750000Y-36830000D02*
X99060000Y-36830000D01*
X27940000Y-40640000D02*
X31750000Y-36830000D01*
X27940000Y-41910000D02*
X27940000Y-66040000D01*
X27940000Y-69850000D02*
X27940000Y-66040000D01*
X101600000Y-36830000D02*
X104140000Y-36830000D01*
X104140000Y-49530000D02*
X104140000Y-36830000D01*
X27940000Y-41910000D02*
X27940000Y-40640000D01*
X30480000Y-81280000D02*
X50800000Y-60960000D01*
X99060000Y-49530000D02*
X99060000Y-36830000D01*
X30480000Y-81280000D02*
X30480000Y-72390000D01*
X99060000Y-36830000D02*
X101600000Y-36830000D01*
X104140000Y-36830000D02*
X106680000Y-36830000D01*
X30480000Y-72390000D02*
X27940000Y-69850000D01*
D17*
%TO.N,A0*%
X33020000Y-81280000D02*
X53340000Y-60960000D01*
%TO.N,A1*%
X35560000Y-81280000D02*
X55880000Y-60960000D01*
%TO.N,A2*%
X38100000Y-81280000D02*
X58420000Y-60960000D01*
%TO.N,A3*%
X40640000Y-81280000D02*
X60960000Y-60960000D01*
%TO.N,A4*%
X43180000Y-81280000D02*
X63500000Y-60960000D01*
%TO.N,A5*%
X45720000Y-81280000D02*
X66040000Y-60960000D01*
%TO.N,A6*%
X48260000Y-81280000D02*
X68580000Y-60960000D01*
%TO.N,A7*%
X50800000Y-81280000D02*
X71120000Y-60960000D01*
%TO.N,A8*%
X53340000Y-81280000D02*
X73660000Y-60960000D01*
%TO.N,A9*%
X55880000Y-81280000D02*
X76200000Y-60960000D01*
%TO.N,A10*%
X58420000Y-81280000D02*
X78740000Y-60960000D01*
%TO.N,A11*%
X60960000Y-81280000D02*
X81280000Y-60960000D01*
%TO.N,A12*%
X83820000Y-50800000D02*
X78740000Y-45720000D01*
X83820000Y-60960000D02*
X83820000Y-50800000D01*
X63500000Y-81280000D02*
X83820000Y-60960000D01*
%TO.N,A13*%
X85725000Y-61595000D02*
X85725000Y-49530000D01*
X66040000Y-81280000D02*
X85725000Y-61595000D01*
%TO.N,A14*%
X87630000Y-62230000D02*
X87630000Y-46990000D01*
X76200000Y-43180000D02*
X73660000Y-45720000D01*
X68580000Y-81280000D02*
X87630000Y-62230000D01*
X83820000Y-43180000D02*
X76200000Y-43180000D01*
X87630000Y-46990000D02*
X83820000Y-43180000D01*
%TO.N,A15*%
X71120000Y-45720000D02*
X75565000Y-41275000D01*
X84455000Y-41275000D02*
X89535000Y-46355000D01*
X89535000Y-62865000D02*
X71120000Y-81280000D01*
X75565000Y-41275000D02*
X84455000Y-41275000D01*
X89535000Y-46355000D02*
X89535000Y-62865000D01*
%TO.N,D0*%
X50800000Y-45720000D02*
X50800000Y-52705000D01*
X50800000Y-52705000D02*
X57150000Y-59055000D01*
%TO.N,D1*%
X53340000Y-45720000D02*
X53340000Y-52705000D01*
X53340000Y-52705000D02*
X59690000Y-59055000D01*
%TO.N,D2*%
X55880000Y-52850000D02*
X62085000Y-59055000D01*
X55880000Y-45720000D02*
X55880000Y-52850000D01*
%TO.N,D3*%
X58420000Y-52850000D02*
X64625000Y-59055000D01*
X58420000Y-45720000D02*
X58420000Y-52850000D01*
%TO.N,D4*%
X60960000Y-52850000D02*
X67165000Y-59055000D01*
X60960000Y-45720000D02*
X60960000Y-52850000D01*
%TO.N,D5*%
X63500000Y-52850000D02*
X69705000Y-59055000D01*
X63500000Y-45720000D02*
X63500000Y-52850000D01*
%TO.N,D6*%
X66040000Y-45720000D02*
X66040000Y-52850000D01*
X66040000Y-52850000D02*
X72245000Y-59055000D01*
%TO.N,D7*%
X68580000Y-52850000D02*
X74785000Y-59055000D01*
X68580000Y-45720000D02*
X68580000Y-52850000D01*
%TO.N,R{slash}~{W}*%
X85090000Y-39370000D02*
X93980000Y-48260000D01*
X93980000Y-48260000D02*
X93980000Y-81280000D01*
X54610000Y-39370000D02*
X85090000Y-39370000D01*
X48260000Y-45720000D02*
X54610000Y-39370000D01*
%TO.N,CLK*%
X96520000Y-48260000D02*
X96520000Y-81280000D01*
X85725000Y-37465000D02*
X96520000Y-48260000D01*
X40640000Y-45720000D02*
X48895000Y-37465000D01*
X48895000Y-37465000D02*
X85725000Y-37465000D01*
%TO.N,RDY*%
X99060000Y-81280000D02*
X99060000Y-59690000D01*
%TO.N,~{IRQ}*%
X40640000Y-60960000D02*
X40640000Y-52070000D01*
X101600000Y-46990000D02*
X101600000Y-81280000D01*
%TO.N,~{NMI}*%
X104140000Y-59690000D02*
X104140000Y-81280000D01*
%TO.N,~{RESET}*%
X106680000Y-81280000D02*
X106680000Y-46990000D01*
%TO.N,Net-(U1-\u03D51)*%
X38100000Y-60960000D02*
X38100000Y-66040000D01*
%TO.N,Net-(U1-~{SO})*%
X38100000Y-41910000D02*
X38100000Y-45720000D01*
%TO.N,Net-(U1-BE)*%
X44450000Y-46990000D02*
X44450000Y-63500000D01*
X44450000Y-63500000D02*
X38100000Y-69850000D01*
X43180000Y-45720000D02*
X44450000Y-46990000D01*
%TD*%
%TA.AperFunction,Conductor*%
%TO.N,A7*%
G36*
X51915690Y-79992460D02*
G01*
X51918897Y-79994734D01*
X52085265Y-80161102D01*
X52088692Y-80169375D01*
X52088031Y-80173251D01*
X51589388Y-81593629D01*
X51583415Y-81600300D01*
X51574473Y-81600792D01*
X51573883Y-81600567D01*
X50803785Y-81282562D01*
X50797447Y-81276238D01*
X50479432Y-80506115D01*
X50479441Y-80497161D01*
X50485780Y-80490836D01*
X50486345Y-80490620D01*
X51906748Y-79991968D01*
X51915690Y-79992460D01*
G37*
%TD.AperFunction*%
%TD*%
%TA.AperFunction,Conductor*%
%TO.N,Net-(U1-~{SO})*%
G36*
X38225875Y-44123427D02*
G01*
X38228172Y-44126683D01*
X38833833Y-45402748D01*
X38834284Y-45411692D01*
X38828280Y-45418335D01*
X38827753Y-45418569D01*
X38104490Y-45719134D01*
X38095536Y-45719144D01*
X38095510Y-45719134D01*
X37372246Y-45418569D01*
X37365921Y-45412230D01*
X37365932Y-45403275D01*
X37366154Y-45402773D01*
X37971828Y-44126682D01*
X37978471Y-44120679D01*
X37982398Y-44120000D01*
X38217602Y-44120000D01*
X38225875Y-44123427D01*
G37*
%TD.AperFunction*%
%TD*%
%TA.AperFunction,Conductor*%
%TO.N,A0*%
G36*
X34135690Y-79992460D02*
G01*
X34138897Y-79994734D01*
X34305265Y-80161102D01*
X34308692Y-80169375D01*
X34308031Y-80173251D01*
X33809388Y-81593629D01*
X33803415Y-81600300D01*
X33794473Y-81600792D01*
X33793883Y-81600567D01*
X33023785Y-81282562D01*
X33017447Y-81276238D01*
X32699432Y-80506115D01*
X32699441Y-80497161D01*
X32705780Y-80490836D01*
X32706345Y-80490620D01*
X34126748Y-79991968D01*
X34135690Y-79992460D01*
G37*
%TD.AperFunction*%
%TD*%
%TA.AperFunction,Conductor*%
%TO.N,A5*%
G36*
X46835690Y-79992460D02*
G01*
X46838897Y-79994734D01*
X47005265Y-80161102D01*
X47008692Y-80169375D01*
X47008031Y-80173251D01*
X46509388Y-81593629D01*
X46503415Y-81600300D01*
X46494473Y-81600792D01*
X46493883Y-81600567D01*
X45723785Y-81282562D01*
X45717447Y-81276238D01*
X45399432Y-80506115D01*
X45399441Y-80497161D01*
X45405780Y-80490836D01*
X45406345Y-80490620D01*
X46826748Y-79991968D01*
X46835690Y-79992460D01*
G37*
%TD.AperFunction*%
%TD*%
%TA.AperFunction,Conductor*%
%TO.N,A14*%
G36*
X69695690Y-79992460D02*
G01*
X69698897Y-79994734D01*
X69865265Y-80161102D01*
X69868692Y-80169375D01*
X69868031Y-80173251D01*
X69369388Y-81593629D01*
X69363415Y-81600300D01*
X69354473Y-81600792D01*
X69353883Y-81600567D01*
X68583785Y-81282562D01*
X68577447Y-81276238D01*
X68259432Y-80506115D01*
X68259441Y-80497161D01*
X68265780Y-80490836D01*
X68266345Y-80490620D01*
X69686748Y-79991968D01*
X69695690Y-79992460D01*
G37*
%TD.AperFunction*%
%TD*%
%TA.AperFunction,Conductor*%
%TO.N,R{slash}~{W}*%
G36*
X94105912Y-79583427D02*
G01*
X94108186Y-79586634D01*
X94759950Y-80943586D01*
X94760442Y-80952528D01*
X94754469Y-80959199D01*
X94753892Y-80959457D01*
X93984488Y-81279134D01*
X93975533Y-81279143D01*
X93975510Y-81279134D01*
X93206107Y-80959457D01*
X93199782Y-80953118D01*
X93199791Y-80944163D01*
X93200049Y-80943586D01*
X93851814Y-79586634D01*
X93858485Y-79580661D01*
X93862361Y-79580000D01*
X94097639Y-79580000D01*
X94105912Y-79583427D01*
G37*
%TD.AperFunction*%
%TD*%
%TA.AperFunction,Conductor*%
%TO.N,A1*%
G36*
X36675690Y-79992460D02*
G01*
X36678897Y-79994734D01*
X36845265Y-80161102D01*
X36848692Y-80169375D01*
X36848031Y-80173251D01*
X36349388Y-81593629D01*
X36343415Y-81600300D01*
X36334473Y-81600792D01*
X36333883Y-81600567D01*
X35563785Y-81282562D01*
X35557447Y-81276238D01*
X35239432Y-80506115D01*
X35239441Y-80497161D01*
X35245780Y-80490836D01*
X35246345Y-80490620D01*
X36666748Y-79991968D01*
X36675690Y-79992460D01*
G37*
%TD.AperFunction*%
%TD*%
%TA.AperFunction,Conductor*%
%TO.N,GND*%
G36*
X100655691Y-35580185D02*
G01*
X100701446Y-35632989D01*
X100711390Y-35702147D01*
X100682365Y-35765703D01*
X100632498Y-35800489D01*
X99915609Y-36071489D01*
X99871763Y-36079500D01*
X99083641Y-36079500D01*
X99080040Y-36079395D01*
X99016065Y-36075669D01*
X99016064Y-36075669D01*
X99005023Y-36077616D01*
X98983491Y-36079500D01*
X31813705Y-36079500D01*
X31795735Y-36078191D01*
X31771972Y-36074710D01*
X31726533Y-36078686D01*
X31719931Y-36079264D01*
X31714530Y-36079500D01*
X31706283Y-36079500D01*
X31674606Y-36083202D01*
X31672832Y-36083384D01*
X31642390Y-36086047D01*
X31597198Y-36090001D01*
X31590132Y-36091460D01*
X31590120Y-36091404D01*
X31582763Y-36093035D01*
X31582777Y-36093092D01*
X31575740Y-36094760D01*
X31504385Y-36120729D01*
X31502685Y-36121320D01*
X31430668Y-36145185D01*
X31424126Y-36148236D01*
X31424101Y-36148183D01*
X31417308Y-36151471D01*
X31417334Y-36151523D01*
X31410880Y-36154764D01*
X31347468Y-36196470D01*
X31345948Y-36197439D01*
X31281348Y-36237285D01*
X31275683Y-36241765D01*
X31275647Y-36241719D01*
X31269798Y-36246484D01*
X31269835Y-36246528D01*
X31264309Y-36251164D01*
X31212213Y-36306381D01*
X31210958Y-36307674D01*
X27651200Y-39867431D01*
X27647621Y-39870738D01*
X27640583Y-39876748D01*
X27640580Y-39876751D01*
X27637990Y-39880036D01*
X27633149Y-39885481D01*
X27454358Y-40064272D01*
X27440729Y-40076051D01*
X27421468Y-40090390D01*
X27387898Y-40130397D01*
X27384253Y-40134376D01*
X27378407Y-40140223D01*
X27358618Y-40165251D01*
X27357481Y-40166647D01*
X27308694Y-40224790D01*
X27304729Y-40230819D01*
X27304682Y-40230788D01*
X27300630Y-40237147D01*
X27300679Y-40237177D01*
X27296889Y-40243321D01*
X27264812Y-40312110D01*
X27264027Y-40313731D01*
X27229957Y-40381572D01*
X27227488Y-40388357D01*
X27227432Y-40388336D01*
X27224960Y-40395450D01*
X27225015Y-40395469D01*
X27222743Y-40402325D01*
X27207391Y-40476670D01*
X27207001Y-40478428D01*
X27189499Y-40552279D01*
X27188661Y-40559454D01*
X27188601Y-40559447D01*
X27187836Y-40566938D01*
X27187896Y-40566944D01*
X27187266Y-40574141D01*
X27187266Y-40574143D01*
X27187266Y-40574144D01*
X27187474Y-40581314D01*
X27170833Y-40647055D01*
X26857181Y-41188672D01*
X26854315Y-41193164D01*
X26809431Y-41257267D01*
X26777405Y-41325947D01*
X26774867Y-41330814D01*
X26765946Y-41346219D01*
X26765928Y-41346250D01*
X26758037Y-41360982D01*
X26758012Y-41361030D01*
X26753653Y-41369858D01*
X26753646Y-41369873D01*
X26737353Y-41411537D01*
X26735803Y-41415159D01*
X26713261Y-41463500D01*
X26654366Y-41683302D01*
X26654364Y-41683313D01*
X26634532Y-41909998D01*
X26634532Y-41910001D01*
X26654364Y-42136686D01*
X26654366Y-42136697D01*
X26713258Y-42356488D01*
X26713263Y-42356502D01*
X26722646Y-42376623D01*
X26731310Y-42402124D01*
X26732057Y-42405484D01*
X26732058Y-42405486D01*
X26732062Y-42405499D01*
X27181489Y-43594390D01*
X27189500Y-43638236D01*
X27189500Y-64311761D01*
X27181489Y-64355607D01*
X26732068Y-65544484D01*
X26732046Y-65544546D01*
X26723718Y-65570015D01*
X26720979Y-65576947D01*
X26713261Y-65593501D01*
X26654366Y-65813302D01*
X26654364Y-65813313D01*
X26634532Y-66039998D01*
X26634532Y-66040001D01*
X26654364Y-66266686D01*
X26654366Y-66266697D01*
X26713258Y-66486488D01*
X26713263Y-66486502D01*
X26722646Y-66506623D01*
X26731310Y-66532124D01*
X26732057Y-66535484D01*
X26732058Y-66535486D01*
X26732062Y-66535499D01*
X27181489Y-67724390D01*
X27189500Y-67768236D01*
X27189500Y-68121761D01*
X27181489Y-68165607D01*
X26732068Y-69354484D01*
X26732046Y-69354546D01*
X26723718Y-69380015D01*
X26720979Y-69386947D01*
X26713261Y-69403501D01*
X26654366Y-69623302D01*
X26654364Y-69623313D01*
X26634532Y-69849998D01*
X26634532Y-69850001D01*
X26654364Y-70076686D01*
X26654366Y-70076697D01*
X26713258Y-70296488D01*
X26713261Y-70296497D01*
X26809431Y-70502732D01*
X26809432Y-70502734D01*
X26939954Y-70689141D01*
X27100858Y-70850045D01*
X27100861Y-70850047D01*
X27287266Y-70980568D01*
X27406222Y-71036037D01*
X27413305Y-71039922D01*
X27422828Y-71045982D01*
X27436218Y-71054505D01*
X28594695Y-71577391D01*
X28631362Y-71602730D01*
X29693180Y-72664548D01*
X29726665Y-72725871D01*
X29729499Y-72752229D01*
X29729499Y-79448922D01*
X29721048Y-79493915D01*
X29456976Y-80172089D01*
X29414308Y-80227417D01*
X29348500Y-80250894D01*
X29280447Y-80235066D01*
X29239989Y-80194022D01*
X29238669Y-80195011D01*
X29147190Y-80072812D01*
X29147187Y-80072809D01*
X29032093Y-79986649D01*
X29032086Y-79986645D01*
X28897379Y-79936403D01*
X28897372Y-79936401D01*
X28837844Y-79930000D01*
X28190000Y-79930000D01*
X28190000Y-80844498D01*
X28082315Y-80795320D01*
X27975763Y-80780000D01*
X27904237Y-80780000D01*
X27797685Y-80795320D01*
X27690000Y-80844498D01*
X27690000Y-79930000D01*
X27042155Y-79930000D01*
X26982627Y-79936401D01*
X26982620Y-79936403D01*
X26847913Y-79986645D01*
X26847906Y-79986649D01*
X26732812Y-80072809D01*
X26732809Y-80072812D01*
X26646649Y-80187906D01*
X26646645Y-80187913D01*
X26596403Y-80322620D01*
X26596401Y-80322627D01*
X26590000Y-80382155D01*
X26590000Y-80382172D01*
X26589999Y-81030000D01*
X27506314Y-81030000D01*
X27480507Y-81070156D01*
X27440000Y-81208111D01*
X27440000Y-81351889D01*
X27480507Y-81489844D01*
X27506314Y-81530000D01*
X26590000Y-81530000D01*
X26590000Y-82177844D01*
X26596401Y-82237372D01*
X26596403Y-82237379D01*
X26646645Y-82372086D01*
X26646649Y-82372093D01*
X26732809Y-82487187D01*
X26732812Y-82487190D01*
X26847906Y-82573350D01*
X26847913Y-82573354D01*
X26982620Y-82623596D01*
X26982627Y-82623598D01*
X27042155Y-82629999D01*
X27042172Y-82630000D01*
X27690000Y-82630000D01*
X27690000Y-81715501D01*
X27797685Y-81764680D01*
X27904237Y-81780000D01*
X27975763Y-81780000D01*
X28082315Y-81764680D01*
X28190000Y-81715501D01*
X28190000Y-82630000D01*
X28837828Y-82630000D01*
X28837844Y-82629999D01*
X28897372Y-82623598D01*
X28897379Y-82623596D01*
X29032086Y-82573354D01*
X29032093Y-82573350D01*
X29147187Y-82487190D01*
X29147190Y-82487187D01*
X29233350Y-82372093D01*
X29233354Y-82372086D01*
X29282422Y-82240529D01*
X29324293Y-82184595D01*
X29389757Y-82160178D01*
X29458030Y-82175030D01*
X29486285Y-82196181D01*
X29608599Y-82318495D01*
X29685135Y-82372086D01*
X29802165Y-82454032D01*
X29802167Y-82454033D01*
X29802170Y-82454035D01*
X30016337Y-82553903D01*
X30244592Y-82615063D01*
X30415319Y-82630000D01*
X30479999Y-82635659D01*
X30480000Y-82635659D01*
X30480001Y-82635659D01*
X30544681Y-82630000D01*
X30715408Y-82615063D01*
X30943663Y-82553903D01*
X31157830Y-82454035D01*
X31351401Y-82318495D01*
X31518495Y-82151401D01*
X31648426Y-81965841D01*
X31703002Y-81922217D01*
X31772500Y-81915023D01*
X31834855Y-81946546D01*
X31851575Y-81965842D01*
X31981500Y-82151395D01*
X31981505Y-82151401D01*
X32148599Y-82318495D01*
X32225135Y-82372086D01*
X32342165Y-82454032D01*
X32342167Y-82454033D01*
X32342170Y-82454035D01*
X32556337Y-82553903D01*
X32784592Y-82615063D01*
X32955319Y-82630000D01*
X33019999Y-82635659D01*
X33020000Y-82635659D01*
X33020001Y-82635659D01*
X33084681Y-82630000D01*
X33255408Y-82615063D01*
X33483663Y-82553903D01*
X33697830Y-82454035D01*
X33891401Y-82318495D01*
X34058495Y-82151401D01*
X34188426Y-81965841D01*
X34243002Y-81922217D01*
X34312500Y-81915023D01*
X34374855Y-81946546D01*
X34391575Y-81965842D01*
X34521500Y-82151395D01*
X34521505Y-82151401D01*
X34688599Y-82318495D01*
X34765135Y-82372086D01*
X34882165Y-82454032D01*
X34882167Y-82454033D01*
X34882170Y-82454035D01*
X35096337Y-82553903D01*
X35324592Y-82615063D01*
X35495319Y-82630000D01*
X35559999Y-82635659D01*
X35560000Y-82635659D01*
X35560001Y-82635659D01*
X35624681Y-82630000D01*
X35795408Y-82615063D01*
X36023663Y-82553903D01*
X36237830Y-82454035D01*
X36431401Y-82318495D01*
X36598495Y-82151401D01*
X36728426Y-81965841D01*
X36783002Y-81922217D01*
X36852500Y-81915023D01*
X36914855Y-81946546D01*
X36931575Y-81965842D01*
X37061500Y-82151395D01*
X37061505Y-82151401D01*
X37228599Y-82318495D01*
X37305135Y-82372086D01*
X37422165Y-82454032D01*
X37422167Y-82454033D01*
X37422170Y-82454035D01*
X37636337Y-82553903D01*
X37864592Y-82615063D01*
X38035319Y-82630000D01*
X38099999Y-82635659D01*
X38100000Y-82635659D01*
X38100001Y-82635659D01*
X38164681Y-82630000D01*
X38335408Y-82615063D01*
X38563663Y-82553903D01*
X38777830Y-82454035D01*
X38971401Y-82318495D01*
X39138495Y-82151401D01*
X39268426Y-81965841D01*
X39323002Y-81922217D01*
X39392500Y-81915023D01*
X39454855Y-81946546D01*
X39471575Y-81965842D01*
X39601500Y-82151395D01*
X39601505Y-82151401D01*
X39768599Y-82318495D01*
X39845135Y-82372086D01*
X39962165Y-82454032D01*
X39962167Y-82454033D01*
X39962170Y-82454035D01*
X40176337Y-82553903D01*
X40404592Y-82615063D01*
X40575319Y-82630000D01*
X40639999Y-82635659D01*
X40640000Y-82635659D01*
X40640001Y-82635659D01*
X40704681Y-82630000D01*
X40875408Y-82615063D01*
X41103663Y-82553903D01*
X41317830Y-82454035D01*
X41511401Y-82318495D01*
X41678495Y-82151401D01*
X41808426Y-81965841D01*
X41863002Y-81922217D01*
X41932500Y-81915023D01*
X41994855Y-81946546D01*
X42011575Y-81965842D01*
X42141500Y-82151395D01*
X42141505Y-82151401D01*
X42308599Y-82318495D01*
X42385135Y-82372086D01*
X42502165Y-82454032D01*
X42502167Y-82454033D01*
X42502170Y-82454035D01*
X42716337Y-82553903D01*
X42944592Y-82615063D01*
X43115319Y-82630000D01*
X43179999Y-82635659D01*
X43180000Y-82635659D01*
X43180001Y-82635659D01*
X43244681Y-82630000D01*
X43415408Y-82615063D01*
X43643663Y-82553903D01*
X43857830Y-82454035D01*
X44051401Y-82318495D01*
X44218495Y-82151401D01*
X44348426Y-81965841D01*
X44403002Y-81922217D01*
X44472500Y-81915023D01*
X44534855Y-81946546D01*
X44551575Y-81965842D01*
X44681500Y-82151395D01*
X44681505Y-82151401D01*
X44848599Y-82318495D01*
X44925135Y-82372086D01*
X45042165Y-82454032D01*
X45042167Y-82454033D01*
X45042170Y-82454035D01*
X45256337Y-82553903D01*
X45484592Y-82615063D01*
X45655319Y-82630000D01*
X45719999Y-82635659D01*
X45720000Y-82635659D01*
X45720001Y-82635659D01*
X45784681Y-82630000D01*
X45955408Y-82615063D01*
X46183663Y-82553903D01*
X46397830Y-82454035D01*
X46591401Y-82318495D01*
X46758495Y-82151401D01*
X46888426Y-81965841D01*
X46943002Y-81922217D01*
X47012500Y-81915023D01*
X47074855Y-81946546D01*
X47091575Y-81965842D01*
X47221500Y-82151395D01*
X47221505Y-82151401D01*
X47388599Y-82318495D01*
X47465135Y-82372086D01*
X47582165Y-82454032D01*
X47582167Y-82454033D01*
X47582170Y-82454035D01*
X47796337Y-82553903D01*
X48024592Y-82615063D01*
X48195319Y-82630000D01*
X48259999Y-82635659D01*
X48260000Y-82635659D01*
X48260001Y-82635659D01*
X48324681Y-82630000D01*
X48495408Y-82615063D01*
X48723663Y-82553903D01*
X48937830Y-82454035D01*
X49131401Y-82318495D01*
X49298495Y-82151401D01*
X49428426Y-81965841D01*
X49483002Y-81922217D01*
X49552500Y-81915023D01*
X49614855Y-81946546D01*
X49631575Y-81965842D01*
X49761500Y-82151395D01*
X49761505Y-82151401D01*
X49928599Y-82318495D01*
X50005135Y-82372086D01*
X50122165Y-82454032D01*
X50122167Y-82454033D01*
X50122170Y-82454035D01*
X50336337Y-82553903D01*
X50564592Y-82615063D01*
X50735319Y-82630000D01*
X50799999Y-82635659D01*
X50800000Y-82635659D01*
X50800001Y-82635659D01*
X50864681Y-82630000D01*
X51035408Y-82615063D01*
X51263663Y-82553903D01*
X51477830Y-82454035D01*
X51671401Y-82318495D01*
X51838495Y-82151401D01*
X51968426Y-81965841D01*
X52023002Y-81922217D01*
X52092500Y-81915023D01*
X52154855Y-81946546D01*
X52171575Y-81965842D01*
X52301500Y-82151395D01*
X52301505Y-82151401D01*
X52468599Y-82318495D01*
X52545135Y-82372086D01*
X52662165Y-82454032D01*
X52662167Y-82454033D01*
X52662170Y-82454035D01*
X52876337Y-82553903D01*
X53104592Y-82615063D01*
X53275319Y-82630000D01*
X53339999Y-82635659D01*
X53340000Y-82635659D01*
X53340001Y-82635659D01*
X53404681Y-82630000D01*
X53575408Y-82615063D01*
X53803663Y-82553903D01*
X54017830Y-82454035D01*
X54211401Y-82318495D01*
X54378495Y-82151401D01*
X54508426Y-81965841D01*
X54563002Y-81922217D01*
X54632500Y-81915023D01*
X54694855Y-81946546D01*
X54711575Y-81965842D01*
X54841500Y-82151395D01*
X54841505Y-82151401D01*
X55008599Y-82318495D01*
X55085135Y-82372086D01*
X55202165Y-82454032D01*
X55202167Y-82454033D01*
X55202170Y-82454035D01*
X55416337Y-82553903D01*
X55644592Y-82615063D01*
X55815319Y-82630000D01*
X55879999Y-82635659D01*
X55880000Y-82635659D01*
X55880001Y-82635659D01*
X55944681Y-82630000D01*
X56115408Y-82615063D01*
X56343663Y-82553903D01*
X56557830Y-82454035D01*
X56751401Y-82318495D01*
X56918495Y-82151401D01*
X57048426Y-81965841D01*
X57103002Y-81922217D01*
X57172500Y-81915023D01*
X57234855Y-81946546D01*
X57251575Y-81965842D01*
X57381500Y-82151395D01*
X57381505Y-82151401D01*
X57548599Y-82318495D01*
X57625135Y-82372086D01*
X57742165Y-82454032D01*
X57742167Y-82454033D01*
X57742170Y-82454035D01*
X57956337Y-82553903D01*
X58184592Y-82615063D01*
X58355319Y-82630000D01*
X58419999Y-82635659D01*
X58420000Y-82635659D01*
X58420001Y-82635659D01*
X58484681Y-82630000D01*
X58655408Y-82615063D01*
X58883663Y-82553903D01*
X59097830Y-82454035D01*
X59291401Y-82318495D01*
X59458495Y-82151401D01*
X59588426Y-81965841D01*
X59643002Y-81922217D01*
X59712500Y-81915023D01*
X59774855Y-81946546D01*
X59791575Y-81965842D01*
X59921500Y-82151395D01*
X59921505Y-82151401D01*
X60088599Y-82318495D01*
X60165135Y-82372086D01*
X60282165Y-82454032D01*
X60282167Y-82454033D01*
X60282170Y-82454035D01*
X60496337Y-82553903D01*
X60724592Y-82615063D01*
X60895319Y-82630000D01*
X60959999Y-82635659D01*
X60960000Y-82635659D01*
X60960001Y-82635659D01*
X61024681Y-82630000D01*
X61195408Y-82615063D01*
X61423663Y-82553903D01*
X61637830Y-82454035D01*
X61831401Y-82318495D01*
X61998495Y-82151401D01*
X62128426Y-81965841D01*
X62183002Y-81922217D01*
X62252500Y-81915023D01*
X62314855Y-81946546D01*
X62331575Y-81965842D01*
X62461500Y-82151395D01*
X62461505Y-82151401D01*
X62628599Y-82318495D01*
X62705135Y-82372086D01*
X62822165Y-82454032D01*
X62822167Y-82454033D01*
X62822170Y-82454035D01*
X63036337Y-82553903D01*
X63264592Y-82615063D01*
X63435319Y-82630000D01*
X63499999Y-82635659D01*
X63500000Y-82635659D01*
X63500001Y-82635659D01*
X63564681Y-82630000D01*
X63735408Y-82615063D01*
X63963663Y-82553903D01*
X64177830Y-82454035D01*
X64371401Y-82318495D01*
X64538495Y-82151401D01*
X64668426Y-81965841D01*
X64723002Y-81922217D01*
X64792500Y-81915023D01*
X64854855Y-81946546D01*
X64871575Y-81965842D01*
X65001500Y-82151395D01*
X65001505Y-82151401D01*
X65168599Y-82318495D01*
X65245135Y-82372086D01*
X65362165Y-82454032D01*
X65362167Y-82454033D01*
X65362170Y-82454035D01*
X65576337Y-82553903D01*
X65804592Y-82615063D01*
X65975319Y-82630000D01*
X66039999Y-82635659D01*
X66040000Y-82635659D01*
X66040001Y-82635659D01*
X66104681Y-82630000D01*
X66275408Y-82615063D01*
X66503663Y-82553903D01*
X66717830Y-82454035D01*
X66911401Y-82318495D01*
X67078495Y-82151401D01*
X67208426Y-81965841D01*
X67263002Y-81922217D01*
X67332500Y-81915023D01*
X67394855Y-81946546D01*
X67411575Y-81965842D01*
X67541500Y-82151395D01*
X67541505Y-82151401D01*
X67708599Y-82318495D01*
X67785135Y-82372086D01*
X67902165Y-82454032D01*
X67902167Y-82454033D01*
X67902170Y-82454035D01*
X68116337Y-82553903D01*
X68344592Y-82615063D01*
X68515319Y-82630000D01*
X68579999Y-82635659D01*
X68580000Y-82635659D01*
X68580001Y-82635659D01*
X68644681Y-82630000D01*
X68815408Y-82615063D01*
X69043663Y-82553903D01*
X69257830Y-82454035D01*
X69451401Y-82318495D01*
X69618495Y-82151401D01*
X69748426Y-81965841D01*
X69803002Y-81922217D01*
X69872500Y-81915023D01*
X69934855Y-81946546D01*
X69951575Y-81965842D01*
X70081500Y-82151395D01*
X70081505Y-82151401D01*
X70248599Y-82318495D01*
X70325135Y-82372086D01*
X70442165Y-82454032D01*
X70442167Y-82454033D01*
X70442170Y-82454035D01*
X70656337Y-82553903D01*
X70884592Y-82615063D01*
X71055319Y-82630000D01*
X71119999Y-82635659D01*
X71120000Y-82635659D01*
X71120001Y-82635659D01*
X71184681Y-82630000D01*
X71355408Y-82615063D01*
X71583663Y-82553903D01*
X71797830Y-82454035D01*
X71991401Y-82318495D01*
X72158495Y-82151401D01*
X72288426Y-81965841D01*
X72343002Y-81922217D01*
X72412500Y-81915023D01*
X72474855Y-81946546D01*
X72491575Y-81965842D01*
X72621500Y-82151395D01*
X72621505Y-82151401D01*
X72788599Y-82318495D01*
X72865135Y-82372086D01*
X72982165Y-82454032D01*
X72982167Y-82454033D01*
X72982170Y-82454035D01*
X73196337Y-82553903D01*
X73424592Y-82615063D01*
X73595319Y-82630000D01*
X73659999Y-82635659D01*
X73660000Y-82635659D01*
X73660001Y-82635659D01*
X73724681Y-82630000D01*
X73895408Y-82615063D01*
X74123663Y-82553903D01*
X74337830Y-82454035D01*
X74531401Y-82318495D01*
X74698495Y-82151401D01*
X74828426Y-81965841D01*
X74883002Y-81922217D01*
X74952500Y-81915023D01*
X75014855Y-81946546D01*
X75031575Y-81965842D01*
X75161500Y-82151395D01*
X75161505Y-82151401D01*
X75328599Y-82318495D01*
X75405135Y-82372086D01*
X75522165Y-82454032D01*
X75522167Y-82454033D01*
X75522170Y-82454035D01*
X75736337Y-82553903D01*
X75964592Y-82615063D01*
X76135319Y-82630000D01*
X76199999Y-82635659D01*
X76200000Y-82635659D01*
X76200001Y-82635659D01*
X76264681Y-82630000D01*
X76435408Y-82615063D01*
X76663663Y-82553903D01*
X76877830Y-82454035D01*
X77071401Y-82318495D01*
X77238495Y-82151401D01*
X77368426Y-81965841D01*
X77423002Y-81922217D01*
X77492500Y-81915023D01*
X77554855Y-81946546D01*
X77571575Y-81965842D01*
X77701500Y-82151395D01*
X77701505Y-82151401D01*
X77868599Y-82318495D01*
X77945135Y-82372086D01*
X78062165Y-82454032D01*
X78062167Y-82454033D01*
X78062170Y-82454035D01*
X78276337Y-82553903D01*
X78504592Y-82615063D01*
X78675319Y-82630000D01*
X78739999Y-82635659D01*
X78740000Y-82635659D01*
X78740001Y-82635659D01*
X78804681Y-82630000D01*
X78975408Y-82615063D01*
X79203663Y-82553903D01*
X79417830Y-82454035D01*
X79611401Y-82318495D01*
X79778495Y-82151401D01*
X79908426Y-81965841D01*
X79963002Y-81922217D01*
X80032500Y-81915023D01*
X80094855Y-81946546D01*
X80111575Y-81965842D01*
X80241500Y-82151395D01*
X80241505Y-82151401D01*
X80408599Y-82318495D01*
X80485135Y-82372086D01*
X80602165Y-82454032D01*
X80602167Y-82454033D01*
X80602170Y-82454035D01*
X80816337Y-82553903D01*
X81044592Y-82615063D01*
X81215319Y-82630000D01*
X81279999Y-82635659D01*
X81280000Y-82635659D01*
X81280001Y-82635659D01*
X81344681Y-82630000D01*
X81515408Y-82615063D01*
X81743663Y-82553903D01*
X81957830Y-82454035D01*
X82151401Y-82318495D01*
X82318495Y-82151401D01*
X82448426Y-81965840D01*
X82503001Y-81922217D01*
X82572499Y-81915023D01*
X82634854Y-81946546D01*
X82651574Y-81965841D01*
X82781505Y-82151401D01*
X82948599Y-82318495D01*
X83025135Y-82372086D01*
X83142165Y-82454032D01*
X83142167Y-82454033D01*
X83142170Y-82454035D01*
X83356337Y-82553903D01*
X83584592Y-82615063D01*
X83755319Y-82630000D01*
X83819999Y-82635659D01*
X83820000Y-82635659D01*
X83820001Y-82635659D01*
X83884681Y-82630000D01*
X84055408Y-82615063D01*
X84283663Y-82553903D01*
X84497830Y-82454035D01*
X84691401Y-82318495D01*
X84858495Y-82151401D01*
X84988426Y-81965841D01*
X85043002Y-81922217D01*
X85112500Y-81915023D01*
X85174855Y-81946546D01*
X85191575Y-81965842D01*
X85321500Y-82151395D01*
X85321505Y-82151401D01*
X85488599Y-82318495D01*
X85565135Y-82372086D01*
X85682165Y-82454032D01*
X85682167Y-82454033D01*
X85682170Y-82454035D01*
X85896337Y-82553903D01*
X86124592Y-82615063D01*
X86295319Y-82630000D01*
X86359999Y-82635659D01*
X86360000Y-82635659D01*
X86360001Y-82635659D01*
X86424681Y-82630000D01*
X86595408Y-82615063D01*
X86823663Y-82553903D01*
X87037830Y-82454035D01*
X87231401Y-82318495D01*
X87398495Y-82151401D01*
X87528426Y-81965840D01*
X87583001Y-81922217D01*
X87652499Y-81915023D01*
X87714854Y-81946546D01*
X87731574Y-81965841D01*
X87861505Y-82151401D01*
X88028599Y-82318495D01*
X88105135Y-82372086D01*
X88222165Y-82454032D01*
X88222167Y-82454033D01*
X88222170Y-82454035D01*
X88436337Y-82553903D01*
X88664592Y-82615063D01*
X88835319Y-82630000D01*
X88899999Y-82635659D01*
X88900000Y-82635659D01*
X88900001Y-82635659D01*
X88964681Y-82630000D01*
X89135408Y-82615063D01*
X89363663Y-82553903D01*
X89577830Y-82454035D01*
X89771401Y-82318495D01*
X89938495Y-82151401D01*
X90068426Y-81965841D01*
X90123002Y-81922217D01*
X90192500Y-81915023D01*
X90254855Y-81946546D01*
X90271575Y-81965842D01*
X90401500Y-82151395D01*
X90401505Y-82151401D01*
X90568599Y-82318495D01*
X90645135Y-82372086D01*
X90762165Y-82454032D01*
X90762167Y-82454033D01*
X90762170Y-82454035D01*
X90976337Y-82553903D01*
X91204592Y-82615063D01*
X91375319Y-82630000D01*
X91439999Y-82635659D01*
X91440000Y-82635659D01*
X91440001Y-82635659D01*
X91504681Y-82630000D01*
X91675408Y-82615063D01*
X91903663Y-82553903D01*
X92117830Y-82454035D01*
X92311401Y-82318495D01*
X92478495Y-82151401D01*
X92608426Y-81965840D01*
X92663001Y-81922217D01*
X92732499Y-81915023D01*
X92794854Y-81946546D01*
X92811574Y-81965841D01*
X92941505Y-82151401D01*
X93108599Y-82318495D01*
X93185135Y-82372086D01*
X93302165Y-82454032D01*
X93302167Y-82454033D01*
X93302170Y-82454035D01*
X93516337Y-82553903D01*
X93744592Y-82615063D01*
X93915319Y-82630000D01*
X93979999Y-82635659D01*
X93980000Y-82635659D01*
X93980001Y-82635659D01*
X94044681Y-82630000D01*
X94215408Y-82615063D01*
X94443663Y-82553903D01*
X94657830Y-82454035D01*
X94851401Y-82318495D01*
X95018495Y-82151401D01*
X95148426Y-81965841D01*
X95203002Y-81922217D01*
X95272500Y-81915023D01*
X95334855Y-81946546D01*
X95351575Y-81965842D01*
X95481500Y-82151395D01*
X95481505Y-82151401D01*
X95648599Y-82318495D01*
X95725135Y-82372086D01*
X95842165Y-82454032D01*
X95842167Y-82454033D01*
X95842170Y-82454035D01*
X96056337Y-82553903D01*
X96284592Y-82615063D01*
X96455319Y-82630000D01*
X96519999Y-82635659D01*
X96520000Y-82635659D01*
X96520001Y-82635659D01*
X96584681Y-82630000D01*
X96755408Y-82615063D01*
X96983663Y-82553903D01*
X97197830Y-82454035D01*
X97391401Y-82318495D01*
X97558495Y-82151401D01*
X97688426Y-81965840D01*
X97743001Y-81922217D01*
X97812499Y-81915023D01*
X97874854Y-81946546D01*
X97891574Y-81965841D01*
X98021505Y-82151401D01*
X98188599Y-82318495D01*
X98265135Y-82372086D01*
X98382165Y-82454032D01*
X98382167Y-82454033D01*
X98382170Y-82454035D01*
X98596337Y-82553903D01*
X98824592Y-82615063D01*
X98995319Y-82630000D01*
X99059999Y-82635659D01*
X99060000Y-82635659D01*
X99060001Y-82635659D01*
X99124681Y-82630000D01*
X99295408Y-82615063D01*
X99523663Y-82553903D01*
X99737830Y-82454035D01*
X99931401Y-82318495D01*
X100098495Y-82151401D01*
X100228426Y-81965841D01*
X100283002Y-81922217D01*
X100352500Y-81915023D01*
X100414855Y-81946546D01*
X100431575Y-81965842D01*
X100561500Y-82151395D01*
X100561505Y-82151401D01*
X100728599Y-82318495D01*
X100805135Y-82372086D01*
X100922165Y-82454032D01*
X100922167Y-82454033D01*
X100922170Y-82454035D01*
X101136337Y-82553903D01*
X101364592Y-82615063D01*
X101535319Y-82630000D01*
X101599999Y-82635659D01*
X101600000Y-82635659D01*
X101600001Y-82635659D01*
X101664681Y-82630000D01*
X101835408Y-82615063D01*
X102063663Y-82553903D01*
X102277830Y-82454035D01*
X102471401Y-82318495D01*
X102638495Y-82151401D01*
X102768426Y-81965840D01*
X102823001Y-81922217D01*
X102892499Y-81915023D01*
X102954854Y-81946546D01*
X102971574Y-81965841D01*
X103101505Y-82151401D01*
X103268599Y-82318495D01*
X103345135Y-82372086D01*
X103462165Y-82454032D01*
X103462167Y-82454033D01*
X103462170Y-82454035D01*
X103676337Y-82553903D01*
X103904592Y-82615063D01*
X104075319Y-82630000D01*
X104139999Y-82635659D01*
X104140000Y-82635659D01*
X104140001Y-82635659D01*
X104204681Y-82630000D01*
X104375408Y-82615063D01*
X104603663Y-82553903D01*
X104817830Y-82454035D01*
X105011401Y-82318495D01*
X105178495Y-82151401D01*
X105308426Y-81965840D01*
X105363001Y-81922217D01*
X105432499Y-81915023D01*
X105494854Y-81946546D01*
X105511574Y-81965841D01*
X105641505Y-82151401D01*
X105808599Y-82318495D01*
X105885135Y-82372086D01*
X106002165Y-82454032D01*
X106002167Y-82454033D01*
X106002170Y-82454035D01*
X106216337Y-82553903D01*
X106444592Y-82615063D01*
X106615319Y-82630000D01*
X106679999Y-82635659D01*
X106680000Y-82635659D01*
X106680001Y-82635659D01*
X106744681Y-82630000D01*
X106915408Y-82615063D01*
X107143663Y-82553903D01*
X107357830Y-82454035D01*
X107551401Y-82318495D01*
X107718495Y-82151401D01*
X107854035Y-81957830D01*
X107953903Y-81743663D01*
X108015063Y-81515408D01*
X108035659Y-81280000D01*
X108015063Y-81044592D01*
X107953903Y-80816337D01*
X107926539Y-80757656D01*
X107923596Y-80750080D01*
X107915614Y-80724724D01*
X107317725Y-79479937D01*
X107305500Y-79426250D01*
X107305500Y-48742341D01*
X107317478Y-48689172D01*
X107345801Y-48629500D01*
X107871875Y-47521116D01*
X107874541Y-47515311D01*
X107876071Y-47511864D01*
X107891863Y-47468910D01*
X107893863Y-47464106D01*
X107906739Y-47436496D01*
X107965635Y-47216692D01*
X107985468Y-46990000D01*
X107984522Y-46979192D01*
X107972973Y-46847181D01*
X107965635Y-46763308D01*
X107906739Y-46543504D01*
X107810568Y-46337266D01*
X107690869Y-46166317D01*
X107680045Y-46150858D01*
X107519141Y-45989954D01*
X107332734Y-45859432D01*
X107332732Y-45859431D01*
X107126497Y-45763261D01*
X107126488Y-45763258D01*
X106906697Y-45704366D01*
X106906693Y-45704365D01*
X106906692Y-45704365D01*
X106906691Y-45704364D01*
X106906686Y-45704364D01*
X106680002Y-45684532D01*
X106679998Y-45684532D01*
X106453313Y-45704364D01*
X106453302Y-45704366D01*
X106233511Y-45763258D01*
X106233502Y-45763261D01*
X106027267Y-45859431D01*
X106027265Y-45859432D01*
X105840858Y-45989954D01*
X105679954Y-46150858D01*
X105549432Y-46337265D01*
X105549431Y-46337267D01*
X105453261Y-46543502D01*
X105453258Y-46543511D01*
X105394366Y-46763302D01*
X105394364Y-46763313D01*
X105374532Y-46989998D01*
X105374532Y-46990001D01*
X105394364Y-47216686D01*
X105394366Y-47216697D01*
X105453258Y-47436488D01*
X105453260Y-47436493D01*
X105453261Y-47436496D01*
X105466136Y-47464106D01*
X105478664Y-47490973D01*
X105481700Y-47498840D01*
X105489494Y-47524003D01*
X105782879Y-48142134D01*
X106042521Y-48689172D01*
X106042522Y-48689173D01*
X106054500Y-48742342D01*
X106054500Y-79426250D01*
X106042275Y-79479937D01*
X105521774Y-80563600D01*
X105475005Y-80615508D01*
X105407596Y-80633890D01*
X105340951Y-80612910D01*
X105298224Y-80563600D01*
X104777724Y-79479937D01*
X104765499Y-79426250D01*
X104765499Y-70502728D01*
X104765499Y-61442336D01*
X104777475Y-61389178D01*
X105331875Y-60221116D01*
X105334541Y-60215311D01*
X105336071Y-60211864D01*
X105351863Y-60168910D01*
X105353863Y-60164106D01*
X105366739Y-60136496D01*
X105425635Y-59916692D01*
X105445468Y-59690000D01*
X105425635Y-59463308D01*
X105366739Y-59243504D01*
X105270568Y-59037266D01*
X105151168Y-58866744D01*
X105140045Y-58850858D01*
X104979141Y-58689954D01*
X104792734Y-58559432D01*
X104792732Y-58559431D01*
X104586497Y-58463261D01*
X104586488Y-58463258D01*
X104366697Y-58404366D01*
X104366693Y-58404365D01*
X104366692Y-58404365D01*
X104366691Y-58404364D01*
X104366686Y-58404364D01*
X104140002Y-58384532D01*
X104139998Y-58384532D01*
X103913313Y-58404364D01*
X103913302Y-58404366D01*
X103693511Y-58463258D01*
X103693502Y-58463261D01*
X103487267Y-58559431D01*
X103487265Y-58559432D01*
X103300858Y-58689954D01*
X103139954Y-58850858D01*
X103009432Y-59037265D01*
X103009431Y-59037267D01*
X102913261Y-59243502D01*
X102913258Y-59243511D01*
X102854366Y-59463302D01*
X102854364Y-59463313D01*
X102834532Y-59689998D01*
X102834532Y-59690001D01*
X102854364Y-59916686D01*
X102854366Y-59916697D01*
X102913258Y-60136488D01*
X102913260Y-60136493D01*
X102913261Y-60136496D01*
X102917443Y-60145464D01*
X102938664Y-60190973D01*
X102941700Y-60198840D01*
X102949494Y-60224003D01*
X103071162Y-60480344D01*
X103502521Y-61389172D01*
X103502522Y-61389173D01*
X103514500Y-61442342D01*
X103514500Y-79426250D01*
X103502275Y-79479937D01*
X102981774Y-80563600D01*
X102935005Y-80615508D01*
X102867596Y-80633890D01*
X102800951Y-80612910D01*
X102758224Y-80563600D01*
X102237725Y-79479937D01*
X102225500Y-79426250D01*
X102225500Y-48742341D01*
X102237478Y-48689172D01*
X102265801Y-48629500D01*
X102791875Y-47521116D01*
X102794541Y-47515311D01*
X102796071Y-47511864D01*
X102811863Y-47468910D01*
X102813863Y-47464106D01*
X102826739Y-47436496D01*
X102885635Y-47216692D01*
X102905468Y-46990000D01*
X102904522Y-46979192D01*
X102892973Y-46847181D01*
X102885635Y-46763308D01*
X102826739Y-46543504D01*
X102730568Y-46337266D01*
X102610869Y-46166317D01*
X102600045Y-46150858D01*
X102439141Y-45989954D01*
X102252734Y-45859432D01*
X102252732Y-45859431D01*
X102046497Y-45763261D01*
X102046488Y-45763258D01*
X101826697Y-45704366D01*
X101826693Y-45704365D01*
X101826692Y-45704365D01*
X101826691Y-45704364D01*
X101826686Y-45704364D01*
X101600002Y-45684532D01*
X101599998Y-45684532D01*
X101373313Y-45704364D01*
X101373302Y-45704366D01*
X101153511Y-45763258D01*
X101153502Y-45763261D01*
X100947267Y-45859431D01*
X100947265Y-45859432D01*
X100760858Y-45989954D01*
X100599954Y-46150858D01*
X100469432Y-46337265D01*
X100469431Y-46337267D01*
X100373261Y-46543502D01*
X100373258Y-46543511D01*
X100314366Y-46763302D01*
X100314364Y-46763313D01*
X100294532Y-46989998D01*
X100294532Y-46990001D01*
X100314364Y-47216686D01*
X100314366Y-47216697D01*
X100373258Y-47436488D01*
X100373260Y-47436493D01*
X100373261Y-47436496D01*
X100386136Y-47464106D01*
X100398664Y-47490973D01*
X100401700Y-47498840D01*
X100409494Y-47524003D01*
X100702879Y-48142134D01*
X100962521Y-48689172D01*
X100962522Y-48689173D01*
X100974500Y-48742342D01*
X100974500Y-79426250D01*
X100962275Y-79479937D01*
X100441774Y-80563600D01*
X100395005Y-80615508D01*
X100327596Y-80633890D01*
X100260951Y-80612910D01*
X100218224Y-80563600D01*
X99697725Y-79479937D01*
X99685500Y-79426250D01*
X99685500Y-61442341D01*
X99697478Y-61389172D01*
X99697479Y-61389171D01*
X100251875Y-60221116D01*
X100254541Y-60215311D01*
X100256071Y-60211864D01*
X100271863Y-60168910D01*
X100273863Y-60164106D01*
X100286739Y-60136496D01*
X100345635Y-59916692D01*
X100365468Y-59690000D01*
X100345635Y-59463308D01*
X100286739Y-59243504D01*
X100190568Y-59037266D01*
X100071168Y-58866744D01*
X100060045Y-58850858D01*
X99899141Y-58689954D01*
X99712734Y-58559432D01*
X99712732Y-58559431D01*
X99506497Y-58463261D01*
X99506488Y-58463258D01*
X99286697Y-58404366D01*
X99286693Y-58404365D01*
X99286692Y-58404365D01*
X99286691Y-58404364D01*
X99286686Y-58404364D01*
X99060002Y-58384532D01*
X99059998Y-58384532D01*
X98833313Y-58404364D01*
X98833302Y-58404366D01*
X98613511Y-58463258D01*
X98613502Y-58463261D01*
X98407267Y-58559431D01*
X98407265Y-58559432D01*
X98220858Y-58689954D01*
X98059954Y-58850858D01*
X97929432Y-59037265D01*
X97929431Y-59037267D01*
X97833261Y-59243502D01*
X97833258Y-59243511D01*
X97774366Y-59463302D01*
X97774364Y-59463313D01*
X97754532Y-59689998D01*
X97754532Y-59690001D01*
X97774364Y-59916686D01*
X97774366Y-59916697D01*
X97833258Y-60136488D01*
X97833260Y-60136493D01*
X97833261Y-60136496D01*
X97837443Y-60145464D01*
X97858664Y-60190973D01*
X97861700Y-60198840D01*
X97869494Y-60224003D01*
X97991162Y-60480344D01*
X98422521Y-61389172D01*
X98422522Y-61389173D01*
X98434500Y-61442342D01*
X98434500Y-79426250D01*
X98422275Y-79479937D01*
X97901774Y-80563600D01*
X97855005Y-80615508D01*
X97787596Y-80633890D01*
X97720951Y-80612910D01*
X97678224Y-80563600D01*
X97157725Y-79479937D01*
X97145500Y-79426250D01*
X97145500Y-48342737D01*
X97147224Y-48327123D01*
X97146938Y-48327096D01*
X97147672Y-48319333D01*
X97145531Y-48251170D01*
X97145500Y-48249223D01*
X97145500Y-48220651D01*
X97145500Y-48220650D01*
X97144629Y-48213759D01*
X97144172Y-48207945D01*
X97142709Y-48161374D01*
X97142709Y-48161373D01*
X97142709Y-48161372D01*
X97137120Y-48142137D01*
X97133174Y-48123084D01*
X97133172Y-48123069D01*
X97130664Y-48103208D01*
X97113501Y-48059859D01*
X97111614Y-48054346D01*
X97098617Y-48009610D01*
X97098616Y-48009608D01*
X97088421Y-47992369D01*
X97079860Y-47974893D01*
X97078308Y-47970975D01*
X97072486Y-47956268D01*
X97072486Y-47956267D01*
X97062474Y-47942488D01*
X97045083Y-47918550D01*
X97041900Y-47913705D01*
X97018170Y-47873579D01*
X97018165Y-47873573D01*
X97004005Y-47859413D01*
X96991370Y-47844620D01*
X96979593Y-47828412D01*
X96943693Y-47798713D01*
X96939381Y-47794790D01*
X86936771Y-37792180D01*
X86903287Y-37730858D01*
X86908271Y-37661166D01*
X86950143Y-37605233D01*
X87015607Y-37580816D01*
X87024453Y-37580500D01*
X98185500Y-37580500D01*
X98252539Y-37600185D01*
X98298294Y-37652989D01*
X98309500Y-37704500D01*
X98309500Y-47801761D01*
X98301489Y-47845607D01*
X97852068Y-49034484D01*
X97852046Y-49034546D01*
X97843718Y-49060015D01*
X97840979Y-49066947D01*
X97833261Y-49083501D01*
X97774366Y-49303302D01*
X97774364Y-49303313D01*
X97754532Y-49529998D01*
X97754532Y-49530001D01*
X97774364Y-49756686D01*
X97774366Y-49756697D01*
X97833258Y-49976488D01*
X97833261Y-49976497D01*
X97929431Y-50182732D01*
X97929432Y-50182734D01*
X98059954Y-50369141D01*
X98220858Y-50530045D01*
X98220861Y-50530047D01*
X98407266Y-50660568D01*
X98613504Y-50756739D01*
X98613509Y-50756740D01*
X98613511Y-50756741D01*
X98628100Y-50760650D01*
X98833308Y-50815635D01*
X98995230Y-50829801D01*
X99059998Y-50835468D01*
X99060000Y-50835468D01*
X99060002Y-50835468D01*
X99116673Y-50830509D01*
X99286692Y-50815635D01*
X99506496Y-50756739D01*
X99712734Y-50660568D01*
X99899139Y-50530047D01*
X100060047Y-50369139D01*
X100190568Y-50182734D01*
X100286739Y-49976496D01*
X100345635Y-49756692D01*
X100365468Y-49530000D01*
X100345635Y-49303308D01*
X100286739Y-49083504D01*
X100277352Y-49063374D01*
X100268684Y-49037855D01*
X100267942Y-49034513D01*
X99818509Y-47845608D01*
X99810499Y-47801762D01*
X99810499Y-42702897D01*
X99810499Y-37728210D01*
X99830184Y-37661175D01*
X99882988Y-37615420D01*
X99952146Y-37605476D01*
X99978338Y-37612223D01*
X101104513Y-38037942D01*
X101130013Y-38046279D01*
X101136948Y-38049018D01*
X101153504Y-38056739D01*
X101373308Y-38115635D01*
X101535230Y-38129801D01*
X101599998Y-38135468D01*
X101600000Y-38135468D01*
X101600002Y-38135468D01*
X101656672Y-38130509D01*
X101826692Y-38115635D01*
X102046496Y-38056739D01*
X102066623Y-38047353D01*
X102092150Y-38038683D01*
X102095486Y-38037942D01*
X103221657Y-37612224D01*
X103291322Y-37606933D01*
X103352793Y-37640146D01*
X103386549Y-37701321D01*
X103389500Y-37728214D01*
X103389500Y-47801761D01*
X103381489Y-47845607D01*
X102932068Y-49034484D01*
X102932046Y-49034546D01*
X102923718Y-49060015D01*
X102920979Y-49066947D01*
X102913261Y-49083501D01*
X102854366Y-49303302D01*
X102854364Y-49303313D01*
X102834532Y-49529998D01*
X102834532Y-49530001D01*
X102854364Y-49756686D01*
X102854366Y-49756697D01*
X102913258Y-49976488D01*
X102913261Y-49976497D01*
X103009431Y-50182732D01*
X103009432Y-50182734D01*
X103139954Y-50369141D01*
X103300858Y-50530045D01*
X103300861Y-50530047D01*
X103487266Y-50660568D01*
X103693504Y-50756739D01*
X103693509Y-50756740D01*
X103693511Y-50756741D01*
X103708100Y-50760650D01*
X103913308Y-50815635D01*
X104075230Y-50829801D01*
X104139998Y-50835468D01*
X104140000Y-50835468D01*
X104140002Y-50835468D01*
X104196673Y-50830509D01*
X104366692Y-50815635D01*
X104586496Y-50756739D01*
X104792734Y-50660568D01*
X104979139Y-50530047D01*
X105140047Y-50369139D01*
X105270568Y-50182734D01*
X105366739Y-49976496D01*
X105425635Y-49756692D01*
X105445468Y-49530000D01*
X105425635Y-49303308D01*
X105366739Y-49083504D01*
X105357352Y-49063374D01*
X105348684Y-49037855D01*
X105347940Y-49034506D01*
X104898511Y-47845608D01*
X104890500Y-47801762D01*
X104890500Y-42778122D01*
X104890500Y-37728210D01*
X104910184Y-37661175D01*
X104962988Y-37615420D01*
X105032146Y-37605476D01*
X105058338Y-37612223D01*
X106184513Y-38037942D01*
X106210013Y-38046279D01*
X106216948Y-38049018D01*
X106233504Y-38056739D01*
X106453308Y-38115635D01*
X106615230Y-38129801D01*
X106679998Y-38135468D01*
X106680000Y-38135468D01*
X106680002Y-38135468D01*
X106736673Y-38130509D01*
X106906692Y-38115635D01*
X107126496Y-38056739D01*
X107332734Y-37960568D01*
X107519139Y-37830047D01*
X107680047Y-37669139D01*
X107810568Y-37482734D01*
X107906739Y-37276496D01*
X107965635Y-37056692D01*
X107985468Y-36830000D01*
X107965635Y-36603308D01*
X107906739Y-36383504D01*
X107810568Y-36177266D01*
X107680047Y-35990861D01*
X107680045Y-35990858D01*
X107519144Y-35829957D01*
X107519140Y-35829954D01*
X107519139Y-35829953D01*
X107456471Y-35786073D01*
X107412849Y-35731499D01*
X107405655Y-35662001D01*
X107437177Y-35599646D01*
X107497407Y-35564231D01*
X107527597Y-35560500D01*
X109095500Y-35560500D01*
X109162539Y-35580185D01*
X109208294Y-35632989D01*
X109219500Y-35684500D01*
X109219500Y-83695500D01*
X109199815Y-83762539D01*
X109147011Y-83808294D01*
X109095500Y-83819500D01*
X25524500Y-83819500D01*
X25457461Y-83799815D01*
X25411706Y-83747011D01*
X25400500Y-83695500D01*
X25400500Y-35684500D01*
X25420185Y-35617461D01*
X25472989Y-35571706D01*
X25524500Y-35560500D01*
X100588652Y-35560500D01*
X100655691Y-35580185D01*
G37*
%TD.AperFunction*%
%TA.AperFunction,Conductor*%
G36*
X84846587Y-40015185D02*
G01*
X84867229Y-40031819D01*
X93318181Y-48482771D01*
X93351666Y-48544094D01*
X93354500Y-48570452D01*
X93354500Y-79426250D01*
X93342275Y-79479937D01*
X92818036Y-80571383D01*
X92771267Y-80623291D01*
X92703858Y-80641673D01*
X92637213Y-80620693D01*
X92604686Y-80588819D01*
X92478494Y-80408597D01*
X92311402Y-80241506D01*
X92311395Y-80241501D01*
X92117834Y-80105967D01*
X92117830Y-80105965D01*
X92046727Y-80072809D01*
X91903663Y-80006097D01*
X91903659Y-80006096D01*
X91903655Y-80006094D01*
X91675413Y-79944938D01*
X91675403Y-79944936D01*
X91440001Y-79924341D01*
X91439999Y-79924341D01*
X91204596Y-79944936D01*
X91204586Y-79944938D01*
X90976344Y-80006094D01*
X90976335Y-80006098D01*
X90762171Y-80105964D01*
X90762169Y-80105965D01*
X90568597Y-80241505D01*
X90401505Y-80408597D01*
X90271575Y-80594158D01*
X90216998Y-80637783D01*
X90147500Y-80644977D01*
X90085145Y-80613454D01*
X90068425Y-80594158D01*
X89938494Y-80408597D01*
X89771402Y-80241506D01*
X89771395Y-80241501D01*
X89577834Y-80105967D01*
X89577830Y-80105965D01*
X89506727Y-80072809D01*
X89363663Y-80006097D01*
X89363659Y-80006096D01*
X89363655Y-80006094D01*
X89135413Y-79944938D01*
X89135403Y-79944936D01*
X88900001Y-79924341D01*
X88899999Y-79924341D01*
X88664596Y-79944936D01*
X88664586Y-79944938D01*
X88436344Y-80006094D01*
X88436335Y-80006098D01*
X88222171Y-80105964D01*
X88222169Y-80105965D01*
X88028597Y-80241505D01*
X87861505Y-80408597D01*
X87731575Y-80594158D01*
X87676998Y-80637783D01*
X87607500Y-80644977D01*
X87545145Y-80613454D01*
X87528425Y-80594158D01*
X87398494Y-80408597D01*
X87231402Y-80241506D01*
X87231395Y-80241501D01*
X87037834Y-80105967D01*
X87037830Y-80105965D01*
X86966727Y-80072809D01*
X86823663Y-80006097D01*
X86823659Y-80006096D01*
X86823655Y-80006094D01*
X86595413Y-79944938D01*
X86595403Y-79944936D01*
X86360001Y-79924341D01*
X86359999Y-79924341D01*
X86124596Y-79944936D01*
X86124586Y-79944938D01*
X85896344Y-80006094D01*
X85896335Y-80006098D01*
X85682171Y-80105964D01*
X85682169Y-80105965D01*
X85488597Y-80241505D01*
X85321508Y-80408594D01*
X85191574Y-80594159D01*
X85136997Y-80637784D01*
X85067498Y-80644976D01*
X85005144Y-80613454D01*
X84988424Y-80594158D01*
X84858494Y-80408597D01*
X84691402Y-80241506D01*
X84691395Y-80241501D01*
X84497834Y-80105967D01*
X84497830Y-80105965D01*
X84426727Y-80072809D01*
X84283663Y-80006097D01*
X84283659Y-80006096D01*
X84283655Y-80006094D01*
X84055413Y-79944938D01*
X84055403Y-79944936D01*
X83820001Y-79924341D01*
X83819999Y-79924341D01*
X83584596Y-79944936D01*
X83584586Y-79944938D01*
X83356344Y-80006094D01*
X83356335Y-80006098D01*
X83142171Y-80105964D01*
X83142169Y-80105965D01*
X82948597Y-80241505D01*
X82781505Y-80408597D01*
X82651575Y-80594158D01*
X82596998Y-80637783D01*
X82527500Y-80644977D01*
X82465145Y-80613454D01*
X82448425Y-80594158D01*
X82318494Y-80408597D01*
X82151402Y-80241506D01*
X82151395Y-80241501D01*
X81957834Y-80105967D01*
X81957830Y-80105965D01*
X81886727Y-80072809D01*
X81743663Y-80006097D01*
X81743659Y-80006096D01*
X81743655Y-80006094D01*
X81515413Y-79944938D01*
X81515403Y-79944936D01*
X81280001Y-79924341D01*
X81279999Y-79924341D01*
X81044596Y-79944936D01*
X81044586Y-79944938D01*
X80816344Y-80006094D01*
X80816335Y-80006098D01*
X80602171Y-80105964D01*
X80602169Y-80105965D01*
X80408597Y-80241505D01*
X80241505Y-80408597D01*
X80111575Y-80594158D01*
X80056998Y-80637783D01*
X79987500Y-80644977D01*
X79925145Y-80613454D01*
X79908425Y-80594158D01*
X79778494Y-80408597D01*
X79611402Y-80241506D01*
X79611395Y-80241501D01*
X79417834Y-80105967D01*
X79417830Y-80105965D01*
X79346727Y-80072809D01*
X79203663Y-80006097D01*
X79203659Y-80006096D01*
X79203655Y-80006094D01*
X78975413Y-79944938D01*
X78975403Y-79944936D01*
X78740001Y-79924341D01*
X78739999Y-79924341D01*
X78504596Y-79944936D01*
X78504586Y-79944938D01*
X78276344Y-80006094D01*
X78276335Y-80006098D01*
X78062171Y-80105964D01*
X78062169Y-80105965D01*
X77868597Y-80241505D01*
X77701505Y-80408597D01*
X77571575Y-80594158D01*
X77516998Y-80637783D01*
X77447500Y-80644977D01*
X77385145Y-80613454D01*
X77368425Y-80594158D01*
X77238494Y-80408597D01*
X77071402Y-80241506D01*
X77071395Y-80241501D01*
X76877834Y-80105967D01*
X76877830Y-80105965D01*
X76806727Y-80072809D01*
X76663663Y-80006097D01*
X76663659Y-80006096D01*
X76663655Y-80006094D01*
X76435413Y-79944938D01*
X76435403Y-79944936D01*
X76200001Y-79924341D01*
X76199999Y-79924341D01*
X75964596Y-79944936D01*
X75964586Y-79944938D01*
X75736344Y-80006094D01*
X75736335Y-80006098D01*
X75522171Y-80105964D01*
X75522169Y-80105965D01*
X75328597Y-80241505D01*
X75161505Y-80408597D01*
X75031575Y-80594158D01*
X74976998Y-80637783D01*
X74907500Y-80644977D01*
X74845145Y-80613454D01*
X74828425Y-80594158D01*
X74698494Y-80408597D01*
X74531402Y-80241506D01*
X74531395Y-80241501D01*
X74337834Y-80105967D01*
X74337830Y-80105965D01*
X74266727Y-80072809D01*
X74123663Y-80006097D01*
X74123659Y-80006096D01*
X74123655Y-80006094D01*
X73895413Y-79944938D01*
X73895403Y-79944936D01*
X73660001Y-79924341D01*
X73659610Y-79924341D01*
X73659444Y-79924292D01*
X73654606Y-79923869D01*
X73654691Y-79922896D01*
X73592571Y-79904656D01*
X73546816Y-79851852D01*
X73536872Y-79782694D01*
X73565897Y-79719138D01*
X73571929Y-79712660D01*
X81707199Y-71577390D01*
X89918786Y-63365802D01*
X89931048Y-63355980D01*
X89930865Y-63355759D01*
X89936873Y-63350788D01*
X89936877Y-63350786D01*
X89983649Y-63300977D01*
X89984891Y-63299697D01*
X90005120Y-63279470D01*
X90009373Y-63273986D01*
X90013150Y-63269563D01*
X90045062Y-63235582D01*
X90054714Y-63218023D01*
X90065389Y-63201772D01*
X90077674Y-63185936D01*
X90096186Y-63143152D01*
X90098742Y-63137935D01*
X90121197Y-63097092D01*
X90126180Y-63077680D01*
X90132477Y-63059291D01*
X90140438Y-63040895D01*
X90147729Y-62994853D01*
X90148908Y-62989162D01*
X90160500Y-62944019D01*
X90160500Y-62923983D01*
X90162027Y-62904582D01*
X90165160Y-62884804D01*
X90160775Y-62838415D01*
X90160500Y-62832577D01*
X90160500Y-46437742D01*
X90162224Y-46422122D01*
X90161939Y-46422096D01*
X90162673Y-46414333D01*
X90160531Y-46346152D01*
X90160500Y-46344205D01*
X90160500Y-46315654D01*
X90160500Y-46315650D01*
X90159631Y-46308772D01*
X90159172Y-46302943D01*
X90157709Y-46256372D01*
X90152122Y-46237144D01*
X90148174Y-46218084D01*
X90145663Y-46198204D01*
X90128512Y-46154887D01*
X90126619Y-46149358D01*
X90113618Y-46104609D01*
X90113616Y-46104606D01*
X90103423Y-46087371D01*
X90094861Y-46069894D01*
X90087487Y-46051270D01*
X90087486Y-46051268D01*
X90060079Y-46013545D01*
X90056888Y-46008686D01*
X90033172Y-45968583D01*
X90033165Y-45968574D01*
X90019006Y-45954415D01*
X90006368Y-45939619D01*
X89994594Y-45923413D01*
X89958688Y-45893709D01*
X89954376Y-45889786D01*
X84955803Y-40891212D01*
X84945980Y-40878950D01*
X84945759Y-40879134D01*
X84940786Y-40873122D01*
X84891066Y-40826432D01*
X84889666Y-40825075D01*
X84869476Y-40804884D01*
X84863986Y-40800625D01*
X84859561Y-40796847D01*
X84825582Y-40764938D01*
X84825580Y-40764936D01*
X84825577Y-40764935D01*
X84808029Y-40755288D01*
X84791763Y-40744604D01*
X84775933Y-40732325D01*
X84733168Y-40713818D01*
X84727922Y-40711248D01*
X84687093Y-40688803D01*
X84687092Y-40688802D01*
X84667693Y-40683822D01*
X84649281Y-40677518D01*
X84630898Y-40669562D01*
X84630892Y-40669560D01*
X84584874Y-40662272D01*
X84579152Y-40661087D01*
X84534021Y-40649500D01*
X84534019Y-40649500D01*
X84513984Y-40649500D01*
X84494586Y-40647973D01*
X84487162Y-40646797D01*
X84474805Y-40644840D01*
X84474804Y-40644840D01*
X84428416Y-40649225D01*
X84422578Y-40649500D01*
X75647737Y-40649500D01*
X75632120Y-40647776D01*
X75632093Y-40648062D01*
X75624331Y-40647327D01*
X75556171Y-40649469D01*
X75554224Y-40649500D01*
X75525650Y-40649500D01*
X75524929Y-40649590D01*
X75518757Y-40650369D01*
X75512945Y-40650826D01*
X75466378Y-40652290D01*
X75466367Y-40652292D01*
X75447134Y-40657879D01*
X75428094Y-40661822D01*
X75408217Y-40664334D01*
X75408210Y-40664335D01*
X75408208Y-40664336D01*
X75408206Y-40664336D01*
X75408205Y-40664337D01*
X75364868Y-40681494D01*
X75359342Y-40683386D01*
X75314611Y-40696382D01*
X75314608Y-40696383D01*
X75297363Y-40706581D01*
X75279901Y-40715135D01*
X75261272Y-40722511D01*
X75261267Y-40722513D01*
X75223564Y-40749906D01*
X75218682Y-40753112D01*
X75178580Y-40776828D01*
X75164408Y-40791000D01*
X75149623Y-40803628D01*
X75133412Y-40815407D01*
X75103709Y-40851310D01*
X75099777Y-40855631D01*
X71916797Y-44038610D01*
X71870731Y-44067737D01*
X70687325Y-44489349D01*
X70682567Y-44490831D01*
X70673511Y-44493257D01*
X70673503Y-44493260D01*
X70666946Y-44496318D01*
X70661563Y-44498526D01*
X70652693Y-44501687D01*
X70646773Y-44503882D01*
X70643228Y-44505247D01*
X70583117Y-44533044D01*
X70577574Y-44536347D01*
X70577461Y-44536158D01*
X70563133Y-44544726D01*
X70467271Y-44589428D01*
X70467264Y-44589432D01*
X70280858Y-44719954D01*
X70119954Y-44880858D01*
X69989432Y-45067265D01*
X69989431Y-45067267D01*
X69962382Y-45125275D01*
X69916209Y-45177714D01*
X69849016Y-45196866D01*
X69782135Y-45176650D01*
X69737618Y-45125275D01*
X69737618Y-45125274D01*
X69710568Y-45067266D01*
X69580047Y-44880861D01*
X69580045Y-44880858D01*
X69419141Y-44719954D01*
X69232734Y-44589432D01*
X69232732Y-44589431D01*
X69026497Y-44493261D01*
X69026488Y-44493258D01*
X68806697Y-44434366D01*
X68806693Y-44434365D01*
X68806692Y-44434365D01*
X68806691Y-44434364D01*
X68806686Y-44434364D01*
X68580002Y-44414532D01*
X68579998Y-44414532D01*
X68353313Y-44434364D01*
X68353302Y-44434366D01*
X68133511Y-44493258D01*
X68133502Y-44493261D01*
X67927267Y-44589431D01*
X67927265Y-44589432D01*
X67740858Y-44719954D01*
X67579954Y-44880858D01*
X67449432Y-45067265D01*
X67449430Y-45067268D01*
X67422380Y-45125277D01*
X67376207Y-45177715D01*
X67309013Y-45196866D01*
X67242132Y-45176649D01*
X67197619Y-45125277D01*
X67170568Y-45067266D01*
X67040047Y-44880861D01*
X67040045Y-44880858D01*
X66879141Y-44719954D01*
X66692734Y-44589432D01*
X66692732Y-44589431D01*
X66486497Y-44493261D01*
X66486488Y-44493258D01*
X66266697Y-44434366D01*
X66266693Y-44434365D01*
X66266692Y-44434365D01*
X66266691Y-44434364D01*
X66266686Y-44434364D01*
X66040002Y-44414532D01*
X66039998Y-44414532D01*
X65813313Y-44434364D01*
X65813302Y-44434366D01*
X65593511Y-44493258D01*
X65593502Y-44493261D01*
X65387267Y-44589431D01*
X65387265Y-44589432D01*
X65200858Y-44719954D01*
X65039954Y-44880858D01*
X64909432Y-45067265D01*
X64909431Y-45067267D01*
X64882382Y-45125275D01*
X64836209Y-45177714D01*
X64769016Y-45196866D01*
X64702135Y-45176650D01*
X64657618Y-45125275D01*
X64657618Y-45125274D01*
X64630568Y-45067266D01*
X64500047Y-44880861D01*
X64500045Y-44880858D01*
X64339141Y-44719954D01*
X64152734Y-44589432D01*
X64152732Y-44589431D01*
X63946497Y-44493261D01*
X63946488Y-44493258D01*
X63726697Y-44434366D01*
X63726693Y-44434365D01*
X63726692Y-44434365D01*
X63726691Y-44434364D01*
X63726686Y-44434364D01*
X63500002Y-44414532D01*
X63499998Y-44414532D01*
X63273313Y-44434364D01*
X63273302Y-44434366D01*
X63053511Y-44493258D01*
X63053502Y-44493261D01*
X62847267Y-44589431D01*
X62847265Y-44589432D01*
X62660858Y-44719954D01*
X62499954Y-44880858D01*
X62369432Y-45067265D01*
X62369431Y-45067267D01*
X62342382Y-45125275D01*
X62296209Y-45177714D01*
X62229016Y-45196866D01*
X62162135Y-45176650D01*
X62117618Y-45125275D01*
X62117618Y-45125274D01*
X62090568Y-45067266D01*
X61960047Y-44880861D01*
X61960045Y-44880858D01*
X61799141Y-44719954D01*
X61612734Y-44589432D01*
X61612732Y-44589431D01*
X61406497Y-44493261D01*
X61406488Y-44493258D01*
X61186697Y-44434366D01*
X61186693Y-44434365D01*
X61186692Y-44434365D01*
X61186691Y-44434364D01*
X61186686Y-44434364D01*
X60960002Y-44414532D01*
X60959998Y-44414532D01*
X60733313Y-44434364D01*
X60733302Y-44434366D01*
X60513511Y-44493258D01*
X60513502Y-44493261D01*
X60307267Y-44589431D01*
X60307265Y-44589432D01*
X60120858Y-44719954D01*
X59959954Y-44880858D01*
X59829432Y-45067265D01*
X59829431Y-45067267D01*
X59802382Y-45125275D01*
X59756209Y-45177714D01*
X59689016Y-45196866D01*
X59622135Y-45176650D01*
X59577618Y-45125275D01*
X59577618Y-45125274D01*
X59550568Y-45067266D01*
X59420047Y-44880861D01*
X59420045Y-44880858D01*
X59259141Y-44719954D01*
X59072734Y-44589432D01*
X59072732Y-44589431D01*
X58866497Y-44493261D01*
X58866488Y-44493258D01*
X58646697Y-44434366D01*
X58646693Y-44434365D01*
X58646692Y-44434365D01*
X58646691Y-44434364D01*
X58646686Y-44434364D01*
X58420002Y-44414532D01*
X58419998Y-44414532D01*
X58193313Y-44434364D01*
X58193302Y-44434366D01*
X57973511Y-44493258D01*
X57973502Y-44493261D01*
X57767267Y-44589431D01*
X57767265Y-44589432D01*
X57580858Y-44719954D01*
X57419954Y-44880858D01*
X57289432Y-45067265D01*
X57289431Y-45067267D01*
X57262382Y-45125275D01*
X57216209Y-45177714D01*
X57149016Y-45196866D01*
X57082135Y-45176650D01*
X57037618Y-45125275D01*
X57037618Y-45125274D01*
X57010568Y-45067266D01*
X56880047Y-44880861D01*
X56880045Y-44880858D01*
X56719141Y-44719954D01*
X56532734Y-44589432D01*
X56532732Y-44589431D01*
X56326497Y-44493261D01*
X56326488Y-44493258D01*
X56106697Y-44434366D01*
X56106693Y-44434365D01*
X56106692Y-44434365D01*
X56106691Y-44434364D01*
X56106686Y-44434364D01*
X55880002Y-44414532D01*
X55879998Y-44414532D01*
X55653313Y-44434364D01*
X55653302Y-44434366D01*
X55433511Y-44493258D01*
X55433502Y-44493261D01*
X55227267Y-44589431D01*
X55227265Y-44589432D01*
X55040858Y-44719954D01*
X54879954Y-44880858D01*
X54749432Y-45067265D01*
X54749431Y-45067267D01*
X54722382Y-45125275D01*
X54676209Y-45177714D01*
X54609016Y-45196866D01*
X54542135Y-45176650D01*
X54497618Y-45125275D01*
X54497618Y-45125274D01*
X54470568Y-45067266D01*
X54340047Y-44880861D01*
X54340045Y-44880858D01*
X54179141Y-44719954D01*
X53992734Y-44589432D01*
X53992732Y-44589431D01*
X53786497Y-44493261D01*
X53786488Y-44493258D01*
X53566697Y-44434366D01*
X53566693Y-44434365D01*
X53566692Y-44434365D01*
X53566691Y-44434364D01*
X53566686Y-44434364D01*
X53340002Y-44414532D01*
X53339998Y-44414532D01*
X53113313Y-44434364D01*
X53113302Y-44434366D01*
X52893511Y-44493258D01*
X52893502Y-44493261D01*
X52687267Y-44589431D01*
X52687265Y-44589432D01*
X52500858Y-44719954D01*
X52339954Y-44880858D01*
X52209432Y-45067265D01*
X52209431Y-45067267D01*
X52182382Y-45125275D01*
X52136209Y-45177714D01*
X52069016Y-45196866D01*
X52002135Y-45176650D01*
X51957618Y-45125275D01*
X51957618Y-45125274D01*
X51930568Y-45067266D01*
X51800047Y-44880861D01*
X51800045Y-44880858D01*
X51639141Y-44719954D01*
X51452734Y-44589432D01*
X51452732Y-44589431D01*
X51246497Y-44493261D01*
X51246488Y-44493258D01*
X51026697Y-44434366D01*
X51026693Y-44434365D01*
X51026692Y-44434365D01*
X51026691Y-44434364D01*
X51026686Y-44434364D01*
X50800002Y-44414532D01*
X50799996Y-44414532D01*
X50755894Y-44418390D01*
X50687394Y-44404623D01*
X50637212Y-44356007D01*
X50621279Y-44287978D01*
X50644655Y-44222135D01*
X50657400Y-44207188D01*
X54832771Y-40031819D01*
X54894095Y-39998334D01*
X54920453Y-39995500D01*
X84779548Y-39995500D01*
X84846587Y-40015185D01*
G37*
%TD.AperFunction*%
%TA.AperFunction,Conductor*%
G36*
X85481587Y-38110185D02*
G01*
X85502229Y-38126819D01*
X95858181Y-48482771D01*
X95891666Y-48544094D01*
X95894500Y-48570452D01*
X95894500Y-79426250D01*
X95882275Y-79479937D01*
X95361774Y-80563600D01*
X95315005Y-80615508D01*
X95247596Y-80633890D01*
X95180951Y-80612910D01*
X95138224Y-80563600D01*
X94617725Y-79479937D01*
X94605500Y-79426250D01*
X94605500Y-48342742D01*
X94607224Y-48327122D01*
X94606939Y-48327095D01*
X94607673Y-48319333D01*
X94605531Y-48251139D01*
X94605500Y-48249192D01*
X94605500Y-48220656D01*
X94605500Y-48220650D01*
X94604632Y-48213778D01*
X94604173Y-48207952D01*
X94604173Y-48207945D01*
X94602710Y-48161373D01*
X94597119Y-48142130D01*
X94593173Y-48123078D01*
X94590664Y-48103208D01*
X94573504Y-48059867D01*
X94571624Y-48054379D01*
X94558618Y-48009610D01*
X94548422Y-47992369D01*
X94539861Y-47974894D01*
X94532487Y-47956270D01*
X94532485Y-47956267D01*
X94505079Y-47918545D01*
X94501888Y-47913686D01*
X94478172Y-47873583D01*
X94478165Y-47873574D01*
X94464006Y-47859415D01*
X94451368Y-47844619D01*
X94439594Y-47828413D01*
X94434762Y-47824416D01*
X94403688Y-47798709D01*
X94399376Y-47794786D01*
X85590803Y-38986212D01*
X85580980Y-38973950D01*
X85580759Y-38974134D01*
X85575786Y-38968122D01*
X85526066Y-38921432D01*
X85524666Y-38920075D01*
X85504476Y-38899884D01*
X85498986Y-38895625D01*
X85494561Y-38891847D01*
X85460582Y-38859938D01*
X85460580Y-38859936D01*
X85460577Y-38859935D01*
X85443029Y-38850288D01*
X85426763Y-38839604D01*
X85410933Y-38827325D01*
X85368168Y-38808818D01*
X85362922Y-38806248D01*
X85322093Y-38783803D01*
X85322092Y-38783802D01*
X85302693Y-38778822D01*
X85284281Y-38772518D01*
X85265898Y-38764562D01*
X85265892Y-38764560D01*
X85219874Y-38757272D01*
X85214152Y-38756087D01*
X85169021Y-38744500D01*
X85169019Y-38744500D01*
X85148984Y-38744500D01*
X85129586Y-38742973D01*
X85122162Y-38741797D01*
X85109805Y-38739840D01*
X85109804Y-38739840D01*
X85063416Y-38744225D01*
X85057578Y-38744500D01*
X54692738Y-38744500D01*
X54677121Y-38742776D01*
X54677094Y-38743062D01*
X54669332Y-38742327D01*
X54601172Y-38744469D01*
X54599225Y-38744500D01*
X54570650Y-38744500D01*
X54569929Y-38744590D01*
X54563757Y-38745369D01*
X54557945Y-38745826D01*
X54511373Y-38747290D01*
X54511372Y-38747290D01*
X54492129Y-38752881D01*
X54473079Y-38756825D01*
X54453211Y-38759334D01*
X54453209Y-38759335D01*
X54409884Y-38776488D01*
X54404357Y-38778380D01*
X54359610Y-38791381D01*
X54359609Y-38791382D01*
X54342367Y-38801579D01*
X54324899Y-38810137D01*
X54306269Y-38817513D01*
X54306267Y-38817514D01*
X54268576Y-38844898D01*
X54263694Y-38848105D01*
X54223579Y-38871830D01*
X54209408Y-38886000D01*
X54194623Y-38898628D01*
X54178412Y-38910407D01*
X54148709Y-38946310D01*
X54144777Y-38950631D01*
X49056797Y-44038610D01*
X49010731Y-44067737D01*
X47827325Y-44489349D01*
X47822567Y-44490831D01*
X47813511Y-44493257D01*
X47813503Y-44493260D01*
X47806946Y-44496318D01*
X47801563Y-44498526D01*
X47792693Y-44501687D01*
X47786773Y-44503882D01*
X47783228Y-44505247D01*
X47723117Y-44533044D01*
X47717574Y-44536347D01*
X47717461Y-44536158D01*
X47703133Y-44544726D01*
X47607271Y-44589428D01*
X47607264Y-44589432D01*
X47420858Y-44719954D01*
X47259954Y-44880858D01*
X47129432Y-45067265D01*
X47129431Y-45067267D01*
X47102382Y-45125275D01*
X47056209Y-45177714D01*
X46989016Y-45196866D01*
X46922135Y-45176650D01*
X46877618Y-45125275D01*
X46877618Y-45125274D01*
X46850568Y-45067266D01*
X46720047Y-44880861D01*
X46720045Y-44880858D01*
X46559141Y-44719954D01*
X46372734Y-44589432D01*
X46372732Y-44589431D01*
X46166497Y-44493261D01*
X46166488Y-44493258D01*
X45946697Y-44434366D01*
X45946693Y-44434365D01*
X45946692Y-44434365D01*
X45946691Y-44434364D01*
X45946686Y-44434364D01*
X45720002Y-44414532D01*
X45719998Y-44414532D01*
X45493313Y-44434364D01*
X45493302Y-44434366D01*
X45273511Y-44493258D01*
X45273502Y-44493261D01*
X45067267Y-44589431D01*
X45067265Y-44589432D01*
X44880858Y-44719954D01*
X44719954Y-44880858D01*
X44589432Y-45067265D01*
X44589430Y-45067268D01*
X44562380Y-45125277D01*
X44516207Y-45177715D01*
X44449013Y-45196866D01*
X44382132Y-45176649D01*
X44337618Y-45125277D01*
X44310568Y-45067266D01*
X44180047Y-44880861D01*
X44180045Y-44880858D01*
X44019141Y-44719954D01*
X43832734Y-44589432D01*
X43832732Y-44589431D01*
X43626497Y-44493261D01*
X43626488Y-44493258D01*
X43406697Y-44434366D01*
X43406693Y-44434365D01*
X43406692Y-44434365D01*
X43406691Y-44434364D01*
X43406686Y-44434364D01*
X43180002Y-44414532D01*
X43179996Y-44414532D01*
X43135894Y-44418390D01*
X43067394Y-44404623D01*
X43017212Y-44356007D01*
X43001279Y-44287978D01*
X43024655Y-44222135D01*
X43037400Y-44207188D01*
X49117771Y-38126819D01*
X49179095Y-38093334D01*
X49205453Y-38090500D01*
X85414548Y-38090500D01*
X85481587Y-38110185D01*
G37*
%TD.AperFunction*%
%TA.AperFunction,Conductor*%
G36*
X53372444Y-62410188D02*
G01*
X53405021Y-62471999D01*
X53399009Y-62541609D01*
X53371160Y-62584248D01*
X36428504Y-79526903D01*
X36381897Y-79556222D01*
X35734537Y-79783487D01*
X35664762Y-79787120D01*
X35604099Y-79752453D01*
X35571809Y-79690493D01*
X35578143Y-79620911D01*
X35605780Y-79578808D01*
X52543203Y-62641385D01*
X52589265Y-62612261D01*
X53241865Y-62379758D01*
X53311621Y-62375803D01*
X53372444Y-62410188D01*
G37*
%TD.AperFunction*%
%TA.AperFunction,Conductor*%
G36*
X55912444Y-62410188D02*
G01*
X55945021Y-62471999D01*
X55939009Y-62541609D01*
X55911160Y-62584248D01*
X38968504Y-79526903D01*
X38921897Y-79556222D01*
X38274537Y-79783487D01*
X38204762Y-79787120D01*
X38144099Y-79752453D01*
X38111809Y-79690493D01*
X38118143Y-79620911D01*
X38145780Y-79578808D01*
X55083203Y-62641385D01*
X55129265Y-62612261D01*
X55781865Y-62379758D01*
X55851621Y-62375803D01*
X55912444Y-62410188D01*
G37*
%TD.AperFunction*%
%TA.AperFunction,Conductor*%
G36*
X58452444Y-62410188D02*
G01*
X58485021Y-62471999D01*
X58479009Y-62541609D01*
X58451160Y-62584248D01*
X41508504Y-79526903D01*
X41461897Y-79556222D01*
X40814537Y-79783487D01*
X40744762Y-79787120D01*
X40684099Y-79752453D01*
X40651809Y-79690493D01*
X40658143Y-79620911D01*
X40685780Y-79578808D01*
X57623203Y-62641385D01*
X57669265Y-62612261D01*
X58321865Y-62379758D01*
X58391621Y-62375803D01*
X58452444Y-62410188D01*
G37*
%TD.AperFunction*%
%TA.AperFunction,Conductor*%
G36*
X60992444Y-62410188D02*
G01*
X61025021Y-62471999D01*
X61019009Y-62541609D01*
X60991160Y-62584248D01*
X44048504Y-79526903D01*
X44001897Y-79556222D01*
X43354537Y-79783487D01*
X43284762Y-79787120D01*
X43224099Y-79752453D01*
X43191809Y-79690493D01*
X43198143Y-79620911D01*
X43225780Y-79578808D01*
X60163203Y-62641385D01*
X60209265Y-62612261D01*
X60861865Y-62379758D01*
X60931621Y-62375803D01*
X60992444Y-62410188D01*
G37*
%TD.AperFunction*%
%TA.AperFunction,Conductor*%
G36*
X63532444Y-62410188D02*
G01*
X63565021Y-62471999D01*
X63559009Y-62541609D01*
X63531160Y-62584248D01*
X46588504Y-79526903D01*
X46541897Y-79556222D01*
X45894537Y-79783487D01*
X45824762Y-79787120D01*
X45764099Y-79752453D01*
X45731809Y-79690493D01*
X45738143Y-79620911D01*
X45765780Y-79578808D01*
X62703203Y-62641385D01*
X62749265Y-62612261D01*
X63401865Y-62379758D01*
X63471621Y-62375803D01*
X63532444Y-62410188D01*
G37*
%TD.AperFunction*%
%TA.AperFunction,Conductor*%
G36*
X66072444Y-62410188D02*
G01*
X66105021Y-62471999D01*
X66099009Y-62541609D01*
X66071160Y-62584248D01*
X49128504Y-79526903D01*
X49081897Y-79556222D01*
X48434537Y-79783487D01*
X48364762Y-79787120D01*
X48304099Y-79752453D01*
X48271809Y-79690493D01*
X48278143Y-79620911D01*
X48305780Y-79578808D01*
X65243203Y-62641385D01*
X65289265Y-62612261D01*
X65941865Y-62379758D01*
X66011621Y-62375803D01*
X66072444Y-62410188D01*
G37*
%TD.AperFunction*%
%TA.AperFunction,Conductor*%
G36*
X68612444Y-62410188D02*
G01*
X68645021Y-62471999D01*
X68639009Y-62541609D01*
X68611160Y-62584248D01*
X51668504Y-79526903D01*
X51621897Y-79556222D01*
X50974537Y-79783487D01*
X50904762Y-79787120D01*
X50844099Y-79752453D01*
X50811809Y-79690493D01*
X50818143Y-79620911D01*
X50845780Y-79578808D01*
X67783203Y-62641385D01*
X67829265Y-62612261D01*
X68481865Y-62379758D01*
X68551621Y-62375803D01*
X68612444Y-62410188D01*
G37*
%TD.AperFunction*%
%TA.AperFunction,Conductor*%
G36*
X71152444Y-62410188D02*
G01*
X71185021Y-62471999D01*
X71179009Y-62541609D01*
X71151160Y-62584248D01*
X54208504Y-79526903D01*
X54161897Y-79556222D01*
X53514537Y-79783487D01*
X53444762Y-79787120D01*
X53384099Y-79752453D01*
X53351809Y-79690493D01*
X53358143Y-79620911D01*
X53385780Y-79578808D01*
X70323203Y-62641385D01*
X70369265Y-62612261D01*
X71021865Y-62379758D01*
X71091621Y-62375803D01*
X71152444Y-62410188D01*
G37*
%TD.AperFunction*%
%TA.AperFunction,Conductor*%
G36*
X73692444Y-62410188D02*
G01*
X73725021Y-62471999D01*
X73719009Y-62541609D01*
X73691160Y-62584248D01*
X56748504Y-79526903D01*
X56701897Y-79556222D01*
X56054537Y-79783487D01*
X55984762Y-79787120D01*
X55924099Y-79752453D01*
X55891809Y-79690493D01*
X55898143Y-79620911D01*
X55925780Y-79578808D01*
X72863203Y-62641385D01*
X72909265Y-62612261D01*
X73561865Y-62379758D01*
X73631621Y-62375803D01*
X73692444Y-62410188D01*
G37*
%TD.AperFunction*%
%TA.AperFunction,Conductor*%
G36*
X76232444Y-62410188D02*
G01*
X76265021Y-62471999D01*
X76259009Y-62541609D01*
X76231160Y-62584248D01*
X59288504Y-79526903D01*
X59241897Y-79556222D01*
X58594537Y-79783487D01*
X58524762Y-79787120D01*
X58464099Y-79752453D01*
X58431809Y-79690493D01*
X58438143Y-79620911D01*
X58465780Y-79578808D01*
X75403203Y-62641385D01*
X75449265Y-62612261D01*
X76101865Y-62379758D01*
X76171621Y-62375803D01*
X76232444Y-62410188D01*
G37*
%TD.AperFunction*%
%TA.AperFunction,Conductor*%
G36*
X78772444Y-62410188D02*
G01*
X78805021Y-62471999D01*
X78799009Y-62541609D01*
X78771160Y-62584248D01*
X61828504Y-79526903D01*
X61781897Y-79556222D01*
X61134537Y-79783487D01*
X61064762Y-79787120D01*
X61004099Y-79752453D01*
X60971809Y-79690493D01*
X60978143Y-79620911D01*
X61005780Y-79578808D01*
X77943203Y-62641385D01*
X77989265Y-62612261D01*
X78641865Y-62379758D01*
X78711621Y-62375803D01*
X78772444Y-62410188D01*
G37*
%TD.AperFunction*%
%TA.AperFunction,Conductor*%
G36*
X81312444Y-62410188D02*
G01*
X81345021Y-62471999D01*
X81339009Y-62541609D01*
X81311160Y-62584248D01*
X64368504Y-79526903D01*
X64321897Y-79556222D01*
X63674537Y-79783487D01*
X63604762Y-79787120D01*
X63544099Y-79752453D01*
X63511809Y-79690493D01*
X63518143Y-79620911D01*
X63545780Y-79578808D01*
X80483203Y-62641385D01*
X80529265Y-62612261D01*
X81181865Y-62379758D01*
X81251621Y-62375803D01*
X81312444Y-62410188D01*
G37*
%TD.AperFunction*%
%TA.AperFunction,Conductor*%
G36*
X83576587Y-43825185D02*
G01*
X83597229Y-43841818D01*
X86968182Y-47212772D01*
X87001666Y-47274093D01*
X87004500Y-47300451D01*
X87004500Y-61919545D01*
X86984815Y-61986584D01*
X86968181Y-62007226D01*
X69448504Y-79526903D01*
X69401897Y-79556222D01*
X68754537Y-79783487D01*
X68684762Y-79787120D01*
X68624099Y-79752453D01*
X68591809Y-79690493D01*
X68598143Y-79620911D01*
X68625780Y-79578808D01*
X86108788Y-62095801D01*
X86121042Y-62085986D01*
X86120859Y-62085764D01*
X86126868Y-62080791D01*
X86126877Y-62080786D01*
X86173607Y-62031022D01*
X86174846Y-62029743D01*
X86195120Y-62009471D01*
X86199379Y-62003978D01*
X86203152Y-61999561D01*
X86235062Y-61965582D01*
X86244715Y-61948020D01*
X86255389Y-61931770D01*
X86267673Y-61915936D01*
X86286180Y-61873167D01*
X86288749Y-61867924D01*
X86290953Y-61863913D01*
X86311197Y-61827092D01*
X86316177Y-61807691D01*
X86322478Y-61789288D01*
X86330438Y-61770896D01*
X86337730Y-61724849D01*
X86338911Y-61719152D01*
X86350500Y-61674019D01*
X86350500Y-61653983D01*
X86352027Y-61634582D01*
X86355160Y-61614804D01*
X86350775Y-61568415D01*
X86350500Y-61562577D01*
X86350500Y-50228687D01*
X86370185Y-50161648D01*
X86382350Y-50145715D01*
X86400891Y-50125122D01*
X86457533Y-50062216D01*
X86552179Y-49898284D01*
X86610674Y-49718256D01*
X86630460Y-49530000D01*
X86610674Y-49341744D01*
X86552179Y-49161716D01*
X86457533Y-48997784D01*
X86330871Y-48857112D01*
X86330870Y-48857111D01*
X86177734Y-48745851D01*
X86177729Y-48745848D01*
X86004807Y-48668857D01*
X86004802Y-48668855D01*
X85859001Y-48637865D01*
X85819646Y-48629500D01*
X85630354Y-48629500D01*
X85597897Y-48636398D01*
X85445197Y-48668855D01*
X85445192Y-48668857D01*
X85272270Y-48745848D01*
X85272265Y-48745851D01*
X85119129Y-48857111D01*
X84992466Y-48997785D01*
X84897821Y-49161715D01*
X84897818Y-49161722D01*
X84851813Y-49303313D01*
X84839326Y-49341744D01*
X84819540Y-49530000D01*
X84839326Y-49718256D01*
X84839327Y-49718259D01*
X84897818Y-49898277D01*
X84897821Y-49898284D01*
X84992467Y-50062216D01*
X85035772Y-50110310D01*
X85067650Y-50145715D01*
X85097880Y-50208706D01*
X85099500Y-50228687D01*
X85099500Y-61284546D01*
X85079815Y-61351585D01*
X85063181Y-61372227D01*
X66908504Y-79526903D01*
X66861897Y-79556222D01*
X66214537Y-79783487D01*
X66144762Y-79787120D01*
X66084099Y-79752453D01*
X66051809Y-79690493D01*
X66058143Y-79620911D01*
X66085780Y-79578808D01*
X84203786Y-61460802D01*
X84216048Y-61450980D01*
X84215865Y-61450759D01*
X84221873Y-61445788D01*
X84221877Y-61445786D01*
X84268649Y-61395977D01*
X84269891Y-61394697D01*
X84290120Y-61374470D01*
X84294373Y-61368986D01*
X84298150Y-61364563D01*
X84330062Y-61330582D01*
X84339714Y-61313023D01*
X84350389Y-61296772D01*
X84362674Y-61280936D01*
X84381186Y-61238152D01*
X84383742Y-61232935D01*
X84406197Y-61192092D01*
X84411180Y-61172680D01*
X84417477Y-61154291D01*
X84425438Y-61135895D01*
X84432729Y-61089853D01*
X84433908Y-61084162D01*
X84445500Y-61039019D01*
X84445500Y-61018982D01*
X84447027Y-60999582D01*
X84450160Y-60979804D01*
X84445775Y-60933415D01*
X84445500Y-60927577D01*
X84445500Y-50882742D01*
X84447224Y-50867122D01*
X84446939Y-50867096D01*
X84447673Y-50859333D01*
X84445531Y-50791152D01*
X84445500Y-50789205D01*
X84445500Y-50760654D01*
X84445500Y-50760650D01*
X84444631Y-50753772D01*
X84444172Y-50747943D01*
X84442709Y-50701372D01*
X84437122Y-50682144D01*
X84433174Y-50663084D01*
X84430663Y-50643204D01*
X84413512Y-50599887D01*
X84411619Y-50594358D01*
X84398618Y-50549609D01*
X84398616Y-50549606D01*
X84388423Y-50532371D01*
X84379861Y-50514894D01*
X84372487Y-50496270D01*
X84372486Y-50496268D01*
X84345079Y-50458545D01*
X84341888Y-50453686D01*
X84318172Y-50413583D01*
X84318165Y-50413574D01*
X84304006Y-50399415D01*
X84291368Y-50384619D01*
X84279594Y-50368413D01*
X84243688Y-50338709D01*
X84239376Y-50334786D01*
X81058383Y-47153792D01*
X81024898Y-47092469D01*
X81029882Y-47022777D01*
X81030000Y-47022617D01*
X81030000Y-46035686D01*
X81041955Y-46047641D01*
X81154852Y-46105165D01*
X81248519Y-46120000D01*
X81311481Y-46120000D01*
X81405148Y-46105165D01*
X81518045Y-46047641D01*
X81530000Y-46035685D01*
X81530000Y-46998872D01*
X81726317Y-46946269D01*
X81726326Y-46946265D01*
X81932482Y-46850134D01*
X82118820Y-46719657D01*
X82279657Y-46558820D01*
X82410134Y-46372482D01*
X82506265Y-46166326D01*
X82506269Y-46166317D01*
X82558872Y-45970000D01*
X81595686Y-45970000D01*
X81607641Y-45958045D01*
X81665165Y-45845148D01*
X81684986Y-45720000D01*
X81665165Y-45594852D01*
X81607641Y-45481955D01*
X81595686Y-45470000D01*
X82558872Y-45470000D01*
X82558872Y-45469999D01*
X82506269Y-45273682D01*
X82506265Y-45273673D01*
X82410134Y-45067517D01*
X82279657Y-44881179D01*
X82118820Y-44720342D01*
X81932482Y-44589865D01*
X81726328Y-44493734D01*
X81530000Y-44441127D01*
X81530000Y-45404314D01*
X81518045Y-45392359D01*
X81405148Y-45334835D01*
X81311481Y-45320000D01*
X81248519Y-45320000D01*
X81154852Y-45334835D01*
X81041955Y-45392359D01*
X81030000Y-45404314D01*
X81030000Y-44441127D01*
X80833671Y-44493734D01*
X80627517Y-44589865D01*
X80441179Y-44720342D01*
X80280342Y-44881179D01*
X80149867Y-45067515D01*
X80122657Y-45125867D01*
X80076484Y-45178306D01*
X80009290Y-45197457D01*
X79942409Y-45177241D01*
X79897893Y-45125865D01*
X79870684Y-45067515D01*
X79870568Y-45067266D01*
X79740047Y-44880861D01*
X79740045Y-44880858D01*
X79579141Y-44719954D01*
X79392734Y-44589432D01*
X79392732Y-44589431D01*
X79186497Y-44493261D01*
X79186488Y-44493258D01*
X78966697Y-44434366D01*
X78966693Y-44434365D01*
X78966692Y-44434365D01*
X78966691Y-44434364D01*
X78966686Y-44434364D01*
X78740002Y-44414532D01*
X78739998Y-44414532D01*
X78513313Y-44434364D01*
X78513302Y-44434366D01*
X78293511Y-44493258D01*
X78293502Y-44493261D01*
X78087267Y-44589431D01*
X78087265Y-44589432D01*
X77900858Y-44719954D01*
X77739954Y-44880858D01*
X77609432Y-45067265D01*
X77609431Y-45067267D01*
X77582382Y-45125275D01*
X77536209Y-45177714D01*
X77469016Y-45196866D01*
X77402135Y-45176650D01*
X77357618Y-45125275D01*
X77357618Y-45125274D01*
X77330568Y-45067266D01*
X77200047Y-44880861D01*
X77200045Y-44880858D01*
X77039141Y-44719954D01*
X76852734Y-44589432D01*
X76852732Y-44589431D01*
X76646497Y-44493261D01*
X76646488Y-44493258D01*
X76426697Y-44434366D01*
X76426693Y-44434365D01*
X76426692Y-44434365D01*
X76426691Y-44434364D01*
X76426686Y-44434364D01*
X76200002Y-44414532D01*
X76199997Y-44414532D01*
X76155896Y-44418390D01*
X76087397Y-44404623D01*
X76037214Y-44356007D01*
X76021281Y-44287979D01*
X76044657Y-44222135D01*
X76057409Y-44207181D01*
X76126206Y-44138385D01*
X76422771Y-43841819D01*
X76484095Y-43808334D01*
X76510453Y-43805500D01*
X83509548Y-43805500D01*
X83576587Y-43825185D01*
G37*
%TD.AperFunction*%
%TA.AperFunction,Conductor*%
G36*
X84211587Y-41920185D02*
G01*
X84232229Y-41936819D01*
X88873181Y-46577771D01*
X88906666Y-46639094D01*
X88909500Y-46665452D01*
X88909500Y-62554546D01*
X88889815Y-62621585D01*
X88873181Y-62642227D01*
X71988504Y-79526903D01*
X71941897Y-79556222D01*
X71294537Y-79783487D01*
X71224762Y-79787120D01*
X71164099Y-79752453D01*
X71131809Y-79690493D01*
X71138143Y-79620911D01*
X71165780Y-79578808D01*
X88013788Y-62730801D01*
X88026042Y-62720986D01*
X88025859Y-62720764D01*
X88031868Y-62715791D01*
X88031877Y-62715786D01*
X88078607Y-62666022D01*
X88079846Y-62664743D01*
X88100120Y-62644471D01*
X88104379Y-62638978D01*
X88108152Y-62634561D01*
X88140062Y-62600582D01*
X88149713Y-62583024D01*
X88160396Y-62566761D01*
X88172673Y-62550936D01*
X88191185Y-62508153D01*
X88193738Y-62502941D01*
X88216197Y-62462092D01*
X88221180Y-62442680D01*
X88227481Y-62424280D01*
X88235437Y-62405896D01*
X88242729Y-62359852D01*
X88243906Y-62354171D01*
X88255500Y-62309019D01*
X88255500Y-62288982D01*
X88257027Y-62269582D01*
X88260160Y-62249804D01*
X88255775Y-62203415D01*
X88255500Y-62197577D01*
X88255500Y-47072742D01*
X88257224Y-47057122D01*
X88256939Y-47057095D01*
X88257673Y-47049333D01*
X88255531Y-46981139D01*
X88255500Y-46979192D01*
X88255500Y-46950656D01*
X88255500Y-46950650D01*
X88254631Y-46943779D01*
X88254173Y-46937952D01*
X88253825Y-46926867D01*
X88252710Y-46891373D01*
X88247119Y-46872130D01*
X88243173Y-46853078D01*
X88240664Y-46833208D01*
X88223504Y-46789867D01*
X88221624Y-46784379D01*
X88208618Y-46739610D01*
X88198422Y-46722370D01*
X88189861Y-46704894D01*
X88182487Y-46686270D01*
X88182486Y-46686268D01*
X88155079Y-46648545D01*
X88151888Y-46643686D01*
X88149172Y-46639094D01*
X88128170Y-46603580D01*
X88128168Y-46603578D01*
X88128165Y-46603574D01*
X88114006Y-46589415D01*
X88101368Y-46574619D01*
X88089594Y-46558413D01*
X88071580Y-46543511D01*
X88053688Y-46528709D01*
X88049376Y-46524786D01*
X84320803Y-42796212D01*
X84310980Y-42783950D01*
X84310759Y-42784134D01*
X84305786Y-42778122D01*
X84256066Y-42731432D01*
X84254666Y-42730075D01*
X84234476Y-42709884D01*
X84228986Y-42705625D01*
X84224561Y-42701847D01*
X84190582Y-42669938D01*
X84190580Y-42669936D01*
X84190577Y-42669935D01*
X84173029Y-42660288D01*
X84156763Y-42649604D01*
X84140933Y-42637325D01*
X84098168Y-42618818D01*
X84092922Y-42616248D01*
X84052093Y-42593803D01*
X84052092Y-42593802D01*
X84032693Y-42588822D01*
X84014281Y-42582518D01*
X83995898Y-42574562D01*
X83995892Y-42574560D01*
X83949874Y-42567272D01*
X83944152Y-42566087D01*
X83899021Y-42554500D01*
X83899019Y-42554500D01*
X83878984Y-42554500D01*
X83859586Y-42552973D01*
X83852162Y-42551797D01*
X83839805Y-42549840D01*
X83839804Y-42549840D01*
X83793416Y-42554225D01*
X83787578Y-42554500D01*
X76282737Y-42554500D01*
X76267120Y-42552776D01*
X76267093Y-42553062D01*
X76259331Y-42552327D01*
X76191171Y-42554469D01*
X76189224Y-42554500D01*
X76160650Y-42554500D01*
X76159929Y-42554590D01*
X76153757Y-42555369D01*
X76147945Y-42555826D01*
X76101372Y-42557290D01*
X76101369Y-42557291D01*
X76082126Y-42562881D01*
X76063083Y-42566825D01*
X76043204Y-42569336D01*
X76043203Y-42569337D01*
X75999878Y-42586490D01*
X75994352Y-42588382D01*
X75949608Y-42601383D01*
X75949604Y-42601385D01*
X75932365Y-42611580D01*
X75914898Y-42620137D01*
X75896269Y-42627512D01*
X75896267Y-42627513D01*
X75858564Y-42654906D01*
X75853682Y-42658112D01*
X75813580Y-42681828D01*
X75799408Y-42696000D01*
X75784623Y-42708628D01*
X75768412Y-42720407D01*
X75738709Y-42756310D01*
X75734777Y-42760631D01*
X74456797Y-44038610D01*
X74410731Y-44067737D01*
X73758137Y-44300236D01*
X73688380Y-44304192D01*
X73627557Y-44269806D01*
X73594980Y-44207996D01*
X73600992Y-44138385D01*
X73628838Y-44095750D01*
X75787771Y-41936819D01*
X75849095Y-41903334D01*
X75875453Y-41900500D01*
X84144548Y-41900500D01*
X84211587Y-41920185D01*
G37*
%TD.AperFunction*%
%TA.AperFunction,Conductor*%
G36*
X50721424Y-62506885D02*
G01*
X50758938Y-62565829D01*
X50758630Y-62635698D01*
X50727489Y-62687919D01*
X33888504Y-79526903D01*
X33841897Y-79556222D01*
X33466949Y-79687853D01*
X33397174Y-79691486D01*
X33336511Y-79656819D01*
X33304221Y-79594859D01*
X33310555Y-79525277D01*
X33338192Y-79483174D01*
X50108639Y-62712726D01*
X50145300Y-62687391D01*
X50588796Y-62487216D01*
X50657997Y-62477579D01*
X50721424Y-62506885D01*
G37*
%TD.AperFunction*%
%TA.AperFunction,Conductor*%
G36*
X47662587Y-37600185D02*
G01*
X47708342Y-37652989D01*
X47718286Y-37722147D01*
X47689261Y-37785703D01*
X47683229Y-37792181D01*
X41436797Y-44038610D01*
X41390731Y-44067737D01*
X40207325Y-44489349D01*
X40202567Y-44490831D01*
X40193511Y-44493257D01*
X40193503Y-44493260D01*
X40186946Y-44496318D01*
X40181563Y-44498526D01*
X40172693Y-44501687D01*
X40166773Y-44503882D01*
X40163228Y-44505247D01*
X40103117Y-44533044D01*
X40097574Y-44536347D01*
X40097461Y-44536158D01*
X40083133Y-44544726D01*
X39987271Y-44589428D01*
X39987264Y-44589432D01*
X39800858Y-44719954D01*
X39639954Y-44880858D01*
X39509432Y-45067265D01*
X39509428Y-45067272D01*
X39484397Y-45120951D01*
X39438224Y-45173390D01*
X39371030Y-45192541D01*
X39304150Y-45172324D01*
X39259994Y-45121714D01*
X39259630Y-45120948D01*
X38926175Y-44418390D01*
X38737478Y-44020825D01*
X38725500Y-43967656D01*
X38725500Y-43662341D01*
X38737478Y-43609172D01*
X39154395Y-42730773D01*
X39291875Y-42441116D01*
X39294541Y-42435311D01*
X39296071Y-42431864D01*
X39311866Y-42388904D01*
X39313863Y-42384106D01*
X39326739Y-42356496D01*
X39385635Y-42136692D01*
X39405468Y-41910000D01*
X39385635Y-41683308D01*
X39326739Y-41463504D01*
X39230568Y-41257266D01*
X39100047Y-41070861D01*
X39100045Y-41070858D01*
X38939141Y-40909954D01*
X38752734Y-40779432D01*
X38752732Y-40779431D01*
X38546497Y-40683261D01*
X38546488Y-40683258D01*
X38326697Y-40624366D01*
X38326693Y-40624365D01*
X38326692Y-40624365D01*
X38326691Y-40624364D01*
X38326686Y-40624364D01*
X38100002Y-40604532D01*
X38099998Y-40604532D01*
X37873313Y-40624364D01*
X37873302Y-40624366D01*
X37653511Y-40683258D01*
X37653502Y-40683261D01*
X37447267Y-40779431D01*
X37447265Y-40779432D01*
X37260858Y-40909954D01*
X37099954Y-41070858D01*
X36969432Y-41257265D01*
X36969431Y-41257267D01*
X36873261Y-41463502D01*
X36873258Y-41463511D01*
X36814366Y-41683302D01*
X36814364Y-41683313D01*
X36794532Y-41909998D01*
X36794532Y-41910001D01*
X36814364Y-42136686D01*
X36814366Y-42136697D01*
X36873258Y-42356488D01*
X36873260Y-42356493D01*
X36873261Y-42356496D01*
X36886136Y-42384106D01*
X36898664Y-42410973D01*
X36901700Y-42418840D01*
X36909494Y-42444003D01*
X37072069Y-42786530D01*
X37462521Y-43609172D01*
X37462522Y-43609173D01*
X37474500Y-43662342D01*
X37474500Y-43967655D01*
X37462522Y-44020823D01*
X37406724Y-44138385D01*
X36940004Y-45121713D01*
X36893476Y-45173836D01*
X36826153Y-45192530D01*
X36759411Y-45171858D01*
X36715600Y-45120948D01*
X36690570Y-45067272D01*
X36690568Y-45067266D01*
X36560047Y-44880861D01*
X36560045Y-44880858D01*
X36399141Y-44719954D01*
X36212734Y-44589432D01*
X36212732Y-44589431D01*
X36006497Y-44493261D01*
X36006488Y-44493258D01*
X35786697Y-44434366D01*
X35786693Y-44434365D01*
X35786692Y-44434365D01*
X35786691Y-44434364D01*
X35786686Y-44434364D01*
X35560002Y-44414532D01*
X35559998Y-44414532D01*
X35333313Y-44434364D01*
X35333302Y-44434366D01*
X35113511Y-44493258D01*
X35113502Y-44493261D01*
X34907267Y-44589431D01*
X34907265Y-44589432D01*
X34720858Y-44719954D01*
X34559954Y-44880858D01*
X34429432Y-45067265D01*
X34429431Y-45067267D01*
X34402382Y-45125275D01*
X34356209Y-45177714D01*
X34289016Y-45196866D01*
X34222135Y-45176650D01*
X34177618Y-45125275D01*
X34177618Y-45125274D01*
X34150568Y-45067266D01*
X34020047Y-44880861D01*
X34020045Y-44880858D01*
X33859141Y-44719954D01*
X33672734Y-44589432D01*
X33672732Y-44589431D01*
X33466497Y-44493261D01*
X33466488Y-44493258D01*
X33246697Y-44434366D01*
X33246693Y-44434365D01*
X33246692Y-44434365D01*
X33246691Y-44434364D01*
X33246686Y-44434364D01*
X33020002Y-44414532D01*
X33019998Y-44414532D01*
X32793313Y-44434364D01*
X32793302Y-44434366D01*
X32573511Y-44493258D01*
X32573502Y-44493261D01*
X32367267Y-44589431D01*
X32367265Y-44589432D01*
X32180858Y-44719954D01*
X32019954Y-44880858D01*
X31889432Y-45067265D01*
X31889431Y-45067267D01*
X31793261Y-45273502D01*
X31793258Y-45273511D01*
X31734366Y-45493302D01*
X31734364Y-45493313D01*
X31714532Y-45719998D01*
X31714532Y-45720001D01*
X31734364Y-45946686D01*
X31734366Y-45946697D01*
X31793258Y-46166488D01*
X31793261Y-46166497D01*
X31889431Y-46372732D01*
X31889432Y-46372734D01*
X32019954Y-46559141D01*
X32180858Y-46720045D01*
X32180861Y-46720047D01*
X32367266Y-46850568D01*
X32573504Y-46946739D01*
X32573509Y-46946740D01*
X32573511Y-46946741D01*
X32626415Y-46960916D01*
X32793308Y-47005635D01*
X32955230Y-47019801D01*
X33019998Y-47025468D01*
X33020000Y-47025468D01*
X33020002Y-47025468D01*
X33076673Y-47020509D01*
X33246692Y-47005635D01*
X33466496Y-46946739D01*
X33672734Y-46850568D01*
X33859139Y-46720047D01*
X34020047Y-46559139D01*
X34150568Y-46372734D01*
X34177618Y-46314724D01*
X34223790Y-46262285D01*
X34290983Y-46243133D01*
X34357865Y-46263348D01*
X34402381Y-46314724D01*
X34404042Y-46318285D01*
X34429429Y-46372728D01*
X34429432Y-46372734D01*
X34559954Y-46559141D01*
X34720858Y-46720045D01*
X34720861Y-46720047D01*
X34907266Y-46850568D01*
X35113504Y-46946739D01*
X35113509Y-46946740D01*
X35113511Y-46946741D01*
X35166415Y-46960916D01*
X35333308Y-47005635D01*
X35495230Y-47019801D01*
X35559998Y-47025468D01*
X35560000Y-47025468D01*
X35560002Y-47025468D01*
X35616672Y-47020509D01*
X35786692Y-47005635D01*
X36006496Y-46946739D01*
X36212734Y-46850568D01*
X36399139Y-46720047D01*
X36560047Y-46559139D01*
X36690568Y-46372734D01*
X36717618Y-46314724D01*
X36763790Y-46262285D01*
X36830983Y-46243133D01*
X36897865Y-46263348D01*
X36942381Y-46314724D01*
X36944042Y-46318285D01*
X36969429Y-46372728D01*
X36969432Y-46372734D01*
X37099954Y-46559141D01*
X37260858Y-46720045D01*
X37260861Y-46720047D01*
X37447266Y-46850568D01*
X37653504Y-46946739D01*
X37653509Y-46946740D01*
X37653511Y-46946741D01*
X37706415Y-46960916D01*
X37873308Y-47005635D01*
X38035230Y-47019801D01*
X38099998Y-47025468D01*
X38100000Y-47025468D01*
X38100002Y-47025468D01*
X38156673Y-47020509D01*
X38326692Y-47005635D01*
X38546496Y-46946739D01*
X38752734Y-46850568D01*
X38939139Y-46720047D01*
X39100047Y-46559139D01*
X39230568Y-46372734D01*
X39257618Y-46314724D01*
X39303790Y-46262285D01*
X39370983Y-46243133D01*
X39437865Y-46263348D01*
X39482381Y-46314724D01*
X39484042Y-46318285D01*
X39509429Y-46372728D01*
X39509432Y-46372734D01*
X39639954Y-46559141D01*
X39800858Y-46720045D01*
X39800861Y-46720047D01*
X39987266Y-46850568D01*
X40193504Y-46946739D01*
X40193509Y-46946740D01*
X40193511Y-46946741D01*
X40246415Y-46960916D01*
X40413308Y-47005635D01*
X40575230Y-47019801D01*
X40639998Y-47025468D01*
X40640000Y-47025468D01*
X40640002Y-47025468D01*
X40696673Y-47020509D01*
X40866692Y-47005635D01*
X41086496Y-46946739D01*
X41292734Y-46850568D01*
X41479139Y-46720047D01*
X41640047Y-46559139D01*
X41770568Y-46372734D01*
X41797619Y-46314722D01*
X41843788Y-46262286D01*
X41910981Y-46243133D01*
X41977862Y-46263348D01*
X42022380Y-46314722D01*
X42049432Y-46372734D01*
X42049433Y-46372735D01*
X42179954Y-46559141D01*
X42340858Y-46720045D01*
X42340861Y-46720047D01*
X42527266Y-46850568D01*
X42690889Y-46926867D01*
X42699008Y-46930653D01*
X42701693Y-46931985D01*
X42715781Y-46939410D01*
X42719266Y-46940651D01*
X42721537Y-46941461D01*
X42726930Y-46943674D01*
X42730420Y-46945300D01*
X42733504Y-46946739D01*
X42742593Y-46949173D01*
X42747334Y-46950650D01*
X43742116Y-47305062D01*
X43798660Y-47346103D01*
X43824040Y-47411200D01*
X43824500Y-47421869D01*
X43824500Y-59630950D01*
X43804815Y-59697989D01*
X43752011Y-59743744D01*
X43682853Y-59753688D01*
X43648099Y-59743334D01*
X43626498Y-59733262D01*
X43626488Y-59733258D01*
X43406697Y-59674366D01*
X43406693Y-59674365D01*
X43406692Y-59674365D01*
X43406691Y-59674364D01*
X43406686Y-59674364D01*
X43180002Y-59654532D01*
X43179998Y-59654532D01*
X42953313Y-59674364D01*
X42953302Y-59674366D01*
X42733511Y-59733258D01*
X42733502Y-59733261D01*
X42527267Y-59829431D01*
X42527265Y-59829432D01*
X42340858Y-59959954D01*
X42179954Y-60120858D01*
X42049432Y-60307265D01*
X42049428Y-60307272D01*
X42024397Y-60360951D01*
X41978224Y-60413390D01*
X41911030Y-60432541D01*
X41844150Y-60412324D01*
X41799994Y-60361714D01*
X41799630Y-60360948D01*
X41466701Y-59659500D01*
X41277478Y-59260825D01*
X41265500Y-59207656D01*
X41265500Y-52998235D01*
X41273511Y-52954389D01*
X41478390Y-52412410D01*
X41478391Y-52412406D01*
X41478394Y-52412399D01*
X41492580Y-52369054D01*
X41493016Y-52365674D01*
X41498066Y-52343221D01*
X41525672Y-52258262D01*
X41525671Y-52258262D01*
X41525674Y-52258256D01*
X41545460Y-52070000D01*
X41525674Y-51881744D01*
X41467179Y-51701716D01*
X41372533Y-51537784D01*
X41245871Y-51397112D01*
X41245870Y-51397111D01*
X41092734Y-51285851D01*
X41092729Y-51285848D01*
X40919807Y-51208857D01*
X40919802Y-51208855D01*
X40774001Y-51177865D01*
X40734646Y-51169500D01*
X40545354Y-51169500D01*
X40512897Y-51176398D01*
X40360197Y-51208855D01*
X40360192Y-51208857D01*
X40187270Y-51285848D01*
X40187265Y-51285851D01*
X40034129Y-51397111D01*
X39907466Y-51537785D01*
X39812821Y-51701715D01*
X39812818Y-51701722D01*
X39754327Y-51881740D01*
X39754326Y-51881744D01*
X39737577Y-52041101D01*
X39734540Y-52069999D01*
X39754326Y-52258256D01*
X39754328Y-52258262D01*
X39794621Y-52382274D01*
X39796181Y-52387989D01*
X39801602Y-52412390D01*
X39801607Y-52412406D01*
X40006489Y-52954390D01*
X40014500Y-52998236D01*
X40014500Y-59207655D01*
X40002522Y-59260823D01*
X39911500Y-59452599D01*
X39480004Y-60361713D01*
X39433476Y-60413836D01*
X39366153Y-60432530D01*
X39299411Y-60411858D01*
X39255600Y-60360948D01*
X39230570Y-60307272D01*
X39230568Y-60307266D01*
X39100047Y-60120861D01*
X39100046Y-60120860D01*
X39100045Y-60120858D01*
X38939141Y-59959954D01*
X38752734Y-59829432D01*
X38752732Y-59829431D01*
X38546497Y-59733261D01*
X38546488Y-59733258D01*
X38326697Y-59674366D01*
X38326693Y-59674365D01*
X38326692Y-59674365D01*
X38326691Y-59674364D01*
X38326686Y-59674364D01*
X38100002Y-59654532D01*
X38099998Y-59654532D01*
X37873313Y-59674364D01*
X37873302Y-59674366D01*
X37653511Y-59733258D01*
X37653502Y-59733261D01*
X37447267Y-59829431D01*
X37447265Y-59829432D01*
X37260858Y-59959954D01*
X37099954Y-60120858D01*
X36969432Y-60307265D01*
X36969431Y-60307267D01*
X36942382Y-60365275D01*
X36896209Y-60417714D01*
X36829016Y-60436866D01*
X36762135Y-60416650D01*
X36717618Y-60365275D01*
X36717617Y-60365273D01*
X36690568Y-60307266D01*
X36560047Y-60120861D01*
X36560046Y-60120860D01*
X36560045Y-60120858D01*
X36399141Y-59959954D01*
X36212734Y-59829432D01*
X36212732Y-59829431D01*
X36006497Y-59733261D01*
X36006488Y-59733258D01*
X35786697Y-59674366D01*
X35786693Y-59674365D01*
X35786692Y-59674365D01*
X35786691Y-59674364D01*
X35786686Y-59674364D01*
X35560002Y-59654532D01*
X35559998Y-59654532D01*
X35333313Y-59674364D01*
X35333302Y-59674366D01*
X35113511Y-59733258D01*
X35113502Y-59733261D01*
X34907267Y-59829431D01*
X34907265Y-59829432D01*
X34720858Y-59959954D01*
X34559954Y-60120858D01*
X34542725Y-60145464D01*
X34488147Y-60189088D01*
X34418648Y-60196280D01*
X34356294Y-60164757D01*
X34320882Y-60104526D01*
X34317861Y-60087591D01*
X34314091Y-60052516D01*
X34263797Y-59917671D01*
X34263793Y-59917664D01*
X34177547Y-59802455D01*
X34177544Y-59802452D01*
X34062335Y-59716206D01*
X34062328Y-59716202D01*
X33927482Y-59665908D01*
X33927483Y-59665908D01*
X33867883Y-59659501D01*
X33867881Y-59659500D01*
X33867873Y-59659500D01*
X33867864Y-59659500D01*
X32172129Y-59659500D01*
X32172123Y-59659501D01*
X32112516Y-59665908D01*
X31977671Y-59716202D01*
X31977664Y-59716206D01*
X31862455Y-59802452D01*
X31862452Y-59802455D01*
X31776206Y-59917664D01*
X31776202Y-59917671D01*
X31725908Y-60052517D01*
X31719501Y-60112116D01*
X31719500Y-60112135D01*
X31719500Y-61807870D01*
X31719501Y-61807876D01*
X31725908Y-61867483D01*
X31776202Y-62002328D01*
X31776206Y-62002335D01*
X31862452Y-62117544D01*
X31862455Y-62117547D01*
X31977664Y-62203793D01*
X31977671Y-62203797D01*
X32112517Y-62254091D01*
X32112516Y-62254091D01*
X32119444Y-62254835D01*
X32172127Y-62260500D01*
X33867872Y-62260499D01*
X33927483Y-62254091D01*
X34062331Y-62203796D01*
X34177546Y-62117546D01*
X34263796Y-62002331D01*
X34314091Y-61867483D01*
X34317862Y-61832401D01*
X34344599Y-61767855D01*
X34401990Y-61728006D01*
X34471816Y-61725511D01*
X34531905Y-61761163D01*
X34542726Y-61774536D01*
X34559956Y-61799143D01*
X34720858Y-61960045D01*
X34720861Y-61960047D01*
X34907266Y-62090568D01*
X35113504Y-62186739D01*
X35333308Y-62245635D01*
X35495230Y-62259801D01*
X35559998Y-62265468D01*
X35560000Y-62265468D01*
X35560002Y-62265468D01*
X35616807Y-62260498D01*
X35786692Y-62245635D01*
X36006496Y-62186739D01*
X36212734Y-62090568D01*
X36399139Y-61960047D01*
X36560047Y-61799139D01*
X36690568Y-61612734D01*
X36715602Y-61559048D01*
X36761771Y-61506612D01*
X36828964Y-61487459D01*
X36895846Y-61507674D01*
X36940004Y-61558285D01*
X37164069Y-62030364D01*
X37462522Y-62659175D01*
X37474500Y-62712342D01*
X37474500Y-64287655D01*
X37462522Y-64340824D01*
X36908042Y-65509052D01*
X36905205Y-65515242D01*
X36903628Y-65518809D01*
X36903618Y-65518833D01*
X36888064Y-65561229D01*
X36886050Y-65566075D01*
X36873260Y-65593504D01*
X36814366Y-65813302D01*
X36814364Y-65813313D01*
X36794532Y-66039998D01*
X36794532Y-66040001D01*
X36814364Y-66266686D01*
X36814366Y-66266697D01*
X36873258Y-66486488D01*
X36873261Y-66486497D01*
X36969431Y-66692732D01*
X36969432Y-66692734D01*
X37099954Y-66879141D01*
X37260858Y-67040045D01*
X37260861Y-67040047D01*
X37447266Y-67170568D01*
X37653504Y-67266739D01*
X37873308Y-67325635D01*
X38035230Y-67339801D01*
X38099998Y-67345468D01*
X38100000Y-67345468D01*
X38100002Y-67345468D01*
X38156673Y-67340509D01*
X38326692Y-67325635D01*
X38546496Y-67266739D01*
X38752734Y-67170568D01*
X38939139Y-67040047D01*
X39100047Y-66879139D01*
X39230568Y-66692734D01*
X39326739Y-66486496D01*
X39385635Y-66266692D01*
X39405468Y-66040000D01*
X39385635Y-65813308D01*
X39326739Y-65593504D01*
X39301328Y-65539011D01*
X39298294Y-65531148D01*
X39294478Y-65518827D01*
X39290505Y-65505997D01*
X38737478Y-64340825D01*
X38725500Y-64287656D01*
X38725500Y-62712341D01*
X38737478Y-62659172D01*
X38745521Y-62642227D01*
X39259994Y-61558283D01*
X39306522Y-61506161D01*
X39373845Y-61487467D01*
X39440587Y-61508139D01*
X39484397Y-61559047D01*
X39509432Y-61612734D01*
X39524730Y-61634582D01*
X39639954Y-61799141D01*
X39800858Y-61960045D01*
X39800861Y-61960047D01*
X39987266Y-62090568D01*
X40193504Y-62186739D01*
X40413308Y-62245635D01*
X40575230Y-62259801D01*
X40639998Y-62265468D01*
X40640000Y-62265468D01*
X40640002Y-62265468D01*
X40696807Y-62260498D01*
X40866692Y-62245635D01*
X41086496Y-62186739D01*
X41292734Y-62090568D01*
X41479139Y-61960047D01*
X41640047Y-61799139D01*
X41770568Y-61612734D01*
X41797618Y-61554724D01*
X41843790Y-61502285D01*
X41910983Y-61483133D01*
X41977865Y-61503348D01*
X42022382Y-61554725D01*
X42049429Y-61612728D01*
X42049432Y-61612734D01*
X42179954Y-61799141D01*
X42340858Y-61960045D01*
X42340861Y-61960047D01*
X42527266Y-62090568D01*
X42733504Y-62186739D01*
X42953308Y-62245635D01*
X43115230Y-62259801D01*
X43179998Y-62265468D01*
X43180000Y-62265468D01*
X43180002Y-62265468D01*
X43236807Y-62260498D01*
X43406692Y-62245635D01*
X43626496Y-62186739D01*
X43648093Y-62176667D01*
X43717169Y-62166173D01*
X43780954Y-62194691D01*
X43819195Y-62253167D01*
X43824500Y-62289048D01*
X43824500Y-63189546D01*
X43804815Y-63256585D01*
X43788181Y-63277227D01*
X38896797Y-68168610D01*
X38850731Y-68197737D01*
X37667325Y-68619349D01*
X37662567Y-68620831D01*
X37653511Y-68623257D01*
X37653503Y-68623260D01*
X37646946Y-68626318D01*
X37641563Y-68628526D01*
X37632693Y-68631687D01*
X37626773Y-68633882D01*
X37623228Y-68635247D01*
X37563117Y-68663044D01*
X37557574Y-68666347D01*
X37557461Y-68666158D01*
X37543133Y-68674726D01*
X37447271Y-68719428D01*
X37447264Y-68719432D01*
X37260858Y-68849954D01*
X37099954Y-69010858D01*
X36969432Y-69197265D01*
X36969431Y-69197267D01*
X36873261Y-69403502D01*
X36873258Y-69403511D01*
X36814366Y-69623302D01*
X36814364Y-69623313D01*
X36794532Y-69849998D01*
X36794532Y-69850001D01*
X36814364Y-70076686D01*
X36814366Y-70076697D01*
X36873258Y-70296488D01*
X36873261Y-70296497D01*
X36969431Y-70502732D01*
X36969432Y-70502734D01*
X37099954Y-70689141D01*
X37260858Y-70850045D01*
X37260861Y-70850047D01*
X37447266Y-70980568D01*
X37653504Y-71076739D01*
X37873308Y-71135635D01*
X38035230Y-71149801D01*
X38099998Y-71155468D01*
X38100000Y-71155468D01*
X38100002Y-71155468D01*
X38156673Y-71150509D01*
X38326692Y-71135635D01*
X38546496Y-71076739D01*
X38752734Y-70980568D01*
X38939139Y-70850047D01*
X39100047Y-70689139D01*
X39230568Y-70502734D01*
X39310663Y-70330967D01*
X39311975Y-70328322D01*
X39319411Y-70314217D01*
X39321462Y-70308456D01*
X39323664Y-70303088D01*
X39326739Y-70296496D01*
X39329178Y-70287388D01*
X39330643Y-70282685D01*
X39752261Y-69099265D01*
X39781385Y-69053203D01*
X44833788Y-64000801D01*
X44846042Y-63990986D01*
X44845859Y-63990764D01*
X44851868Y-63985791D01*
X44851877Y-63985786D01*
X44898607Y-63936022D01*
X44899846Y-63934743D01*
X44920120Y-63914471D01*
X44924379Y-63908978D01*
X44928152Y-63904561D01*
X44960062Y-63870582D01*
X44969713Y-63853024D01*
X44980396Y-63836761D01*
X44992673Y-63820936D01*
X45011185Y-63778153D01*
X45013738Y-63772941D01*
X45036197Y-63732092D01*
X45041180Y-63712680D01*
X45047481Y-63694280D01*
X45055437Y-63675896D01*
X45062729Y-63629852D01*
X45063906Y-63624171D01*
X45075500Y-63579019D01*
X45075500Y-63558982D01*
X45077027Y-63539582D01*
X45080160Y-63519804D01*
X45075775Y-63473415D01*
X45075500Y-63467577D01*
X45075500Y-62289048D01*
X45095185Y-62222009D01*
X45147989Y-62176254D01*
X45217147Y-62166310D01*
X45251905Y-62176667D01*
X45273504Y-62186739D01*
X45493308Y-62245635D01*
X45655230Y-62259801D01*
X45719998Y-62265468D01*
X45720000Y-62265468D01*
X45720002Y-62265468D01*
X45776807Y-62260498D01*
X45946692Y-62245635D01*
X46166496Y-62186739D01*
X46372734Y-62090568D01*
X46559139Y-61960047D01*
X46720047Y-61799139D01*
X46850568Y-61612734D01*
X46877618Y-61554724D01*
X46923790Y-61502285D01*
X46990983Y-61483133D01*
X47057865Y-61503348D01*
X47102382Y-61554725D01*
X47129429Y-61612728D01*
X47129432Y-61612734D01*
X47259954Y-61799141D01*
X47420858Y-61960045D01*
X47420861Y-61960047D01*
X47607266Y-62090568D01*
X47813504Y-62186739D01*
X48033308Y-62245635D01*
X48154328Y-62256222D01*
X48219395Y-62281674D01*
X48260373Y-62338265D01*
X48264252Y-62408027D01*
X48231200Y-62467431D01*
X31442180Y-79256450D01*
X31380857Y-79289935D01*
X31311165Y-79284951D01*
X31255232Y-79243079D01*
X31230815Y-79177615D01*
X31230499Y-79168769D01*
X31230499Y-72453691D01*
X31231808Y-72435738D01*
X31235289Y-72411977D01*
X31230735Y-72359933D01*
X31230500Y-72354532D01*
X31230500Y-72346296D01*
X31230500Y-72346291D01*
X31226791Y-72314564D01*
X31226618Y-72312872D01*
X31219998Y-72237202D01*
X31219996Y-72237197D01*
X31218538Y-72230133D01*
X31218597Y-72230120D01*
X31216967Y-72222764D01*
X31216908Y-72222779D01*
X31215241Y-72215747D01*
X31215241Y-72215745D01*
X31189247Y-72144327D01*
X31188708Y-72142775D01*
X31164814Y-72070665D01*
X31164813Y-72070663D01*
X31161763Y-72064121D01*
X31161817Y-72064095D01*
X31158533Y-72057312D01*
X31158480Y-72057340D01*
X31155238Y-72050885D01*
X31155237Y-72050883D01*
X31113496Y-71987419D01*
X31112555Y-71985941D01*
X31072709Y-71921341D01*
X31068233Y-71915681D01*
X31068280Y-71915643D01*
X31063519Y-71909799D01*
X31063474Y-71909838D01*
X31058831Y-71904305D01*
X31003616Y-71852212D01*
X31002356Y-71850989D01*
X29692730Y-70541362D01*
X29667390Y-70504694D01*
X29666505Y-70502734D01*
X29147153Y-69352085D01*
X29145669Y-69348501D01*
X28698511Y-68165608D01*
X28690500Y-68121762D01*
X28690500Y-67768236D01*
X28698511Y-67724390D01*
X29147942Y-66535486D01*
X29156282Y-66509975D01*
X29159011Y-66503067D01*
X29166739Y-66486496D01*
X29225635Y-66266692D01*
X29245468Y-66040000D01*
X29225635Y-65813308D01*
X29166739Y-65593504D01*
X29157352Y-65573374D01*
X29148684Y-65547855D01*
X29147940Y-65544506D01*
X28698511Y-64355608D01*
X28690500Y-64311762D01*
X28690500Y-43638236D01*
X28698511Y-43594390D01*
X29004805Y-42784134D01*
X29147942Y-42405486D01*
X29156282Y-42379975D01*
X29159011Y-42373067D01*
X29166739Y-42356496D01*
X29225635Y-42136692D01*
X29245468Y-41910000D01*
X29225635Y-41683308D01*
X29166739Y-41463504D01*
X29164094Y-41457833D01*
X29158715Y-41442548D01*
X29158267Y-41442693D01*
X29148814Y-41413372D01*
X28947574Y-40789181D01*
X28945739Y-40719339D01*
X28977910Y-40663456D01*
X32024548Y-37616818D01*
X32085871Y-37583334D01*
X32112229Y-37580500D01*
X47595548Y-37580500D01*
X47662587Y-37600185D01*
G37*
%TD.AperFunction*%
%TA.AperFunction,Conductor*%
G36*
X77537865Y-46263348D02*
G01*
X77582381Y-46314724D01*
X77584042Y-46318285D01*
X77609429Y-46372728D01*
X77609432Y-46372734D01*
X77739954Y-46559141D01*
X77900858Y-46720045D01*
X77900861Y-46720047D01*
X78087266Y-46850568D01*
X78250889Y-46926867D01*
X78259008Y-46930653D01*
X78261693Y-46931985D01*
X78275781Y-46939410D01*
X78279266Y-46940651D01*
X78281537Y-46941461D01*
X78286930Y-46943674D01*
X78290420Y-46945300D01*
X78293504Y-46946739D01*
X78302593Y-46949173D01*
X78307334Y-46950650D01*
X79302113Y-47305061D01*
X79490731Y-47372260D01*
X79536796Y-47401387D01*
X83158182Y-51022772D01*
X83191666Y-51084093D01*
X83194500Y-51110451D01*
X83194500Y-60649546D01*
X83174815Y-60716585D01*
X83158181Y-60737227D01*
X82792818Y-61102590D01*
X82731495Y-61136075D01*
X82661803Y-61131091D01*
X82605870Y-61089219D01*
X82581453Y-61023755D01*
X82581608Y-61004109D01*
X82585468Y-60960000D01*
X82565635Y-60733308D01*
X82506739Y-60513504D01*
X82410568Y-60307266D01*
X82280047Y-60120861D01*
X82280046Y-60120860D01*
X82280045Y-60120858D01*
X82119141Y-59959954D01*
X81932734Y-59829432D01*
X81932732Y-59829431D01*
X81726497Y-59733261D01*
X81726488Y-59733258D01*
X81506697Y-59674366D01*
X81506693Y-59674365D01*
X81506692Y-59674365D01*
X81506691Y-59674364D01*
X81506686Y-59674364D01*
X81280002Y-59654532D01*
X81279998Y-59654532D01*
X81053313Y-59674364D01*
X81053302Y-59674366D01*
X80833511Y-59733258D01*
X80833502Y-59733261D01*
X80627267Y-59829431D01*
X80627265Y-59829432D01*
X80440858Y-59959954D01*
X80279954Y-60120858D01*
X80149430Y-60307268D01*
X80149430Y-60307269D01*
X80122380Y-60365276D01*
X80076207Y-60417714D01*
X80009013Y-60436865D01*
X79942132Y-60416648D01*
X79897617Y-60365273D01*
X79870568Y-60307266D01*
X79740047Y-60120861D01*
X79740046Y-60120860D01*
X79740045Y-60120858D01*
X79579141Y-59959954D01*
X79392734Y-59829432D01*
X79392732Y-59829431D01*
X79186497Y-59733261D01*
X79186488Y-59733258D01*
X78966697Y-59674366D01*
X78966693Y-59674365D01*
X78966692Y-59674365D01*
X78966691Y-59674364D01*
X78966686Y-59674364D01*
X78740002Y-59654532D01*
X78739998Y-59654532D01*
X78513313Y-59674364D01*
X78513302Y-59674366D01*
X78293511Y-59733258D01*
X78293502Y-59733261D01*
X78087267Y-59829431D01*
X78087265Y-59829432D01*
X77900858Y-59959954D01*
X77739954Y-60120858D01*
X77609430Y-60307268D01*
X77609430Y-60307269D01*
X77582380Y-60365276D01*
X77536207Y-60417714D01*
X77469013Y-60436865D01*
X77402132Y-60416648D01*
X77357617Y-60365273D01*
X77330568Y-60307266D01*
X77200047Y-60120861D01*
X77200046Y-60120860D01*
X77200045Y-60120858D01*
X77039141Y-59959954D01*
X76852734Y-59829432D01*
X76852732Y-59829431D01*
X76646497Y-59733261D01*
X76646488Y-59733258D01*
X76426697Y-59674366D01*
X76426693Y-59674365D01*
X76426692Y-59674365D01*
X76426691Y-59674364D01*
X76426686Y-59674364D01*
X76200002Y-59654532D01*
X76199998Y-59654532D01*
X75973313Y-59674364D01*
X75973302Y-59674366D01*
X75753511Y-59733258D01*
X75753497Y-59733263D01*
X75670697Y-59771874D01*
X75601620Y-59782366D01*
X75537836Y-59753846D01*
X75499597Y-59695369D01*
X75499043Y-59625502D01*
X75514797Y-59593140D01*
X75514284Y-59592844D01*
X75589068Y-59463313D01*
X75612179Y-59423284D01*
X75670674Y-59243256D01*
X75690460Y-59055000D01*
X75670674Y-58866744D01*
X75612179Y-58686716D01*
X75517533Y-58522784D01*
X75390871Y-58382112D01*
X75390870Y-58382111D01*
X75237734Y-58270851D01*
X75237729Y-58270848D01*
X75172243Y-58241692D01*
X75156106Y-58233026D01*
X75135719Y-58220051D01*
X75135718Y-58220050D01*
X74607600Y-57981681D01*
X74570932Y-57956341D01*
X69241819Y-52627228D01*
X69208334Y-52565905D01*
X69205500Y-52539547D01*
X69205500Y-47472341D01*
X69217478Y-47419172D01*
X69221262Y-47411200D01*
X69739994Y-46318283D01*
X69786522Y-46266161D01*
X69853845Y-46247467D01*
X69920587Y-46268139D01*
X69964397Y-46319047D01*
X69989432Y-46372734D01*
X69989433Y-46372735D01*
X70119954Y-46559141D01*
X70280858Y-46720045D01*
X70280861Y-46720047D01*
X70467266Y-46850568D01*
X70673504Y-46946739D01*
X70673509Y-46946740D01*
X70673511Y-46946741D01*
X70726415Y-46960916D01*
X70893308Y-47005635D01*
X71055230Y-47019801D01*
X71119998Y-47025468D01*
X71120000Y-47025468D01*
X71120002Y-47025468D01*
X71176673Y-47020509D01*
X71346692Y-47005635D01*
X71566496Y-46946739D01*
X71772734Y-46850568D01*
X71959139Y-46720047D01*
X72120047Y-46559139D01*
X72250568Y-46372734D01*
X72277619Y-46314722D01*
X72323788Y-46262286D01*
X72390981Y-46243133D01*
X72457862Y-46263348D01*
X72502380Y-46314722D01*
X72529432Y-46372734D01*
X72529433Y-46372735D01*
X72659954Y-46559141D01*
X72820858Y-46720045D01*
X72820861Y-46720047D01*
X73007266Y-46850568D01*
X73213504Y-46946739D01*
X73213509Y-46946740D01*
X73213511Y-46946741D01*
X73266415Y-46960916D01*
X73433308Y-47005635D01*
X73595230Y-47019801D01*
X73659998Y-47025468D01*
X73660000Y-47025468D01*
X73660002Y-47025468D01*
X73716673Y-47020509D01*
X73886692Y-47005635D01*
X74106496Y-46946739D01*
X74312734Y-46850568D01*
X74499139Y-46720047D01*
X74660047Y-46559139D01*
X74790568Y-46372734D01*
X74817619Y-46314722D01*
X74863788Y-46262286D01*
X74930981Y-46243133D01*
X74997862Y-46263348D01*
X75042380Y-46314722D01*
X75069432Y-46372734D01*
X75069433Y-46372735D01*
X75199954Y-46559141D01*
X75360858Y-46720045D01*
X75360861Y-46720047D01*
X75547266Y-46850568D01*
X75753504Y-46946739D01*
X75753509Y-46946740D01*
X75753511Y-46946741D01*
X75806415Y-46960916D01*
X75973308Y-47005635D01*
X76135230Y-47019801D01*
X76199998Y-47025468D01*
X76200000Y-47025468D01*
X76200002Y-47025468D01*
X76256672Y-47020509D01*
X76426692Y-47005635D01*
X76646496Y-46946739D01*
X76852734Y-46850568D01*
X77039139Y-46720047D01*
X77200047Y-46559139D01*
X77330568Y-46372734D01*
X77357618Y-46314724D01*
X77403790Y-46262285D01*
X77470983Y-46243133D01*
X77537865Y-46263348D01*
G37*
%TD.AperFunction*%
%TA.AperFunction,Conductor*%
G36*
X47057865Y-46263348D02*
G01*
X47102381Y-46314724D01*
X47104042Y-46318285D01*
X47129429Y-46372728D01*
X47129432Y-46372734D01*
X47259954Y-46559141D01*
X47420858Y-46720045D01*
X47420861Y-46720047D01*
X47607266Y-46850568D01*
X47813504Y-46946739D01*
X47813509Y-46946740D01*
X47813511Y-46946741D01*
X47866415Y-46960916D01*
X48033308Y-47005635D01*
X48195230Y-47019801D01*
X48259998Y-47025468D01*
X48260000Y-47025468D01*
X48260002Y-47025468D01*
X48316673Y-47020509D01*
X48486692Y-47005635D01*
X48706496Y-46946739D01*
X48912734Y-46850568D01*
X49099139Y-46720047D01*
X49260047Y-46559139D01*
X49390568Y-46372734D01*
X49415601Y-46319049D01*
X49461770Y-46266611D01*
X49528963Y-46247458D01*
X49595845Y-46267672D01*
X49640004Y-46318284D01*
X49738012Y-46524776D01*
X50162522Y-47419173D01*
X50174500Y-47472342D01*
X50174500Y-52622255D01*
X50172775Y-52637872D01*
X50173061Y-52637899D01*
X50172326Y-52645666D01*
X50174469Y-52713846D01*
X50174500Y-52715793D01*
X50174500Y-52744343D01*
X50174501Y-52744360D01*
X50175368Y-52751231D01*
X50175826Y-52757050D01*
X50177290Y-52803624D01*
X50177291Y-52803627D01*
X50182880Y-52822867D01*
X50186824Y-52841911D01*
X50188964Y-52858846D01*
X50189336Y-52861791D01*
X50206490Y-52905119D01*
X50208382Y-52910647D01*
X50221382Y-52955390D01*
X50228755Y-52967858D01*
X50231580Y-52972634D01*
X50240138Y-52990103D01*
X50247514Y-53008732D01*
X50274898Y-53046423D01*
X50278106Y-53051307D01*
X50301827Y-53091416D01*
X50301833Y-53091424D01*
X50315990Y-53105580D01*
X50328628Y-53120376D01*
X50340405Y-53136586D01*
X50340406Y-53136587D01*
X50376309Y-53166288D01*
X50380620Y-53170210D01*
X55166750Y-57956341D01*
X56051340Y-58840931D01*
X56076680Y-58877599D01*
X56241723Y-59243259D01*
X56315058Y-59405734D01*
X56316455Y-59408491D01*
X56320123Y-59417371D01*
X56320178Y-59417347D01*
X56322818Y-59423277D01*
X56322821Y-59423284D01*
X56322824Y-59423289D01*
X56331264Y-59437910D01*
X56332869Y-59440874D01*
X56335679Y-59446418D01*
X56336875Y-59448312D01*
X56339746Y-59452601D01*
X56384184Y-59529570D01*
X56400657Y-59597471D01*
X56377804Y-59663497D01*
X56322883Y-59706688D01*
X56253329Y-59713329D01*
X56244704Y-59711345D01*
X56106697Y-59674366D01*
X56106693Y-59674365D01*
X56106692Y-59674365D01*
X56106691Y-59674364D01*
X56106686Y-59674364D01*
X55880002Y-59654532D01*
X55879998Y-59654532D01*
X55653313Y-59674364D01*
X55653302Y-59674366D01*
X55433511Y-59733258D01*
X55433502Y-59733261D01*
X55227267Y-59829431D01*
X55227265Y-59829432D01*
X55040858Y-59959954D01*
X54879954Y-60120858D01*
X54749430Y-60307268D01*
X54749430Y-60307269D01*
X54722380Y-60365276D01*
X54676207Y-60417714D01*
X54609013Y-60436865D01*
X54542132Y-60416648D01*
X54497617Y-60365273D01*
X54470568Y-60307266D01*
X54340047Y-60120861D01*
X54340046Y-60120860D01*
X54340045Y-60120858D01*
X54179141Y-59959954D01*
X53992734Y-59829432D01*
X53992732Y-59829431D01*
X53786497Y-59733261D01*
X53786488Y-59733258D01*
X53566697Y-59674366D01*
X53566693Y-59674365D01*
X53566692Y-59674365D01*
X53566691Y-59674364D01*
X53566686Y-59674364D01*
X53340002Y-59654532D01*
X53339998Y-59654532D01*
X53113313Y-59674364D01*
X53113302Y-59674366D01*
X52893511Y-59733258D01*
X52893502Y-59733261D01*
X52687267Y-59829431D01*
X52687265Y-59829432D01*
X52500858Y-59959954D01*
X52339954Y-60120858D01*
X52209430Y-60307268D01*
X52209430Y-60307269D01*
X52182380Y-60365276D01*
X52136207Y-60417714D01*
X52069013Y-60436865D01*
X52002132Y-60416648D01*
X51957617Y-60365273D01*
X51930568Y-60307266D01*
X51800047Y-60120861D01*
X51800046Y-60120860D01*
X51800045Y-60120858D01*
X51639141Y-59959954D01*
X51452734Y-59829432D01*
X51452732Y-59829431D01*
X51246497Y-59733261D01*
X51246488Y-59733258D01*
X51026697Y-59674366D01*
X51026693Y-59674365D01*
X51026692Y-59674365D01*
X51026691Y-59674364D01*
X51026686Y-59674364D01*
X50800002Y-59654532D01*
X50799998Y-59654532D01*
X50573313Y-59674364D01*
X50573302Y-59674366D01*
X50353511Y-59733258D01*
X50353502Y-59733261D01*
X50147267Y-59829431D01*
X50147265Y-59829432D01*
X49960858Y-59959954D01*
X49799954Y-60120858D01*
X49669430Y-60307268D01*
X49669430Y-60307269D01*
X49642380Y-60365276D01*
X49596207Y-60417714D01*
X49529013Y-60436865D01*
X49462132Y-60416648D01*
X49417617Y-60365273D01*
X49390568Y-60307266D01*
X49260047Y-60120861D01*
X49260046Y-60120860D01*
X49260045Y-60120858D01*
X49099141Y-59959954D01*
X48912734Y-59829432D01*
X48912732Y-59829431D01*
X48706497Y-59733261D01*
X48706488Y-59733258D01*
X48486697Y-59674366D01*
X48486693Y-59674365D01*
X48486692Y-59674365D01*
X48486691Y-59674364D01*
X48486686Y-59674364D01*
X48260002Y-59654532D01*
X48259998Y-59654532D01*
X48033313Y-59674364D01*
X48033302Y-59674366D01*
X47813511Y-59733258D01*
X47813502Y-59733261D01*
X47607267Y-59829431D01*
X47607265Y-59829432D01*
X47420858Y-59959954D01*
X47259954Y-60120858D01*
X47129432Y-60307265D01*
X47129431Y-60307267D01*
X47102382Y-60365275D01*
X47056209Y-60417714D01*
X46989016Y-60436866D01*
X46922135Y-60416650D01*
X46877618Y-60365275D01*
X46877617Y-60365273D01*
X46850568Y-60307266D01*
X46720047Y-60120861D01*
X46720046Y-60120860D01*
X46720045Y-60120858D01*
X46559141Y-59959954D01*
X46372734Y-59829432D01*
X46372732Y-59829431D01*
X46166497Y-59733261D01*
X46166488Y-59733258D01*
X45946697Y-59674366D01*
X45946693Y-59674365D01*
X45946692Y-59674365D01*
X45946691Y-59674364D01*
X45946686Y-59674364D01*
X45720002Y-59654532D01*
X45719998Y-59654532D01*
X45493313Y-59674364D01*
X45493302Y-59674366D01*
X45273511Y-59733258D01*
X45273501Y-59733262D01*
X45251901Y-59743334D01*
X45182824Y-59753824D01*
X45119040Y-59725302D01*
X45080803Y-59666824D01*
X45075500Y-59630950D01*
X45075500Y-47072737D01*
X45077224Y-47057123D01*
X45076938Y-47057096D01*
X45078407Y-47041562D01*
X45080988Y-47041806D01*
X45095378Y-46986387D01*
X45146711Y-46938989D01*
X45215521Y-46926867D01*
X45254161Y-46937719D01*
X45273504Y-46946739D01*
X45273509Y-46946740D01*
X45273511Y-46946741D01*
X45326415Y-46960916D01*
X45493308Y-47005635D01*
X45655230Y-47019801D01*
X45719998Y-47025468D01*
X45720000Y-47025468D01*
X45720002Y-47025468D01*
X45776672Y-47020509D01*
X45946692Y-47005635D01*
X46166496Y-46946739D01*
X46372734Y-46850568D01*
X46559139Y-46720047D01*
X46720047Y-46559139D01*
X46850568Y-46372734D01*
X46877618Y-46314724D01*
X46923790Y-46262285D01*
X46990983Y-46243133D01*
X47057865Y-46263348D01*
G37*
%TD.AperFunction*%
%TA.AperFunction,Conductor*%
G36*
X57218570Y-46272389D02*
G01*
X57262021Y-46322534D01*
X57415645Y-46646203D01*
X57782522Y-47419173D01*
X57794500Y-47472342D01*
X57794499Y-52767255D01*
X57792776Y-52782872D01*
X57793061Y-52782899D01*
X57792326Y-52790666D01*
X57794469Y-52858846D01*
X57794500Y-52860793D01*
X57794500Y-52889343D01*
X57794501Y-52889360D01*
X57795368Y-52896231D01*
X57795826Y-52902050D01*
X57797290Y-52948624D01*
X57797291Y-52948627D01*
X57802880Y-52967867D01*
X57806824Y-52986911D01*
X57807228Y-52990103D01*
X57809336Y-53006791D01*
X57826490Y-53050119D01*
X57828382Y-53055647D01*
X57841381Y-53100388D01*
X57851580Y-53117634D01*
X57860136Y-53135100D01*
X57867514Y-53153732D01*
X57894898Y-53191423D01*
X57898106Y-53196307D01*
X57921827Y-53236416D01*
X57921833Y-53236424D01*
X57935990Y-53250580D01*
X57948628Y-53265376D01*
X57960405Y-53281586D01*
X57960406Y-53281587D01*
X57996309Y-53311288D01*
X58000620Y-53315210D01*
X62641750Y-57956341D01*
X63526340Y-58840931D01*
X63551680Y-58877599D01*
X63716723Y-59243259D01*
X63790058Y-59405734D01*
X63791455Y-59408491D01*
X63795123Y-59417371D01*
X63795178Y-59417347D01*
X63797818Y-59423277D01*
X63797821Y-59423284D01*
X63797824Y-59423289D01*
X63806264Y-59437910D01*
X63807869Y-59440874D01*
X63810679Y-59446418D01*
X63811877Y-59448315D01*
X63814746Y-59452599D01*
X63835176Y-59487986D01*
X63851650Y-59555886D01*
X63828798Y-59621913D01*
X63773878Y-59665104D01*
X63716983Y-59673515D01*
X63500002Y-59654532D01*
X63499998Y-59654532D01*
X63273313Y-59674364D01*
X63273302Y-59674366D01*
X63053511Y-59733258D01*
X63053497Y-59733263D01*
X62970697Y-59771874D01*
X62901620Y-59782366D01*
X62837836Y-59753846D01*
X62799597Y-59695369D01*
X62799043Y-59625502D01*
X62814797Y-59593140D01*
X62814284Y-59592844D01*
X62889068Y-59463313D01*
X62912179Y-59423284D01*
X62970674Y-59243256D01*
X62990460Y-59055000D01*
X62970674Y-58866744D01*
X62912179Y-58686716D01*
X62817533Y-58522784D01*
X62690871Y-58382112D01*
X62690870Y-58382111D01*
X62537734Y-58270851D01*
X62537729Y-58270848D01*
X62472243Y-58241692D01*
X62456106Y-58233026D01*
X62435719Y-58220051D01*
X62435718Y-58220050D01*
X61907600Y-57981681D01*
X61870932Y-57956341D01*
X56541819Y-52627227D01*
X56508334Y-52565904D01*
X56505500Y-52539546D01*
X56505500Y-50062214D01*
X56505500Y-47472336D01*
X56517475Y-47419177D01*
X57037977Y-46322534D01*
X57084505Y-46270411D01*
X57151828Y-46251717D01*
X57218570Y-46272389D01*
G37*
%TD.AperFunction*%
%TA.AperFunction,Conductor*%
G36*
X59758570Y-46272389D02*
G01*
X59802021Y-46322534D01*
X59955645Y-46646203D01*
X60322522Y-47419173D01*
X60334500Y-47472342D01*
X60334500Y-52767255D01*
X60332775Y-52782872D01*
X60333061Y-52782899D01*
X60332326Y-52790666D01*
X60334469Y-52858846D01*
X60334500Y-52860793D01*
X60334500Y-52889343D01*
X60334501Y-52889360D01*
X60335368Y-52896231D01*
X60335826Y-52902050D01*
X60337290Y-52948624D01*
X60337291Y-52948627D01*
X60342880Y-52967867D01*
X60346824Y-52986911D01*
X60347228Y-52990103D01*
X60349336Y-53006791D01*
X60366490Y-53050119D01*
X60368382Y-53055647D01*
X60381381Y-53100388D01*
X60391580Y-53117634D01*
X60400136Y-53135100D01*
X60407514Y-53153732D01*
X60434898Y-53191423D01*
X60438106Y-53196307D01*
X60461827Y-53236416D01*
X60461833Y-53236424D01*
X60475990Y-53250580D01*
X60488628Y-53265376D01*
X60500405Y-53281586D01*
X60500406Y-53281587D01*
X60536309Y-53311288D01*
X60540620Y-53315210D01*
X65181750Y-57956341D01*
X66066340Y-58840931D01*
X66091680Y-58877599D01*
X66256723Y-59243259D01*
X66330058Y-59405734D01*
X66331455Y-59408491D01*
X66335123Y-59417371D01*
X66335178Y-59417347D01*
X66337818Y-59423277D01*
X66337821Y-59423284D01*
X66337824Y-59423289D01*
X66346264Y-59437910D01*
X66347869Y-59440874D01*
X66350679Y-59446418D01*
X66351877Y-59448315D01*
X66354746Y-59452599D01*
X66375176Y-59487986D01*
X66391650Y-59555886D01*
X66368798Y-59621913D01*
X66313878Y-59665104D01*
X66256983Y-59673515D01*
X66040002Y-59654532D01*
X66039998Y-59654532D01*
X65813313Y-59674364D01*
X65813302Y-59674366D01*
X65593511Y-59733258D01*
X65593497Y-59733263D01*
X65510697Y-59771874D01*
X65441620Y-59782366D01*
X65377836Y-59753846D01*
X65339597Y-59695369D01*
X65339043Y-59625502D01*
X65354797Y-59593140D01*
X65354284Y-59592844D01*
X65429068Y-59463313D01*
X65452179Y-59423284D01*
X65510674Y-59243256D01*
X65530460Y-59055000D01*
X65510674Y-58866744D01*
X65452179Y-58686716D01*
X65357533Y-58522784D01*
X65230871Y-58382112D01*
X65230870Y-58382111D01*
X65077734Y-58270851D01*
X65077729Y-58270848D01*
X65012243Y-58241692D01*
X64996106Y-58233026D01*
X64975719Y-58220051D01*
X64975718Y-58220050D01*
X64447600Y-57981681D01*
X64410932Y-57956341D01*
X59081818Y-52627227D01*
X59048333Y-52565904D01*
X59045499Y-52539546D01*
X59045499Y-50062214D01*
X59045499Y-47472336D01*
X59057475Y-47419177D01*
X59577977Y-46322534D01*
X59624505Y-46270411D01*
X59691828Y-46251717D01*
X59758570Y-46272389D01*
G37*
%TD.AperFunction*%
%TA.AperFunction,Conductor*%
G36*
X62298570Y-46272389D02*
G01*
X62342021Y-46322534D01*
X62495645Y-46646203D01*
X62862522Y-47419173D01*
X62874500Y-47472342D01*
X62874500Y-52767255D01*
X62872775Y-52782872D01*
X62873061Y-52782899D01*
X62872326Y-52790666D01*
X62874469Y-52858846D01*
X62874500Y-52860793D01*
X62874500Y-52889343D01*
X62874501Y-52889360D01*
X62875368Y-52896231D01*
X62875826Y-52902050D01*
X62877290Y-52948624D01*
X62877291Y-52948627D01*
X62882880Y-52967867D01*
X62886824Y-52986911D01*
X62887228Y-52990103D01*
X62889336Y-53006791D01*
X62906490Y-53050119D01*
X62908382Y-53055647D01*
X62921381Y-53100388D01*
X62931580Y-53117634D01*
X62940136Y-53135100D01*
X62947514Y-53153732D01*
X62974898Y-53191423D01*
X62978106Y-53196307D01*
X63001827Y-53236416D01*
X63001833Y-53236424D01*
X63015990Y-53250580D01*
X63028628Y-53265376D01*
X63040405Y-53281586D01*
X63040406Y-53281587D01*
X63076309Y-53311288D01*
X63080620Y-53315210D01*
X67721750Y-57956341D01*
X68606340Y-58840931D01*
X68631680Y-58877599D01*
X68796723Y-59243259D01*
X68870058Y-59405734D01*
X68871455Y-59408491D01*
X68875123Y-59417371D01*
X68875178Y-59417347D01*
X68877818Y-59423277D01*
X68877821Y-59423284D01*
X68877824Y-59423289D01*
X68886264Y-59437910D01*
X68887869Y-59440874D01*
X68890679Y-59446418D01*
X68891877Y-59448315D01*
X68894746Y-59452599D01*
X68915176Y-59487986D01*
X68931650Y-59555886D01*
X68908798Y-59621913D01*
X68853878Y-59665104D01*
X68796983Y-59673515D01*
X68580002Y-59654532D01*
X68579998Y-59654532D01*
X68353313Y-59674364D01*
X68353302Y-59674366D01*
X68133511Y-59733258D01*
X68133497Y-59733263D01*
X68050697Y-59771874D01*
X67981620Y-59782366D01*
X67917836Y-59753846D01*
X67879597Y-59695369D01*
X67879043Y-59625502D01*
X67894797Y-59593140D01*
X67894284Y-59592844D01*
X67969068Y-59463313D01*
X67992179Y-59423284D01*
X68050674Y-59243256D01*
X68070460Y-59055000D01*
X68050674Y-58866744D01*
X67992179Y-58686716D01*
X67897533Y-58522784D01*
X67770871Y-58382112D01*
X67770870Y-58382111D01*
X67617734Y-58270851D01*
X67617729Y-58270848D01*
X67552243Y-58241692D01*
X67536106Y-58233026D01*
X67515719Y-58220051D01*
X67515718Y-58220050D01*
X66987600Y-57981681D01*
X66950932Y-57956341D01*
X61621819Y-52627228D01*
X61588334Y-52565905D01*
X61585500Y-52539547D01*
X61585500Y-47472341D01*
X61597478Y-47419172D01*
X61605920Y-47401387D01*
X62117977Y-46322534D01*
X62164505Y-46270411D01*
X62231828Y-46251717D01*
X62298570Y-46272389D01*
G37*
%TD.AperFunction*%
%TA.AperFunction,Conductor*%
G36*
X64838570Y-46272389D02*
G01*
X64882021Y-46322535D01*
X65402521Y-47419173D01*
X65414499Y-47472342D01*
X65414500Y-52767255D01*
X65412775Y-52782872D01*
X65413061Y-52782899D01*
X65412326Y-52790666D01*
X65414469Y-52858846D01*
X65414500Y-52860793D01*
X65414500Y-52889343D01*
X65414501Y-52889360D01*
X65415368Y-52896231D01*
X65415826Y-52902050D01*
X65417290Y-52948624D01*
X65417291Y-52948627D01*
X65422880Y-52967867D01*
X65426824Y-52986911D01*
X65427228Y-52990103D01*
X65429336Y-53006791D01*
X65446490Y-53050119D01*
X65448382Y-53055647D01*
X65461381Y-53100388D01*
X65471580Y-53117634D01*
X65480136Y-53135100D01*
X65487514Y-53153732D01*
X65514898Y-53191423D01*
X65518106Y-53196307D01*
X65541827Y-53236416D01*
X65541833Y-53236424D01*
X65555990Y-53250580D01*
X65568628Y-53265376D01*
X65580405Y-53281586D01*
X65580406Y-53281587D01*
X65616309Y-53311288D01*
X65620620Y-53315210D01*
X70261750Y-57956341D01*
X71146340Y-58840931D01*
X71171680Y-58877599D01*
X71336723Y-59243259D01*
X71410058Y-59405734D01*
X71411455Y-59408491D01*
X71415123Y-59417371D01*
X71415178Y-59417347D01*
X71417818Y-59423277D01*
X71417821Y-59423284D01*
X71417824Y-59423289D01*
X71426264Y-59437910D01*
X71427869Y-59440874D01*
X71430679Y-59446418D01*
X71431877Y-59448315D01*
X71434746Y-59452599D01*
X71455176Y-59487986D01*
X71471650Y-59555886D01*
X71448798Y-59621913D01*
X71393878Y-59665104D01*
X71336983Y-59673515D01*
X71120002Y-59654532D01*
X71119998Y-59654532D01*
X70893313Y-59674364D01*
X70893302Y-59674366D01*
X70673511Y-59733258D01*
X70673497Y-59733263D01*
X70590697Y-59771874D01*
X70521620Y-59782366D01*
X70457836Y-59753846D01*
X70419597Y-59695369D01*
X70419043Y-59625502D01*
X70434797Y-59593140D01*
X70434284Y-59592844D01*
X70509068Y-59463313D01*
X70532179Y-59423284D01*
X70590674Y-59243256D01*
X70610460Y-59055000D01*
X70590674Y-58866744D01*
X70532179Y-58686716D01*
X70437533Y-58522784D01*
X70310871Y-58382112D01*
X70310870Y-58382111D01*
X70157734Y-58270851D01*
X70157729Y-58270848D01*
X70092243Y-58241692D01*
X70076106Y-58233026D01*
X70055719Y-58220051D01*
X70055718Y-58220050D01*
X69527600Y-57981681D01*
X69490932Y-57956341D01*
X64161819Y-52627227D01*
X64128334Y-52565904D01*
X64125500Y-52539546D01*
X64125500Y-47472341D01*
X64137478Y-47419172D01*
X64145920Y-47401387D01*
X64657977Y-46322534D01*
X64704505Y-46270411D01*
X64771828Y-46251717D01*
X64838570Y-46272389D01*
G37*
%TD.AperFunction*%
%TA.AperFunction,Conductor*%
G36*
X67378570Y-46272389D02*
G01*
X67422021Y-46322534D01*
X67575645Y-46646203D01*
X67942522Y-47419173D01*
X67954500Y-47472342D01*
X67954500Y-52767255D01*
X67952775Y-52782872D01*
X67953061Y-52782899D01*
X67952326Y-52790666D01*
X67954469Y-52858846D01*
X67954500Y-52860793D01*
X67954500Y-52889343D01*
X67954501Y-52889360D01*
X67955368Y-52896231D01*
X67955826Y-52902050D01*
X67957290Y-52948624D01*
X67957291Y-52948627D01*
X67962880Y-52967867D01*
X67966824Y-52986911D01*
X67967228Y-52990103D01*
X67969336Y-53006791D01*
X67986490Y-53050119D01*
X67988382Y-53055647D01*
X68001381Y-53100388D01*
X68011580Y-53117634D01*
X68020136Y-53135100D01*
X68027514Y-53153732D01*
X68054898Y-53191423D01*
X68058106Y-53196307D01*
X68081827Y-53236416D01*
X68081833Y-53236424D01*
X68095990Y-53250580D01*
X68108628Y-53265376D01*
X68120405Y-53281586D01*
X68120406Y-53281587D01*
X68156309Y-53311288D01*
X68160620Y-53315210D01*
X72801750Y-57956341D01*
X73686340Y-58840931D01*
X73711680Y-58877599D01*
X73876723Y-59243259D01*
X73950058Y-59405734D01*
X73951455Y-59408491D01*
X73955123Y-59417371D01*
X73955178Y-59417347D01*
X73957818Y-59423277D01*
X73957821Y-59423284D01*
X73957824Y-59423289D01*
X73966264Y-59437910D01*
X73967869Y-59440874D01*
X73970679Y-59446418D01*
X73971877Y-59448315D01*
X73974746Y-59452599D01*
X73995176Y-59487986D01*
X74011650Y-59555886D01*
X73988798Y-59621913D01*
X73933878Y-59665104D01*
X73876983Y-59673515D01*
X73660002Y-59654532D01*
X73659998Y-59654532D01*
X73433313Y-59674364D01*
X73433302Y-59674366D01*
X73213511Y-59733258D01*
X73213497Y-59733263D01*
X73130697Y-59771874D01*
X73061620Y-59782366D01*
X72997836Y-59753846D01*
X72959597Y-59695369D01*
X72959043Y-59625502D01*
X72974797Y-59593140D01*
X72974284Y-59592844D01*
X73049068Y-59463313D01*
X73072179Y-59423284D01*
X73130674Y-59243256D01*
X73150460Y-59055000D01*
X73130674Y-58866744D01*
X73072179Y-58686716D01*
X72977533Y-58522784D01*
X72850871Y-58382112D01*
X72850870Y-58382111D01*
X72697734Y-58270851D01*
X72697729Y-58270848D01*
X72632243Y-58241692D01*
X72616106Y-58233026D01*
X72595719Y-58220051D01*
X72595718Y-58220050D01*
X72067600Y-57981681D01*
X72030932Y-57956341D01*
X66701818Y-52627227D01*
X66668333Y-52565904D01*
X66665499Y-52539546D01*
X66665499Y-50062214D01*
X66665499Y-47472336D01*
X66677475Y-47419177D01*
X67197977Y-46322534D01*
X67244505Y-46270411D01*
X67311828Y-46251717D01*
X67378570Y-46272389D01*
G37*
%TD.AperFunction*%
%TA.AperFunction,Conductor*%
G36*
X52138570Y-46272389D02*
G01*
X52182021Y-46322534D01*
X52335645Y-46646203D01*
X52702522Y-47419173D01*
X52714500Y-47472342D01*
X52714500Y-52622255D01*
X52712775Y-52637872D01*
X52713061Y-52637899D01*
X52712326Y-52645666D01*
X52714469Y-52713846D01*
X52714500Y-52715793D01*
X52714500Y-52744343D01*
X52714501Y-52744360D01*
X52715368Y-52751231D01*
X52715826Y-52757050D01*
X52717290Y-52803624D01*
X52717291Y-52803627D01*
X52722880Y-52822867D01*
X52726824Y-52841911D01*
X52728964Y-52858846D01*
X52729336Y-52861791D01*
X52746490Y-52905119D01*
X52748382Y-52910647D01*
X52761382Y-52955390D01*
X52768755Y-52967858D01*
X52771580Y-52972634D01*
X52780138Y-52990103D01*
X52787514Y-53008732D01*
X52814898Y-53046423D01*
X52818106Y-53051307D01*
X52841827Y-53091416D01*
X52841833Y-53091424D01*
X52855990Y-53105580D01*
X52868628Y-53120376D01*
X52880405Y-53136586D01*
X52880406Y-53136587D01*
X52916309Y-53166288D01*
X52920620Y-53170210D01*
X57706750Y-57956341D01*
X58591340Y-58840931D01*
X58616680Y-58877599D01*
X58781723Y-59243259D01*
X58855058Y-59405734D01*
X58856455Y-59408491D01*
X58860123Y-59417371D01*
X58860178Y-59417347D01*
X58862818Y-59423277D01*
X58862821Y-59423284D01*
X58862824Y-59423289D01*
X58871264Y-59437910D01*
X58872869Y-59440874D01*
X58875679Y-59446418D01*
X58876875Y-59448312D01*
X58879746Y-59452601D01*
X58924184Y-59529570D01*
X58940657Y-59597471D01*
X58917804Y-59663497D01*
X58862883Y-59706688D01*
X58793329Y-59713329D01*
X58784704Y-59711345D01*
X58646697Y-59674366D01*
X58646693Y-59674365D01*
X58646692Y-59674365D01*
X58646691Y-59674364D01*
X58646686Y-59674364D01*
X58420002Y-59654532D01*
X58419998Y-59654532D01*
X58193313Y-59674364D01*
X58193302Y-59674366D01*
X58055294Y-59711345D01*
X57985444Y-59709682D01*
X57927582Y-59670519D01*
X57900078Y-59606290D01*
X57911665Y-59537388D01*
X57915804Y-59529588D01*
X57977179Y-59423284D01*
X58035674Y-59243256D01*
X58055460Y-59055000D01*
X58035674Y-58866744D01*
X57977179Y-58686716D01*
X57882533Y-58522784D01*
X57755871Y-58382112D01*
X57755870Y-58382111D01*
X57602734Y-58270851D01*
X57602729Y-58270848D01*
X57537243Y-58241692D01*
X57521106Y-58233026D01*
X57500719Y-58220051D01*
X57500718Y-58220050D01*
X56972600Y-57981681D01*
X56935932Y-57956341D01*
X51461819Y-52482227D01*
X51428334Y-52420904D01*
X51425500Y-52394546D01*
X51425500Y-47472341D01*
X51437478Y-47419172D01*
X51445920Y-47401387D01*
X51957977Y-46322534D01*
X52004505Y-46270411D01*
X52071828Y-46251717D01*
X52138570Y-46272389D01*
G37*
%TD.AperFunction*%
%TA.AperFunction,Conductor*%
G36*
X54678570Y-46272389D02*
G01*
X54722021Y-46322534D01*
X54875645Y-46646203D01*
X55242522Y-47419173D01*
X55254500Y-47472342D01*
X55254500Y-52767255D01*
X55252775Y-52782872D01*
X55253061Y-52782899D01*
X55252326Y-52790666D01*
X55254469Y-52858846D01*
X55254500Y-52860793D01*
X55254500Y-52889343D01*
X55254501Y-52889360D01*
X55255368Y-52896231D01*
X55255826Y-52902050D01*
X55257290Y-52948624D01*
X55257291Y-52948627D01*
X55262880Y-52967867D01*
X55266824Y-52986911D01*
X55267228Y-52990103D01*
X55269336Y-53006791D01*
X55286490Y-53050119D01*
X55288382Y-53055647D01*
X55301381Y-53100388D01*
X55311580Y-53117634D01*
X55320136Y-53135100D01*
X55327514Y-53153732D01*
X55354898Y-53191423D01*
X55358106Y-53196307D01*
X55381827Y-53236416D01*
X55381833Y-53236424D01*
X55395990Y-53250580D01*
X55408628Y-53265376D01*
X55420405Y-53281586D01*
X55420406Y-53281587D01*
X55456309Y-53311288D01*
X55460620Y-53315210D01*
X59529350Y-57383941D01*
X60152702Y-58007293D01*
X60186187Y-58068616D01*
X60181203Y-58138308D01*
X60139331Y-58194241D01*
X60073867Y-58218658D01*
X60014008Y-58207995D01*
X59983535Y-58194241D01*
X59512600Y-57981681D01*
X59475932Y-57956341D01*
X54001819Y-52482227D01*
X53968334Y-52420904D01*
X53965500Y-52394546D01*
X53965500Y-47472341D01*
X53977478Y-47419172D01*
X53985920Y-47401387D01*
X54497977Y-46322534D01*
X54544505Y-46270411D01*
X54611828Y-46251717D01*
X54678570Y-46272389D01*
G37*
%TD.AperFunction*%
%TD*%
%TA.AperFunction,Conductor*%
%TO.N,D5*%
G36*
X69235071Y-58404252D02*
G01*
X69847760Y-58680793D01*
X69853891Y-58687320D01*
X69853767Y-58695909D01*
X69707563Y-59051195D01*
X69701245Y-59057542D01*
X69701195Y-59057563D01*
X69345909Y-59203767D01*
X69336955Y-59203746D01*
X69330793Y-59197760D01*
X69266676Y-59055707D01*
X69104279Y-58695909D01*
X69054252Y-58585071D01*
X69053972Y-58576121D01*
X69056641Y-58571987D01*
X69221986Y-58406642D01*
X69230258Y-58403216D01*
X69235071Y-58404252D01*
G37*
%TD.AperFunction*%
%TD*%
%TA.AperFunction,Conductor*%
%TO.N,VCC*%
G36*
X101292208Y-36095180D02*
G01*
X101298199Y-36101354D01*
X101599134Y-36825510D01*
X101599144Y-36834463D01*
X101599135Y-36834485D01*
X101599134Y-36834490D01*
X101298199Y-37558645D01*
X101291860Y-37564970D01*
X101283258Y-37565099D01*
X100007563Y-37082858D01*
X100001036Y-37076727D01*
X100000000Y-37071914D01*
X100000000Y-36588085D01*
X100003427Y-36579812D01*
X100007563Y-36577141D01*
X101283260Y-36094900D01*
X101292208Y-36095180D01*
G37*
%TD.AperFunction*%
%TD*%
%TA.AperFunction,Conductor*%
%TO.N,A2*%
G36*
X57692252Y-60658541D02*
G01*
X57708939Y-60665431D01*
X58416212Y-60957437D01*
X58422551Y-60963762D01*
X58422562Y-60963787D01*
X58721456Y-61687743D01*
X58721445Y-61696698D01*
X58715106Y-61703023D01*
X58714568Y-61703229D01*
X57383987Y-62177275D01*
X57375043Y-62176824D01*
X57371787Y-62174527D01*
X57205472Y-62008212D01*
X57202045Y-61999939D01*
X57202722Y-61996018D01*
X57676771Y-60665428D01*
X57682774Y-60658788D01*
X57691718Y-60658337D01*
X57692252Y-60658541D01*
G37*
%TD.AperFunction*%
%TD*%
%TA.AperFunction,Conductor*%
%TO.N,RDY*%
G36*
X99665448Y-59940604D02*
G01*
X99787753Y-59991430D01*
X99794078Y-59997769D01*
X99794067Y-60006724D01*
X99793833Y-60007251D01*
X99188172Y-61283317D01*
X99181529Y-61289321D01*
X99177602Y-61290000D01*
X98942398Y-61290000D01*
X98934125Y-61286573D01*
X98931828Y-61283317D01*
X98326166Y-60007251D01*
X98325715Y-59998307D01*
X98331719Y-59991664D01*
X98332234Y-59991434D01*
X99055512Y-59690864D01*
X99064461Y-59690854D01*
X99665448Y-59940604D01*
G37*
%TD.AperFunction*%
%TD*%
%TA.AperFunction,Conductor*%
%TO.N,D6*%
G36*
X71775071Y-58404252D02*
G01*
X72387760Y-58680793D01*
X72393891Y-58687320D01*
X72393767Y-58695909D01*
X72247563Y-59051195D01*
X72241245Y-59057542D01*
X72241195Y-59057563D01*
X71885909Y-59203767D01*
X71876955Y-59203746D01*
X71870793Y-59197760D01*
X71806676Y-59055707D01*
X71644279Y-58695909D01*
X71594252Y-58585071D01*
X71593972Y-58576121D01*
X71596641Y-58571987D01*
X71761986Y-58406642D01*
X71770258Y-58403216D01*
X71775071Y-58404252D01*
G37*
%TD.AperFunction*%
%TD*%
%TA.AperFunction,Conductor*%
%TO.N,VCC*%
G36*
X31510961Y-79906798D02*
G01*
X31853201Y-80249038D01*
X31856628Y-80257311D01*
X31855639Y-80262018D01*
X31269900Y-81594807D01*
X31263434Y-81601003D01*
X31254723Y-81600914D01*
X30483785Y-81282562D01*
X30477447Y-81276238D01*
X30159085Y-80505274D01*
X30159094Y-80496321D01*
X30165191Y-80490099D01*
X31497982Y-79904359D01*
X31506933Y-79904168D01*
X31510961Y-79906798D01*
G37*
%TD.AperFunction*%
%TD*%
%TA.AperFunction,Conductor*%
%TO.N,D6*%
G36*
X66645448Y-45970604D02*
G01*
X66767753Y-46021430D01*
X66774078Y-46027769D01*
X66774067Y-46036724D01*
X66773833Y-46037251D01*
X66168172Y-47313317D01*
X66161529Y-47319321D01*
X66157602Y-47320000D01*
X65922398Y-47320000D01*
X65914125Y-47316573D01*
X65911828Y-47313317D01*
X65306166Y-46037251D01*
X65305715Y-46028307D01*
X65311719Y-46021664D01*
X65312234Y-46021434D01*
X66035512Y-45720864D01*
X66044461Y-45720854D01*
X66645448Y-45970604D01*
G37*
%TD.AperFunction*%
%TD*%
%TA.AperFunction,Conductor*%
%TO.N,D1*%
G36*
X53945448Y-45970604D02*
G01*
X54067753Y-46021430D01*
X54074078Y-46027769D01*
X54074067Y-46036724D01*
X54073833Y-46037251D01*
X53468172Y-47313317D01*
X53461529Y-47319321D01*
X53457602Y-47320000D01*
X53222398Y-47320000D01*
X53214125Y-47316573D01*
X53211828Y-47313317D01*
X52606166Y-46037251D01*
X52605715Y-46028307D01*
X52611719Y-46021664D01*
X52612234Y-46021434D01*
X53335512Y-45720864D01*
X53344461Y-45720854D01*
X53945448Y-45970604D01*
G37*
%TD.AperFunction*%
%TD*%
%TA.AperFunction,Conductor*%
%TO.N,A7*%
G36*
X70392252Y-60658541D02*
G01*
X70408939Y-60665431D01*
X71116212Y-60957437D01*
X71122551Y-60963762D01*
X71122562Y-60963787D01*
X71421456Y-61687743D01*
X71421445Y-61696698D01*
X71415106Y-61703023D01*
X71414568Y-61703229D01*
X70083987Y-62177275D01*
X70075043Y-62176824D01*
X70071787Y-62174527D01*
X69905472Y-62008212D01*
X69902045Y-61999939D01*
X69902722Y-61996018D01*
X70376771Y-60665428D01*
X70382774Y-60658788D01*
X70391718Y-60658337D01*
X70392252Y-60658541D01*
G37*
%TD.AperFunction*%
%TD*%
%TA.AperFunction,Conductor*%
%TO.N,A6*%
G36*
X67852252Y-60658541D02*
G01*
X67868939Y-60665431D01*
X68576212Y-60957437D01*
X68582551Y-60963762D01*
X68582562Y-60963787D01*
X68881456Y-61687743D01*
X68881445Y-61696698D01*
X68875106Y-61703023D01*
X68874568Y-61703229D01*
X67543987Y-62177275D01*
X67535043Y-62176824D01*
X67531787Y-62174527D01*
X67365472Y-62008212D01*
X67362045Y-61999939D01*
X67362722Y-61996018D01*
X67836771Y-60665428D01*
X67842774Y-60658788D01*
X67851718Y-60658337D01*
X67852252Y-60658541D01*
G37*
%TD.AperFunction*%
%TD*%
%TA.AperFunction,Conductor*%
%TO.N,VCC*%
G36*
X28004925Y-40238794D02*
G01*
X28007335Y-40240646D01*
X28348123Y-40581434D01*
X28350986Y-40586117D01*
X28675794Y-41593588D01*
X28675071Y-41602513D01*
X28669141Y-41607985D01*
X27943780Y-41908845D01*
X27934825Y-41908850D01*
X27934807Y-41908842D01*
X27213217Y-41608973D01*
X27206892Y-41602634D01*
X27206903Y-41593679D01*
X27207576Y-41592316D01*
X27988937Y-40243055D01*
X27996049Y-40237614D01*
X28004925Y-40238794D01*
G37*
%TD.AperFunction*%
%TD*%
%TA.AperFunction,Conductor*%
%TO.N,A11*%
G36*
X80552252Y-60658541D02*
G01*
X80568939Y-60665431D01*
X81276212Y-60957437D01*
X81282551Y-60963762D01*
X81282562Y-60963787D01*
X81581456Y-61687743D01*
X81581445Y-61696698D01*
X81575106Y-61703023D01*
X81574568Y-61703229D01*
X80243987Y-62177275D01*
X80235043Y-62176824D01*
X80231787Y-62174527D01*
X80065472Y-62008212D01*
X80062045Y-61999939D01*
X80062722Y-61996018D01*
X80536771Y-60665428D01*
X80542774Y-60658788D01*
X80551718Y-60658337D01*
X80552252Y-60658541D01*
G37*
%TD.AperFunction*%
%TD*%
%TA.AperFunction,Conductor*%
%TO.N,VCC*%
G36*
X103192437Y-36577141D02*
G01*
X103198964Y-36583272D01*
X103200000Y-36588085D01*
X103200000Y-37071914D01*
X103196573Y-37080187D01*
X103192437Y-37082858D01*
X101916741Y-37565099D01*
X101907791Y-37564819D01*
X101901801Y-37558646D01*
X101600864Y-36834487D01*
X101600854Y-36825538D01*
X101901801Y-36101352D01*
X101908139Y-36095029D01*
X101916739Y-36094900D01*
X103192437Y-36577141D01*
G37*
%TD.AperFunction*%
%TD*%
%TA.AperFunction,Conductor*%
%TO.N,A4*%
G36*
X62772252Y-60658541D02*
G01*
X62788939Y-60665431D01*
X63496212Y-60957437D01*
X63502551Y-60963762D01*
X63502562Y-60963787D01*
X63801456Y-61687743D01*
X63801445Y-61696698D01*
X63795106Y-61703023D01*
X63794568Y-61703229D01*
X62463987Y-62177275D01*
X62455043Y-62176824D01*
X62451787Y-62174527D01*
X62285472Y-62008212D01*
X62282045Y-61999939D01*
X62282722Y-61996018D01*
X62756771Y-60665428D01*
X62762774Y-60658788D01*
X62771718Y-60658337D01*
X62772252Y-60658541D01*
G37*
%TD.AperFunction*%
%TD*%
%TA.AperFunction,Conductor*%
%TO.N,Net-(U1-BE)*%
G36*
X39144956Y-68633175D02*
G01*
X39148212Y-68635472D01*
X39314527Y-68801787D01*
X39317954Y-68810060D01*
X39317275Y-68813987D01*
X38843229Y-70144568D01*
X38837225Y-70151211D01*
X38828281Y-70151662D01*
X38827743Y-70151456D01*
X38103787Y-69852562D01*
X38097448Y-69846237D01*
X38097437Y-69846212D01*
X37798543Y-69122256D01*
X37798554Y-69113301D01*
X37804893Y-69106976D01*
X37805389Y-69106785D01*
X39136014Y-68632724D01*
X39144956Y-68633175D01*
G37*
%TD.AperFunction*%
%TD*%
%TA.AperFunction,Conductor*%
%TO.N,Net-(U1-\u03D51)*%
G36*
X38225875Y-64443427D02*
G01*
X38228172Y-64446683D01*
X38833833Y-65722748D01*
X38834284Y-65731692D01*
X38828280Y-65738335D01*
X38827753Y-65738569D01*
X38104489Y-66039134D01*
X38095536Y-66039144D01*
X37869470Y-65945199D01*
X37372246Y-65738569D01*
X37365921Y-65732230D01*
X37365932Y-65723275D01*
X37366154Y-65722773D01*
X37971828Y-64446682D01*
X37978471Y-64440679D01*
X37982398Y-64440000D01*
X38217602Y-64440000D01*
X38225875Y-64443427D01*
G37*
%TD.AperFunction*%
%TD*%
%TA.AperFunction,Conductor*%
%TO.N,Net-(U1-BE)*%
G36*
X43916698Y-45418554D02*
G01*
X43923023Y-45424893D01*
X43923227Y-45425426D01*
X44291495Y-46459104D01*
X44397275Y-46756012D01*
X44396824Y-46764956D01*
X44394527Y-46768212D01*
X44228212Y-46934527D01*
X44219939Y-46937954D01*
X44216013Y-46937275D01*
X42885430Y-46463228D01*
X42878788Y-46457225D01*
X42878337Y-46448281D01*
X42878536Y-46447760D01*
X43177438Y-45723785D01*
X43183762Y-45717448D01*
X43183764Y-45717446D01*
X43907744Y-45418543D01*
X43916698Y-45418554D01*
G37*
%TD.AperFunction*%
%TD*%
%TA.AperFunction,Conductor*%
%TO.N,A4*%
G36*
X44295690Y-79992460D02*
G01*
X44298897Y-79994734D01*
X44465265Y-80161102D01*
X44468692Y-80169375D01*
X44468031Y-80173251D01*
X43969388Y-81593629D01*
X43963415Y-81600300D01*
X43954473Y-81600792D01*
X43953883Y-81600567D01*
X43183785Y-81282562D01*
X43177447Y-81276238D01*
X42859432Y-80506115D01*
X42859441Y-80497161D01*
X42865780Y-80490836D01*
X42866345Y-80490620D01*
X44286748Y-79991968D01*
X44295690Y-79992460D01*
G37*
%TD.AperFunction*%
%TD*%
%TA.AperFunction,Conductor*%
%TO.N,RDY*%
G36*
X99185912Y-79583427D02*
G01*
X99188186Y-79586634D01*
X99839950Y-80943586D01*
X99840442Y-80952528D01*
X99834469Y-80959199D01*
X99833892Y-80959457D01*
X99064488Y-81279134D01*
X99055533Y-81279143D01*
X99055510Y-81279134D01*
X98286107Y-80959457D01*
X98279782Y-80953118D01*
X98279791Y-80944163D01*
X98280049Y-80943586D01*
X98931814Y-79586634D01*
X98938485Y-79580661D01*
X98942361Y-79580000D01*
X99177639Y-79580000D01*
X99185912Y-79583427D01*
G37*
%TD.AperFunction*%
%TD*%
%TA.AperFunction,Conductor*%
%TO.N,D3*%
G36*
X64155071Y-58404252D02*
G01*
X64767760Y-58680793D01*
X64773891Y-58687320D01*
X64773767Y-58695909D01*
X64627563Y-59051195D01*
X64621245Y-59057542D01*
X64621195Y-59057563D01*
X64265909Y-59203767D01*
X64256955Y-59203746D01*
X64250793Y-59197760D01*
X64186676Y-59055707D01*
X64024279Y-58695909D01*
X63974252Y-58585071D01*
X63973972Y-58576121D01*
X63976641Y-58571987D01*
X64141986Y-58406642D01*
X64150258Y-58403216D01*
X64155071Y-58404252D01*
G37*
%TD.AperFunction*%
%TD*%
%TA.AperFunction,Conductor*%
%TO.N,VCC*%
G36*
X28668646Y-66341801D02*
G01*
X28674970Y-66348139D01*
X28675099Y-66356741D01*
X28192859Y-67632437D01*
X28186728Y-67638964D01*
X28181915Y-67640000D01*
X27698085Y-67640000D01*
X27689812Y-67636573D01*
X27687141Y-67632437D01*
X27204900Y-66356739D01*
X27205180Y-66347791D01*
X27211352Y-66341801D01*
X27935512Y-66040864D01*
X27944461Y-66040854D01*
X28668646Y-66341801D01*
G37*
%TD.AperFunction*%
%TD*%
%TA.AperFunction,Conductor*%
%TO.N,VCC*%
G36*
X99310188Y-47933427D02*
G01*
X99312859Y-47937563D01*
X99795099Y-49213258D01*
X99794819Y-49222208D01*
X99788645Y-49228199D01*
X99064489Y-49529134D01*
X99055536Y-49529144D01*
X98331353Y-49228198D01*
X98325029Y-49221860D01*
X98324900Y-49213260D01*
X98807141Y-47937562D01*
X98813272Y-47931036D01*
X98818085Y-47930000D01*
X99301915Y-47930000D01*
X99310188Y-47933427D01*
G37*
%TD.AperFunction*%
%TD*%
%TA.AperFunction,Conductor*%
%TO.N,A11*%
G36*
X62075690Y-79992460D02*
G01*
X62078897Y-79994734D01*
X62245265Y-80161102D01*
X62248692Y-80169375D01*
X62248031Y-80173251D01*
X61749388Y-81593629D01*
X61743415Y-81600300D01*
X61734473Y-81600792D01*
X61733883Y-81600567D01*
X60963785Y-81282562D01*
X60957447Y-81276238D01*
X60639432Y-80506115D01*
X60639441Y-80497161D01*
X60645780Y-80490836D01*
X60646345Y-80490620D01*
X62066748Y-79991968D01*
X62075690Y-79992460D01*
G37*
%TD.AperFunction*%
%TD*%
%TA.AperFunction,Conductor*%
%TO.N,D2*%
G36*
X61615071Y-58404252D02*
G01*
X62227760Y-58680793D01*
X62233891Y-58687320D01*
X62233767Y-58695909D01*
X62087563Y-59051195D01*
X62081245Y-59057542D01*
X62081195Y-59057563D01*
X61725909Y-59203767D01*
X61716955Y-59203746D01*
X61710793Y-59197760D01*
X61646676Y-59055707D01*
X61484279Y-58695909D01*
X61434252Y-58585071D01*
X61433972Y-58576121D01*
X61436641Y-58571987D01*
X61601986Y-58406642D01*
X61610258Y-58403216D01*
X61615071Y-58404252D01*
G37*
%TD.AperFunction*%
%TD*%
%TA.AperFunction,Conductor*%
%TO.N,~{RESET}*%
G36*
X107285448Y-47240604D02*
G01*
X107407753Y-47291430D01*
X107414078Y-47297769D01*
X107414067Y-47306724D01*
X107413833Y-47307251D01*
X106808172Y-48583317D01*
X106801529Y-48589321D01*
X106797602Y-48590000D01*
X106562398Y-48590000D01*
X106554125Y-48586573D01*
X106551828Y-48583317D01*
X105946166Y-47307251D01*
X105945715Y-47298307D01*
X105951719Y-47291664D01*
X105952234Y-47291434D01*
X106675512Y-46990864D01*
X106684461Y-46990854D01*
X107285448Y-47240604D01*
G37*
%TD.AperFunction*%
%TD*%
%TA.AperFunction,Conductor*%
%TO.N,A3*%
G36*
X41755690Y-79992460D02*
G01*
X41758897Y-79994734D01*
X41925265Y-80161102D01*
X41928692Y-80169375D01*
X41928031Y-80173251D01*
X41429388Y-81593629D01*
X41423415Y-81600300D01*
X41414473Y-81600792D01*
X41413883Y-81600567D01*
X40643785Y-81282562D01*
X40637447Y-81276238D01*
X40319432Y-80506115D01*
X40319441Y-80497161D01*
X40325780Y-80490836D01*
X40326345Y-80490620D01*
X41746748Y-79991968D01*
X41755690Y-79992460D01*
G37*
%TD.AperFunction*%
%TD*%
%TA.AperFunction,Conductor*%
%TO.N,A2*%
G36*
X39215690Y-79992460D02*
G01*
X39218897Y-79994734D01*
X39385265Y-80161102D01*
X39388692Y-80169375D01*
X39388031Y-80173251D01*
X38889388Y-81593629D01*
X38883415Y-81600300D01*
X38874473Y-81600792D01*
X38873883Y-81600567D01*
X38103785Y-81282562D01*
X38097447Y-81276238D01*
X37779432Y-80506115D01*
X37779441Y-80497161D01*
X37785780Y-80490836D01*
X37786345Y-80490620D01*
X39206748Y-79991968D01*
X39215690Y-79992460D01*
G37*
%TD.AperFunction*%
%TD*%
%TA.AperFunction,Conductor*%
%TO.N,A5*%
G36*
X65312252Y-60658541D02*
G01*
X65328939Y-60665431D01*
X66036212Y-60957437D01*
X66042551Y-60963762D01*
X66042562Y-60963787D01*
X66341456Y-61687743D01*
X66341445Y-61696698D01*
X66335106Y-61703023D01*
X66334568Y-61703229D01*
X65003987Y-62177275D01*
X64995043Y-62176824D01*
X64991787Y-62174527D01*
X64825472Y-62008212D01*
X64822045Y-61999939D01*
X64822722Y-61996018D01*
X65296771Y-60665428D01*
X65302774Y-60658788D01*
X65311718Y-60658337D01*
X65312252Y-60658541D01*
G37*
%TD.AperFunction*%
%TD*%
%TA.AperFunction,Conductor*%
%TO.N,VCC*%
G36*
X28190188Y-68253427D02*
G01*
X28192859Y-68257563D01*
X28675099Y-69533258D01*
X28674819Y-69542208D01*
X28668645Y-69548199D01*
X27944490Y-69849134D01*
X27935536Y-69849144D01*
X27211353Y-69548198D01*
X27205029Y-69541860D01*
X27204900Y-69533260D01*
X27687141Y-68257562D01*
X27693272Y-68251036D01*
X27698085Y-68250000D01*
X28181915Y-68250000D01*
X28190188Y-68253427D01*
G37*
%TD.AperFunction*%
%TD*%
%TA.AperFunction,Conductor*%
%TO.N,A10*%
G36*
X59535690Y-79992460D02*
G01*
X59538897Y-79994734D01*
X59705265Y-80161102D01*
X59708692Y-80169375D01*
X59708031Y-80173251D01*
X59209388Y-81593629D01*
X59203415Y-81600300D01*
X59194473Y-81600792D01*
X59193883Y-81600567D01*
X58423785Y-81282562D01*
X58417447Y-81276238D01*
X58099432Y-80506115D01*
X58099441Y-80497161D01*
X58105780Y-80490836D01*
X58106345Y-80490620D01*
X59526748Y-79991968D01*
X59535690Y-79992460D01*
G37*
%TD.AperFunction*%
%TD*%
%TA.AperFunction,Conductor*%
%TO.N,~{IRQ}*%
G36*
X40999109Y-52218719D02*
G01*
X41005427Y-52225066D01*
X41005551Y-52233655D01*
X40767859Y-52862437D01*
X40761728Y-52868964D01*
X40756915Y-52870000D01*
X40523085Y-52870000D01*
X40514812Y-52866573D01*
X40512141Y-52862437D01*
X40274448Y-52233655D01*
X40274728Y-52224705D01*
X40280889Y-52218719D01*
X40635500Y-52070875D01*
X40644449Y-52070855D01*
X40999109Y-52218719D01*
G37*
%TD.AperFunction*%
%TD*%
%TA.AperFunction,Conductor*%
%TO.N,D0*%
G36*
X56680071Y-58404252D02*
G01*
X57292760Y-58680793D01*
X57298891Y-58687320D01*
X57298767Y-58695909D01*
X57152563Y-59051195D01*
X57146245Y-59057542D01*
X57146195Y-59057563D01*
X56790909Y-59203767D01*
X56781955Y-59203746D01*
X56775793Y-59197760D01*
X56711676Y-59055707D01*
X56549279Y-58695909D01*
X56499252Y-58585071D01*
X56498972Y-58576121D01*
X56501641Y-58571987D01*
X56666986Y-58406642D01*
X56675258Y-58403216D01*
X56680071Y-58404252D01*
G37*
%TD.AperFunction*%
%TD*%
%TA.AperFunction,Conductor*%
%TO.N,VCC*%
G36*
X28190188Y-64443427D02*
G01*
X28192859Y-64447563D01*
X28675099Y-65723258D01*
X28674819Y-65732208D01*
X28668645Y-65738199D01*
X27944490Y-66039134D01*
X27935536Y-66039144D01*
X27211353Y-65738198D01*
X27205029Y-65731860D01*
X27204900Y-65723260D01*
X27687141Y-64447562D01*
X27693272Y-64441036D01*
X27698085Y-64440000D01*
X28181915Y-64440000D01*
X28190188Y-64443427D01*
G37*
%TD.AperFunction*%
%TD*%
%TA.AperFunction,Conductor*%
%TO.N,A0*%
G36*
X52612252Y-60658541D02*
G01*
X52628939Y-60665431D01*
X53336212Y-60957437D01*
X53342551Y-60963762D01*
X53342562Y-60963787D01*
X53641456Y-61687743D01*
X53641445Y-61696698D01*
X53635106Y-61703023D01*
X53634568Y-61703229D01*
X52303987Y-62177275D01*
X52295043Y-62176824D01*
X52291787Y-62174527D01*
X52125472Y-62008212D01*
X52122045Y-61999939D01*
X52122722Y-61996018D01*
X52596771Y-60665428D01*
X52602774Y-60658788D01*
X52611718Y-60658337D01*
X52612252Y-60658541D01*
G37*
%TD.AperFunction*%
%TD*%
%TA.AperFunction,Conductor*%
%TO.N,A6*%
G36*
X49375690Y-79992460D02*
G01*
X49378897Y-79994734D01*
X49545265Y-80161102D01*
X49548692Y-80169375D01*
X49548031Y-80173251D01*
X49049388Y-81593629D01*
X49043415Y-81600300D01*
X49034473Y-81600792D01*
X49033883Y-81600567D01*
X48263785Y-81282562D01*
X48257447Y-81276238D01*
X47939432Y-80506115D01*
X47939441Y-80497161D01*
X47945780Y-80490836D01*
X47946345Y-80490620D01*
X49366748Y-79991968D01*
X49375690Y-79992460D01*
G37*
%TD.AperFunction*%
%TD*%
%TA.AperFunction,Conductor*%
%TO.N,~{IRQ}*%
G36*
X102256690Y-47261898D02*
G01*
X102327753Y-47291430D01*
X102334078Y-47297769D01*
X102334067Y-47306724D01*
X102333833Y-47307251D01*
X101728172Y-48583317D01*
X101721529Y-48589321D01*
X101717602Y-48590000D01*
X101482398Y-48590000D01*
X101474125Y-48586573D01*
X101471828Y-48583317D01*
X100866166Y-47307251D01*
X100865715Y-47298307D01*
X100871719Y-47291664D01*
X100872234Y-47291434D01*
X101595512Y-46990864D01*
X101604461Y-46990854D01*
X102256690Y-47261898D01*
G37*
%TD.AperFunction*%
%TD*%
%TA.AperFunction,Conductor*%
%TO.N,A9*%
G36*
X56995690Y-79992460D02*
G01*
X56998897Y-79994734D01*
X57165265Y-80161102D01*
X57168692Y-80169375D01*
X57168031Y-80173251D01*
X56669388Y-81593629D01*
X56663415Y-81600300D01*
X56654473Y-81600792D01*
X56653883Y-81600567D01*
X55883785Y-81282562D01*
X55877447Y-81276238D01*
X55559432Y-80506115D01*
X55559441Y-80497161D01*
X55565780Y-80490836D01*
X55566345Y-80490620D01*
X56986748Y-79991968D01*
X56995690Y-79992460D01*
G37*
%TD.AperFunction*%
%TD*%
%TA.AperFunction,Conductor*%
%TO.N,D2*%
G36*
X56536690Y-45991898D02*
G01*
X56607753Y-46021430D01*
X56614078Y-46027769D01*
X56614067Y-46036724D01*
X56613833Y-46037251D01*
X56008172Y-47313317D01*
X56001529Y-47319321D01*
X55997602Y-47320000D01*
X55762398Y-47320000D01*
X55754125Y-47316573D01*
X55751828Y-47313317D01*
X55146166Y-46037251D01*
X55145715Y-46028307D01*
X55151719Y-46021664D01*
X55152234Y-46021434D01*
X55875512Y-45720864D01*
X55884461Y-45720854D01*
X56536690Y-45991898D01*
G37*
%TD.AperFunction*%
%TD*%
%TA.AperFunction,Conductor*%
%TO.N,VCC*%
G36*
X104390188Y-47933427D02*
G01*
X104392859Y-47937563D01*
X104875099Y-49213258D01*
X104874819Y-49222208D01*
X104868645Y-49228199D01*
X104144490Y-49529134D01*
X104135536Y-49529144D01*
X103411353Y-49228198D01*
X103405029Y-49221860D01*
X103404900Y-49213260D01*
X103887141Y-47937562D01*
X103893272Y-47931036D01*
X103898085Y-47930000D01*
X104381915Y-47930000D01*
X104390188Y-47933427D01*
G37*
%TD.AperFunction*%
%TD*%
%TA.AperFunction,Conductor*%
%TO.N,A1*%
G36*
X55152252Y-60658541D02*
G01*
X55168939Y-60665431D01*
X55876212Y-60957437D01*
X55882551Y-60963762D01*
X55882562Y-60963787D01*
X56181456Y-61687743D01*
X56181445Y-61696698D01*
X56175106Y-61703023D01*
X56174568Y-61703229D01*
X54843987Y-62177275D01*
X54835043Y-62176824D01*
X54831787Y-62174527D01*
X54665472Y-62008212D01*
X54662045Y-61999939D01*
X54662722Y-61996018D01*
X55136771Y-60665428D01*
X55142774Y-60658788D01*
X55151718Y-60658337D01*
X55152252Y-60658541D01*
G37*
%TD.AperFunction*%
%TD*%
%TA.AperFunction,Conductor*%
%TO.N,~{IRQ}*%
G36*
X101725912Y-79583427D02*
G01*
X101728186Y-79586634D01*
X102379950Y-80943586D01*
X102380442Y-80952528D01*
X102374469Y-80959199D01*
X102373892Y-80959457D01*
X101604489Y-81279134D01*
X101595534Y-81279143D01*
X101595511Y-81279134D01*
X100826107Y-80959457D01*
X100819782Y-80953118D01*
X100819791Y-80944163D01*
X100820049Y-80943586D01*
X101471814Y-79586634D01*
X101478485Y-79580661D01*
X101482361Y-79580000D01*
X101717639Y-79580000D01*
X101725912Y-79583427D01*
G37*
%TD.AperFunction*%
%TD*%
%TA.AperFunction,Conductor*%
%TO.N,Net-(U1-\u03D51)*%
G36*
X38705448Y-61210604D02*
G01*
X38827753Y-61261430D01*
X38834078Y-61267769D01*
X38834067Y-61276724D01*
X38833833Y-61277251D01*
X38228172Y-62553317D01*
X38221529Y-62559321D01*
X38217602Y-62560000D01*
X37982398Y-62560000D01*
X37974125Y-62556573D01*
X37971828Y-62553317D01*
X37366166Y-61277251D01*
X37365715Y-61268307D01*
X37371719Y-61261664D01*
X37372234Y-61261434D01*
X38095512Y-60960864D01*
X38104461Y-60960854D01*
X38705448Y-61210604D01*
G37*
%TD.AperFunction*%
%TD*%
%TA.AperFunction,Conductor*%
%TO.N,A8*%
G36*
X54455690Y-79992460D02*
G01*
X54458897Y-79994734D01*
X54625265Y-80161102D01*
X54628692Y-80169375D01*
X54628031Y-80173251D01*
X54129388Y-81593629D01*
X54123415Y-81600300D01*
X54114473Y-81600792D01*
X54113883Y-81600567D01*
X53343785Y-81282562D01*
X53337447Y-81276238D01*
X53019432Y-80506115D01*
X53019441Y-80497161D01*
X53025780Y-80490836D01*
X53026345Y-80490620D01*
X54446748Y-79991968D01*
X54455690Y-79992460D01*
G37*
%TD.AperFunction*%
%TD*%
%TA.AperFunction,Conductor*%
%TO.N,D4*%
G36*
X61616690Y-45991898D02*
G01*
X61687753Y-46021430D01*
X61694078Y-46027769D01*
X61694067Y-46036724D01*
X61693833Y-46037251D01*
X61088172Y-47313317D01*
X61081529Y-47319321D01*
X61077602Y-47320000D01*
X60842398Y-47320000D01*
X60834125Y-47316573D01*
X60831828Y-47313317D01*
X60226166Y-46037251D01*
X60225715Y-46028307D01*
X60231719Y-46021664D01*
X60232234Y-46021434D01*
X60955512Y-45720864D01*
X60964461Y-45720854D01*
X61616690Y-45991898D01*
G37*
%TD.AperFunction*%
%TD*%
%TA.AperFunction,Conductor*%
%TO.N,D1*%
G36*
X59220071Y-58404252D02*
G01*
X59832760Y-58680793D01*
X59838891Y-58687320D01*
X59838767Y-58695909D01*
X59692563Y-59051195D01*
X59686245Y-59057542D01*
X59686195Y-59057563D01*
X59330909Y-59203767D01*
X59321955Y-59203746D01*
X59315793Y-59197760D01*
X59251676Y-59055707D01*
X59089279Y-58695909D01*
X59039252Y-58585071D01*
X59038972Y-58576121D01*
X59041641Y-58571987D01*
X59206986Y-58406642D01*
X59215258Y-58403216D01*
X59220071Y-58404252D01*
G37*
%TD.AperFunction*%
%TD*%
%TA.AperFunction,Conductor*%
%TO.N,A12*%
G36*
X64615690Y-79992460D02*
G01*
X64618897Y-79994734D01*
X64785265Y-80161102D01*
X64788692Y-80169375D01*
X64788031Y-80173251D01*
X64289388Y-81593629D01*
X64283415Y-81600300D01*
X64274473Y-81600792D01*
X64273883Y-81600567D01*
X63503785Y-81282562D01*
X63497447Y-81276238D01*
X63179432Y-80506115D01*
X63179441Y-80497161D01*
X63185780Y-80490836D01*
X63186345Y-80490620D01*
X64606748Y-79991968D01*
X64615690Y-79992460D01*
G37*
%TD.AperFunction*%
%TD*%
%TA.AperFunction,Conductor*%
%TO.N,R{slash}~{W}*%
G36*
X49304956Y-44503175D02*
G01*
X49308212Y-44505472D01*
X49474527Y-44671787D01*
X49477954Y-44680060D01*
X49477275Y-44683987D01*
X49003229Y-46014568D01*
X48997225Y-46021211D01*
X48988281Y-46021662D01*
X48987743Y-46021456D01*
X48263787Y-45722562D01*
X48257448Y-45716237D01*
X48257437Y-45716212D01*
X47958543Y-44992256D01*
X47958554Y-44983301D01*
X47964893Y-44976976D01*
X47965389Y-44976785D01*
X49296014Y-44502724D01*
X49304956Y-44503175D01*
G37*
%TD.AperFunction*%
%TD*%
%TA.AperFunction,Conductor*%
%TO.N,A15*%
G36*
X72235690Y-79992460D02*
G01*
X72238897Y-79994734D01*
X72405265Y-80161102D01*
X72408692Y-80169375D01*
X72408031Y-80173251D01*
X71909388Y-81593629D01*
X71903415Y-81600300D01*
X71894473Y-81600792D01*
X71893883Y-81600567D01*
X71123785Y-81282562D01*
X71117447Y-81276238D01*
X70799432Y-80506115D01*
X70799441Y-80497161D01*
X70805780Y-80490836D01*
X70806345Y-80490620D01*
X72226748Y-79991968D01*
X72235690Y-79992460D01*
G37*
%TD.AperFunction*%
%TD*%
%TA.AperFunction,Conductor*%
%TO.N,VCC*%
G36*
X106372208Y-36095180D02*
G01*
X106378199Y-36101354D01*
X106679134Y-36825510D01*
X106679144Y-36834463D01*
X106679135Y-36834485D01*
X106679134Y-36834490D01*
X106378199Y-37558645D01*
X106371860Y-37564970D01*
X106363258Y-37565099D01*
X105087563Y-37082858D01*
X105081036Y-37076727D01*
X105080000Y-37071914D01*
X105080000Y-36588085D01*
X105083427Y-36579812D01*
X105087563Y-36577141D01*
X106363260Y-36094900D01*
X106372208Y-36095180D01*
G37*
%TD.AperFunction*%
%TD*%
%TA.AperFunction,Conductor*%
%TO.N,A13*%
G36*
X67155690Y-79992460D02*
G01*
X67158897Y-79994734D01*
X67325265Y-80161102D01*
X67328692Y-80169375D01*
X67328031Y-80173251D01*
X66829388Y-81593629D01*
X66823415Y-81600300D01*
X66814473Y-81600792D01*
X66813883Y-81600567D01*
X66043785Y-81282562D01*
X66037447Y-81276238D01*
X65719432Y-80506115D01*
X65719441Y-80497161D01*
X65725780Y-80490836D01*
X65726345Y-80490620D01*
X67146748Y-79991968D01*
X67155690Y-79992460D01*
G37*
%TD.AperFunction*%
%TD*%
%TA.AperFunction,Conductor*%
%TO.N,D0*%
G36*
X51456690Y-45991898D02*
G01*
X51527753Y-46021430D01*
X51534078Y-46027769D01*
X51534067Y-46036724D01*
X51533833Y-46037251D01*
X50928172Y-47313317D01*
X50921529Y-47319321D01*
X50917602Y-47320000D01*
X50682398Y-47320000D01*
X50674125Y-47316573D01*
X50671828Y-47313317D01*
X50066166Y-46037251D01*
X50065715Y-46028307D01*
X50071719Y-46021664D01*
X50072234Y-46021434D01*
X50795512Y-45720864D01*
X50804461Y-45720854D01*
X51456690Y-45991898D01*
G37*
%TD.AperFunction*%
%TD*%
%TA.AperFunction,Conductor*%
%TO.N,CLK*%
G36*
X41684956Y-44503175D02*
G01*
X41688212Y-44505472D01*
X41854527Y-44671787D01*
X41857954Y-44680060D01*
X41857275Y-44683987D01*
X41383229Y-46014568D01*
X41377225Y-46021211D01*
X41368281Y-46021662D01*
X41367743Y-46021456D01*
X40643787Y-45722562D01*
X40637448Y-45716237D01*
X40637437Y-45716212D01*
X40338543Y-44992256D01*
X40338554Y-44983301D01*
X40344893Y-44976976D01*
X40345389Y-44976785D01*
X41676014Y-44502724D01*
X41684956Y-44503175D01*
G37*
%TD.AperFunction*%
%TD*%
%TA.AperFunction,Conductor*%
%TO.N,A12*%
G36*
X79476698Y-45418554D02*
G01*
X79483023Y-45424893D01*
X79483227Y-45425426D01*
X79851495Y-46459104D01*
X79957275Y-46756012D01*
X79956824Y-46764956D01*
X79954527Y-46768212D01*
X79788212Y-46934527D01*
X79779939Y-46937954D01*
X79776013Y-46937275D01*
X78445430Y-46463228D01*
X78438788Y-46457225D01*
X78438337Y-46448281D01*
X78438536Y-46447760D01*
X78737438Y-45723785D01*
X78743762Y-45717448D01*
X78743764Y-45717446D01*
X79467744Y-45418543D01*
X79476698Y-45418554D01*
G37*
%TD.AperFunction*%
%TD*%
%TA.AperFunction,Conductor*%
%TO.N,VCC*%
G36*
X50071364Y-60658174D02*
G01*
X50796212Y-60957437D01*
X50802551Y-60963762D01*
X50802562Y-60963787D01*
X51101824Y-61688634D01*
X51101813Y-61697589D01*
X51095822Y-61703763D01*
X49852775Y-62264820D01*
X49843825Y-62265100D01*
X49839689Y-62262429D01*
X49497570Y-61920310D01*
X49494143Y-61912037D01*
X49495179Y-61907224D01*
X49921005Y-60963787D01*
X50056236Y-60664176D01*
X50062763Y-60658046D01*
X50071364Y-60658174D01*
G37*
%TD.AperFunction*%
%TD*%
%TA.AperFunction,Conductor*%
%TO.N,CLK*%
G36*
X96645912Y-79583427D02*
G01*
X96648186Y-79586634D01*
X97299950Y-80943586D01*
X97300442Y-80952528D01*
X97294469Y-80959199D01*
X97293892Y-80959457D01*
X96524489Y-81279134D01*
X96515534Y-81279143D01*
X96515511Y-81279134D01*
X95746107Y-80959457D01*
X95739782Y-80953118D01*
X95739791Y-80944163D01*
X95740049Y-80943586D01*
X96391814Y-79586634D01*
X96398485Y-79580661D01*
X96402361Y-79580000D01*
X96637639Y-79580000D01*
X96645912Y-79583427D01*
G37*
%TD.AperFunction*%
%TD*%
%TA.AperFunction,Conductor*%
%TO.N,Net-(U1-~{SO})*%
G36*
X38756690Y-42181898D02*
G01*
X38827753Y-42211430D01*
X38834078Y-42217769D01*
X38834067Y-42226724D01*
X38833833Y-42227251D01*
X38228172Y-43503317D01*
X38221529Y-43509321D01*
X38217602Y-43510000D01*
X37982398Y-43510000D01*
X37974125Y-43506573D01*
X37971828Y-43503317D01*
X37366166Y-42227251D01*
X37365715Y-42218307D01*
X37371719Y-42211664D01*
X37372234Y-42211434D01*
X38095512Y-41910864D01*
X38104461Y-41910854D01*
X38756690Y-42181898D01*
G37*
%TD.AperFunction*%
%TD*%
%TA.AperFunction,Conductor*%
%TO.N,~{RESET}*%
G36*
X106805912Y-79583427D02*
G01*
X106808186Y-79586634D01*
X107459950Y-80943586D01*
X107460442Y-80952528D01*
X107454469Y-80959199D01*
X107453892Y-80959457D01*
X106684489Y-81279134D01*
X106675534Y-81279143D01*
X106675511Y-81279134D01*
X105906107Y-80959457D01*
X105899782Y-80953118D01*
X105899791Y-80944163D01*
X105900049Y-80943586D01*
X106551814Y-79586634D01*
X106558485Y-79580661D01*
X106562361Y-79580000D01*
X106797639Y-79580000D01*
X106805912Y-79583427D01*
G37*
%TD.AperFunction*%
%TD*%
%TA.AperFunction,Conductor*%
%TO.N,D5*%
G36*
X64156690Y-45991898D02*
G01*
X64227753Y-46021430D01*
X64234078Y-46027769D01*
X64234067Y-46036724D01*
X64233833Y-46037251D01*
X63628172Y-47313317D01*
X63621529Y-47319321D01*
X63617602Y-47320000D01*
X63382398Y-47320000D01*
X63374125Y-47316573D01*
X63371828Y-47313317D01*
X62766166Y-46037251D01*
X62765715Y-46028307D01*
X62771719Y-46021664D01*
X62772234Y-46021434D01*
X63495512Y-45720864D01*
X63504461Y-45720854D01*
X64156690Y-45991898D01*
G37*
%TD.AperFunction*%
%TD*%
%TA.AperFunction,Conductor*%
%TO.N,VCC*%
G36*
X30730273Y-79583427D02*
G01*
X30732903Y-79587455D01*
X31261146Y-80944058D01*
X31260954Y-80953010D01*
X31254732Y-80959108D01*
X30484489Y-81279134D01*
X30475534Y-81279143D01*
X30475511Y-81279134D01*
X29705267Y-80959108D01*
X29698942Y-80952769D01*
X29698853Y-80944058D01*
X30227097Y-79587455D01*
X30233293Y-79580989D01*
X30238000Y-79580000D01*
X30722000Y-79580000D01*
X30730273Y-79583427D01*
G37*
%TD.AperFunction*%
%TD*%
%TA.AperFunction,Conductor*%
%TO.N,~{NMI}*%
G36*
X104796690Y-59961898D02*
G01*
X104867753Y-59991430D01*
X104874078Y-59997769D01*
X104874067Y-60006724D01*
X104873833Y-60007251D01*
X104268172Y-61283317D01*
X104261529Y-61289321D01*
X104257602Y-61290000D01*
X104022398Y-61290000D01*
X104014125Y-61286573D01*
X104011828Y-61283317D01*
X103406166Y-60007251D01*
X103405715Y-59998307D01*
X103411719Y-59991664D01*
X103412234Y-59991434D01*
X104135512Y-59690864D01*
X104144461Y-59690854D01*
X104796690Y-59961898D01*
G37*
%TD.AperFunction*%
%TD*%
%TA.AperFunction,Conductor*%
%TO.N,A8*%
G36*
X72932252Y-60658541D02*
G01*
X72948939Y-60665431D01*
X73656212Y-60957437D01*
X73662551Y-60963762D01*
X73662562Y-60963787D01*
X73961456Y-61687743D01*
X73961445Y-61696698D01*
X73955106Y-61703023D01*
X73954568Y-61703229D01*
X72623987Y-62177275D01*
X72615043Y-62176824D01*
X72611787Y-62174527D01*
X72445472Y-62008212D01*
X72442045Y-61999939D01*
X72442722Y-61996018D01*
X72916771Y-60665428D01*
X72922774Y-60658788D01*
X72931718Y-60658337D01*
X72932252Y-60658541D01*
G37*
%TD.AperFunction*%
%TD*%
%TA.AperFunction,Conductor*%
%TO.N,A9*%
G36*
X75472252Y-60658541D02*
G01*
X75488939Y-60665431D01*
X76196212Y-60957437D01*
X76202551Y-60963762D01*
X76202562Y-60963787D01*
X76501456Y-61687743D01*
X76501445Y-61696698D01*
X76495106Y-61703023D01*
X76494568Y-61703229D01*
X75163987Y-62177275D01*
X75155043Y-62176824D01*
X75151787Y-62174527D01*
X74985472Y-62008212D01*
X74982045Y-61999939D01*
X74982722Y-61996018D01*
X75456771Y-60665428D01*
X75462774Y-60658788D01*
X75471718Y-60658337D01*
X75472252Y-60658541D01*
G37*
%TD.AperFunction*%
%TD*%
%TA.AperFunction,Conductor*%
%TO.N,~{NMI}*%
G36*
X104265912Y-79583427D02*
G01*
X104268186Y-79586634D01*
X104919950Y-80943586D01*
X104920442Y-80952528D01*
X104914469Y-80959199D01*
X104913892Y-80959457D01*
X104144488Y-81279134D01*
X104135533Y-81279143D01*
X104135510Y-81279134D01*
X103366107Y-80959457D01*
X103359782Y-80953118D01*
X103359791Y-80944163D01*
X103360049Y-80943586D01*
X104011814Y-79586634D01*
X104018485Y-79580661D01*
X104022361Y-79580000D01*
X104257639Y-79580000D01*
X104265912Y-79583427D01*
G37*
%TD.AperFunction*%
%TD*%
%TA.AperFunction,Conductor*%
%TO.N,A15*%
G36*
X72164956Y-44503175D02*
G01*
X72168212Y-44505472D01*
X72334527Y-44671787D01*
X72337954Y-44680060D01*
X72337275Y-44683987D01*
X71863229Y-46014568D01*
X71857225Y-46021211D01*
X71848281Y-46021662D01*
X71847743Y-46021456D01*
X71123787Y-45722562D01*
X71117448Y-45716237D01*
X71117437Y-45716212D01*
X70818543Y-44992256D01*
X70818554Y-44983301D01*
X70824893Y-44976976D01*
X70825389Y-44976785D01*
X72156014Y-44502724D01*
X72164956Y-44503175D01*
G37*
%TD.AperFunction*%
%TD*%
%TA.AperFunction,Conductor*%
%TO.N,A10*%
G36*
X78012252Y-60658541D02*
G01*
X78028939Y-60665431D01*
X78736212Y-60957437D01*
X78742551Y-60963762D01*
X78742562Y-60963787D01*
X79041456Y-61687743D01*
X79041445Y-61696698D01*
X79035106Y-61703023D01*
X79034568Y-61703229D01*
X77703987Y-62177275D01*
X77695043Y-62176824D01*
X77691787Y-62174527D01*
X77525472Y-62008212D01*
X77522045Y-61999939D01*
X77522722Y-61996018D01*
X77996771Y-60665428D01*
X78002774Y-60658788D01*
X78011718Y-60658337D01*
X78012252Y-60658541D01*
G37*
%TD.AperFunction*%
%TD*%
%TA.AperFunction,Conductor*%
%TO.N,~{IRQ}*%
G36*
X40765875Y-59363427D02*
G01*
X40768172Y-59366683D01*
X41373833Y-60642748D01*
X41374284Y-60651692D01*
X41368280Y-60658335D01*
X41367753Y-60658569D01*
X40644490Y-60959134D01*
X40635536Y-60959144D01*
X40635510Y-60959134D01*
X39912246Y-60658569D01*
X39905921Y-60652230D01*
X39905932Y-60643275D01*
X39906154Y-60642773D01*
X40511828Y-59366682D01*
X40518471Y-59360679D01*
X40522398Y-59360000D01*
X40757602Y-59360000D01*
X40765875Y-59363427D01*
G37*
%TD.AperFunction*%
%TD*%
%TA.AperFunction,Conductor*%
%TO.N,D4*%
G36*
X66695071Y-58404252D02*
G01*
X67307760Y-58680793D01*
X67313891Y-58687320D01*
X67313767Y-58695909D01*
X67167563Y-59051195D01*
X67161245Y-59057542D01*
X67161195Y-59057563D01*
X66805909Y-59203767D01*
X66796955Y-59203746D01*
X66790793Y-59197760D01*
X66726676Y-59055707D01*
X66564279Y-58695909D01*
X66514252Y-58585071D01*
X66513972Y-58576121D01*
X66516641Y-58571987D01*
X66681986Y-58406642D01*
X66690258Y-58403216D01*
X66695071Y-58404252D01*
G37*
%TD.AperFunction*%
%TD*%
%TA.AperFunction,Conductor*%
%TO.N,D7*%
G36*
X69236690Y-45991898D02*
G01*
X69307753Y-46021430D01*
X69314078Y-46027769D01*
X69314067Y-46036724D01*
X69313833Y-46037251D01*
X68708172Y-47313317D01*
X68701529Y-47319321D01*
X68697602Y-47320000D01*
X68462398Y-47320000D01*
X68454125Y-47316573D01*
X68451828Y-47313317D01*
X67846166Y-46037251D01*
X67845715Y-46028307D01*
X67851719Y-46021664D01*
X67852234Y-46021434D01*
X68575512Y-45720864D01*
X68584461Y-45720854D01*
X69236690Y-45991898D01*
G37*
%TD.AperFunction*%
%TD*%
%TA.AperFunction,Conductor*%
%TO.N,D7*%
G36*
X74315071Y-58404252D02*
G01*
X74927760Y-58680793D01*
X74933891Y-58687320D01*
X74933767Y-58695909D01*
X74787563Y-59051195D01*
X74781245Y-59057542D01*
X74781195Y-59057563D01*
X74425909Y-59203767D01*
X74416955Y-59203746D01*
X74410793Y-59197760D01*
X74346676Y-59055707D01*
X74184279Y-58695909D01*
X74134252Y-58585071D01*
X74133972Y-58576121D01*
X74136641Y-58571987D01*
X74301986Y-58406642D01*
X74310258Y-58403216D01*
X74315071Y-58404252D01*
G37*
%TD.AperFunction*%
%TD*%
%TA.AperFunction,Conductor*%
%TO.N,D3*%
G36*
X59025448Y-45970604D02*
G01*
X59147753Y-46021430D01*
X59154078Y-46027769D01*
X59154067Y-46036724D01*
X59153833Y-46037251D01*
X58548172Y-47313317D01*
X58541529Y-47319321D01*
X58537602Y-47320000D01*
X58302398Y-47320000D01*
X58294125Y-47316573D01*
X58291828Y-47313317D01*
X57686166Y-46037251D01*
X57685715Y-46028307D01*
X57691719Y-46021664D01*
X57692234Y-46021434D01*
X58415512Y-45720864D01*
X58424461Y-45720854D01*
X59025448Y-45970604D01*
G37*
%TD.AperFunction*%
%TD*%
%TA.AperFunction,Conductor*%
%TO.N,VCC*%
G36*
X28668646Y-42211801D02*
G01*
X28674970Y-42218139D01*
X28675099Y-42226741D01*
X28192859Y-43502437D01*
X28186728Y-43508964D01*
X28181915Y-43510000D01*
X27698085Y-43510000D01*
X27689812Y-43506573D01*
X27687141Y-43502437D01*
X27204900Y-42226739D01*
X27205180Y-42217791D01*
X27211352Y-42211801D01*
X27935512Y-41910864D01*
X27944461Y-41910854D01*
X28668646Y-42211801D01*
G37*
%TD.AperFunction*%
%TD*%
%TA.AperFunction,Conductor*%
%TO.N,A14*%
G36*
X74704956Y-44503175D02*
G01*
X74708212Y-44505472D01*
X74874527Y-44671787D01*
X74877954Y-44680060D01*
X74877275Y-44683987D01*
X74403229Y-46014568D01*
X74397225Y-46021211D01*
X74388281Y-46021662D01*
X74387743Y-46021456D01*
X73663787Y-45722562D01*
X73657448Y-45716237D01*
X73657437Y-45716212D01*
X73358543Y-44992256D01*
X73358554Y-44983301D01*
X73364893Y-44976976D01*
X73365389Y-44976785D01*
X74696014Y-44502724D01*
X74704956Y-44503175D01*
G37*
%TD.AperFunction*%
%TD*%
%TA.AperFunction,Conductor*%
%TO.N,A3*%
G36*
X60232252Y-60658541D02*
G01*
X60248939Y-60665431D01*
X60956212Y-60957437D01*
X60962551Y-60963762D01*
X60962562Y-60963787D01*
X61261456Y-61687743D01*
X61261445Y-61696698D01*
X61255106Y-61703023D01*
X61254568Y-61703229D01*
X59923987Y-62177275D01*
X59915043Y-62176824D01*
X59911787Y-62174527D01*
X59745472Y-62008212D01*
X59742045Y-61999939D01*
X59742722Y-61996018D01*
X60216771Y-60665428D01*
X60222774Y-60658788D01*
X60231718Y-60658337D01*
X60232252Y-60658541D01*
G37*
%TD.AperFunction*%
%TD*%
%TA.AperFunction,Conductor*%
%TO.N,VCC*%
G36*
X28677589Y-69548186D02*
G01*
X28683763Y-69554177D01*
X29244820Y-70797224D01*
X29245100Y-70806174D01*
X29242429Y-70810310D01*
X28900310Y-71152429D01*
X28892037Y-71155856D01*
X28887224Y-71154820D01*
X27644177Y-70593763D01*
X27638046Y-70587236D01*
X27638174Y-70578635D01*
X27937438Y-69853785D01*
X27943762Y-69847448D01*
X27943764Y-69847446D01*
X28668635Y-69548175D01*
X28677589Y-69548186D01*
G37*
%TD.AperFunction*%
%TD*%
M02*
