%TF.GenerationSoftware,KiCad,Pcbnew,7.0.5*%
%TF.CreationDate,2023-08-13T15:57:20+02:00*%
%TF.ProjectId,Sorbus-65C02,536f7262-7573-42d3-9635-4330322e6b69,rev?*%
%TF.SameCoordinates,Original*%
%TF.FileFunction,Plated,1,2,PTH,Drill*%
%TF.FilePolarity,Positive*%
%FSLAX46Y46*%
G04 Gerber Fmt 4.6, Leading zero omitted, Abs format (unit mm)*
G04 Created by KiCad (PCBNEW 7.0.5) date 2023-08-13 15:57:20*
%MOMM*%
%LPD*%
G01*
G04 APERTURE LIST*
%TA.AperFunction,ViaDrill*%
%ADD10C,0.400000*%
%TD*%
%TA.AperFunction,ComponentDrill*%
%ADD11C,0.800000*%
%TD*%
%TA.AperFunction,ComponentDrill*%
%ADD12C,1.000000*%
%TD*%
G04 APERTURE END LIST*
D10*
X31750000Y-78740000D03*
X34290000Y-78740000D03*
X36830000Y-44450000D03*
X36830000Y-78740000D03*
X39370000Y-78740000D03*
X40640000Y-52070000D03*
X41910000Y-48260000D03*
X41910000Y-58420000D03*
X41910000Y-78740000D03*
X44450000Y-44450000D03*
X44450000Y-78740000D03*
X45720000Y-38100000D03*
X45720000Y-64770000D03*
X46990000Y-78740000D03*
X48260000Y-64770000D03*
X49530000Y-48260000D03*
X49530000Y-78740000D03*
X50800000Y-64770000D03*
X52070000Y-44450000D03*
X52070000Y-48260000D03*
X52070000Y-78740000D03*
X53340000Y-64770000D03*
X54610000Y-48260000D03*
X54610000Y-58420000D03*
X54610000Y-78740000D03*
X55245000Y-55880000D03*
X55880000Y-64770000D03*
X57150000Y-48260000D03*
X57150000Y-59055000D03*
X57150000Y-78740000D03*
X57785000Y-55880000D03*
X58420000Y-64770000D03*
X59690000Y-48260000D03*
X59690000Y-59055000D03*
X59690000Y-78740000D03*
X60325000Y-55880000D03*
X60960000Y-64770000D03*
X62085000Y-59055000D03*
X62230000Y-48260000D03*
X62230000Y-78740000D03*
X62865000Y-55880000D03*
X63500000Y-64770000D03*
X64625000Y-59055000D03*
X64770000Y-48260000D03*
X64770000Y-78740000D03*
X65405000Y-55880000D03*
X66040000Y-64770000D03*
X67165000Y-59055000D03*
X67310000Y-48260000D03*
X67310000Y-78740000D03*
X67945000Y-55880000D03*
X68580000Y-64770000D03*
X69705000Y-59055000D03*
X69850000Y-48260000D03*
X69850000Y-78740000D03*
X70485000Y-55880000D03*
X71120000Y-64770000D03*
X72245000Y-59055000D03*
X72390000Y-78740000D03*
X73660000Y-64770000D03*
X74785000Y-59055000D03*
X74930000Y-78740000D03*
X75819000Y-42291000D03*
X76200000Y-64770000D03*
X77470000Y-78740000D03*
X78740000Y-64770000D03*
X80010000Y-48260000D03*
X80010000Y-78740000D03*
X82550000Y-58420000D03*
X82550000Y-78740000D03*
X85090000Y-78740000D03*
X85725000Y-49530000D03*
X87630000Y-78740000D03*
X90170000Y-78740000D03*
X92710000Y-78740000D03*
X95250000Y-78740000D03*
X97790000Y-38100000D03*
X97790000Y-78740000D03*
X100330000Y-78740000D03*
X101600000Y-39370000D03*
X102870000Y-78740000D03*
X105410000Y-78740000D03*
X106680000Y-39370000D03*
X107950000Y-78740000D03*
D11*
%TO.C,R2*%
X27940000Y-41910000D03*
%TO.C,R1*%
X27940000Y-66040000D03*
%TO.C,R3*%
X27940000Y-69850000D03*
%TO.C,U1*%
X33020000Y-45720000D03*
X33020000Y-60960000D03*
%TO.C,C1*%
X33060000Y-73660000D03*
%TO.C,U1*%
X35560000Y-45720000D03*
X35560000Y-60960000D03*
%TO.C,C1*%
X38060000Y-73660000D03*
%TO.C,R2*%
X38100000Y-41910000D03*
%TO.C,U1*%
X38100000Y-45720000D03*
X38100000Y-60960000D03*
%TO.C,R1*%
X38100000Y-66040000D03*
%TO.C,R3*%
X38100000Y-69850000D03*
%TO.C,U1*%
X40640000Y-45720000D03*
X40640000Y-60960000D03*
X43180000Y-45720000D03*
X43180000Y-60960000D03*
X45720000Y-45720000D03*
X45720000Y-60960000D03*
X48260000Y-45720000D03*
X48260000Y-60960000D03*
X50800000Y-45720000D03*
X50800000Y-60960000D03*
X53340000Y-45720000D03*
X53340000Y-60960000D03*
X55880000Y-45720000D03*
X55880000Y-60960000D03*
X58420000Y-45720000D03*
X58420000Y-60960000D03*
X60960000Y-45720000D03*
X60960000Y-60960000D03*
X63500000Y-45720000D03*
X63500000Y-60960000D03*
X66040000Y-45720000D03*
X66040000Y-60960000D03*
X68580000Y-45720000D03*
X68580000Y-60960000D03*
X71120000Y-45720000D03*
X71120000Y-60960000D03*
X73660000Y-45720000D03*
X73660000Y-60960000D03*
X76200000Y-45720000D03*
X76200000Y-60960000D03*
X78740000Y-45720000D03*
X78740000Y-60960000D03*
X81280000Y-45720000D03*
X81280000Y-60960000D03*
%TO.C,R7*%
X99060000Y-49530000D03*
X99060000Y-59690000D03*
%TO.C,R6*%
X101600000Y-36830000D03*
X101600000Y-46990000D03*
%TO.C,R5*%
X104140000Y-49530000D03*
X104140000Y-59690000D03*
%TO.C,R4*%
X106680000Y-36830000D03*
X106680000Y-46990000D03*
D12*
%TO.C,J1*%
X27940000Y-81280000D03*
X30480000Y-81280000D03*
X33020000Y-81280000D03*
X35560000Y-81280000D03*
X38100000Y-81280000D03*
X40640000Y-81280000D03*
X43180000Y-81280000D03*
X45720000Y-81280000D03*
X48260000Y-81280000D03*
X50800000Y-81280000D03*
X53340000Y-81280000D03*
X55880000Y-81280000D03*
X58420000Y-81280000D03*
X60960000Y-81280000D03*
X63500000Y-81280000D03*
X66040000Y-81280000D03*
X68580000Y-81280000D03*
X71120000Y-81280000D03*
X73660000Y-81280000D03*
X76200000Y-81280000D03*
X78740000Y-81280000D03*
X81280000Y-81280000D03*
X83820000Y-81280000D03*
X86360000Y-81280000D03*
X88900000Y-81280000D03*
X91440000Y-81280000D03*
X93980000Y-81280000D03*
X96520000Y-81280000D03*
X99060000Y-81280000D03*
X101600000Y-81280000D03*
X104140000Y-81280000D03*
X106680000Y-81280000D03*
M02*
