%TF.GenerationSoftware,KiCad,Pcbnew,7.0.5*%
%TF.CreationDate,2023-08-13T15:57:13+02:00*%
%TF.ProjectId,Sorbus-65C02,536f7262-7573-42d3-9635-4330322e6b69,rev?*%
%TF.SameCoordinates,Original*%
%TF.FileFunction,Soldermask,Bot*%
%TF.FilePolarity,Negative*%
%FSLAX46Y46*%
G04 Gerber Fmt 4.6, Leading zero omitted, Abs format (unit mm)*
G04 Created by KiCad (PCBNEW 7.0.5) date 2023-08-13 15:57:13*
%MOMM*%
%LPD*%
G01*
G04 APERTURE LIST*
%ADD10C,1.600000*%
%ADD11O,1.600000X1.600000*%
%ADD12R,1.600000X1.600000*%
%ADD13R,1.700000X1.700000*%
%ADD14O,1.700000X1.700000*%
G04 APERTURE END LIST*
D10*
%TO.C,R5*%
X104140000Y-49530000D03*
D11*
X104140000Y-59690000D03*
%TD*%
D10*
%TO.C,R1*%
X27940000Y-66040000D03*
D11*
X38100000Y-66040000D03*
%TD*%
D10*
%TO.C,R2*%
X27940000Y-41910000D03*
D11*
X38100000Y-41910000D03*
%TD*%
D12*
%TO.C,U1*%
X33020000Y-60960000D03*
D11*
X35560000Y-60960000D03*
X38100000Y-60960000D03*
X40640000Y-60960000D03*
X43180000Y-60960000D03*
X45720000Y-60960000D03*
X48260000Y-60960000D03*
X50800000Y-60960000D03*
X53340000Y-60960000D03*
X55880000Y-60960000D03*
X58420000Y-60960000D03*
X60960000Y-60960000D03*
X63500000Y-60960000D03*
X66040000Y-60960000D03*
X68580000Y-60960000D03*
X71120000Y-60960000D03*
X73660000Y-60960000D03*
X76200000Y-60960000D03*
X78740000Y-60960000D03*
X81280000Y-60960000D03*
X81280000Y-45720000D03*
X78740000Y-45720000D03*
X76200000Y-45720000D03*
X73660000Y-45720000D03*
X71120000Y-45720000D03*
X68580000Y-45720000D03*
X66040000Y-45720000D03*
X63500000Y-45720000D03*
X60960000Y-45720000D03*
X58420000Y-45720000D03*
X55880000Y-45720000D03*
X53340000Y-45720000D03*
X50800000Y-45720000D03*
X48260000Y-45720000D03*
X45720000Y-45720000D03*
X43180000Y-45720000D03*
X40640000Y-45720000D03*
X38100000Y-45720000D03*
X35560000Y-45720000D03*
X33020000Y-45720000D03*
%TD*%
D10*
%TO.C,R7*%
X99060000Y-49530000D03*
D11*
X99060000Y-59690000D03*
%TD*%
D10*
%TO.C,R6*%
X101600000Y-36830000D03*
D11*
X101600000Y-46990000D03*
%TD*%
D10*
%TO.C,R4*%
X106680000Y-36830000D03*
D11*
X106680000Y-46990000D03*
%TD*%
D10*
%TO.C,C1*%
X33060000Y-73660000D03*
X38060000Y-73660000D03*
%TD*%
%TO.C,R3*%
X27940000Y-69850000D03*
D11*
X38100000Y-69850000D03*
%TD*%
D13*
%TO.C,J1*%
X27940000Y-81280000D03*
D14*
X30480000Y-81280000D03*
X33020000Y-81280000D03*
X35560000Y-81280000D03*
X38100000Y-81280000D03*
X40640000Y-81280000D03*
X43180000Y-81280000D03*
X45720000Y-81280000D03*
X48260000Y-81280000D03*
X50800000Y-81280000D03*
X53340000Y-81280000D03*
X55880000Y-81280000D03*
X58420000Y-81280000D03*
X60960000Y-81280000D03*
X63500000Y-81280000D03*
X66040000Y-81280000D03*
X68580000Y-81280000D03*
X71120000Y-81280000D03*
X73660000Y-81280000D03*
X76200000Y-81280000D03*
X78740000Y-81280000D03*
X81280000Y-81280000D03*
X83820000Y-81280000D03*
X86360000Y-81280000D03*
X88900000Y-81280000D03*
X91440000Y-81280000D03*
X93980000Y-81280000D03*
X96520000Y-81280000D03*
X99060000Y-81280000D03*
X101600000Y-81280000D03*
X104140000Y-81280000D03*
X106680000Y-81280000D03*
%TD*%
M02*
