%TF.GenerationSoftware,KiCad,Pcbnew,8.0.7*%
%TF.CreationDate,2025-02-06T19:54:10+01:00*%
%TF.ProjectId,Sorbus-Sound,536f7262-7573-42d5-936f-756e642e6b69,rev?*%
%TF.SameCoordinates,Original*%
%TF.FileFunction,Soldermask,Top*%
%TF.FilePolarity,Negative*%
%FSLAX46Y46*%
G04 Gerber Fmt 4.6, Leading zero omitted, Abs format (unit mm)*
G04 Created by KiCad (PCBNEW 8.0.7) date 2025-02-06 19:54:10*
%MOMM*%
%LPD*%
G01*
G04 APERTURE LIST*
%ADD10R,1.500000X1.500000*%
%ADD11O,1.500000X1.500000*%
%ADD12O,1.700000X1.700000*%
%ADD13R,1.700000X1.700000*%
%ADD14C,1.350000*%
G04 APERTURE END LIST*
D10*
%TO.C,D11*%
X66548000Y-63236000D03*
D11*
X66548000Y-70856000D03*
%TD*%
D10*
%TO.C,D8*%
X58928000Y-63236000D03*
D11*
X58928000Y-70856000D03*
%TD*%
D10*
%TO.C,D13*%
X71628000Y-63236000D03*
D11*
X71628000Y-70856000D03*
%TD*%
D10*
%TO.C,D14*%
X74168000Y-70861000D03*
D11*
X74168000Y-63241000D03*
%TD*%
D10*
%TO.C,D9*%
X61468000Y-63236000D03*
D11*
X61468000Y-70856000D03*
%TD*%
D10*
%TO.C,D15*%
X76708000Y-70866000D03*
D11*
X76708000Y-63246000D03*
%TD*%
D10*
%TO.C,D10*%
X64008000Y-70866000D03*
D11*
X64008000Y-63246000D03*
%TD*%
D10*
%TO.C,D12*%
X69088000Y-70866000D03*
D11*
X69088000Y-63246000D03*
%TD*%
D12*
%TO.C,U1*%
X36068000Y-57404000D03*
X38608000Y-57404000D03*
X41148000Y-57404000D03*
X43688000Y-57404000D03*
X46228000Y-57404000D03*
D13*
X48768000Y-57404000D03*
D12*
X51308000Y-57404000D03*
X53848000Y-57404000D03*
X56388000Y-57404000D03*
X58928000Y-57404000D03*
X61468000Y-57404000D03*
X64008000Y-57404000D03*
X66548000Y-57404000D03*
X69088000Y-57404000D03*
D13*
X71628000Y-57404000D03*
D12*
X74168000Y-57404000D03*
X76708000Y-57404000D03*
X79248000Y-57404000D03*
X81788000Y-57404000D03*
X84328000Y-57404000D03*
X84328000Y-39624000D03*
X81788000Y-39624000D03*
X79248000Y-39624000D03*
X76708000Y-39624000D03*
X74168000Y-39624000D03*
X71628000Y-39624000D03*
X69088000Y-39624000D03*
X66548000Y-39624000D03*
D13*
X64008000Y-39624000D03*
D12*
X61468000Y-39624000D03*
X58928000Y-39624000D03*
X56388000Y-39624000D03*
X53848000Y-39624000D03*
X51308000Y-39624000D03*
D13*
X48768000Y-39624000D03*
D12*
X46228000Y-39624000D03*
X43688000Y-39624000D03*
D13*
X41148000Y-39624000D03*
D12*
X38608000Y-39624000D03*
X36068000Y-39624000D03*
%TD*%
D13*
%TO.C,J2*%
X38608000Y-34544000D03*
D12*
X41148000Y-34544000D03*
X43688000Y-34544000D03*
%TD*%
D13*
%TO.C,J5*%
X66573400Y-34137600D03*
D12*
X69113400Y-34137600D03*
X71653400Y-34137600D03*
X74193400Y-34137600D03*
X76733400Y-34137600D03*
X79273400Y-34137600D03*
%TD*%
D13*
%TO.C,J3*%
X112278000Y-67564000D03*
D12*
X109738000Y-67564000D03*
X107198000Y-67564000D03*
X104658000Y-67564000D03*
X102118000Y-67564000D03*
X99578000Y-67564000D03*
%TD*%
D13*
%TO.C,J4*%
X99187000Y-61595000D03*
D12*
X99187000Y-59055000D03*
X99187000Y-56515000D03*
X99187000Y-53975000D03*
X99187000Y-51435000D03*
X99187000Y-48895000D03*
X99187000Y-46355000D03*
X99187000Y-43815000D03*
X99187000Y-41275000D03*
%TD*%
D14*
%TO.C,J8*%
X58928000Y-65273000D03*
%TD*%
D13*
%TO.C,J1*%
X33528000Y-76200000D03*
D12*
X36068000Y-76200000D03*
X38608000Y-76200000D03*
X41148000Y-76200000D03*
X43688000Y-76200000D03*
X46228000Y-76200000D03*
X48768000Y-76200000D03*
X51308000Y-76200000D03*
X53848000Y-76200000D03*
X56388000Y-76200000D03*
X58928000Y-76200000D03*
X61468000Y-76200000D03*
X64008000Y-76200000D03*
X66548000Y-76200000D03*
X69088000Y-76200000D03*
X71628000Y-76200000D03*
X74168000Y-76200000D03*
X76708000Y-76200000D03*
X79248000Y-76200000D03*
X81788000Y-76200000D03*
X84328000Y-76200000D03*
X86868000Y-76200000D03*
X89408000Y-76200000D03*
X91948000Y-76200000D03*
X94488000Y-76200000D03*
X97028000Y-76200000D03*
X99568000Y-76200000D03*
X102108000Y-76200000D03*
X104648000Y-76200000D03*
X107188000Y-76200000D03*
X109728000Y-76200000D03*
X112268000Y-76200000D03*
%TD*%
D14*
%TO.C,J11*%
X66598800Y-65278000D03*
%TD*%
%TO.C,J9*%
X61518800Y-65278000D03*
%TD*%
%TO.C,J10*%
X64008000Y-65273000D03*
%TD*%
M02*
