%TF.GenerationSoftware,KiCad,Pcbnew,8.0.7*%
%TF.CreationDate,2025-02-06T19:54:19+01:00*%
%TF.ProjectId,Sorbus-Sound,536f7262-7573-42d5-936f-756e642e6b69,rev?*%
%TF.SameCoordinates,Original*%
%TF.FileFunction,Plated,1,2,PTH,Drill*%
%TF.FilePolarity,Positive*%
%FSLAX46Y46*%
G04 Gerber Fmt 4.6, Leading zero omitted, Abs format (unit mm)*
G04 Created by KiCad (PCBNEW 8.0.7) date 2025-02-06 19:54:19*
%MOMM*%
%LPD*%
G01*
G04 APERTURE LIST*
%TA.AperFunction,ViaDrill*%
%ADD10C,0.400000*%
%TD*%
%TA.AperFunction,ComponentDrill*%
%ADD11C,0.750000*%
%TD*%
%TA.AperFunction,ComponentDrill*%
%ADD12C,0.800000*%
%TD*%
%TA.AperFunction,ComponentDrill*%
%ADD13C,1.000000*%
%TD*%
%TA.AperFunction,ComponentDrill*%
%ADD14C,1.020000*%
%TD*%
G04 APERTURE END LIST*
D10*
X39116000Y-59182000D03*
X41656000Y-59182000D03*
X44196000Y-59182000D03*
X46355000Y-66421000D03*
X47625000Y-65151000D03*
X47625000Y-67691000D03*
X48895000Y-63881000D03*
X48895000Y-66421000D03*
X48895000Y-68961000D03*
X50165000Y-65151000D03*
X50165000Y-67691000D03*
X50800000Y-70866000D03*
X51435000Y-66421000D03*
X52070000Y-69596000D03*
X53340000Y-68326002D03*
X54610000Y-60706000D03*
X55000000Y-42500000D03*
X55372000Y-62484000D03*
X61493400Y-48031400D03*
X65773000Y-42513134D03*
X66548002Y-52019199D03*
X72923400Y-36296600D03*
X74015600Y-42164000D03*
X76708000Y-44551600D03*
X77724000Y-36322000D03*
X78841600Y-70764400D03*
X79248000Y-44551600D03*
X80000000Y-60000000D03*
X81737200Y-44551600D03*
X82403927Y-65213976D03*
X83058012Y-63499992D03*
X84048600Y-69494400D03*
X84378800Y-44551600D03*
X85623400Y-68681600D03*
X85648800Y-59436000D03*
X86309200Y-74371200D03*
X87401400Y-67767200D03*
X88900000Y-74371200D03*
X91440000Y-74371200D03*
X93952400Y-74371200D03*
X98298000Y-74371200D03*
X100000000Y-65000000D03*
X100838000Y-74371200D03*
X103327200Y-60500000D03*
X103378000Y-65278000D03*
X105968800Y-65278000D03*
X110388400Y-58013600D03*
X112051000Y-56540400D03*
D11*
%TO.C,D8*%
X58928000Y-63236000D03*
X58928000Y-70856000D03*
%TO.C,D9*%
X61468000Y-63236000D03*
X61468000Y-70856000D03*
%TO.C,D10*%
X64008000Y-63246000D03*
X64008000Y-70866000D03*
%TO.C,D11*%
X66548000Y-63236000D03*
X66548000Y-70856000D03*
%TO.C,D12*%
X69088000Y-63246000D03*
X69088000Y-70866000D03*
%TO.C,D13*%
X71628000Y-63236000D03*
X71628000Y-70856000D03*
%TO.C,D14*%
X74168000Y-63241000D03*
X74168000Y-70861000D03*
%TO.C,D15*%
X76708000Y-63246000D03*
X76708000Y-70866000D03*
D12*
%TO.C,J8*%
X58928000Y-65273000D03*
%TO.C,J9*%
X61518800Y-65278000D03*
%TO.C,J10*%
X64008000Y-65273000D03*
%TO.C,J11*%
X66598800Y-65278000D03*
D13*
%TO.C,J1*%
X33528000Y-76200000D03*
X36068000Y-76200000D03*
%TO.C,J2*%
X38608000Y-34544000D03*
%TO.C,J1*%
X38608000Y-76200000D03*
%TO.C,J2*%
X41148000Y-34544000D03*
%TO.C,J1*%
X41148000Y-76200000D03*
%TO.C,J2*%
X43688000Y-34544000D03*
%TO.C,J1*%
X43688000Y-76200000D03*
X46228000Y-76200000D03*
X48768000Y-76200000D03*
X51308000Y-76200000D03*
X53848000Y-76200000D03*
X56388000Y-76200000D03*
X58928000Y-76200000D03*
X61468000Y-76200000D03*
X64008000Y-76200000D03*
X66548000Y-76200000D03*
%TO.C,J5*%
X66573400Y-34137600D03*
%TO.C,J1*%
X69088000Y-76200000D03*
%TO.C,J5*%
X69113400Y-34137600D03*
%TO.C,J1*%
X71628000Y-76200000D03*
%TO.C,J5*%
X71653400Y-34137600D03*
%TO.C,J1*%
X74168000Y-76200000D03*
%TO.C,J5*%
X74193400Y-34137600D03*
%TO.C,J1*%
X76708000Y-76200000D03*
%TO.C,J5*%
X76733400Y-34137600D03*
%TO.C,J1*%
X79248000Y-76200000D03*
%TO.C,J5*%
X79273400Y-34137600D03*
%TO.C,J1*%
X81788000Y-76200000D03*
X84328000Y-76200000D03*
X86868000Y-76200000D03*
X89408000Y-76200000D03*
X91948000Y-76200000D03*
X94488000Y-76200000D03*
X97028000Y-76200000D03*
%TO.C,J4*%
X99187000Y-41275000D03*
X99187000Y-43815000D03*
X99187000Y-46355000D03*
X99187000Y-48895000D03*
X99187000Y-51435000D03*
X99187000Y-53975000D03*
X99187000Y-56515000D03*
X99187000Y-59055000D03*
X99187000Y-61595000D03*
%TO.C,J1*%
X99568000Y-76200000D03*
%TO.C,J3*%
X99578000Y-67564000D03*
%TO.C,J1*%
X102108000Y-76200000D03*
%TO.C,J3*%
X102118000Y-67564000D03*
%TO.C,J1*%
X104648000Y-76200000D03*
%TO.C,J3*%
X104658000Y-67564000D03*
%TO.C,J1*%
X107188000Y-76200000D03*
%TO.C,J3*%
X107198000Y-67564000D03*
%TO.C,J1*%
X109728000Y-76200000D03*
%TO.C,J3*%
X109738000Y-67564000D03*
%TO.C,J1*%
X112268000Y-76200000D03*
%TO.C,J3*%
X112278000Y-67564000D03*
D14*
%TO.C,U1*%
X36068000Y-39624000D03*
X36068000Y-57404000D03*
X38608000Y-39624000D03*
X38608000Y-57404000D03*
X41148000Y-39624000D03*
X41148000Y-57404000D03*
X43688000Y-39624000D03*
X43688000Y-57404000D03*
X46228000Y-39624000D03*
X46228000Y-57404000D03*
X48768000Y-39624000D03*
X48768000Y-57404000D03*
X51308000Y-39624000D03*
X51308000Y-57404000D03*
X53848000Y-39624000D03*
X53848000Y-57404000D03*
X56388000Y-39624000D03*
X56388000Y-57404000D03*
X58928000Y-39624000D03*
X58928000Y-57404000D03*
X61468000Y-39624000D03*
X61468000Y-57404000D03*
X64008000Y-39624000D03*
X64008000Y-57404000D03*
X66548000Y-39624000D03*
X66548000Y-57404000D03*
X69088000Y-39624000D03*
X69088000Y-57404000D03*
X71628000Y-39624000D03*
X71628000Y-57404000D03*
X74168000Y-39624000D03*
X74168000Y-57404000D03*
X76708000Y-39624000D03*
X76708000Y-57404000D03*
X79248000Y-39624000D03*
X79248000Y-57404000D03*
X81788000Y-39624000D03*
X81788000Y-57404000D03*
X84328000Y-39624000D03*
X84328000Y-57404000D03*
M02*
