%TF.GenerationSoftware,KiCad,Pcbnew,8.0.7*%
%TF.CreationDate,2025-02-06T19:54:10+01:00*%
%TF.ProjectId,Sorbus-Sound,536f7262-7573-42d5-936f-756e642e6b69,rev?*%
%TF.SameCoordinates,Original*%
%TF.FileFunction,Copper,L2,Bot*%
%TF.FilePolarity,Positive*%
%FSLAX46Y46*%
G04 Gerber Fmt 4.6, Leading zero omitted, Abs format (unit mm)*
G04 Created by KiCad (PCBNEW 8.0.7) date 2025-02-06 19:54:10*
%MOMM*%
%LPD*%
G01*
G04 APERTURE LIST*
%TA.AperFunction,ComponentPad*%
%ADD10R,1.500000X1.500000*%
%TD*%
%TA.AperFunction,ComponentPad*%
%ADD11O,1.500000X1.500000*%
%TD*%
%TA.AperFunction,ComponentPad*%
%ADD12O,1.700000X1.700000*%
%TD*%
%TA.AperFunction,ComponentPad*%
%ADD13R,1.700000X1.700000*%
%TD*%
%TA.AperFunction,ComponentPad*%
%ADD14C,1.350000*%
%TD*%
%TA.AperFunction,ViaPad*%
%ADD15C,0.800000*%
%TD*%
%TA.AperFunction,Conductor*%
%ADD16C,0.250000*%
%TD*%
G04 APERTURE END LIST*
D10*
%TO.P,D11,1,K*%
%TO.N,~{CS2}*%
X66548000Y-63236000D03*
D11*
%TO.P,D11,2,A*%
%TO.N,A11*%
X66548000Y-70856000D03*
%TD*%
D10*
%TO.P,D8,1,K*%
%TO.N,~{CS2}*%
X58928000Y-63236000D03*
D11*
%TO.P,D8,2,A*%
%TO.N,A8*%
X58928000Y-70856000D03*
%TD*%
D10*
%TO.P,D13,1,K*%
%TO.N,~{CS2}*%
X71628000Y-63236000D03*
D11*
%TO.P,D13,2,A*%
%TO.N,A13*%
X71628000Y-70856000D03*
%TD*%
D10*
%TO.P,D14,1,K*%
%TO.N,A14*%
X74168000Y-70861000D03*
D11*
%TO.P,D14,2,A*%
%TO.N,CS1*%
X74168000Y-63241000D03*
%TD*%
D10*
%TO.P,D9,1,K*%
%TO.N,~{CS2}*%
X61468000Y-63236000D03*
D11*
%TO.P,D9,2,A*%
%TO.N,A9*%
X61468000Y-70856000D03*
%TD*%
D10*
%TO.P,D15,1,K*%
%TO.N,A15*%
X76708000Y-70866000D03*
D11*
%TO.P,D15,2,A*%
%TO.N,CS1*%
X76708000Y-63246000D03*
%TD*%
D10*
%TO.P,D10,1,K*%
%TO.N,A10*%
X64008000Y-70866000D03*
D11*
%TO.P,D10,2,A*%
%TO.N,CS1*%
X64008000Y-63246000D03*
%TD*%
D10*
%TO.P,D12,1,K*%
%TO.N,A12*%
X69088000Y-70866000D03*
D11*
%TO.P,D12,2,A*%
%TO.N,CS1*%
X69088000Y-63246000D03*
%TD*%
D12*
%TO.P,U1,1,GPIO0*%
%TO.N,D0*%
X36068000Y-57404000D03*
%TO.P,U1,2,GPIO1*%
%TO.N,D1*%
X38608000Y-57404000D03*
%TO.P,U1,3,GPIO2*%
%TO.N,D2*%
X41148000Y-57404000D03*
%TO.P,U1,4,GPIO3*%
%TO.N,D3*%
X43688000Y-57404000D03*
%TO.P,U1,5,GPIO4*%
%TO.N,D4*%
X46228000Y-57404000D03*
D13*
%TO.P,U1,6,GND*%
%TO.N,GND*%
X48768000Y-57404000D03*
D12*
%TO.P,U1,7,GPIO5*%
%TO.N,D5*%
X51308000Y-57404000D03*
%TO.P,U1,8,GPIO6*%
%TO.N,D6*%
X53848000Y-57404000D03*
%TO.P,U1,9,GPIO7*%
%TO.N,D7*%
X56388000Y-57404000D03*
%TO.P,U1,10,GPIO8*%
%TO.N,CLK*%
X58928000Y-57404000D03*
%TO.P,U1,11,GPIO9*%
%TO.N,R{slash}~{W}*%
X61468000Y-57404000D03*
%TO.P,U1,12,GPIO10*%
%TO.N,CS1*%
X64008000Y-57404000D03*
%TO.P,U1,13,GPIO11*%
%TO.N,~{CS2}*%
X66548000Y-57404000D03*
%TO.P,U1,14,GPIO12*%
%TO.N,A0*%
X69088000Y-57404000D03*
D13*
%TO.P,U1,15,GND*%
%TO.N,GND*%
X71628000Y-57404000D03*
D12*
%TO.P,U1,16,GPIO13*%
%TO.N,A1*%
X74168000Y-57404000D03*
%TO.P,U1,17,GPIO14*%
%TO.N,A2*%
X76708000Y-57404000D03*
%TO.P,U1,18,GPIO15*%
%TO.N,A3*%
X79248000Y-57404000D03*
%TO.P,U1,19,GPIO16*%
%TO.N,A4*%
X81788000Y-57404000D03*
%TO.P,U1,20,GPIO17*%
%TO.N,A5*%
X84328000Y-57404000D03*
%TO.P,U1,21,GPIO18*%
%TO.N,A6*%
X84328000Y-39624000D03*
%TO.P,U1,22,GPIO19*%
%TO.N,A7*%
X81788000Y-39624000D03*
%TO.P,U1,23,GPIO20*%
%TO.N,SPI0-RX*%
X79248000Y-39624000D03*
%TO.P,U1,24,GPIO21*%
%TO.N,SPI0-CSn*%
X76708000Y-39624000D03*
%TO.P,U1,25,GPIO22*%
%TO.N,SPI0-CLK*%
X74168000Y-39624000D03*
%TO.P,U1,26,GPIO23*%
%TO.N,SPI0-TX*%
X71628000Y-39624000D03*
%TO.P,U1,27,GPIO24*%
%TO.N,~{RESET}*%
X69088000Y-39624000D03*
%TO.P,U1,28,GPIO25*%
%TO.N,FLT*%
X66548000Y-39624000D03*
D13*
%TO.P,U1,29,AGND*%
%TO.N,GND*%
X64008000Y-39624000D03*
D12*
%TO.P,U1,30,GPIO26_ADC0*%
%TO.N,BCK*%
X61468000Y-39624000D03*
%TO.P,U1,31,GPIO27_ADC1*%
%TO.N,LRCK*%
X58928000Y-39624000D03*
%TO.P,U1,32,GPIO28_ADC2*%
%TO.N,DIN*%
X56388000Y-39624000D03*
%TO.P,U1,33,GPIO29_ADC3*%
%TO.N,DEMP*%
X53848000Y-39624000D03*
%TO.P,U1,34,RUN*%
%TO.N,unconnected-(U1-RUN-Pad34)*%
X51308000Y-39624000D03*
D13*
%TO.P,U1,35,GND*%
%TO.N,GND*%
X48768000Y-39624000D03*
D12*
%TO.P,U1,36,3V3*%
%TO.N,3V3*%
X46228000Y-39624000D03*
%TO.P,U1,37,3V3_EN*%
%TO.N,unconnected-(U1-3V3_EN-Pad37)*%
X43688000Y-39624000D03*
D13*
%TO.P,U1,38,GND*%
%TO.N,GND*%
X41148000Y-39624000D03*
D12*
%TO.P,U1,39,VIN*%
%TO.N,unconnected-(U1-VIN-Pad39)*%
X38608000Y-39624000D03*
%TO.P,U1,40,VBUS*%
%TO.N,5V*%
X36068000Y-39624000D03*
%TD*%
D13*
%TO.P,J2,1,Pin_1*%
%TO.N,5V*%
X38608000Y-34544000D03*
D12*
%TO.P,J2,2,Pin_2*%
%TO.N,VCC*%
X41148000Y-34544000D03*
%TO.P,J2,3,Pin_3*%
%TO.N,3V3*%
X43688000Y-34544000D03*
%TD*%
D13*
%TO.P,J5,1,Pin_1*%
%TO.N,3V3*%
X66573400Y-34137600D03*
D12*
%TO.P,J5,2,Pin_2*%
%TO.N,SPI0-CSn*%
X69113400Y-34137600D03*
%TO.P,J5,3,Pin_3*%
%TO.N,SPI0-TX*%
X71653400Y-34137600D03*
%TO.P,J5,4,Pin_4*%
%TO.N,SPI0-CLK*%
X74193400Y-34137600D03*
%TO.P,J5,5,Pin_5*%
%TO.N,SPI0-RX*%
X76733400Y-34137600D03*
%TO.P,J5,6,Pin_6*%
%TO.N,GND*%
X79273400Y-34137600D03*
%TD*%
D13*
%TO.P,J3,1,Pin_1*%
%TO.N,3V3*%
X112278000Y-67564000D03*
D12*
%TO.P,J3,2,Pin_2*%
%TO.N,GND*%
X109738000Y-67564000D03*
%TO.P,J3,3,Pin_3*%
%TO.N,LRCK*%
X107198000Y-67564000D03*
%TO.P,J3,4,Pin_4*%
%TO.N,DIN*%
X104658000Y-67564000D03*
%TO.P,J3,5,Pin_5*%
%TO.N,BCK*%
X102118000Y-67564000D03*
%TO.P,J3,6,Pin_6*%
%TO.N,/SCK*%
X99578000Y-67564000D03*
%TD*%
D13*
%TO.P,J4,1,Pin_1*%
%TO.N,FLT*%
X99187000Y-61595000D03*
D12*
%TO.P,J4,2,Pin_2*%
%TO.N,DEMP*%
X99187000Y-59055000D03*
%TO.P,J4,3,Pin_3*%
%TO.N,3V3*%
X99187000Y-56515000D03*
%TO.P,J4,4,Pin_4*%
%TO.N,GND*%
X99187000Y-53975000D03*
%TO.P,J4,5,Pin_5*%
%TO.N,unconnected-(J4-Pin_5-Pad5)*%
X99187000Y-51435000D03*
%TO.P,J4,6,Pin_6*%
%TO.N,unconnected-(J4-Pin_6-Pad6)*%
X99187000Y-48895000D03*
%TO.P,J4,7,Pin_7*%
%TO.N,unconnected-(J4-Pin_7-Pad7)*%
X99187000Y-46355000D03*
%TO.P,J4,8,Pin_8*%
%TO.N,unconnected-(J4-Pin_8-Pad8)*%
X99187000Y-43815000D03*
%TO.P,J4,9,Pin_9*%
%TO.N,unconnected-(J4-Pin_9-Pad9)*%
X99187000Y-41275000D03*
%TD*%
D14*
%TO.P,J8,1,Pin_1*%
%TO.N,CS1*%
X58928000Y-65273000D03*
%TD*%
D13*
%TO.P,J1,1,Pin_1*%
%TO.N,GND*%
X33528000Y-76200000D03*
D12*
%TO.P,J1,2,Pin_2*%
%TO.N,VCC*%
X36068000Y-76200000D03*
%TO.P,J1,3,Pin_3*%
%TO.N,A0*%
X38608000Y-76200000D03*
%TO.P,J1,4,Pin_4*%
%TO.N,A1*%
X41148000Y-76200000D03*
%TO.P,J1,5,Pin_5*%
%TO.N,A2*%
X43688000Y-76200000D03*
%TO.P,J1,6,Pin_6*%
%TO.N,A3*%
X46228000Y-76200000D03*
%TO.P,J1,7,Pin_7*%
%TO.N,A4*%
X48768000Y-76200000D03*
%TO.P,J1,8,Pin_8*%
%TO.N,A5*%
X51308000Y-76200000D03*
%TO.P,J1,9,Pin_9*%
%TO.N,A6*%
X53848000Y-76200000D03*
%TO.P,J1,10,Pin_10*%
%TO.N,A7*%
X56388000Y-76200000D03*
%TO.P,J1,11,Pin_11*%
%TO.N,A8*%
X58928000Y-76200000D03*
%TO.P,J1,12,Pin_12*%
%TO.N,A9*%
X61468000Y-76200000D03*
%TO.P,J1,13,Pin_13*%
%TO.N,A10*%
X64008000Y-76200000D03*
%TO.P,J1,14,Pin_14*%
%TO.N,A11*%
X66548000Y-76200000D03*
%TO.P,J1,15,Pin_15*%
%TO.N,A12*%
X69088000Y-76200000D03*
%TO.P,J1,16,Pin_16*%
%TO.N,A13*%
X71628000Y-76200000D03*
%TO.P,J1,17,Pin_17*%
%TO.N,A14*%
X74168000Y-76200000D03*
%TO.P,J1,18,Pin_18*%
%TO.N,A15*%
X76708000Y-76200000D03*
%TO.P,J1,19,Pin_19*%
%TO.N,D0*%
X79248000Y-76200000D03*
%TO.P,J1,20,Pin_20*%
%TO.N,D1*%
X81788000Y-76200000D03*
%TO.P,J1,21,Pin_21*%
%TO.N,D2*%
X84328000Y-76200000D03*
%TO.P,J1,22,Pin_22*%
%TO.N,D3*%
X86868000Y-76200000D03*
%TO.P,J1,23,Pin_23*%
%TO.N,D4*%
X89408000Y-76200000D03*
%TO.P,J1,24,Pin_24*%
%TO.N,D5*%
X91948000Y-76200000D03*
%TO.P,J1,25,Pin_25*%
%TO.N,D6*%
X94488000Y-76200000D03*
%TO.P,J1,26,Pin_26*%
%TO.N,D7*%
X97028000Y-76200000D03*
%TO.P,J1,27,Pin_27*%
%TO.N,R{slash}~{W}*%
X99568000Y-76200000D03*
%TO.P,J1,28,Pin_28*%
%TO.N,CLK*%
X102108000Y-76200000D03*
%TO.P,J1,29,Pin_29*%
%TO.N,/RDY*%
X104648000Y-76200000D03*
%TO.P,J1,30,Pin_30*%
%TO.N,/~{IRQ}*%
X107188000Y-76200000D03*
%TO.P,J1,31,Pin_31*%
%TO.N,/~{NMI}*%
X109728000Y-76200000D03*
%TO.P,J1,32,Pin_32*%
%TO.N,~{RESET}*%
X112268000Y-76200000D03*
%TD*%
D14*
%TO.P,J11,1,Pin_1*%
%TO.N,CS1*%
X66598800Y-65278000D03*
%TD*%
%TO.P,J9,1,Pin_1*%
%TO.N,CS1*%
X61518800Y-65278000D03*
%TD*%
%TO.P,J10,1,Pin_1*%
%TO.N,~{CS2}*%
X64008000Y-65273000D03*
%TD*%
D15*
%TO.N,3V3*%
X112051000Y-56540400D03*
%TO.N,A6*%
X85648800Y-59436000D03*
%TO.N,A7*%
X83058012Y-63499992D03*
%TO.N,GND*%
X76708000Y-44551600D03*
X50165000Y-65151000D03*
X77724000Y-36322000D03*
X88900000Y-74371200D03*
X39116000Y-59182000D03*
X84048600Y-69494400D03*
X52070000Y-69596000D03*
X78841600Y-70764400D03*
X55372000Y-62484000D03*
X100000000Y-65000000D03*
X86309200Y-74371200D03*
X53340000Y-68326002D03*
X51435000Y-66421000D03*
X110388400Y-58013600D03*
X103327200Y-60500000D03*
X103378000Y-65278000D03*
X72923400Y-36296600D03*
X100838000Y-74371200D03*
X82403927Y-65213976D03*
X47625000Y-65151000D03*
X85623400Y-68681600D03*
X48895000Y-63881000D03*
X87401400Y-67767200D03*
X98298000Y-74371200D03*
X44196000Y-59182000D03*
X65773000Y-42513134D03*
X80000000Y-60000000D03*
X93952400Y-74371200D03*
X50800000Y-70866000D03*
X74015600Y-42164000D03*
X81737200Y-44551600D03*
X55000000Y-42500000D03*
X46355000Y-66421000D03*
X50165000Y-67691000D03*
X79248000Y-44551600D03*
X105968800Y-65278000D03*
X41656000Y-59182000D03*
X91440000Y-74371200D03*
X48895000Y-66421000D03*
X54610000Y-60706000D03*
X48895000Y-68961000D03*
X47625000Y-67691000D03*
X84378800Y-44551600D03*
%TO.N,FLT*%
X66548002Y-52019199D03*
%TO.N,BCK*%
X61493400Y-48031400D03*
%TD*%
D16*
%TO.N,D0*%
X77851000Y-74803000D02*
X53467000Y-74803000D01*
X53467000Y-74803000D02*
X36068000Y-57404000D01*
X79248000Y-76200000D02*
X77851000Y-74803000D01*
%TO.N,D1*%
X38608000Y-57404000D02*
X55118000Y-73914000D01*
X79502000Y-73914000D02*
X81788000Y-76200000D01*
X55118000Y-73914000D02*
X79502000Y-73914000D01*
%TO.N,D2*%
X81153000Y-73025000D02*
X84328000Y-76200000D01*
X41148000Y-57413305D02*
X56759695Y-73025000D01*
X56759695Y-73025000D02*
X81153000Y-73025000D01*
X41148000Y-57404000D02*
X41148000Y-57413305D01*
%TO.N,D3*%
X58420000Y-72136000D02*
X82804000Y-72136000D01*
X43688000Y-57404000D02*
X58420000Y-72136000D01*
X82804000Y-72136000D02*
X86868000Y-76200000D01*
%TO.N,D4*%
X82677000Y-69469000D02*
X89408000Y-76200000D01*
X46228000Y-57404000D02*
X46228000Y-58356500D01*
X46228000Y-58356500D02*
X57340500Y-69469000D01*
X57340500Y-69469000D02*
X82677000Y-69469000D01*
%TO.N,D5*%
X51308000Y-57404000D02*
X51308000Y-61976000D01*
X51308000Y-61976000D02*
X57912000Y-68580000D01*
X84328000Y-68580000D02*
X91948000Y-76200000D01*
X57912000Y-68580000D02*
X84328000Y-68580000D01*
%TO.N,D6*%
X53848000Y-62992000D02*
X58547000Y-67691000D01*
X53848000Y-57404000D02*
X53848000Y-62992000D01*
X94488000Y-76073000D02*
X94488000Y-76200000D01*
X58547000Y-67691000D02*
X86106000Y-67691000D01*
X86106000Y-67691000D02*
X94488000Y-76073000D01*
%TO.N,D7*%
X56388000Y-57404000D02*
X56388000Y-64198500D01*
X56388000Y-64198500D02*
X58864500Y-66675000D01*
X58864500Y-66675000D02*
X87503000Y-66675000D01*
X87503000Y-66675000D02*
X97028000Y-76200000D01*
%TO.N,3V3*%
X99187000Y-56515000D02*
X112025600Y-56515000D01*
X112025600Y-56515000D02*
X112051000Y-56540400D01*
%TO.N,CS1*%
X64008000Y-57404000D02*
X64008000Y-63246000D01*
%TO.N,A6*%
X85648800Y-40944800D02*
X85648800Y-59436000D01*
X84328000Y-39624000D02*
X85648800Y-40944800D01*
%TO.N,A7*%
X83058012Y-40894012D02*
X83058012Y-63500000D01*
X82878008Y-63499992D02*
X83058012Y-63499992D01*
X81788000Y-39624000D02*
X83058012Y-40894012D01*
%TO.N,~{CS2}*%
X66548000Y-57404000D02*
X66548000Y-63236000D01*
X66548000Y-63236000D02*
X66045000Y-63236000D01*
X66548000Y-63236000D02*
X67828000Y-64516000D01*
X61468000Y-63236000D02*
X61971000Y-63236000D01*
X66045000Y-63236000D02*
X64008000Y-65273000D01*
X61971000Y-63236000D02*
X64008000Y-65273000D01*
X67828000Y-64516000D02*
X70348000Y-64516000D01*
X70348000Y-64516000D02*
X71628000Y-63236000D01*
X61468000Y-63236000D02*
X58928000Y-63236000D01*
%TO.N,FLT*%
X66548000Y-52019197D02*
X66548002Y-52019199D01*
X66548000Y-39624000D02*
X66548000Y-52019197D01*
%TO.N,BCK*%
X61468000Y-39624000D02*
X61468000Y-48006000D01*
X61468000Y-48006000D02*
X61493400Y-48031400D01*
%TO.N,SPI0-CLK*%
X74193400Y-34137600D02*
X74193400Y-39598600D01*
X74193400Y-39598600D02*
X74168000Y-39624000D01*
%TO.N,SPI0-CSn*%
X70434200Y-32816800D02*
X74676000Y-32816800D01*
X74676000Y-32816800D02*
X75438000Y-33578800D01*
X76708000Y-38005000D02*
X76708000Y-39624000D01*
X69113400Y-34137600D02*
X70434200Y-32816800D01*
X75438000Y-36735000D02*
X76708000Y-38005000D01*
X75438000Y-33578800D02*
X75438000Y-36735000D01*
%TO.N,SPI0-RX*%
X76733400Y-34137600D02*
X79248000Y-36652200D01*
X79248000Y-36652200D02*
X79248000Y-39624000D01*
%TO.N,SPI0-TX*%
X71653400Y-39598600D02*
X71628000Y-39624000D01*
X71653400Y-34137600D02*
X71653400Y-39598600D01*
%TD*%
%TA.AperFunction,Conductor*%
%TO.N,CS1*%
G36*
X64133832Y-61749427D02*
G01*
X64136155Y-61752739D01*
X64695725Y-62947914D01*
X64696130Y-62956860D01*
X64690090Y-62963471D01*
X64689620Y-62963679D01*
X64012491Y-63245133D01*
X64003536Y-63245144D01*
X64003509Y-63245133D01*
X63326379Y-62963679D01*
X63320055Y-62957339D01*
X63320066Y-62948384D01*
X63320274Y-62947914D01*
X63879845Y-61752739D01*
X63886456Y-61746699D01*
X63890441Y-61746000D01*
X64125559Y-61746000D01*
X64133832Y-61749427D01*
G37*
%TD.AperFunction*%
%TD*%
%TA.AperFunction,Conductor*%
%TO.N,A6*%
G36*
X85110838Y-39303441D02*
G01*
X85117163Y-39309780D01*
X85117388Y-39310370D01*
X85616031Y-40730748D01*
X85615539Y-40739690D01*
X85613265Y-40742897D01*
X85446897Y-40909265D01*
X85438624Y-40912692D01*
X85434748Y-40912031D01*
X84014370Y-40413388D01*
X84007699Y-40407415D01*
X84007207Y-40398473D01*
X84007423Y-40397905D01*
X84325438Y-39627783D01*
X84331759Y-39621448D01*
X85101884Y-39303432D01*
X85110838Y-39303441D01*
G37*
%TD.AperFunction*%
%TD*%
%TA.AperFunction,Conductor*%
%TO.N,~{CS2}*%
G36*
X65808201Y-62819472D02*
G01*
X65808237Y-62819491D01*
X65816269Y-62824002D01*
X66544467Y-63232912D01*
X66550002Y-63239951D01*
X66550010Y-63239979D01*
X66753667Y-63972369D01*
X66752582Y-63981258D01*
X66745530Y-63986776D01*
X66743358Y-63987164D01*
X65361461Y-64101271D01*
X65352934Y-64098537D01*
X65352225Y-64097884D01*
X65185528Y-63931187D01*
X65182101Y-63922914D01*
X65183578Y-63917225D01*
X65792288Y-62824000D01*
X65799305Y-62818441D01*
X65808201Y-62819472D01*
G37*
%TD.AperFunction*%
%TD*%
%TA.AperFunction,Conductor*%
%TO.N,D3*%
G36*
X44470838Y-57083441D02*
G01*
X44477163Y-57089780D01*
X44477388Y-57090370D01*
X44976031Y-58510748D01*
X44975539Y-58519690D01*
X44973265Y-58522897D01*
X44806897Y-58689265D01*
X44798624Y-58692692D01*
X44794748Y-58692031D01*
X43374370Y-58193388D01*
X43367699Y-58187415D01*
X43367207Y-58178473D01*
X43367423Y-58177905D01*
X43685438Y-57407783D01*
X43691759Y-57401448D01*
X44461884Y-57083432D01*
X44470838Y-57083441D01*
G37*
%TD.AperFunction*%
%TD*%
%TA.AperFunction,Conductor*%
%TO.N,~{CS2}*%
G36*
X67295653Y-62930762D02*
G01*
X67301976Y-62937102D01*
X67302162Y-62937581D01*
X67681810Y-63986000D01*
X67827768Y-64389069D01*
X67828467Y-64393053D01*
X67828467Y-64623534D01*
X67825040Y-64631807D01*
X67816767Y-64635234D01*
X67812315Y-64634354D01*
X66247433Y-63990461D01*
X66241086Y-63984144D01*
X66241065Y-63975189D01*
X66545143Y-63240485D01*
X66551471Y-63234154D01*
X67286700Y-62930750D01*
X67295653Y-62930762D01*
G37*
%TD.AperFunction*%
%TD*%
%TA.AperFunction,Conductor*%
%TO.N,A6*%
G36*
X85773988Y-58639427D02*
G01*
X85776659Y-58643563D01*
X86014351Y-59272344D01*
X86014071Y-59281294D01*
X86007909Y-59287280D01*
X85653302Y-59435123D01*
X85644348Y-59435144D01*
X85644298Y-59435123D01*
X85289690Y-59287280D01*
X85283372Y-59280933D01*
X85283248Y-59272345D01*
X85520941Y-58643562D01*
X85527072Y-58637036D01*
X85531885Y-58636000D01*
X85765715Y-58636000D01*
X85773988Y-58639427D01*
G37*
%TD.AperFunction*%
%TD*%
%TA.AperFunction,Conductor*%
%TO.N,D3*%
G36*
X85761251Y-74911968D02*
G01*
X86243027Y-75081102D01*
X87181629Y-75410611D01*
X87188300Y-75416584D01*
X87188792Y-75425526D01*
X87188567Y-75426116D01*
X86870562Y-76196214D01*
X86864237Y-76202553D01*
X86864214Y-76202562D01*
X86094116Y-76520567D01*
X86085161Y-76520558D01*
X86078836Y-76514219D01*
X86078611Y-76513629D01*
X85968755Y-76200707D01*
X85692818Y-75414702D01*
X85579968Y-75093251D01*
X85580460Y-75084309D01*
X85582731Y-75081105D01*
X85749103Y-74914733D01*
X85757375Y-74911307D01*
X85761251Y-74911968D01*
G37*
%TD.AperFunction*%
%TD*%
%TA.AperFunction,Conductor*%
%TO.N,FLT*%
G36*
X66552489Y-39624865D02*
G01*
X67321892Y-39944542D01*
X67328217Y-39950881D01*
X67328208Y-39959836D01*
X67327950Y-39960413D01*
X66676186Y-41317366D01*
X66669515Y-41323339D01*
X66665639Y-41324000D01*
X66430361Y-41324000D01*
X66422088Y-41320573D01*
X66419814Y-41317366D01*
X65768049Y-39960413D01*
X65767557Y-39951471D01*
X65773530Y-39944800D01*
X65774095Y-39944547D01*
X66543511Y-39624864D01*
X66552466Y-39624856D01*
X66552489Y-39624865D01*
G37*
%TD.AperFunction*%
%TD*%
%TA.AperFunction,Conductor*%
%TO.N,D5*%
G36*
X51312489Y-57404865D02*
G01*
X52081892Y-57724542D01*
X52088217Y-57730881D01*
X52088208Y-57739836D01*
X52087950Y-57740413D01*
X51436186Y-59097366D01*
X51429515Y-59103339D01*
X51425639Y-59104000D01*
X51190361Y-59104000D01*
X51182088Y-59100573D01*
X51179814Y-59097366D01*
X50528049Y-57740413D01*
X50527557Y-57731471D01*
X50533530Y-57724800D01*
X50534095Y-57724547D01*
X51303511Y-57404864D01*
X51312466Y-57404856D01*
X51312489Y-57404865D01*
G37*
%TD.AperFunction*%
%TD*%
%TA.AperFunction,Conductor*%
%TO.N,~{CS2}*%
G36*
X64876109Y-64232965D02*
G01*
X64879521Y-64235334D01*
X65045665Y-64401478D01*
X65049092Y-64409751D01*
X65048355Y-64413839D01*
X64635850Y-65519964D01*
X64629748Y-65526518D01*
X64620799Y-65526839D01*
X64620424Y-65526692D01*
X64620002Y-65526518D01*
X64459704Y-65460377D01*
X64011790Y-65275562D01*
X64005450Y-65269238D01*
X64005437Y-65269209D01*
X63754307Y-64660573D01*
X63754320Y-64651620D01*
X63760660Y-64645296D01*
X63760994Y-64645164D01*
X64867163Y-64232644D01*
X64876109Y-64232965D01*
G37*
%TD.AperFunction*%
%TD*%
%TA.AperFunction,Conductor*%
%TO.N,3V3*%
G36*
X99522836Y-55734791D02*
G01*
X99523413Y-55735049D01*
X100880366Y-56386814D01*
X100886339Y-56393484D01*
X100887000Y-56397360D01*
X100887000Y-56632639D01*
X100883573Y-56640912D01*
X100880366Y-56643186D01*
X99523413Y-57294950D01*
X99514471Y-57295442D01*
X99507800Y-57289469D01*
X99507542Y-57288892D01*
X99187865Y-56519489D01*
X99187856Y-56510534D01*
X99187865Y-56510511D01*
X99507542Y-55741107D01*
X99513881Y-55734782D01*
X99522836Y-55734791D01*
G37*
%TD.AperFunction*%
%TD*%
%TA.AperFunction,Conductor*%
%TO.N,D0*%
G36*
X36850838Y-57083441D02*
G01*
X36857163Y-57089780D01*
X36857388Y-57090370D01*
X37356031Y-58510748D01*
X37355539Y-58519690D01*
X37353265Y-58522897D01*
X37186897Y-58689265D01*
X37178624Y-58692692D01*
X37174748Y-58692031D01*
X35754370Y-58193388D01*
X35747699Y-58187415D01*
X35747207Y-58178473D01*
X35747423Y-58177905D01*
X36065438Y-57407783D01*
X36071759Y-57401448D01*
X36841884Y-57083432D01*
X36850838Y-57083441D01*
G37*
%TD.AperFunction*%
%TD*%
%TA.AperFunction,Conductor*%
%TO.N,~{CS2}*%
G36*
X59686201Y-62492834D02*
G01*
X60423790Y-63107492D01*
X60427952Y-63115420D01*
X60428000Y-63116479D01*
X60428000Y-63355520D01*
X60424573Y-63363793D01*
X60423790Y-63364508D01*
X59686203Y-63979164D01*
X59677654Y-63981828D01*
X59670445Y-63978455D01*
X58935290Y-63244279D01*
X58931858Y-63236008D01*
X58935279Y-63227732D01*
X58935290Y-63227721D01*
X59047741Y-63115420D01*
X59670446Y-62493543D01*
X59678721Y-62490123D01*
X59686201Y-62492834D01*
G37*
%TD.AperFunction*%
%TD*%
%TA.AperFunction,Conductor*%
%TO.N,SPI0-CSn*%
G36*
X76744406Y-37870588D02*
G01*
X76746497Y-37873431D01*
X77487362Y-39287391D01*
X77488166Y-39296309D01*
X77482428Y-39303185D01*
X77481487Y-39303626D01*
X76713190Y-39622844D01*
X76704236Y-39622852D01*
X76017874Y-39338190D01*
X75934360Y-39303554D01*
X75928031Y-39297220D01*
X75928035Y-39288265D01*
X75928397Y-39287476D01*
X76561494Y-38037774D01*
X76563654Y-38034794D01*
X76727861Y-37870587D01*
X76736133Y-37867161D01*
X76744406Y-37870588D01*
G37*
%TD.AperFunction*%
%TD*%
%TA.AperFunction,Conductor*%
%TO.N,A7*%
G36*
X82570838Y-39303441D02*
G01*
X82577163Y-39309780D01*
X82577388Y-39310370D01*
X83076031Y-40730748D01*
X83075539Y-40739690D01*
X83073265Y-40742897D01*
X82906897Y-40909265D01*
X82898624Y-40912692D01*
X82894748Y-40912031D01*
X81474370Y-40413388D01*
X81467699Y-40407415D01*
X81467207Y-40398473D01*
X81467423Y-40397905D01*
X81785438Y-39627783D01*
X81791759Y-39621448D01*
X82561884Y-39303432D01*
X82570838Y-39303441D01*
G37*
%TD.AperFunction*%
%TD*%
%TA.AperFunction,Conductor*%
%TO.N,A7*%
G36*
X83183200Y-62703419D02*
G01*
X83185871Y-62707555D01*
X83423563Y-63336336D01*
X83423283Y-63345286D01*
X83417121Y-63351272D01*
X83062514Y-63499115D01*
X83053560Y-63499136D01*
X83053510Y-63499115D01*
X82698902Y-63351272D01*
X82692584Y-63344925D01*
X82692460Y-63336337D01*
X82930153Y-62707554D01*
X82936284Y-62701028D01*
X82941097Y-62699992D01*
X83174927Y-62699992D01*
X83183200Y-62703419D01*
G37*
%TD.AperFunction*%
%TD*%
%TA.AperFunction,Conductor*%
%TO.N,CS1*%
G36*
X64012489Y-57404865D02*
G01*
X64781892Y-57724542D01*
X64788217Y-57730881D01*
X64788208Y-57739836D01*
X64787950Y-57740413D01*
X64136186Y-59097366D01*
X64129515Y-59103339D01*
X64125639Y-59104000D01*
X63890361Y-59104000D01*
X63882088Y-59100573D01*
X63879814Y-59097366D01*
X63228049Y-57740413D01*
X63227557Y-57731471D01*
X63233530Y-57724800D01*
X63234095Y-57724547D01*
X64003511Y-57404864D01*
X64012466Y-57404856D01*
X64012489Y-57404865D01*
G37*
%TD.AperFunction*%
%TD*%
%TA.AperFunction,Conductor*%
%TO.N,D6*%
G36*
X93457634Y-74861597D02*
G01*
X94802402Y-75410263D01*
X94808767Y-75416561D01*
X94808815Y-75425516D01*
X94808796Y-75425562D01*
X94490562Y-76196214D01*
X94484237Y-76202553D01*
X94484214Y-76202562D01*
X93714791Y-76520288D01*
X93705836Y-76520279D01*
X93699511Y-76513940D01*
X93699082Y-76512712D01*
X93609766Y-76202562D01*
X93275570Y-75042067D01*
X93276574Y-75033170D01*
X93278536Y-75030562D01*
X93444942Y-74864156D01*
X93453214Y-74860730D01*
X93457634Y-74861597D01*
G37*
%TD.AperFunction*%
%TD*%
%TA.AperFunction,Conductor*%
%TO.N,~{CS2}*%
G36*
X60725554Y-62493544D02*
G01*
X61460709Y-63227721D01*
X61464141Y-63235992D01*
X61460720Y-63244268D01*
X61460709Y-63244279D01*
X60725554Y-63978455D01*
X60717278Y-63981876D01*
X60709797Y-63979164D01*
X59972210Y-63364508D01*
X59968048Y-63356579D01*
X59968000Y-63355520D01*
X59968000Y-63116479D01*
X59971427Y-63108206D01*
X59972201Y-63107498D01*
X60709799Y-62492834D01*
X60718345Y-62490171D01*
X60725554Y-62493544D01*
G37*
%TD.AperFunction*%
%TD*%
%TA.AperFunction,Conductor*%
%TO.N,GND*%
G36*
X85862587Y-68336185D02*
G01*
X85883229Y-68352819D01*
X92097920Y-74567510D01*
X92131405Y-74628833D01*
X92126421Y-74698525D01*
X92084549Y-74754458D01*
X92019085Y-74778875D01*
X91969165Y-74772191D01*
X91490471Y-74604140D01*
X91490470Y-74604139D01*
X91126100Y-74476221D01*
X91079494Y-74446903D01*
X88123406Y-71490815D01*
X85160770Y-68528180D01*
X85127286Y-68466858D01*
X85132270Y-68397166D01*
X85174142Y-68341233D01*
X85239606Y-68316816D01*
X85248452Y-68316500D01*
X85795548Y-68316500D01*
X85862587Y-68336185D01*
G37*
%TD.AperFunction*%
%TA.AperFunction,Conductor*%
G36*
X82433587Y-70114185D02*
G01*
X82454229Y-70130819D01*
X86822215Y-74498806D01*
X86855700Y-74560129D01*
X86850716Y-74629821D01*
X86808844Y-74685754D01*
X86743380Y-74710171D01*
X86693460Y-74703487D01*
X86410471Y-74604140D01*
X86046100Y-74476222D01*
X85999493Y-74446903D01*
X83294198Y-71741608D01*
X83294178Y-71741586D01*
X83202733Y-71650141D01*
X83151509Y-71615915D01*
X83100287Y-71581689D01*
X83100286Y-71581688D01*
X83100283Y-71581686D01*
X83100280Y-71581685D01*
X83019792Y-71548347D01*
X82986453Y-71534537D01*
X82976427Y-71532543D01*
X82926029Y-71522518D01*
X82865610Y-71510500D01*
X82865607Y-71510500D01*
X82865606Y-71510500D01*
X78082500Y-71510500D01*
X78015461Y-71490815D01*
X77969706Y-71438011D01*
X77958500Y-71386500D01*
X77958499Y-70218500D01*
X77978184Y-70151461D01*
X78030987Y-70105706D01*
X78082499Y-70094500D01*
X82366548Y-70094500D01*
X82433587Y-70114185D01*
G37*
%TD.AperFunction*%
%TA.AperFunction,Conductor*%
G36*
X84084587Y-69225185D02*
G01*
X84105229Y-69241819D01*
X89362215Y-74498806D01*
X89395700Y-74560129D01*
X89390716Y-74629821D01*
X89348844Y-74685754D01*
X89283380Y-74710171D01*
X89233460Y-74703487D01*
X88950471Y-74604140D01*
X88950470Y-74604139D01*
X88586100Y-74476221D01*
X88539494Y-74446903D01*
X83509771Y-69417181D01*
X83476286Y-69355858D01*
X83481270Y-69286166D01*
X83523142Y-69230233D01*
X83588606Y-69205816D01*
X83597452Y-69205500D01*
X84017548Y-69205500D01*
X84084587Y-69225185D01*
G37*
%TD.AperFunction*%
%TA.AperFunction,Conductor*%
G36*
X87259587Y-67320185D02*
G01*
X87280229Y-67336819D01*
X94376618Y-74433208D01*
X94410103Y-74494531D01*
X94405119Y-74564223D01*
X94363247Y-74620156D01*
X94297783Y-74644573D01*
X94242094Y-74635701D01*
X93746999Y-74433702D01*
X93706161Y-74406571D01*
X86811771Y-67512181D01*
X86778286Y-67450858D01*
X86783270Y-67381166D01*
X86825142Y-67325233D01*
X86890606Y-67300816D01*
X86899452Y-67300500D01*
X87192548Y-67300500D01*
X87259587Y-67320185D01*
G37*
%TD.AperFunction*%
%TA.AperFunction,Conductor*%
G36*
X38782533Y-58900509D02*
G01*
X39429898Y-59127775D01*
X39476504Y-59157094D01*
X54285229Y-73965819D01*
X54318714Y-74027142D01*
X54313730Y-74096834D01*
X54271858Y-74152767D01*
X54206394Y-74177184D01*
X54197548Y-74177500D01*
X53777452Y-74177500D01*
X53710413Y-74157815D01*
X53689771Y-74141181D01*
X38653781Y-59105191D01*
X38620296Y-59043868D01*
X38625280Y-58974176D01*
X38667152Y-58918243D01*
X38732616Y-58893826D01*
X38782533Y-58900509D01*
G37*
%TD.AperFunction*%
%TA.AperFunction,Conductor*%
G36*
X41327057Y-58904765D02*
G01*
X41963975Y-59130890D01*
X42010168Y-59160063D01*
X55926924Y-73076819D01*
X55960409Y-73138142D01*
X55955425Y-73207834D01*
X55913553Y-73263767D01*
X55848089Y-73288184D01*
X55839243Y-73288500D01*
X55428452Y-73288500D01*
X55361413Y-73268815D01*
X55340771Y-73252181D01*
X41197891Y-59109301D01*
X41164406Y-59047978D01*
X41169390Y-58978286D01*
X41211262Y-58922353D01*
X41276726Y-58897936D01*
X41327057Y-58904765D01*
G37*
%TD.AperFunction*%
%TA.AperFunction,Conductor*%
G36*
X43848197Y-58895476D02*
G01*
X44509898Y-59127775D01*
X44556504Y-59157094D01*
X57587229Y-72187819D01*
X57620714Y-72249142D01*
X57615730Y-72318834D01*
X57573858Y-72374767D01*
X57508394Y-72399184D01*
X57499548Y-72399500D01*
X57070147Y-72399500D01*
X57003108Y-72379815D01*
X56982466Y-72363181D01*
X43719443Y-59100158D01*
X43685958Y-59038835D01*
X43690942Y-58969143D01*
X43732814Y-58913210D01*
X43798278Y-58888793D01*
X43848197Y-58895476D01*
G37*
%TD.AperFunction*%
%TA.AperFunction,Conductor*%
G36*
X55187047Y-58071087D02*
G01*
X55229774Y-58120397D01*
X55332155Y-58333551D01*
X55750274Y-59204060D01*
X55750275Y-59204061D01*
X55762500Y-59257748D01*
X55762500Y-63722547D01*
X55742815Y-63789586D01*
X55690011Y-63835341D01*
X55620853Y-63845285D01*
X55557297Y-63816260D01*
X55550819Y-63810228D01*
X54509819Y-62769228D01*
X54476334Y-62707905D01*
X54473500Y-62681547D01*
X54473500Y-59257747D01*
X54485725Y-59204060D01*
X55006225Y-58120395D01*
X55052993Y-58068489D01*
X55120402Y-58050107D01*
X55187047Y-58071087D01*
G37*
%TD.AperFunction*%
%TA.AperFunction,Conductor*%
G36*
X50102721Y-58385169D02*
G01*
X50164745Y-58371677D01*
X50234437Y-58376661D01*
X50290371Y-58418532D01*
X50302879Y-58439156D01*
X50670274Y-59204060D01*
X50670275Y-59204061D01*
X50682500Y-59257748D01*
X50682500Y-61627048D01*
X50662815Y-61694087D01*
X50610011Y-61739842D01*
X50540853Y-61749786D01*
X50477297Y-61720761D01*
X50470819Y-61714729D01*
X47715257Y-58959167D01*
X47681772Y-58897844D01*
X47686756Y-58828152D01*
X47728628Y-58772219D01*
X47794092Y-58747802D01*
X47816194Y-58748197D01*
X47870155Y-58753999D01*
X47870172Y-58754000D01*
X49665828Y-58754000D01*
X49665844Y-58753999D01*
X49725376Y-58747598D01*
X49725377Y-58747597D01*
X49749170Y-58738722D01*
X49749170Y-58738720D01*
X48905576Y-57895127D01*
X48964853Y-57879245D01*
X49081147Y-57812102D01*
X49176102Y-57717147D01*
X49243245Y-57600853D01*
X49259128Y-57541575D01*
X50102721Y-58385169D01*
G37*
%TD.AperFunction*%
%TA.AperFunction,Conductor*%
G36*
X83859923Y-40895845D02*
G01*
X83864326Y-40897898D01*
X83864337Y-40897903D01*
X83877130Y-40901330D01*
X83886095Y-40904101D01*
X84940375Y-41274220D01*
X84997109Y-41314999D01*
X85022789Y-41379978D01*
X85023300Y-41391219D01*
X85023300Y-56043470D01*
X85003615Y-56110509D01*
X84950811Y-56156264D01*
X84881653Y-56166208D01*
X84846896Y-56155852D01*
X84791669Y-56130099D01*
X84791655Y-56130094D01*
X84563413Y-56068938D01*
X84563403Y-56068936D01*
X84328001Y-56048341D01*
X84327999Y-56048341D01*
X84092596Y-56068936D01*
X84092586Y-56068938D01*
X83864344Y-56130094D01*
X83864329Y-56130099D01*
X83859914Y-56132159D01*
X83790837Y-56142650D01*
X83727053Y-56114128D01*
X83688815Y-56055651D01*
X83683512Y-56019776D01*
X83683512Y-41008224D01*
X83703197Y-40941185D01*
X83756001Y-40895430D01*
X83825159Y-40885486D01*
X83859923Y-40895845D01*
G37*
%TD.AperFunction*%
%TA.AperFunction,Conductor*%
G36*
X76239901Y-35397590D02*
G01*
X76269737Y-35411503D01*
X76269742Y-35411504D01*
X76269744Y-35411505D01*
X76284288Y-35415402D01*
X76497992Y-35472663D01*
X76674434Y-35488100D01*
X76733399Y-35493259D01*
X76733400Y-35493259D01*
X76733401Y-35493259D01*
X76792366Y-35488100D01*
X76968808Y-35472663D01*
X77069273Y-35445743D01*
X77139122Y-35447406D01*
X77189047Y-35477837D01*
X78586181Y-36874971D01*
X78619666Y-36936294D01*
X78622500Y-36962652D01*
X78622500Y-37770250D01*
X78610275Y-37823937D01*
X78086384Y-38914658D01*
X78039615Y-38966566D01*
X77972206Y-38984948D01*
X77905561Y-38963968D01*
X77864774Y-38918522D01*
X77329346Y-37896645D01*
X77317566Y-37863291D01*
X77309463Y-37822548D01*
X77285887Y-37765631D01*
X77262314Y-37708720D01*
X77262307Y-37708707D01*
X77193858Y-37606267D01*
X77193855Y-37606263D01*
X77103637Y-37516045D01*
X77103606Y-37516016D01*
X76099819Y-36512229D01*
X76066334Y-36450906D01*
X76063500Y-36424548D01*
X76063500Y-35509973D01*
X76083185Y-35442934D01*
X76135989Y-35397179D01*
X76205147Y-35387235D01*
X76239901Y-35397590D01*
G37*
%TD.AperFunction*%
%TA.AperFunction,Conductor*%
G36*
X73008255Y-34804146D02*
G01*
X73024975Y-34823442D01*
X73154901Y-35008996D01*
X73154906Y-35009002D01*
X73321997Y-35176093D01*
X73322003Y-35176098D01*
X73336455Y-35186217D01*
X73515024Y-35311253D01*
X73558648Y-35365828D01*
X73567900Y-35412826D01*
X73567900Y-37770289D01*
X73554781Y-37825799D01*
X73012051Y-38909890D01*
X72964438Y-38961025D01*
X72896737Y-38978301D01*
X72830445Y-38956232D01*
X72788669Y-38906529D01*
X72290399Y-37831609D01*
X72278900Y-37779460D01*
X72278900Y-35412826D01*
X72298585Y-35345787D01*
X72331774Y-35311254D01*
X72524801Y-35176095D01*
X72691895Y-35009001D01*
X72821825Y-34823442D01*
X72876402Y-34779817D01*
X72945900Y-34772623D01*
X73008255Y-34804146D01*
G37*
%TD.AperFunction*%
%TA.AperFunction,Conductor*%
G36*
X114497039Y-30499685D02*
G01*
X114542794Y-30552489D01*
X114554000Y-30604000D01*
X114554000Y-78616000D01*
X114534315Y-78683039D01*
X114481511Y-78728794D01*
X114430000Y-78740000D01*
X30858000Y-78740000D01*
X30790961Y-78720315D01*
X30745206Y-78667511D01*
X30734000Y-78616000D01*
X30734000Y-75302157D01*
X32178000Y-75302157D01*
X32178000Y-77097844D01*
X32184401Y-77157375D01*
X32193277Y-77181170D01*
X33045037Y-76329409D01*
X33062075Y-76392993D01*
X33127901Y-76507007D01*
X33220993Y-76600099D01*
X33335007Y-76665925D01*
X33398588Y-76682962D01*
X32546829Y-77534720D01*
X32546829Y-77534722D01*
X32570622Y-77543597D01*
X32570623Y-77543598D01*
X32630155Y-77549999D01*
X32630172Y-77550000D01*
X34425828Y-77550000D01*
X34425844Y-77549999D01*
X34485376Y-77543598D01*
X34485377Y-77543597D01*
X34509170Y-77534722D01*
X34509170Y-77534720D01*
X33657411Y-76682962D01*
X33720993Y-76665925D01*
X33835007Y-76600099D01*
X33928099Y-76507007D01*
X33993925Y-76392993D01*
X34010962Y-76329410D01*
X34862721Y-77181169D01*
X34870421Y-77160528D01*
X34912292Y-77104594D01*
X34977757Y-77080177D01*
X35046029Y-77095029D01*
X35074284Y-77116180D01*
X35196599Y-77238495D01*
X35293384Y-77306265D01*
X35390165Y-77374032D01*
X35390167Y-77374033D01*
X35390170Y-77374035D01*
X35604337Y-77473903D01*
X35832592Y-77535063D01*
X36003319Y-77550000D01*
X36067999Y-77555659D01*
X36068000Y-77555659D01*
X36068001Y-77555659D01*
X36132681Y-77550000D01*
X36303408Y-77535063D01*
X36531663Y-77473903D01*
X36745830Y-77374035D01*
X36939401Y-77238495D01*
X37106495Y-77071401D01*
X37236425Y-76885842D01*
X37291002Y-76842217D01*
X37360500Y-76835023D01*
X37422855Y-76866546D01*
X37439575Y-76885842D01*
X37569500Y-77071395D01*
X37569505Y-77071401D01*
X37736599Y-77238495D01*
X37833384Y-77306265D01*
X37930165Y-77374032D01*
X37930167Y-77374033D01*
X37930170Y-77374035D01*
X38144337Y-77473903D01*
X38372592Y-77535063D01*
X38543319Y-77550000D01*
X38607999Y-77555659D01*
X38608000Y-77555659D01*
X38608001Y-77555659D01*
X38672681Y-77550000D01*
X38843408Y-77535063D01*
X39071663Y-77473903D01*
X39285830Y-77374035D01*
X39479401Y-77238495D01*
X39646495Y-77071401D01*
X39776425Y-76885842D01*
X39831002Y-76842217D01*
X39900500Y-76835023D01*
X39962855Y-76866546D01*
X39979575Y-76885842D01*
X40109500Y-77071395D01*
X40109505Y-77071401D01*
X40276599Y-77238495D01*
X40373384Y-77306265D01*
X40470165Y-77374032D01*
X40470167Y-77374033D01*
X40470170Y-77374035D01*
X40684337Y-77473903D01*
X40912592Y-77535063D01*
X41083319Y-77550000D01*
X41147999Y-77555659D01*
X41148000Y-77555659D01*
X41148001Y-77555659D01*
X41212681Y-77550000D01*
X41383408Y-77535063D01*
X41611663Y-77473903D01*
X41825830Y-77374035D01*
X42019401Y-77238495D01*
X42186495Y-77071401D01*
X42316425Y-76885842D01*
X42371002Y-76842217D01*
X42440500Y-76835023D01*
X42502855Y-76866546D01*
X42519575Y-76885842D01*
X42649500Y-77071395D01*
X42649505Y-77071401D01*
X42816599Y-77238495D01*
X42913384Y-77306265D01*
X43010165Y-77374032D01*
X43010167Y-77374033D01*
X43010170Y-77374035D01*
X43224337Y-77473903D01*
X43452592Y-77535063D01*
X43623319Y-77550000D01*
X43687999Y-77555659D01*
X43688000Y-77555659D01*
X43688001Y-77555659D01*
X43752681Y-77550000D01*
X43923408Y-77535063D01*
X44151663Y-77473903D01*
X44365830Y-77374035D01*
X44559401Y-77238495D01*
X44726495Y-77071401D01*
X44856425Y-76885842D01*
X44911002Y-76842217D01*
X44980500Y-76835023D01*
X45042855Y-76866546D01*
X45059575Y-76885842D01*
X45189500Y-77071395D01*
X45189505Y-77071401D01*
X45356599Y-77238495D01*
X45453384Y-77306265D01*
X45550165Y-77374032D01*
X45550167Y-77374033D01*
X45550170Y-77374035D01*
X45764337Y-77473903D01*
X45992592Y-77535063D01*
X46163319Y-77550000D01*
X46227999Y-77555659D01*
X46228000Y-77555659D01*
X46228001Y-77555659D01*
X46292681Y-77550000D01*
X46463408Y-77535063D01*
X46691663Y-77473903D01*
X46905830Y-77374035D01*
X47099401Y-77238495D01*
X47266495Y-77071401D01*
X47396425Y-76885842D01*
X47451002Y-76842217D01*
X47520500Y-76835023D01*
X47582855Y-76866546D01*
X47599575Y-76885842D01*
X47729500Y-77071395D01*
X47729505Y-77071401D01*
X47896599Y-77238495D01*
X47993384Y-77306265D01*
X48090165Y-77374032D01*
X48090167Y-77374033D01*
X48090170Y-77374035D01*
X48304337Y-77473903D01*
X48532592Y-77535063D01*
X48703319Y-77550000D01*
X48767999Y-77555659D01*
X48768000Y-77555659D01*
X48768001Y-77555659D01*
X48832681Y-77550000D01*
X49003408Y-77535063D01*
X49231663Y-77473903D01*
X49445830Y-77374035D01*
X49639401Y-77238495D01*
X49806495Y-77071401D01*
X49936425Y-76885842D01*
X49991002Y-76842217D01*
X50060500Y-76835023D01*
X50122855Y-76866546D01*
X50139575Y-76885842D01*
X50269500Y-77071395D01*
X50269505Y-77071401D01*
X50436599Y-77238495D01*
X50533384Y-77306265D01*
X50630165Y-77374032D01*
X50630167Y-77374033D01*
X50630170Y-77374035D01*
X50844337Y-77473903D01*
X51072592Y-77535063D01*
X51243319Y-77550000D01*
X51307999Y-77555659D01*
X51308000Y-77555659D01*
X51308001Y-77555659D01*
X51372681Y-77550000D01*
X51543408Y-77535063D01*
X51771663Y-77473903D01*
X51985830Y-77374035D01*
X52179401Y-77238495D01*
X52346495Y-77071401D01*
X52476425Y-76885842D01*
X52531002Y-76842217D01*
X52600500Y-76835023D01*
X52662855Y-76866546D01*
X52679575Y-76885842D01*
X52809500Y-77071395D01*
X52809505Y-77071401D01*
X52976599Y-77238495D01*
X53073384Y-77306265D01*
X53170165Y-77374032D01*
X53170167Y-77374033D01*
X53170170Y-77374035D01*
X53384337Y-77473903D01*
X53612592Y-77535063D01*
X53783319Y-77550000D01*
X53847999Y-77555659D01*
X53848000Y-77555659D01*
X53848001Y-77555659D01*
X53912681Y-77550000D01*
X54083408Y-77535063D01*
X54311663Y-77473903D01*
X54525830Y-77374035D01*
X54719401Y-77238495D01*
X54886495Y-77071401D01*
X55016425Y-76885842D01*
X55071002Y-76842217D01*
X55140500Y-76835023D01*
X55202855Y-76866546D01*
X55219575Y-76885842D01*
X55349500Y-77071395D01*
X55349505Y-77071401D01*
X55516599Y-77238495D01*
X55613384Y-77306265D01*
X55710165Y-77374032D01*
X55710167Y-77374033D01*
X55710170Y-77374035D01*
X55924337Y-77473903D01*
X56152592Y-77535063D01*
X56323319Y-77550000D01*
X56387999Y-77555659D01*
X56388000Y-77555659D01*
X56388001Y-77555659D01*
X56452681Y-77550000D01*
X56623408Y-77535063D01*
X56851663Y-77473903D01*
X57065830Y-77374035D01*
X57259401Y-77238495D01*
X57426495Y-77071401D01*
X57556425Y-76885842D01*
X57611002Y-76842217D01*
X57680500Y-76835023D01*
X57742855Y-76866546D01*
X57759575Y-76885842D01*
X57889500Y-77071395D01*
X57889505Y-77071401D01*
X58056599Y-77238495D01*
X58153384Y-77306265D01*
X58250165Y-77374032D01*
X58250167Y-77374033D01*
X58250170Y-77374035D01*
X58464337Y-77473903D01*
X58692592Y-77535063D01*
X58863319Y-77550000D01*
X58927999Y-77555659D01*
X58928000Y-77555659D01*
X58928001Y-77555659D01*
X58992681Y-77550000D01*
X59163408Y-77535063D01*
X59391663Y-77473903D01*
X59605830Y-77374035D01*
X59799401Y-77238495D01*
X59966495Y-77071401D01*
X60096425Y-76885842D01*
X60151002Y-76842217D01*
X60220500Y-76835023D01*
X60282855Y-76866546D01*
X60299575Y-76885842D01*
X60429500Y-77071395D01*
X60429505Y-77071401D01*
X60596599Y-77238495D01*
X60693384Y-77306265D01*
X60790165Y-77374032D01*
X60790167Y-77374033D01*
X60790170Y-77374035D01*
X61004337Y-77473903D01*
X61232592Y-77535063D01*
X61403319Y-77550000D01*
X61467999Y-77555659D01*
X61468000Y-77555659D01*
X61468001Y-77555659D01*
X61532681Y-77550000D01*
X61703408Y-77535063D01*
X61931663Y-77473903D01*
X62145830Y-77374035D01*
X62339401Y-77238495D01*
X62506495Y-77071401D01*
X62636425Y-76885842D01*
X62691002Y-76842217D01*
X62760500Y-76835023D01*
X62822855Y-76866546D01*
X62839575Y-76885842D01*
X62969500Y-77071395D01*
X62969505Y-77071401D01*
X63136599Y-77238495D01*
X63233384Y-77306265D01*
X63330165Y-77374032D01*
X63330167Y-77374033D01*
X63330170Y-77374035D01*
X63544337Y-77473903D01*
X63772592Y-77535063D01*
X63943319Y-77550000D01*
X64007999Y-77555659D01*
X64008000Y-77555659D01*
X64008001Y-77555659D01*
X64072681Y-77550000D01*
X64243408Y-77535063D01*
X64471663Y-77473903D01*
X64685830Y-77374035D01*
X64879401Y-77238495D01*
X65046495Y-77071401D01*
X65176425Y-76885842D01*
X65231002Y-76842217D01*
X65300500Y-76835023D01*
X65362855Y-76866546D01*
X65379575Y-76885842D01*
X65509500Y-77071395D01*
X65509505Y-77071401D01*
X65676599Y-77238495D01*
X65773384Y-77306265D01*
X65870165Y-77374032D01*
X65870167Y-77374033D01*
X65870170Y-77374035D01*
X66084337Y-77473903D01*
X66312592Y-77535063D01*
X66483319Y-77550000D01*
X66547999Y-77555659D01*
X66548000Y-77555659D01*
X66548001Y-77555659D01*
X66612681Y-77550000D01*
X66783408Y-77535063D01*
X67011663Y-77473903D01*
X67225830Y-77374035D01*
X67419401Y-77238495D01*
X67586495Y-77071401D01*
X67716425Y-76885842D01*
X67771002Y-76842217D01*
X67840500Y-76835023D01*
X67902855Y-76866546D01*
X67919575Y-76885842D01*
X68049500Y-77071395D01*
X68049505Y-77071401D01*
X68216599Y-77238495D01*
X68313384Y-77306265D01*
X68410165Y-77374032D01*
X68410167Y-77374033D01*
X68410170Y-77374035D01*
X68624337Y-77473903D01*
X68852592Y-77535063D01*
X69023319Y-77550000D01*
X69087999Y-77555659D01*
X69088000Y-77555659D01*
X69088001Y-77555659D01*
X69152681Y-77550000D01*
X69323408Y-77535063D01*
X69551663Y-77473903D01*
X69765830Y-77374035D01*
X69959401Y-77238495D01*
X70126495Y-77071401D01*
X70256425Y-76885842D01*
X70311002Y-76842217D01*
X70380500Y-76835023D01*
X70442855Y-76866546D01*
X70459575Y-76885842D01*
X70589500Y-77071395D01*
X70589505Y-77071401D01*
X70756599Y-77238495D01*
X70853384Y-77306265D01*
X70950165Y-77374032D01*
X70950167Y-77374033D01*
X70950170Y-77374035D01*
X71164337Y-77473903D01*
X71392592Y-77535063D01*
X71563319Y-77550000D01*
X71627999Y-77555659D01*
X71628000Y-77555659D01*
X71628001Y-77555659D01*
X71692681Y-77550000D01*
X71863408Y-77535063D01*
X72091663Y-77473903D01*
X72305830Y-77374035D01*
X72499401Y-77238495D01*
X72666495Y-77071401D01*
X72796425Y-76885842D01*
X72851002Y-76842217D01*
X72920500Y-76835023D01*
X72982855Y-76866546D01*
X72999575Y-76885842D01*
X73129500Y-77071395D01*
X73129505Y-77071401D01*
X73296599Y-77238495D01*
X73393384Y-77306265D01*
X73490165Y-77374032D01*
X73490167Y-77374033D01*
X73490170Y-77374035D01*
X73704337Y-77473903D01*
X73932592Y-77535063D01*
X74103319Y-77550000D01*
X74167999Y-77555659D01*
X74168000Y-77555659D01*
X74168001Y-77555659D01*
X74232681Y-77550000D01*
X74403408Y-77535063D01*
X74631663Y-77473903D01*
X74845830Y-77374035D01*
X75039401Y-77238495D01*
X75206495Y-77071401D01*
X75336425Y-76885842D01*
X75391002Y-76842217D01*
X75460500Y-76835023D01*
X75522855Y-76866546D01*
X75539575Y-76885842D01*
X75669500Y-77071395D01*
X75669505Y-77071401D01*
X75836599Y-77238495D01*
X75933384Y-77306265D01*
X76030165Y-77374032D01*
X76030167Y-77374033D01*
X76030170Y-77374035D01*
X76244337Y-77473903D01*
X76472592Y-77535063D01*
X76643319Y-77550000D01*
X76707999Y-77555659D01*
X76708000Y-77555659D01*
X76708001Y-77555659D01*
X76772681Y-77550000D01*
X76943408Y-77535063D01*
X77171663Y-77473903D01*
X77385830Y-77374035D01*
X77579401Y-77238495D01*
X77746495Y-77071401D01*
X77876425Y-76885842D01*
X77931002Y-76842217D01*
X78000500Y-76835023D01*
X78062855Y-76866546D01*
X78079575Y-76885842D01*
X78209500Y-77071395D01*
X78209505Y-77071401D01*
X78376599Y-77238495D01*
X78473384Y-77306265D01*
X78570165Y-77374032D01*
X78570167Y-77374033D01*
X78570170Y-77374035D01*
X78784337Y-77473903D01*
X79012592Y-77535063D01*
X79183319Y-77550000D01*
X79247999Y-77555659D01*
X79248000Y-77555659D01*
X79248001Y-77555659D01*
X79312681Y-77550000D01*
X79483408Y-77535063D01*
X79711663Y-77473903D01*
X79925830Y-77374035D01*
X80119401Y-77238495D01*
X80286495Y-77071401D01*
X80416425Y-76885842D01*
X80471002Y-76842217D01*
X80540500Y-76835023D01*
X80602855Y-76866546D01*
X80619575Y-76885842D01*
X80749500Y-77071395D01*
X80749505Y-77071401D01*
X80916599Y-77238495D01*
X81013384Y-77306265D01*
X81110165Y-77374032D01*
X81110167Y-77374033D01*
X81110170Y-77374035D01*
X81324337Y-77473903D01*
X81552592Y-77535063D01*
X81723319Y-77550000D01*
X81787999Y-77555659D01*
X81788000Y-77555659D01*
X81788001Y-77555659D01*
X81852681Y-77550000D01*
X82023408Y-77535063D01*
X82251663Y-77473903D01*
X82465830Y-77374035D01*
X82659401Y-77238495D01*
X82826495Y-77071401D01*
X82956425Y-76885842D01*
X83011002Y-76842217D01*
X83080500Y-76835023D01*
X83142855Y-76866546D01*
X83159575Y-76885842D01*
X83289500Y-77071395D01*
X83289505Y-77071401D01*
X83456599Y-77238495D01*
X83553384Y-77306265D01*
X83650165Y-77374032D01*
X83650167Y-77374033D01*
X83650170Y-77374035D01*
X83864337Y-77473903D01*
X84092592Y-77535063D01*
X84263319Y-77550000D01*
X84327999Y-77555659D01*
X84328000Y-77555659D01*
X84328001Y-77555659D01*
X84392681Y-77550000D01*
X84563408Y-77535063D01*
X84791663Y-77473903D01*
X85005830Y-77374035D01*
X85199401Y-77238495D01*
X85366495Y-77071401D01*
X85496425Y-76885842D01*
X85551002Y-76842217D01*
X85620500Y-76835023D01*
X85682855Y-76866546D01*
X85699575Y-76885842D01*
X85829500Y-77071395D01*
X85829505Y-77071401D01*
X85996599Y-77238495D01*
X86093384Y-77306265D01*
X86190165Y-77374032D01*
X86190167Y-77374033D01*
X86190170Y-77374035D01*
X86404337Y-77473903D01*
X86632592Y-77535063D01*
X86803319Y-77550000D01*
X86867999Y-77555659D01*
X86868000Y-77555659D01*
X86868001Y-77555659D01*
X86932681Y-77550000D01*
X87103408Y-77535063D01*
X87331663Y-77473903D01*
X87545830Y-77374035D01*
X87739401Y-77238495D01*
X87906495Y-77071401D01*
X88036425Y-76885842D01*
X88091002Y-76842217D01*
X88160500Y-76835023D01*
X88222855Y-76866546D01*
X88239575Y-76885842D01*
X88369500Y-77071395D01*
X88369505Y-77071401D01*
X88536599Y-77238495D01*
X88633384Y-77306265D01*
X88730165Y-77374032D01*
X88730167Y-77374033D01*
X88730170Y-77374035D01*
X88944337Y-77473903D01*
X89172592Y-77535063D01*
X89343319Y-77550000D01*
X89407999Y-77555659D01*
X89408000Y-77555659D01*
X89408001Y-77555659D01*
X89472681Y-77550000D01*
X89643408Y-77535063D01*
X89871663Y-77473903D01*
X90085830Y-77374035D01*
X90279401Y-77238495D01*
X90446495Y-77071401D01*
X90576425Y-76885842D01*
X90631002Y-76842217D01*
X90700500Y-76835023D01*
X90762855Y-76866546D01*
X90779575Y-76885842D01*
X90909500Y-77071395D01*
X90909505Y-77071401D01*
X91076599Y-77238495D01*
X91173384Y-77306265D01*
X91270165Y-77374032D01*
X91270167Y-77374033D01*
X91270170Y-77374035D01*
X91484337Y-77473903D01*
X91712592Y-77535063D01*
X91883319Y-77550000D01*
X91947999Y-77555659D01*
X91948000Y-77555659D01*
X91948001Y-77555659D01*
X92012681Y-77550000D01*
X92183408Y-77535063D01*
X92411663Y-77473903D01*
X92625830Y-77374035D01*
X92819401Y-77238495D01*
X92986495Y-77071401D01*
X93116425Y-76885842D01*
X93171002Y-76842217D01*
X93240500Y-76835023D01*
X93302855Y-76866546D01*
X93319575Y-76885842D01*
X93449500Y-77071395D01*
X93449505Y-77071401D01*
X93616599Y-77238495D01*
X93713384Y-77306265D01*
X93810165Y-77374032D01*
X93810167Y-77374033D01*
X93810170Y-77374035D01*
X94024337Y-77473903D01*
X94252592Y-77535063D01*
X94423319Y-77550000D01*
X94487999Y-77555659D01*
X94488000Y-77555659D01*
X94488001Y-77555659D01*
X94552681Y-77550000D01*
X94723408Y-77535063D01*
X94951663Y-77473903D01*
X95165830Y-77374035D01*
X95359401Y-77238495D01*
X95526495Y-77071401D01*
X95656425Y-76885842D01*
X95711002Y-76842217D01*
X95780500Y-76835023D01*
X95842855Y-76866546D01*
X95859575Y-76885842D01*
X95989500Y-77071395D01*
X95989505Y-77071401D01*
X96156599Y-77238495D01*
X96253384Y-77306265D01*
X96350165Y-77374032D01*
X96350167Y-77374033D01*
X96350170Y-77374035D01*
X96564337Y-77473903D01*
X96792592Y-77535063D01*
X96963319Y-77550000D01*
X97027999Y-77555659D01*
X97028000Y-77555659D01*
X97028001Y-77555659D01*
X97092681Y-77550000D01*
X97263408Y-77535063D01*
X97491663Y-77473903D01*
X97705830Y-77374035D01*
X97899401Y-77238495D01*
X98066495Y-77071401D01*
X98196425Y-76885842D01*
X98251002Y-76842217D01*
X98320500Y-76835023D01*
X98382855Y-76866546D01*
X98399575Y-76885842D01*
X98529500Y-77071395D01*
X98529505Y-77071401D01*
X98696599Y-77238495D01*
X98793384Y-77306265D01*
X98890165Y-77374032D01*
X98890167Y-77374033D01*
X98890170Y-77374035D01*
X99104337Y-77473903D01*
X99332592Y-77535063D01*
X99503319Y-77550000D01*
X99567999Y-77555659D01*
X99568000Y-77555659D01*
X99568001Y-77555659D01*
X99632681Y-77550000D01*
X99803408Y-77535063D01*
X100031663Y-77473903D01*
X100245830Y-77374035D01*
X100439401Y-77238495D01*
X100606495Y-77071401D01*
X100736425Y-76885842D01*
X100791002Y-76842217D01*
X100860500Y-76835023D01*
X100922855Y-76866546D01*
X100939575Y-76885842D01*
X101069500Y-77071395D01*
X101069505Y-77071401D01*
X101236599Y-77238495D01*
X101333384Y-77306265D01*
X101430165Y-77374032D01*
X101430167Y-77374033D01*
X101430170Y-77374035D01*
X101644337Y-77473903D01*
X101872592Y-77535063D01*
X102043319Y-77550000D01*
X102107999Y-77555659D01*
X102108000Y-77555659D01*
X102108001Y-77555659D01*
X102172681Y-77550000D01*
X102343408Y-77535063D01*
X102571663Y-77473903D01*
X102785830Y-77374035D01*
X102979401Y-77238495D01*
X103146495Y-77071401D01*
X103276425Y-76885842D01*
X103331002Y-76842217D01*
X103400500Y-76835023D01*
X103462855Y-76866546D01*
X103479575Y-76885842D01*
X103609500Y-77071395D01*
X103609505Y-77071401D01*
X103776599Y-77238495D01*
X103873384Y-77306265D01*
X103970165Y-77374032D01*
X103970167Y-77374033D01*
X103970170Y-77374035D01*
X104184337Y-77473903D01*
X104412592Y-77535063D01*
X104583319Y-77550000D01*
X104647999Y-77555659D01*
X104648000Y-77555659D01*
X104648001Y-77555659D01*
X104712681Y-77550000D01*
X104883408Y-77535063D01*
X105111663Y-77473903D01*
X105325830Y-77374035D01*
X105519401Y-77238495D01*
X105686495Y-77071401D01*
X105816425Y-76885842D01*
X105871002Y-76842217D01*
X105940500Y-76835023D01*
X106002855Y-76866546D01*
X106019575Y-76885842D01*
X106149500Y-77071395D01*
X106149505Y-77071401D01*
X106316599Y-77238495D01*
X106413384Y-77306265D01*
X106510165Y-77374032D01*
X106510167Y-77374033D01*
X106510170Y-77374035D01*
X106724337Y-77473903D01*
X106952592Y-77535063D01*
X107123319Y-77550000D01*
X107187999Y-77555659D01*
X107188000Y-77555659D01*
X107188001Y-77555659D01*
X107252681Y-77550000D01*
X107423408Y-77535063D01*
X107651663Y-77473903D01*
X107865830Y-77374035D01*
X108059401Y-77238495D01*
X108226495Y-77071401D01*
X108356425Y-76885842D01*
X108411002Y-76842217D01*
X108480500Y-76835023D01*
X108542855Y-76866546D01*
X108559575Y-76885842D01*
X108689500Y-77071395D01*
X108689505Y-77071401D01*
X108856599Y-77238495D01*
X108953384Y-77306265D01*
X109050165Y-77374032D01*
X109050167Y-77374033D01*
X109050170Y-77374035D01*
X109264337Y-77473903D01*
X109492592Y-77535063D01*
X109663319Y-77550000D01*
X109727999Y-77555659D01*
X109728000Y-77555659D01*
X109728001Y-77555659D01*
X109792681Y-77550000D01*
X109963408Y-77535063D01*
X110191663Y-77473903D01*
X110405830Y-77374035D01*
X110599401Y-77238495D01*
X110766495Y-77071401D01*
X110896425Y-76885842D01*
X110951002Y-76842217D01*
X111020500Y-76835023D01*
X111082855Y-76866546D01*
X111099575Y-76885842D01*
X111229500Y-77071395D01*
X111229505Y-77071401D01*
X111396599Y-77238495D01*
X111493384Y-77306265D01*
X111590165Y-77374032D01*
X111590167Y-77374033D01*
X111590170Y-77374035D01*
X111804337Y-77473903D01*
X112032592Y-77535063D01*
X112203319Y-77550000D01*
X112267999Y-77555659D01*
X112268000Y-77555659D01*
X112268001Y-77555659D01*
X112332681Y-77550000D01*
X112503408Y-77535063D01*
X112731663Y-77473903D01*
X112945830Y-77374035D01*
X113139401Y-77238495D01*
X113306495Y-77071401D01*
X113442035Y-76877830D01*
X113541903Y-76663663D01*
X113603063Y-76435408D01*
X113623659Y-76200000D01*
X113603063Y-75964592D01*
X113541903Y-75736337D01*
X113442035Y-75522171D01*
X113436425Y-75514158D01*
X113306494Y-75328597D01*
X113139402Y-75161506D01*
X113139395Y-75161501D01*
X112945834Y-75025967D01*
X112945830Y-75025965D01*
X112945828Y-75025964D01*
X112731663Y-74926097D01*
X112731659Y-74926096D01*
X112731655Y-74926094D01*
X112503413Y-74864938D01*
X112503403Y-74864936D01*
X112268001Y-74844341D01*
X112267999Y-74844341D01*
X112032596Y-74864936D01*
X112032586Y-74864938D01*
X111804344Y-74926094D01*
X111804335Y-74926098D01*
X111590171Y-75025964D01*
X111590169Y-75025965D01*
X111396597Y-75161505D01*
X111229505Y-75328597D01*
X111099575Y-75514158D01*
X111044998Y-75557783D01*
X110975500Y-75564977D01*
X110913145Y-75533454D01*
X110896425Y-75514158D01*
X110766494Y-75328597D01*
X110599402Y-75161506D01*
X110599395Y-75161501D01*
X110405834Y-75025967D01*
X110405830Y-75025965D01*
X110405828Y-75025964D01*
X110191663Y-74926097D01*
X110191659Y-74926096D01*
X110191655Y-74926094D01*
X109963413Y-74864938D01*
X109963403Y-74864936D01*
X109728001Y-74844341D01*
X109727999Y-74844341D01*
X109492596Y-74864936D01*
X109492586Y-74864938D01*
X109264344Y-74926094D01*
X109264335Y-74926098D01*
X109050171Y-75025964D01*
X109050169Y-75025965D01*
X108856597Y-75161505D01*
X108689505Y-75328597D01*
X108559575Y-75514158D01*
X108504998Y-75557783D01*
X108435500Y-75564977D01*
X108373145Y-75533454D01*
X108356425Y-75514158D01*
X108226494Y-75328597D01*
X108059402Y-75161506D01*
X108059395Y-75161501D01*
X107865834Y-75025967D01*
X107865830Y-75025965D01*
X107865828Y-75025964D01*
X107651663Y-74926097D01*
X107651659Y-74926096D01*
X107651655Y-74926094D01*
X107423413Y-74864938D01*
X107423403Y-74864936D01*
X107188001Y-74844341D01*
X107187999Y-74844341D01*
X106952596Y-74864936D01*
X106952586Y-74864938D01*
X106724344Y-74926094D01*
X106724335Y-74926098D01*
X106510171Y-75025964D01*
X106510169Y-75025965D01*
X106316597Y-75161505D01*
X106149505Y-75328597D01*
X106019575Y-75514158D01*
X105964998Y-75557783D01*
X105895500Y-75564977D01*
X105833145Y-75533454D01*
X105816425Y-75514158D01*
X105686494Y-75328597D01*
X105519402Y-75161506D01*
X105519395Y-75161501D01*
X105325834Y-75025967D01*
X105325830Y-75025965D01*
X105325828Y-75025964D01*
X105111663Y-74926097D01*
X105111659Y-74926096D01*
X105111655Y-74926094D01*
X104883413Y-74864938D01*
X104883403Y-74864936D01*
X104648001Y-74844341D01*
X104647999Y-74844341D01*
X104412596Y-74864936D01*
X104412586Y-74864938D01*
X104184344Y-74926094D01*
X104184335Y-74926098D01*
X103970171Y-75025964D01*
X103970169Y-75025965D01*
X103776597Y-75161505D01*
X103609505Y-75328597D01*
X103479575Y-75514158D01*
X103424998Y-75557783D01*
X103355500Y-75564977D01*
X103293145Y-75533454D01*
X103276425Y-75514158D01*
X103146494Y-75328597D01*
X102979402Y-75161506D01*
X102979395Y-75161501D01*
X102785834Y-75025967D01*
X102785830Y-75025965D01*
X102785828Y-75025964D01*
X102571663Y-74926097D01*
X102571659Y-74926096D01*
X102571655Y-74926094D01*
X102343413Y-74864938D01*
X102343403Y-74864936D01*
X102108001Y-74844341D01*
X102107999Y-74844341D01*
X101872596Y-74864936D01*
X101872586Y-74864938D01*
X101644344Y-74926094D01*
X101644335Y-74926098D01*
X101430171Y-75025964D01*
X101430169Y-75025965D01*
X101236597Y-75161505D01*
X101069505Y-75328597D01*
X100939575Y-75514158D01*
X100884998Y-75557783D01*
X100815500Y-75564977D01*
X100753145Y-75533454D01*
X100736425Y-75514158D01*
X100606494Y-75328597D01*
X100439402Y-75161506D01*
X100439395Y-75161501D01*
X100245834Y-75025967D01*
X100245830Y-75025965D01*
X100245828Y-75025964D01*
X100031663Y-74926097D01*
X100031659Y-74926096D01*
X100031655Y-74926094D01*
X99803413Y-74864938D01*
X99803403Y-74864936D01*
X99568001Y-74844341D01*
X99567999Y-74844341D01*
X99332596Y-74864936D01*
X99332586Y-74864938D01*
X99104344Y-74926094D01*
X99104335Y-74926098D01*
X98890171Y-75025964D01*
X98890169Y-75025965D01*
X98696597Y-75161505D01*
X98529505Y-75328597D01*
X98399575Y-75514158D01*
X98344998Y-75557783D01*
X98275500Y-75564977D01*
X98213145Y-75533454D01*
X98196425Y-75514158D01*
X98066494Y-75328597D01*
X97899402Y-75161506D01*
X97899395Y-75161501D01*
X97705831Y-75025965D01*
X97705829Y-75025964D01*
X97521881Y-74940187D01*
X97516985Y-74937771D01*
X97509085Y-74933654D01*
X97507196Y-74932835D01*
X97498611Y-74929336D01*
X97494397Y-74927372D01*
X97491664Y-74926097D01*
X97484843Y-74924269D01*
X97478876Y-74922670D01*
X97469910Y-74919899D01*
X96570471Y-74604140D01*
X96206100Y-74476222D01*
X96159493Y-74446903D01*
X89276589Y-67563999D01*
X98222341Y-67563999D01*
X98222341Y-67564000D01*
X98242936Y-67799403D01*
X98242938Y-67799413D01*
X98304094Y-68027655D01*
X98304096Y-68027659D01*
X98304097Y-68027663D01*
X98384004Y-68199023D01*
X98403965Y-68241830D01*
X98403967Y-68241834D01*
X98470033Y-68336185D01*
X98539505Y-68435401D01*
X98706599Y-68602495D01*
X98803384Y-68670265D01*
X98900165Y-68738032D01*
X98900167Y-68738033D01*
X98900170Y-68738035D01*
X99114337Y-68837903D01*
X99342592Y-68899063D01*
X99519034Y-68914500D01*
X99577999Y-68919659D01*
X99578000Y-68919659D01*
X99578001Y-68919659D01*
X99636966Y-68914500D01*
X99813408Y-68899063D01*
X100041663Y-68837903D01*
X100255830Y-68738035D01*
X100449401Y-68602495D01*
X100616495Y-68435401D01*
X100746425Y-68249842D01*
X100801002Y-68206217D01*
X100870500Y-68199023D01*
X100932855Y-68230546D01*
X100949575Y-68249842D01*
X101079500Y-68435395D01*
X101079505Y-68435401D01*
X101246599Y-68602495D01*
X101343384Y-68670265D01*
X101440165Y-68738032D01*
X101440167Y-68738033D01*
X101440170Y-68738035D01*
X101654337Y-68837903D01*
X101882592Y-68899063D01*
X102059034Y-68914500D01*
X102117999Y-68919659D01*
X102118000Y-68919659D01*
X102118001Y-68919659D01*
X102176966Y-68914500D01*
X102353408Y-68899063D01*
X102581663Y-68837903D01*
X102795830Y-68738035D01*
X102989401Y-68602495D01*
X103156495Y-68435401D01*
X103286425Y-68249842D01*
X103341002Y-68206217D01*
X103410500Y-68199023D01*
X103472855Y-68230546D01*
X103489575Y-68249842D01*
X103619500Y-68435395D01*
X103619505Y-68435401D01*
X103786599Y-68602495D01*
X103883384Y-68670265D01*
X103980165Y-68738032D01*
X103980167Y-68738033D01*
X103980170Y-68738035D01*
X104194337Y-68837903D01*
X104422592Y-68899063D01*
X104599034Y-68914500D01*
X104657999Y-68919659D01*
X104658000Y-68919659D01*
X104658001Y-68919659D01*
X104716966Y-68914500D01*
X104893408Y-68899063D01*
X105121663Y-68837903D01*
X105335830Y-68738035D01*
X105529401Y-68602495D01*
X105696495Y-68435401D01*
X105826425Y-68249842D01*
X105881002Y-68206217D01*
X105950500Y-68199023D01*
X106012855Y-68230546D01*
X106029575Y-68249842D01*
X106159500Y-68435395D01*
X106159505Y-68435401D01*
X106326599Y-68602495D01*
X106423384Y-68670265D01*
X106520165Y-68738032D01*
X106520167Y-68738033D01*
X106520170Y-68738035D01*
X106734337Y-68837903D01*
X106962592Y-68899063D01*
X107139034Y-68914500D01*
X107197999Y-68919659D01*
X107198000Y-68919659D01*
X107198001Y-68919659D01*
X107256966Y-68914500D01*
X107433408Y-68899063D01*
X107661663Y-68837903D01*
X107875830Y-68738035D01*
X108069401Y-68602495D01*
X108236495Y-68435401D01*
X108366730Y-68249405D01*
X108421307Y-68205781D01*
X108490805Y-68198587D01*
X108553160Y-68230110D01*
X108569879Y-68249405D01*
X108623072Y-68325372D01*
X108623073Y-68325372D01*
X109255037Y-67693408D01*
X109272075Y-67756993D01*
X109337901Y-67871007D01*
X109430993Y-67964099D01*
X109545007Y-68029925D01*
X109608591Y-68046962D01*
X108976626Y-68678926D01*
X109060417Y-68737598D01*
X109060421Y-68737600D01*
X109274507Y-68837429D01*
X109274516Y-68837433D01*
X109502673Y-68898567D01*
X109502684Y-68898569D01*
X109737998Y-68919157D01*
X109738002Y-68919157D01*
X109973315Y-68898569D01*
X109973326Y-68898567D01*
X110201483Y-68837433D01*
X110201492Y-68837429D01*
X110415580Y-68737599D01*
X110499371Y-68678925D01*
X109867408Y-68046962D01*
X109930993Y-68029925D01*
X110045007Y-67964099D01*
X110138099Y-67871007D01*
X110203925Y-67756993D01*
X110220962Y-67693408D01*
X110891181Y-68363627D01*
X110924666Y-68424950D01*
X110927500Y-68451299D01*
X110927500Y-68461865D01*
X110927501Y-68461876D01*
X110933908Y-68521483D01*
X110984202Y-68656328D01*
X110984206Y-68656335D01*
X111070452Y-68771544D01*
X111070455Y-68771547D01*
X111185664Y-68857793D01*
X111185671Y-68857797D01*
X111320517Y-68908091D01*
X111320516Y-68908091D01*
X111327444Y-68908835D01*
X111380127Y-68914500D01*
X113175872Y-68914499D01*
X113235483Y-68908091D01*
X113370331Y-68857796D01*
X113485546Y-68771546D01*
X113571796Y-68656331D01*
X113622091Y-68521483D01*
X113628500Y-68461873D01*
X113628499Y-66666128D01*
X113622091Y-66606517D01*
X113571796Y-66471669D01*
X113571795Y-66471668D01*
X113571793Y-66471664D01*
X113485547Y-66356455D01*
X113485544Y-66356452D01*
X113370335Y-66270206D01*
X113370328Y-66270202D01*
X113235482Y-66219908D01*
X113235483Y-66219908D01*
X113175883Y-66213501D01*
X113175881Y-66213500D01*
X113175873Y-66213500D01*
X113175864Y-66213500D01*
X111380129Y-66213500D01*
X111380123Y-66213501D01*
X111320516Y-66219908D01*
X111185671Y-66270202D01*
X111185664Y-66270206D01*
X111070455Y-66356452D01*
X111070452Y-66356455D01*
X110984206Y-66471664D01*
X110984202Y-66471671D01*
X110933908Y-66606517D01*
X110927501Y-66666116D01*
X110927501Y-66666123D01*
X110927500Y-66666135D01*
X110927500Y-66676690D01*
X110907815Y-66743729D01*
X110891181Y-66764371D01*
X110220962Y-67434590D01*
X110203925Y-67371007D01*
X110138099Y-67256993D01*
X110045007Y-67163901D01*
X109930993Y-67098075D01*
X109867409Y-67081037D01*
X110499372Y-66449073D01*
X110415576Y-66390398D01*
X110201492Y-66290570D01*
X110201483Y-66290566D01*
X109973326Y-66229432D01*
X109973315Y-66229430D01*
X109738002Y-66208843D01*
X109737998Y-66208843D01*
X109502684Y-66229430D01*
X109502673Y-66229432D01*
X109274516Y-66290566D01*
X109274507Y-66290570D01*
X109060423Y-66390399D01*
X109060421Y-66390400D01*
X108976627Y-66449073D01*
X108976626Y-66449073D01*
X109608591Y-67081037D01*
X109545007Y-67098075D01*
X109430993Y-67163901D01*
X109337901Y-67256993D01*
X109272075Y-67371007D01*
X109255037Y-67434590D01*
X108623073Y-66802626D01*
X108623072Y-66802627D01*
X108569880Y-66878595D01*
X108515303Y-66922220D01*
X108445805Y-66929414D01*
X108383450Y-66897891D01*
X108366730Y-66878595D01*
X108236494Y-66692597D01*
X108069402Y-66525506D01*
X108069395Y-66525501D01*
X107875834Y-66389967D01*
X107875830Y-66389965D01*
X107875828Y-66389964D01*
X107661663Y-66290097D01*
X107661659Y-66290096D01*
X107661655Y-66290094D01*
X107433413Y-66228938D01*
X107433403Y-66228936D01*
X107198001Y-66208341D01*
X107197999Y-66208341D01*
X106962596Y-66228936D01*
X106962586Y-66228938D01*
X106734344Y-66290094D01*
X106734335Y-66290098D01*
X106520171Y-66389964D01*
X106520169Y-66389965D01*
X106326597Y-66525505D01*
X106159505Y-66692597D01*
X106029575Y-66878158D01*
X105974998Y-66921783D01*
X105905500Y-66928977D01*
X105843145Y-66897454D01*
X105826425Y-66878158D01*
X105696494Y-66692597D01*
X105529402Y-66525506D01*
X105529395Y-66525501D01*
X105335834Y-66389967D01*
X105335830Y-66389965D01*
X105335828Y-66389964D01*
X105121663Y-66290097D01*
X105121659Y-66290096D01*
X105121655Y-66290094D01*
X104893413Y-66228938D01*
X104893403Y-66228936D01*
X104658001Y-66208341D01*
X104657999Y-66208341D01*
X104422596Y-66228936D01*
X104422586Y-66228938D01*
X104194344Y-66290094D01*
X104194335Y-66290098D01*
X103980171Y-66389964D01*
X103980169Y-66389965D01*
X103786597Y-66525505D01*
X103619505Y-66692597D01*
X103489575Y-66878158D01*
X103434998Y-66921783D01*
X103365500Y-66928977D01*
X103303145Y-66897454D01*
X103286425Y-66878158D01*
X103156494Y-66692597D01*
X102989402Y-66525506D01*
X102989395Y-66525501D01*
X102795834Y-66389967D01*
X102795830Y-66389965D01*
X102795828Y-66389964D01*
X102581663Y-66290097D01*
X102581659Y-66290096D01*
X102581655Y-66290094D01*
X102353413Y-66228938D01*
X102353403Y-66228936D01*
X102118001Y-66208341D01*
X102117999Y-66208341D01*
X101882596Y-66228936D01*
X101882586Y-66228938D01*
X101654344Y-66290094D01*
X101654335Y-66290098D01*
X101440171Y-66389964D01*
X101440169Y-66389965D01*
X101246597Y-66525505D01*
X101079505Y-66692597D01*
X100949575Y-66878158D01*
X100894998Y-66921783D01*
X100825500Y-66928977D01*
X100763145Y-66897454D01*
X100746425Y-66878158D01*
X100616494Y-66692597D01*
X100449402Y-66525506D01*
X100449395Y-66525501D01*
X100255834Y-66389967D01*
X100255830Y-66389965D01*
X100255828Y-66389964D01*
X100041663Y-66290097D01*
X100041659Y-66290096D01*
X100041655Y-66290094D01*
X99813413Y-66228938D01*
X99813403Y-66228936D01*
X99578001Y-66208341D01*
X99577999Y-66208341D01*
X99342596Y-66228936D01*
X99342586Y-66228938D01*
X99114344Y-66290094D01*
X99114335Y-66290098D01*
X98900171Y-66389964D01*
X98900169Y-66389965D01*
X98706597Y-66525505D01*
X98539505Y-66692597D01*
X98403965Y-66886169D01*
X98403964Y-66886171D01*
X98304098Y-67100335D01*
X98304094Y-67100344D01*
X98242938Y-67328586D01*
X98242936Y-67328596D01*
X98222341Y-67563999D01*
X89276589Y-67563999D01*
X87993198Y-66280608D01*
X87993178Y-66280586D01*
X87901736Y-66189144D01*
X87901728Y-66189138D01*
X87826534Y-66138895D01*
X87826533Y-66138894D01*
X87799290Y-66120690D01*
X87799286Y-66120688D01*
X87718792Y-66087347D01*
X87685453Y-66073537D01*
X87675427Y-66071543D01*
X87625029Y-66061518D01*
X87564610Y-66049500D01*
X87564607Y-66049500D01*
X87564606Y-66049500D01*
X67728074Y-66049500D01*
X67661035Y-66029815D01*
X67615280Y-65977011D01*
X67605336Y-65907853D01*
X67617074Y-65870228D01*
X67668224Y-65767504D01*
X67699617Y-65704459D01*
X67759235Y-65494923D01*
X67779336Y-65278000D01*
X67779238Y-65276940D01*
X67779336Y-65276439D01*
X67779336Y-65272267D01*
X67780152Y-65272267D01*
X67792653Y-65208371D01*
X67841011Y-65157939D01*
X67902709Y-65141500D01*
X70409607Y-65141500D01*
X70470029Y-65129481D01*
X70530452Y-65117463D01*
X70575448Y-65098824D01*
X70575451Y-65098824D01*
X70644281Y-65070314D01*
X70644280Y-65070314D01*
X70644286Y-65070312D01*
X70652685Y-65064699D01*
X70674400Y-65053124D01*
X72028825Y-64495827D01*
X72076008Y-64486499D01*
X72425871Y-64486499D01*
X72425872Y-64486499D01*
X72485483Y-64480091D01*
X72620331Y-64429796D01*
X72735546Y-64343546D01*
X72821796Y-64228331D01*
X72872091Y-64093483D01*
X72878500Y-64033873D01*
X72878499Y-63972860D01*
X72898183Y-63905824D01*
X72950986Y-63860068D01*
X73020144Y-63850124D01*
X73083700Y-63879148D01*
X73104073Y-63901738D01*
X73196596Y-64033873D01*
X73206402Y-64047877D01*
X73361123Y-64202598D01*
X73540361Y-64328102D01*
X73738670Y-64420575D01*
X73738676Y-64420576D01*
X73738677Y-64420577D01*
X73769364Y-64428799D01*
X73950023Y-64477207D01*
X74132926Y-64493208D01*
X74167998Y-64496277D01*
X74168000Y-64496277D01*
X74168002Y-64496277D01*
X74196254Y-64493805D01*
X74385977Y-64477207D01*
X74597330Y-64420575D01*
X74795639Y-64328102D01*
X74974877Y-64202598D01*
X75129598Y-64047877D01*
X75255102Y-63868639D01*
X75324452Y-63719916D01*
X75370624Y-63667477D01*
X75437817Y-63648325D01*
X75504699Y-63668541D01*
X75549216Y-63719916D01*
X75620897Y-63873638D01*
X75620898Y-63873639D01*
X75746402Y-64052877D01*
X75901123Y-64207598D01*
X76080361Y-64333102D01*
X76278670Y-64425575D01*
X76278676Y-64425576D01*
X76278677Y-64425577D01*
X76294471Y-64429809D01*
X76490023Y-64482207D01*
X76672926Y-64498208D01*
X76707998Y-64501277D01*
X76708000Y-64501277D01*
X76708002Y-64501277D01*
X76736254Y-64498805D01*
X76925977Y-64482207D01*
X77137330Y-64425575D01*
X77335639Y-64333102D01*
X77514877Y-64207598D01*
X77669598Y-64052877D01*
X77795102Y-63873639D01*
X77887575Y-63675330D01*
X77944207Y-63463977D01*
X77963277Y-63246000D01*
X77944207Y-63028023D01*
X77890955Y-62829285D01*
X77887577Y-62816677D01*
X77887576Y-62816676D01*
X77887575Y-62816670D01*
X77795102Y-62618362D01*
X77795099Y-62618358D01*
X77795099Y-62618357D01*
X77669599Y-62439124D01*
X77608989Y-62378514D01*
X77514877Y-62284402D01*
X77363875Y-62178669D01*
X77335638Y-62158897D01*
X77218971Y-62104495D01*
X77137330Y-62066425D01*
X77137326Y-62066424D01*
X77137322Y-62066422D01*
X76925977Y-62009793D01*
X76708002Y-61990723D01*
X76707998Y-61990723D01*
X76562682Y-62003436D01*
X76490023Y-62009793D01*
X76490020Y-62009793D01*
X76278677Y-62066422D01*
X76278668Y-62066426D01*
X76080361Y-62158898D01*
X76080357Y-62158900D01*
X75901121Y-62284402D01*
X75746402Y-62439121D01*
X75620900Y-62618357D01*
X75620900Y-62618358D01*
X75620898Y-62618361D01*
X75620898Y-62618362D01*
X75612265Y-62636876D01*
X75551547Y-62767084D01*
X75505374Y-62819523D01*
X75438180Y-62838674D01*
X75371299Y-62818458D01*
X75326784Y-62767084D01*
X75255102Y-62613362D01*
X75255100Y-62613359D01*
X75255099Y-62613357D01*
X75129599Y-62434124D01*
X75073989Y-62378514D01*
X74974877Y-62279402D01*
X74802780Y-62158898D01*
X74795638Y-62153897D01*
X74643042Y-62082741D01*
X74597330Y-62061425D01*
X74597326Y-62061424D01*
X74597322Y-62061422D01*
X74385977Y-62004793D01*
X74168002Y-61985723D01*
X74167998Y-61985723D01*
X74022682Y-61998436D01*
X73950023Y-62004793D01*
X73950020Y-62004793D01*
X73738677Y-62061422D01*
X73738668Y-62061426D01*
X73540361Y-62153898D01*
X73540357Y-62153900D01*
X73361121Y-62279402D01*
X73206402Y-62434121D01*
X73104074Y-62580262D01*
X73049497Y-62623887D01*
X72979999Y-62631081D01*
X72917644Y-62599558D01*
X72882230Y-62539328D01*
X72878499Y-62509139D01*
X72878499Y-62438129D01*
X72878498Y-62438123D01*
X72878497Y-62438116D01*
X72872091Y-62378517D01*
X72858762Y-62342781D01*
X72821797Y-62243671D01*
X72821793Y-62243664D01*
X72735547Y-62128455D01*
X72735544Y-62128452D01*
X72620335Y-62042206D01*
X72620328Y-62042202D01*
X72485482Y-61991908D01*
X72485483Y-61991908D01*
X72425883Y-61985501D01*
X72425881Y-61985500D01*
X72425873Y-61985500D01*
X72425864Y-61985500D01*
X70830129Y-61985500D01*
X70830123Y-61985501D01*
X70770516Y-61991908D01*
X70635671Y-62042202D01*
X70635664Y-62042206D01*
X70520455Y-62128452D01*
X70520452Y-62128455D01*
X70434206Y-62243664D01*
X70434202Y-62243671D01*
X70383908Y-62378517D01*
X70377930Y-62434123D01*
X70377501Y-62438123D01*
X70377500Y-62438135D01*
X70377500Y-62514138D01*
X70357815Y-62581177D01*
X70305011Y-62626932D01*
X70235853Y-62636876D01*
X70172297Y-62607851D01*
X70151925Y-62585261D01*
X70049599Y-62439124D01*
X69988989Y-62378514D01*
X69894877Y-62284402D01*
X69743875Y-62178669D01*
X69715638Y-62158897D01*
X69598971Y-62104495D01*
X69517330Y-62066425D01*
X69517326Y-62066424D01*
X69517322Y-62066422D01*
X69305977Y-62009793D01*
X69088002Y-61990723D01*
X69087998Y-61990723D01*
X68942682Y-62003436D01*
X68870023Y-62009793D01*
X68870020Y-62009793D01*
X68658677Y-62066422D01*
X68658668Y-62066426D01*
X68460361Y-62158898D01*
X68460357Y-62158900D01*
X68281121Y-62284402D01*
X68126402Y-62439121D01*
X68024074Y-62585262D01*
X67969497Y-62628887D01*
X67899999Y-62636081D01*
X67837644Y-62604558D01*
X67802230Y-62544328D01*
X67798499Y-62514139D01*
X67798499Y-62491822D01*
X67799282Y-62479433D01*
X67799258Y-62478001D01*
X67799259Y-62477998D01*
X67799258Y-62477994D01*
X67799153Y-62471562D01*
X67798499Y-62463367D01*
X67798499Y-62438129D01*
X67798498Y-62438123D01*
X67798497Y-62438116D01*
X67792091Y-62378517D01*
X67778762Y-62342781D01*
X67776560Y-62336345D01*
X67776434Y-62335940D01*
X67773770Y-62327392D01*
X67754942Y-62276699D01*
X67754939Y-62276695D01*
X67754064Y-62274899D01*
X67749333Y-62263878D01*
X67741796Y-62243669D01*
X67704617Y-62194006D01*
X67698311Y-62184735D01*
X67679500Y-62154184D01*
X67294268Y-61691905D01*
X67202241Y-61581473D01*
X67174445Y-61517370D01*
X67173500Y-61502090D01*
X67173500Y-59257747D01*
X67185725Y-59204060D01*
X67205554Y-59162778D01*
X67709962Y-58112615D01*
X67756731Y-58060708D01*
X67824140Y-58042326D01*
X67890785Y-58063306D01*
X67923312Y-58095179D01*
X68049505Y-58275401D01*
X68216599Y-58442495D01*
X68309813Y-58507764D01*
X68410165Y-58578032D01*
X68410167Y-58578033D01*
X68410170Y-58578035D01*
X68624337Y-58677903D01*
X68852592Y-58739063D01*
X69023319Y-58754000D01*
X69087999Y-58759659D01*
X69088000Y-58759659D01*
X69088001Y-58759659D01*
X69152681Y-58754000D01*
X69323408Y-58739063D01*
X69551663Y-58677903D01*
X69765830Y-58578035D01*
X69959401Y-58442495D01*
X70081717Y-58320178D01*
X70143036Y-58286696D01*
X70212728Y-58291680D01*
X70268662Y-58333551D01*
X70285576Y-58364527D01*
X70293275Y-58385170D01*
X70293277Y-58385170D01*
X71136872Y-57541575D01*
X71152755Y-57600853D01*
X71219898Y-57717147D01*
X71314853Y-57812102D01*
X71431147Y-57879245D01*
X71490422Y-57895127D01*
X70646828Y-58738721D01*
X70646829Y-58738722D01*
X70670623Y-58747597D01*
X70670627Y-58747598D01*
X70730155Y-58753999D01*
X70730172Y-58754000D01*
X72525828Y-58754000D01*
X72525844Y-58753999D01*
X72585376Y-58747598D01*
X72585377Y-58747597D01*
X72609170Y-58738722D01*
X72609170Y-58738720D01*
X71765576Y-57895127D01*
X71824853Y-57879245D01*
X71941147Y-57812102D01*
X72036102Y-57717147D01*
X72103245Y-57600853D01*
X72119128Y-57541575D01*
X72962722Y-58385169D01*
X72970421Y-58364528D01*
X73012292Y-58308594D01*
X73077757Y-58284177D01*
X73146029Y-58299029D01*
X73174284Y-58320180D01*
X73296599Y-58442495D01*
X73389813Y-58507764D01*
X73490165Y-58578032D01*
X73490167Y-58578033D01*
X73490170Y-58578035D01*
X73704337Y-58677903D01*
X73932592Y-58739063D01*
X74103319Y-58754000D01*
X74167999Y-58759659D01*
X74168000Y-58759659D01*
X74168001Y-58759659D01*
X74232681Y-58754000D01*
X74403408Y-58739063D01*
X74631663Y-58677903D01*
X74845830Y-58578035D01*
X75039401Y-58442495D01*
X75206495Y-58275401D01*
X75336425Y-58089842D01*
X75391002Y-58046217D01*
X75460500Y-58039023D01*
X75522855Y-58070546D01*
X75539575Y-58089842D01*
X75669500Y-58275395D01*
X75669505Y-58275401D01*
X75836599Y-58442495D01*
X75929813Y-58507764D01*
X76030165Y-58578032D01*
X76030167Y-58578033D01*
X76030170Y-58578035D01*
X76244337Y-58677903D01*
X76472592Y-58739063D01*
X76643319Y-58754000D01*
X76707999Y-58759659D01*
X76708000Y-58759659D01*
X76708001Y-58759659D01*
X76772681Y-58754000D01*
X76943408Y-58739063D01*
X77171663Y-58677903D01*
X77385830Y-58578035D01*
X77579401Y-58442495D01*
X77746495Y-58275401D01*
X77876425Y-58089842D01*
X77931002Y-58046217D01*
X78000500Y-58039023D01*
X78062855Y-58070546D01*
X78079575Y-58089842D01*
X78209500Y-58275395D01*
X78209505Y-58275401D01*
X78376599Y-58442495D01*
X78469813Y-58507764D01*
X78570165Y-58578032D01*
X78570167Y-58578033D01*
X78570170Y-58578035D01*
X78784337Y-58677903D01*
X79012592Y-58739063D01*
X79183319Y-58754000D01*
X79247999Y-58759659D01*
X79248000Y-58759659D01*
X79248001Y-58759659D01*
X79312681Y-58754000D01*
X79483408Y-58739063D01*
X79711663Y-58677903D01*
X79925830Y-58578035D01*
X80119401Y-58442495D01*
X80286495Y-58275401D01*
X80416425Y-58089842D01*
X80471002Y-58046217D01*
X80540500Y-58039023D01*
X80602855Y-58070546D01*
X80619575Y-58089842D01*
X80749500Y-58275395D01*
X80749505Y-58275401D01*
X80916599Y-58442495D01*
X81009813Y-58507764D01*
X81110165Y-58578032D01*
X81110167Y-58578033D01*
X81110170Y-58578035D01*
X81324337Y-58677903D01*
X81552592Y-58739063D01*
X81723319Y-58754000D01*
X81787999Y-58759659D01*
X81788000Y-58759659D01*
X81788001Y-58759659D01*
X81852681Y-58754000D01*
X82023408Y-58739063D01*
X82251663Y-58677903D01*
X82256105Y-58675831D01*
X82325179Y-58665337D01*
X82388964Y-58693854D01*
X82427206Y-58752329D01*
X82432512Y-58788212D01*
X82432512Y-62571753D01*
X82424501Y-62615599D01*
X82219618Y-63157586D01*
X82205430Y-63200937D01*
X82204992Y-63204336D01*
X82199944Y-63226770D01*
X82172340Y-63311729D01*
X82172339Y-63311734D01*
X82172338Y-63311736D01*
X82152552Y-63499992D01*
X82172338Y-63688248D01*
X82172339Y-63688251D01*
X82230830Y-63868269D01*
X82230833Y-63868276D01*
X82325479Y-64032208D01*
X82452141Y-64172880D01*
X82605277Y-64284140D01*
X82605282Y-64284143D01*
X82778204Y-64361134D01*
X82778209Y-64361136D01*
X82963366Y-64400492D01*
X82963367Y-64400492D01*
X83152656Y-64400492D01*
X83152658Y-64400492D01*
X83337815Y-64361136D01*
X83510742Y-64284143D01*
X83663883Y-64172880D01*
X83790545Y-64032208D01*
X83885191Y-63868276D01*
X83943686Y-63688248D01*
X83963472Y-63499992D01*
X83943686Y-63311736D01*
X83904297Y-63190513D01*
X83901183Y-63179097D01*
X83896406Y-63157592D01*
X83691522Y-62615599D01*
X83683512Y-62571756D01*
X83683512Y-58788223D01*
X83703197Y-58721184D01*
X83756001Y-58675429D01*
X83825159Y-58665485D01*
X83859917Y-58675841D01*
X83864337Y-58677903D01*
X84092592Y-58739063D01*
X84263319Y-58754000D01*
X84327999Y-58759659D01*
X84328000Y-58759659D01*
X84328001Y-58759659D01*
X84392681Y-58754000D01*
X84563408Y-58739063D01*
X84753774Y-58688055D01*
X84823624Y-58689718D01*
X84881486Y-58728881D01*
X84908990Y-58793109D01*
X84901856Y-58851676D01*
X84810406Y-59093594D01*
X84796218Y-59136945D01*
X84795780Y-59140344D01*
X84790732Y-59162778D01*
X84763128Y-59247737D01*
X84763126Y-59247743D01*
X84758642Y-59290403D01*
X84743340Y-59436000D01*
X84763126Y-59624256D01*
X84763127Y-59624259D01*
X84821618Y-59804277D01*
X84821621Y-59804284D01*
X84916267Y-59968216D01*
X84988398Y-60048325D01*
X85042929Y-60108888D01*
X85196065Y-60220148D01*
X85196070Y-60220151D01*
X85368992Y-60297142D01*
X85368997Y-60297144D01*
X85554154Y-60336500D01*
X85554155Y-60336500D01*
X85743444Y-60336500D01*
X85743446Y-60336500D01*
X85928603Y-60297144D01*
X86101530Y-60220151D01*
X86254671Y-60108888D01*
X86381333Y-59968216D01*
X86475979Y-59804284D01*
X86534474Y-59624256D01*
X86554260Y-59436000D01*
X86534474Y-59247744D01*
X86495085Y-59126521D01*
X86491971Y-59115105D01*
X86487194Y-59093600D01*
X86282311Y-58551610D01*
X86274300Y-58507764D01*
X86274300Y-41274999D01*
X97831341Y-41274999D01*
X97831341Y-41275000D01*
X97851936Y-41510403D01*
X97851938Y-41510413D01*
X97913094Y-41738655D01*
X97913096Y-41738659D01*
X97913097Y-41738663D01*
X98012965Y-41952830D01*
X98012967Y-41952834D01*
X98148501Y-42146395D01*
X98148506Y-42146402D01*
X98315597Y-42313493D01*
X98315603Y-42313498D01*
X98501158Y-42443425D01*
X98544783Y-42498002D01*
X98551977Y-42567500D01*
X98520454Y-42629855D01*
X98501158Y-42646575D01*
X98315597Y-42776505D01*
X98148505Y-42943597D01*
X98012965Y-43137169D01*
X98012964Y-43137171D01*
X97913098Y-43351335D01*
X97913094Y-43351344D01*
X97851938Y-43579586D01*
X97851936Y-43579596D01*
X97831341Y-43814999D01*
X97831341Y-43815000D01*
X97851936Y-44050403D01*
X97851938Y-44050413D01*
X97913094Y-44278655D01*
X97913096Y-44278659D01*
X97913097Y-44278663D01*
X98012965Y-44492830D01*
X98012967Y-44492834D01*
X98148501Y-44686395D01*
X98148506Y-44686402D01*
X98315597Y-44853493D01*
X98315603Y-44853498D01*
X98501158Y-44983425D01*
X98544783Y-45038002D01*
X98551977Y-45107500D01*
X98520454Y-45169855D01*
X98501158Y-45186575D01*
X98315597Y-45316505D01*
X98148505Y-45483597D01*
X98012965Y-45677169D01*
X98012964Y-45677171D01*
X97913098Y-45891335D01*
X97913094Y-45891344D01*
X97851938Y-46119586D01*
X97851936Y-46119596D01*
X97831341Y-46354999D01*
X97831341Y-46355000D01*
X97851936Y-46590403D01*
X97851938Y-46590413D01*
X97913094Y-46818655D01*
X97913096Y-46818659D01*
X97913097Y-46818663D01*
X98012965Y-47032830D01*
X98012967Y-47032834D01*
X98148501Y-47226395D01*
X98148506Y-47226402D01*
X98315597Y-47393493D01*
X98315603Y-47393498D01*
X98501158Y-47523425D01*
X98544783Y-47578002D01*
X98551977Y-47647500D01*
X98520454Y-47709855D01*
X98501158Y-47726575D01*
X98315597Y-47856505D01*
X98148505Y-48023597D01*
X98012965Y-48217169D01*
X98012964Y-48217171D01*
X97913098Y-48431335D01*
X97913094Y-48431344D01*
X97851938Y-48659586D01*
X97851936Y-48659596D01*
X97831341Y-48894999D01*
X97831341Y-48895000D01*
X97851936Y-49130403D01*
X97851938Y-49130413D01*
X97913094Y-49358655D01*
X97913096Y-49358659D01*
X97913097Y-49358663D01*
X98012965Y-49572830D01*
X98012967Y-49572834D01*
X98148501Y-49766395D01*
X98148506Y-49766402D01*
X98315597Y-49933493D01*
X98315603Y-49933498D01*
X98501158Y-50063425D01*
X98544783Y-50118002D01*
X98551977Y-50187500D01*
X98520454Y-50249855D01*
X98501158Y-50266575D01*
X98315597Y-50396505D01*
X98148505Y-50563597D01*
X98012965Y-50757169D01*
X98012964Y-50757171D01*
X97913098Y-50971335D01*
X97913094Y-50971344D01*
X97851938Y-51199586D01*
X97851936Y-51199596D01*
X97831341Y-51434999D01*
X97831341Y-51435000D01*
X97851936Y-51670403D01*
X97851938Y-51670413D01*
X97913094Y-51898655D01*
X97913096Y-51898659D01*
X97913097Y-51898663D01*
X97969304Y-52019199D01*
X98012965Y-52112830D01*
X98012967Y-52112834D01*
X98148501Y-52306395D01*
X98148506Y-52306402D01*
X98315597Y-52473493D01*
X98315603Y-52473498D01*
X98501594Y-52603730D01*
X98545219Y-52658307D01*
X98552413Y-52727805D01*
X98520890Y-52790160D01*
X98501595Y-52806880D01*
X98315922Y-52936890D01*
X98315920Y-52936891D01*
X98148891Y-53103920D01*
X98148886Y-53103926D01*
X98013400Y-53297420D01*
X98013399Y-53297422D01*
X97913570Y-53511507D01*
X97913567Y-53511513D01*
X97856364Y-53724999D01*
X97856364Y-53725000D01*
X98753988Y-53725000D01*
X98721075Y-53782007D01*
X98687000Y-53909174D01*
X98687000Y-54040826D01*
X98721075Y-54167993D01*
X98753988Y-54225000D01*
X97856364Y-54225000D01*
X97913567Y-54438486D01*
X97913570Y-54438492D01*
X98013399Y-54652578D01*
X98148894Y-54846082D01*
X98315917Y-55013105D01*
X98501595Y-55143119D01*
X98545219Y-55197696D01*
X98552412Y-55267195D01*
X98520890Y-55329549D01*
X98501595Y-55346269D01*
X98315594Y-55476508D01*
X98148505Y-55643597D01*
X98012965Y-55837169D01*
X98012964Y-55837171D01*
X97913098Y-56051335D01*
X97913094Y-56051344D01*
X97851938Y-56279586D01*
X97851936Y-56279596D01*
X97831341Y-56514999D01*
X97831341Y-56515000D01*
X97851936Y-56750403D01*
X97851938Y-56750413D01*
X97913094Y-56978655D01*
X97913096Y-56978659D01*
X97913097Y-56978663D01*
X98012965Y-57192830D01*
X98012967Y-57192834D01*
X98105195Y-57324548D01*
X98139000Y-57372827D01*
X98148501Y-57386395D01*
X98148506Y-57386402D01*
X98315597Y-57553493D01*
X98315603Y-57553498D01*
X98501158Y-57683425D01*
X98544783Y-57738002D01*
X98551977Y-57807500D01*
X98520454Y-57869855D01*
X98501158Y-57886575D01*
X98315597Y-58016505D01*
X98148505Y-58183597D01*
X98012965Y-58377169D01*
X98012964Y-58377171D01*
X97913098Y-58591335D01*
X97913094Y-58591344D01*
X97851938Y-58819586D01*
X97851936Y-58819596D01*
X97831341Y-59054999D01*
X97831341Y-59055000D01*
X97851936Y-59290403D01*
X97851938Y-59290413D01*
X97913094Y-59518655D01*
X97913096Y-59518659D01*
X97913097Y-59518663D01*
X98012965Y-59732830D01*
X98012967Y-59732834D01*
X98121281Y-59887521D01*
X98148501Y-59926396D01*
X98148506Y-59926402D01*
X98270430Y-60048326D01*
X98303915Y-60109649D01*
X98298931Y-60179341D01*
X98257059Y-60235274D01*
X98226083Y-60252189D01*
X98094669Y-60301203D01*
X98094664Y-60301206D01*
X97979455Y-60387452D01*
X97979452Y-60387455D01*
X97893206Y-60502664D01*
X97893202Y-60502671D01*
X97842908Y-60637517D01*
X97836501Y-60697116D01*
X97836501Y-60697123D01*
X97836500Y-60697135D01*
X97836500Y-62492870D01*
X97836501Y-62492876D01*
X97842908Y-62552483D01*
X97893202Y-62687328D01*
X97893206Y-62687335D01*
X97979452Y-62802544D01*
X97979455Y-62802547D01*
X98094664Y-62888793D01*
X98094671Y-62888797D01*
X98229517Y-62939091D01*
X98229516Y-62939091D01*
X98236444Y-62939835D01*
X98289127Y-62945500D01*
X100084872Y-62945499D01*
X100144483Y-62939091D01*
X100279331Y-62888796D01*
X100394546Y-62802546D01*
X100480796Y-62687331D01*
X100531091Y-62552483D01*
X100537500Y-62492873D01*
X100537499Y-60697128D01*
X100531091Y-60637517D01*
X100480796Y-60502669D01*
X100480795Y-60502668D01*
X100480793Y-60502664D01*
X100394547Y-60387455D01*
X100394544Y-60387452D01*
X100279335Y-60301206D01*
X100279328Y-60301202D01*
X100147917Y-60252189D01*
X100091983Y-60210318D01*
X100067566Y-60144853D01*
X100082418Y-60076580D01*
X100103563Y-60048332D01*
X100225495Y-59926401D01*
X100361035Y-59732830D01*
X100460903Y-59518663D01*
X100522063Y-59290408D01*
X100542659Y-59055000D01*
X100522063Y-58819592D01*
X100460903Y-58591337D01*
X100361035Y-58377171D01*
X100352183Y-58364528D01*
X100225494Y-58183597D01*
X100058402Y-58016506D01*
X100058401Y-58016505D01*
X99878179Y-57890312D01*
X99834555Y-57835735D01*
X99827362Y-57766236D01*
X99858884Y-57703882D01*
X99895616Y-57676962D01*
X99973803Y-57639408D01*
X100987062Y-57152725D01*
X101040749Y-57140500D01*
X111117177Y-57140500D01*
X111165248Y-57150196D01*
X111691136Y-57371369D01*
X111694639Y-57372827D01*
X111694673Y-57372841D01*
X111694679Y-57372843D01*
X111694678Y-57372843D01*
X111722607Y-57382699D01*
X111743589Y-57390104D01*
X111748163Y-57391718D01*
X111757315Y-57395363D01*
X111771197Y-57401544D01*
X111771200Y-57401544D01*
X111771201Y-57401545D01*
X111847739Y-57417813D01*
X111956354Y-57440900D01*
X111956355Y-57440900D01*
X112145644Y-57440900D01*
X112145646Y-57440900D01*
X112330803Y-57401544D01*
X112503730Y-57324551D01*
X112656871Y-57213288D01*
X112783533Y-57072616D01*
X112878179Y-56908684D01*
X112936674Y-56728656D01*
X112956460Y-56540400D01*
X112936674Y-56352144D01*
X112878179Y-56172116D01*
X112783533Y-56008184D01*
X112656871Y-55867512D01*
X112656870Y-55867511D01*
X112503734Y-55756251D01*
X112503729Y-55756248D01*
X112330807Y-55679257D01*
X112330802Y-55679255D01*
X112185001Y-55648265D01*
X112145646Y-55639900D01*
X111956354Y-55639900D01*
X111906375Y-55650523D01*
X111771199Y-55679255D01*
X111771195Y-55679256D01*
X111753681Y-55687053D01*
X111726233Y-55695621D01*
X111724250Y-55695994D01*
X111724238Y-55695998D01*
X111724233Y-55695999D01*
X111724231Y-55696000D01*
X111310755Y-55837171D01*
X111176968Y-55882849D01*
X111136902Y-55889500D01*
X101040749Y-55889500D01*
X100987062Y-55877275D01*
X99895099Y-55352788D01*
X99843191Y-55306019D01*
X99824809Y-55238610D01*
X99845789Y-55171965D01*
X99877662Y-55139438D01*
X100058082Y-55013105D01*
X100225105Y-54846082D01*
X100360600Y-54652578D01*
X100460429Y-54438492D01*
X100460432Y-54438486D01*
X100517636Y-54225000D01*
X99620012Y-54225000D01*
X99652925Y-54167993D01*
X99687000Y-54040826D01*
X99687000Y-53909174D01*
X99652925Y-53782007D01*
X99620012Y-53725000D01*
X100517636Y-53725000D01*
X100517635Y-53724999D01*
X100460432Y-53511513D01*
X100460429Y-53511507D01*
X100360600Y-53297422D01*
X100360599Y-53297420D01*
X100225113Y-53103926D01*
X100225108Y-53103920D01*
X100058078Y-52936890D01*
X99872405Y-52806879D01*
X99828780Y-52752302D01*
X99821588Y-52682804D01*
X99853110Y-52620449D01*
X99872406Y-52603730D01*
X100058401Y-52473495D01*
X100225495Y-52306401D01*
X100361035Y-52112830D01*
X100460903Y-51898663D01*
X100522063Y-51670408D01*
X100542659Y-51435000D01*
X100522063Y-51199592D01*
X100460903Y-50971337D01*
X100361035Y-50757171D01*
X100225495Y-50563599D01*
X100225494Y-50563597D01*
X100058402Y-50396506D01*
X100058396Y-50396501D01*
X99872842Y-50266575D01*
X99829217Y-50211998D01*
X99822023Y-50142500D01*
X99853546Y-50080145D01*
X99872842Y-50063425D01*
X99895026Y-50047891D01*
X100058401Y-49933495D01*
X100225495Y-49766401D01*
X100361035Y-49572830D01*
X100460903Y-49358663D01*
X100522063Y-49130408D01*
X100542659Y-48895000D01*
X100522063Y-48659592D01*
X100460903Y-48431337D01*
X100361035Y-48217171D01*
X100230958Y-48031400D01*
X100225494Y-48023597D01*
X100058402Y-47856506D01*
X100058396Y-47856501D01*
X99872842Y-47726575D01*
X99829217Y-47671998D01*
X99822023Y-47602500D01*
X99853546Y-47540145D01*
X99872842Y-47523425D01*
X99895026Y-47507891D01*
X100058401Y-47393495D01*
X100225495Y-47226401D01*
X100361035Y-47032830D01*
X100460903Y-46818663D01*
X100522063Y-46590408D01*
X100542659Y-46355000D01*
X100522063Y-46119592D01*
X100460903Y-45891337D01*
X100361035Y-45677171D01*
X100225495Y-45483599D01*
X100225494Y-45483597D01*
X100058402Y-45316506D01*
X100058396Y-45316501D01*
X99872842Y-45186575D01*
X99829217Y-45131998D01*
X99822023Y-45062500D01*
X99853546Y-45000145D01*
X99872842Y-44983425D01*
X99895026Y-44967891D01*
X100058401Y-44853495D01*
X100225495Y-44686401D01*
X100361035Y-44492830D01*
X100460903Y-44278663D01*
X100522063Y-44050408D01*
X100542659Y-43815000D01*
X100522063Y-43579592D01*
X100460903Y-43351337D01*
X100361035Y-43137171D01*
X100225495Y-42943599D01*
X100225494Y-42943597D01*
X100058402Y-42776506D01*
X100058396Y-42776501D01*
X99872842Y-42646575D01*
X99829217Y-42591998D01*
X99822023Y-42522500D01*
X99853546Y-42460145D01*
X99872842Y-42443425D01*
X99895026Y-42427891D01*
X100058401Y-42313495D01*
X100225495Y-42146401D01*
X100361035Y-41952830D01*
X100460903Y-41738663D01*
X100522063Y-41510408D01*
X100542659Y-41275000D01*
X100522063Y-41039592D01*
X100460903Y-40811337D01*
X100361035Y-40597171D01*
X100352183Y-40584528D01*
X100225494Y-40403597D01*
X100058402Y-40236506D01*
X100058395Y-40236501D01*
X99864834Y-40100967D01*
X99864830Y-40100965D01*
X99836287Y-40087655D01*
X99650663Y-40001097D01*
X99650659Y-40001096D01*
X99650655Y-40001094D01*
X99422413Y-39939938D01*
X99422403Y-39939936D01*
X99187001Y-39919341D01*
X99186999Y-39919341D01*
X98951596Y-39939936D01*
X98951586Y-39939938D01*
X98723344Y-40001094D01*
X98723335Y-40001098D01*
X98509171Y-40100964D01*
X98509169Y-40100965D01*
X98315597Y-40236505D01*
X98148505Y-40403597D01*
X98012965Y-40597169D01*
X98012964Y-40597171D01*
X97913098Y-40811335D01*
X97913094Y-40811344D01*
X97851938Y-41039586D01*
X97851936Y-41039596D01*
X97831341Y-41274999D01*
X86274300Y-41274999D01*
X86274300Y-40883193D01*
X86274299Y-40883189D01*
X86260071Y-40811658D01*
X86250263Y-40762348D01*
X86203111Y-40648514D01*
X86203110Y-40648513D01*
X86203107Y-40648507D01*
X86134658Y-40546067D01*
X86134655Y-40546063D01*
X86081095Y-40492504D01*
X86051775Y-40445896D01*
X86036925Y-40403597D01*
X85608101Y-39182095D01*
X85605328Y-39173121D01*
X85601903Y-39160337D01*
X85598659Y-39153380D01*
X85594597Y-39143600D01*
X85589721Y-39130282D01*
X85589479Y-39129648D01*
X85561095Y-39068005D01*
X85557768Y-39062410D01*
X85557996Y-39062273D01*
X85549720Y-39048431D01*
X85502035Y-38946171D01*
X85502034Y-38946169D01*
X85366494Y-38752597D01*
X85199402Y-38585506D01*
X85199395Y-38585501D01*
X85005834Y-38449967D01*
X85005830Y-38449965D01*
X85005828Y-38449964D01*
X84791663Y-38350097D01*
X84791659Y-38350096D01*
X84791655Y-38350094D01*
X84563413Y-38288938D01*
X84563403Y-38288936D01*
X84328001Y-38268341D01*
X84327999Y-38268341D01*
X84092596Y-38288936D01*
X84092586Y-38288938D01*
X83864344Y-38350094D01*
X83864335Y-38350098D01*
X83650171Y-38449964D01*
X83650169Y-38449965D01*
X83456597Y-38585505D01*
X83289505Y-38752597D01*
X83159575Y-38938158D01*
X83104998Y-38981783D01*
X83035500Y-38988977D01*
X82973145Y-38957454D01*
X82956425Y-38938158D01*
X82826494Y-38752597D01*
X82659402Y-38585506D01*
X82659395Y-38585501D01*
X82465834Y-38449967D01*
X82465830Y-38449965D01*
X82465828Y-38449964D01*
X82251663Y-38350097D01*
X82251659Y-38350096D01*
X82251655Y-38350094D01*
X82023413Y-38288938D01*
X82023403Y-38288936D01*
X81788001Y-38268341D01*
X81787999Y-38268341D01*
X81552596Y-38288936D01*
X81552586Y-38288938D01*
X81324344Y-38350094D01*
X81324335Y-38350098D01*
X81110171Y-38449964D01*
X81110169Y-38449965D01*
X80916597Y-38585505D01*
X80749505Y-38752597D01*
X80623313Y-38932820D01*
X80568736Y-38976445D01*
X80499238Y-38983639D01*
X80436883Y-38952116D01*
X80409963Y-38915384D01*
X79885725Y-37823937D01*
X79873500Y-37770250D01*
X79873500Y-36590593D01*
X79873499Y-36590589D01*
X79849463Y-36469748D01*
X79802311Y-36355914D01*
X79802310Y-36355913D01*
X79802307Y-36355907D01*
X79733859Y-36253468D01*
X79733858Y-36253467D01*
X79646733Y-36166342D01*
X79646732Y-36166341D01*
X79059719Y-35579328D01*
X79026234Y-35518005D01*
X79023400Y-35491647D01*
X79023400Y-34570612D01*
X79080407Y-34603525D01*
X79207574Y-34637600D01*
X79339226Y-34637600D01*
X79466393Y-34603525D01*
X79523400Y-34570612D01*
X79523400Y-35468233D01*
X79736883Y-35411033D01*
X79736892Y-35411029D01*
X79950978Y-35311200D01*
X80144482Y-35175705D01*
X80311505Y-35008682D01*
X80447000Y-34815178D01*
X80546829Y-34601092D01*
X80546832Y-34601086D01*
X80604036Y-34387600D01*
X79706412Y-34387600D01*
X79739325Y-34330593D01*
X79773400Y-34203426D01*
X79773400Y-34071774D01*
X79739325Y-33944607D01*
X79706412Y-33887600D01*
X80604036Y-33887600D01*
X80604035Y-33887599D01*
X80546832Y-33674113D01*
X80546829Y-33674107D01*
X80447000Y-33460022D01*
X80446999Y-33460020D01*
X80311513Y-33266526D01*
X80311508Y-33266520D01*
X80144482Y-33099494D01*
X79950978Y-32963999D01*
X79736892Y-32864170D01*
X79736886Y-32864167D01*
X79523400Y-32806964D01*
X79523400Y-33704588D01*
X79466393Y-33671675D01*
X79339226Y-33637600D01*
X79207574Y-33637600D01*
X79080407Y-33671675D01*
X79023400Y-33704588D01*
X79023400Y-32806964D01*
X79023399Y-32806964D01*
X78809913Y-32864167D01*
X78809907Y-32864170D01*
X78595822Y-32963999D01*
X78595820Y-32964000D01*
X78402326Y-33099486D01*
X78402320Y-33099491D01*
X78235291Y-33266520D01*
X78235290Y-33266522D01*
X78105280Y-33452195D01*
X78050703Y-33495819D01*
X77981204Y-33503012D01*
X77918850Y-33471490D01*
X77902130Y-33452194D01*
X77771894Y-33266197D01*
X77604802Y-33099106D01*
X77604795Y-33099101D01*
X77411234Y-32963567D01*
X77411230Y-32963565D01*
X77411228Y-32963564D01*
X77197063Y-32863697D01*
X77197059Y-32863696D01*
X77197055Y-32863694D01*
X76968813Y-32802538D01*
X76968803Y-32802536D01*
X76733401Y-32781941D01*
X76733399Y-32781941D01*
X76497996Y-32802536D01*
X76497986Y-32802538D01*
X76269744Y-32863694D01*
X76269735Y-32863698D01*
X76055571Y-32963564D01*
X76055569Y-32963565D01*
X75935993Y-33047293D01*
X75869787Y-33069620D01*
X75802019Y-33052610D01*
X75777189Y-33033399D01*
X75166198Y-32422408D01*
X75166178Y-32422386D01*
X75074733Y-32330941D01*
X75023509Y-32296715D01*
X74972286Y-32262488D01*
X74972283Y-32262486D01*
X74972280Y-32262485D01*
X74891792Y-32229147D01*
X74858453Y-32215337D01*
X74848427Y-32213343D01*
X74798029Y-32203318D01*
X74737610Y-32191300D01*
X74737607Y-32191300D01*
X74737606Y-32191300D01*
X70495806Y-32191300D01*
X70372593Y-32191300D01*
X70372589Y-32191300D01*
X70312171Y-32203318D01*
X70268943Y-32211916D01*
X70251746Y-32215337D01*
X70137916Y-32262487D01*
X70137907Y-32262492D01*
X70035468Y-32330940D01*
X69991905Y-32374503D01*
X69948342Y-32418067D01*
X69948339Y-32418070D01*
X69569046Y-32797362D01*
X69507723Y-32830847D01*
X69449272Y-32829456D01*
X69348813Y-32802538D01*
X69348803Y-32802536D01*
X69113401Y-32781941D01*
X69113399Y-32781941D01*
X68877996Y-32802536D01*
X68877986Y-32802538D01*
X68649744Y-32863694D01*
X68649735Y-32863698D01*
X68435571Y-32963564D01*
X68435569Y-32963565D01*
X68242000Y-33099103D01*
X68120073Y-33221030D01*
X68058750Y-33254514D01*
X67989058Y-33249530D01*
X67933125Y-33207658D01*
X67916210Y-33176681D01*
X67867197Y-33045271D01*
X67867193Y-33045264D01*
X67780947Y-32930055D01*
X67780944Y-32930052D01*
X67665735Y-32843806D01*
X67665728Y-32843802D01*
X67530882Y-32793508D01*
X67530883Y-32793508D01*
X67471283Y-32787101D01*
X67471281Y-32787100D01*
X67471273Y-32787100D01*
X67471264Y-32787100D01*
X65675529Y-32787100D01*
X65675523Y-32787101D01*
X65615916Y-32793508D01*
X65481071Y-32843802D01*
X65481064Y-32843806D01*
X65365855Y-32930052D01*
X65365852Y-32930055D01*
X65279606Y-33045264D01*
X65279602Y-33045271D01*
X65229308Y-33180117D01*
X65222901Y-33239716D01*
X65222900Y-33239735D01*
X65222900Y-35035470D01*
X65222901Y-35035476D01*
X65229308Y-35095083D01*
X65279602Y-35229928D01*
X65279606Y-35229935D01*
X65365852Y-35345144D01*
X65365855Y-35345147D01*
X65481064Y-35431393D01*
X65481071Y-35431397D01*
X65615917Y-35481691D01*
X65615916Y-35481691D01*
X65622844Y-35482435D01*
X65675527Y-35488100D01*
X67471272Y-35488099D01*
X67530883Y-35481691D01*
X67665731Y-35431396D01*
X67780946Y-35345146D01*
X67867196Y-35229931D01*
X67916210Y-35098516D01*
X67958081Y-35042584D01*
X68023545Y-35018166D01*
X68091818Y-35033017D01*
X68120073Y-35054169D01*
X68241999Y-35176095D01*
X68338784Y-35243865D01*
X68435565Y-35311632D01*
X68435567Y-35311633D01*
X68435570Y-35311635D01*
X68649737Y-35411503D01*
X68649743Y-35411504D01*
X68649744Y-35411505D01*
X68664288Y-35415402D01*
X68877992Y-35472663D01*
X69054434Y-35488100D01*
X69113399Y-35493259D01*
X69113400Y-35493259D01*
X69113401Y-35493259D01*
X69172366Y-35488100D01*
X69348808Y-35472663D01*
X69577063Y-35411503D01*
X69791230Y-35311635D01*
X69984801Y-35176095D01*
X70151895Y-35009001D01*
X70281825Y-34823442D01*
X70336402Y-34779817D01*
X70405900Y-34772623D01*
X70468255Y-34804146D01*
X70484975Y-34823442D01*
X70614901Y-35008996D01*
X70614906Y-35009002D01*
X70781997Y-35176093D01*
X70782003Y-35176098D01*
X70796455Y-35186217D01*
X70975024Y-35311253D01*
X71018648Y-35365828D01*
X71027900Y-35412826D01*
X71027900Y-37770289D01*
X71014781Y-37825800D01*
X70467035Y-38919910D01*
X70419422Y-38971044D01*
X70351721Y-38988320D01*
X70285429Y-38966251D01*
X70254579Y-38935522D01*
X70126494Y-38752597D01*
X69959402Y-38585506D01*
X69959395Y-38585501D01*
X69765834Y-38449967D01*
X69765830Y-38449965D01*
X69765828Y-38449964D01*
X69551663Y-38350097D01*
X69551659Y-38350096D01*
X69551655Y-38350094D01*
X69323413Y-38288938D01*
X69323403Y-38288936D01*
X69088001Y-38268341D01*
X69087999Y-38268341D01*
X68852596Y-38288936D01*
X68852586Y-38288938D01*
X68624344Y-38350094D01*
X68624335Y-38350098D01*
X68410171Y-38449964D01*
X68410169Y-38449965D01*
X68216597Y-38585505D01*
X68049505Y-38752597D01*
X67919575Y-38938158D01*
X67864998Y-38981783D01*
X67795500Y-38988977D01*
X67733145Y-38957454D01*
X67716425Y-38938158D01*
X67586494Y-38752597D01*
X67419402Y-38585506D01*
X67419395Y-38585501D01*
X67225834Y-38449967D01*
X67225830Y-38449965D01*
X67225828Y-38449964D01*
X67011663Y-38350097D01*
X67011659Y-38350096D01*
X67011655Y-38350094D01*
X66783413Y-38288938D01*
X66783403Y-38288936D01*
X66548001Y-38268341D01*
X66547999Y-38268341D01*
X66312596Y-38288936D01*
X66312586Y-38288938D01*
X66084344Y-38350094D01*
X66084335Y-38350098D01*
X65870171Y-38449964D01*
X65870169Y-38449965D01*
X65676600Y-38585503D01*
X65554284Y-38707819D01*
X65492961Y-38741303D01*
X65423269Y-38736319D01*
X65367336Y-38694447D01*
X65350422Y-38663474D01*
X65342721Y-38642829D01*
X65342720Y-38642829D01*
X64499127Y-39486422D01*
X64483245Y-39427147D01*
X64416102Y-39310853D01*
X64321147Y-39215898D01*
X64204853Y-39148755D01*
X64145575Y-39132871D01*
X64989170Y-38289277D01*
X64989170Y-38289276D01*
X64965375Y-38280401D01*
X64905844Y-38274000D01*
X63110155Y-38274000D01*
X63050624Y-38280401D01*
X63050622Y-38280402D01*
X63026828Y-38289276D01*
X63026828Y-38289277D01*
X63870423Y-39132872D01*
X63811147Y-39148755D01*
X63694853Y-39215898D01*
X63599898Y-39310853D01*
X63532755Y-39427147D01*
X63516872Y-39486423D01*
X62673276Y-38642829D01*
X62673274Y-38642829D01*
X62665578Y-38663467D01*
X62623708Y-38719402D01*
X62558245Y-38743821D01*
X62489971Y-38728971D01*
X62461714Y-38707818D01*
X62339402Y-38585506D01*
X62339395Y-38585501D01*
X62145834Y-38449967D01*
X62145830Y-38449965D01*
X62145828Y-38449964D01*
X61931663Y-38350097D01*
X61931659Y-38350096D01*
X61931655Y-38350094D01*
X61703413Y-38288938D01*
X61703403Y-38288936D01*
X61468001Y-38268341D01*
X61467999Y-38268341D01*
X61232596Y-38288936D01*
X61232586Y-38288938D01*
X61004344Y-38350094D01*
X61004335Y-38350098D01*
X60790171Y-38449964D01*
X60790169Y-38449965D01*
X60596597Y-38585505D01*
X60429505Y-38752597D01*
X60299575Y-38938158D01*
X60244998Y-38981783D01*
X60175500Y-38988977D01*
X60113145Y-38957454D01*
X60096425Y-38938158D01*
X59966494Y-38752597D01*
X59799402Y-38585506D01*
X59799395Y-38585501D01*
X59605834Y-38449967D01*
X59605830Y-38449965D01*
X59605828Y-38449964D01*
X59391663Y-38350097D01*
X59391659Y-38350096D01*
X59391655Y-38350094D01*
X59163413Y-38288938D01*
X59163403Y-38288936D01*
X58928001Y-38268341D01*
X58927999Y-38268341D01*
X58692596Y-38288936D01*
X58692586Y-38288938D01*
X58464344Y-38350094D01*
X58464335Y-38350098D01*
X58250171Y-38449964D01*
X58250169Y-38449965D01*
X58056597Y-38585505D01*
X57889505Y-38752597D01*
X57759575Y-38938158D01*
X57704998Y-38981783D01*
X57635500Y-38988977D01*
X57573145Y-38957454D01*
X57556425Y-38938158D01*
X57426494Y-38752597D01*
X57259402Y-38585506D01*
X57259395Y-38585501D01*
X57065834Y-38449967D01*
X57065830Y-38449965D01*
X57065828Y-38449964D01*
X56851663Y-38350097D01*
X56851659Y-38350096D01*
X56851655Y-38350094D01*
X56623413Y-38288938D01*
X56623403Y-38288936D01*
X56388001Y-38268341D01*
X56387999Y-38268341D01*
X56152596Y-38288936D01*
X56152586Y-38288938D01*
X55924344Y-38350094D01*
X55924335Y-38350098D01*
X55710171Y-38449964D01*
X55710169Y-38449965D01*
X55516597Y-38585505D01*
X55349505Y-38752597D01*
X55219575Y-38938158D01*
X55164998Y-38981783D01*
X55095500Y-38988977D01*
X55033145Y-38957454D01*
X55016425Y-38938158D01*
X54886494Y-38752597D01*
X54719402Y-38585506D01*
X54719395Y-38585501D01*
X54525834Y-38449967D01*
X54525830Y-38449965D01*
X54525828Y-38449964D01*
X54311663Y-38350097D01*
X54311659Y-38350096D01*
X54311655Y-38350094D01*
X54083413Y-38288938D01*
X54083403Y-38288936D01*
X53848001Y-38268341D01*
X53847999Y-38268341D01*
X53612596Y-38288936D01*
X53612586Y-38288938D01*
X53384344Y-38350094D01*
X53384335Y-38350098D01*
X53170171Y-38449964D01*
X53170169Y-38449965D01*
X52976597Y-38585505D01*
X52809505Y-38752597D01*
X52679575Y-38938158D01*
X52624998Y-38981783D01*
X52555500Y-38988977D01*
X52493145Y-38957454D01*
X52476425Y-38938158D01*
X52346494Y-38752597D01*
X52179402Y-38585506D01*
X52179395Y-38585501D01*
X51985834Y-38449967D01*
X51985830Y-38449965D01*
X51985828Y-38449964D01*
X51771663Y-38350097D01*
X51771659Y-38350096D01*
X51771655Y-38350094D01*
X51543413Y-38288938D01*
X51543403Y-38288936D01*
X51308001Y-38268341D01*
X51307999Y-38268341D01*
X51072596Y-38288936D01*
X51072586Y-38288938D01*
X50844344Y-38350094D01*
X50844335Y-38350098D01*
X50630171Y-38449964D01*
X50630169Y-38449965D01*
X50436600Y-38585503D01*
X50314284Y-38707819D01*
X50252961Y-38741303D01*
X50183269Y-38736319D01*
X50127336Y-38694447D01*
X50110422Y-38663474D01*
X50102721Y-38642829D01*
X50102720Y-38642829D01*
X49259127Y-39486422D01*
X49243245Y-39427147D01*
X49176102Y-39310853D01*
X49081147Y-39215898D01*
X48964853Y-39148755D01*
X48905575Y-39132871D01*
X49749170Y-38289277D01*
X49749170Y-38289276D01*
X49725375Y-38280401D01*
X49665844Y-38274000D01*
X47870155Y-38274000D01*
X47810624Y-38280401D01*
X47810622Y-38280402D01*
X47786828Y-38289276D01*
X47786828Y-38289277D01*
X48630423Y-39132872D01*
X48571147Y-39148755D01*
X48454853Y-39215898D01*
X48359898Y-39310853D01*
X48292755Y-39427147D01*
X48276872Y-39486423D01*
X47433276Y-38642829D01*
X47433274Y-38642829D01*
X47425578Y-38663467D01*
X47383708Y-38719402D01*
X47318245Y-38743821D01*
X47249971Y-38728971D01*
X47221714Y-38707818D01*
X47099402Y-38585506D01*
X47099395Y-38585501D01*
X46905834Y-38449967D01*
X46905830Y-38449965D01*
X46905828Y-38449964D01*
X46691663Y-38350097D01*
X46691659Y-38350096D01*
X46691655Y-38350094D01*
X46463413Y-38288938D01*
X46463403Y-38288936D01*
X46228001Y-38268341D01*
X46227999Y-38268341D01*
X45992596Y-38288936D01*
X45992586Y-38288938D01*
X45764344Y-38350094D01*
X45764335Y-38350098D01*
X45550171Y-38449964D01*
X45550169Y-38449965D01*
X45356597Y-38585505D01*
X45189505Y-38752597D01*
X45059575Y-38938158D01*
X45004998Y-38981783D01*
X44935500Y-38988977D01*
X44873145Y-38957454D01*
X44856425Y-38938158D01*
X44726494Y-38752597D01*
X44559402Y-38585506D01*
X44559395Y-38585501D01*
X44365834Y-38449967D01*
X44365830Y-38449965D01*
X44365828Y-38449964D01*
X44151663Y-38350097D01*
X44151659Y-38350096D01*
X44151655Y-38350094D01*
X43923413Y-38288938D01*
X43923403Y-38288936D01*
X43688001Y-38268341D01*
X43687999Y-38268341D01*
X43452596Y-38288936D01*
X43452586Y-38288938D01*
X43224344Y-38350094D01*
X43224335Y-38350098D01*
X43010171Y-38449964D01*
X43010169Y-38449965D01*
X42816600Y-38585503D01*
X42694284Y-38707819D01*
X42632961Y-38741303D01*
X42563269Y-38736319D01*
X42507336Y-38694447D01*
X42490422Y-38663474D01*
X42482721Y-38642829D01*
X42482720Y-38642829D01*
X41639127Y-39486422D01*
X41623245Y-39427147D01*
X41556102Y-39310853D01*
X41461147Y-39215898D01*
X41344853Y-39148755D01*
X41285575Y-39132871D01*
X42129170Y-38289277D01*
X42129170Y-38289276D01*
X42105375Y-38280401D01*
X42045844Y-38274000D01*
X40250155Y-38274000D01*
X40190624Y-38280401D01*
X40190622Y-38280402D01*
X40166828Y-38289276D01*
X40166828Y-38289277D01*
X41010423Y-39132872D01*
X40951147Y-39148755D01*
X40834853Y-39215898D01*
X40739898Y-39310853D01*
X40672755Y-39427147D01*
X40656872Y-39486423D01*
X39813276Y-38642829D01*
X39813274Y-38642829D01*
X39805578Y-38663467D01*
X39763708Y-38719402D01*
X39698245Y-38743821D01*
X39629971Y-38728971D01*
X39601714Y-38707818D01*
X39479402Y-38585506D01*
X39479395Y-38585501D01*
X39285834Y-38449967D01*
X39285830Y-38449965D01*
X39285828Y-38449964D01*
X39071663Y-38350097D01*
X39071659Y-38350096D01*
X39071655Y-38350094D01*
X38843413Y-38288938D01*
X38843403Y-38288936D01*
X38608001Y-38268341D01*
X38607999Y-38268341D01*
X38372596Y-38288936D01*
X38372586Y-38288938D01*
X38144344Y-38350094D01*
X38144335Y-38350098D01*
X37930171Y-38449964D01*
X37930169Y-38449965D01*
X37736597Y-38585505D01*
X37569505Y-38752597D01*
X37439575Y-38938158D01*
X37384998Y-38981783D01*
X37315500Y-38988977D01*
X37253145Y-38957454D01*
X37236425Y-38938158D01*
X37106494Y-38752597D01*
X36939402Y-38585506D01*
X36939395Y-38585501D01*
X36745834Y-38449967D01*
X36745830Y-38449965D01*
X36745828Y-38449964D01*
X36531663Y-38350097D01*
X36531659Y-38350096D01*
X36531655Y-38350094D01*
X36303413Y-38288938D01*
X36303403Y-38288936D01*
X36068001Y-38268341D01*
X36067999Y-38268341D01*
X35832596Y-38288936D01*
X35832586Y-38288938D01*
X35604344Y-38350094D01*
X35604335Y-38350098D01*
X35390171Y-38449964D01*
X35390169Y-38449965D01*
X35196597Y-38585505D01*
X35029505Y-38752597D01*
X34893965Y-38946169D01*
X34893964Y-38946171D01*
X34794098Y-39160335D01*
X34794094Y-39160344D01*
X34732938Y-39388586D01*
X34732936Y-39388596D01*
X34712341Y-39623999D01*
X34712341Y-39624000D01*
X34732936Y-39859403D01*
X34732938Y-39859413D01*
X34794094Y-40087655D01*
X34794096Y-40087659D01*
X34794097Y-40087663D01*
X34884116Y-40280708D01*
X34893965Y-40301830D01*
X34893967Y-40301834D01*
X34965223Y-40403597D01*
X35029505Y-40495401D01*
X35196599Y-40662495D01*
X35293384Y-40730265D01*
X35390165Y-40798032D01*
X35390167Y-40798033D01*
X35390170Y-40798035D01*
X35604337Y-40897903D01*
X35832592Y-40959063D01*
X36003319Y-40974000D01*
X36067999Y-40979659D01*
X36068000Y-40979659D01*
X36068001Y-40979659D01*
X36132681Y-40974000D01*
X36303408Y-40959063D01*
X36531663Y-40897903D01*
X36745830Y-40798035D01*
X36939401Y-40662495D01*
X37106495Y-40495401D01*
X37236425Y-40309842D01*
X37291002Y-40266217D01*
X37360500Y-40259023D01*
X37422855Y-40290546D01*
X37439575Y-40309842D01*
X37569500Y-40495395D01*
X37569505Y-40495401D01*
X37736599Y-40662495D01*
X37833384Y-40730265D01*
X37930165Y-40798032D01*
X37930167Y-40798033D01*
X37930170Y-40798035D01*
X38144337Y-40897903D01*
X38372592Y-40959063D01*
X38543319Y-40974000D01*
X38607999Y-40979659D01*
X38608000Y-40979659D01*
X38608001Y-40979659D01*
X38672681Y-40974000D01*
X38843408Y-40959063D01*
X39071663Y-40897903D01*
X39285830Y-40798035D01*
X39479401Y-40662495D01*
X39601717Y-40540178D01*
X39663036Y-40506696D01*
X39732728Y-40511680D01*
X39788662Y-40553551D01*
X39805576Y-40584527D01*
X39813275Y-40605170D01*
X39813277Y-40605170D01*
X40656872Y-39761575D01*
X40672755Y-39820853D01*
X40739898Y-39937147D01*
X40834853Y-40032102D01*
X40951147Y-40099245D01*
X41010422Y-40115127D01*
X40166828Y-40958721D01*
X40166829Y-40958722D01*
X40190623Y-40967597D01*
X40190627Y-40967598D01*
X40250155Y-40973999D01*
X40250172Y-40974000D01*
X42045828Y-40974000D01*
X42045844Y-40973999D01*
X42105376Y-40967598D01*
X42105377Y-40967597D01*
X42129170Y-40958722D01*
X42129170Y-40958720D01*
X41285576Y-40115127D01*
X41344853Y-40099245D01*
X41461147Y-40032102D01*
X41556102Y-39937147D01*
X41623245Y-39820853D01*
X41639128Y-39761575D01*
X42482722Y-40605169D01*
X42490421Y-40584528D01*
X42532292Y-40528594D01*
X42597757Y-40504177D01*
X42666029Y-40519029D01*
X42694284Y-40540180D01*
X42816599Y-40662495D01*
X42913384Y-40730265D01*
X43010165Y-40798032D01*
X43010167Y-40798033D01*
X43010170Y-40798035D01*
X43224337Y-40897903D01*
X43452592Y-40959063D01*
X43623319Y-40974000D01*
X43687999Y-40979659D01*
X43688000Y-40979659D01*
X43688001Y-40979659D01*
X43752681Y-40974000D01*
X43923408Y-40959063D01*
X44151663Y-40897903D01*
X44365830Y-40798035D01*
X44559401Y-40662495D01*
X44726495Y-40495401D01*
X44856425Y-40309842D01*
X44911002Y-40266217D01*
X44980500Y-40259023D01*
X45042855Y-40290546D01*
X45059575Y-40309842D01*
X45189500Y-40495395D01*
X45189505Y-40495401D01*
X45356599Y-40662495D01*
X45453384Y-40730265D01*
X45550165Y-40798032D01*
X45550167Y-40798033D01*
X45550170Y-40798035D01*
X45764337Y-40897903D01*
X45992592Y-40959063D01*
X46163319Y-40974000D01*
X46227999Y-40979659D01*
X46228000Y-40979659D01*
X46228001Y-40979659D01*
X46292681Y-40974000D01*
X46463408Y-40959063D01*
X46691663Y-40897903D01*
X46905830Y-40798035D01*
X47099401Y-40662495D01*
X47221717Y-40540178D01*
X47283036Y-40506696D01*
X47352728Y-40511680D01*
X47408662Y-40553551D01*
X47425576Y-40584527D01*
X47433275Y-40605170D01*
X47433277Y-40605170D01*
X48276872Y-39761575D01*
X48292755Y-39820853D01*
X48359898Y-39937147D01*
X48454853Y-40032102D01*
X48571147Y-40099245D01*
X48630422Y-40115127D01*
X47786828Y-40958721D01*
X47786829Y-40958722D01*
X47810623Y-40967597D01*
X47810627Y-40967598D01*
X47870155Y-40973999D01*
X47870172Y-40974000D01*
X49665828Y-40974000D01*
X49665844Y-40973999D01*
X49725376Y-40967598D01*
X49725377Y-40967597D01*
X49749170Y-40958722D01*
X49749170Y-40958720D01*
X48905576Y-40115127D01*
X48964853Y-40099245D01*
X49081147Y-40032102D01*
X49176102Y-39937147D01*
X49243245Y-39820853D01*
X49259128Y-39761575D01*
X50102722Y-40605169D01*
X50110421Y-40584528D01*
X50152292Y-40528594D01*
X50217757Y-40504177D01*
X50286029Y-40519029D01*
X50314284Y-40540180D01*
X50436599Y-40662495D01*
X50533384Y-40730265D01*
X50630165Y-40798032D01*
X50630167Y-40798033D01*
X50630170Y-40798035D01*
X50844337Y-40897903D01*
X51072592Y-40959063D01*
X51243319Y-40974000D01*
X51307999Y-40979659D01*
X51308000Y-40979659D01*
X51308001Y-40979659D01*
X51372681Y-40974000D01*
X51543408Y-40959063D01*
X51771663Y-40897903D01*
X51985830Y-40798035D01*
X52179401Y-40662495D01*
X52346495Y-40495401D01*
X52476425Y-40309842D01*
X52531002Y-40266217D01*
X52600500Y-40259023D01*
X52662855Y-40290546D01*
X52679575Y-40309842D01*
X52809500Y-40495395D01*
X52809505Y-40495401D01*
X52976599Y-40662495D01*
X53073384Y-40730265D01*
X53170165Y-40798032D01*
X53170167Y-40798033D01*
X53170170Y-40798035D01*
X53384337Y-40897903D01*
X53612592Y-40959063D01*
X53783319Y-40974000D01*
X53847999Y-40979659D01*
X53848000Y-40979659D01*
X53848001Y-40979659D01*
X53912681Y-40974000D01*
X54083408Y-40959063D01*
X54311663Y-40897903D01*
X54525830Y-40798035D01*
X54719401Y-40662495D01*
X54886495Y-40495401D01*
X55016425Y-40309842D01*
X55071002Y-40266217D01*
X55140500Y-40259023D01*
X55202855Y-40290546D01*
X55219575Y-40309842D01*
X55349500Y-40495395D01*
X55349505Y-40495401D01*
X55516599Y-40662495D01*
X55613384Y-40730265D01*
X55710165Y-40798032D01*
X55710167Y-40798033D01*
X55710170Y-40798035D01*
X55924337Y-40897903D01*
X56152592Y-40959063D01*
X56323319Y-40974000D01*
X56387999Y-40979659D01*
X56388000Y-40979659D01*
X56388001Y-40979659D01*
X56452681Y-40974000D01*
X56623408Y-40959063D01*
X56851663Y-40897903D01*
X57065830Y-40798035D01*
X57259401Y-40662495D01*
X57426495Y-40495401D01*
X57556425Y-40309842D01*
X57611002Y-40266217D01*
X57680500Y-40259023D01*
X57742855Y-40290546D01*
X57759575Y-40309842D01*
X57889500Y-40495395D01*
X57889505Y-40495401D01*
X58056599Y-40662495D01*
X58153384Y-40730265D01*
X58250165Y-40798032D01*
X58250167Y-40798033D01*
X58250170Y-40798035D01*
X58464337Y-40897903D01*
X58692592Y-40959063D01*
X58863319Y-40974000D01*
X58927999Y-40979659D01*
X58928000Y-40979659D01*
X58928001Y-40979659D01*
X58992681Y-40974000D01*
X59163408Y-40959063D01*
X59391663Y-40897903D01*
X59605830Y-40798035D01*
X59799401Y-40662495D01*
X59966495Y-40495401D01*
X60092687Y-40315179D01*
X60147264Y-40271555D01*
X60216762Y-40264361D01*
X60279117Y-40295884D01*
X60306037Y-40332616D01*
X60830274Y-41424060D01*
X60830275Y-41424061D01*
X60842500Y-41477748D01*
X60842500Y-47117305D01*
X60835849Y-47157371D01*
X60648999Y-47704637D01*
X60638230Y-47740463D01*
X60638119Y-47741450D01*
X60632830Y-47765879D01*
X60607728Y-47843137D01*
X60607727Y-47843142D01*
X60607726Y-47843144D01*
X60587940Y-48031400D01*
X60607726Y-48219656D01*
X60607727Y-48219659D01*
X60666218Y-48399677D01*
X60666221Y-48399684D01*
X60760867Y-48563616D01*
X60847288Y-48659596D01*
X60887529Y-48704288D01*
X61040665Y-48815548D01*
X61040670Y-48815551D01*
X61213592Y-48892542D01*
X61213597Y-48892544D01*
X61398754Y-48931900D01*
X61398755Y-48931900D01*
X61588044Y-48931900D01*
X61588046Y-48931900D01*
X61773203Y-48892544D01*
X61946130Y-48815551D01*
X62099271Y-48704288D01*
X62225933Y-48563616D01*
X62320579Y-48399684D01*
X62379074Y-48219656D01*
X62398860Y-48031400D01*
X62379074Y-47843144D01*
X62329798Y-47691493D01*
X62327750Y-47684491D01*
X62324370Y-47671542D01*
X62324369Y-47671537D01*
X62137157Y-47226395D01*
X62103197Y-47145647D01*
X62093500Y-47097575D01*
X62093500Y-41477747D01*
X62105725Y-41424060D01*
X62121499Y-41391219D01*
X62473120Y-40659155D01*
X62519888Y-40607249D01*
X62587297Y-40588867D01*
X62611253Y-40591678D01*
X62673277Y-40605171D01*
X63516872Y-39761575D01*
X63532755Y-39820853D01*
X63599898Y-39937147D01*
X63694853Y-40032102D01*
X63811147Y-40099245D01*
X63870422Y-40115127D01*
X63026828Y-40958721D01*
X63026829Y-40958722D01*
X63050623Y-40967597D01*
X63050627Y-40967598D01*
X63110155Y-40973999D01*
X63110172Y-40974000D01*
X64905828Y-40974000D01*
X64905844Y-40973999D01*
X64965376Y-40967598D01*
X64965377Y-40967597D01*
X64989170Y-40958722D01*
X64989170Y-40958720D01*
X64145576Y-40115127D01*
X64204853Y-40099245D01*
X64321147Y-40032102D01*
X64416102Y-39937147D01*
X64483245Y-39820853D01*
X64499128Y-39761575D01*
X65342721Y-40605169D01*
X65404745Y-40591677D01*
X65474437Y-40596661D01*
X65530371Y-40638532D01*
X65542879Y-40659156D01*
X65544482Y-40662493D01*
X65910274Y-41424060D01*
X65910275Y-41424061D01*
X65922500Y-41477748D01*
X65922500Y-51090961D01*
X65914489Y-51134807D01*
X65709605Y-51676802D01*
X65695421Y-51720142D01*
X65695420Y-51720146D01*
X65694982Y-51723543D01*
X65689934Y-51745977D01*
X65662330Y-51830936D01*
X65662328Y-51830942D01*
X65655210Y-51898664D01*
X65642542Y-52019199D01*
X65662328Y-52207455D01*
X65662329Y-52207458D01*
X65720820Y-52387476D01*
X65720823Y-52387483D01*
X65815469Y-52551415D01*
X65877628Y-52620449D01*
X65942131Y-52692087D01*
X66095267Y-52803347D01*
X66095272Y-52803350D01*
X66268194Y-52880341D01*
X66268199Y-52880343D01*
X66453356Y-52919699D01*
X66453357Y-52919699D01*
X66642646Y-52919699D01*
X66642648Y-52919699D01*
X66827805Y-52880343D01*
X67000732Y-52803350D01*
X67153873Y-52692087D01*
X67280535Y-52551415D01*
X67375181Y-52387483D01*
X67433676Y-52207455D01*
X67453462Y-52019199D01*
X67433676Y-51830943D01*
X67394292Y-51709734D01*
X67391173Y-51698303D01*
X67386396Y-51676797D01*
X67181511Y-51134805D01*
X67173500Y-51090959D01*
X67173500Y-41477747D01*
X67185725Y-41424060D01*
X67206899Y-41379978D01*
X67709962Y-40332615D01*
X67756731Y-40280708D01*
X67824140Y-40262326D01*
X67890785Y-40283306D01*
X67923312Y-40315179D01*
X68049505Y-40495401D01*
X68216599Y-40662495D01*
X68313384Y-40730265D01*
X68410165Y-40798032D01*
X68410167Y-40798033D01*
X68410170Y-40798035D01*
X68624337Y-40897903D01*
X68852592Y-40959063D01*
X69023319Y-40974000D01*
X69087999Y-40979659D01*
X69088000Y-40979659D01*
X69088001Y-40979659D01*
X69152681Y-40974000D01*
X69323408Y-40959063D01*
X69551663Y-40897903D01*
X69765830Y-40798035D01*
X69959401Y-40662495D01*
X70126495Y-40495401D01*
X70256425Y-40309842D01*
X70311002Y-40266217D01*
X70380500Y-40259023D01*
X70442855Y-40290546D01*
X70459575Y-40309842D01*
X70589500Y-40495395D01*
X70589505Y-40495401D01*
X70756599Y-40662495D01*
X70853384Y-40730265D01*
X70950165Y-40798032D01*
X70950167Y-40798033D01*
X70950170Y-40798035D01*
X71164337Y-40897903D01*
X71392592Y-40959063D01*
X71563319Y-40974000D01*
X71627999Y-40979659D01*
X71628000Y-40979659D01*
X71628001Y-40979659D01*
X71692681Y-40974000D01*
X71863408Y-40959063D01*
X72091663Y-40897903D01*
X72305830Y-40798035D01*
X72499401Y-40662495D01*
X72666495Y-40495401D01*
X72796425Y-40309842D01*
X72851002Y-40266217D01*
X72920500Y-40259023D01*
X72982855Y-40290546D01*
X72999575Y-40309842D01*
X73129500Y-40495395D01*
X73129505Y-40495401D01*
X73296599Y-40662495D01*
X73393384Y-40730265D01*
X73490165Y-40798032D01*
X73490167Y-40798033D01*
X73490170Y-40798035D01*
X73704337Y-40897903D01*
X73932592Y-40959063D01*
X74103319Y-40974000D01*
X74167999Y-40979659D01*
X74168000Y-40979659D01*
X74168001Y-40979659D01*
X74232681Y-40974000D01*
X74403408Y-40959063D01*
X74631663Y-40897903D01*
X74845830Y-40798035D01*
X75039401Y-40662495D01*
X75206495Y-40495401D01*
X75336425Y-40309842D01*
X75391002Y-40266217D01*
X75460500Y-40259023D01*
X75522855Y-40290546D01*
X75539575Y-40309842D01*
X75669500Y-40495395D01*
X75669505Y-40495401D01*
X75836599Y-40662495D01*
X75933384Y-40730265D01*
X76030165Y-40798032D01*
X76030167Y-40798033D01*
X76030170Y-40798035D01*
X76244337Y-40897903D01*
X76472592Y-40959063D01*
X76643319Y-40974000D01*
X76707999Y-40979659D01*
X76708000Y-40979659D01*
X76708001Y-40979659D01*
X76772681Y-40974000D01*
X76943408Y-40959063D01*
X77171663Y-40897903D01*
X77385830Y-40798035D01*
X77579401Y-40662495D01*
X77746495Y-40495401D01*
X77876425Y-40309842D01*
X77931002Y-40266217D01*
X78000500Y-40259023D01*
X78062855Y-40290546D01*
X78079575Y-40309842D01*
X78209500Y-40495395D01*
X78209505Y-40495401D01*
X78376599Y-40662495D01*
X78473384Y-40730265D01*
X78570165Y-40798032D01*
X78570167Y-40798033D01*
X78570170Y-40798035D01*
X78784337Y-40897903D01*
X79012592Y-40959063D01*
X79183319Y-40974000D01*
X79247999Y-40979659D01*
X79248000Y-40979659D01*
X79248001Y-40979659D01*
X79312681Y-40974000D01*
X79483408Y-40959063D01*
X79711663Y-40897903D01*
X79925830Y-40798035D01*
X80119401Y-40662495D01*
X80286495Y-40495401D01*
X80416425Y-40309842D01*
X80471002Y-40266217D01*
X80540500Y-40259023D01*
X80602855Y-40290546D01*
X80619575Y-40309842D01*
X80749500Y-40495395D01*
X80749505Y-40495401D01*
X80916599Y-40662495D01*
X81024189Y-40737830D01*
X81110168Y-40798034D01*
X81110170Y-40798035D01*
X81294145Y-40883824D01*
X81299006Y-40886223D01*
X81306926Y-40890350D01*
X81306929Y-40890351D01*
X81308857Y-40891186D01*
X81317393Y-40894665D01*
X81324327Y-40897899D01*
X81324330Y-40897900D01*
X81324337Y-40897903D01*
X81337130Y-40901330D01*
X81346095Y-40904101D01*
X82349587Y-41256390D01*
X82406321Y-41297169D01*
X82432001Y-41362148D01*
X82432512Y-41373389D01*
X82432512Y-56019787D01*
X82412827Y-56086826D01*
X82360023Y-56132581D01*
X82290865Y-56142525D01*
X82256112Y-56132171D01*
X82251670Y-56130100D01*
X82251666Y-56130098D01*
X82251663Y-56130097D01*
X82251661Y-56130096D01*
X82251655Y-56130094D01*
X82023413Y-56068938D01*
X82023403Y-56068936D01*
X81788001Y-56048341D01*
X81787999Y-56048341D01*
X81552596Y-56068936D01*
X81552586Y-56068938D01*
X81324344Y-56130094D01*
X81324335Y-56130098D01*
X81110171Y-56229964D01*
X81110169Y-56229965D01*
X80916597Y-56365505D01*
X80749505Y-56532597D01*
X80619575Y-56718158D01*
X80564998Y-56761783D01*
X80495500Y-56768977D01*
X80433145Y-56737454D01*
X80416425Y-56718158D01*
X80286494Y-56532597D01*
X80119402Y-56365506D01*
X80119395Y-56365501D01*
X80100319Y-56352144D01*
X80080521Y-56338281D01*
X79925834Y-56229967D01*
X79925830Y-56229965D01*
X79892487Y-56214417D01*
X79711663Y-56130097D01*
X79711659Y-56130096D01*
X79711655Y-56130094D01*
X79483413Y-56068938D01*
X79483403Y-56068936D01*
X79248001Y-56048341D01*
X79247999Y-56048341D01*
X79012596Y-56068936D01*
X79012586Y-56068938D01*
X78784344Y-56130094D01*
X78784335Y-56130098D01*
X78570171Y-56229964D01*
X78570169Y-56229965D01*
X78376597Y-56365505D01*
X78209505Y-56532597D01*
X78079575Y-56718158D01*
X78024998Y-56761783D01*
X77955500Y-56768977D01*
X77893145Y-56737454D01*
X77876425Y-56718158D01*
X77746494Y-56532597D01*
X77579402Y-56365506D01*
X77579395Y-56365501D01*
X77560319Y-56352144D01*
X77540521Y-56338281D01*
X77385834Y-56229967D01*
X77385830Y-56229965D01*
X77352487Y-56214417D01*
X77171663Y-56130097D01*
X77171659Y-56130096D01*
X77171655Y-56130094D01*
X76943413Y-56068938D01*
X76943403Y-56068936D01*
X76708001Y-56048341D01*
X76707999Y-56048341D01*
X76472596Y-56068936D01*
X76472586Y-56068938D01*
X76244344Y-56130094D01*
X76244335Y-56130098D01*
X76030171Y-56229964D01*
X76030169Y-56229965D01*
X75836597Y-56365505D01*
X75669505Y-56532597D01*
X75539575Y-56718158D01*
X75484998Y-56761783D01*
X75415500Y-56768977D01*
X75353145Y-56737454D01*
X75336425Y-56718158D01*
X75206494Y-56532597D01*
X75039402Y-56365506D01*
X75039395Y-56365501D01*
X75020319Y-56352144D01*
X75000521Y-56338281D01*
X74845834Y-56229967D01*
X74845830Y-56229965D01*
X74812487Y-56214417D01*
X74631663Y-56130097D01*
X74631659Y-56130096D01*
X74631655Y-56130094D01*
X74403413Y-56068938D01*
X74403403Y-56068936D01*
X74168001Y-56048341D01*
X74167999Y-56048341D01*
X73932596Y-56068936D01*
X73932586Y-56068938D01*
X73704344Y-56130094D01*
X73704335Y-56130098D01*
X73490171Y-56229964D01*
X73490169Y-56229965D01*
X73296600Y-56365503D01*
X73174284Y-56487819D01*
X73112961Y-56521303D01*
X73043269Y-56516319D01*
X72987336Y-56474447D01*
X72970422Y-56443474D01*
X72962721Y-56422829D01*
X72962720Y-56422829D01*
X72119127Y-57266422D01*
X72103245Y-57207147D01*
X72036102Y-57090853D01*
X71941147Y-56995898D01*
X71824853Y-56928755D01*
X71765575Y-56912871D01*
X72609170Y-56069277D01*
X72609170Y-56069276D01*
X72585375Y-56060401D01*
X72525844Y-56054000D01*
X70730155Y-56054000D01*
X70670624Y-56060401D01*
X70670622Y-56060402D01*
X70646828Y-56069276D01*
X70646828Y-56069277D01*
X71490423Y-56912872D01*
X71431147Y-56928755D01*
X71314853Y-56995898D01*
X71219898Y-57090853D01*
X71152755Y-57207147D01*
X71136872Y-57266423D01*
X70293276Y-56422829D01*
X70293274Y-56422829D01*
X70285578Y-56443467D01*
X70243708Y-56499402D01*
X70178245Y-56523821D01*
X70109971Y-56508971D01*
X70081714Y-56487818D01*
X69959402Y-56365506D01*
X69959395Y-56365501D01*
X69940319Y-56352144D01*
X69920521Y-56338281D01*
X69765834Y-56229967D01*
X69765830Y-56229965D01*
X69732487Y-56214417D01*
X69551663Y-56130097D01*
X69551659Y-56130096D01*
X69551655Y-56130094D01*
X69323413Y-56068938D01*
X69323403Y-56068936D01*
X69088001Y-56048341D01*
X69087999Y-56048341D01*
X68852596Y-56068936D01*
X68852586Y-56068938D01*
X68624344Y-56130094D01*
X68624335Y-56130098D01*
X68410171Y-56229964D01*
X68410169Y-56229965D01*
X68216597Y-56365505D01*
X68049505Y-56532597D01*
X67919575Y-56718158D01*
X67864998Y-56761783D01*
X67795500Y-56768977D01*
X67733145Y-56737454D01*
X67716425Y-56718158D01*
X67586494Y-56532597D01*
X67419402Y-56365506D01*
X67419395Y-56365501D01*
X67400319Y-56352144D01*
X67380521Y-56338281D01*
X67225834Y-56229967D01*
X67225830Y-56229965D01*
X67192487Y-56214417D01*
X67011663Y-56130097D01*
X67011659Y-56130096D01*
X67011655Y-56130094D01*
X66783413Y-56068938D01*
X66783403Y-56068936D01*
X66548001Y-56048341D01*
X66547999Y-56048341D01*
X66312596Y-56068936D01*
X66312586Y-56068938D01*
X66084344Y-56130094D01*
X66084335Y-56130098D01*
X65870171Y-56229964D01*
X65870169Y-56229965D01*
X65676597Y-56365505D01*
X65509505Y-56532597D01*
X65379575Y-56718158D01*
X65324998Y-56761783D01*
X65255500Y-56768977D01*
X65193145Y-56737454D01*
X65176425Y-56718158D01*
X65046494Y-56532597D01*
X64879402Y-56365506D01*
X64879395Y-56365501D01*
X64860319Y-56352144D01*
X64840521Y-56338281D01*
X64685834Y-56229967D01*
X64685830Y-56229965D01*
X64652487Y-56214417D01*
X64471663Y-56130097D01*
X64471659Y-56130096D01*
X64471655Y-56130094D01*
X64243413Y-56068938D01*
X64243403Y-56068936D01*
X64008001Y-56048341D01*
X64007999Y-56048341D01*
X63772596Y-56068936D01*
X63772586Y-56068938D01*
X63544344Y-56130094D01*
X63544335Y-56130098D01*
X63330171Y-56229964D01*
X63330169Y-56229965D01*
X63136597Y-56365505D01*
X62969505Y-56532597D01*
X62839575Y-56718158D01*
X62784998Y-56761783D01*
X62715500Y-56768977D01*
X62653145Y-56737454D01*
X62636425Y-56718158D01*
X62506494Y-56532597D01*
X62339402Y-56365506D01*
X62339395Y-56365501D01*
X62320319Y-56352144D01*
X62300521Y-56338281D01*
X62145834Y-56229967D01*
X62145830Y-56229965D01*
X62112487Y-56214417D01*
X61931663Y-56130097D01*
X61931659Y-56130096D01*
X61931655Y-56130094D01*
X61703413Y-56068938D01*
X61703403Y-56068936D01*
X61468001Y-56048341D01*
X61467999Y-56048341D01*
X61232596Y-56068936D01*
X61232586Y-56068938D01*
X61004344Y-56130094D01*
X61004335Y-56130098D01*
X60790171Y-56229964D01*
X60790169Y-56229965D01*
X60596597Y-56365505D01*
X60429505Y-56532597D01*
X60299575Y-56718158D01*
X60244998Y-56761783D01*
X60175500Y-56768977D01*
X60113145Y-56737454D01*
X60096425Y-56718158D01*
X59966494Y-56532597D01*
X59799402Y-56365506D01*
X59799395Y-56365501D01*
X59780319Y-56352144D01*
X59760521Y-56338281D01*
X59605834Y-56229967D01*
X59605830Y-56229965D01*
X59572487Y-56214417D01*
X59391663Y-56130097D01*
X59391659Y-56130096D01*
X59391655Y-56130094D01*
X59163413Y-56068938D01*
X59163403Y-56068936D01*
X58928001Y-56048341D01*
X58927999Y-56048341D01*
X58692596Y-56068936D01*
X58692586Y-56068938D01*
X58464344Y-56130094D01*
X58464335Y-56130098D01*
X58250171Y-56229964D01*
X58250169Y-56229965D01*
X58056597Y-56365505D01*
X57889505Y-56532597D01*
X57759575Y-56718158D01*
X57704998Y-56761783D01*
X57635500Y-56768977D01*
X57573145Y-56737454D01*
X57556425Y-56718158D01*
X57426494Y-56532597D01*
X57259402Y-56365506D01*
X57259395Y-56365501D01*
X57240319Y-56352144D01*
X57220521Y-56338281D01*
X57065834Y-56229967D01*
X57065830Y-56229965D01*
X57032487Y-56214417D01*
X56851663Y-56130097D01*
X56851659Y-56130096D01*
X56851655Y-56130094D01*
X56623413Y-56068938D01*
X56623403Y-56068936D01*
X56388001Y-56048341D01*
X56387999Y-56048341D01*
X56152596Y-56068936D01*
X56152586Y-56068938D01*
X55924344Y-56130094D01*
X55924335Y-56130098D01*
X55710171Y-56229964D01*
X55710169Y-56229965D01*
X55516597Y-56365505D01*
X55349505Y-56532597D01*
X55219575Y-56718158D01*
X55164998Y-56761783D01*
X55095500Y-56768977D01*
X55033145Y-56737454D01*
X55016425Y-56718158D01*
X54886494Y-56532597D01*
X54719402Y-56365506D01*
X54719395Y-56365501D01*
X54700319Y-56352144D01*
X54680521Y-56338281D01*
X54525834Y-56229967D01*
X54525830Y-56229965D01*
X54492487Y-56214417D01*
X54311663Y-56130097D01*
X54311659Y-56130096D01*
X54311655Y-56130094D01*
X54083413Y-56068938D01*
X54083403Y-56068936D01*
X53848001Y-56048341D01*
X53847999Y-56048341D01*
X53612596Y-56068936D01*
X53612586Y-56068938D01*
X53384344Y-56130094D01*
X53384335Y-56130098D01*
X53170171Y-56229964D01*
X53170169Y-56229965D01*
X52976597Y-56365505D01*
X52809505Y-56532597D01*
X52679575Y-56718158D01*
X52624998Y-56761783D01*
X52555500Y-56768977D01*
X52493145Y-56737454D01*
X52476425Y-56718158D01*
X52346494Y-56532597D01*
X52179402Y-56365506D01*
X52179395Y-56365501D01*
X52160319Y-56352144D01*
X52140521Y-56338281D01*
X51985834Y-56229967D01*
X51985830Y-56229965D01*
X51952487Y-56214417D01*
X51771663Y-56130097D01*
X51771659Y-56130096D01*
X51771655Y-56130094D01*
X51543413Y-56068938D01*
X51543403Y-56068936D01*
X51308001Y-56048341D01*
X51307999Y-56048341D01*
X51072596Y-56068936D01*
X51072586Y-56068938D01*
X50844344Y-56130094D01*
X50844335Y-56130098D01*
X50630171Y-56229964D01*
X50630169Y-56229965D01*
X50436600Y-56365503D01*
X50314284Y-56487819D01*
X50252961Y-56521303D01*
X50183269Y-56516319D01*
X50127336Y-56474447D01*
X50110422Y-56443474D01*
X50102721Y-56422829D01*
X50102720Y-56422829D01*
X49259127Y-57266422D01*
X49243245Y-57207147D01*
X49176102Y-57090853D01*
X49081147Y-56995898D01*
X48964853Y-56928755D01*
X48905575Y-56912871D01*
X49749170Y-56069277D01*
X49749170Y-56069276D01*
X49725375Y-56060401D01*
X49665844Y-56054000D01*
X47870155Y-56054000D01*
X47810624Y-56060401D01*
X47810622Y-56060402D01*
X47786828Y-56069276D01*
X47786828Y-56069277D01*
X48630423Y-56912872D01*
X48571147Y-56928755D01*
X48454853Y-56995898D01*
X48359898Y-57090853D01*
X48292755Y-57207147D01*
X48276872Y-57266424D01*
X47433276Y-56422829D01*
X47433274Y-56422829D01*
X47425578Y-56443467D01*
X47383708Y-56499402D01*
X47318245Y-56523821D01*
X47249971Y-56508971D01*
X47221714Y-56487818D01*
X47099402Y-56365506D01*
X47099395Y-56365501D01*
X47080319Y-56352144D01*
X47060521Y-56338281D01*
X46905834Y-56229967D01*
X46905830Y-56229965D01*
X46872487Y-56214417D01*
X46691663Y-56130097D01*
X46691659Y-56130096D01*
X46691655Y-56130094D01*
X46463413Y-56068938D01*
X46463403Y-56068936D01*
X46228001Y-56048341D01*
X46227999Y-56048341D01*
X45992596Y-56068936D01*
X45992586Y-56068938D01*
X45764344Y-56130094D01*
X45764335Y-56130098D01*
X45550171Y-56229964D01*
X45550169Y-56229965D01*
X45356597Y-56365505D01*
X45189505Y-56532597D01*
X45059575Y-56718158D01*
X45004998Y-56761783D01*
X44935500Y-56768977D01*
X44873145Y-56737454D01*
X44856425Y-56718158D01*
X44726494Y-56532597D01*
X44559402Y-56365506D01*
X44559395Y-56365501D01*
X44540319Y-56352144D01*
X44520521Y-56338281D01*
X44365834Y-56229967D01*
X44365830Y-56229965D01*
X44332487Y-56214417D01*
X44151663Y-56130097D01*
X44151659Y-56130096D01*
X44151655Y-56130094D01*
X43923413Y-56068938D01*
X43923403Y-56068936D01*
X43688001Y-56048341D01*
X43687999Y-56048341D01*
X43452596Y-56068936D01*
X43452586Y-56068938D01*
X43224344Y-56130094D01*
X43224335Y-56130098D01*
X43010171Y-56229964D01*
X43010169Y-56229965D01*
X42816597Y-56365505D01*
X42649505Y-56532597D01*
X42519575Y-56718158D01*
X42464998Y-56761783D01*
X42395500Y-56768977D01*
X42333145Y-56737454D01*
X42316425Y-56718158D01*
X42186494Y-56532597D01*
X42019402Y-56365506D01*
X42019395Y-56365501D01*
X42000319Y-56352144D01*
X41980521Y-56338281D01*
X41825834Y-56229967D01*
X41825830Y-56229965D01*
X41792487Y-56214417D01*
X41611663Y-56130097D01*
X41611659Y-56130096D01*
X41611655Y-56130094D01*
X41383413Y-56068938D01*
X41383403Y-56068936D01*
X41148001Y-56048341D01*
X41147999Y-56048341D01*
X40912596Y-56068936D01*
X40912586Y-56068938D01*
X40684344Y-56130094D01*
X40684335Y-56130098D01*
X40470171Y-56229964D01*
X40470169Y-56229965D01*
X40276597Y-56365505D01*
X40109505Y-56532597D01*
X39979575Y-56718158D01*
X39924998Y-56761783D01*
X39855500Y-56768977D01*
X39793145Y-56737454D01*
X39776425Y-56718158D01*
X39646494Y-56532597D01*
X39479402Y-56365506D01*
X39479395Y-56365501D01*
X39460319Y-56352144D01*
X39440521Y-56338281D01*
X39285834Y-56229967D01*
X39285830Y-56229965D01*
X39252487Y-56214417D01*
X39071663Y-56130097D01*
X39071659Y-56130096D01*
X39071655Y-56130094D01*
X38843413Y-56068938D01*
X38843403Y-56068936D01*
X38608001Y-56048341D01*
X38607999Y-56048341D01*
X38372596Y-56068936D01*
X38372586Y-56068938D01*
X38144344Y-56130094D01*
X38144335Y-56130098D01*
X37930171Y-56229964D01*
X37930169Y-56229965D01*
X37736597Y-56365505D01*
X37569505Y-56532597D01*
X37439575Y-56718158D01*
X37384998Y-56761783D01*
X37315500Y-56768977D01*
X37253145Y-56737454D01*
X37236425Y-56718158D01*
X37106494Y-56532597D01*
X36939402Y-56365506D01*
X36939395Y-56365501D01*
X36920319Y-56352144D01*
X36900521Y-56338281D01*
X36745834Y-56229967D01*
X36745830Y-56229965D01*
X36712487Y-56214417D01*
X36531663Y-56130097D01*
X36531659Y-56130096D01*
X36531655Y-56130094D01*
X36303413Y-56068938D01*
X36303403Y-56068936D01*
X36068001Y-56048341D01*
X36067999Y-56048341D01*
X35832596Y-56068936D01*
X35832586Y-56068938D01*
X35604344Y-56130094D01*
X35604335Y-56130098D01*
X35390171Y-56229964D01*
X35390169Y-56229965D01*
X35196597Y-56365505D01*
X35029505Y-56532597D01*
X34893965Y-56726169D01*
X34893964Y-56726171D01*
X34794098Y-56940335D01*
X34794094Y-56940344D01*
X34732938Y-57168586D01*
X34732936Y-57168596D01*
X34712341Y-57403999D01*
X34712341Y-57404000D01*
X34732936Y-57639403D01*
X34732938Y-57639413D01*
X34794094Y-57867655D01*
X34794096Y-57867659D01*
X34794097Y-57867663D01*
X34884116Y-58060708D01*
X34893965Y-58081830D01*
X34893967Y-58081834D01*
X34965223Y-58183597D01*
X35029505Y-58275401D01*
X35196599Y-58442495D01*
X35289813Y-58507764D01*
X35390168Y-58578034D01*
X35390170Y-58578035D01*
X35574145Y-58663824D01*
X35579006Y-58666223D01*
X35586926Y-58670350D01*
X35586929Y-58670351D01*
X35588857Y-58671186D01*
X35597393Y-58674665D01*
X35604327Y-58677899D01*
X35604330Y-58677900D01*
X35604337Y-58677903D01*
X35617130Y-58681330D01*
X35626095Y-58684101D01*
X36889898Y-59127775D01*
X36936504Y-59157094D01*
X52871075Y-75091665D01*
X52904560Y-75152988D01*
X52899576Y-75222680D01*
X52871076Y-75267027D01*
X52809503Y-75328600D01*
X52679575Y-75514158D01*
X52624998Y-75557783D01*
X52555500Y-75564977D01*
X52493145Y-75533454D01*
X52476425Y-75514158D01*
X52346494Y-75328597D01*
X52179402Y-75161506D01*
X52179395Y-75161501D01*
X51985834Y-75025967D01*
X51985830Y-75025965D01*
X51985828Y-75025964D01*
X51771663Y-74926097D01*
X51771659Y-74926096D01*
X51771655Y-74926094D01*
X51543413Y-74864938D01*
X51543403Y-74864936D01*
X51308001Y-74844341D01*
X51307999Y-74844341D01*
X51072596Y-74864936D01*
X51072586Y-74864938D01*
X50844344Y-74926094D01*
X50844335Y-74926098D01*
X50630171Y-75025964D01*
X50630169Y-75025965D01*
X50436597Y-75161505D01*
X50269505Y-75328597D01*
X50139575Y-75514158D01*
X50084998Y-75557783D01*
X50015500Y-75564977D01*
X49953145Y-75533454D01*
X49936425Y-75514158D01*
X49806494Y-75328597D01*
X49639402Y-75161506D01*
X49639395Y-75161501D01*
X49445834Y-75025967D01*
X49445830Y-75025965D01*
X49445828Y-75025964D01*
X49231663Y-74926097D01*
X49231659Y-74926096D01*
X49231655Y-74926094D01*
X49003413Y-74864938D01*
X49003403Y-74864936D01*
X48768001Y-74844341D01*
X48767999Y-74844341D01*
X48532596Y-74864936D01*
X48532586Y-74864938D01*
X48304344Y-74926094D01*
X48304335Y-74926098D01*
X48090171Y-75025964D01*
X48090169Y-75025965D01*
X47896597Y-75161505D01*
X47729505Y-75328597D01*
X47599575Y-75514158D01*
X47544998Y-75557783D01*
X47475500Y-75564977D01*
X47413145Y-75533454D01*
X47396425Y-75514158D01*
X47266494Y-75328597D01*
X47099402Y-75161506D01*
X47099395Y-75161501D01*
X46905834Y-75025967D01*
X46905830Y-75025965D01*
X46905828Y-75025964D01*
X46691663Y-74926097D01*
X46691659Y-74926096D01*
X46691655Y-74926094D01*
X46463413Y-74864938D01*
X46463403Y-74864936D01*
X46228001Y-74844341D01*
X46227999Y-74844341D01*
X45992596Y-74864936D01*
X45992586Y-74864938D01*
X45764344Y-74926094D01*
X45764335Y-74926098D01*
X45550171Y-75025964D01*
X45550169Y-75025965D01*
X45356597Y-75161505D01*
X45189505Y-75328597D01*
X45059575Y-75514158D01*
X45004998Y-75557783D01*
X44935500Y-75564977D01*
X44873145Y-75533454D01*
X44856425Y-75514158D01*
X44726494Y-75328597D01*
X44559402Y-75161506D01*
X44559395Y-75161501D01*
X44365834Y-75025967D01*
X44365830Y-75025965D01*
X44365828Y-75025964D01*
X44151663Y-74926097D01*
X44151659Y-74926096D01*
X44151655Y-74926094D01*
X43923413Y-74864938D01*
X43923403Y-74864936D01*
X43688001Y-74844341D01*
X43687999Y-74844341D01*
X43452596Y-74864936D01*
X43452586Y-74864938D01*
X43224344Y-74926094D01*
X43224335Y-74926098D01*
X43010171Y-75025964D01*
X43010169Y-75025965D01*
X42816597Y-75161505D01*
X42649505Y-75328597D01*
X42519575Y-75514158D01*
X42464998Y-75557783D01*
X42395500Y-75564977D01*
X42333145Y-75533454D01*
X42316425Y-75514158D01*
X42186494Y-75328597D01*
X42019402Y-75161506D01*
X42019395Y-75161501D01*
X41825834Y-75025967D01*
X41825830Y-75025965D01*
X41825828Y-75025964D01*
X41611663Y-74926097D01*
X41611659Y-74926096D01*
X41611655Y-74926094D01*
X41383413Y-74864938D01*
X41383403Y-74864936D01*
X41148001Y-74844341D01*
X41147999Y-74844341D01*
X40912596Y-74864936D01*
X40912586Y-74864938D01*
X40684344Y-74926094D01*
X40684335Y-74926098D01*
X40470171Y-75025964D01*
X40470169Y-75025965D01*
X40276597Y-75161505D01*
X40109505Y-75328597D01*
X39979575Y-75514158D01*
X39924998Y-75557783D01*
X39855500Y-75564977D01*
X39793145Y-75533454D01*
X39776425Y-75514158D01*
X39646494Y-75328597D01*
X39479402Y-75161506D01*
X39479395Y-75161501D01*
X39285834Y-75025967D01*
X39285830Y-75025965D01*
X39285828Y-75025964D01*
X39071663Y-74926097D01*
X39071659Y-74926096D01*
X39071655Y-74926094D01*
X38843413Y-74864938D01*
X38843403Y-74864936D01*
X38608001Y-74844341D01*
X38607999Y-74844341D01*
X38372596Y-74864936D01*
X38372586Y-74864938D01*
X38144344Y-74926094D01*
X38144335Y-74926098D01*
X37930171Y-75025964D01*
X37930169Y-75025965D01*
X37736597Y-75161505D01*
X37569505Y-75328597D01*
X37439575Y-75514158D01*
X37384998Y-75557783D01*
X37315500Y-75564977D01*
X37253145Y-75533454D01*
X37236425Y-75514158D01*
X37106494Y-75328597D01*
X36939402Y-75161506D01*
X36939395Y-75161501D01*
X36745834Y-75025967D01*
X36745830Y-75025965D01*
X36745828Y-75025964D01*
X36531663Y-74926097D01*
X36531659Y-74926096D01*
X36531655Y-74926094D01*
X36303413Y-74864938D01*
X36303403Y-74864936D01*
X36068001Y-74844341D01*
X36067999Y-74844341D01*
X35832596Y-74864936D01*
X35832586Y-74864938D01*
X35604344Y-74926094D01*
X35604335Y-74926098D01*
X35390171Y-75025964D01*
X35390169Y-75025965D01*
X35196600Y-75161503D01*
X35074284Y-75283819D01*
X35012961Y-75317303D01*
X34943269Y-75312319D01*
X34887336Y-75270447D01*
X34870422Y-75239472D01*
X34862721Y-75218828D01*
X34010961Y-76070588D01*
X33993925Y-76007007D01*
X33928099Y-75892993D01*
X33835007Y-75799901D01*
X33720993Y-75734075D01*
X33657410Y-75717037D01*
X34509170Y-74865276D01*
X34485373Y-74856401D01*
X34425844Y-74850000D01*
X32630155Y-74850000D01*
X32570624Y-74856401D01*
X32570622Y-74856402D01*
X32546828Y-74865276D01*
X32546828Y-74865277D01*
X33398588Y-75717037D01*
X33335007Y-75734075D01*
X33220993Y-75799901D01*
X33127901Y-75892993D01*
X33062075Y-76007007D01*
X33045037Y-76070589D01*
X32193277Y-75218829D01*
X32193274Y-75218829D01*
X32184404Y-75242615D01*
X32184401Y-75242625D01*
X32178000Y-75302157D01*
X30734000Y-75302157D01*
X30734000Y-33646135D01*
X37257500Y-33646135D01*
X37257500Y-35441870D01*
X37257501Y-35441876D01*
X37263908Y-35501483D01*
X37314202Y-35636328D01*
X37314206Y-35636335D01*
X37400452Y-35751544D01*
X37400455Y-35751547D01*
X37515664Y-35837793D01*
X37515671Y-35837797D01*
X37650517Y-35888091D01*
X37650516Y-35888091D01*
X37657444Y-35888835D01*
X37710127Y-35894500D01*
X39505872Y-35894499D01*
X39565483Y-35888091D01*
X39700331Y-35837796D01*
X39815546Y-35751546D01*
X39901796Y-35636331D01*
X39950810Y-35504916D01*
X39992681Y-35448984D01*
X40058145Y-35424566D01*
X40126418Y-35439417D01*
X40154673Y-35460569D01*
X40276599Y-35582495D01*
X40373384Y-35650265D01*
X40470165Y-35718032D01*
X40470167Y-35718033D01*
X40470170Y-35718035D01*
X40684337Y-35817903D01*
X40912592Y-35879063D01*
X41089034Y-35894500D01*
X41147999Y-35899659D01*
X41148000Y-35899659D01*
X41148001Y-35899659D01*
X41206966Y-35894500D01*
X41383408Y-35879063D01*
X41611663Y-35817903D01*
X41825830Y-35718035D01*
X42019401Y-35582495D01*
X42186495Y-35415401D01*
X42316425Y-35229842D01*
X42371002Y-35186217D01*
X42440500Y-35179023D01*
X42502855Y-35210546D01*
X42519575Y-35229842D01*
X42649500Y-35415395D01*
X42649505Y-35415401D01*
X42816599Y-35582495D01*
X42913384Y-35650265D01*
X43010165Y-35718032D01*
X43010167Y-35718033D01*
X43010170Y-35718035D01*
X43224337Y-35817903D01*
X43452592Y-35879063D01*
X43629034Y-35894500D01*
X43687999Y-35899659D01*
X43688000Y-35899659D01*
X43688001Y-35899659D01*
X43746966Y-35894500D01*
X43923408Y-35879063D01*
X44151663Y-35817903D01*
X44365830Y-35718035D01*
X44559401Y-35582495D01*
X44726495Y-35415401D01*
X44862035Y-35221830D01*
X44961903Y-35007663D01*
X45023063Y-34779408D01*
X45043659Y-34544000D01*
X45023063Y-34308592D01*
X44961903Y-34080337D01*
X44862035Y-33866171D01*
X44856425Y-33858158D01*
X44726494Y-33672597D01*
X44559402Y-33505506D01*
X44559395Y-33505501D01*
X44555840Y-33503012D01*
X44482518Y-33451671D01*
X44365834Y-33369967D01*
X44365830Y-33369965D01*
X44365828Y-33369964D01*
X44151663Y-33270097D01*
X44151659Y-33270096D01*
X44151655Y-33270094D01*
X43923413Y-33208938D01*
X43923403Y-33208936D01*
X43688001Y-33188341D01*
X43687999Y-33188341D01*
X43452596Y-33208936D01*
X43452586Y-33208938D01*
X43224344Y-33270094D01*
X43224335Y-33270098D01*
X43010171Y-33369964D01*
X43010169Y-33369965D01*
X42816597Y-33505505D01*
X42649505Y-33672597D01*
X42519575Y-33858158D01*
X42464998Y-33901783D01*
X42395500Y-33908977D01*
X42333145Y-33877454D01*
X42316425Y-33858158D01*
X42186494Y-33672597D01*
X42019402Y-33505506D01*
X42019395Y-33505501D01*
X42015840Y-33503012D01*
X41942518Y-33451671D01*
X41825834Y-33369967D01*
X41825830Y-33369965D01*
X41825828Y-33369964D01*
X41611663Y-33270097D01*
X41611659Y-33270096D01*
X41611655Y-33270094D01*
X41383413Y-33208938D01*
X41383403Y-33208936D01*
X41148001Y-33188341D01*
X41147999Y-33188341D01*
X40912596Y-33208936D01*
X40912586Y-33208938D01*
X40684344Y-33270094D01*
X40684335Y-33270098D01*
X40470171Y-33369964D01*
X40470169Y-33369965D01*
X40276600Y-33505503D01*
X40154673Y-33627430D01*
X40093350Y-33660914D01*
X40023658Y-33655930D01*
X39967725Y-33614058D01*
X39950810Y-33583081D01*
X39901797Y-33451671D01*
X39901793Y-33451664D01*
X39815547Y-33336455D01*
X39815544Y-33336452D01*
X39700335Y-33250206D01*
X39700328Y-33250202D01*
X39565482Y-33199908D01*
X39565483Y-33199908D01*
X39505883Y-33193501D01*
X39505881Y-33193500D01*
X39505873Y-33193500D01*
X39505864Y-33193500D01*
X37710129Y-33193500D01*
X37710123Y-33193501D01*
X37650516Y-33199908D01*
X37515671Y-33250202D01*
X37515664Y-33250206D01*
X37400455Y-33336452D01*
X37400452Y-33336455D01*
X37314206Y-33451664D01*
X37314202Y-33451671D01*
X37263908Y-33586517D01*
X37257501Y-33646116D01*
X37257500Y-33646135D01*
X30734000Y-33646135D01*
X30734000Y-30604000D01*
X30753685Y-30536961D01*
X30806489Y-30491206D01*
X30858000Y-30480000D01*
X114430000Y-30480000D01*
X114497039Y-30499685D01*
G37*
%TD.AperFunction*%
%TD*%
%TA.AperFunction,Conductor*%
%TO.N,D7*%
G36*
X95921251Y-74911968D02*
G01*
X96403027Y-75081102D01*
X97341629Y-75410611D01*
X97348300Y-75416584D01*
X97348792Y-75425526D01*
X97348567Y-75426116D01*
X97030562Y-76196214D01*
X97024237Y-76202553D01*
X97024214Y-76202562D01*
X96254116Y-76520567D01*
X96245161Y-76520558D01*
X96238836Y-76514219D01*
X96238611Y-76513629D01*
X96128755Y-76200707D01*
X95852818Y-75414702D01*
X95739968Y-75093251D01*
X95740460Y-75084309D01*
X95742731Y-75081105D01*
X95909103Y-74914733D01*
X95917375Y-74911307D01*
X95921251Y-74911968D01*
G37*
%TD.AperFunction*%
%TD*%
%TA.AperFunction,Conductor*%
%TO.N,~{CS2}*%
G36*
X63148834Y-64232643D02*
G01*
X64254964Y-64645149D01*
X64261518Y-64651251D01*
X64261839Y-64660200D01*
X64261692Y-64660575D01*
X64010562Y-65269209D01*
X64004238Y-65275549D01*
X64004209Y-65275562D01*
X63395575Y-65526692D01*
X63386620Y-65526679D01*
X63380296Y-65520339D01*
X63380149Y-65519964D01*
X63288313Y-65273707D01*
X62967644Y-64413836D01*
X62967965Y-64404890D01*
X62970331Y-64401481D01*
X63136479Y-64235333D01*
X63144751Y-64231907D01*
X63148834Y-64232643D01*
G37*
%TD.AperFunction*%
%TD*%
%TA.AperFunction,Conductor*%
%TO.N,FLT*%
G36*
X66673188Y-51222626D02*
G01*
X66675859Y-51226762D01*
X66913553Y-51855543D01*
X66913273Y-51864493D01*
X66907111Y-51870479D01*
X66552504Y-52018322D01*
X66543550Y-52018343D01*
X66543500Y-52018322D01*
X66188892Y-51870479D01*
X66182574Y-51864132D01*
X66182450Y-51855544D01*
X66420141Y-51226761D01*
X66426272Y-51220235D01*
X66431085Y-51219199D01*
X66664915Y-51219199D01*
X66673188Y-51222626D01*
G37*
%TD.AperFunction*%
%TD*%
%TA.AperFunction,Conductor*%
%TO.N,3V3*%
G36*
X111896498Y-56174955D02*
G01*
X111902141Y-56180956D01*
X112050123Y-56535898D01*
X112050144Y-56544852D01*
X112050123Y-56544902D01*
X111902443Y-56899119D01*
X111896096Y-56905437D01*
X111887142Y-56905416D01*
X111887108Y-56905402D01*
X111263216Y-56643012D01*
X111256919Y-56636646D01*
X111256052Y-56632227D01*
X111256052Y-56398367D01*
X111259479Y-56390094D01*
X111263968Y-56387297D01*
X111887564Y-56174386D01*
X111896498Y-56174955D01*
G37*
%TD.AperFunction*%
%TD*%
%TA.AperFunction,Conductor*%
%TO.N,SPI0-TX*%
G36*
X71779200Y-37932479D02*
G01*
X71781542Y-37935831D01*
X72408174Y-39287666D01*
X72408544Y-39296614D01*
X72402480Y-39303202D01*
X72402048Y-39303392D01*
X71632489Y-39623134D01*
X71623534Y-39623143D01*
X71623511Y-39623134D01*
X70854295Y-39303535D01*
X70847970Y-39297196D01*
X70847979Y-39288241D01*
X70848315Y-39287505D01*
X71525165Y-37935514D01*
X71531933Y-37929651D01*
X71535627Y-37929052D01*
X71770927Y-37929052D01*
X71779200Y-37932479D01*
G37*
%TD.AperFunction*%
%TD*%
%TA.AperFunction,Conductor*%
%TO.N,~{CS2}*%
G36*
X62223692Y-62823964D02*
G01*
X62223712Y-62824001D01*
X62832420Y-63917222D01*
X62833451Y-63926118D01*
X62830471Y-63931187D01*
X62663774Y-64097884D01*
X62655501Y-64101311D01*
X62654538Y-64101271D01*
X61272642Y-63987164D01*
X61264679Y-63983068D01*
X61261945Y-63974541D01*
X61262333Y-63972370D01*
X61277668Y-63917222D01*
X61465990Y-63239978D01*
X61471507Y-63232927D01*
X61471515Y-63232921D01*
X62207762Y-62819490D01*
X62216653Y-62818429D01*
X62223692Y-62823964D01*
G37*
%TD.AperFunction*%
%TD*%
%TA.AperFunction,Conductor*%
%TO.N,D4*%
G36*
X47064191Y-57403988D02*
G01*
X47072460Y-57407422D01*
X47075880Y-57415698D01*
X47075720Y-57417619D01*
X46845567Y-58792980D01*
X46842300Y-58799322D01*
X46676151Y-58965471D01*
X46667878Y-58968898D01*
X46659910Y-58965765D01*
X45635831Y-58013293D01*
X45632107Y-58005150D01*
X45635232Y-57996758D01*
X45635492Y-57996487D01*
X46223860Y-57406733D01*
X46232128Y-57403297D01*
X47064191Y-57403988D01*
G37*
%TD.AperFunction*%
%TD*%
%TA.AperFunction,Conductor*%
%TO.N,SPI0-RX*%
G36*
X79373912Y-37927427D02*
G01*
X79376186Y-37930634D01*
X80027950Y-39287586D01*
X80028442Y-39296528D01*
X80022469Y-39303199D01*
X80021892Y-39303457D01*
X79252489Y-39623134D01*
X79243534Y-39623143D01*
X79243511Y-39623134D01*
X78474107Y-39303457D01*
X78467782Y-39297118D01*
X78467791Y-39288163D01*
X78468049Y-39287586D01*
X79119814Y-37930634D01*
X79126485Y-37924661D01*
X79130361Y-37924000D01*
X79365639Y-37924000D01*
X79373912Y-37927427D01*
G37*
%TD.AperFunction*%
%TD*%
%TA.AperFunction,Conductor*%
%TO.N,D2*%
G36*
X83221251Y-74911968D02*
G01*
X83703027Y-75081102D01*
X84641629Y-75410611D01*
X84648300Y-75416584D01*
X84648792Y-75425526D01*
X84648567Y-75426116D01*
X84330562Y-76196214D01*
X84324237Y-76202553D01*
X84324214Y-76202562D01*
X83554116Y-76520567D01*
X83545161Y-76520558D01*
X83538836Y-76514219D01*
X83538611Y-76513629D01*
X83428755Y-76200707D01*
X83152818Y-75414702D01*
X83039968Y-75093251D01*
X83040460Y-75084309D01*
X83042731Y-75081105D01*
X83209103Y-74914733D01*
X83217375Y-74911307D01*
X83221251Y-74911968D01*
G37*
%TD.AperFunction*%
%TD*%
%TA.AperFunction,Conductor*%
%TO.N,D2*%
G36*
X41930789Y-57083461D02*
G01*
X41937114Y-57089800D01*
X41937356Y-57090437D01*
X42430494Y-58514498D01*
X42429963Y-58523437D01*
X42427711Y-58526600D01*
X42261339Y-58692972D01*
X42253066Y-58696399D01*
X42249152Y-58695725D01*
X40834316Y-58193415D01*
X40827666Y-58187417D01*
X40827204Y-58178475D01*
X40827416Y-58177923D01*
X41145438Y-57407783D01*
X41151759Y-57401448D01*
X41921836Y-57083452D01*
X41930789Y-57083461D01*
G37*
%TD.AperFunction*%
%TD*%
%TA.AperFunction,Conductor*%
%TO.N,D5*%
G36*
X90841251Y-74911968D02*
G01*
X91323027Y-75081102D01*
X92261629Y-75410611D01*
X92268300Y-75416584D01*
X92268792Y-75425526D01*
X92268567Y-75426116D01*
X91950562Y-76196214D01*
X91944237Y-76202553D01*
X91944214Y-76202562D01*
X91174116Y-76520567D01*
X91165161Y-76520558D01*
X91158836Y-76514219D01*
X91158611Y-76513629D01*
X91048755Y-76200707D01*
X90772818Y-75414702D01*
X90659968Y-75093251D01*
X90660460Y-75084309D01*
X90662731Y-75081105D01*
X90829103Y-74914733D01*
X90837375Y-74911307D01*
X90841251Y-74911968D01*
G37*
%TD.AperFunction*%
%TD*%
%TA.AperFunction,Conductor*%
%TO.N,D0*%
G36*
X78141251Y-74911968D02*
G01*
X78623027Y-75081102D01*
X79561629Y-75410611D01*
X79568300Y-75416584D01*
X79568792Y-75425526D01*
X79568567Y-75426116D01*
X79250562Y-76196214D01*
X79244237Y-76202553D01*
X79244214Y-76202562D01*
X78474116Y-76520567D01*
X78465161Y-76520558D01*
X78458836Y-76514219D01*
X78458611Y-76513629D01*
X78348755Y-76200707D01*
X78072818Y-75414702D01*
X77959968Y-75093251D01*
X77960460Y-75084309D01*
X77962731Y-75081105D01*
X78129103Y-74914733D01*
X78137375Y-74911307D01*
X78141251Y-74911968D01*
G37*
%TD.AperFunction*%
%TD*%
%TA.AperFunction,Conductor*%
%TO.N,D7*%
G36*
X56392489Y-57404865D02*
G01*
X57161892Y-57724542D01*
X57168217Y-57730881D01*
X57168208Y-57739836D01*
X57167950Y-57740413D01*
X56516186Y-59097366D01*
X56509515Y-59103339D01*
X56505639Y-59104000D01*
X56270361Y-59104000D01*
X56262088Y-59100573D01*
X56259814Y-59097366D01*
X55608049Y-57740413D01*
X55607557Y-57731471D01*
X55613530Y-57724800D01*
X55614095Y-57724547D01*
X56383511Y-57404864D01*
X56392466Y-57404856D01*
X56392489Y-57404865D01*
G37*
%TD.AperFunction*%
%TD*%
%TA.AperFunction,Conductor*%
%TO.N,~{CS2}*%
G36*
X66552489Y-57404865D02*
G01*
X67321892Y-57724542D01*
X67328217Y-57730881D01*
X67328208Y-57739836D01*
X67327950Y-57740413D01*
X66676186Y-59097366D01*
X66669515Y-59103339D01*
X66665639Y-59104000D01*
X66430361Y-59104000D01*
X66422088Y-59100573D01*
X66419814Y-59097366D01*
X65768049Y-57740413D01*
X65767557Y-57731471D01*
X65773530Y-57724800D01*
X65774095Y-57724547D01*
X66543511Y-57404864D01*
X66552466Y-57404856D01*
X66552489Y-57404865D01*
G37*
%TD.AperFunction*%
%TD*%
%TA.AperFunction,Conductor*%
%TO.N,SPI0-CLK*%
G36*
X74319200Y-37932479D02*
G01*
X74321542Y-37935831D01*
X74948174Y-39287666D01*
X74948544Y-39296614D01*
X74942480Y-39303202D01*
X74942048Y-39303392D01*
X74172489Y-39623134D01*
X74163534Y-39623143D01*
X74163511Y-39623134D01*
X73394295Y-39303535D01*
X73387970Y-39297196D01*
X73387979Y-39288241D01*
X73388315Y-39287505D01*
X74065165Y-37935514D01*
X74071933Y-37929651D01*
X74075627Y-37929052D01*
X74310927Y-37929052D01*
X74319200Y-37932479D01*
G37*
%TD.AperFunction*%
%TD*%
%TA.AperFunction,Conductor*%
%TO.N,D6*%
G36*
X53852489Y-57404865D02*
G01*
X54621892Y-57724542D01*
X54628217Y-57730881D01*
X54628208Y-57739836D01*
X54627950Y-57740413D01*
X53976186Y-59097366D01*
X53969515Y-59103339D01*
X53965639Y-59104000D01*
X53730361Y-59104000D01*
X53722088Y-59100573D01*
X53719814Y-59097366D01*
X53068049Y-57740413D01*
X53067557Y-57731471D01*
X53073530Y-57724800D01*
X53074095Y-57724547D01*
X53843511Y-57404864D01*
X53852466Y-57404856D01*
X53852489Y-57404865D01*
G37*
%TD.AperFunction*%
%TD*%
%TA.AperFunction,Conductor*%
%TO.N,~{CS2}*%
G36*
X70889278Y-62930741D02*
G01*
X71624510Y-63234147D01*
X71630849Y-63240469D01*
X71630857Y-63240487D01*
X71934925Y-63975167D01*
X71934922Y-63984121D01*
X71928588Y-63990452D01*
X71928566Y-63990461D01*
X70363685Y-64634354D01*
X70354730Y-64634333D01*
X70348413Y-64627986D01*
X70347533Y-64623534D01*
X70347533Y-64393053D01*
X70348232Y-64389069D01*
X70492577Y-63990452D01*
X70873838Y-62937579D01*
X70879876Y-62930969D01*
X70888822Y-62930564D01*
X70889278Y-62930741D01*
G37*
%TD.AperFunction*%
%TD*%
%TA.AperFunction,Conductor*%
%TO.N,BCK*%
G36*
X61472489Y-39624865D02*
G01*
X62241892Y-39944542D01*
X62248217Y-39950881D01*
X62248208Y-39959836D01*
X62247950Y-39960413D01*
X61596186Y-41317366D01*
X61589515Y-41323339D01*
X61585639Y-41324000D01*
X61350361Y-41324000D01*
X61342088Y-41320573D01*
X61339814Y-41317366D01*
X60688049Y-39960413D01*
X60687557Y-39951471D01*
X60693530Y-39944800D01*
X60694095Y-39944547D01*
X61463511Y-39624864D01*
X61472466Y-39624856D01*
X61472489Y-39624865D01*
G37*
%TD.AperFunction*%
%TD*%
%TA.AperFunction,Conductor*%
%TO.N,D4*%
G36*
X88301251Y-74911968D02*
G01*
X88783027Y-75081102D01*
X89721629Y-75410611D01*
X89728300Y-75416584D01*
X89728792Y-75425526D01*
X89728567Y-75426116D01*
X89410562Y-76196214D01*
X89404237Y-76202553D01*
X89404214Y-76202562D01*
X88634116Y-76520567D01*
X88625161Y-76520558D01*
X88618836Y-76514219D01*
X88618611Y-76513629D01*
X88508755Y-76200707D01*
X88232818Y-75414702D01*
X88119968Y-75093251D01*
X88120460Y-75084309D01*
X88122731Y-75081105D01*
X88289103Y-74914733D01*
X88297375Y-74911307D01*
X88301251Y-74911968D01*
G37*
%TD.AperFunction*%
%TD*%
%TA.AperFunction,Conductor*%
%TO.N,BCK*%
G36*
X61593501Y-47239879D02*
G01*
X61596013Y-47243616D01*
X61858402Y-47867508D01*
X61858450Y-47876463D01*
X61852153Y-47882829D01*
X61852119Y-47882843D01*
X61497902Y-48030523D01*
X61488948Y-48030544D01*
X61488898Y-48030523D01*
X61133956Y-47882541D01*
X61127638Y-47876194D01*
X61127386Y-47867964D01*
X61340296Y-47244372D01*
X61346212Y-47237649D01*
X61351368Y-47236452D01*
X61585228Y-47236452D01*
X61593501Y-47239879D01*
G37*
%TD.AperFunction*%
%TD*%
%TA.AperFunction,Conductor*%
%TO.N,~{CS2}*%
G36*
X66675793Y-61739427D02*
G01*
X66676508Y-61740210D01*
X67291164Y-62477797D01*
X67293828Y-62486345D01*
X67290455Y-62493554D01*
X66556279Y-63228709D01*
X66548008Y-63232141D01*
X66539732Y-63228720D01*
X66539721Y-63228709D01*
X65805544Y-62493554D01*
X65802123Y-62485278D01*
X65804833Y-62477799D01*
X66419492Y-61740210D01*
X66427421Y-61736048D01*
X66428480Y-61736000D01*
X66667520Y-61736000D01*
X66675793Y-61739427D01*
G37*
%TD.AperFunction*%
%TD*%
%TA.AperFunction,Conductor*%
%TO.N,D1*%
G36*
X80681251Y-74911968D02*
G01*
X81163027Y-75081102D01*
X82101629Y-75410611D01*
X82108300Y-75416584D01*
X82108792Y-75425526D01*
X82108567Y-75426116D01*
X81790562Y-76196214D01*
X81784237Y-76202553D01*
X81784214Y-76202562D01*
X81014116Y-76520567D01*
X81005161Y-76520558D01*
X80998836Y-76514219D01*
X80998611Y-76513629D01*
X80888755Y-76200707D01*
X80612818Y-75414702D01*
X80499968Y-75093251D01*
X80500460Y-75084309D01*
X80502731Y-75081105D01*
X80669103Y-74914733D01*
X80677375Y-74911307D01*
X80681251Y-74911968D01*
G37*
%TD.AperFunction*%
%TD*%
%TA.AperFunction,Conductor*%
%TO.N,D1*%
G36*
X39390838Y-57083441D02*
G01*
X39397163Y-57089780D01*
X39397388Y-57090370D01*
X39896031Y-58510748D01*
X39895539Y-58519690D01*
X39893265Y-58522897D01*
X39726897Y-58689265D01*
X39718624Y-58692692D01*
X39714748Y-58692031D01*
X38294370Y-58193388D01*
X38287699Y-58187415D01*
X38287207Y-58178473D01*
X38287423Y-58177905D01*
X38605438Y-57407783D01*
X38611759Y-57401448D01*
X39381884Y-57083432D01*
X39390838Y-57083441D01*
G37*
%TD.AperFunction*%
%TD*%
M02*
