%TF.GenerationSoftware,KiCad,Pcbnew,8.0.7*%
%TF.CreationDate,2025-02-06T19:54:10+01:00*%
%TF.ProjectId,Sorbus-Sound,536f7262-7573-42d5-936f-756e642e6b69,rev?*%
%TF.SameCoordinates,Original*%
%TF.FileFunction,Copper,L1,Top*%
%TF.FilePolarity,Positive*%
%FSLAX46Y46*%
G04 Gerber Fmt 4.6, Leading zero omitted, Abs format (unit mm)*
G04 Created by KiCad (PCBNEW 8.0.7) date 2025-02-06 19:54:10*
%MOMM*%
%LPD*%
G01*
G04 APERTURE LIST*
%TA.AperFunction,ComponentPad*%
%ADD10R,1.500000X1.500000*%
%TD*%
%TA.AperFunction,ComponentPad*%
%ADD11O,1.500000X1.500000*%
%TD*%
%TA.AperFunction,ComponentPad*%
%ADD12O,1.700000X1.700000*%
%TD*%
%TA.AperFunction,ComponentPad*%
%ADD13R,1.700000X1.700000*%
%TD*%
%TA.AperFunction,ComponentPad*%
%ADD14C,1.350000*%
%TD*%
%TA.AperFunction,ViaPad*%
%ADD15C,0.800000*%
%TD*%
%TA.AperFunction,Conductor*%
%ADD16C,0.508000*%
%TD*%
%TA.AperFunction,Conductor*%
%ADD17C,0.250000*%
%TD*%
G04 APERTURE END LIST*
D10*
%TO.P,D11,1,K*%
%TO.N,~{CS2}*%
X66548000Y-63236000D03*
D11*
%TO.P,D11,2,A*%
%TO.N,A11*%
X66548000Y-70856000D03*
%TD*%
D10*
%TO.P,D8,1,K*%
%TO.N,~{CS2}*%
X58928000Y-63236000D03*
D11*
%TO.P,D8,2,A*%
%TO.N,A8*%
X58928000Y-70856000D03*
%TD*%
D10*
%TO.P,D13,1,K*%
%TO.N,~{CS2}*%
X71628000Y-63236000D03*
D11*
%TO.P,D13,2,A*%
%TO.N,A13*%
X71628000Y-70856000D03*
%TD*%
D10*
%TO.P,D14,1,K*%
%TO.N,A14*%
X74168000Y-70861000D03*
D11*
%TO.P,D14,2,A*%
%TO.N,CS1*%
X74168000Y-63241000D03*
%TD*%
D10*
%TO.P,D9,1,K*%
%TO.N,~{CS2}*%
X61468000Y-63236000D03*
D11*
%TO.P,D9,2,A*%
%TO.N,A9*%
X61468000Y-70856000D03*
%TD*%
D10*
%TO.P,D15,1,K*%
%TO.N,A15*%
X76708000Y-70866000D03*
D11*
%TO.P,D15,2,A*%
%TO.N,CS1*%
X76708000Y-63246000D03*
%TD*%
D10*
%TO.P,D10,1,K*%
%TO.N,A10*%
X64008000Y-70866000D03*
D11*
%TO.P,D10,2,A*%
%TO.N,CS1*%
X64008000Y-63246000D03*
%TD*%
D10*
%TO.P,D12,1,K*%
%TO.N,A12*%
X69088000Y-70866000D03*
D11*
%TO.P,D12,2,A*%
%TO.N,CS1*%
X69088000Y-63246000D03*
%TD*%
D12*
%TO.P,U1,1,GPIO0*%
%TO.N,D0*%
X36068000Y-57404000D03*
%TO.P,U1,2,GPIO1*%
%TO.N,D1*%
X38608000Y-57404000D03*
%TO.P,U1,3,GPIO2*%
%TO.N,D2*%
X41148000Y-57404000D03*
%TO.P,U1,4,GPIO3*%
%TO.N,D3*%
X43688000Y-57404000D03*
%TO.P,U1,5,GPIO4*%
%TO.N,D4*%
X46228000Y-57404000D03*
D13*
%TO.P,U1,6,GND*%
%TO.N,GND*%
X48768000Y-57404000D03*
D12*
%TO.P,U1,7,GPIO5*%
%TO.N,D5*%
X51308000Y-57404000D03*
%TO.P,U1,8,GPIO6*%
%TO.N,D6*%
X53848000Y-57404000D03*
%TO.P,U1,9,GPIO7*%
%TO.N,D7*%
X56388000Y-57404000D03*
%TO.P,U1,10,GPIO8*%
%TO.N,CLK*%
X58928000Y-57404000D03*
%TO.P,U1,11,GPIO9*%
%TO.N,R{slash}~{W}*%
X61468000Y-57404000D03*
%TO.P,U1,12,GPIO10*%
%TO.N,CS1*%
X64008000Y-57404000D03*
%TO.P,U1,13,GPIO11*%
%TO.N,~{CS2}*%
X66548000Y-57404000D03*
%TO.P,U1,14,GPIO12*%
%TO.N,A0*%
X69088000Y-57404000D03*
D13*
%TO.P,U1,15,GND*%
%TO.N,GND*%
X71628000Y-57404000D03*
D12*
%TO.P,U1,16,GPIO13*%
%TO.N,A1*%
X74168000Y-57404000D03*
%TO.P,U1,17,GPIO14*%
%TO.N,A2*%
X76708000Y-57404000D03*
%TO.P,U1,18,GPIO15*%
%TO.N,A3*%
X79248000Y-57404000D03*
%TO.P,U1,19,GPIO16*%
%TO.N,A4*%
X81788000Y-57404000D03*
%TO.P,U1,20,GPIO17*%
%TO.N,A5*%
X84328000Y-57404000D03*
%TO.P,U1,21,GPIO18*%
%TO.N,A6*%
X84328000Y-39624000D03*
%TO.P,U1,22,GPIO19*%
%TO.N,A7*%
X81788000Y-39624000D03*
%TO.P,U1,23,GPIO20*%
%TO.N,SPI0-RX*%
X79248000Y-39624000D03*
%TO.P,U1,24,GPIO21*%
%TO.N,SPI0-CSn*%
X76708000Y-39624000D03*
%TO.P,U1,25,GPIO22*%
%TO.N,SPI0-CLK*%
X74168000Y-39624000D03*
%TO.P,U1,26,GPIO23*%
%TO.N,SPI0-TX*%
X71628000Y-39624000D03*
%TO.P,U1,27,GPIO24*%
%TO.N,~{RESET}*%
X69088000Y-39624000D03*
%TO.P,U1,28,GPIO25*%
%TO.N,FLT*%
X66548000Y-39624000D03*
D13*
%TO.P,U1,29,AGND*%
%TO.N,GND*%
X64008000Y-39624000D03*
D12*
%TO.P,U1,30,GPIO26_ADC0*%
%TO.N,BCK*%
X61468000Y-39624000D03*
%TO.P,U1,31,GPIO27_ADC1*%
%TO.N,LRCK*%
X58928000Y-39624000D03*
%TO.P,U1,32,GPIO28_ADC2*%
%TO.N,DIN*%
X56388000Y-39624000D03*
%TO.P,U1,33,GPIO29_ADC3*%
%TO.N,DEMP*%
X53848000Y-39624000D03*
%TO.P,U1,34,RUN*%
%TO.N,unconnected-(U1-RUN-Pad34)*%
X51308000Y-39624000D03*
D13*
%TO.P,U1,35,GND*%
%TO.N,GND*%
X48768000Y-39624000D03*
D12*
%TO.P,U1,36,3V3*%
%TO.N,3V3*%
X46228000Y-39624000D03*
%TO.P,U1,37,3V3_EN*%
%TO.N,unconnected-(U1-3V3_EN-Pad37)*%
X43688000Y-39624000D03*
D13*
%TO.P,U1,38,GND*%
%TO.N,GND*%
X41148000Y-39624000D03*
D12*
%TO.P,U1,39,VIN*%
%TO.N,unconnected-(U1-VIN-Pad39)*%
X38608000Y-39624000D03*
%TO.P,U1,40,VBUS*%
%TO.N,5V*%
X36068000Y-39624000D03*
%TD*%
D13*
%TO.P,J2,1,Pin_1*%
%TO.N,5V*%
X38608000Y-34544000D03*
D12*
%TO.P,J2,2,Pin_2*%
%TO.N,VCC*%
X41148000Y-34544000D03*
%TO.P,J2,3,Pin_3*%
%TO.N,3V3*%
X43688000Y-34544000D03*
%TD*%
D13*
%TO.P,J5,1,Pin_1*%
%TO.N,3V3*%
X66573400Y-34137600D03*
D12*
%TO.P,J5,2,Pin_2*%
%TO.N,SPI0-CSn*%
X69113400Y-34137600D03*
%TO.P,J5,3,Pin_3*%
%TO.N,SPI0-TX*%
X71653400Y-34137600D03*
%TO.P,J5,4,Pin_4*%
%TO.N,SPI0-CLK*%
X74193400Y-34137600D03*
%TO.P,J5,5,Pin_5*%
%TO.N,SPI0-RX*%
X76733400Y-34137600D03*
%TO.P,J5,6,Pin_6*%
%TO.N,GND*%
X79273400Y-34137600D03*
%TD*%
D13*
%TO.P,J3,1,Pin_1*%
%TO.N,3V3*%
X112278000Y-67564000D03*
D12*
%TO.P,J3,2,Pin_2*%
%TO.N,GND*%
X109738000Y-67564000D03*
%TO.P,J3,3,Pin_3*%
%TO.N,LRCK*%
X107198000Y-67564000D03*
%TO.P,J3,4,Pin_4*%
%TO.N,DIN*%
X104658000Y-67564000D03*
%TO.P,J3,5,Pin_5*%
%TO.N,BCK*%
X102118000Y-67564000D03*
%TO.P,J3,6,Pin_6*%
%TO.N,/SCK*%
X99578000Y-67564000D03*
%TD*%
D13*
%TO.P,J4,1,Pin_1*%
%TO.N,FLT*%
X99187000Y-61595000D03*
D12*
%TO.P,J4,2,Pin_2*%
%TO.N,DEMP*%
X99187000Y-59055000D03*
%TO.P,J4,3,Pin_3*%
%TO.N,3V3*%
X99187000Y-56515000D03*
%TO.P,J4,4,Pin_4*%
%TO.N,GND*%
X99187000Y-53975000D03*
%TO.P,J4,5,Pin_5*%
%TO.N,unconnected-(J4-Pin_5-Pad5)*%
X99187000Y-51435000D03*
%TO.P,J4,6,Pin_6*%
%TO.N,unconnected-(J4-Pin_6-Pad6)*%
X99187000Y-48895000D03*
%TO.P,J4,7,Pin_7*%
%TO.N,unconnected-(J4-Pin_7-Pad7)*%
X99187000Y-46355000D03*
%TO.P,J4,8,Pin_8*%
%TO.N,unconnected-(J4-Pin_8-Pad8)*%
X99187000Y-43815000D03*
%TO.P,J4,9,Pin_9*%
%TO.N,unconnected-(J4-Pin_9-Pad9)*%
X99187000Y-41275000D03*
%TD*%
D14*
%TO.P,J8,1,Pin_1*%
%TO.N,CS1*%
X58928000Y-65273000D03*
%TD*%
D13*
%TO.P,J1,1,Pin_1*%
%TO.N,GND*%
X33528000Y-76200000D03*
D12*
%TO.P,J1,2,Pin_2*%
%TO.N,VCC*%
X36068000Y-76200000D03*
%TO.P,J1,3,Pin_3*%
%TO.N,A0*%
X38608000Y-76200000D03*
%TO.P,J1,4,Pin_4*%
%TO.N,A1*%
X41148000Y-76200000D03*
%TO.P,J1,5,Pin_5*%
%TO.N,A2*%
X43688000Y-76200000D03*
%TO.P,J1,6,Pin_6*%
%TO.N,A3*%
X46228000Y-76200000D03*
%TO.P,J1,7,Pin_7*%
%TO.N,A4*%
X48768000Y-76200000D03*
%TO.P,J1,8,Pin_8*%
%TO.N,A5*%
X51308000Y-76200000D03*
%TO.P,J1,9,Pin_9*%
%TO.N,A6*%
X53848000Y-76200000D03*
%TO.P,J1,10,Pin_10*%
%TO.N,A7*%
X56388000Y-76200000D03*
%TO.P,J1,11,Pin_11*%
%TO.N,A8*%
X58928000Y-76200000D03*
%TO.P,J1,12,Pin_12*%
%TO.N,A9*%
X61468000Y-76200000D03*
%TO.P,J1,13,Pin_13*%
%TO.N,A10*%
X64008000Y-76200000D03*
%TO.P,J1,14,Pin_14*%
%TO.N,A11*%
X66548000Y-76200000D03*
%TO.P,J1,15,Pin_15*%
%TO.N,A12*%
X69088000Y-76200000D03*
%TO.P,J1,16,Pin_16*%
%TO.N,A13*%
X71628000Y-76200000D03*
%TO.P,J1,17,Pin_17*%
%TO.N,A14*%
X74168000Y-76200000D03*
%TO.P,J1,18,Pin_18*%
%TO.N,A15*%
X76708000Y-76200000D03*
%TO.P,J1,19,Pin_19*%
%TO.N,D0*%
X79248000Y-76200000D03*
%TO.P,J1,20,Pin_20*%
%TO.N,D1*%
X81788000Y-76200000D03*
%TO.P,J1,21,Pin_21*%
%TO.N,D2*%
X84328000Y-76200000D03*
%TO.P,J1,22,Pin_22*%
%TO.N,D3*%
X86868000Y-76200000D03*
%TO.P,J1,23,Pin_23*%
%TO.N,D4*%
X89408000Y-76200000D03*
%TO.P,J1,24,Pin_24*%
%TO.N,D5*%
X91948000Y-76200000D03*
%TO.P,J1,25,Pin_25*%
%TO.N,D6*%
X94488000Y-76200000D03*
%TO.P,J1,26,Pin_26*%
%TO.N,D7*%
X97028000Y-76200000D03*
%TO.P,J1,27,Pin_27*%
%TO.N,R{slash}~{W}*%
X99568000Y-76200000D03*
%TO.P,J1,28,Pin_28*%
%TO.N,CLK*%
X102108000Y-76200000D03*
%TO.P,J1,29,Pin_29*%
%TO.N,/RDY*%
X104648000Y-76200000D03*
%TO.P,J1,30,Pin_30*%
%TO.N,/~{IRQ}*%
X107188000Y-76200000D03*
%TO.P,J1,31,Pin_31*%
%TO.N,/~{NMI}*%
X109728000Y-76200000D03*
%TO.P,J1,32,Pin_32*%
%TO.N,~{RESET}*%
X112268000Y-76200000D03*
%TD*%
D14*
%TO.P,J11,1,Pin_1*%
%TO.N,CS1*%
X66598800Y-65278000D03*
%TD*%
%TO.P,J9,1,Pin_1*%
%TO.N,CS1*%
X61518800Y-65278000D03*
%TD*%
%TO.P,J10,1,Pin_1*%
%TO.N,~{CS2}*%
X64008000Y-65273000D03*
%TD*%
D15*
%TO.N,3V3*%
X112051000Y-56540400D03*
%TO.N,A6*%
X85648800Y-59436000D03*
%TO.N,A7*%
X83058012Y-63499992D03*
%TO.N,GND*%
X76708000Y-44551600D03*
X50165000Y-65151000D03*
X77724000Y-36322000D03*
X88900000Y-74371200D03*
X39116000Y-59182000D03*
X84048600Y-69494400D03*
X52070000Y-69596000D03*
X78841600Y-70764400D03*
X55372000Y-62484000D03*
X100000000Y-65000000D03*
X86309200Y-74371200D03*
X53340000Y-68326002D03*
X51435000Y-66421000D03*
X110388400Y-58013600D03*
X103327200Y-60500000D03*
X103378000Y-65278000D03*
X72923400Y-36296600D03*
X100838000Y-74371200D03*
X82403927Y-65213976D03*
X47625000Y-65151000D03*
X85623400Y-68681600D03*
X48895000Y-63881000D03*
X87401400Y-67767200D03*
X98298000Y-74371200D03*
X44196000Y-59182000D03*
X65773000Y-42513134D03*
X80000000Y-60000000D03*
X93952400Y-74371200D03*
X50800000Y-70866000D03*
X74015600Y-42164000D03*
X81737200Y-44551600D03*
X55000000Y-42500000D03*
X46355000Y-66421000D03*
X50165000Y-67691000D03*
X79248000Y-44551600D03*
X105968800Y-65278000D03*
X41656000Y-59182000D03*
X91440000Y-74371200D03*
X48895000Y-66421000D03*
X54610000Y-60706000D03*
X48895000Y-68961000D03*
X47625000Y-67691000D03*
X84378800Y-44551600D03*
%TO.N,FLT*%
X66548002Y-52019199D03*
%TO.N,BCK*%
X61493400Y-48031400D03*
%TD*%
D16*
%TO.N,VCC*%
X34163000Y-74295000D02*
X34163000Y-36322000D01*
X34163000Y-36322000D02*
X37465000Y-33020000D01*
X37465000Y-33020000D02*
X39751000Y-33020000D01*
X41148000Y-34417000D02*
X41148000Y-34544000D01*
X39751000Y-33020000D02*
X41148000Y-34417000D01*
X36068000Y-76200000D02*
X34163000Y-74295000D01*
D17*
%TO.N,R{slash}~{W}*%
X61468000Y-57404000D02*
X64414400Y-54457600D01*
X84173503Y-54457600D02*
X99568000Y-69852097D01*
X64414400Y-54457600D02*
X84173503Y-54457600D01*
X99568000Y-69852097D02*
X99568000Y-76200000D01*
%TO.N,CLK*%
X102108000Y-71245604D02*
X100850000Y-69987604D01*
X102108000Y-76200000D02*
X102108000Y-71245604D01*
X63042800Y-53289200D02*
X58928000Y-57404000D01*
X85090000Y-53289200D02*
X63042800Y-53289200D01*
X97900400Y-66099600D02*
X85090000Y-53289200D01*
X100850000Y-69987604D02*
X100850000Y-66850000D01*
X100099600Y-66099600D02*
X97900400Y-66099600D01*
X100850000Y-66850000D02*
X100099600Y-66099600D01*
%TO.N,~{RESET}*%
X110998000Y-74930000D02*
X110998000Y-60642408D01*
X69088000Y-39624000D02*
X70485000Y-41021000D01*
X87579200Y-41021000D02*
X71323200Y-41021000D01*
X70485000Y-41021000D02*
X71323200Y-41021000D01*
X110998000Y-60642408D02*
X100495192Y-50139600D01*
X100495192Y-50139600D02*
X96697800Y-50139600D01*
X96697800Y-50139600D02*
X87579200Y-41021000D01*
X112268000Y-76200000D02*
X110998000Y-74930000D01*
D16*
%TO.N,3V3*%
X106807000Y-37719000D02*
X112051000Y-42963000D01*
X43688000Y-34544000D02*
X46228000Y-37084000D01*
X112278000Y-67564000D02*
X112268000Y-67554000D01*
X46228000Y-37719000D02*
X66573400Y-37719000D01*
X112278000Y-67564000D02*
X112278000Y-67066000D01*
X66573400Y-37719000D02*
X106807000Y-37719000D01*
X46228000Y-37084000D02*
X46228000Y-39624000D01*
X112051000Y-42963000D02*
X112051000Y-56540400D01*
X112051000Y-66839000D02*
X112051000Y-56540400D01*
X66573400Y-34137600D02*
X66573400Y-37719000D01*
X112278000Y-67066000D02*
X112051000Y-66839000D01*
%TO.N,5V*%
X36068000Y-37084000D02*
X36068000Y-39624000D01*
X38608000Y-34544000D02*
X36068000Y-37084000D01*
D17*
%TO.N,A0*%
X38608000Y-72898000D02*
X52578000Y-58928000D01*
X69088000Y-57404000D02*
X67564000Y-58928000D01*
X52578000Y-58928000D02*
X66243200Y-58928000D01*
X38608000Y-76200000D02*
X38608000Y-72898000D01*
X67564000Y-58928000D02*
X66243200Y-58928000D01*
%TO.N,A8*%
X58928000Y-76200000D02*
X58928000Y-70856000D01*
%TO.N,CS1*%
X58928000Y-65273000D02*
X61513800Y-65273000D01*
X76703000Y-63241000D02*
X76708000Y-63246000D01*
X66040000Y-65278000D02*
X66598800Y-65278000D01*
X74168000Y-63241000D02*
X72893000Y-64516000D01*
X72893000Y-64516000D02*
X70358000Y-64516000D01*
X67061000Y-65273000D02*
X66548000Y-65273000D01*
X69088000Y-63246000D02*
X67056000Y-65278000D01*
X61513800Y-65273000D02*
X61518800Y-65278000D01*
X70358000Y-64516000D02*
X69088000Y-63246000D01*
X67056000Y-65278000D02*
X66598800Y-65278000D01*
X61976000Y-65278000D02*
X61518800Y-65278000D01*
X64008000Y-63246000D02*
X66040000Y-65278000D01*
X74168000Y-63241000D02*
X76703000Y-63241000D01*
X64008000Y-63246000D02*
X61976000Y-65278000D01*
%TO.N,A9*%
X61468000Y-70856000D02*
X61468000Y-76200000D01*
%TO.N,A1*%
X41148000Y-76200000D02*
X41148000Y-72898000D01*
X74168000Y-57404000D02*
X71755000Y-59817000D01*
X54229000Y-59817000D02*
X70205600Y-59817000D01*
X41148000Y-72898000D02*
X54229000Y-59817000D01*
X71755000Y-59817000D02*
X70205600Y-59817000D01*
%TO.N,A2*%
X43688000Y-72898000D02*
X55880000Y-60706000D01*
X73406000Y-60706000D02*
X71272400Y-60706000D01*
X76708000Y-57404000D02*
X73406000Y-60706000D01*
X55880000Y-60706000D02*
X71272400Y-60706000D01*
X43688000Y-76200000D02*
X43688000Y-72898000D01*
%TO.N,A3*%
X57531000Y-61595000D02*
X46228000Y-72898000D01*
X79248000Y-57404000D02*
X75057000Y-61595000D01*
X71932800Y-61595000D02*
X57531000Y-61595000D01*
X46228000Y-72898000D02*
X46228000Y-76200000D01*
X75057000Y-61595000D02*
X71932800Y-61595000D01*
%TO.N,A4*%
X48768000Y-76200000D02*
X48768000Y-75354656D01*
X57447656Y-66675000D02*
X75311000Y-66675000D01*
X81788000Y-60198000D02*
X75311000Y-66675000D01*
X81788000Y-57404000D02*
X81788000Y-60198000D01*
X48768000Y-75354656D02*
X57447656Y-66675000D01*
%TO.N,A5*%
X51308000Y-74168000D02*
X51308000Y-76200000D01*
X75946000Y-67691000D02*
X57785000Y-67691000D01*
X84328000Y-57404000D02*
X84328000Y-59309000D01*
X84328000Y-59309000D02*
X75946000Y-67691000D01*
X57785000Y-67691000D02*
X51308000Y-74168000D01*
%TO.N,A6*%
X76504800Y-68580000D02*
X85648800Y-59436000D01*
X53848000Y-72898000D02*
X58166000Y-68580000D01*
X58166000Y-68580000D02*
X76504800Y-68580000D01*
X53848000Y-76200000D02*
X53848000Y-72898000D01*
%TO.N,A7*%
X56388000Y-76200000D02*
X56388000Y-71628000D01*
X58547000Y-69469000D02*
X77089000Y-69469000D01*
X83058008Y-63499992D02*
X83058012Y-63499992D01*
X56388000Y-71628000D02*
X58547000Y-69469000D01*
X77089000Y-69469000D02*
X83058008Y-63499992D01*
%TO.N,A12*%
X69088000Y-76200000D02*
X69088000Y-70866000D01*
%TO.N,A10*%
X64008000Y-76200000D02*
X64008000Y-70866000D01*
%TO.N,A11*%
X66548000Y-70856000D02*
X66548000Y-76200000D01*
%TO.N,A13*%
X71628000Y-70856000D02*
X71628000Y-76200000D01*
%TO.N,A14*%
X74168000Y-76200000D02*
X74168000Y-70861000D01*
%TO.N,A15*%
X76708000Y-70866000D02*
X76708000Y-76200000D01*
%TO.N,FLT*%
X95224600Y-61595000D02*
X85648799Y-52019199D01*
X99187000Y-61595000D02*
X95224600Y-61595000D01*
X85648799Y-52019199D02*
X66548002Y-52019199D01*
%TO.N,LRCK*%
X107198000Y-67564000D02*
X107198000Y-59446000D01*
X96672400Y-52679600D02*
X87376000Y-43383200D01*
X100431600Y-52679600D02*
X96672400Y-52679600D01*
X107198000Y-59446000D02*
X100431600Y-52679600D01*
X87376000Y-43383200D02*
X62687200Y-43383200D01*
X62687200Y-43383200D02*
X58928000Y-39624000D01*
%TO.N,BCK*%
X102118000Y-59700000D02*
X100177601Y-57759600D01*
X96570800Y-57759600D02*
X86842600Y-48031400D01*
X100177601Y-57759600D02*
X96570800Y-57759600D01*
X102118000Y-67564000D02*
X102118000Y-59700000D01*
X86842600Y-48031400D02*
X61493400Y-48031400D01*
%TO.N,DIN*%
X87122000Y-45669200D02*
X62433200Y-45669200D01*
X104658000Y-59547600D02*
X100330000Y-55219600D01*
X62433200Y-45669200D02*
X56388000Y-39624000D01*
X96672400Y-55219600D02*
X87122000Y-45669200D01*
X104658000Y-67564000D02*
X104658000Y-59547600D01*
X100330000Y-55219600D02*
X96672400Y-55219600D01*
%TO.N,DEMP*%
X60934600Y-50139600D02*
X86360000Y-50139600D01*
X86360000Y-50139600D02*
X95275400Y-59055000D01*
X53848000Y-43053000D02*
X60934600Y-50139600D01*
X95275400Y-59055000D02*
X99187000Y-59055000D01*
X53848000Y-39624000D02*
X53848000Y-43053000D01*
%TD*%
%TA.AperFunction,Conductor*%
%TO.N,A1*%
G36*
X73394106Y-57083428D02*
G01*
X74164215Y-57401438D01*
X74170552Y-57407761D01*
X74170562Y-57407785D01*
X74488567Y-58177883D01*
X74488558Y-58186838D01*
X74482219Y-58193163D01*
X74481629Y-58193388D01*
X73061251Y-58692031D01*
X73052309Y-58691539D01*
X73049102Y-58689265D01*
X72882734Y-58522897D01*
X72879307Y-58514624D01*
X72879968Y-58510748D01*
X72991461Y-58193163D01*
X73378612Y-57090368D01*
X73384584Y-57083699D01*
X73393526Y-57083207D01*
X73394106Y-57083428D01*
G37*
%TD.AperFunction*%
%TD*%
%TA.AperFunction,Conductor*%
%TO.N,A13*%
G36*
X72309620Y-71138320D02*
G01*
X72315944Y-71144660D01*
X72315933Y-71153615D01*
X72315725Y-71154085D01*
X71756155Y-72349261D01*
X71749544Y-72355301D01*
X71745559Y-72356000D01*
X71510441Y-72356000D01*
X71502168Y-72352573D01*
X71499845Y-72349261D01*
X70940274Y-71154085D01*
X70939869Y-71145139D01*
X70945909Y-71138528D01*
X70946354Y-71138330D01*
X71623510Y-70856865D01*
X71632462Y-70856855D01*
X72309620Y-71138320D01*
G37*
%TD.AperFunction*%
%TD*%
%TA.AperFunction,Conductor*%
%TO.N,A4*%
G36*
X48833922Y-76202591D02*
G01*
X48837349Y-76210864D01*
X48833922Y-76219137D01*
X48829594Y-76221879D01*
X48174471Y-76456578D01*
X48165528Y-76456143D01*
X48159511Y-76449510D01*
X48159947Y-76440566D01*
X48165343Y-76435075D01*
X48640550Y-76200373D01*
X48645731Y-76199164D01*
X48825649Y-76199164D01*
X48833922Y-76202591D01*
G37*
%TD.AperFunction*%
%TD*%
%TA.AperFunction,Conductor*%
%TO.N,CS1*%
G36*
X64698563Y-62963662D02*
G01*
X64704887Y-62970002D01*
X64705073Y-62970481D01*
X65154513Y-64211275D01*
X65154108Y-64220221D01*
X65151785Y-64223533D01*
X64985533Y-64389785D01*
X64977260Y-64393212D01*
X64973275Y-64392513D01*
X63732481Y-63943073D01*
X63725870Y-63937033D01*
X63725465Y-63928087D01*
X63725632Y-63927655D01*
X64005438Y-63249786D01*
X64011759Y-63243449D01*
X64689610Y-62963651D01*
X64698563Y-62963662D01*
G37*
%TD.AperFunction*%
%TD*%
%TA.AperFunction,Conductor*%
%TO.N,A6*%
G36*
X53973912Y-74503427D02*
G01*
X53976186Y-74506634D01*
X54627950Y-75863586D01*
X54628442Y-75872528D01*
X54622469Y-75879199D01*
X54621892Y-75879457D01*
X53852489Y-76199134D01*
X53843534Y-76199143D01*
X53843511Y-76199134D01*
X53074107Y-75879457D01*
X53067782Y-75873118D01*
X53067791Y-75864163D01*
X53068049Y-75863586D01*
X53719814Y-74506634D01*
X53726485Y-74500661D01*
X53730361Y-74500000D01*
X53965639Y-74500000D01*
X53973912Y-74503427D01*
G37*
%TD.AperFunction*%
%TD*%
%TA.AperFunction,Conductor*%
%TO.N,CS1*%
G36*
X76425471Y-62563907D02*
G01*
X76425664Y-62564344D01*
X76707133Y-63241509D01*
X76707144Y-63250464D01*
X76707133Y-63250491D01*
X76425696Y-63927578D01*
X76419356Y-63933902D01*
X76410401Y-63933891D01*
X76409892Y-63933665D01*
X75215695Y-63369167D01*
X75209680Y-63362533D01*
X75208995Y-63358589D01*
X75208995Y-63123465D01*
X75212422Y-63115192D01*
X75215763Y-63112856D01*
X76409933Y-62558223D01*
X76418878Y-62557847D01*
X76425471Y-62563907D01*
G37*
%TD.AperFunction*%
%TD*%
%TA.AperFunction,Conductor*%
%TO.N,A1*%
G36*
X41273912Y-74503427D02*
G01*
X41276186Y-74506634D01*
X41927950Y-75863586D01*
X41928442Y-75872528D01*
X41922469Y-75879199D01*
X41921892Y-75879457D01*
X41152489Y-76199134D01*
X41143534Y-76199143D01*
X41143511Y-76199134D01*
X40374107Y-75879457D01*
X40367782Y-75873118D01*
X40367791Y-75864163D01*
X40368049Y-75863586D01*
X41019814Y-74506634D01*
X41026485Y-74500661D01*
X41030361Y-74500000D01*
X41265639Y-74500000D01*
X41273912Y-74503427D01*
G37*
%TD.AperFunction*%
%TD*%
%TA.AperFunction,Conductor*%
%TO.N,A0*%
G36*
X68314106Y-57083428D02*
G01*
X69084215Y-57401438D01*
X69090552Y-57407761D01*
X69090562Y-57407785D01*
X69408567Y-58177883D01*
X69408558Y-58186838D01*
X69402219Y-58193163D01*
X69401629Y-58193388D01*
X67981251Y-58692031D01*
X67972309Y-58691539D01*
X67969102Y-58689265D01*
X67802734Y-58522897D01*
X67799307Y-58514624D01*
X67799968Y-58510748D01*
X67911461Y-58193163D01*
X68298612Y-57090368D01*
X68304584Y-57083699D01*
X68313526Y-57083207D01*
X68314106Y-57083428D01*
G37*
%TD.AperFunction*%
%TD*%
%TA.AperFunction,Conductor*%
%TO.N,A14*%
G36*
X74293912Y-74503427D02*
G01*
X74296186Y-74506634D01*
X74947950Y-75863586D01*
X74948442Y-75872528D01*
X74942469Y-75879199D01*
X74941892Y-75879457D01*
X74172489Y-76199134D01*
X74163534Y-76199143D01*
X74163511Y-76199134D01*
X73394107Y-75879457D01*
X73387782Y-75873118D01*
X73387791Y-75864163D01*
X73388049Y-75863586D01*
X74039814Y-74506634D01*
X74046485Y-74500661D01*
X74050361Y-74500000D01*
X74285639Y-74500000D01*
X74293912Y-74503427D01*
G37*
%TD.AperFunction*%
%TD*%
%TA.AperFunction,Conductor*%
%TO.N,3V3*%
G36*
X46482252Y-37927427D02*
G01*
X46484892Y-37931482D01*
X47009184Y-39288074D01*
X47008970Y-39297026D01*
X47002760Y-39303097D01*
X46232489Y-39623134D01*
X46223534Y-39623143D01*
X46223511Y-39623134D01*
X45453239Y-39303097D01*
X45446914Y-39296758D01*
X45446815Y-39288076D01*
X45971108Y-37931481D01*
X45977287Y-37925001D01*
X45982021Y-37924000D01*
X46473979Y-37924000D01*
X46482252Y-37927427D01*
G37*
%TD.AperFunction*%
%TD*%
%TA.AperFunction,Conductor*%
%TO.N,A2*%
G36*
X43813912Y-74503427D02*
G01*
X43816186Y-74506634D01*
X44467950Y-75863586D01*
X44468442Y-75872528D01*
X44462469Y-75879199D01*
X44461892Y-75879457D01*
X43692489Y-76199134D01*
X43683534Y-76199143D01*
X43683511Y-76199134D01*
X42914107Y-75879457D01*
X42907782Y-75873118D01*
X42907791Y-75864163D01*
X42908049Y-75863586D01*
X43559814Y-74506634D01*
X43566485Y-74500661D01*
X43570361Y-74500000D01*
X43805639Y-74500000D01*
X43813912Y-74503427D01*
G37*
%TD.AperFunction*%
%TD*%
%TA.AperFunction,Conductor*%
%TO.N,A12*%
G36*
X69096268Y-70873279D02*
G01*
X69096279Y-70873290D01*
X69830455Y-71608445D01*
X69833876Y-71616721D01*
X69831164Y-71624203D01*
X69216508Y-72361790D01*
X69208579Y-72365952D01*
X69207520Y-72366000D01*
X68968480Y-72366000D01*
X68960207Y-72362573D01*
X68959492Y-72361790D01*
X68783875Y-72151050D01*
X68344834Y-71624201D01*
X68342171Y-71615654D01*
X68345543Y-71608446D01*
X69079721Y-70873289D01*
X69087992Y-70869858D01*
X69096268Y-70873279D01*
G37*
%TD.AperFunction*%
%TD*%
%TA.AperFunction,Conductor*%
%TO.N,A0*%
G36*
X38733912Y-74503427D02*
G01*
X38736186Y-74506634D01*
X39387950Y-75863586D01*
X39388442Y-75872528D01*
X39382469Y-75879199D01*
X39381892Y-75879457D01*
X38612489Y-76199134D01*
X38603534Y-76199143D01*
X38603511Y-76199134D01*
X37834107Y-75879457D01*
X37827782Y-75873118D01*
X37827791Y-75864163D01*
X37828049Y-75863586D01*
X38479814Y-74506634D01*
X38486485Y-74500661D01*
X38490361Y-74500000D01*
X38725639Y-74500000D01*
X38733912Y-74503427D01*
G37*
%TD.AperFunction*%
%TD*%
%TA.AperFunction,Conductor*%
%TO.N,BCK*%
G36*
X61674096Y-47672290D02*
G01*
X62285837Y-47903541D01*
X62292364Y-47909672D01*
X62293400Y-47914485D01*
X62293400Y-48148314D01*
X62289973Y-48156587D01*
X62285837Y-48159258D01*
X61657055Y-48396951D01*
X61648105Y-48396671D01*
X61642119Y-48390509D01*
X61545706Y-48159258D01*
X61494275Y-48035899D01*
X61494255Y-48026950D01*
X61642119Y-47672289D01*
X61648466Y-47665972D01*
X61657054Y-47665848D01*
X61674096Y-47672290D01*
G37*
%TD.AperFunction*%
%TD*%
%TA.AperFunction,Conductor*%
%TO.N,CS1*%
G36*
X62549744Y-64533861D02*
G01*
X62550345Y-64534422D01*
X62716437Y-64700514D01*
X62719864Y-64708787D01*
X62717776Y-64715458D01*
X62004068Y-65743810D01*
X61996536Y-65748653D01*
X61987785Y-65746751D01*
X61986195Y-65745424D01*
X61521537Y-65282140D01*
X61518098Y-65273872D01*
X61518098Y-65273843D01*
X61518689Y-64708787D01*
X61518788Y-64613892D01*
X61522224Y-64605624D01*
X61529665Y-64602235D01*
X62541251Y-64531024D01*
X62549744Y-64533861D01*
G37*
%TD.AperFunction*%
%TD*%
%TA.AperFunction,Conductor*%
%TO.N,A12*%
G36*
X69213912Y-74503427D02*
G01*
X69216186Y-74506634D01*
X69867950Y-75863586D01*
X69868442Y-75872528D01*
X69862469Y-75879199D01*
X69861892Y-75879457D01*
X69092489Y-76199134D01*
X69083534Y-76199143D01*
X69083511Y-76199134D01*
X68314107Y-75879457D01*
X68307782Y-75873118D01*
X68307791Y-75864163D01*
X68308049Y-75863586D01*
X68959814Y-74506634D01*
X68966485Y-74500661D01*
X68970361Y-74500000D01*
X69205639Y-74500000D01*
X69213912Y-74503427D01*
G37*
%TD.AperFunction*%
%TD*%
%TA.AperFunction,Conductor*%
%TO.N,FLT*%
G36*
X98344642Y-60752633D02*
G01*
X99179712Y-61586722D01*
X99183144Y-61594993D01*
X99179722Y-61603268D01*
X99179712Y-61603278D01*
X98344642Y-62437366D01*
X98336367Y-62440788D01*
X98328781Y-62437990D01*
X98328049Y-62437366D01*
X97491107Y-61723503D01*
X97487037Y-61715527D01*
X97487000Y-61714601D01*
X97487000Y-61475398D01*
X97490427Y-61467125D01*
X97491093Y-61466508D01*
X98328783Y-60752008D01*
X98337300Y-60749248D01*
X98344642Y-60752633D01*
G37*
%TD.AperFunction*%
%TD*%
%TA.AperFunction,Conductor*%
%TO.N,CS1*%
G36*
X59196956Y-64654250D02*
G01*
X59197298Y-64654399D01*
X60271161Y-65144876D01*
X60277263Y-65151430D01*
X60278000Y-65155518D01*
X60278000Y-65390481D01*
X60274573Y-65398754D01*
X60271161Y-65401123D01*
X59197325Y-65891588D01*
X59188376Y-65891909D01*
X59181822Y-65885807D01*
X59181677Y-65885474D01*
X58928866Y-65277489D01*
X58928854Y-65268541D01*
X59181663Y-64660559D01*
X59188001Y-64654237D01*
X59196956Y-64654250D01*
G37*
%TD.AperFunction*%
%TD*%
%TA.AperFunction,Conductor*%
%TO.N,A3*%
G36*
X46353912Y-74503427D02*
G01*
X46356186Y-74506634D01*
X47007950Y-75863586D01*
X47008442Y-75872528D01*
X47002469Y-75879199D01*
X47001892Y-75879457D01*
X46232489Y-76199134D01*
X46223534Y-76199143D01*
X46223511Y-76199134D01*
X45454107Y-75879457D01*
X45447782Y-75873118D01*
X45447791Y-75864163D01*
X45448049Y-75863586D01*
X46099814Y-74506634D01*
X46106485Y-74500661D01*
X46110361Y-74500000D01*
X46345639Y-74500000D01*
X46353912Y-74503427D01*
G37*
%TD.AperFunction*%
%TD*%
%TA.AperFunction,Conductor*%
%TO.N,A13*%
G36*
X71753912Y-74503427D02*
G01*
X71756186Y-74506634D01*
X72407950Y-75863586D01*
X72408442Y-75872528D01*
X72402469Y-75879199D01*
X72401892Y-75879457D01*
X71632489Y-76199134D01*
X71623534Y-76199143D01*
X71623511Y-76199134D01*
X70854107Y-75879457D01*
X70847782Y-75873118D01*
X70847791Y-75864163D01*
X70848049Y-75863586D01*
X71499814Y-74506634D01*
X71506485Y-74500661D01*
X71510361Y-74500000D01*
X71745639Y-74500000D01*
X71753912Y-74503427D01*
G37*
%TD.AperFunction*%
%TD*%
%TA.AperFunction,Conductor*%
%TO.N,A3*%
G36*
X78474106Y-57083428D02*
G01*
X79244215Y-57401438D01*
X79250552Y-57407761D01*
X79250562Y-57407785D01*
X79568567Y-58177883D01*
X79568558Y-58186838D01*
X79562219Y-58193163D01*
X79561629Y-58193388D01*
X78141251Y-58692031D01*
X78132309Y-58691539D01*
X78129102Y-58689265D01*
X77962734Y-58522897D01*
X77959307Y-58514624D01*
X77959968Y-58510748D01*
X78071461Y-58193163D01*
X78458612Y-57090368D01*
X78464584Y-57083699D01*
X78473526Y-57083207D01*
X78474106Y-57083428D01*
G37*
%TD.AperFunction*%
%TD*%
%TA.AperFunction,Conductor*%
%TO.N,BCK*%
G36*
X102243912Y-65867427D02*
G01*
X102246186Y-65870634D01*
X102897950Y-67227586D01*
X102898442Y-67236528D01*
X102892469Y-67243199D01*
X102891892Y-67243457D01*
X102122489Y-67563134D01*
X102113534Y-67563143D01*
X102113511Y-67563134D01*
X101344107Y-67243457D01*
X101337782Y-67237118D01*
X101337791Y-67228163D01*
X101338049Y-67227586D01*
X101989814Y-65870634D01*
X101996485Y-65864661D01*
X102000361Y-65864000D01*
X102235639Y-65864000D01*
X102243912Y-65867427D01*
G37*
%TD.AperFunction*%
%TD*%
%TA.AperFunction,Conductor*%
%TO.N,CS1*%
G36*
X68406360Y-62963639D02*
G01*
X69084211Y-63243437D01*
X69090551Y-63249761D01*
X69090562Y-63249788D01*
X69370348Y-63927608D01*
X69370337Y-63936563D01*
X69363997Y-63942887D01*
X69363518Y-63943073D01*
X68122724Y-64392513D01*
X68113778Y-64392108D01*
X68110466Y-64389785D01*
X67944214Y-64223533D01*
X67940787Y-64215260D01*
X67941486Y-64211275D01*
X68038634Y-63943073D01*
X68390927Y-62970479D01*
X68396966Y-62963870D01*
X68405912Y-62963465D01*
X68406360Y-62963639D01*
G37*
%TD.AperFunction*%
%TD*%
%TA.AperFunction,Conductor*%
%TO.N,~{RESET}*%
G36*
X111161251Y-74911968D02*
G01*
X111643027Y-75081102D01*
X112581629Y-75410611D01*
X112588300Y-75416584D01*
X112588792Y-75425526D01*
X112588567Y-75426116D01*
X112270562Y-76196214D01*
X112264237Y-76202553D01*
X112264214Y-76202562D01*
X111494116Y-76520567D01*
X111485161Y-76520558D01*
X111478836Y-76514219D01*
X111478611Y-76513629D01*
X111368755Y-76200707D01*
X111092818Y-75414702D01*
X110979968Y-75093251D01*
X110980460Y-75084309D01*
X110982731Y-75081105D01*
X111149103Y-74914733D01*
X111157375Y-74911307D01*
X111161251Y-74911968D01*
G37*
%TD.AperFunction*%
%TD*%
%TA.AperFunction,Conductor*%
%TO.N,CS1*%
G36*
X73486360Y-62958639D02*
G01*
X74164211Y-63238437D01*
X74170551Y-63244761D01*
X74170562Y-63244788D01*
X74450348Y-63922608D01*
X74450337Y-63931563D01*
X74443997Y-63937887D01*
X74443518Y-63938073D01*
X73202724Y-64387513D01*
X73193778Y-64387108D01*
X73190466Y-64384785D01*
X73024214Y-64218533D01*
X73020787Y-64210260D01*
X73021486Y-64206275D01*
X73118634Y-63938073D01*
X73470927Y-62965479D01*
X73476966Y-62958870D01*
X73485912Y-62958465D01*
X73486360Y-62958639D01*
G37*
%TD.AperFunction*%
%TD*%
%TA.AperFunction,Conductor*%
%TO.N,3V3*%
G36*
X112303515Y-55743827D02*
G01*
X112306752Y-55749999D01*
X112448487Y-56526633D01*
X112446601Y-56535387D01*
X112439078Y-56540244D01*
X112437006Y-56540434D01*
X112051029Y-56541399D01*
X112050971Y-56541399D01*
X111664993Y-56540434D01*
X111656728Y-56536986D01*
X111653322Y-56528705D01*
X111653512Y-56526633D01*
X111795248Y-55749999D01*
X111800105Y-55742476D01*
X111806758Y-55740400D01*
X112295242Y-55740400D01*
X112303515Y-55743827D01*
G37*
%TD.AperFunction*%
%TD*%
%TA.AperFunction,Conductor*%
%TO.N,A9*%
G36*
X62149620Y-71138320D02*
G01*
X62155944Y-71144660D01*
X62155933Y-71153615D01*
X62155725Y-71154085D01*
X61596155Y-72349261D01*
X61589544Y-72355301D01*
X61585559Y-72356000D01*
X61350441Y-72356000D01*
X61342168Y-72352573D01*
X61339845Y-72349261D01*
X60780274Y-71154085D01*
X60779869Y-71145139D01*
X60785909Y-71138528D01*
X60786354Y-71138330D01*
X61463510Y-70856865D01*
X61472462Y-70856855D01*
X62149620Y-71138320D01*
G37*
%TD.AperFunction*%
%TD*%
%TA.AperFunction,Conductor*%
%TO.N,3V3*%
G36*
X112307836Y-65867427D02*
G01*
X112308506Y-65868156D01*
X113015490Y-66706319D01*
X113018205Y-66714853D01*
X113015356Y-66721564D01*
X112286239Y-67555575D01*
X112278213Y-67559548D01*
X112269729Y-67556683D01*
X112269152Y-67556142D01*
X111433622Y-66719628D01*
X111430200Y-66711353D01*
X111431167Y-66706703D01*
X111793943Y-65871040D01*
X111800381Y-65864817D01*
X111804675Y-65864000D01*
X112299563Y-65864000D01*
X112307836Y-65867427D01*
G37*
%TD.AperFunction*%
%TD*%
%TA.AperFunction,Conductor*%
%TO.N,CLK*%
G36*
X102233912Y-74503427D02*
G01*
X102236186Y-74506634D01*
X102887950Y-75863586D01*
X102888442Y-75872528D01*
X102882469Y-75879199D01*
X102881892Y-75879457D01*
X102112489Y-76199134D01*
X102103534Y-76199143D01*
X102103511Y-76199134D01*
X101334107Y-75879457D01*
X101327782Y-75873118D01*
X101327791Y-75864163D01*
X101328049Y-75863586D01*
X101979814Y-74506634D01*
X101986485Y-74500661D01*
X101990361Y-74500000D01*
X102225639Y-74500000D01*
X102233912Y-74503427D01*
G37*
%TD.AperFunction*%
%TD*%
%TA.AperFunction,Conductor*%
%TO.N,CS1*%
G36*
X66595286Y-64606468D02*
G01*
X66598811Y-64614700D01*
X66598812Y-64614827D01*
X66599501Y-65273843D01*
X66596083Y-65282119D01*
X66596062Y-65282140D01*
X66130905Y-65745922D01*
X66122627Y-65749337D01*
X66114359Y-65745898D01*
X66113385Y-65744790D01*
X65755943Y-65282140D01*
X65383686Y-64800315D01*
X65381341Y-64791675D01*
X65384672Y-64784892D01*
X65550802Y-64618762D01*
X65558933Y-64615337D01*
X66586973Y-64603140D01*
X66595286Y-64606468D01*
G37*
%TD.AperFunction*%
%TD*%
%TA.AperFunction,Conductor*%
%TO.N,A11*%
G36*
X66673912Y-74503427D02*
G01*
X66676186Y-74506634D01*
X67327950Y-75863586D01*
X67328442Y-75872528D01*
X67322469Y-75879199D01*
X67321892Y-75879457D01*
X66552489Y-76199134D01*
X66543534Y-76199143D01*
X66543511Y-76199134D01*
X65774107Y-75879457D01*
X65767782Y-75873118D01*
X65767791Y-75864163D01*
X65768049Y-75863586D01*
X66419814Y-74506634D01*
X66426485Y-74500661D01*
X66430361Y-74500000D01*
X66665639Y-74500000D01*
X66673912Y-74503427D01*
G37*
%TD.AperFunction*%
%TD*%
%TA.AperFunction,Conductor*%
%TO.N,A15*%
G36*
X76833912Y-74503427D02*
G01*
X76836186Y-74506634D01*
X77487950Y-75863586D01*
X77488442Y-75872528D01*
X77482469Y-75879199D01*
X77481892Y-75879457D01*
X76712489Y-76199134D01*
X76703534Y-76199143D01*
X76703511Y-76199134D01*
X75934107Y-75879457D01*
X75927782Y-75873118D01*
X75927791Y-75864163D01*
X75928049Y-75863586D01*
X76579814Y-74506634D01*
X76586485Y-74500661D01*
X76590361Y-74500000D01*
X76825639Y-74500000D01*
X76833912Y-74503427D01*
G37*
%TD.AperFunction*%
%TD*%
%TA.AperFunction,Conductor*%
%TO.N,A4*%
G36*
X81792489Y-57404865D02*
G01*
X82561892Y-57724542D01*
X82568217Y-57730881D01*
X82568208Y-57739836D01*
X82567950Y-57740413D01*
X81916186Y-59097366D01*
X81909515Y-59103339D01*
X81905639Y-59104000D01*
X81670361Y-59104000D01*
X81662088Y-59100573D01*
X81659814Y-59097366D01*
X81008049Y-57740413D01*
X81007557Y-57731471D01*
X81013530Y-57724800D01*
X81014095Y-57724547D01*
X81783511Y-57404864D01*
X81792466Y-57404856D01*
X81792489Y-57404865D01*
G37*
%TD.AperFunction*%
%TD*%
%TA.AperFunction,Conductor*%
%TO.N,A6*%
G36*
X85289709Y-59287232D02*
G01*
X85432563Y-59346018D01*
X85644995Y-59433436D01*
X85651342Y-59439754D01*
X85651363Y-59439804D01*
X85797567Y-59795090D01*
X85797546Y-59804044D01*
X85791560Y-59810206D01*
X85178871Y-60086747D01*
X85169921Y-60087027D01*
X85165785Y-60084356D01*
X85000443Y-59919014D01*
X84997016Y-59910741D01*
X84998052Y-59905928D01*
X85044038Y-59804044D01*
X85274594Y-59293238D01*
X85281120Y-59287108D01*
X85289709Y-59287232D01*
G37*
%TD.AperFunction*%
%TD*%
%TA.AperFunction,Conductor*%
%TO.N,A15*%
G36*
X76716268Y-70873279D02*
G01*
X76716279Y-70873290D01*
X77450455Y-71608445D01*
X77453876Y-71616721D01*
X77451164Y-71624203D01*
X76836508Y-72361790D01*
X76828579Y-72365952D01*
X76827520Y-72366000D01*
X76588480Y-72366000D01*
X76580207Y-72362573D01*
X76579492Y-72361790D01*
X76403875Y-72151050D01*
X75964834Y-71624201D01*
X75962171Y-71615654D01*
X75965543Y-71608446D01*
X76699721Y-70873289D01*
X76707992Y-70869858D01*
X76716268Y-70873279D01*
G37*
%TD.AperFunction*%
%TD*%
%TA.AperFunction,Conductor*%
%TO.N,R{slash}~{W}*%
G36*
X62583690Y-56116460D02*
G01*
X62586897Y-56118734D01*
X62753265Y-56285102D01*
X62756692Y-56293375D01*
X62756031Y-56297251D01*
X62257388Y-57717629D01*
X62251415Y-57724300D01*
X62242473Y-57724792D01*
X62241883Y-57724567D01*
X61471785Y-57406562D01*
X61465447Y-57400238D01*
X61147432Y-56630115D01*
X61147441Y-56621161D01*
X61153780Y-56614836D01*
X61154345Y-56614620D01*
X62574748Y-56115968D01*
X62583690Y-56116460D01*
G37*
%TD.AperFunction*%
%TD*%
%TA.AperFunction,Conductor*%
%TO.N,CS1*%
G36*
X69778563Y-62963662D02*
G01*
X69784887Y-62970002D01*
X69785073Y-62970481D01*
X70234513Y-64211275D01*
X70234108Y-64220221D01*
X70231785Y-64223533D01*
X70065533Y-64389785D01*
X70057260Y-64393212D01*
X70053275Y-64392513D01*
X68812481Y-63943073D01*
X68805870Y-63937033D01*
X68805465Y-63928087D01*
X68805632Y-63927655D01*
X69085438Y-63249786D01*
X69091759Y-63243449D01*
X69769610Y-62963651D01*
X69778563Y-62963662D01*
G37*
%TD.AperFunction*%
%TD*%
%TA.AperFunction,Conductor*%
%TO.N,LRCK*%
G36*
X107323912Y-65867427D02*
G01*
X107326186Y-65870634D01*
X107977950Y-67227586D01*
X107978442Y-67236528D01*
X107972469Y-67243199D01*
X107971892Y-67243457D01*
X107202489Y-67563134D01*
X107193534Y-67563143D01*
X107193511Y-67563134D01*
X106424107Y-67243457D01*
X106417782Y-67237118D01*
X106417791Y-67228163D01*
X106418049Y-67227586D01*
X107069814Y-65870634D01*
X107076485Y-65864661D01*
X107080361Y-65864000D01*
X107315639Y-65864000D01*
X107323912Y-65867427D01*
G37*
%TD.AperFunction*%
%TD*%
%TA.AperFunction,Conductor*%
%TO.N,A11*%
G36*
X67229620Y-71138320D02*
G01*
X67235944Y-71144660D01*
X67235933Y-71153615D01*
X67235725Y-71154085D01*
X66676155Y-72349261D01*
X66669544Y-72355301D01*
X66665559Y-72356000D01*
X66430441Y-72356000D01*
X66422168Y-72352573D01*
X66419845Y-72349261D01*
X65860274Y-71154085D01*
X65859869Y-71145139D01*
X65865909Y-71138528D01*
X65866354Y-71138330D01*
X66543510Y-70856865D01*
X66552462Y-70856855D01*
X67229620Y-71138320D01*
G37*
%TD.AperFunction*%
%TD*%
%TA.AperFunction,Conductor*%
%TO.N,A10*%
G36*
X64016268Y-70873279D02*
G01*
X64016279Y-70873290D01*
X64750455Y-71608445D01*
X64753876Y-71616721D01*
X64751164Y-71624203D01*
X64136508Y-72361790D01*
X64128579Y-72365952D01*
X64127520Y-72366000D01*
X63888480Y-72366000D01*
X63880207Y-72362573D01*
X63879492Y-72361790D01*
X63703875Y-72151050D01*
X63264834Y-71624201D01*
X63262171Y-71615654D01*
X63265543Y-71608446D01*
X63999721Y-70873289D01*
X64007992Y-70869858D01*
X64016268Y-70873279D01*
G37*
%TD.AperFunction*%
%TD*%
%TA.AperFunction,Conductor*%
%TO.N,5V*%
G36*
X36322252Y-37927427D02*
G01*
X36324892Y-37931482D01*
X36849184Y-39288074D01*
X36848970Y-39297026D01*
X36842760Y-39303097D01*
X36072489Y-39623134D01*
X36063534Y-39623143D01*
X36063511Y-39623134D01*
X35293239Y-39303097D01*
X35286914Y-39296758D01*
X35286815Y-39288076D01*
X35811108Y-37931481D01*
X35817287Y-37925001D01*
X35822021Y-37924000D01*
X36313979Y-37924000D01*
X36322252Y-37927427D01*
G37*
%TD.AperFunction*%
%TD*%
%TA.AperFunction,Conductor*%
%TO.N,5V*%
G36*
X37768219Y-34196139D02*
G01*
X38604216Y-34541438D01*
X38610553Y-34547763D01*
X38610562Y-34547784D01*
X38955860Y-35383780D01*
X38955851Y-35392735D01*
X38950116Y-35398791D01*
X37344041Y-36171049D01*
X37335100Y-36171546D01*
X37330698Y-36168778D01*
X36983221Y-35821301D01*
X36979794Y-35813028D01*
X36980950Y-35807958D01*
X37184910Y-35383780D01*
X37753208Y-34201882D01*
X37759881Y-34195912D01*
X37768219Y-34196139D01*
G37*
%TD.AperFunction*%
%TD*%
%TA.AperFunction,Conductor*%
%TO.N,3V3*%
G36*
X112437006Y-56540365D02*
G01*
X112445271Y-56543813D01*
X112448677Y-56552094D01*
X112448487Y-56554166D01*
X112306752Y-57330801D01*
X112301895Y-57338324D01*
X112295242Y-57340400D01*
X111806758Y-57340400D01*
X111798485Y-57336973D01*
X111795248Y-57330801D01*
X111653512Y-56554166D01*
X111655398Y-56545412D01*
X111662921Y-56540555D01*
X111664992Y-56540365D01*
X112051000Y-56539400D01*
X112437006Y-56540365D01*
G37*
%TD.AperFunction*%
%TD*%
%TA.AperFunction,Conductor*%
%TO.N,FLT*%
G36*
X66728698Y-51660089D02*
G01*
X67340439Y-51891340D01*
X67346966Y-51897471D01*
X67348002Y-51902284D01*
X67348002Y-52136113D01*
X67344575Y-52144386D01*
X67340439Y-52147057D01*
X66711657Y-52384750D01*
X66702707Y-52384470D01*
X66696721Y-52378308D01*
X66600308Y-52147057D01*
X66548877Y-52023698D01*
X66548857Y-52014749D01*
X66696721Y-51660088D01*
X66703068Y-51653771D01*
X66711656Y-51653647D01*
X66728698Y-51660089D01*
G37*
%TD.AperFunction*%
%TD*%
%TA.AperFunction,Conductor*%
%TO.N,R{slash}~{W}*%
G36*
X99693912Y-74503427D02*
G01*
X99696186Y-74506634D01*
X100347950Y-75863586D01*
X100348442Y-75872528D01*
X100342469Y-75879199D01*
X100341892Y-75879457D01*
X99572489Y-76199134D01*
X99563534Y-76199143D01*
X99563511Y-76199134D01*
X98794107Y-75879457D01*
X98787782Y-75873118D01*
X98787791Y-75864163D01*
X98788049Y-75863586D01*
X99439814Y-74506634D01*
X99446485Y-74500661D01*
X99450361Y-74500000D01*
X99685639Y-74500000D01*
X99693912Y-74503427D01*
G37*
%TD.AperFunction*%
%TD*%
%TA.AperFunction,Conductor*%
%TO.N,VCC*%
G36*
X40209226Y-33115299D02*
G01*
X41463648Y-33753799D01*
X41469467Y-33760606D01*
X41469155Y-33768692D01*
X41150562Y-34540214D01*
X41144237Y-34546553D01*
X41144214Y-34546562D01*
X40373907Y-34864653D01*
X40364952Y-34864644D01*
X40358627Y-34858305D01*
X40358475Y-34857918D01*
X40242658Y-34546562D01*
X39845063Y-33477693D01*
X39845391Y-33468746D01*
X39847753Y-33465346D01*
X40195647Y-33117452D01*
X40203919Y-33114026D01*
X40209226Y-33115299D01*
G37*
%TD.AperFunction*%
%TD*%
%TA.AperFunction,Conductor*%
%TO.N,~{RESET}*%
G36*
X69870838Y-39303441D02*
G01*
X69877163Y-39309780D01*
X69877388Y-39310370D01*
X70376031Y-40730748D01*
X70375539Y-40739690D01*
X70373265Y-40742897D01*
X70206897Y-40909265D01*
X70198624Y-40912692D01*
X70194748Y-40912031D01*
X68774370Y-40413388D01*
X68767699Y-40407415D01*
X68767207Y-40398473D01*
X68767423Y-40397905D01*
X69085438Y-39627783D01*
X69091759Y-39621448D01*
X69861884Y-39303432D01*
X69870838Y-39303441D01*
G37*
%TD.AperFunction*%
%TD*%
%TA.AperFunction,Conductor*%
%TO.N,LRCK*%
G36*
X59710838Y-39303441D02*
G01*
X59717163Y-39309780D01*
X59717388Y-39310370D01*
X60216031Y-40730748D01*
X60215539Y-40739690D01*
X60213265Y-40742897D01*
X60046897Y-40909265D01*
X60038624Y-40912692D01*
X60034748Y-40912031D01*
X58614370Y-40413388D01*
X58607699Y-40407415D01*
X58607207Y-40398473D01*
X58607423Y-40397905D01*
X58925438Y-39627783D01*
X58931759Y-39621448D01*
X59701884Y-39303432D01*
X59710838Y-39303441D01*
G37*
%TD.AperFunction*%
%TD*%
%TA.AperFunction,Conductor*%
%TO.N,GND*%
G36*
X85833498Y-57011830D02*
G01*
X85867000Y-57035687D01*
X98906181Y-70074868D01*
X98939666Y-70136191D01*
X98942500Y-70162549D01*
X98942500Y-74346250D01*
X98930275Y-74399937D01*
X98406036Y-75491383D01*
X98359267Y-75543291D01*
X98291858Y-75561673D01*
X98225213Y-75540693D01*
X98192686Y-75508819D01*
X98066494Y-75328597D01*
X97899402Y-75161506D01*
X97899395Y-75161501D01*
X97705834Y-75025967D01*
X97705830Y-75025965D01*
X97581022Y-74967766D01*
X97491663Y-74926097D01*
X97491659Y-74926096D01*
X97491655Y-74926094D01*
X97263413Y-74864938D01*
X97263403Y-74864936D01*
X97028001Y-74844341D01*
X97027999Y-74844341D01*
X96792596Y-74864936D01*
X96792586Y-74864938D01*
X96564344Y-74926094D01*
X96564335Y-74926098D01*
X96350171Y-75025964D01*
X96350169Y-75025965D01*
X96156597Y-75161505D01*
X95989505Y-75328597D01*
X95859575Y-75514158D01*
X95804998Y-75557783D01*
X95735500Y-75564977D01*
X95673145Y-75533454D01*
X95656425Y-75514158D01*
X95526494Y-75328597D01*
X95359402Y-75161506D01*
X95359395Y-75161501D01*
X95165834Y-75025967D01*
X95165830Y-75025965D01*
X95041022Y-74967766D01*
X94951663Y-74926097D01*
X94951659Y-74926096D01*
X94951655Y-74926094D01*
X94723413Y-74864938D01*
X94723403Y-74864936D01*
X94488001Y-74844341D01*
X94487999Y-74844341D01*
X94252596Y-74864936D01*
X94252586Y-74864938D01*
X94024344Y-74926094D01*
X94024335Y-74926098D01*
X93810171Y-75025964D01*
X93810169Y-75025965D01*
X93616597Y-75161505D01*
X93449505Y-75328597D01*
X93319575Y-75514158D01*
X93264998Y-75557783D01*
X93195500Y-75564977D01*
X93133145Y-75533454D01*
X93116425Y-75514158D01*
X92986494Y-75328597D01*
X92819402Y-75161506D01*
X92819395Y-75161501D01*
X92625834Y-75025967D01*
X92625830Y-75025965D01*
X92501022Y-74967766D01*
X92411663Y-74926097D01*
X92411659Y-74926096D01*
X92411655Y-74926094D01*
X92183413Y-74864938D01*
X92183403Y-74864936D01*
X91948001Y-74844341D01*
X91947999Y-74844341D01*
X91712596Y-74864936D01*
X91712586Y-74864938D01*
X91484344Y-74926094D01*
X91484335Y-74926098D01*
X91270171Y-75025964D01*
X91270169Y-75025965D01*
X91076597Y-75161505D01*
X90909505Y-75328597D01*
X90779575Y-75514158D01*
X90724998Y-75557783D01*
X90655500Y-75564977D01*
X90593145Y-75533454D01*
X90576425Y-75514158D01*
X90446494Y-75328597D01*
X90279402Y-75161506D01*
X90279395Y-75161501D01*
X90085834Y-75025967D01*
X90085830Y-75025965D01*
X89961022Y-74967766D01*
X89871663Y-74926097D01*
X89871659Y-74926096D01*
X89871655Y-74926094D01*
X89643413Y-74864938D01*
X89643403Y-74864936D01*
X89408001Y-74844341D01*
X89407999Y-74844341D01*
X89172596Y-74864936D01*
X89172586Y-74864938D01*
X88944344Y-74926094D01*
X88944335Y-74926098D01*
X88730171Y-75025964D01*
X88730169Y-75025965D01*
X88536597Y-75161505D01*
X88369505Y-75328597D01*
X88239575Y-75514158D01*
X88184998Y-75557783D01*
X88115500Y-75564977D01*
X88053145Y-75533454D01*
X88036425Y-75514158D01*
X87906494Y-75328597D01*
X87739402Y-75161506D01*
X87739395Y-75161501D01*
X87545834Y-75025967D01*
X87545830Y-75025965D01*
X87421022Y-74967766D01*
X87331663Y-74926097D01*
X87331659Y-74926096D01*
X87331655Y-74926094D01*
X87103413Y-74864938D01*
X87103403Y-74864936D01*
X86868001Y-74844341D01*
X86867999Y-74844341D01*
X86632596Y-74864936D01*
X86632586Y-74864938D01*
X86404344Y-74926094D01*
X86404335Y-74926098D01*
X86190171Y-75025964D01*
X86190169Y-75025965D01*
X85996597Y-75161505D01*
X85829505Y-75328597D01*
X85699575Y-75514158D01*
X85644998Y-75557783D01*
X85575500Y-75564977D01*
X85513145Y-75533454D01*
X85496425Y-75514158D01*
X85366494Y-75328597D01*
X85199402Y-75161506D01*
X85199395Y-75161501D01*
X85005834Y-75025967D01*
X85005830Y-75025965D01*
X84881022Y-74967766D01*
X84791663Y-74926097D01*
X84791659Y-74926096D01*
X84791655Y-74926094D01*
X84563413Y-74864938D01*
X84563403Y-74864936D01*
X84328001Y-74844341D01*
X84327999Y-74844341D01*
X84092596Y-74864936D01*
X84092586Y-74864938D01*
X83864344Y-74926094D01*
X83864335Y-74926098D01*
X83650171Y-75025964D01*
X83650169Y-75025965D01*
X83456597Y-75161505D01*
X83289505Y-75328597D01*
X83159575Y-75514158D01*
X83104998Y-75557783D01*
X83035500Y-75564977D01*
X82973145Y-75533454D01*
X82956425Y-75514158D01*
X82826494Y-75328597D01*
X82659402Y-75161506D01*
X82659395Y-75161501D01*
X82465834Y-75025967D01*
X82465830Y-75025965D01*
X82341022Y-74967766D01*
X82251663Y-74926097D01*
X82251659Y-74926096D01*
X82251655Y-74926094D01*
X82023413Y-74864938D01*
X82023403Y-74864936D01*
X81788001Y-74844341D01*
X81787999Y-74844341D01*
X81552596Y-74864936D01*
X81552586Y-74864938D01*
X81324344Y-74926094D01*
X81324335Y-74926098D01*
X81110171Y-75025964D01*
X81110169Y-75025965D01*
X80916597Y-75161505D01*
X80749505Y-75328597D01*
X80619575Y-75514158D01*
X80564998Y-75557783D01*
X80495500Y-75564977D01*
X80433145Y-75533454D01*
X80416425Y-75514158D01*
X80286494Y-75328597D01*
X80119402Y-75161506D01*
X80119395Y-75161501D01*
X79925834Y-75025967D01*
X79925830Y-75025965D01*
X79801022Y-74967766D01*
X79711663Y-74926097D01*
X79711659Y-74926096D01*
X79711655Y-74926094D01*
X79483413Y-74864938D01*
X79483403Y-74864936D01*
X79248001Y-74844341D01*
X79247999Y-74844341D01*
X79012596Y-74864936D01*
X79012586Y-74864938D01*
X78784344Y-74926094D01*
X78784335Y-74926098D01*
X78570171Y-75025964D01*
X78570169Y-75025965D01*
X78376597Y-75161505D01*
X78209505Y-75328597D01*
X78083313Y-75508820D01*
X78028736Y-75552445D01*
X77959238Y-75559639D01*
X77896883Y-75528116D01*
X77869963Y-75491384D01*
X77345725Y-74399937D01*
X77333500Y-74346250D01*
X77333500Y-72599908D01*
X77353185Y-72532869D01*
X77362240Y-72520527D01*
X77839500Y-71947816D01*
X77858625Y-71923378D01*
X77867925Y-71905962D01*
X77878036Y-71890068D01*
X77901796Y-71858331D01*
X77918417Y-71813765D01*
X77925224Y-71798677D01*
X77926407Y-71796464D01*
X77929119Y-71788982D01*
X77931418Y-71780455D01*
X77934954Y-71769425D01*
X77952091Y-71723483D01*
X77958500Y-71663873D01*
X77958499Y-70068128D01*
X77952091Y-70008517D01*
X77901796Y-69873669D01*
X77823677Y-69769315D01*
X77799260Y-69703854D01*
X77814111Y-69635580D01*
X77835260Y-69607328D01*
X82843944Y-64598644D01*
X82880607Y-64573308D01*
X83408729Y-64334941D01*
X83449434Y-64314309D01*
X83449436Y-64314306D01*
X83454366Y-64311195D01*
X83454683Y-64311698D01*
X83471790Y-64301484D01*
X83510742Y-64284143D01*
X83663883Y-64172880D01*
X83790545Y-64032208D01*
X83885191Y-63868276D01*
X83943686Y-63688248D01*
X83963472Y-63499992D01*
X83943686Y-63311736D01*
X83885191Y-63131708D01*
X83790545Y-62967776D01*
X83663883Y-62827104D01*
X83656985Y-62822092D01*
X83510746Y-62715843D01*
X83510743Y-62715841D01*
X83504459Y-62713043D01*
X83497602Y-62709990D01*
X83444366Y-62664742D01*
X83424044Y-62597893D01*
X83443089Y-62530669D01*
X83460353Y-62509035D01*
X85434736Y-60534652D01*
X85471397Y-60509317D01*
X85999519Y-60270948D01*
X86040222Y-60250317D01*
X86040224Y-60250314D01*
X86045154Y-60247203D01*
X86045471Y-60247706D01*
X86062578Y-60237492D01*
X86101530Y-60220151D01*
X86254671Y-60108888D01*
X86381333Y-59968216D01*
X86475979Y-59804284D01*
X86534474Y-59624256D01*
X86554260Y-59436000D01*
X86534474Y-59247744D01*
X86475979Y-59067716D01*
X86381333Y-58903784D01*
X86254671Y-58763112D01*
X86254670Y-58763111D01*
X86101534Y-58651851D01*
X86101529Y-58651848D01*
X85928607Y-58574857D01*
X85928602Y-58574855D01*
X85782801Y-58543865D01*
X85743446Y-58535500D01*
X85554154Y-58535500D01*
X85513576Y-58544124D01*
X85503244Y-58546321D01*
X85433577Y-58541003D01*
X85377844Y-58498865D01*
X85353740Y-58433285D01*
X85365688Y-58371347D01*
X85563614Y-57959275D01*
X85569419Y-57946754D01*
X85569677Y-57946177D01*
X85584539Y-57905901D01*
X85588484Y-57896438D01*
X85601903Y-57867663D01*
X85663063Y-57639408D01*
X85683659Y-57404000D01*
X85663063Y-57168592D01*
X85659545Y-57155462D01*
X85661206Y-57085614D01*
X85700367Y-57027751D01*
X85764595Y-57000245D01*
X85833498Y-57011830D01*
G37*
%TD.AperFunction*%
%TA.AperFunction,Conductor*%
G36*
X109272075Y-67756993D02*
G01*
X109337901Y-67871007D01*
X109430993Y-67964099D01*
X109545007Y-68029925D01*
X109608589Y-68046962D01*
X108976626Y-68678926D01*
X109060417Y-68737598D01*
X109060421Y-68737600D01*
X109274507Y-68837429D01*
X109274516Y-68837433D01*
X109502673Y-68898567D01*
X109502684Y-68898569D01*
X109737998Y-68919157D01*
X109738002Y-68919157D01*
X109973315Y-68898569D01*
X109973326Y-68898567D01*
X110201483Y-68837433D01*
X110206083Y-68835759D01*
X110275812Y-68831324D01*
X110336869Y-68865291D01*
X110369870Y-68926877D01*
X110372500Y-68952279D01*
X110372500Y-74815781D01*
X110352815Y-74882820D01*
X110300011Y-74928575D01*
X110230853Y-74938519D01*
X110196104Y-74928167D01*
X110191671Y-74926100D01*
X110191655Y-74926094D01*
X109963413Y-74864938D01*
X109963403Y-74864936D01*
X109728001Y-74844341D01*
X109727999Y-74844341D01*
X109492596Y-74864936D01*
X109492586Y-74864938D01*
X109264344Y-74926094D01*
X109264335Y-74926098D01*
X109050171Y-75025964D01*
X109050169Y-75025965D01*
X108856597Y-75161505D01*
X108689505Y-75328597D01*
X108559575Y-75514158D01*
X108504998Y-75557783D01*
X108435500Y-75564977D01*
X108373145Y-75533454D01*
X108356425Y-75514158D01*
X108226494Y-75328597D01*
X108059402Y-75161506D01*
X108059395Y-75161501D01*
X107865834Y-75025967D01*
X107865830Y-75025965D01*
X107741022Y-74967766D01*
X107651663Y-74926097D01*
X107651659Y-74926096D01*
X107651655Y-74926094D01*
X107423413Y-74864938D01*
X107423403Y-74864936D01*
X107188001Y-74844341D01*
X107187999Y-74844341D01*
X106952596Y-74864936D01*
X106952586Y-74864938D01*
X106724344Y-74926094D01*
X106724335Y-74926098D01*
X106510171Y-75025964D01*
X106510169Y-75025965D01*
X106316597Y-75161505D01*
X106149505Y-75328597D01*
X106019575Y-75514158D01*
X105964998Y-75557783D01*
X105895500Y-75564977D01*
X105833145Y-75533454D01*
X105816425Y-75514158D01*
X105686494Y-75328597D01*
X105519402Y-75161506D01*
X105519395Y-75161501D01*
X105325834Y-75025967D01*
X105325830Y-75025965D01*
X105201022Y-74967766D01*
X105111663Y-74926097D01*
X105111659Y-74926096D01*
X105111655Y-74926094D01*
X104883413Y-74864938D01*
X104883403Y-74864936D01*
X104648001Y-74844341D01*
X104647999Y-74844341D01*
X104412596Y-74864936D01*
X104412586Y-74864938D01*
X104184344Y-74926094D01*
X104184335Y-74926098D01*
X103970171Y-75025964D01*
X103970169Y-75025965D01*
X103776597Y-75161505D01*
X103609505Y-75328597D01*
X103483313Y-75508820D01*
X103428736Y-75552445D01*
X103359238Y-75559639D01*
X103296883Y-75528116D01*
X103269963Y-75491384D01*
X102745725Y-74399937D01*
X102733500Y-74346250D01*
X102733500Y-71313345D01*
X102733501Y-71313324D01*
X102733501Y-71183995D01*
X102709464Y-71063159D01*
X102709463Y-71063153D01*
X102662312Y-70949319D01*
X102593858Y-70846871D01*
X102593855Y-70846867D01*
X101511819Y-69764831D01*
X101478334Y-69703508D01*
X101475500Y-69677150D01*
X101475500Y-68949150D01*
X101495185Y-68882111D01*
X101547989Y-68836356D01*
X101617147Y-68826412D01*
X101651907Y-68836770D01*
X101654337Y-68837903D01*
X101882592Y-68899063D01*
X102070918Y-68915539D01*
X102117999Y-68919659D01*
X102118000Y-68919659D01*
X102118001Y-68919659D01*
X102157234Y-68916226D01*
X102353408Y-68899063D01*
X102581663Y-68837903D01*
X102795830Y-68738035D01*
X102989401Y-68602495D01*
X103156495Y-68435401D01*
X103286425Y-68249842D01*
X103341002Y-68206217D01*
X103410500Y-68199023D01*
X103472855Y-68230546D01*
X103489575Y-68249842D01*
X103619505Y-68435401D01*
X103786599Y-68602495D01*
X103883384Y-68670265D01*
X103980165Y-68738032D01*
X103980167Y-68738033D01*
X103980170Y-68738035D01*
X104194337Y-68837903D01*
X104422592Y-68899063D01*
X104610918Y-68915539D01*
X104657999Y-68919659D01*
X104658000Y-68919659D01*
X104658001Y-68919659D01*
X104697234Y-68916226D01*
X104893408Y-68899063D01*
X105121663Y-68837903D01*
X105335830Y-68738035D01*
X105529401Y-68602495D01*
X105696495Y-68435401D01*
X105826425Y-68249842D01*
X105881002Y-68206217D01*
X105950500Y-68199023D01*
X106012855Y-68230546D01*
X106029575Y-68249842D01*
X106159505Y-68435401D01*
X106326599Y-68602495D01*
X106423384Y-68670265D01*
X106520165Y-68738032D01*
X106520167Y-68738033D01*
X106520170Y-68738035D01*
X106734337Y-68837903D01*
X106962592Y-68899063D01*
X107150918Y-68915539D01*
X107197999Y-68919659D01*
X107198000Y-68919659D01*
X107198001Y-68919659D01*
X107237234Y-68916226D01*
X107433408Y-68899063D01*
X107661663Y-68837903D01*
X107875830Y-68738035D01*
X108069401Y-68602495D01*
X108236495Y-68435401D01*
X108366730Y-68249405D01*
X108421307Y-68205781D01*
X108490805Y-68198587D01*
X108553160Y-68230110D01*
X108569879Y-68249405D01*
X108623072Y-68325372D01*
X108623073Y-68325372D01*
X109255037Y-67693408D01*
X109272075Y-67756993D01*
G37*
%TD.AperFunction*%
%TA.AperFunction,Conductor*%
G36*
X50102722Y-58385169D02*
G01*
X50110421Y-58364528D01*
X50152292Y-58308594D01*
X50217757Y-58284177D01*
X50286029Y-58299029D01*
X50314284Y-58320180D01*
X50436599Y-58442495D01*
X50465538Y-58462758D01*
X50630165Y-58578032D01*
X50630167Y-58578033D01*
X50630170Y-58578035D01*
X50844337Y-58677903D01*
X50844343Y-58677904D01*
X50844344Y-58677905D01*
X50867487Y-58684106D01*
X51072592Y-58739063D01*
X51243319Y-58754000D01*
X51307999Y-58759659D01*
X51308000Y-58759659D01*
X51308001Y-58759659D01*
X51372681Y-58754000D01*
X51543408Y-58739063D01*
X51559399Y-58734778D01*
X51629245Y-58736439D01*
X51687109Y-58775599D01*
X51714616Y-58839826D01*
X51703032Y-58908729D01*
X51679174Y-58942233D01*
X38204969Y-72416437D01*
X38204929Y-72416480D01*
X38122139Y-72499270D01*
X38122138Y-72499272D01*
X38087914Y-72550489D01*
X38087915Y-72550490D01*
X38053688Y-72601713D01*
X38053685Y-72601718D01*
X38038025Y-72639529D01*
X38038024Y-72639532D01*
X38006538Y-72715545D01*
X38006535Y-72715555D01*
X37982500Y-72836389D01*
X37982500Y-74346250D01*
X37970275Y-74399937D01*
X37446036Y-75491383D01*
X37399267Y-75543291D01*
X37331858Y-75561673D01*
X37265213Y-75540693D01*
X37232686Y-75508819D01*
X37106494Y-75328597D01*
X36939402Y-75161506D01*
X36939395Y-75161501D01*
X36745832Y-75025966D01*
X36621024Y-74967766D01*
X36607631Y-74960486D01*
X36587402Y-74947821D01*
X36587397Y-74947819D01*
X36078421Y-74722595D01*
X35344764Y-74397948D01*
X35307260Y-74372235D01*
X34953819Y-74018794D01*
X34920334Y-73957471D01*
X34917500Y-73931113D01*
X34917500Y-58462758D01*
X34937185Y-58395719D01*
X34989989Y-58349964D01*
X35059147Y-58340020D01*
X35122703Y-58369045D01*
X35129181Y-58375077D01*
X35196599Y-58442495D01*
X35225538Y-58462758D01*
X35390165Y-58578032D01*
X35390167Y-58578033D01*
X35390170Y-58578035D01*
X35604337Y-58677903D01*
X35604343Y-58677904D01*
X35604344Y-58677905D01*
X35627487Y-58684106D01*
X35832592Y-58739063D01*
X36003319Y-58754000D01*
X36067999Y-58759659D01*
X36068000Y-58759659D01*
X36068001Y-58759659D01*
X36132681Y-58754000D01*
X36303408Y-58739063D01*
X36531663Y-58677903D01*
X36745830Y-58578035D01*
X36939401Y-58442495D01*
X37106495Y-58275401D01*
X37236425Y-58089842D01*
X37291002Y-58046217D01*
X37360500Y-58039023D01*
X37422855Y-58070546D01*
X37439575Y-58089842D01*
X37553496Y-58252539D01*
X37569505Y-58275401D01*
X37736599Y-58442495D01*
X37765538Y-58462758D01*
X37930165Y-58578032D01*
X37930167Y-58578033D01*
X37930170Y-58578035D01*
X38144337Y-58677903D01*
X38144343Y-58677904D01*
X38144344Y-58677905D01*
X38167487Y-58684106D01*
X38372592Y-58739063D01*
X38543319Y-58754000D01*
X38607999Y-58759659D01*
X38608000Y-58759659D01*
X38608001Y-58759659D01*
X38672681Y-58754000D01*
X38843408Y-58739063D01*
X39071663Y-58677903D01*
X39285830Y-58578035D01*
X39479401Y-58442495D01*
X39646495Y-58275401D01*
X39776425Y-58089842D01*
X39831002Y-58046217D01*
X39900500Y-58039023D01*
X39962855Y-58070546D01*
X39979575Y-58089842D01*
X40093496Y-58252539D01*
X40109505Y-58275401D01*
X40276599Y-58442495D01*
X40305538Y-58462758D01*
X40470165Y-58578032D01*
X40470167Y-58578033D01*
X40470170Y-58578035D01*
X40684337Y-58677903D01*
X40684343Y-58677904D01*
X40684344Y-58677905D01*
X40707487Y-58684106D01*
X40912592Y-58739063D01*
X41083319Y-58754000D01*
X41147999Y-58759659D01*
X41148000Y-58759659D01*
X41148001Y-58759659D01*
X41212681Y-58754000D01*
X41383408Y-58739063D01*
X41611663Y-58677903D01*
X41825830Y-58578035D01*
X42019401Y-58442495D01*
X42186495Y-58275401D01*
X42316425Y-58089842D01*
X42371002Y-58046217D01*
X42440500Y-58039023D01*
X42502855Y-58070546D01*
X42519575Y-58089842D01*
X42633496Y-58252539D01*
X42649505Y-58275401D01*
X42816599Y-58442495D01*
X42845538Y-58462758D01*
X43010165Y-58578032D01*
X43010167Y-58578033D01*
X43010170Y-58578035D01*
X43224337Y-58677903D01*
X43224343Y-58677904D01*
X43224344Y-58677905D01*
X43247487Y-58684106D01*
X43452592Y-58739063D01*
X43623319Y-58754000D01*
X43687999Y-58759659D01*
X43688000Y-58759659D01*
X43688001Y-58759659D01*
X43752681Y-58754000D01*
X43923408Y-58739063D01*
X44151663Y-58677903D01*
X44365830Y-58578035D01*
X44559401Y-58442495D01*
X44726495Y-58275401D01*
X44856425Y-58089842D01*
X44911002Y-58046217D01*
X44980500Y-58039023D01*
X45042855Y-58070546D01*
X45059575Y-58089842D01*
X45173496Y-58252539D01*
X45189505Y-58275401D01*
X45356599Y-58442495D01*
X45385538Y-58462758D01*
X45550165Y-58578032D01*
X45550167Y-58578033D01*
X45550170Y-58578035D01*
X45764337Y-58677903D01*
X45764343Y-58677904D01*
X45764344Y-58677905D01*
X45787487Y-58684106D01*
X45992592Y-58739063D01*
X46163319Y-58754000D01*
X46227999Y-58759659D01*
X46228000Y-58759659D01*
X46228001Y-58759659D01*
X46292681Y-58754000D01*
X46463408Y-58739063D01*
X46691663Y-58677903D01*
X46905830Y-58578035D01*
X47099401Y-58442495D01*
X47221717Y-58320178D01*
X47283036Y-58286696D01*
X47352728Y-58291680D01*
X47408662Y-58333551D01*
X47425576Y-58364527D01*
X47433275Y-58385170D01*
X47433277Y-58385170D01*
X48276872Y-57541575D01*
X48292755Y-57600853D01*
X48359898Y-57717147D01*
X48454853Y-57812102D01*
X48571147Y-57879245D01*
X48630422Y-57895127D01*
X47786828Y-58738721D01*
X47786829Y-58738722D01*
X47810623Y-58747597D01*
X47810627Y-58747598D01*
X47870155Y-58753999D01*
X47870172Y-58754000D01*
X49665828Y-58754000D01*
X49665844Y-58753999D01*
X49725376Y-58747598D01*
X49725377Y-58747597D01*
X49749170Y-58738722D01*
X49749170Y-58738720D01*
X48905576Y-57895127D01*
X48964853Y-57879245D01*
X49081147Y-57812102D01*
X49176102Y-57717147D01*
X49243245Y-57600853D01*
X49259128Y-57541575D01*
X50102722Y-58385169D01*
G37*
%TD.AperFunction*%
%TA.AperFunction,Conductor*%
G36*
X57596834Y-62516268D02*
G01*
X57652767Y-62558140D01*
X57677184Y-62623604D01*
X57677500Y-62632450D01*
X57677500Y-64033870D01*
X57677501Y-64033876D01*
X57683908Y-64093483D01*
X57734202Y-64228328D01*
X57734206Y-64228335D01*
X57820452Y-64343544D01*
X57820455Y-64343547D01*
X57935685Y-64429809D01*
X57977556Y-64485743D01*
X57982540Y-64555434D01*
X57960329Y-64603801D01*
X57924288Y-64651527D01*
X57827184Y-64846537D01*
X57827183Y-64846541D01*
X57773254Y-65036084D01*
X57767564Y-65056081D01*
X57747464Y-65272999D01*
X57747464Y-65273000D01*
X57767564Y-65489918D01*
X57767564Y-65489920D01*
X57767565Y-65489923D01*
X57802795Y-65613744D01*
X57827184Y-65699462D01*
X57912216Y-65870228D01*
X57924477Y-65939013D01*
X57897604Y-66003508D01*
X57840128Y-66043236D01*
X57801216Y-66049500D01*
X57386045Y-66049500D01*
X57325627Y-66061518D01*
X57282399Y-66070116D01*
X57265202Y-66073537D01*
X57151372Y-66120687D01*
X57151363Y-66120692D01*
X57048924Y-66189140D01*
X57026132Y-66211933D01*
X56961798Y-66276267D01*
X48369267Y-74868798D01*
X48334094Y-74903970D01*
X48298819Y-74928670D01*
X48090171Y-75025964D01*
X48090169Y-75025965D01*
X47896597Y-75161505D01*
X47729505Y-75328597D01*
X47603313Y-75508820D01*
X47548736Y-75552445D01*
X47479238Y-75559639D01*
X47416883Y-75528116D01*
X47389963Y-75491384D01*
X46865725Y-74399937D01*
X46853500Y-74346250D01*
X46853500Y-73208451D01*
X46873185Y-73141412D01*
X46889814Y-73120775D01*
X57465821Y-62544767D01*
X57527142Y-62511284D01*
X57596834Y-62516268D01*
G37*
%TD.AperFunction*%
%TA.AperFunction,Conductor*%
G36*
X53375586Y-59573185D02*
G01*
X53421341Y-59625989D01*
X53431285Y-59695147D01*
X53402260Y-59758703D01*
X53396228Y-59765181D01*
X40744969Y-72416437D01*
X40744929Y-72416480D01*
X40662139Y-72499270D01*
X40662138Y-72499272D01*
X40627914Y-72550489D01*
X40627915Y-72550490D01*
X40593688Y-72601713D01*
X40593685Y-72601718D01*
X40578025Y-72639529D01*
X40578024Y-72639532D01*
X40546538Y-72715545D01*
X40546535Y-72715555D01*
X40522500Y-72836389D01*
X40522500Y-74346250D01*
X40510275Y-74399937D01*
X39989774Y-75483600D01*
X39943005Y-75535508D01*
X39875596Y-75553890D01*
X39808951Y-75532910D01*
X39766224Y-75483600D01*
X39245725Y-74399937D01*
X39233500Y-74346250D01*
X39233500Y-73208452D01*
X39253185Y-73141413D01*
X39269819Y-73120771D01*
X52800772Y-59589819D01*
X52862095Y-59556334D01*
X52888453Y-59553500D01*
X53308547Y-59553500D01*
X53375586Y-59573185D01*
G37*
%TD.AperFunction*%
%TA.AperFunction,Conductor*%
G36*
X55026587Y-60462185D02*
G01*
X55072342Y-60514989D01*
X55082286Y-60584147D01*
X55053261Y-60647703D01*
X55047229Y-60654180D01*
X49115951Y-66585458D01*
X43289270Y-72412139D01*
X43202144Y-72499264D01*
X43202138Y-72499272D01*
X43167914Y-72550489D01*
X43167915Y-72550490D01*
X43133688Y-72601713D01*
X43133685Y-72601718D01*
X43118025Y-72639529D01*
X43118024Y-72639532D01*
X43086538Y-72715545D01*
X43086535Y-72715555D01*
X43062500Y-72836389D01*
X43062500Y-74346250D01*
X43050275Y-74399937D01*
X42529774Y-75483600D01*
X42483005Y-75535508D01*
X42415596Y-75553890D01*
X42348951Y-75532910D01*
X42306224Y-75483600D01*
X41785725Y-74399937D01*
X41773500Y-74346250D01*
X41773500Y-73208452D01*
X41793185Y-73141413D01*
X41809819Y-73120771D01*
X54451772Y-60478819D01*
X54513095Y-60445334D01*
X54539453Y-60442500D01*
X54959548Y-60442500D01*
X55026587Y-60462185D01*
G37*
%TD.AperFunction*%
%TA.AperFunction,Conductor*%
G36*
X56677587Y-61351185D02*
G01*
X56723342Y-61403989D01*
X56733286Y-61473147D01*
X56704261Y-61536703D01*
X56698229Y-61543180D01*
X51232685Y-67008724D01*
X45829270Y-72412139D01*
X45742144Y-72499264D01*
X45742138Y-72499272D01*
X45707914Y-72550489D01*
X45707915Y-72550490D01*
X45673688Y-72601713D01*
X45673685Y-72601718D01*
X45658025Y-72639529D01*
X45658024Y-72639532D01*
X45626538Y-72715545D01*
X45626535Y-72715555D01*
X45602500Y-72836389D01*
X45602500Y-74346250D01*
X45590275Y-74399937D01*
X45069774Y-75483600D01*
X45023005Y-75535508D01*
X44955596Y-75553890D01*
X44888951Y-75532910D01*
X44846224Y-75483600D01*
X44325725Y-74399937D01*
X44313500Y-74346250D01*
X44313500Y-73208452D01*
X44333185Y-73141413D01*
X44349819Y-73120771D01*
X56102771Y-61367819D01*
X56164094Y-61334334D01*
X56190452Y-61331500D01*
X56610548Y-61331500D01*
X56677587Y-61351185D01*
G37*
%TD.AperFunction*%
%TA.AperFunction,Conductor*%
G36*
X100398703Y-70421344D02*
G01*
X100405181Y-70427376D01*
X100458332Y-70480527D01*
X100458338Y-70480532D01*
X101446181Y-71468375D01*
X101479666Y-71529698D01*
X101482500Y-71556056D01*
X101482500Y-74346250D01*
X101470275Y-74399937D01*
X100949774Y-75483600D01*
X100903005Y-75535508D01*
X100835596Y-75553890D01*
X100768951Y-75532910D01*
X100726224Y-75483600D01*
X100205725Y-74399937D01*
X100193500Y-74346250D01*
X100193500Y-70515057D01*
X100213185Y-70448018D01*
X100265989Y-70402263D01*
X100335147Y-70392319D01*
X100398703Y-70421344D01*
G37*
%TD.AperFunction*%
%TA.AperFunction,Conductor*%
G36*
X100733768Y-51264969D02*
G01*
X100748724Y-51277722D01*
X110336181Y-60865179D01*
X110369666Y-60926502D01*
X110372500Y-60952860D01*
X110372500Y-66175720D01*
X110352815Y-66242759D01*
X110300011Y-66288514D01*
X110230853Y-66298458D01*
X110206094Y-66292243D01*
X110201499Y-66290570D01*
X109973326Y-66229432D01*
X109973315Y-66229430D01*
X109738002Y-66208843D01*
X109737998Y-66208843D01*
X109502684Y-66229430D01*
X109502673Y-66229432D01*
X109274516Y-66290566D01*
X109274507Y-66290570D01*
X109060423Y-66390399D01*
X109060421Y-66390400D01*
X108976627Y-66449073D01*
X108976626Y-66449073D01*
X109608590Y-67081037D01*
X109545007Y-67098075D01*
X109430993Y-67163901D01*
X109337901Y-67256993D01*
X109272075Y-67371007D01*
X109255037Y-67434590D01*
X108623073Y-66802626D01*
X108623072Y-66802627D01*
X108573561Y-66873337D01*
X108518984Y-66916962D01*
X108449486Y-66924155D01*
X108387131Y-66892633D01*
X108360211Y-66855901D01*
X107835725Y-65763937D01*
X107823500Y-65710250D01*
X107823500Y-59513741D01*
X107823501Y-59513720D01*
X107823501Y-59384391D01*
X107799465Y-59263559D01*
X107799464Y-59263558D01*
X107799463Y-59263549D01*
X107799459Y-59263539D01*
X107799102Y-59262677D01*
X107799089Y-59262646D01*
X107771802Y-59196768D01*
X107752312Y-59149715D01*
X107691461Y-59058645D01*
X107683858Y-59047266D01*
X107683855Y-59047263D01*
X100924528Y-52287938D01*
X100924525Y-52287934D01*
X100924525Y-52287935D01*
X100917458Y-52280868D01*
X100917458Y-52280867D01*
X100830333Y-52193742D01*
X100830332Y-52193741D01*
X100830331Y-52193740D01*
X100779109Y-52159515D01*
X100727886Y-52125288D01*
X100727883Y-52125286D01*
X100727882Y-52125286D01*
X100727881Y-52125285D01*
X100620498Y-52080807D01*
X100620497Y-52080806D01*
X100614052Y-52078137D01*
X100553629Y-52066118D01*
X100552652Y-52065923D01*
X100552076Y-52065809D01*
X100490171Y-52033414D01*
X100455607Y-51972692D01*
X100459358Y-51902924D01*
X100459770Y-51901775D01*
X100460904Y-51898659D01*
X100479049Y-51830939D01*
X100522063Y-51670408D01*
X100542659Y-51435000D01*
X100537515Y-51376209D01*
X100551281Y-51307712D01*
X100599896Y-51257528D01*
X100667924Y-51241594D01*
X100733768Y-51264969D01*
G37*
%TD.AperFunction*%
%TA.AperFunction,Conductor*%
G36*
X100746632Y-56520822D02*
G01*
X103996181Y-59770371D01*
X104029666Y-59831694D01*
X104032500Y-59858052D01*
X104032500Y-65710250D01*
X104020275Y-65763937D01*
X103499774Y-66847600D01*
X103453005Y-66899508D01*
X103385596Y-66917890D01*
X103318951Y-66896910D01*
X103276224Y-66847600D01*
X102755725Y-65763937D01*
X102743500Y-65710250D01*
X102743500Y-59638395D01*
X102742735Y-59634548D01*
X102737715Y-59609312D01*
X102737714Y-59609309D01*
X102724099Y-59540858D01*
X102719463Y-59517549D01*
X102708653Y-59491452D01*
X102672311Y-59403714D01*
X102672309Y-59403711D01*
X102672307Y-59403707D01*
X102603858Y-59301267D01*
X102603855Y-59301263D01*
X102512414Y-59209822D01*
X102512391Y-59209801D01*
X100667799Y-57365208D01*
X100667779Y-57365186D01*
X100576334Y-57273741D01*
X100525110Y-57239515D01*
X100525109Y-57239514D01*
X100471860Y-57203933D01*
X100427055Y-57150320D01*
X100418349Y-57080995D01*
X100428369Y-57048429D01*
X100460903Y-56978663D01*
X100522063Y-56750408D01*
X100535424Y-56597693D01*
X100560875Y-56532627D01*
X100617466Y-56491648D01*
X100687228Y-56487770D01*
X100746632Y-56520822D01*
G37*
%TD.AperFunction*%
%TA.AperFunction,Conductor*%
G36*
X100608087Y-53744685D02*
G01*
X100628729Y-53761319D01*
X106536181Y-59668771D01*
X106569666Y-59730094D01*
X106572500Y-59756452D01*
X106572500Y-65710250D01*
X106560275Y-65763937D01*
X106039774Y-66847600D01*
X105993005Y-66899508D01*
X105925596Y-66917890D01*
X105858951Y-66896910D01*
X105816224Y-66847600D01*
X105295725Y-65763937D01*
X105283500Y-65710250D01*
X105283500Y-59485994D01*
X105283499Y-59485988D01*
X105282768Y-59482314D01*
X105282764Y-59482296D01*
X105269152Y-59413857D01*
X105269152Y-59413856D01*
X105259464Y-59365153D01*
X105259463Y-59365152D01*
X105259463Y-59365148D01*
X105212311Y-59251314D01*
X105212310Y-59251313D01*
X105212307Y-59251307D01*
X105143858Y-59148867D01*
X105143855Y-59148863D01*
X105053637Y-59058645D01*
X105053606Y-59058616D01*
X100820198Y-54825208D01*
X100820178Y-54825186D01*
X100728733Y-54733741D01*
X100677509Y-54699515D01*
X100626287Y-54665289D01*
X100626286Y-54665288D01*
X100626283Y-54665286D01*
X100626280Y-54665285D01*
X100545792Y-54631947D01*
X100545791Y-54631946D01*
X100518312Y-54620564D01*
X100463910Y-54576723D01*
X100441846Y-54510429D01*
X100453387Y-54453595D01*
X100460430Y-54438492D01*
X100460432Y-54438486D01*
X100517636Y-54225000D01*
X99620012Y-54225000D01*
X99652925Y-54167993D01*
X99687000Y-54040826D01*
X99687000Y-53909174D01*
X99652925Y-53782007D01*
X99620012Y-53725000D01*
X100541048Y-53725000D01*
X100608087Y-53744685D01*
G37*
%TD.AperFunction*%
%TA.AperFunction,Conductor*%
G36*
X100734371Y-59200961D02*
G01*
X101456181Y-59922771D01*
X101489666Y-59984094D01*
X101492500Y-60010452D01*
X101492500Y-65710250D01*
X101480275Y-65763937D01*
X101286146Y-66168106D01*
X101239377Y-66220014D01*
X101171968Y-66238396D01*
X101105323Y-66217416D01*
X101086690Y-66202100D01*
X100589798Y-65705208D01*
X100589778Y-65705186D01*
X100498336Y-65613744D01*
X100498328Y-65613738D01*
X100445206Y-65578243D01*
X100445204Y-65578242D01*
X100395886Y-65545288D01*
X100395887Y-65545288D01*
X100395885Y-65545287D01*
X100350367Y-65526434D01*
X100304849Y-65507580D01*
X100282052Y-65498137D01*
X100282048Y-65498136D01*
X100282044Y-65498135D01*
X100207483Y-65483304D01*
X100207482Y-65483304D01*
X100161211Y-65474100D01*
X100161207Y-65474100D01*
X100161206Y-65474100D01*
X98210853Y-65474100D01*
X98143814Y-65454415D01*
X98123172Y-65437781D01*
X95117573Y-62432182D01*
X95084088Y-62370859D01*
X95089072Y-62301167D01*
X95130944Y-62245234D01*
X95196408Y-62220817D01*
X95205254Y-62220501D01*
X95292321Y-62220501D01*
X95292341Y-62220500D01*
X97249139Y-62220500D01*
X97316178Y-62240185D01*
X97329608Y-62250157D01*
X97999755Y-62821754D01*
X97999893Y-62821871D01*
X98000153Y-62822092D01*
X98000864Y-62822698D01*
X98006398Y-62827104D01*
X98027322Y-62843764D01*
X98045308Y-62853500D01*
X98060572Y-62863271D01*
X98094665Y-62888793D01*
X98094669Y-62888796D01*
X98137506Y-62904773D01*
X98153201Y-62911906D01*
X98153837Y-62912250D01*
X98153843Y-62912252D01*
X98153853Y-62912258D01*
X98161439Y-62915056D01*
X98169529Y-62917262D01*
X98180230Y-62920708D01*
X98229517Y-62939091D01*
X98289127Y-62945500D01*
X100084872Y-62945499D01*
X100144483Y-62939091D01*
X100279331Y-62888796D01*
X100394546Y-62802546D01*
X100480796Y-62687331D01*
X100531091Y-62552483D01*
X100537500Y-62492873D01*
X100537499Y-60697128D01*
X100531091Y-60637517D01*
X100511185Y-60584147D01*
X100480797Y-60502671D01*
X100480793Y-60502664D01*
X100394547Y-60387455D01*
X100394544Y-60387452D01*
X100279335Y-60301206D01*
X100279328Y-60301202D01*
X100147917Y-60252189D01*
X100091983Y-60210318D01*
X100067566Y-60144853D01*
X100082418Y-60076580D01*
X100103563Y-60048332D01*
X100225495Y-59926401D01*
X100361035Y-59732830D01*
X100460903Y-59518663D01*
X100522063Y-59290408D01*
X100523162Y-59277836D01*
X100548611Y-59212771D01*
X100605199Y-59171789D01*
X100674961Y-59167908D01*
X100734371Y-59200961D01*
G37*
%TD.AperFunction*%
%TA.AperFunction,Conductor*%
G36*
X80599117Y-58075884D02*
G01*
X80626037Y-58112616D01*
X81150274Y-59204060D01*
X81150275Y-59204061D01*
X81162500Y-59257748D01*
X81162500Y-59887547D01*
X81142815Y-59954586D01*
X81126181Y-59975228D01*
X78123374Y-62978034D01*
X78062051Y-63011519D01*
X77992359Y-63006535D01*
X77936426Y-62964663D01*
X77915918Y-62922447D01*
X77890371Y-62827104D01*
X77887575Y-62816670D01*
X77795102Y-62618362D01*
X77795100Y-62618359D01*
X77795099Y-62618357D01*
X77669599Y-62439124D01*
X77601334Y-62370859D01*
X77514877Y-62284402D01*
X77361394Y-62176932D01*
X77335638Y-62158897D01*
X77208815Y-62099759D01*
X77137330Y-62066425D01*
X77137326Y-62066424D01*
X77137322Y-62066422D01*
X76925977Y-62009793D01*
X76708002Y-61990723D01*
X76707998Y-61990723D01*
X76562682Y-62003436D01*
X76490023Y-62009793D01*
X76490020Y-62009793D01*
X76278674Y-62066423D01*
X76233779Y-62087357D01*
X76217079Y-62093722D01*
X76197003Y-62099757D01*
X76196998Y-62099759D01*
X75492717Y-62426862D01*
X75423623Y-62437248D01*
X75387907Y-62426702D01*
X75372147Y-62419323D01*
X75311984Y-62391156D01*
X75259619Y-62344905D01*
X75240570Y-62277682D01*
X75260888Y-62210832D01*
X75314123Y-62165579D01*
X75317075Y-62164310D01*
X75353286Y-62149312D01*
X75413521Y-62109063D01*
X75455733Y-62080858D01*
X75542858Y-61993733D01*
X75542859Y-61993731D01*
X75549925Y-61986665D01*
X75549928Y-61986661D01*
X78379496Y-59157092D01*
X78426098Y-59127776D01*
X79689903Y-58684100D01*
X79698864Y-58681332D01*
X79711663Y-58677903D01*
X79718622Y-58674657D01*
X79728399Y-58670597D01*
X79741716Y-58665721D01*
X79741727Y-58665716D01*
X79741751Y-58665708D01*
X79742341Y-58665483D01*
X79803989Y-58637097D01*
X79803995Y-58637092D01*
X79809592Y-58633765D01*
X79809729Y-58633996D01*
X79823570Y-58625719D01*
X79857490Y-58609901D01*
X79925830Y-58578035D01*
X80119401Y-58442495D01*
X80286495Y-58275401D01*
X80412687Y-58095179D01*
X80467264Y-58051555D01*
X80536762Y-58044361D01*
X80599117Y-58075884D01*
G37*
%TD.AperFunction*%
%TA.AperFunction,Conductor*%
G36*
X50102722Y-40605170D02*
G01*
X50110421Y-40584528D01*
X50152292Y-40528594D01*
X50217757Y-40504177D01*
X50286029Y-40519029D01*
X50314284Y-40540180D01*
X50436599Y-40662495D01*
X50465538Y-40682758D01*
X50630165Y-40798032D01*
X50630167Y-40798033D01*
X50630170Y-40798035D01*
X50844337Y-40897903D01*
X51072592Y-40959063D01*
X51243319Y-40974000D01*
X51307999Y-40979659D01*
X51308000Y-40979659D01*
X51308001Y-40979659D01*
X51372681Y-40974000D01*
X51543408Y-40959063D01*
X51771663Y-40897903D01*
X51985830Y-40798035D01*
X52179401Y-40662495D01*
X52346495Y-40495401D01*
X52472687Y-40315179D01*
X52527264Y-40271555D01*
X52596762Y-40264361D01*
X52659117Y-40295884D01*
X52686037Y-40332616D01*
X53210274Y-41424060D01*
X53210275Y-41424061D01*
X53222500Y-41477748D01*
X53222500Y-43114611D01*
X53246535Y-43235444D01*
X53246540Y-43235461D01*
X53293685Y-43349280D01*
X53293690Y-43349289D01*
X53327914Y-43400507D01*
X53327915Y-43400509D01*
X53362141Y-43451733D01*
X53453586Y-43543178D01*
X53453608Y-43543198D01*
X60445616Y-50535206D01*
X60445645Y-50535237D01*
X60535864Y-50625456D01*
X60535867Y-50625458D01*
X60612790Y-50676856D01*
X60638310Y-50693909D01*
X60638312Y-50693910D01*
X60638315Y-50693912D01*
X60704996Y-50721531D01*
X60704998Y-50721533D01*
X60745240Y-50738201D01*
X60752148Y-50741063D01*
X60812571Y-50753081D01*
X60872993Y-50765100D01*
X60872994Y-50765100D01*
X86049548Y-50765100D01*
X86116587Y-50784785D01*
X86137229Y-50801419D01*
X94876663Y-59540855D01*
X94876667Y-59540858D01*
X94979110Y-59609309D01*
X94979111Y-59609309D01*
X94979115Y-59609312D01*
X95040041Y-59634548D01*
X95092948Y-59656463D01*
X95112997Y-59660451D01*
X95146596Y-59667134D01*
X95213792Y-59680501D01*
X95213794Y-59680501D01*
X95343121Y-59680501D01*
X95343141Y-59680500D01*
X97333251Y-59680500D01*
X97386938Y-59692725D01*
X98146220Y-60057419D01*
X98198127Y-60104187D01*
X98216509Y-60171595D01*
X98195529Y-60238241D01*
X98141848Y-60282964D01*
X98137027Y-60284935D01*
X98117714Y-60292359D01*
X98113749Y-60294087D01*
X98094671Y-60301202D01*
X98094668Y-60301204D01*
X98039853Y-60342239D01*
X98031770Y-60347804D01*
X98000741Y-60367406D01*
X98000740Y-60367407D01*
X98000734Y-60367411D01*
X97329607Y-60939843D01*
X97265827Y-60968372D01*
X97249138Y-60969500D01*
X95535053Y-60969500D01*
X95468014Y-60949815D01*
X95447372Y-60933181D01*
X86141727Y-51627537D01*
X86141724Y-51627533D01*
X86141724Y-51627534D01*
X86134657Y-51620467D01*
X86134657Y-51620466D01*
X86047532Y-51533341D01*
X85979688Y-51488009D01*
X85945085Y-51464887D01*
X85945086Y-51464887D01*
X85945084Y-51464886D01*
X85904838Y-51448216D01*
X85864591Y-51431546D01*
X85831252Y-51417736D01*
X85821226Y-51415742D01*
X85770828Y-51405717D01*
X85710409Y-51393699D01*
X85710406Y-51393699D01*
X85710405Y-51393699D01*
X67476238Y-51393699D01*
X67432393Y-51385688D01*
X67051213Y-51241594D01*
X66905142Y-51186376D01*
X66905126Y-51186369D01*
X66890394Y-51180801D01*
X66853047Y-51168579D01*
X66841181Y-51164010D01*
X66827806Y-51158055D01*
X66735226Y-51138377D01*
X66642648Y-51118699D01*
X66453356Y-51118699D01*
X66420899Y-51125597D01*
X66268199Y-51158054D01*
X66268194Y-51158056D01*
X66095272Y-51235047D01*
X66095267Y-51235050D01*
X65942131Y-51346310D01*
X65815468Y-51486984D01*
X65720823Y-51650914D01*
X65720820Y-51650921D01*
X65662329Y-51830939D01*
X65662328Y-51830943D01*
X65642542Y-52019199D01*
X65662328Y-52207455D01*
X65662329Y-52207458D01*
X65720820Y-52387476D01*
X65720823Y-52387483D01*
X65772910Y-52477700D01*
X65789383Y-52545600D01*
X65766530Y-52611627D01*
X65711609Y-52654818D01*
X65665523Y-52663700D01*
X62981189Y-52663700D01*
X62920771Y-52675718D01*
X62860348Y-52687737D01*
X62860343Y-52687738D01*
X62827007Y-52701547D01*
X62813197Y-52707267D01*
X62790969Y-52716474D01*
X62746513Y-52734888D01*
X62736357Y-52741675D01*
X62736249Y-52741747D01*
X62644068Y-52803340D01*
X62600505Y-52846903D01*
X62556942Y-52890467D01*
X62556939Y-52890470D01*
X59796506Y-55650902D01*
X59749899Y-55680221D01*
X58486091Y-56123899D01*
X58477113Y-56126673D01*
X58464340Y-56130095D01*
X58464338Y-56130096D01*
X58457371Y-56133344D01*
X58447678Y-56137372D01*
X58433852Y-56142442D01*
X58433833Y-56142449D01*
X58433268Y-56142665D01*
X58433255Y-56142670D01*
X58433253Y-56142671D01*
X58372014Y-56170899D01*
X58366425Y-56174225D01*
X58366288Y-56173995D01*
X58352433Y-56182277D01*
X58250172Y-56229963D01*
X58250169Y-56229965D01*
X58056597Y-56365505D01*
X57889505Y-56532597D01*
X57759575Y-56718158D01*
X57704998Y-56761783D01*
X57635500Y-56768977D01*
X57573145Y-56737454D01*
X57556425Y-56718158D01*
X57426494Y-56532597D01*
X57259402Y-56365506D01*
X57259395Y-56365501D01*
X57250783Y-56359471D01*
X57189602Y-56316631D01*
X57065834Y-56229967D01*
X57065830Y-56229965D01*
X56963563Y-56182277D01*
X56851663Y-56130097D01*
X56851659Y-56130096D01*
X56851655Y-56130094D01*
X56623413Y-56068938D01*
X56623403Y-56068936D01*
X56388001Y-56048341D01*
X56387999Y-56048341D01*
X56152596Y-56068936D01*
X56152586Y-56068938D01*
X55924344Y-56130094D01*
X55924335Y-56130098D01*
X55710171Y-56229964D01*
X55710169Y-56229965D01*
X55516597Y-56365505D01*
X55349505Y-56532597D01*
X55219575Y-56718158D01*
X55164998Y-56761783D01*
X55095500Y-56768977D01*
X55033145Y-56737454D01*
X55016425Y-56718158D01*
X54886494Y-56532597D01*
X54719402Y-56365506D01*
X54719395Y-56365501D01*
X54710783Y-56359471D01*
X54649602Y-56316631D01*
X54525834Y-56229967D01*
X54525830Y-56229965D01*
X54423563Y-56182277D01*
X54311663Y-56130097D01*
X54311659Y-56130096D01*
X54311655Y-56130094D01*
X54083413Y-56068938D01*
X54083403Y-56068936D01*
X53848001Y-56048341D01*
X53847999Y-56048341D01*
X53612596Y-56068936D01*
X53612586Y-56068938D01*
X53384344Y-56130094D01*
X53384335Y-56130098D01*
X53170171Y-56229964D01*
X53170169Y-56229965D01*
X52976597Y-56365505D01*
X52809505Y-56532597D01*
X52679575Y-56718158D01*
X52624998Y-56761783D01*
X52555500Y-56768977D01*
X52493145Y-56737454D01*
X52476425Y-56718158D01*
X52346494Y-56532597D01*
X52179402Y-56365506D01*
X52179395Y-56365501D01*
X52170783Y-56359471D01*
X52109602Y-56316631D01*
X51985834Y-56229967D01*
X51985830Y-56229965D01*
X51883563Y-56182277D01*
X51771663Y-56130097D01*
X51771659Y-56130096D01*
X51771655Y-56130094D01*
X51543413Y-56068938D01*
X51543403Y-56068936D01*
X51308001Y-56048341D01*
X51307999Y-56048341D01*
X51072596Y-56068936D01*
X51072586Y-56068938D01*
X50844344Y-56130094D01*
X50844335Y-56130098D01*
X50630171Y-56229964D01*
X50630169Y-56229965D01*
X50436600Y-56365503D01*
X50314284Y-56487819D01*
X50252961Y-56521303D01*
X50183269Y-56516319D01*
X50127336Y-56474447D01*
X50110422Y-56443474D01*
X50102721Y-56422829D01*
X50102720Y-56422829D01*
X49259127Y-57266422D01*
X49243245Y-57207147D01*
X49176102Y-57090853D01*
X49081147Y-56995898D01*
X48964853Y-56928755D01*
X48905575Y-56912871D01*
X49749170Y-56069277D01*
X49749170Y-56069276D01*
X49725375Y-56060401D01*
X49665844Y-56054000D01*
X47870155Y-56054000D01*
X47810624Y-56060401D01*
X47810622Y-56060402D01*
X47786828Y-56069276D01*
X47786828Y-56069277D01*
X48630423Y-56912872D01*
X48571147Y-56928755D01*
X48454853Y-56995898D01*
X48359898Y-57090853D01*
X48292755Y-57207147D01*
X48276872Y-57266423D01*
X47433276Y-56422829D01*
X47433274Y-56422829D01*
X47425578Y-56443467D01*
X47383708Y-56499402D01*
X47318245Y-56523821D01*
X47249971Y-56508971D01*
X47221714Y-56487818D01*
X47099402Y-56365506D01*
X47099395Y-56365501D01*
X47090783Y-56359471D01*
X47029602Y-56316631D01*
X46905834Y-56229967D01*
X46905830Y-56229965D01*
X46803563Y-56182277D01*
X46691663Y-56130097D01*
X46691659Y-56130096D01*
X46691655Y-56130094D01*
X46463413Y-56068938D01*
X46463403Y-56068936D01*
X46228001Y-56048341D01*
X46227999Y-56048341D01*
X45992596Y-56068936D01*
X45992586Y-56068938D01*
X45764344Y-56130094D01*
X45764335Y-56130098D01*
X45550171Y-56229964D01*
X45550169Y-56229965D01*
X45356597Y-56365505D01*
X45189505Y-56532597D01*
X45059575Y-56718158D01*
X45004998Y-56761783D01*
X44935500Y-56768977D01*
X44873145Y-56737454D01*
X44856425Y-56718158D01*
X44726494Y-56532597D01*
X44559402Y-56365506D01*
X44559395Y-56365501D01*
X44550783Y-56359471D01*
X44489602Y-56316631D01*
X44365834Y-56229967D01*
X44365830Y-56229965D01*
X44263563Y-56182277D01*
X44151663Y-56130097D01*
X44151659Y-56130096D01*
X44151655Y-56130094D01*
X43923413Y-56068938D01*
X43923403Y-56068936D01*
X43688001Y-56048341D01*
X43687999Y-56048341D01*
X43452596Y-56068936D01*
X43452586Y-56068938D01*
X43224344Y-56130094D01*
X43224335Y-56130098D01*
X43010171Y-56229964D01*
X43010169Y-56229965D01*
X42816597Y-56365505D01*
X42649505Y-56532597D01*
X42519575Y-56718158D01*
X42464998Y-56761783D01*
X42395500Y-56768977D01*
X42333145Y-56737454D01*
X42316425Y-56718158D01*
X42186494Y-56532597D01*
X42019402Y-56365506D01*
X42019395Y-56365501D01*
X42010783Y-56359471D01*
X41949602Y-56316631D01*
X41825834Y-56229967D01*
X41825830Y-56229965D01*
X41723563Y-56182277D01*
X41611663Y-56130097D01*
X41611659Y-56130096D01*
X41611655Y-56130094D01*
X41383413Y-56068938D01*
X41383403Y-56068936D01*
X41148001Y-56048341D01*
X41147999Y-56048341D01*
X40912596Y-56068936D01*
X40912586Y-56068938D01*
X40684344Y-56130094D01*
X40684335Y-56130098D01*
X40470171Y-56229964D01*
X40470169Y-56229965D01*
X40276597Y-56365505D01*
X40109505Y-56532597D01*
X39979575Y-56718158D01*
X39924998Y-56761783D01*
X39855500Y-56768977D01*
X39793145Y-56737454D01*
X39776425Y-56718158D01*
X39646494Y-56532597D01*
X39479402Y-56365506D01*
X39479395Y-56365501D01*
X39470783Y-56359471D01*
X39409602Y-56316631D01*
X39285834Y-56229967D01*
X39285830Y-56229965D01*
X39183563Y-56182277D01*
X39071663Y-56130097D01*
X39071659Y-56130096D01*
X39071655Y-56130094D01*
X38843413Y-56068938D01*
X38843403Y-56068936D01*
X38608001Y-56048341D01*
X38607999Y-56048341D01*
X38372596Y-56068936D01*
X38372586Y-56068938D01*
X38144344Y-56130094D01*
X38144335Y-56130098D01*
X37930171Y-56229964D01*
X37930169Y-56229965D01*
X37736597Y-56365505D01*
X37569505Y-56532597D01*
X37439575Y-56718158D01*
X37384998Y-56761783D01*
X37315500Y-56768977D01*
X37253145Y-56737454D01*
X37236425Y-56718158D01*
X37106494Y-56532597D01*
X36939402Y-56365506D01*
X36939395Y-56365501D01*
X36930783Y-56359471D01*
X36869602Y-56316631D01*
X36745834Y-56229967D01*
X36745830Y-56229965D01*
X36643563Y-56182277D01*
X36531663Y-56130097D01*
X36531659Y-56130096D01*
X36531655Y-56130094D01*
X36303413Y-56068938D01*
X36303403Y-56068936D01*
X36068001Y-56048341D01*
X36067999Y-56048341D01*
X35832596Y-56068936D01*
X35832586Y-56068938D01*
X35604344Y-56130094D01*
X35604335Y-56130098D01*
X35390171Y-56229964D01*
X35390169Y-56229965D01*
X35196597Y-56365505D01*
X35129181Y-56432922D01*
X35067858Y-56466407D01*
X34998166Y-56461423D01*
X34942233Y-56419551D01*
X34917816Y-56354087D01*
X34917500Y-56345241D01*
X34917500Y-40682758D01*
X34937185Y-40615719D01*
X34989989Y-40569964D01*
X35059147Y-40560020D01*
X35122703Y-40589045D01*
X35129181Y-40595077D01*
X35196599Y-40662495D01*
X35225538Y-40682758D01*
X35390165Y-40798032D01*
X35390167Y-40798033D01*
X35390170Y-40798035D01*
X35604337Y-40897903D01*
X35832592Y-40959063D01*
X36003319Y-40974000D01*
X36067999Y-40979659D01*
X36068000Y-40979659D01*
X36068001Y-40979659D01*
X36132681Y-40974000D01*
X36303408Y-40959063D01*
X36531663Y-40897903D01*
X36745830Y-40798035D01*
X36939401Y-40662495D01*
X37106495Y-40495401D01*
X37236425Y-40309842D01*
X37291002Y-40266217D01*
X37360500Y-40259023D01*
X37422855Y-40290546D01*
X37439575Y-40309842D01*
X37549399Y-40466688D01*
X37569505Y-40495401D01*
X37736599Y-40662495D01*
X37765538Y-40682758D01*
X37930165Y-40798032D01*
X37930167Y-40798033D01*
X37930170Y-40798035D01*
X38144337Y-40897903D01*
X38372592Y-40959063D01*
X38543319Y-40974000D01*
X38607999Y-40979659D01*
X38608000Y-40979659D01*
X38608001Y-40979659D01*
X38672681Y-40974000D01*
X38843408Y-40959063D01*
X39071663Y-40897903D01*
X39285830Y-40798035D01*
X39479401Y-40662495D01*
X39601717Y-40540178D01*
X39663036Y-40506696D01*
X39732728Y-40511680D01*
X39788662Y-40553551D01*
X39805576Y-40584527D01*
X39813275Y-40605170D01*
X39813277Y-40605170D01*
X40656872Y-39761575D01*
X40672755Y-39820853D01*
X40739898Y-39937147D01*
X40834853Y-40032102D01*
X40951147Y-40099245D01*
X41010422Y-40115127D01*
X40166828Y-40958721D01*
X40166829Y-40958722D01*
X40190623Y-40967597D01*
X40190627Y-40967598D01*
X40250155Y-40973999D01*
X40250172Y-40974000D01*
X42045828Y-40974000D01*
X42045844Y-40973999D01*
X42105376Y-40967598D01*
X42105377Y-40967597D01*
X42129170Y-40958722D01*
X42129170Y-40958720D01*
X41285576Y-40115127D01*
X41344853Y-40099245D01*
X41461147Y-40032102D01*
X41556102Y-39937147D01*
X41623245Y-39820853D01*
X41639128Y-39761575D01*
X42482722Y-40605169D01*
X42490421Y-40584528D01*
X42532292Y-40528594D01*
X42597757Y-40504177D01*
X42666029Y-40519029D01*
X42694284Y-40540180D01*
X42816599Y-40662495D01*
X42845538Y-40682758D01*
X43010165Y-40798032D01*
X43010167Y-40798033D01*
X43010170Y-40798035D01*
X43224337Y-40897903D01*
X43452592Y-40959063D01*
X43623319Y-40974000D01*
X43687999Y-40979659D01*
X43688000Y-40979659D01*
X43688001Y-40979659D01*
X43752681Y-40974000D01*
X43923408Y-40959063D01*
X44151663Y-40897903D01*
X44365830Y-40798035D01*
X44559401Y-40662495D01*
X44726495Y-40495401D01*
X44856425Y-40309842D01*
X44911002Y-40266217D01*
X44980500Y-40259023D01*
X45042855Y-40290546D01*
X45059575Y-40309842D01*
X45169399Y-40466688D01*
X45189505Y-40495401D01*
X45356599Y-40662495D01*
X45385538Y-40682758D01*
X45550165Y-40798032D01*
X45550167Y-40798033D01*
X45550170Y-40798035D01*
X45764337Y-40897903D01*
X45992592Y-40959063D01*
X46163319Y-40974000D01*
X46227999Y-40979659D01*
X46228000Y-40979659D01*
X46228001Y-40979659D01*
X46292681Y-40974000D01*
X46463408Y-40959063D01*
X46691663Y-40897903D01*
X46905830Y-40798035D01*
X47099401Y-40662495D01*
X47221717Y-40540178D01*
X47283036Y-40506696D01*
X47352728Y-40511680D01*
X47408662Y-40553551D01*
X47425576Y-40584527D01*
X47433275Y-40605170D01*
X47433277Y-40605170D01*
X48276872Y-39761575D01*
X48292755Y-39820853D01*
X48359898Y-39937147D01*
X48454853Y-40032102D01*
X48571147Y-40099245D01*
X48630422Y-40115127D01*
X47786828Y-40958721D01*
X47786829Y-40958722D01*
X47810623Y-40967597D01*
X47810627Y-40967598D01*
X47870155Y-40973999D01*
X47870172Y-40974000D01*
X49665828Y-40974000D01*
X49665844Y-40973999D01*
X49725376Y-40967598D01*
X49725377Y-40967597D01*
X49749170Y-40958722D01*
X49749170Y-40958720D01*
X48905576Y-40115127D01*
X48964853Y-40099245D01*
X49081147Y-40032102D01*
X49176102Y-39937147D01*
X49243245Y-39820853D01*
X49259127Y-39761575D01*
X50102722Y-40605170D01*
G37*
%TD.AperFunction*%
%TA.AperFunction,Conductor*%
G36*
X106510152Y-38493185D02*
G01*
X106530794Y-38509819D01*
X111260181Y-43239205D01*
X111293666Y-43300528D01*
X111296500Y-43326886D01*
X111296500Y-55656033D01*
X111294485Y-55678296D01*
X111180917Y-56300579D01*
X111176864Y-56316631D01*
X111165327Y-56352139D01*
X111165327Y-56352140D01*
X111165326Y-56352144D01*
X111157423Y-56427338D01*
X111156589Y-56433142D01*
X111156600Y-56433144D01*
X111150124Y-56480462D01*
X111149934Y-56482545D01*
X111149933Y-56482554D01*
X111149987Y-56490744D01*
X111149311Y-56504507D01*
X111145540Y-56540397D01*
X111145540Y-56540400D01*
X111145626Y-56541215D01*
X111155625Y-56636360D01*
X111156215Y-56644631D01*
X111156225Y-56644912D01*
X111156321Y-56645786D01*
X111157419Y-56653443D01*
X111165325Y-56728652D01*
X111165325Y-56728654D01*
X111165326Y-56728656D01*
X111172395Y-56750413D01*
X111176864Y-56764167D01*
X111180917Y-56780220D01*
X111226092Y-57027751D01*
X111287678Y-57365208D01*
X111294485Y-57402502D01*
X111296500Y-57424765D01*
X111296500Y-59756955D01*
X111276815Y-59823994D01*
X111224011Y-59869749D01*
X111154853Y-59879693D01*
X111091297Y-59850668D01*
X111084819Y-59844636D01*
X100988120Y-49747938D01*
X100988117Y-49747934D01*
X100988117Y-49747935D01*
X100981050Y-49740868D01*
X100981050Y-49740867D01*
X100893925Y-49653742D01*
X100893924Y-49653741D01*
X100893923Y-49653740D01*
X100842701Y-49619515D01*
X100791479Y-49585289D01*
X100791478Y-49585288D01*
X100791475Y-49585286D01*
X100791472Y-49585285D01*
X100710984Y-49551947D01*
X100677645Y-49538137D01*
X100667619Y-49536143D01*
X100617221Y-49526118D01*
X100556063Y-49513953D01*
X100494152Y-49481568D01*
X100459578Y-49420853D01*
X100460479Y-49360243D01*
X100460901Y-49358666D01*
X100460903Y-49358663D01*
X100522063Y-49130408D01*
X100542659Y-48895000D01*
X100541343Y-48879964D01*
X100525005Y-48693219D01*
X100522063Y-48659592D01*
X100460903Y-48431337D01*
X100361035Y-48217171D01*
X100230958Y-48031400D01*
X100225494Y-48023597D01*
X100058402Y-47856506D01*
X100058396Y-47856501D01*
X99872842Y-47726575D01*
X99829217Y-47671998D01*
X99822023Y-47602500D01*
X99853546Y-47540145D01*
X99872842Y-47523425D01*
X99986632Y-47443748D01*
X100058401Y-47393495D01*
X100225495Y-47226401D01*
X100361035Y-47032830D01*
X100460903Y-46818663D01*
X100522063Y-46590408D01*
X100542659Y-46355000D01*
X100522063Y-46119592D01*
X100460903Y-45891337D01*
X100361035Y-45677171D01*
X100225495Y-45483599D01*
X100225494Y-45483597D01*
X100058402Y-45316506D01*
X100058396Y-45316501D01*
X99872842Y-45186575D01*
X99829217Y-45131998D01*
X99822023Y-45062500D01*
X99853546Y-45000145D01*
X99872842Y-44983425D01*
X99895026Y-44967891D01*
X100058401Y-44853495D01*
X100225495Y-44686401D01*
X100361035Y-44492830D01*
X100460903Y-44278663D01*
X100522063Y-44050408D01*
X100542659Y-43815000D01*
X100522063Y-43579592D01*
X100460903Y-43351337D01*
X100361035Y-43137171D01*
X100345239Y-43114611D01*
X100225494Y-42943597D01*
X100058402Y-42776506D01*
X100058396Y-42776501D01*
X99872842Y-42646575D01*
X99829217Y-42591998D01*
X99822023Y-42522500D01*
X99853546Y-42460145D01*
X99872842Y-42443425D01*
X99895026Y-42427891D01*
X100058401Y-42313495D01*
X100225495Y-42146401D01*
X100361035Y-41952830D01*
X100460903Y-41738663D01*
X100522063Y-41510408D01*
X100542659Y-41275000D01*
X100522063Y-41039592D01*
X100460903Y-40811337D01*
X100361035Y-40597171D01*
X100355346Y-40589045D01*
X100225494Y-40403597D01*
X100058402Y-40236506D01*
X100058395Y-40236501D01*
X99864834Y-40100967D01*
X99864830Y-40100965D01*
X99836287Y-40087655D01*
X99650663Y-40001097D01*
X99650659Y-40001096D01*
X99650655Y-40001094D01*
X99422413Y-39939938D01*
X99422403Y-39939936D01*
X99187001Y-39919341D01*
X99186999Y-39919341D01*
X98951596Y-39939936D01*
X98951586Y-39939938D01*
X98723344Y-40001094D01*
X98723335Y-40001098D01*
X98509171Y-40100964D01*
X98509169Y-40100965D01*
X98315597Y-40236505D01*
X98148505Y-40403597D01*
X98012965Y-40597169D01*
X98012964Y-40597171D01*
X97913098Y-40811335D01*
X97913094Y-40811344D01*
X97851938Y-41039586D01*
X97851936Y-41039596D01*
X97831341Y-41274999D01*
X97831341Y-41275000D01*
X97851936Y-41510403D01*
X97851938Y-41510413D01*
X97913094Y-41738655D01*
X97913096Y-41738659D01*
X97913097Y-41738663D01*
X98012965Y-41952830D01*
X98012967Y-41952834D01*
X98148501Y-42146395D01*
X98148506Y-42146402D01*
X98315597Y-42313493D01*
X98315603Y-42313498D01*
X98501158Y-42443425D01*
X98544783Y-42498002D01*
X98551977Y-42567500D01*
X98520454Y-42629855D01*
X98501158Y-42646575D01*
X98315597Y-42776505D01*
X98148505Y-42943597D01*
X98012965Y-43137169D01*
X98012964Y-43137171D01*
X97913098Y-43351335D01*
X97913094Y-43351344D01*
X97851938Y-43579586D01*
X97851936Y-43579596D01*
X97831341Y-43814999D01*
X97831341Y-43815000D01*
X97851936Y-44050403D01*
X97851938Y-44050413D01*
X97913094Y-44278655D01*
X97913096Y-44278659D01*
X97913097Y-44278663D01*
X98012965Y-44492830D01*
X98012967Y-44492834D01*
X98148501Y-44686395D01*
X98148506Y-44686402D01*
X98315597Y-44853493D01*
X98315603Y-44853498D01*
X98501158Y-44983425D01*
X98544783Y-45038002D01*
X98551977Y-45107500D01*
X98520454Y-45169855D01*
X98501158Y-45186575D01*
X98315597Y-45316505D01*
X98148505Y-45483597D01*
X98012965Y-45677169D01*
X98012964Y-45677171D01*
X97913098Y-45891335D01*
X97913094Y-45891344D01*
X97851938Y-46119586D01*
X97851936Y-46119596D01*
X97831341Y-46354999D01*
X97831341Y-46355000D01*
X97851936Y-46590403D01*
X97851938Y-46590413D01*
X97913094Y-46818655D01*
X97913096Y-46818659D01*
X97913097Y-46818663D01*
X98012965Y-47032830D01*
X98012967Y-47032834D01*
X98148501Y-47226395D01*
X98148506Y-47226402D01*
X98315597Y-47393493D01*
X98315603Y-47393498D01*
X98501158Y-47523425D01*
X98544783Y-47578002D01*
X98551977Y-47647500D01*
X98520454Y-47709855D01*
X98501158Y-47726575D01*
X98315597Y-47856505D01*
X98148505Y-48023597D01*
X98012965Y-48217169D01*
X98012964Y-48217171D01*
X97913098Y-48431335D01*
X97913094Y-48431344D01*
X97851938Y-48659586D01*
X97851936Y-48659596D01*
X97831341Y-48894999D01*
X97831341Y-48895000D01*
X97851936Y-49130403D01*
X97851938Y-49130413D01*
X97912921Y-49358007D01*
X97911258Y-49427857D01*
X97872095Y-49485719D01*
X97807867Y-49513223D01*
X97793146Y-49514100D01*
X97008252Y-49514100D01*
X96941213Y-49494415D01*
X96920571Y-49477781D01*
X88069398Y-40626608D01*
X88069378Y-40626586D01*
X87977935Y-40535143D01*
X87949847Y-40516376D01*
X87922138Y-40497861D01*
X87875486Y-40466688D01*
X87875487Y-40466688D01*
X87875485Y-40466687D01*
X87835239Y-40450017D01*
X87794992Y-40433347D01*
X87761652Y-40419537D01*
X87761650Y-40419536D01*
X87761646Y-40419535D01*
X87681531Y-40403599D01*
X87681524Y-40403599D01*
X87640807Y-40395500D01*
X87640806Y-40395500D01*
X85652997Y-40395500D01*
X85585958Y-40375815D01*
X85540203Y-40323011D01*
X85530259Y-40253853D01*
X85540615Y-40219095D01*
X85559183Y-40179275D01*
X85601903Y-40087663D01*
X85663063Y-39859408D01*
X85683659Y-39624000D01*
X85663063Y-39388592D01*
X85601903Y-39160337D01*
X85502035Y-38946171D01*
X85496425Y-38938158D01*
X85366494Y-38752597D01*
X85299078Y-38685181D01*
X85265593Y-38623858D01*
X85270577Y-38554166D01*
X85312449Y-38498233D01*
X85377913Y-38473816D01*
X85386759Y-38473500D01*
X106443113Y-38473500D01*
X106510152Y-38493185D01*
G37*
%TD.AperFunction*%
%TA.AperFunction,Conductor*%
G36*
X71152755Y-57600853D02*
G01*
X71219898Y-57717147D01*
X71314853Y-57812102D01*
X71431147Y-57879245D01*
X71490423Y-57895127D01*
X70646829Y-58738722D01*
X70670623Y-58747597D01*
X70670627Y-58747598D01*
X70730155Y-58753999D01*
X70730172Y-58754000D01*
X71634047Y-58754000D01*
X71701086Y-58773685D01*
X71746841Y-58826489D01*
X71756785Y-58895647D01*
X71727760Y-58959203D01*
X71721728Y-58965681D01*
X71532229Y-59155181D01*
X71470906Y-59188666D01*
X71444548Y-59191500D01*
X68812141Y-59191500D01*
X68745102Y-59171815D01*
X68699347Y-59119011D01*
X68689403Y-59049853D01*
X68718428Y-58986297D01*
X68771067Y-58950500D01*
X69529910Y-58684098D01*
X69538847Y-58681336D01*
X69551663Y-58677903D01*
X69558622Y-58674657D01*
X69568399Y-58670597D01*
X69581716Y-58665721D01*
X69581727Y-58665716D01*
X69581751Y-58665708D01*
X69582341Y-58665483D01*
X69643989Y-58637097D01*
X69643995Y-58637092D01*
X69649592Y-58633765D01*
X69649729Y-58633996D01*
X69663570Y-58625719D01*
X69697490Y-58609901D01*
X69765830Y-58578035D01*
X69959401Y-58442495D01*
X70081717Y-58320178D01*
X70143036Y-58286696D01*
X70212728Y-58291680D01*
X70268662Y-58333551D01*
X70285576Y-58364527D01*
X70293275Y-58385170D01*
X70293277Y-58385170D01*
X71136872Y-57541575D01*
X71152755Y-57600853D01*
G37*
%TD.AperFunction*%
%TA.AperFunction,Conductor*%
G36*
X55190785Y-40283306D02*
G01*
X55223312Y-40315179D01*
X55349505Y-40495401D01*
X55516599Y-40662495D01*
X55545538Y-40682758D01*
X55710168Y-40798034D01*
X55710170Y-40798035D01*
X55894145Y-40883824D01*
X55899006Y-40886223D01*
X55906926Y-40890350D01*
X55906929Y-40890351D01*
X55908857Y-40891186D01*
X55917393Y-40894665D01*
X55924327Y-40897899D01*
X55924330Y-40897900D01*
X55924337Y-40897903D01*
X55937130Y-40901330D01*
X55946095Y-40904101D01*
X57209898Y-41347775D01*
X57256504Y-41377094D01*
X61944216Y-46064806D01*
X61944245Y-46064837D01*
X62034464Y-46155056D01*
X62034467Y-46155058D01*
X62111390Y-46206456D01*
X62136910Y-46223509D01*
X62136912Y-46223510D01*
X62136915Y-46223512D01*
X62203596Y-46251131D01*
X62203598Y-46251133D01*
X62243840Y-46267801D01*
X62250748Y-46270663D01*
X62311171Y-46282681D01*
X62371593Y-46294700D01*
X62371594Y-46294700D01*
X86811548Y-46294700D01*
X86878587Y-46314385D01*
X86899229Y-46331019D01*
X96183416Y-55615206D01*
X96183445Y-55615237D01*
X96273663Y-55705455D01*
X96273667Y-55705458D01*
X96376107Y-55773907D01*
X96376113Y-55773910D01*
X96376114Y-55773911D01*
X96489948Y-55821063D01*
X96550371Y-55833081D01*
X96610793Y-55845100D01*
X96610794Y-55845100D01*
X97814626Y-55845100D01*
X97881665Y-55864785D01*
X97927420Y-55917589D01*
X97937364Y-55986747D01*
X97927008Y-56021505D01*
X97913098Y-56051335D01*
X97913094Y-56051344D01*
X97851938Y-56279586D01*
X97851936Y-56279596D01*
X97831341Y-56514999D01*
X97831341Y-56515000D01*
X97851936Y-56750403D01*
X97851938Y-56750413D01*
X97912921Y-56978007D01*
X97911258Y-57047857D01*
X97872095Y-57105719D01*
X97807867Y-57133223D01*
X97793146Y-57134100D01*
X96881253Y-57134100D01*
X96814214Y-57114415D01*
X96793572Y-57097781D01*
X87335528Y-47639738D01*
X87335525Y-47639734D01*
X87335525Y-47639735D01*
X87328458Y-47632668D01*
X87328458Y-47632667D01*
X87241333Y-47545542D01*
X87173489Y-47500210D01*
X87138886Y-47477088D01*
X87138887Y-47477088D01*
X87138885Y-47477087D01*
X87098639Y-47460417D01*
X87058392Y-47443747D01*
X87025053Y-47429937D01*
X87015027Y-47427943D01*
X86964629Y-47417918D01*
X86904210Y-47405900D01*
X86904207Y-47405900D01*
X86904206Y-47405900D01*
X62421636Y-47405900D01*
X62377791Y-47397889D01*
X62007315Y-47257841D01*
X61850540Y-47198577D01*
X61850524Y-47198570D01*
X61835792Y-47193002D01*
X61798445Y-47180780D01*
X61786579Y-47176211D01*
X61773204Y-47170256D01*
X61680624Y-47150578D01*
X61588046Y-47130900D01*
X61398754Y-47130900D01*
X61366297Y-47137798D01*
X61213597Y-47170255D01*
X61213592Y-47170257D01*
X61040670Y-47247248D01*
X61040665Y-47247251D01*
X60887529Y-47358511D01*
X60760866Y-47499185D01*
X60666221Y-47663115D01*
X60666218Y-47663122D01*
X60607727Y-47843140D01*
X60607726Y-47843144D01*
X60587940Y-48031400D01*
X60607726Y-48219656D01*
X60607727Y-48219659D01*
X60666218Y-48399677D01*
X60666221Y-48399684D01*
X60760867Y-48563616D01*
X60847288Y-48659596D01*
X60887529Y-48704288D01*
X61040665Y-48815548D01*
X61040670Y-48815551D01*
X61213592Y-48892542D01*
X61213597Y-48892544D01*
X61398754Y-48931900D01*
X61398755Y-48931900D01*
X61588044Y-48931900D01*
X61588046Y-48931900D01*
X61773203Y-48892544D01*
X61801456Y-48879963D01*
X61825007Y-48872192D01*
X61832686Y-48870485D01*
X61835800Y-48869794D01*
X62377789Y-48664910D01*
X62421634Y-48656900D01*
X86532148Y-48656900D01*
X86599187Y-48676585D01*
X86619828Y-48693218D01*
X96084941Y-58158332D01*
X96084942Y-58158333D01*
X96144428Y-58217819D01*
X96177912Y-58279143D01*
X96172927Y-58348835D01*
X96131056Y-58404768D01*
X96065591Y-58429184D01*
X96056746Y-58429500D01*
X95585853Y-58429500D01*
X95518814Y-58409815D01*
X95498172Y-58393181D01*
X86852928Y-49747938D01*
X86852925Y-49747934D01*
X86852925Y-49747935D01*
X86845858Y-49740868D01*
X86845858Y-49740867D01*
X86758733Y-49653742D01*
X86758732Y-49653741D01*
X86758731Y-49653740D01*
X86707509Y-49619515D01*
X86656287Y-49585289D01*
X86656286Y-49585288D01*
X86656283Y-49585286D01*
X86656280Y-49585285D01*
X86575792Y-49551947D01*
X86542453Y-49538137D01*
X86532427Y-49536143D01*
X86482029Y-49526118D01*
X86421610Y-49514100D01*
X86421607Y-49514100D01*
X86421606Y-49514100D01*
X61245052Y-49514100D01*
X61178013Y-49494415D01*
X61157371Y-49477781D01*
X54509819Y-42830229D01*
X54476334Y-42768906D01*
X54473500Y-42742548D01*
X54473500Y-41477747D01*
X54485725Y-41424060D01*
X54487804Y-41419733D01*
X55009962Y-40332615D01*
X55056731Y-40280708D01*
X55124140Y-40262326D01*
X55190785Y-40283306D01*
G37*
%TD.AperFunction*%
%TA.AperFunction,Conductor*%
G36*
X83930090Y-55102785D02*
G01*
X83950732Y-55119419D01*
X84696312Y-55864999D01*
X84729797Y-55926322D01*
X84724813Y-55996014D01*
X84682941Y-56051947D01*
X84617477Y-56076364D01*
X84576539Y-56072455D01*
X84563416Y-56068939D01*
X84563412Y-56068938D01*
X84563408Y-56068937D01*
X84563406Y-56068936D01*
X84563403Y-56068936D01*
X84328001Y-56048341D01*
X84327999Y-56048341D01*
X84092596Y-56068936D01*
X84092586Y-56068938D01*
X83864344Y-56130094D01*
X83864335Y-56130098D01*
X83650171Y-56229964D01*
X83650169Y-56229965D01*
X83456597Y-56365505D01*
X83289505Y-56532597D01*
X83159575Y-56718158D01*
X83104998Y-56761783D01*
X83035500Y-56768977D01*
X82973145Y-56737454D01*
X82956425Y-56718158D01*
X82826494Y-56532597D01*
X82659402Y-56365506D01*
X82659395Y-56365501D01*
X82650783Y-56359471D01*
X82589602Y-56316631D01*
X82465834Y-56229967D01*
X82465830Y-56229965D01*
X82363563Y-56182277D01*
X82251663Y-56130097D01*
X82251659Y-56130096D01*
X82251655Y-56130094D01*
X82023413Y-56068938D01*
X82023403Y-56068936D01*
X81788001Y-56048341D01*
X81787999Y-56048341D01*
X81552596Y-56068936D01*
X81552586Y-56068938D01*
X81324344Y-56130094D01*
X81324335Y-56130098D01*
X81110171Y-56229964D01*
X81110169Y-56229965D01*
X80916597Y-56365505D01*
X80749505Y-56532597D01*
X80619575Y-56718158D01*
X80564998Y-56761783D01*
X80495500Y-56768977D01*
X80433145Y-56737454D01*
X80416425Y-56718158D01*
X80286494Y-56532597D01*
X80119402Y-56365506D01*
X80119395Y-56365501D01*
X80110783Y-56359471D01*
X80049602Y-56316631D01*
X79925834Y-56229967D01*
X79925830Y-56229965D01*
X79823563Y-56182277D01*
X79711663Y-56130097D01*
X79711659Y-56130096D01*
X79711655Y-56130094D01*
X79483413Y-56068938D01*
X79483403Y-56068936D01*
X79248001Y-56048341D01*
X79247999Y-56048341D01*
X79012596Y-56068936D01*
X79012586Y-56068938D01*
X78784344Y-56130094D01*
X78784335Y-56130098D01*
X78570171Y-56229964D01*
X78570169Y-56229965D01*
X78376597Y-56365505D01*
X78209505Y-56532597D01*
X78079575Y-56718158D01*
X78024998Y-56761783D01*
X77955500Y-56768977D01*
X77893145Y-56737454D01*
X77876425Y-56718158D01*
X77746494Y-56532597D01*
X77579402Y-56365506D01*
X77579395Y-56365501D01*
X77570783Y-56359471D01*
X77509602Y-56316631D01*
X77385834Y-56229967D01*
X77385830Y-56229965D01*
X77283563Y-56182277D01*
X77171663Y-56130097D01*
X77171659Y-56130096D01*
X77171655Y-56130094D01*
X76943413Y-56068938D01*
X76943403Y-56068936D01*
X76708001Y-56048341D01*
X76707999Y-56048341D01*
X76472596Y-56068936D01*
X76472586Y-56068938D01*
X76244344Y-56130094D01*
X76244335Y-56130098D01*
X76030171Y-56229964D01*
X76030169Y-56229965D01*
X75836597Y-56365505D01*
X75669505Y-56532597D01*
X75539575Y-56718158D01*
X75484998Y-56761783D01*
X75415500Y-56768977D01*
X75353145Y-56737454D01*
X75336425Y-56718158D01*
X75206494Y-56532597D01*
X75039402Y-56365506D01*
X75039395Y-56365501D01*
X75030783Y-56359471D01*
X74969602Y-56316631D01*
X74845834Y-56229967D01*
X74845830Y-56229965D01*
X74743563Y-56182277D01*
X74631663Y-56130097D01*
X74631659Y-56130096D01*
X74631655Y-56130094D01*
X74403413Y-56068938D01*
X74403403Y-56068936D01*
X74168001Y-56048341D01*
X74167999Y-56048341D01*
X73932596Y-56068936D01*
X73932586Y-56068938D01*
X73704344Y-56130094D01*
X73704335Y-56130098D01*
X73490171Y-56229964D01*
X73490169Y-56229965D01*
X73296600Y-56365503D01*
X73174284Y-56487819D01*
X73112961Y-56521303D01*
X73043269Y-56516319D01*
X72987336Y-56474447D01*
X72970422Y-56443474D01*
X72962721Y-56422829D01*
X72962720Y-56422829D01*
X72119127Y-57266423D01*
X72103245Y-57207147D01*
X72036102Y-57090853D01*
X71941147Y-56995898D01*
X71824853Y-56928755D01*
X71765575Y-56912871D01*
X72609170Y-56069277D01*
X72609170Y-56069276D01*
X72585375Y-56060401D01*
X72525844Y-56054000D01*
X70730155Y-56054000D01*
X70670624Y-56060401D01*
X70670622Y-56060402D01*
X70646828Y-56069276D01*
X70646828Y-56069277D01*
X71490423Y-56912872D01*
X71431147Y-56928755D01*
X71314853Y-56995898D01*
X71219898Y-57090853D01*
X71152755Y-57207147D01*
X71136872Y-57266423D01*
X70293276Y-56422829D01*
X70293274Y-56422829D01*
X70285578Y-56443467D01*
X70243708Y-56499402D01*
X70178245Y-56523821D01*
X70109971Y-56508971D01*
X70081714Y-56487818D01*
X69959402Y-56365506D01*
X69959395Y-56365501D01*
X69950783Y-56359471D01*
X69889602Y-56316631D01*
X69765834Y-56229967D01*
X69765830Y-56229965D01*
X69663563Y-56182277D01*
X69551663Y-56130097D01*
X69551659Y-56130096D01*
X69551655Y-56130094D01*
X69323413Y-56068938D01*
X69323403Y-56068936D01*
X69088001Y-56048341D01*
X69087999Y-56048341D01*
X68852596Y-56068936D01*
X68852586Y-56068938D01*
X68624344Y-56130094D01*
X68624335Y-56130098D01*
X68410171Y-56229964D01*
X68410169Y-56229965D01*
X68216597Y-56365505D01*
X68049505Y-56532597D01*
X67919575Y-56718158D01*
X67864998Y-56761783D01*
X67795500Y-56768977D01*
X67733145Y-56737454D01*
X67716425Y-56718158D01*
X67586494Y-56532597D01*
X67419402Y-56365506D01*
X67419395Y-56365501D01*
X67410783Y-56359471D01*
X67349602Y-56316631D01*
X67225834Y-56229967D01*
X67225830Y-56229965D01*
X67123563Y-56182277D01*
X67011663Y-56130097D01*
X67011659Y-56130096D01*
X67011655Y-56130094D01*
X66783413Y-56068938D01*
X66783403Y-56068936D01*
X66548001Y-56048341D01*
X66547999Y-56048341D01*
X66312596Y-56068936D01*
X66312586Y-56068938D01*
X66084344Y-56130094D01*
X66084335Y-56130098D01*
X65870171Y-56229964D01*
X65870169Y-56229965D01*
X65676597Y-56365505D01*
X65509505Y-56532597D01*
X65379575Y-56718158D01*
X65324998Y-56761783D01*
X65255500Y-56768977D01*
X65193145Y-56737454D01*
X65176425Y-56718158D01*
X65046494Y-56532597D01*
X64879402Y-56365506D01*
X64879395Y-56365501D01*
X64870783Y-56359471D01*
X64809602Y-56316631D01*
X64685834Y-56229967D01*
X64685830Y-56229965D01*
X64583563Y-56182277D01*
X64471663Y-56130097D01*
X64471659Y-56130096D01*
X64471655Y-56130094D01*
X64243413Y-56068938D01*
X64243403Y-56068936D01*
X64008001Y-56048341D01*
X64007610Y-56048341D01*
X64007444Y-56048292D01*
X64002606Y-56047869D01*
X64002691Y-56046896D01*
X63940571Y-56028656D01*
X63894816Y-55975852D01*
X63884872Y-55906694D01*
X63913897Y-55843138D01*
X63919929Y-55836660D01*
X64637171Y-55119419D01*
X64698494Y-55085934D01*
X64724852Y-55083100D01*
X83863051Y-55083100D01*
X83930090Y-55102785D01*
G37*
%TD.AperFunction*%
%TA.AperFunction,Conductor*%
G36*
X59102533Y-41120509D02*
G01*
X59749898Y-41347775D01*
X59796504Y-41377094D01*
X62288463Y-43869055D01*
X62288467Y-43869058D01*
X62390910Y-43937509D01*
X62390911Y-43937509D01*
X62390915Y-43937512D01*
X62457596Y-43965131D01*
X62457598Y-43965133D01*
X62504743Y-43984661D01*
X62504748Y-43984663D01*
X62524797Y-43988651D01*
X62558396Y-43995334D01*
X62625592Y-44008701D01*
X62625594Y-44008701D01*
X62754921Y-44008701D01*
X62754941Y-44008700D01*
X87065548Y-44008700D01*
X87132587Y-44028385D01*
X87153229Y-44045019D01*
X96183416Y-53075206D01*
X96183445Y-53075237D01*
X96273664Y-53165456D01*
X96273667Y-53165458D01*
X96350590Y-53216856D01*
X96376110Y-53233909D01*
X96376112Y-53233910D01*
X96376115Y-53233912D01*
X96442796Y-53261531D01*
X96442798Y-53261533D01*
X96483040Y-53278201D01*
X96489948Y-53281063D01*
X96550371Y-53293081D01*
X96610793Y-53305100D01*
X96610794Y-53305100D01*
X97815178Y-53305100D01*
X97882217Y-53324785D01*
X97927972Y-53377589D01*
X97937916Y-53446747D01*
X97927560Y-53481504D01*
X97913571Y-53511502D01*
X97913567Y-53511513D01*
X97856364Y-53724999D01*
X97856364Y-53725000D01*
X98753988Y-53725000D01*
X98721075Y-53782007D01*
X98687000Y-53909174D01*
X98687000Y-54040826D01*
X98721075Y-54167993D01*
X98753988Y-54225000D01*
X97856364Y-54225000D01*
X97913439Y-54438006D01*
X97911776Y-54507856D01*
X97872614Y-54565719D01*
X97808385Y-54593223D01*
X97793664Y-54594100D01*
X96982852Y-54594100D01*
X96915813Y-54574415D01*
X96895171Y-54557781D01*
X87612198Y-45274808D01*
X87612178Y-45274786D01*
X87520733Y-45183341D01*
X87469509Y-45149115D01*
X87443892Y-45131998D01*
X87418286Y-45114888D01*
X87336706Y-45081097D01*
X87336704Y-45081095D01*
X87304455Y-45067738D01*
X87304453Y-45067737D01*
X87304452Y-45067737D01*
X87244029Y-45055718D01*
X87183610Y-45043700D01*
X87183607Y-45043700D01*
X87183606Y-45043700D01*
X62743652Y-45043700D01*
X62676613Y-45024015D01*
X62655971Y-45007381D01*
X58973781Y-41325191D01*
X58940296Y-41263868D01*
X58945280Y-41194176D01*
X58987152Y-41138243D01*
X59052616Y-41113826D01*
X59102533Y-41120509D01*
G37*
%TD.AperFunction*%
%TA.AperFunction,Conductor*%
G36*
X65342722Y-40605170D02*
G01*
X65350421Y-40584528D01*
X65392292Y-40528594D01*
X65457757Y-40504177D01*
X65526029Y-40519029D01*
X65554284Y-40540180D01*
X65676599Y-40662495D01*
X65705538Y-40682758D01*
X65870165Y-40798032D01*
X65870167Y-40798033D01*
X65870170Y-40798035D01*
X66084337Y-40897903D01*
X66312592Y-40959063D01*
X66483319Y-40974000D01*
X66547999Y-40979659D01*
X66548000Y-40979659D01*
X66548001Y-40979659D01*
X66612681Y-40974000D01*
X66783408Y-40959063D01*
X67011663Y-40897903D01*
X67225830Y-40798035D01*
X67419401Y-40662495D01*
X67586495Y-40495401D01*
X67716425Y-40309842D01*
X67771002Y-40266217D01*
X67840500Y-40259023D01*
X67902855Y-40290546D01*
X67919575Y-40309842D01*
X68029399Y-40466688D01*
X68049505Y-40495401D01*
X68216599Y-40662495D01*
X68245538Y-40682758D01*
X68410168Y-40798034D01*
X68410170Y-40798035D01*
X68594145Y-40883824D01*
X68599006Y-40886223D01*
X68606926Y-40890350D01*
X68606929Y-40890351D01*
X68608857Y-40891186D01*
X68617393Y-40894665D01*
X68624327Y-40897899D01*
X68624330Y-40897900D01*
X68624337Y-40897903D01*
X68637130Y-40901330D01*
X68646095Y-40904101D01*
X69909897Y-41347775D01*
X69956503Y-41377094D01*
X69999141Y-41419732D01*
X69999142Y-41419733D01*
X70057156Y-41477747D01*
X70086268Y-41506859D01*
X70188707Y-41575307D01*
X70188713Y-41575310D01*
X70188714Y-41575311D01*
X70302548Y-41622463D01*
X70362971Y-41634481D01*
X70423393Y-41646500D01*
X70423394Y-41646500D01*
X71261594Y-41646500D01*
X87268748Y-41646500D01*
X87335787Y-41666185D01*
X87356429Y-41682819D01*
X96208816Y-50535206D01*
X96208845Y-50535237D01*
X96299064Y-50625456D01*
X96299067Y-50625458D01*
X96375990Y-50676856D01*
X96401510Y-50693909D01*
X96401512Y-50693910D01*
X96401515Y-50693912D01*
X96468196Y-50721531D01*
X96468198Y-50721533D01*
X96508440Y-50738201D01*
X96515348Y-50741063D01*
X96575771Y-50753081D01*
X96636193Y-50765100D01*
X96636194Y-50765100D01*
X97814626Y-50765100D01*
X97881665Y-50784785D01*
X97927420Y-50837589D01*
X97937364Y-50906747D01*
X97927008Y-50941505D01*
X97913098Y-50971335D01*
X97913094Y-50971344D01*
X97851938Y-51199586D01*
X97851936Y-51199596D01*
X97831341Y-51434999D01*
X97831341Y-51435000D01*
X97851936Y-51670403D01*
X97851938Y-51670413D01*
X97912921Y-51898007D01*
X97911258Y-51967857D01*
X97872095Y-52025719D01*
X97807867Y-52053223D01*
X97793146Y-52054100D01*
X96982852Y-52054100D01*
X96915813Y-52034415D01*
X96895171Y-52017781D01*
X87866198Y-42988808D01*
X87866178Y-42988786D01*
X87774733Y-42897341D01*
X87723509Y-42863115D01*
X87672286Y-42828888D01*
X87672283Y-42828886D01*
X87672280Y-42828885D01*
X87591792Y-42795547D01*
X87558453Y-42781737D01*
X87548427Y-42779743D01*
X87498029Y-42769718D01*
X87493947Y-42768906D01*
X87437610Y-42757700D01*
X87437607Y-42757700D01*
X87437606Y-42757700D01*
X62997653Y-42757700D01*
X62930614Y-42738015D01*
X62909972Y-42721381D01*
X61379931Y-41191340D01*
X61346446Y-41130017D01*
X61351430Y-41060325D01*
X61393302Y-41004392D01*
X61458766Y-40979975D01*
X61467612Y-40979659D01*
X61468001Y-40979659D01*
X61532681Y-40974000D01*
X61703408Y-40959063D01*
X61931663Y-40897903D01*
X62145830Y-40798035D01*
X62339401Y-40662495D01*
X62461717Y-40540178D01*
X62523036Y-40506696D01*
X62592728Y-40511680D01*
X62648662Y-40553551D01*
X62665576Y-40584527D01*
X62673275Y-40605170D01*
X62673277Y-40605170D01*
X63516872Y-39761575D01*
X63532755Y-39820853D01*
X63599898Y-39937147D01*
X63694853Y-40032102D01*
X63811147Y-40099245D01*
X63870422Y-40115127D01*
X63026828Y-40958721D01*
X63026829Y-40958722D01*
X63050623Y-40967597D01*
X63050627Y-40967598D01*
X63110155Y-40973999D01*
X63110172Y-40974000D01*
X64905828Y-40974000D01*
X64905844Y-40973999D01*
X64965376Y-40967598D01*
X64965377Y-40967597D01*
X64989170Y-40958722D01*
X64989170Y-40958720D01*
X64145576Y-40115127D01*
X64204853Y-40099245D01*
X64321147Y-40032102D01*
X64416102Y-39937147D01*
X64483245Y-39820853D01*
X64499127Y-39761575D01*
X65342722Y-40605170D01*
G37*
%TD.AperFunction*%
%TA.AperFunction,Conductor*%
G36*
X42502855Y-35210546D02*
G01*
X42519575Y-35229842D01*
X42646776Y-35411505D01*
X42649505Y-35415401D01*
X42816599Y-35582495D01*
X43010170Y-35718035D01*
X43134992Y-35776240D01*
X43148371Y-35783513D01*
X43160716Y-35791242D01*
X43168601Y-35796180D01*
X43168604Y-35796181D01*
X44411235Y-36346050D01*
X44448739Y-36371763D01*
X45437181Y-37360205D01*
X45470666Y-37421528D01*
X45473500Y-37447886D01*
X45473500Y-37793648D01*
X45465163Y-37838349D01*
X45058624Y-38890259D01*
X45016095Y-38945695D01*
X44950348Y-38969338D01*
X44882255Y-38953682D01*
X44841386Y-38916681D01*
X44726494Y-38752597D01*
X44559402Y-38585506D01*
X44559395Y-38585501D01*
X44365834Y-38449967D01*
X44365830Y-38449965D01*
X44365828Y-38449964D01*
X44151663Y-38350097D01*
X44151659Y-38350096D01*
X44151655Y-38350094D01*
X43923413Y-38288938D01*
X43923403Y-38288936D01*
X43688001Y-38268341D01*
X43687999Y-38268341D01*
X43452596Y-38288936D01*
X43452586Y-38288938D01*
X43224344Y-38350094D01*
X43224335Y-38350098D01*
X43010171Y-38449964D01*
X43010169Y-38449965D01*
X42816600Y-38585503D01*
X42694284Y-38707819D01*
X42632961Y-38741303D01*
X42563269Y-38736319D01*
X42507336Y-38694447D01*
X42490422Y-38663474D01*
X42482721Y-38642829D01*
X42482720Y-38642829D01*
X41639127Y-39486422D01*
X41623245Y-39427147D01*
X41556102Y-39310853D01*
X41461147Y-39215898D01*
X41344853Y-39148755D01*
X41285575Y-39132871D01*
X42129170Y-38289277D01*
X42129170Y-38289276D01*
X42105375Y-38280401D01*
X42045844Y-38274000D01*
X40250155Y-38274000D01*
X40190624Y-38280401D01*
X40190622Y-38280402D01*
X40166828Y-38289276D01*
X40166828Y-38289277D01*
X41010423Y-39132872D01*
X40951147Y-39148755D01*
X40834853Y-39215898D01*
X40739898Y-39310853D01*
X40672755Y-39427147D01*
X40656872Y-39486423D01*
X39813276Y-38642829D01*
X39813274Y-38642829D01*
X39805578Y-38663467D01*
X39763708Y-38719402D01*
X39698245Y-38743821D01*
X39629971Y-38728971D01*
X39601714Y-38707818D01*
X39479402Y-38585506D01*
X39479395Y-38585501D01*
X39285834Y-38449967D01*
X39285830Y-38449965D01*
X39285828Y-38449964D01*
X39071663Y-38350097D01*
X39071659Y-38350096D01*
X39071655Y-38350094D01*
X38843413Y-38288938D01*
X38843403Y-38288936D01*
X38608001Y-38268341D01*
X38607999Y-38268341D01*
X38372596Y-38288936D01*
X38372586Y-38288938D01*
X38144344Y-38350094D01*
X38144335Y-38350098D01*
X37930171Y-38449964D01*
X37930169Y-38449965D01*
X37736597Y-38585505D01*
X37569508Y-38752594D01*
X37454613Y-38916682D01*
X37400036Y-38960306D01*
X37330537Y-38967499D01*
X37268183Y-38935977D01*
X37237376Y-38890260D01*
X36830837Y-37838350D01*
X36822500Y-37793649D01*
X36822500Y-37447886D01*
X36842185Y-37380847D01*
X36858819Y-37360205D01*
X37230340Y-36988684D01*
X37604626Y-36614397D01*
X37638570Y-36590329D01*
X39060226Y-35906747D01*
X39113960Y-35894499D01*
X39505871Y-35894499D01*
X39505872Y-35894499D01*
X39565483Y-35888091D01*
X39700331Y-35837796D01*
X39815546Y-35751546D01*
X39901796Y-35636331D01*
X39950810Y-35504916D01*
X39992681Y-35448984D01*
X40058145Y-35424566D01*
X40126418Y-35439417D01*
X40154673Y-35460569D01*
X40276599Y-35582495D01*
X40373384Y-35650265D01*
X40470165Y-35718032D01*
X40470167Y-35718033D01*
X40470170Y-35718035D01*
X40684337Y-35817903D01*
X40912592Y-35879063D01*
X41100918Y-35895539D01*
X41147999Y-35899659D01*
X41148000Y-35899659D01*
X41148001Y-35899659D01*
X41187234Y-35896226D01*
X41383408Y-35879063D01*
X41611663Y-35817903D01*
X41825830Y-35718035D01*
X42019401Y-35582495D01*
X42186495Y-35415401D01*
X42316425Y-35229842D01*
X42371002Y-35186217D01*
X42440500Y-35179023D01*
X42502855Y-35210546D01*
G37*
%TD.AperFunction*%
%TA.AperFunction,Conductor*%
G36*
X114497039Y-30499685D02*
G01*
X114542794Y-30552489D01*
X114554000Y-30604000D01*
X114554000Y-78616000D01*
X114534315Y-78683039D01*
X114481511Y-78728794D01*
X114430000Y-78740000D01*
X30858000Y-78740000D01*
X30790961Y-78720315D01*
X30745206Y-78667511D01*
X30734000Y-78616000D01*
X30734000Y-75302157D01*
X32178000Y-75302157D01*
X32178000Y-77097844D01*
X32184401Y-77157375D01*
X32193277Y-77181170D01*
X33045037Y-76329409D01*
X33062075Y-76392993D01*
X33127901Y-76507007D01*
X33220993Y-76600099D01*
X33335007Y-76665925D01*
X33398588Y-76682962D01*
X32546829Y-77534720D01*
X32546829Y-77534722D01*
X32570622Y-77543597D01*
X32570623Y-77543598D01*
X32630155Y-77549999D01*
X32630172Y-77550000D01*
X34425828Y-77550000D01*
X34425844Y-77549999D01*
X34485376Y-77543598D01*
X34485377Y-77543597D01*
X34509170Y-77534722D01*
X34509170Y-77534720D01*
X33657411Y-76682962D01*
X33720993Y-76665925D01*
X33835007Y-76600099D01*
X33928099Y-76507007D01*
X33993925Y-76392993D01*
X34010962Y-76329410D01*
X34862722Y-77181170D01*
X34870421Y-77160528D01*
X34912292Y-77104594D01*
X34977757Y-77080177D01*
X35046029Y-77095029D01*
X35074284Y-77116180D01*
X35196599Y-77238495D01*
X35293384Y-77306265D01*
X35390165Y-77374032D01*
X35390167Y-77374033D01*
X35390170Y-77374035D01*
X35604337Y-77473903D01*
X35832592Y-77535063D01*
X36003319Y-77550000D01*
X36067999Y-77555659D01*
X36068000Y-77555659D01*
X36068001Y-77555659D01*
X36132681Y-77550000D01*
X36303408Y-77535063D01*
X36531663Y-77473903D01*
X36745830Y-77374035D01*
X36939401Y-77238495D01*
X37106495Y-77071401D01*
X37236425Y-76885842D01*
X37291002Y-76842217D01*
X37360500Y-76835023D01*
X37422855Y-76866546D01*
X37439575Y-76885842D01*
X37569500Y-77071395D01*
X37569505Y-77071401D01*
X37736599Y-77238495D01*
X37833384Y-77306265D01*
X37930165Y-77374032D01*
X37930167Y-77374033D01*
X37930170Y-77374035D01*
X38144337Y-77473903D01*
X38372592Y-77535063D01*
X38543319Y-77550000D01*
X38607999Y-77555659D01*
X38608000Y-77555659D01*
X38608001Y-77555659D01*
X38672681Y-77550000D01*
X38843408Y-77535063D01*
X39071663Y-77473903D01*
X39285830Y-77374035D01*
X39479401Y-77238495D01*
X39646495Y-77071401D01*
X39776425Y-76885842D01*
X39831002Y-76842217D01*
X39900500Y-76835023D01*
X39962855Y-76866546D01*
X39979575Y-76885842D01*
X40109500Y-77071395D01*
X40109505Y-77071401D01*
X40276599Y-77238495D01*
X40373384Y-77306265D01*
X40470165Y-77374032D01*
X40470167Y-77374033D01*
X40470170Y-77374035D01*
X40684337Y-77473903D01*
X40912592Y-77535063D01*
X41083319Y-77550000D01*
X41147999Y-77555659D01*
X41148000Y-77555659D01*
X41148001Y-77555659D01*
X41212681Y-77550000D01*
X41383408Y-77535063D01*
X41611663Y-77473903D01*
X41825830Y-77374035D01*
X42019401Y-77238495D01*
X42186495Y-77071401D01*
X42316425Y-76885842D01*
X42371002Y-76842217D01*
X42440500Y-76835023D01*
X42502855Y-76866546D01*
X42519575Y-76885842D01*
X42649500Y-77071395D01*
X42649505Y-77071401D01*
X42816599Y-77238495D01*
X42913384Y-77306265D01*
X43010165Y-77374032D01*
X43010167Y-77374033D01*
X43010170Y-77374035D01*
X43224337Y-77473903D01*
X43452592Y-77535063D01*
X43623319Y-77550000D01*
X43687999Y-77555659D01*
X43688000Y-77555659D01*
X43688001Y-77555659D01*
X43752681Y-77550000D01*
X43923408Y-77535063D01*
X44151663Y-77473903D01*
X44365830Y-77374035D01*
X44559401Y-77238495D01*
X44726495Y-77071401D01*
X44856425Y-76885842D01*
X44911002Y-76842217D01*
X44980500Y-76835023D01*
X45042855Y-76866546D01*
X45059575Y-76885842D01*
X45189500Y-77071395D01*
X45189505Y-77071401D01*
X45356599Y-77238495D01*
X45453384Y-77306265D01*
X45550165Y-77374032D01*
X45550167Y-77374033D01*
X45550170Y-77374035D01*
X45764337Y-77473903D01*
X45992592Y-77535063D01*
X46163319Y-77550000D01*
X46227999Y-77555659D01*
X46228000Y-77555659D01*
X46228001Y-77555659D01*
X46292681Y-77550000D01*
X46463408Y-77535063D01*
X46691663Y-77473903D01*
X46905830Y-77374035D01*
X47099401Y-77238495D01*
X47266495Y-77071401D01*
X47396425Y-76885842D01*
X47451002Y-76842217D01*
X47520500Y-76835023D01*
X47582855Y-76866546D01*
X47599575Y-76885842D01*
X47729500Y-77071395D01*
X47729505Y-77071401D01*
X47896599Y-77238495D01*
X47993384Y-77306265D01*
X48090165Y-77374032D01*
X48090167Y-77374033D01*
X48090170Y-77374035D01*
X48304337Y-77473903D01*
X48532592Y-77535063D01*
X48703319Y-77550000D01*
X48767999Y-77555659D01*
X48768000Y-77555659D01*
X48768001Y-77555659D01*
X48832681Y-77550000D01*
X49003408Y-77535063D01*
X49231663Y-77473903D01*
X49445830Y-77374035D01*
X49639401Y-77238495D01*
X49806495Y-77071401D01*
X49936425Y-76885842D01*
X49991002Y-76842217D01*
X50060500Y-76835023D01*
X50122855Y-76866546D01*
X50139575Y-76885842D01*
X50269500Y-77071395D01*
X50269505Y-77071401D01*
X50436599Y-77238495D01*
X50533384Y-77306265D01*
X50630165Y-77374032D01*
X50630167Y-77374033D01*
X50630170Y-77374035D01*
X50844337Y-77473903D01*
X51072592Y-77535063D01*
X51243319Y-77550000D01*
X51307999Y-77555659D01*
X51308000Y-77555659D01*
X51308001Y-77555659D01*
X51372681Y-77550000D01*
X51543408Y-77535063D01*
X51771663Y-77473903D01*
X51985830Y-77374035D01*
X52179401Y-77238495D01*
X52346495Y-77071401D01*
X52476425Y-76885842D01*
X52531002Y-76842217D01*
X52600500Y-76835023D01*
X52662855Y-76866546D01*
X52679575Y-76885842D01*
X52809500Y-77071395D01*
X52809505Y-77071401D01*
X52976599Y-77238495D01*
X53073384Y-77306265D01*
X53170165Y-77374032D01*
X53170167Y-77374033D01*
X53170170Y-77374035D01*
X53384337Y-77473903D01*
X53612592Y-77535063D01*
X53783319Y-77550000D01*
X53847999Y-77555659D01*
X53848000Y-77555659D01*
X53848001Y-77555659D01*
X53912681Y-77550000D01*
X54083408Y-77535063D01*
X54311663Y-77473903D01*
X54525830Y-77374035D01*
X54719401Y-77238495D01*
X54886495Y-77071401D01*
X55016425Y-76885842D01*
X55071002Y-76842217D01*
X55140500Y-76835023D01*
X55202855Y-76866546D01*
X55219575Y-76885842D01*
X55349500Y-77071395D01*
X55349505Y-77071401D01*
X55516599Y-77238495D01*
X55613384Y-77306265D01*
X55710165Y-77374032D01*
X55710167Y-77374033D01*
X55710170Y-77374035D01*
X55924337Y-77473903D01*
X56152592Y-77535063D01*
X56323319Y-77550000D01*
X56387999Y-77555659D01*
X56388000Y-77555659D01*
X56388001Y-77555659D01*
X56452681Y-77550000D01*
X56623408Y-77535063D01*
X56851663Y-77473903D01*
X57065830Y-77374035D01*
X57259401Y-77238495D01*
X57426495Y-77071401D01*
X57556425Y-76885842D01*
X57611002Y-76842217D01*
X57680500Y-76835023D01*
X57742855Y-76866546D01*
X57759575Y-76885842D01*
X57889500Y-77071395D01*
X57889505Y-77071401D01*
X58056599Y-77238495D01*
X58153384Y-77306265D01*
X58250165Y-77374032D01*
X58250167Y-77374033D01*
X58250170Y-77374035D01*
X58464337Y-77473903D01*
X58692592Y-77535063D01*
X58863319Y-77550000D01*
X58927999Y-77555659D01*
X58928000Y-77555659D01*
X58928001Y-77555659D01*
X58992681Y-77550000D01*
X59163408Y-77535063D01*
X59391663Y-77473903D01*
X59605830Y-77374035D01*
X59799401Y-77238495D01*
X59966495Y-77071401D01*
X60096425Y-76885842D01*
X60151002Y-76842217D01*
X60220500Y-76835023D01*
X60282855Y-76866546D01*
X60299575Y-76885842D01*
X60429500Y-77071395D01*
X60429505Y-77071401D01*
X60596599Y-77238495D01*
X60693384Y-77306265D01*
X60790165Y-77374032D01*
X60790167Y-77374033D01*
X60790170Y-77374035D01*
X61004337Y-77473903D01*
X61232592Y-77535063D01*
X61403319Y-77550000D01*
X61467999Y-77555659D01*
X61468000Y-77555659D01*
X61468001Y-77555659D01*
X61532681Y-77550000D01*
X61703408Y-77535063D01*
X61931663Y-77473903D01*
X62145830Y-77374035D01*
X62339401Y-77238495D01*
X62506495Y-77071401D01*
X62636425Y-76885842D01*
X62691002Y-76842217D01*
X62760500Y-76835023D01*
X62822855Y-76866546D01*
X62839575Y-76885842D01*
X62969500Y-77071395D01*
X62969505Y-77071401D01*
X63136599Y-77238495D01*
X63233384Y-77306265D01*
X63330165Y-77374032D01*
X63330167Y-77374033D01*
X63330170Y-77374035D01*
X63544337Y-77473903D01*
X63772592Y-77535063D01*
X63943319Y-77550000D01*
X64007999Y-77555659D01*
X64008000Y-77555659D01*
X64008001Y-77555659D01*
X64072681Y-77550000D01*
X64243408Y-77535063D01*
X64471663Y-77473903D01*
X64685830Y-77374035D01*
X64879401Y-77238495D01*
X65046495Y-77071401D01*
X65176425Y-76885842D01*
X65231002Y-76842217D01*
X65300500Y-76835023D01*
X65362855Y-76866546D01*
X65379575Y-76885842D01*
X65509500Y-77071395D01*
X65509505Y-77071401D01*
X65676599Y-77238495D01*
X65773384Y-77306265D01*
X65870165Y-77374032D01*
X65870167Y-77374033D01*
X65870170Y-77374035D01*
X66084337Y-77473903D01*
X66312592Y-77535063D01*
X66483319Y-77550000D01*
X66547999Y-77555659D01*
X66548000Y-77555659D01*
X66548001Y-77555659D01*
X66612681Y-77550000D01*
X66783408Y-77535063D01*
X67011663Y-77473903D01*
X67225830Y-77374035D01*
X67419401Y-77238495D01*
X67586495Y-77071401D01*
X67716425Y-76885842D01*
X67771002Y-76842217D01*
X67840500Y-76835023D01*
X67902855Y-76866546D01*
X67919575Y-76885842D01*
X68049500Y-77071395D01*
X68049505Y-77071401D01*
X68216599Y-77238495D01*
X68313384Y-77306265D01*
X68410165Y-77374032D01*
X68410167Y-77374033D01*
X68410170Y-77374035D01*
X68624337Y-77473903D01*
X68852592Y-77535063D01*
X69023319Y-77550000D01*
X69087999Y-77555659D01*
X69088000Y-77555659D01*
X69088001Y-77555659D01*
X69152681Y-77550000D01*
X69323408Y-77535063D01*
X69551663Y-77473903D01*
X69765830Y-77374035D01*
X69959401Y-77238495D01*
X70126495Y-77071401D01*
X70256425Y-76885842D01*
X70311002Y-76842217D01*
X70380500Y-76835023D01*
X70442855Y-76866546D01*
X70459575Y-76885842D01*
X70589500Y-77071395D01*
X70589505Y-77071401D01*
X70756599Y-77238495D01*
X70853384Y-77306265D01*
X70950165Y-77374032D01*
X70950167Y-77374033D01*
X70950170Y-77374035D01*
X71164337Y-77473903D01*
X71392592Y-77535063D01*
X71563319Y-77550000D01*
X71627999Y-77555659D01*
X71628000Y-77555659D01*
X71628001Y-77555659D01*
X71692681Y-77550000D01*
X71863408Y-77535063D01*
X72091663Y-77473903D01*
X72305830Y-77374035D01*
X72499401Y-77238495D01*
X72666495Y-77071401D01*
X72796425Y-76885842D01*
X72851002Y-76842217D01*
X72920500Y-76835023D01*
X72982855Y-76866546D01*
X72999575Y-76885842D01*
X73129500Y-77071395D01*
X73129505Y-77071401D01*
X73296599Y-77238495D01*
X73393384Y-77306265D01*
X73490165Y-77374032D01*
X73490167Y-77374033D01*
X73490170Y-77374035D01*
X73704337Y-77473903D01*
X73932592Y-77535063D01*
X74103319Y-77550000D01*
X74167999Y-77555659D01*
X74168000Y-77555659D01*
X74168001Y-77555659D01*
X74232681Y-77550000D01*
X74403408Y-77535063D01*
X74631663Y-77473903D01*
X74845830Y-77374035D01*
X75039401Y-77238495D01*
X75206495Y-77071401D01*
X75336425Y-76885842D01*
X75391002Y-76842217D01*
X75460500Y-76835023D01*
X75522855Y-76866546D01*
X75539575Y-76885842D01*
X75669500Y-77071395D01*
X75669505Y-77071401D01*
X75836599Y-77238495D01*
X75933384Y-77306265D01*
X76030165Y-77374032D01*
X76030167Y-77374033D01*
X76030170Y-77374035D01*
X76244337Y-77473903D01*
X76472592Y-77535063D01*
X76643319Y-77550000D01*
X76707999Y-77555659D01*
X76708000Y-77555659D01*
X76708001Y-77555659D01*
X76772681Y-77550000D01*
X76943408Y-77535063D01*
X77171663Y-77473903D01*
X77385830Y-77374035D01*
X77579401Y-77238495D01*
X77746495Y-77071401D01*
X77876425Y-76885842D01*
X77931002Y-76842217D01*
X78000500Y-76835023D01*
X78062855Y-76866546D01*
X78079575Y-76885842D01*
X78209500Y-77071395D01*
X78209505Y-77071401D01*
X78376599Y-77238495D01*
X78473384Y-77306265D01*
X78570165Y-77374032D01*
X78570167Y-77374033D01*
X78570170Y-77374035D01*
X78784337Y-77473903D01*
X79012592Y-77535063D01*
X79183319Y-77550000D01*
X79247999Y-77555659D01*
X79248000Y-77555659D01*
X79248001Y-77555659D01*
X79312681Y-77550000D01*
X79483408Y-77535063D01*
X79711663Y-77473903D01*
X79925830Y-77374035D01*
X80119401Y-77238495D01*
X80286495Y-77071401D01*
X80416425Y-76885842D01*
X80471002Y-76842217D01*
X80540500Y-76835023D01*
X80602855Y-76866546D01*
X80619575Y-76885842D01*
X80749500Y-77071395D01*
X80749505Y-77071401D01*
X80916599Y-77238495D01*
X81013384Y-77306265D01*
X81110165Y-77374032D01*
X81110167Y-77374033D01*
X81110170Y-77374035D01*
X81324337Y-77473903D01*
X81552592Y-77535063D01*
X81723319Y-77550000D01*
X81787999Y-77555659D01*
X81788000Y-77555659D01*
X81788001Y-77555659D01*
X81852681Y-77550000D01*
X82023408Y-77535063D01*
X82251663Y-77473903D01*
X82465830Y-77374035D01*
X82659401Y-77238495D01*
X82826495Y-77071401D01*
X82956425Y-76885842D01*
X83011002Y-76842217D01*
X83080500Y-76835023D01*
X83142855Y-76866546D01*
X83159575Y-76885842D01*
X83289500Y-77071395D01*
X83289505Y-77071401D01*
X83456599Y-77238495D01*
X83553384Y-77306265D01*
X83650165Y-77374032D01*
X83650167Y-77374033D01*
X83650170Y-77374035D01*
X83864337Y-77473903D01*
X84092592Y-77535063D01*
X84263319Y-77550000D01*
X84327999Y-77555659D01*
X84328000Y-77555659D01*
X84328001Y-77555659D01*
X84392681Y-77550000D01*
X84563408Y-77535063D01*
X84791663Y-77473903D01*
X85005830Y-77374035D01*
X85199401Y-77238495D01*
X85366495Y-77071401D01*
X85496425Y-76885842D01*
X85551002Y-76842217D01*
X85620500Y-76835023D01*
X85682855Y-76866546D01*
X85699575Y-76885842D01*
X85829500Y-77071395D01*
X85829505Y-77071401D01*
X85996599Y-77238495D01*
X86093384Y-77306265D01*
X86190165Y-77374032D01*
X86190167Y-77374033D01*
X86190170Y-77374035D01*
X86404337Y-77473903D01*
X86632592Y-77535063D01*
X86803319Y-77550000D01*
X86867999Y-77555659D01*
X86868000Y-77555659D01*
X86868001Y-77555659D01*
X86932681Y-77550000D01*
X87103408Y-77535063D01*
X87331663Y-77473903D01*
X87545830Y-77374035D01*
X87739401Y-77238495D01*
X87906495Y-77071401D01*
X88036425Y-76885842D01*
X88091002Y-76842217D01*
X88160500Y-76835023D01*
X88222855Y-76866546D01*
X88239575Y-76885842D01*
X88369500Y-77071395D01*
X88369505Y-77071401D01*
X88536599Y-77238495D01*
X88633384Y-77306265D01*
X88730165Y-77374032D01*
X88730167Y-77374033D01*
X88730170Y-77374035D01*
X88944337Y-77473903D01*
X89172592Y-77535063D01*
X89343319Y-77550000D01*
X89407999Y-77555659D01*
X89408000Y-77555659D01*
X89408001Y-77555659D01*
X89472681Y-77550000D01*
X89643408Y-77535063D01*
X89871663Y-77473903D01*
X90085830Y-77374035D01*
X90279401Y-77238495D01*
X90446495Y-77071401D01*
X90576425Y-76885842D01*
X90631002Y-76842217D01*
X90700500Y-76835023D01*
X90762855Y-76866546D01*
X90779575Y-76885842D01*
X90909500Y-77071395D01*
X90909505Y-77071401D01*
X91076599Y-77238495D01*
X91173384Y-77306265D01*
X91270165Y-77374032D01*
X91270167Y-77374033D01*
X91270170Y-77374035D01*
X91484337Y-77473903D01*
X91712592Y-77535063D01*
X91883319Y-77550000D01*
X91947999Y-77555659D01*
X91948000Y-77555659D01*
X91948001Y-77555659D01*
X92012681Y-77550000D01*
X92183408Y-77535063D01*
X92411663Y-77473903D01*
X92625830Y-77374035D01*
X92819401Y-77238495D01*
X92986495Y-77071401D01*
X93116425Y-76885842D01*
X93171002Y-76842217D01*
X93240500Y-76835023D01*
X93302855Y-76866546D01*
X93319575Y-76885842D01*
X93449500Y-77071395D01*
X93449505Y-77071401D01*
X93616599Y-77238495D01*
X93713384Y-77306265D01*
X93810165Y-77374032D01*
X93810167Y-77374033D01*
X93810170Y-77374035D01*
X94024337Y-77473903D01*
X94252592Y-77535063D01*
X94423319Y-77550000D01*
X94487999Y-77555659D01*
X94488000Y-77555659D01*
X94488001Y-77555659D01*
X94552681Y-77550000D01*
X94723408Y-77535063D01*
X94951663Y-77473903D01*
X95165830Y-77374035D01*
X95359401Y-77238495D01*
X95526495Y-77071401D01*
X95656425Y-76885842D01*
X95711002Y-76842217D01*
X95780500Y-76835023D01*
X95842855Y-76866546D01*
X95859575Y-76885842D01*
X95989500Y-77071395D01*
X95989505Y-77071401D01*
X96156599Y-77238495D01*
X96253384Y-77306265D01*
X96350165Y-77374032D01*
X96350167Y-77374033D01*
X96350170Y-77374035D01*
X96564337Y-77473903D01*
X96792592Y-77535063D01*
X96963319Y-77550000D01*
X97027999Y-77555659D01*
X97028000Y-77555659D01*
X97028001Y-77555659D01*
X97092681Y-77550000D01*
X97263408Y-77535063D01*
X97491663Y-77473903D01*
X97705830Y-77374035D01*
X97899401Y-77238495D01*
X98066495Y-77071401D01*
X98196425Y-76885842D01*
X98251002Y-76842217D01*
X98320500Y-76835023D01*
X98382855Y-76866546D01*
X98399575Y-76885842D01*
X98529500Y-77071395D01*
X98529505Y-77071401D01*
X98696599Y-77238495D01*
X98793384Y-77306265D01*
X98890165Y-77374032D01*
X98890167Y-77374033D01*
X98890170Y-77374035D01*
X99104337Y-77473903D01*
X99332592Y-77535063D01*
X99503319Y-77550000D01*
X99567999Y-77555659D01*
X99568000Y-77555659D01*
X99568001Y-77555659D01*
X99632681Y-77550000D01*
X99803408Y-77535063D01*
X100031663Y-77473903D01*
X100245830Y-77374035D01*
X100439401Y-77238495D01*
X100606495Y-77071401D01*
X100736425Y-76885842D01*
X100791002Y-76842217D01*
X100860500Y-76835023D01*
X100922855Y-76866546D01*
X100939575Y-76885842D01*
X101069500Y-77071395D01*
X101069505Y-77071401D01*
X101236599Y-77238495D01*
X101333384Y-77306265D01*
X101430165Y-77374032D01*
X101430167Y-77374033D01*
X101430170Y-77374035D01*
X101644337Y-77473903D01*
X101872592Y-77535063D01*
X102043319Y-77550000D01*
X102107999Y-77555659D01*
X102108000Y-77555659D01*
X102108001Y-77555659D01*
X102172681Y-77550000D01*
X102343408Y-77535063D01*
X102571663Y-77473903D01*
X102785830Y-77374035D01*
X102979401Y-77238495D01*
X103146495Y-77071401D01*
X103276425Y-76885842D01*
X103331002Y-76842217D01*
X103400500Y-76835023D01*
X103462855Y-76866546D01*
X103479575Y-76885842D01*
X103609500Y-77071395D01*
X103609505Y-77071401D01*
X103776599Y-77238495D01*
X103873384Y-77306265D01*
X103970165Y-77374032D01*
X103970167Y-77374033D01*
X103970170Y-77374035D01*
X104184337Y-77473903D01*
X104412592Y-77535063D01*
X104583319Y-77550000D01*
X104647999Y-77555659D01*
X104648000Y-77555659D01*
X104648001Y-77555659D01*
X104712681Y-77550000D01*
X104883408Y-77535063D01*
X105111663Y-77473903D01*
X105325830Y-77374035D01*
X105519401Y-77238495D01*
X105686495Y-77071401D01*
X105816425Y-76885842D01*
X105871002Y-76842217D01*
X105940500Y-76835023D01*
X106002855Y-76866546D01*
X106019575Y-76885842D01*
X106149500Y-77071395D01*
X106149505Y-77071401D01*
X106316599Y-77238495D01*
X106413384Y-77306265D01*
X106510165Y-77374032D01*
X106510167Y-77374033D01*
X106510170Y-77374035D01*
X106724337Y-77473903D01*
X106952592Y-77535063D01*
X107123319Y-77550000D01*
X107187999Y-77555659D01*
X107188000Y-77555659D01*
X107188001Y-77555659D01*
X107252681Y-77550000D01*
X107423408Y-77535063D01*
X107651663Y-77473903D01*
X107865830Y-77374035D01*
X108059401Y-77238495D01*
X108226495Y-77071401D01*
X108356425Y-76885842D01*
X108411002Y-76842217D01*
X108480500Y-76835023D01*
X108542855Y-76866546D01*
X108559575Y-76885842D01*
X108689500Y-77071395D01*
X108689505Y-77071401D01*
X108856599Y-77238495D01*
X108953384Y-77306265D01*
X109050165Y-77374032D01*
X109050167Y-77374033D01*
X109050170Y-77374035D01*
X109264337Y-77473903D01*
X109492592Y-77535063D01*
X109663319Y-77550000D01*
X109727999Y-77555659D01*
X109728000Y-77555659D01*
X109728001Y-77555659D01*
X109792681Y-77550000D01*
X109963408Y-77535063D01*
X110191663Y-77473903D01*
X110405830Y-77374035D01*
X110599401Y-77238495D01*
X110766495Y-77071401D01*
X110896425Y-76885842D01*
X110951002Y-76842217D01*
X111020500Y-76835023D01*
X111082855Y-76866546D01*
X111099575Y-76885842D01*
X111229500Y-77071395D01*
X111229505Y-77071401D01*
X111396599Y-77238495D01*
X111493384Y-77306265D01*
X111590165Y-77374032D01*
X111590167Y-77374033D01*
X111590170Y-77374035D01*
X111804337Y-77473903D01*
X112032592Y-77535063D01*
X112203319Y-77550000D01*
X112267999Y-77555659D01*
X112268000Y-77555659D01*
X112268001Y-77555659D01*
X112332681Y-77550000D01*
X112503408Y-77535063D01*
X112731663Y-77473903D01*
X112945830Y-77374035D01*
X113139401Y-77238495D01*
X113306495Y-77071401D01*
X113442035Y-76877830D01*
X113541903Y-76663663D01*
X113603063Y-76435408D01*
X113623659Y-76200000D01*
X113603063Y-75964592D01*
X113541903Y-75736337D01*
X113442035Y-75522171D01*
X113436425Y-75514158D01*
X113306494Y-75328597D01*
X113139402Y-75161506D01*
X113139395Y-75161501D01*
X112945831Y-75025965D01*
X112945829Y-75025964D01*
X112761881Y-74940187D01*
X112756985Y-74937771D01*
X112749085Y-74933654D01*
X112747196Y-74932835D01*
X112738611Y-74929336D01*
X112734397Y-74927372D01*
X112731664Y-74926097D01*
X112721237Y-74923303D01*
X112718876Y-74922670D01*
X112709910Y-74919899D01*
X111810471Y-74604140D01*
X111810470Y-74604139D01*
X111706425Y-74567612D01*
X111649691Y-74526832D01*
X111624011Y-74461853D01*
X111623500Y-74450613D01*
X111623500Y-69038499D01*
X111643185Y-68971460D01*
X111695989Y-68925705D01*
X111747500Y-68914499D01*
X113175871Y-68914499D01*
X113175872Y-68914499D01*
X113235483Y-68908091D01*
X113370331Y-68857796D01*
X113485546Y-68771546D01*
X113571796Y-68656331D01*
X113622091Y-68521483D01*
X113628500Y-68461873D01*
X113628499Y-66666128D01*
X113622091Y-66606517D01*
X113571796Y-66471669D01*
X113571795Y-66471668D01*
X113571793Y-66471664D01*
X113485547Y-66356455D01*
X113485544Y-66356452D01*
X113370335Y-66270206D01*
X113370328Y-66270202D01*
X113311242Y-66248165D01*
X113259792Y-66211934D01*
X112834716Y-65707985D01*
X112806538Y-65644049D01*
X112805500Y-65628035D01*
X112805500Y-57424769D01*
X112807515Y-57402507D01*
X112819496Y-57336857D01*
X112921081Y-56780219D01*
X112925131Y-56764178D01*
X112936674Y-56728656D01*
X112944575Y-56653468D01*
X112945409Y-56647668D01*
X112945398Y-56647667D01*
X112945775Y-56644912D01*
X112951875Y-56600326D01*
X112952065Y-56598254D01*
X112952010Y-56590071D01*
X112952687Y-56576294D01*
X112956460Y-56540404D01*
X112956460Y-56540403D01*
X112956460Y-56540400D01*
X112946373Y-56444439D01*
X112945783Y-56436130D01*
X112945774Y-56435879D01*
X112945772Y-56435869D01*
X112945678Y-56435011D01*
X112944576Y-56427333D01*
X112943758Y-56419551D01*
X112936674Y-56352144D01*
X112925132Y-56316624D01*
X112921080Y-56300573D01*
X112908194Y-56229965D01*
X112807515Y-55678291D01*
X112805500Y-55656029D01*
X112805500Y-43043446D01*
X112805501Y-43043425D01*
X112805501Y-42888685D01*
X112776506Y-42742926D01*
X112776505Y-42742925D01*
X112776505Y-42742921D01*
X112719630Y-42605611D01*
X112676523Y-42541097D01*
X112676523Y-42541096D01*
X112637060Y-42482035D01*
X112637054Y-42482028D01*
X112527647Y-42372621D01*
X112527624Y-42372600D01*
X107287969Y-37132943D01*
X107287968Y-37132942D01*
X107164392Y-37050372D01*
X107164391Y-37050371D01*
X107164389Y-37050370D01*
X107164386Y-37050368D01*
X107164381Y-37050366D01*
X107066173Y-37009688D01*
X107027080Y-36993495D01*
X107002894Y-36988684D01*
X106881314Y-36964499D01*
X106881312Y-36964499D01*
X106732688Y-36964499D01*
X106726574Y-36964499D01*
X106726554Y-36964500D01*
X67451900Y-36964500D01*
X67384861Y-36944815D01*
X67339106Y-36892011D01*
X67327900Y-36840500D01*
X67327900Y-35612099D01*
X67347585Y-35545060D01*
X67400389Y-35499305D01*
X67451900Y-35488099D01*
X67471271Y-35488099D01*
X67471272Y-35488099D01*
X67530883Y-35481691D01*
X67665731Y-35431396D01*
X67780946Y-35345146D01*
X67867196Y-35229931D01*
X67916210Y-35098516D01*
X67958081Y-35042584D01*
X68023545Y-35018166D01*
X68091818Y-35033017D01*
X68120073Y-35054169D01*
X68241999Y-35176095D01*
X68338784Y-35243865D01*
X68435565Y-35311632D01*
X68435567Y-35311633D01*
X68435570Y-35311635D01*
X68649737Y-35411503D01*
X68649743Y-35411504D01*
X68649744Y-35411505D01*
X68664288Y-35415402D01*
X68877992Y-35472663D01*
X69054434Y-35488100D01*
X69113399Y-35493259D01*
X69113400Y-35493259D01*
X69113401Y-35493259D01*
X69172366Y-35488100D01*
X69348808Y-35472663D01*
X69577063Y-35411503D01*
X69791230Y-35311635D01*
X69984801Y-35176095D01*
X70151895Y-35009001D01*
X70281825Y-34823442D01*
X70336402Y-34779817D01*
X70405900Y-34772623D01*
X70468255Y-34804146D01*
X70484975Y-34823442D01*
X70614681Y-35008682D01*
X70614905Y-35009001D01*
X70781999Y-35176095D01*
X70878784Y-35243865D01*
X70975565Y-35311632D01*
X70975567Y-35311633D01*
X70975570Y-35311635D01*
X71189737Y-35411503D01*
X71189743Y-35411504D01*
X71189744Y-35411505D01*
X71204288Y-35415402D01*
X71417992Y-35472663D01*
X71594434Y-35488100D01*
X71653399Y-35493259D01*
X71653400Y-35493259D01*
X71653401Y-35493259D01*
X71712366Y-35488100D01*
X71888808Y-35472663D01*
X72117063Y-35411503D01*
X72331230Y-35311635D01*
X72524801Y-35176095D01*
X72691895Y-35009001D01*
X72821825Y-34823442D01*
X72876402Y-34779817D01*
X72945900Y-34772623D01*
X73008255Y-34804146D01*
X73024975Y-34823442D01*
X73154681Y-35008682D01*
X73154905Y-35009001D01*
X73321999Y-35176095D01*
X73418784Y-35243865D01*
X73515565Y-35311632D01*
X73515567Y-35311633D01*
X73515570Y-35311635D01*
X73729737Y-35411503D01*
X73729743Y-35411504D01*
X73729744Y-35411505D01*
X73744288Y-35415402D01*
X73957992Y-35472663D01*
X74134434Y-35488100D01*
X74193399Y-35493259D01*
X74193400Y-35493259D01*
X74193401Y-35493259D01*
X74252366Y-35488100D01*
X74428808Y-35472663D01*
X74657063Y-35411503D01*
X74871230Y-35311635D01*
X75064801Y-35176095D01*
X75231895Y-35009001D01*
X75361825Y-34823442D01*
X75416402Y-34779817D01*
X75485900Y-34772623D01*
X75548255Y-34804146D01*
X75564975Y-34823442D01*
X75694681Y-35008682D01*
X75694905Y-35009001D01*
X75861999Y-35176095D01*
X75958784Y-35243865D01*
X76055565Y-35311632D01*
X76055567Y-35311633D01*
X76055570Y-35311635D01*
X76269737Y-35411503D01*
X76269743Y-35411504D01*
X76269744Y-35411505D01*
X76284288Y-35415402D01*
X76497992Y-35472663D01*
X76674434Y-35488100D01*
X76733399Y-35493259D01*
X76733400Y-35493259D01*
X76733401Y-35493259D01*
X76792366Y-35488100D01*
X76968808Y-35472663D01*
X77197063Y-35411503D01*
X77411230Y-35311635D01*
X77604801Y-35176095D01*
X77771895Y-35009001D01*
X77902130Y-34823005D01*
X77956707Y-34779381D01*
X78026205Y-34772187D01*
X78088560Y-34803710D01*
X78105279Y-34823005D01*
X78235290Y-35008678D01*
X78402317Y-35175705D01*
X78595821Y-35311200D01*
X78809907Y-35411029D01*
X78809916Y-35411033D01*
X79023400Y-35468234D01*
X79023400Y-34570612D01*
X79080407Y-34603525D01*
X79207574Y-34637600D01*
X79339226Y-34637600D01*
X79466393Y-34603525D01*
X79523400Y-34570612D01*
X79523400Y-35468233D01*
X79736883Y-35411033D01*
X79736892Y-35411029D01*
X79950978Y-35311200D01*
X80144482Y-35175705D01*
X80311505Y-35008682D01*
X80447000Y-34815178D01*
X80546829Y-34601092D01*
X80546832Y-34601086D01*
X80604036Y-34387600D01*
X79706412Y-34387600D01*
X79739325Y-34330593D01*
X79773400Y-34203426D01*
X79773400Y-34071774D01*
X79739325Y-33944607D01*
X79706412Y-33887600D01*
X80604036Y-33887600D01*
X80604035Y-33887599D01*
X80546832Y-33674113D01*
X80546829Y-33674107D01*
X80447000Y-33460022D01*
X80446999Y-33460020D01*
X80311513Y-33266526D01*
X80311508Y-33266520D01*
X80144482Y-33099494D01*
X79950978Y-32963999D01*
X79736892Y-32864170D01*
X79736886Y-32864167D01*
X79523400Y-32806964D01*
X79523400Y-33704588D01*
X79466393Y-33671675D01*
X79339226Y-33637600D01*
X79207574Y-33637600D01*
X79080407Y-33671675D01*
X79023400Y-33704588D01*
X79023400Y-32806964D01*
X79023399Y-32806964D01*
X78809913Y-32864167D01*
X78809907Y-32864170D01*
X78595822Y-32963999D01*
X78595820Y-32964000D01*
X78402326Y-33099486D01*
X78402320Y-33099491D01*
X78235291Y-33266520D01*
X78235290Y-33266522D01*
X78105280Y-33452195D01*
X78050703Y-33495819D01*
X77981204Y-33503012D01*
X77918850Y-33471490D01*
X77902130Y-33452194D01*
X77771894Y-33266197D01*
X77604802Y-33099106D01*
X77604795Y-33099101D01*
X77411234Y-32963567D01*
X77411230Y-32963565D01*
X77411228Y-32963564D01*
X77197063Y-32863697D01*
X77197059Y-32863696D01*
X77197055Y-32863694D01*
X76968813Y-32802538D01*
X76968803Y-32802536D01*
X76733401Y-32781941D01*
X76733399Y-32781941D01*
X76497996Y-32802536D01*
X76497986Y-32802538D01*
X76269744Y-32863694D01*
X76269735Y-32863698D01*
X76055571Y-32963564D01*
X76055569Y-32963565D01*
X75861997Y-33099105D01*
X75694905Y-33266197D01*
X75564975Y-33451758D01*
X75510398Y-33495383D01*
X75440900Y-33502577D01*
X75378545Y-33471054D01*
X75361825Y-33451758D01*
X75231894Y-33266197D01*
X75064802Y-33099106D01*
X75064795Y-33099101D01*
X74871234Y-32963567D01*
X74871230Y-32963565D01*
X74871228Y-32963564D01*
X74657063Y-32863697D01*
X74657059Y-32863696D01*
X74657055Y-32863694D01*
X74428813Y-32802538D01*
X74428803Y-32802536D01*
X74193401Y-32781941D01*
X74193399Y-32781941D01*
X73957996Y-32802536D01*
X73957986Y-32802538D01*
X73729744Y-32863694D01*
X73729735Y-32863698D01*
X73515571Y-32963564D01*
X73515569Y-32963565D01*
X73321997Y-33099105D01*
X73154905Y-33266197D01*
X73024975Y-33451758D01*
X72970398Y-33495383D01*
X72900900Y-33502577D01*
X72838545Y-33471054D01*
X72821825Y-33451758D01*
X72691894Y-33266197D01*
X72524802Y-33099106D01*
X72524795Y-33099101D01*
X72331234Y-32963567D01*
X72331230Y-32963565D01*
X72331228Y-32963564D01*
X72117063Y-32863697D01*
X72117059Y-32863696D01*
X72117055Y-32863694D01*
X71888813Y-32802538D01*
X71888803Y-32802536D01*
X71653401Y-32781941D01*
X71653399Y-32781941D01*
X71417996Y-32802536D01*
X71417986Y-32802538D01*
X71189744Y-32863694D01*
X71189735Y-32863698D01*
X70975571Y-32963564D01*
X70975569Y-32963565D01*
X70781997Y-33099105D01*
X70614905Y-33266197D01*
X70484975Y-33451758D01*
X70430398Y-33495383D01*
X70360900Y-33502577D01*
X70298545Y-33471054D01*
X70281825Y-33451758D01*
X70151894Y-33266197D01*
X69984802Y-33099106D01*
X69984795Y-33099101D01*
X69791234Y-32963567D01*
X69791230Y-32963565D01*
X69791228Y-32963564D01*
X69577063Y-32863697D01*
X69577059Y-32863696D01*
X69577055Y-32863694D01*
X69348813Y-32802538D01*
X69348803Y-32802536D01*
X69113401Y-32781941D01*
X69113399Y-32781941D01*
X68877996Y-32802536D01*
X68877986Y-32802538D01*
X68649744Y-32863694D01*
X68649735Y-32863698D01*
X68435571Y-32963564D01*
X68435569Y-32963565D01*
X68242000Y-33099103D01*
X68120073Y-33221030D01*
X68058750Y-33254514D01*
X67989058Y-33249530D01*
X67933125Y-33207658D01*
X67916210Y-33176681D01*
X67867197Y-33045271D01*
X67867193Y-33045264D01*
X67780947Y-32930055D01*
X67780944Y-32930052D01*
X67665735Y-32843806D01*
X67665728Y-32843802D01*
X67530882Y-32793508D01*
X67530883Y-32793508D01*
X67471283Y-32787101D01*
X67471281Y-32787100D01*
X67471273Y-32787100D01*
X67471264Y-32787100D01*
X65675529Y-32787100D01*
X65675523Y-32787101D01*
X65615916Y-32793508D01*
X65481071Y-32843802D01*
X65481064Y-32843806D01*
X65365855Y-32930052D01*
X65365852Y-32930055D01*
X65279606Y-33045264D01*
X65279602Y-33045271D01*
X65229308Y-33180117D01*
X65222901Y-33239716D01*
X65222900Y-33239735D01*
X65222900Y-35035470D01*
X65222901Y-35035476D01*
X65229308Y-35095083D01*
X65279602Y-35229928D01*
X65279606Y-35229935D01*
X65365852Y-35345144D01*
X65365855Y-35345147D01*
X65481064Y-35431393D01*
X65481071Y-35431397D01*
X65502574Y-35439417D01*
X65615917Y-35481691D01*
X65675527Y-35488100D01*
X65694897Y-35488099D01*
X65761935Y-35507781D01*
X65807692Y-35560583D01*
X65818900Y-35612099D01*
X65818900Y-36840500D01*
X65799215Y-36907539D01*
X65746411Y-36953294D01*
X65694900Y-36964500D01*
X47075276Y-36964500D01*
X47008237Y-36944815D01*
X46962482Y-36892011D01*
X46955290Y-36869746D01*
X46955274Y-36869752D01*
X46954985Y-36868800D01*
X46953659Y-36864694D01*
X46953505Y-36863922D01*
X46953505Y-36863921D01*
X46953505Y-36863920D01*
X46896629Y-36726610D01*
X46821653Y-36614400D01*
X46814060Y-36603035D01*
X46814054Y-36603028D01*
X46704647Y-36493621D01*
X46704624Y-36493600D01*
X45515763Y-35304739D01*
X45490050Y-35267235D01*
X44940181Y-34024604D01*
X44940179Y-34024600D01*
X44918812Y-33981888D01*
X44918808Y-33981883D01*
X44915687Y-33976892D01*
X44915913Y-33976750D01*
X44905894Y-33960226D01*
X44862037Y-33866175D01*
X44862034Y-33866169D01*
X44726494Y-33672597D01*
X44559402Y-33505506D01*
X44559395Y-33505501D01*
X44555840Y-33503012D01*
X44483265Y-33452194D01*
X44365834Y-33369967D01*
X44365830Y-33369965D01*
X44365828Y-33369964D01*
X44151663Y-33270097D01*
X44151659Y-33270096D01*
X44151655Y-33270094D01*
X43923413Y-33208938D01*
X43923403Y-33208936D01*
X43688001Y-33188341D01*
X43687999Y-33188341D01*
X43452596Y-33208936D01*
X43452586Y-33208938D01*
X43224344Y-33270094D01*
X43224335Y-33270098D01*
X43010171Y-33369964D01*
X43010169Y-33369965D01*
X42816597Y-33505505D01*
X42649505Y-33672597D01*
X42519575Y-33858158D01*
X42464998Y-33901783D01*
X42395500Y-33908977D01*
X42333145Y-33877454D01*
X42316425Y-33858158D01*
X42186494Y-33672597D01*
X42019402Y-33505506D01*
X42019395Y-33505501D01*
X42015840Y-33503012D01*
X41943265Y-33452194D01*
X41825834Y-33369967D01*
X41825831Y-33369965D01*
X41825830Y-33369965D01*
X41775726Y-33346601D01*
X41722702Y-33321875D01*
X41703706Y-33310873D01*
X41699489Y-33307903D01*
X41692952Y-33303299D01*
X41692949Y-33303297D01*
X41692947Y-33303296D01*
X40505533Y-32698903D01*
X40474101Y-32676076D01*
X40231969Y-32433943D01*
X40231968Y-32433942D01*
X40190773Y-32406417D01*
X40108389Y-32351370D01*
X40108386Y-32351368D01*
X40108385Y-32351368D01*
X40027955Y-32318053D01*
X39971080Y-32294495D01*
X39971070Y-32294493D01*
X39946894Y-32289684D01*
X39825314Y-32265499D01*
X39825312Y-32265499D01*
X39676688Y-32265499D01*
X39670574Y-32265499D01*
X39670554Y-32265500D01*
X37390683Y-32265500D01*
X37244927Y-32294493D01*
X37244919Y-32294495D01*
X37107608Y-32351371D01*
X36984035Y-32433939D01*
X36984034Y-32433940D01*
X36931488Y-32486487D01*
X36878941Y-32539034D01*
X36878939Y-32539036D01*
X33576943Y-35841030D01*
X33576942Y-35841031D01*
X33494372Y-35964607D01*
X33494366Y-35964618D01*
X33437496Y-36101916D01*
X33437493Y-36101926D01*
X33408499Y-36247685D01*
X33408499Y-36402425D01*
X33408500Y-36402446D01*
X33408500Y-74215552D01*
X33408499Y-74215578D01*
X33408499Y-74369313D01*
X33424093Y-74447703D01*
X33424093Y-74447705D01*
X33437492Y-74515072D01*
X33437495Y-74515081D01*
X33461053Y-74571955D01*
X33494368Y-74652387D01*
X33497523Y-74657108D01*
X33518402Y-74723785D01*
X33499918Y-74791165D01*
X33447940Y-74837856D01*
X33394422Y-74850000D01*
X32630155Y-74850000D01*
X32570624Y-74856401D01*
X32570622Y-74856402D01*
X32546828Y-74865276D01*
X33398589Y-75717037D01*
X33335007Y-75734075D01*
X33220993Y-75799901D01*
X33127901Y-75892993D01*
X33062075Y-76007007D01*
X33045037Y-76070589D01*
X32193277Y-75218829D01*
X32193274Y-75218829D01*
X32184404Y-75242615D01*
X32184401Y-75242625D01*
X32178000Y-75302157D01*
X30734000Y-75302157D01*
X30734000Y-30604000D01*
X30753685Y-30536961D01*
X30806489Y-30491206D01*
X30858000Y-30480000D01*
X114430000Y-30480000D01*
X114497039Y-30499685D01*
G37*
%TD.AperFunction*%
%TD*%
%TA.AperFunction,Conductor*%
%TO.N,DIN*%
G36*
X104783912Y-65867427D02*
G01*
X104786186Y-65870634D01*
X105437950Y-67227586D01*
X105438442Y-67236528D01*
X105432469Y-67243199D01*
X105431892Y-67243457D01*
X104662489Y-67563134D01*
X104653534Y-67563143D01*
X104653511Y-67563134D01*
X103884107Y-67243457D01*
X103877782Y-67237118D01*
X103877791Y-67228163D01*
X103878049Y-67227586D01*
X104529814Y-65870634D01*
X104536485Y-65864661D01*
X104540361Y-65864000D01*
X104775639Y-65864000D01*
X104783912Y-65867427D01*
G37*
%TD.AperFunction*%
%TD*%
%TA.AperFunction,Conductor*%
%TO.N,VCC*%
G36*
X35052855Y-74821558D02*
G01*
X35873867Y-75184859D01*
X36382845Y-75410084D01*
X36389024Y-75416565D01*
X36388925Y-75425249D01*
X36070562Y-76196214D01*
X36064237Y-76202553D01*
X36064214Y-76202562D01*
X35293249Y-76520925D01*
X35284294Y-76520916D01*
X35278084Y-76514845D01*
X34689558Y-75184857D01*
X34689345Y-75175907D01*
X34691983Y-75171854D01*
X35039853Y-74823984D01*
X35048125Y-74820558D01*
X35052855Y-74821558D01*
G37*
%TD.AperFunction*%
%TD*%
%TA.AperFunction,Conductor*%
%TO.N,CS1*%
G36*
X67629744Y-64533861D02*
G01*
X67630345Y-64534422D01*
X67796437Y-64700514D01*
X67799864Y-64708787D01*
X67797776Y-64715458D01*
X67084068Y-65743810D01*
X67076536Y-65748653D01*
X67067785Y-65746751D01*
X67066195Y-65745424D01*
X66601537Y-65282140D01*
X66598098Y-65273872D01*
X66598098Y-65273843D01*
X66598689Y-64708787D01*
X66598788Y-64613892D01*
X66602224Y-64605624D01*
X66609665Y-64602235D01*
X67621251Y-64531024D01*
X67629744Y-64533861D01*
G37*
%TD.AperFunction*%
%TD*%
%TA.AperFunction,Conductor*%
%TO.N,CS1*%
G36*
X63326360Y-62963639D02*
G01*
X64004211Y-63243437D01*
X64010551Y-63249761D01*
X64010562Y-63249788D01*
X64290348Y-63927608D01*
X64290337Y-63936563D01*
X64283997Y-63942887D01*
X64283518Y-63943073D01*
X63042724Y-64392513D01*
X63033778Y-64392108D01*
X63030466Y-64389785D01*
X62864214Y-64223533D01*
X62860787Y-64215260D01*
X62861486Y-64211275D01*
X62958634Y-63943073D01*
X63310927Y-62970479D01*
X63316966Y-62963870D01*
X63325912Y-62963465D01*
X63326360Y-62963639D01*
G37*
%TD.AperFunction*%
%TD*%
%TA.AperFunction,Conductor*%
%TO.N,A10*%
G36*
X64133912Y-74503427D02*
G01*
X64136186Y-74506634D01*
X64787950Y-75863586D01*
X64788442Y-75872528D01*
X64782469Y-75879199D01*
X64781892Y-75879457D01*
X64012489Y-76199134D01*
X64003534Y-76199143D01*
X64003511Y-76199134D01*
X63234107Y-75879457D01*
X63227782Y-75873118D01*
X63227791Y-75864163D01*
X63228049Y-75863586D01*
X63879814Y-74506634D01*
X63886485Y-74500661D01*
X63890361Y-74500000D01*
X64125639Y-74500000D01*
X64133912Y-74503427D01*
G37*
%TD.AperFunction*%
%TD*%
%TA.AperFunction,Conductor*%
%TO.N,A7*%
G36*
X56513912Y-74503427D02*
G01*
X56516186Y-74506634D01*
X57167950Y-75863586D01*
X57168442Y-75872528D01*
X57162469Y-75879199D01*
X57161892Y-75879457D01*
X56392489Y-76199134D01*
X56383534Y-76199143D01*
X56383511Y-76199134D01*
X55614107Y-75879457D01*
X55607782Y-75873118D01*
X55607791Y-75864163D01*
X55608049Y-75863586D01*
X56259814Y-74506634D01*
X56266485Y-74500661D01*
X56270361Y-74500000D01*
X56505639Y-74500000D01*
X56513912Y-74503427D01*
G37*
%TD.AperFunction*%
%TD*%
%TA.AperFunction,Conductor*%
%TO.N,CS1*%
G36*
X74465615Y-62553066D02*
G01*
X74466085Y-62553274D01*
X75661262Y-63112845D01*
X75667301Y-63119455D01*
X75668000Y-63123440D01*
X75668000Y-63358559D01*
X75664573Y-63366832D01*
X75661261Y-63369155D01*
X74466085Y-63928725D01*
X74457139Y-63929130D01*
X74450528Y-63923090D01*
X74450320Y-63922620D01*
X74168865Y-63245489D01*
X74168855Y-63236536D01*
X74450321Y-62559377D01*
X74456660Y-62553055D01*
X74465615Y-62553066D01*
G37*
%TD.AperFunction*%
%TD*%
%TA.AperFunction,Conductor*%
%TO.N,CS1*%
G36*
X61264978Y-64665191D02*
G01*
X61265122Y-64665523D01*
X61517932Y-65273508D01*
X61517944Y-65282461D01*
X61517934Y-65282487D01*
X61517932Y-65282492D01*
X61265157Y-65890391D01*
X61258817Y-65896715D01*
X61249862Y-65896702D01*
X61249449Y-65896521D01*
X60176590Y-65401137D01*
X60170516Y-65394558D01*
X60169795Y-65390515D01*
X60169795Y-65155547D01*
X60173222Y-65147274D01*
X60176671Y-65144888D01*
X61249496Y-64659355D01*
X61258445Y-64659067D01*
X61264978Y-64665191D01*
G37*
%TD.AperFunction*%
%TD*%
%TA.AperFunction,Conductor*%
%TO.N,CLK*%
G36*
X60043690Y-56116460D02*
G01*
X60046897Y-56118734D01*
X60213265Y-56285102D01*
X60216692Y-56293375D01*
X60216031Y-56297251D01*
X59717388Y-57717629D01*
X59711415Y-57724300D01*
X59702473Y-57724792D01*
X59701883Y-57724567D01*
X58931785Y-57406562D01*
X58925447Y-57400238D01*
X58607432Y-56630115D01*
X58607441Y-56621161D01*
X58613780Y-56614836D01*
X58614345Y-56614620D01*
X60034748Y-56115968D01*
X60043690Y-56116460D01*
G37*
%TD.AperFunction*%
%TD*%
%TA.AperFunction,Conductor*%
%TO.N,DEMP*%
G36*
X53852489Y-39624865D02*
G01*
X54621892Y-39944542D01*
X54628217Y-39950881D01*
X54628208Y-39959836D01*
X54627950Y-39960413D01*
X53976186Y-41317366D01*
X53969515Y-41323339D01*
X53965639Y-41324000D01*
X53730361Y-41324000D01*
X53722088Y-41320573D01*
X53719814Y-41317366D01*
X53068049Y-39960413D01*
X53067557Y-39951471D01*
X53073530Y-39944800D01*
X53074095Y-39944547D01*
X53843511Y-39624864D01*
X53852466Y-39624856D01*
X53852489Y-39624865D01*
G37*
%TD.AperFunction*%
%TD*%
%TA.AperFunction,Conductor*%
%TO.N,A8*%
G36*
X59053912Y-74503427D02*
G01*
X59056186Y-74506634D01*
X59707950Y-75863586D01*
X59708442Y-75872528D01*
X59702469Y-75879199D01*
X59701892Y-75879457D01*
X58932489Y-76199134D01*
X58923534Y-76199143D01*
X58923511Y-76199134D01*
X58154107Y-75879457D01*
X58147782Y-75873118D01*
X58147791Y-75864163D01*
X58148049Y-75863586D01*
X58799814Y-74506634D01*
X58806485Y-74500661D01*
X58810361Y-74500000D01*
X59045639Y-74500000D01*
X59053912Y-74503427D01*
G37*
%TD.AperFunction*%
%TD*%
%TA.AperFunction,Conductor*%
%TO.N,DIN*%
G36*
X57170838Y-39303441D02*
G01*
X57177163Y-39309780D01*
X57177388Y-39310370D01*
X57676031Y-40730748D01*
X57675539Y-40739690D01*
X57673265Y-40742897D01*
X57506897Y-40909265D01*
X57498624Y-40912692D01*
X57494748Y-40912031D01*
X56074370Y-40413388D01*
X56067699Y-40407415D01*
X56067207Y-40398473D01*
X56067423Y-40397905D01*
X56385438Y-39627783D01*
X56391759Y-39621448D01*
X57161884Y-39303432D01*
X57170838Y-39303441D01*
G37*
%TD.AperFunction*%
%TD*%
%TA.AperFunction,Conductor*%
%TO.N,A8*%
G36*
X59609620Y-71138320D02*
G01*
X59615944Y-71144660D01*
X59615933Y-71153615D01*
X59615725Y-71154085D01*
X59056155Y-72349261D01*
X59049544Y-72355301D01*
X59045559Y-72356000D01*
X58810441Y-72356000D01*
X58802168Y-72352573D01*
X58799845Y-72349261D01*
X58240274Y-71154085D01*
X58239869Y-71145139D01*
X58245909Y-71138528D01*
X58246354Y-71138330D01*
X58923510Y-70856865D01*
X58932462Y-70856855D01*
X59609620Y-71138320D01*
G37*
%TD.AperFunction*%
%TD*%
%TA.AperFunction,Conductor*%
%TO.N,A2*%
G36*
X75934106Y-57083428D02*
G01*
X76704215Y-57401438D01*
X76710552Y-57407761D01*
X76710562Y-57407785D01*
X77028567Y-58177883D01*
X77028558Y-58186838D01*
X77022219Y-58193163D01*
X77021629Y-58193388D01*
X75601251Y-58692031D01*
X75592309Y-58691539D01*
X75589102Y-58689265D01*
X75422734Y-58522897D01*
X75419307Y-58514624D01*
X75419968Y-58510748D01*
X75531461Y-58193163D01*
X75918612Y-57090368D01*
X75924584Y-57083699D01*
X75933526Y-57083207D01*
X75934106Y-57083428D01*
G37*
%TD.AperFunction*%
%TD*%
%TA.AperFunction,Conductor*%
%TO.N,A14*%
G36*
X74176268Y-70868279D02*
G01*
X74176279Y-70868290D01*
X74910455Y-71603445D01*
X74913876Y-71611721D01*
X74911164Y-71619203D01*
X74296508Y-72356790D01*
X74288579Y-72360952D01*
X74287520Y-72361000D01*
X74048480Y-72361000D01*
X74040207Y-72357573D01*
X74039492Y-72356790D01*
X73863875Y-72146050D01*
X73424834Y-71619201D01*
X73422171Y-71610654D01*
X73425543Y-71603446D01*
X74159721Y-70868289D01*
X74167992Y-70864858D01*
X74176268Y-70868279D01*
G37*
%TD.AperFunction*%
%TD*%
%TA.AperFunction,Conductor*%
%TO.N,A9*%
G36*
X61593912Y-74503427D02*
G01*
X61596186Y-74506634D01*
X62247950Y-75863586D01*
X62248442Y-75872528D01*
X62242469Y-75879199D01*
X62241892Y-75879457D01*
X61472489Y-76199134D01*
X61463534Y-76199143D01*
X61463511Y-76199134D01*
X60694107Y-75879457D01*
X60687782Y-75873118D01*
X60687791Y-75864163D01*
X60688049Y-75863586D01*
X61339814Y-74506634D01*
X61346485Y-74500661D01*
X61350361Y-74500000D01*
X61585639Y-74500000D01*
X61593912Y-74503427D01*
G37*
%TD.AperFunction*%
%TD*%
%TA.AperFunction,Conductor*%
%TO.N,A7*%
G36*
X82698921Y-63351224D02*
G01*
X82841775Y-63410010D01*
X83054207Y-63497428D01*
X83060554Y-63503746D01*
X83060575Y-63503796D01*
X83206779Y-63859082D01*
X83206758Y-63868036D01*
X83200772Y-63874198D01*
X82588081Y-64150737D01*
X82579131Y-64151017D01*
X82574995Y-64148346D01*
X82409653Y-63983004D01*
X82406226Y-63974731D01*
X82407262Y-63969918D01*
X82457289Y-63859082D01*
X82683805Y-63357230D01*
X82690332Y-63351100D01*
X82698921Y-63351224D01*
G37*
%TD.AperFunction*%
%TD*%
%TA.AperFunction,Conductor*%
%TO.N,DEMP*%
G36*
X98866199Y-58280530D02*
G01*
X98866457Y-58281107D01*
X99186134Y-59050511D01*
X99186143Y-59059466D01*
X99186134Y-59059489D01*
X98866457Y-59828892D01*
X98860118Y-59835217D01*
X98851163Y-59835208D01*
X98850586Y-59834950D01*
X97493634Y-59183186D01*
X97487661Y-59176515D01*
X97487000Y-59172639D01*
X97487000Y-58937360D01*
X97490427Y-58929087D01*
X97493631Y-58926814D01*
X98850586Y-58275048D01*
X98859528Y-58274557D01*
X98866199Y-58280530D01*
G37*
%TD.AperFunction*%
%TD*%
%TA.AperFunction,Conductor*%
%TO.N,3V3*%
G36*
X44471705Y-34223083D02*
G01*
X44477915Y-34229154D01*
X45066440Y-35559140D01*
X45066654Y-35568092D01*
X45064014Y-35572147D01*
X44716147Y-35920014D01*
X44707874Y-35923441D01*
X44703140Y-35922440D01*
X43373154Y-35333915D01*
X43366975Y-35327434D01*
X43367073Y-35318751D01*
X43685438Y-34547783D01*
X43691759Y-34541448D01*
X44462751Y-34223074D01*
X44471705Y-34223083D01*
G37*
%TD.AperFunction*%
%TD*%
%TA.AperFunction,Conductor*%
%TO.N,A5*%
G36*
X51433912Y-74503427D02*
G01*
X51436186Y-74506634D01*
X52087950Y-75863586D01*
X52088442Y-75872528D01*
X52082469Y-75879199D01*
X52081892Y-75879457D01*
X51312489Y-76199134D01*
X51303534Y-76199143D01*
X51303511Y-76199134D01*
X50534107Y-75879457D01*
X50527782Y-75873118D01*
X50527791Y-75864163D01*
X50528049Y-75863586D01*
X51179814Y-74506634D01*
X51186485Y-74500661D01*
X51190361Y-74500000D01*
X51425639Y-74500000D01*
X51433912Y-74503427D01*
G37*
%TD.AperFunction*%
%TD*%
%TA.AperFunction,Conductor*%
%TO.N,A5*%
G36*
X84332489Y-57404865D02*
G01*
X85101892Y-57724542D01*
X85108217Y-57730881D01*
X85108208Y-57739836D01*
X85107950Y-57740413D01*
X84456186Y-59097366D01*
X84449515Y-59103339D01*
X84445639Y-59104000D01*
X84210361Y-59104000D01*
X84202088Y-59100573D01*
X84199814Y-59097366D01*
X83548049Y-57740413D01*
X83547557Y-57731471D01*
X83553530Y-57724800D01*
X83554095Y-57724547D01*
X84323511Y-57404864D01*
X84332466Y-57404856D01*
X84332489Y-57404865D01*
G37*
%TD.AperFunction*%
%TD*%
M02*
