%TF.GenerationSoftware,KiCad,Pcbnew,8.0.7*%
%TF.CreationDate,2025-02-06T19:54:10+01:00*%
%TF.ProjectId,Sorbus-Sound,536f7262-7573-42d5-936f-756e642e6b69,rev?*%
%TF.SameCoordinates,Original*%
%TF.FileFunction,Legend,Top*%
%TF.FilePolarity,Positive*%
%FSLAX46Y46*%
G04 Gerber Fmt 4.6, Leading zero omitted, Abs format (unit mm)*
G04 Created by KiCad (PCBNEW 8.0.7) date 2025-02-06 19:54:10*
%MOMM*%
%LPD*%
G01*
G04 APERTURE LIST*
%ADD10C,0.150000*%
%ADD11C,0.125000*%
%ADD12C,0.120000*%
G04 APERTURE END LIST*
D10*
X114427000Y-37338000D02*
X114427000Y-68834000D01*
X97409000Y-68834000D02*
X114427000Y-68834000D01*
X97409000Y-68834000D02*
X97409000Y-37338000D01*
X77204819Y-31666666D02*
X76728628Y-31999999D01*
X77204819Y-32238094D02*
X76204819Y-32238094D01*
X76204819Y-32238094D02*
X76204819Y-31857142D01*
X76204819Y-31857142D02*
X76252438Y-31761904D01*
X76252438Y-31761904D02*
X76300057Y-31714285D01*
X76300057Y-31714285D02*
X76395295Y-31666666D01*
X76395295Y-31666666D02*
X76538152Y-31666666D01*
X76538152Y-31666666D02*
X76633390Y-31714285D01*
X76633390Y-31714285D02*
X76681009Y-31761904D01*
X76681009Y-31761904D02*
X76728628Y-31857142D01*
X76728628Y-31857142D02*
X76728628Y-32238094D01*
X76204819Y-31333332D02*
X77204819Y-30666666D01*
X76204819Y-30666666D02*
X77204819Y-31333332D01*
X102170112Y-61681009D02*
X101836779Y-61681009D01*
X101836779Y-62204819D02*
X101836779Y-61204819D01*
X101836779Y-61204819D02*
X102312969Y-61204819D01*
X103170112Y-62204819D02*
X102693922Y-62204819D01*
X102693922Y-62204819D02*
X102693922Y-61204819D01*
X103360589Y-61204819D02*
X103932017Y-61204819D01*
X103646303Y-62204819D02*
X103646303Y-61204819D01*
G36*
X102784937Y-73237166D02*
G01*
X102834739Y-73241374D01*
X102883131Y-73249473D01*
X102891210Y-73251337D01*
X102940785Y-73266741D01*
X102985522Y-73287950D01*
X103004539Y-73299697D01*
X103044610Y-73331719D01*
X103077262Y-73369168D01*
X103094909Y-73397150D01*
X103114406Y-73445258D01*
X103124373Y-73496960D01*
X103126904Y-73544672D01*
X103123573Y-73594223D01*
X103112444Y-73644802D01*
X103103213Y-73670702D01*
X103080819Y-73715194D01*
X103049671Y-73757429D01*
X103036779Y-73771085D01*
X102998200Y-73804377D01*
X102955003Y-73831378D01*
X102911726Y-73850464D01*
X102862997Y-73864375D01*
X102812819Y-73872489D01*
X102763188Y-73876198D01*
X102729766Y-73876842D01*
X102593722Y-73876842D01*
X102593722Y-74252000D01*
X102457923Y-74252000D01*
X102457923Y-73751790D01*
X102593722Y-73751790D01*
X102708516Y-73751790D01*
X102761607Y-73750116D01*
X102811163Y-73744472D01*
X102842606Y-73737624D01*
X102889317Y-73719306D01*
X102926381Y-73692683D01*
X102958036Y-73654149D01*
X102972054Y-73626494D01*
X102983900Y-73576971D01*
X102985488Y-73548092D01*
X102980249Y-73498096D01*
X102966925Y-73460164D01*
X102938080Y-73420610D01*
X102910505Y-73399103D01*
X102865664Y-73378247D01*
X102835278Y-73370039D01*
X102784111Y-73362987D01*
X102732553Y-73361010D01*
X102728544Y-73361002D01*
X102593722Y-73361002D01*
X102593722Y-73751790D01*
X102457923Y-73751790D01*
X102457923Y-73235949D01*
X102735383Y-73235949D01*
X102784937Y-73237166D01*
G37*
G36*
X104091908Y-74175551D02*
G01*
X104045375Y-74196188D01*
X104023520Y-74206326D01*
X103977915Y-74224702D01*
X103943408Y-74236368D01*
X103894104Y-74249694D01*
X103852550Y-74258350D01*
X103800954Y-74265311D01*
X103751700Y-74267595D01*
X103744350Y-74267631D01*
X103689930Y-74265708D01*
X103638044Y-74259937D01*
X103588691Y-74250320D01*
X103541873Y-74236856D01*
X103492620Y-74216665D01*
X103447076Y-74190986D01*
X103405242Y-74159821D01*
X103383604Y-74140136D01*
X103348789Y-74101103D01*
X103318534Y-74056545D01*
X103295468Y-74012299D01*
X103280533Y-73976249D01*
X103264291Y-73924424D01*
X103253886Y-73875796D01*
X103247034Y-73824106D01*
X103243735Y-73769354D01*
X103243408Y-73744951D01*
X103245115Y-73691610D01*
X103250234Y-73640793D01*
X103258765Y-73592501D01*
X103272695Y-73540401D01*
X103279068Y-73521713D01*
X103298973Y-73474407D01*
X103322787Y-73430916D01*
X103354249Y-73386551D01*
X103382138Y-73355384D01*
X103420965Y-73320782D01*
X103464081Y-73291164D01*
X103511485Y-73266531D01*
X103539675Y-73255000D01*
X103587211Y-73239827D01*
X103637250Y-73228988D01*
X103689793Y-73222485D01*
X103744839Y-73220318D01*
X103796387Y-73222250D01*
X103847841Y-73228046D01*
X103899198Y-73237706D01*
X103909458Y-73240101D01*
X103957069Y-73253625D01*
X104007578Y-73271941D01*
X104054908Y-73292243D01*
X104091908Y-73309955D01*
X104091908Y-73470422D01*
X104081650Y-73470422D01*
X104039472Y-73439923D01*
X103997447Y-73413880D01*
X103950351Y-73389911D01*
X103913855Y-73375168D01*
X103866216Y-73360764D01*
X103816723Y-73351074D01*
X103765374Y-73346098D01*
X103736046Y-73345370D01*
X103684467Y-73348227D01*
X103632346Y-73357861D01*
X103596095Y-73369550D01*
X103551456Y-73391463D01*
X103510595Y-73420933D01*
X103485453Y-73444777D01*
X103452835Y-73485672D01*
X103428065Y-73529677D01*
X103411447Y-73570318D01*
X103397537Y-73620082D01*
X103389423Y-73668786D01*
X103385481Y-73721199D01*
X103385069Y-73745684D01*
X103386886Y-73795891D01*
X103393272Y-73848032D01*
X103405761Y-73900572D01*
X103414134Y-73924714D01*
X103436247Y-73972835D01*
X103462284Y-74014434D01*
X103489361Y-74046591D01*
X103527715Y-74079690D01*
X103570602Y-74105713D01*
X103601712Y-74119131D01*
X103650920Y-74133420D01*
X103702188Y-74141113D01*
X103737511Y-74142579D01*
X103791756Y-74140106D01*
X103844029Y-74132687D01*
X103894332Y-74120322D01*
X103921426Y-74111316D01*
X103968917Y-74091257D01*
X104014669Y-74066253D01*
X104058682Y-74036303D01*
X104082382Y-74017526D01*
X104091908Y-74017526D01*
X104091908Y-74175551D01*
G37*
G36*
X104634371Y-73236468D02*
G01*
X104684981Y-73238293D01*
X104734663Y-73242307D01*
X104749410Y-73244254D01*
X104797201Y-73254672D01*
X104843123Y-73271822D01*
X104855899Y-73277959D01*
X104899330Y-73306570D01*
X104932685Y-73344280D01*
X104937721Y-73352697D01*
X104955953Y-73399487D01*
X104962899Y-73450324D01*
X104963122Y-73462118D01*
X104957901Y-73512986D01*
X104940463Y-73561348D01*
X104925997Y-73584484D01*
X104891762Y-73622623D01*
X104852933Y-73652962D01*
X104827079Y-73668503D01*
X104827079Y-73673877D01*
X104876217Y-73687508D01*
X104924893Y-73710033D01*
X104966575Y-73740170D01*
X104990477Y-73764491D01*
X105019404Y-73806269D01*
X105038863Y-73853844D01*
X105048856Y-73907214D01*
X105050317Y-73939369D01*
X105046911Y-73989345D01*
X105035428Y-74039125D01*
X105021496Y-74073214D01*
X104994774Y-74116900D01*
X104961441Y-74153895D01*
X104943827Y-74168713D01*
X104902842Y-74196689D01*
X104855037Y-74220165D01*
X104817065Y-74232949D01*
X104765268Y-74243795D01*
X104716277Y-74249320D01*
X104661335Y-74251832D01*
X104641699Y-74252000D01*
X104278998Y-74252000D01*
X104278998Y-74126947D01*
X104414797Y-74126947D01*
X104594804Y-74126947D01*
X104647502Y-74126088D01*
X104698142Y-74123160D01*
X104741105Y-74118154D01*
X104790124Y-74106745D01*
X104834650Y-74086159D01*
X104873157Y-74053498D01*
X104891070Y-74028273D01*
X104906393Y-73980321D01*
X104908900Y-73944498D01*
X104904822Y-73895085D01*
X104890338Y-73851930D01*
X104857618Y-73814651D01*
X104822927Y-73793311D01*
X104776177Y-73777550D01*
X104742815Y-73772307D01*
X104690791Y-73768643D01*
X104640969Y-73767465D01*
X104628509Y-73767422D01*
X104414797Y-73767422D01*
X104414797Y-74126947D01*
X104278998Y-74126947D01*
X104278998Y-73642369D01*
X104414797Y-73642369D01*
X104590652Y-73642369D01*
X104641595Y-73641201D01*
X104692257Y-73636263D01*
X104739526Y-73622248D01*
X104762354Y-73610374D01*
X104798984Y-73576130D01*
X104808028Y-73559571D01*
X104820149Y-73511494D01*
X104821461Y-73486054D01*
X104813858Y-73437575D01*
X104809005Y-73426459D01*
X104774233Y-73390054D01*
X104769193Y-73387136D01*
X104720883Y-73369840D01*
X104690791Y-73365398D01*
X104639378Y-73362101D01*
X104589512Y-73361040D01*
X104576974Y-73361002D01*
X104414797Y-73361002D01*
X104414797Y-73642369D01*
X104278998Y-73642369D01*
X104278998Y-73235949D01*
X104581859Y-73235949D01*
X104634371Y-73236468D01*
G37*
G36*
X106536046Y-73235949D02*
G01*
X106163820Y-74252000D01*
X105982592Y-74252000D01*
X105610121Y-73235949D01*
X105755690Y-73235949D01*
X106076625Y-74129878D01*
X106397316Y-73235949D01*
X106536046Y-73235949D01*
G37*
G36*
X106981846Y-73473522D02*
G01*
X107032576Y-73482822D01*
X107085424Y-73501506D01*
X107131445Y-73528629D01*
X107165460Y-73558594D01*
X107198293Y-73600615D01*
X107223062Y-73649742D01*
X107237874Y-73697507D01*
X107246761Y-73750493D01*
X107249724Y-73808699D01*
X107249724Y-73876842D01*
X106684301Y-73876842D01*
X106687290Y-73928454D01*
X106697271Y-73978475D01*
X106705551Y-74002872D01*
X106728960Y-74048832D01*
X106761620Y-74088628D01*
X106763925Y-74090799D01*
X106803126Y-74120292D01*
X106848921Y-74141357D01*
X106897146Y-74153454D01*
X106946126Y-74158062D01*
X106957121Y-74158210D01*
X107006089Y-74155133D01*
X107055295Y-74145903D01*
X107104740Y-74130518D01*
X107114657Y-74126703D01*
X107159809Y-74106977D01*
X107205170Y-74081691D01*
X107227742Y-74064421D01*
X107234581Y-74064421D01*
X107234581Y-74203639D01*
X107185259Y-74222885D01*
X107135113Y-74239589D01*
X107101224Y-74249313D01*
X107049303Y-74260475D01*
X106999959Y-74266182D01*
X106958342Y-74267631D01*
X106900771Y-74265139D01*
X106847278Y-74257661D01*
X106797864Y-74245198D01*
X106743952Y-74223663D01*
X106695912Y-74194949D01*
X106660366Y-74165538D01*
X106623927Y-74124147D01*
X106595027Y-74076729D01*
X106573666Y-74023282D01*
X106561625Y-73974139D01*
X106554818Y-73920810D01*
X106553143Y-73875133D01*
X106555647Y-73818851D01*
X106560768Y-73783053D01*
X106684301Y-73783053D01*
X107123939Y-73783053D01*
X107119585Y-73731988D01*
X107105503Y-73683407D01*
X107078773Y-73639885D01*
X107072648Y-73633088D01*
X107031823Y-73602774D01*
X106983890Y-73586135D01*
X106931941Y-73580051D01*
X106919263Y-73579843D01*
X106870002Y-73583492D01*
X106820897Y-73596318D01*
X106774176Y-73621400D01*
X106753911Y-73638217D01*
X106720771Y-73677444D01*
X106697983Y-73722157D01*
X106685547Y-73772355D01*
X106684301Y-73783053D01*
X106560768Y-73783053D01*
X106563161Y-73766325D01*
X106575683Y-73717557D01*
X106597321Y-73663993D01*
X106626173Y-73615839D01*
X106655725Y-73579843D01*
X106696560Y-73542657D01*
X106741947Y-73513165D01*
X106791884Y-73491366D01*
X106846372Y-73477261D01*
X106895255Y-73471384D01*
X106926102Y-73470422D01*
X106981846Y-73473522D01*
G37*
G36*
X107919682Y-73626738D02*
G01*
X107912843Y-73626738D01*
X107863529Y-73615758D01*
X107856667Y-73614770D01*
X107806162Y-73611235D01*
X107792675Y-73611106D01*
X107741111Y-73616202D01*
X107691135Y-73631489D01*
X107677149Y-73637729D01*
X107632588Y-73661741D01*
X107589398Y-73690913D01*
X107569926Y-73706117D01*
X107569926Y-74252000D01*
X107440722Y-74252000D01*
X107440722Y-73486054D01*
X107569926Y-73486054D01*
X107569926Y-73599138D01*
X107611754Y-73567239D01*
X107654830Y-73538502D01*
X107698082Y-73515046D01*
X107705481Y-73511699D01*
X107753710Y-73495095D01*
X107802745Y-73486956D01*
X107825648Y-73486054D01*
X107874253Y-73487764D01*
X107919682Y-73494358D01*
X107919682Y-73626738D01*
G37*
G36*
X108585976Y-74029983D02*
G01*
X108580542Y-74079778D01*
X108561437Y-74130177D01*
X108532906Y-74169981D01*
X108499026Y-74200953D01*
X108451582Y-74230125D01*
X108403556Y-74248813D01*
X108349454Y-74261119D01*
X108298243Y-74266589D01*
X108261622Y-74267631D01*
X108209730Y-74265723D01*
X108160604Y-74259998D01*
X108109762Y-74249294D01*
X108105306Y-74248092D01*
X108055229Y-74232773D01*
X108008265Y-74215093D01*
X107986116Y-74205105D01*
X107986116Y-74064421D01*
X107992955Y-74064421D01*
X108036689Y-74091896D01*
X108083598Y-74115216D01*
X108128998Y-74132809D01*
X108179798Y-74147271D01*
X108229097Y-74155730D01*
X108272613Y-74158210D01*
X108322263Y-74155587D01*
X108372271Y-74145512D01*
X108405969Y-74131344D01*
X108442056Y-74096539D01*
X108454085Y-74046347D01*
X108442830Y-73996724D01*
X108427951Y-73978203D01*
X108383326Y-73954264D01*
X108332161Y-73939665D01*
X108327567Y-73938636D01*
X108279412Y-73928849D01*
X108255760Y-73924470D01*
X108206018Y-73914178D01*
X108175160Y-73906640D01*
X108128280Y-73891894D01*
X108080028Y-73869082D01*
X108040229Y-73838369D01*
X108031789Y-73828971D01*
X108006041Y-73787022D01*
X107992176Y-73738479D01*
X107989535Y-73702453D01*
X107995718Y-73651397D01*
X108009075Y-73614037D01*
X108035626Y-73572402D01*
X108068670Y-73539787D01*
X108112267Y-73511150D01*
X108159030Y-73491602D01*
X108166367Y-73489229D01*
X108217086Y-73477052D01*
X108267982Y-73471322D01*
X108299479Y-73470422D01*
X108351194Y-73472895D01*
X108403389Y-73480314D01*
X108438454Y-73488008D01*
X108488027Y-73502079D01*
X108534135Y-73519725D01*
X108555690Y-73530262D01*
X108555690Y-73673632D01*
X108548851Y-73673632D01*
X108508677Y-73645709D01*
X108462527Y-73621288D01*
X108428440Y-73606954D01*
X108380200Y-73591519D01*
X108328234Y-73581988D01*
X108289710Y-73579843D01*
X108239678Y-73583587D01*
X108192454Y-73596092D01*
X108170031Y-73606466D01*
X108133577Y-73639561D01*
X108121426Y-73685600D01*
X108132971Y-73735250D01*
X108150980Y-73756431D01*
X108194763Y-73780379D01*
X108244525Y-73795265D01*
X108292438Y-73805436D01*
X108324392Y-73811630D01*
X108374138Y-73821228D01*
X108398398Y-73826528D01*
X108445710Y-73840269D01*
X108490666Y-73861020D01*
X108530861Y-73890513D01*
X108537128Y-73896626D01*
X108566895Y-73938964D01*
X108582112Y-73985860D01*
X108585976Y-74029983D01*
G37*
G36*
X108905202Y-73376633D02*
G01*
X108759633Y-73376633D01*
X108759633Y-73235949D01*
X108905202Y-73235949D01*
X108905202Y-73376633D01*
G37*
G36*
X108897142Y-74252000D02*
G01*
X108767937Y-74252000D01*
X108767937Y-73486054D01*
X108897142Y-73486054D01*
X108897142Y-74252000D01*
G37*
G36*
X109499455Y-73473040D02*
G01*
X109553883Y-73483092D01*
X109603726Y-73500683D01*
X109648983Y-73525814D01*
X109689656Y-73558483D01*
X109708272Y-73577645D01*
X109740976Y-73620567D01*
X109766913Y-73668915D01*
X109786084Y-73722691D01*
X109796892Y-73771649D01*
X109803000Y-73824376D01*
X109804504Y-73869271D01*
X109802154Y-73925077D01*
X109795106Y-73977091D01*
X109783359Y-74025312D01*
X109763060Y-74078172D01*
X109735995Y-74125570D01*
X109708272Y-74160897D01*
X109669893Y-74197170D01*
X109626928Y-74225938D01*
X109579378Y-74247201D01*
X109527242Y-74260960D01*
X109470522Y-74267214D01*
X109450596Y-74267631D01*
X109401391Y-74265025D01*
X109346642Y-74255019D01*
X109296582Y-74237508D01*
X109251210Y-74212492D01*
X109210526Y-74179971D01*
X109191943Y-74160897D01*
X109159405Y-74118049D01*
X109133599Y-74069741D01*
X109114525Y-74015971D01*
X109103773Y-73966991D01*
X109097696Y-73914219D01*
X109096200Y-73869271D01*
X109229556Y-73869271D01*
X109231608Y-73920164D01*
X109239190Y-73973440D01*
X109254696Y-74026285D01*
X109277498Y-74070550D01*
X109287930Y-74084937D01*
X109324398Y-74120357D01*
X109368130Y-74144185D01*
X109419126Y-74156421D01*
X109450596Y-74158210D01*
X109499353Y-74153676D01*
X109547563Y-74137737D01*
X109588740Y-74110322D01*
X109612285Y-74085670D01*
X109640739Y-74039126D01*
X109658214Y-73988347D01*
X109667468Y-73936651D01*
X109670917Y-73886946D01*
X109671147Y-73869271D01*
X109669095Y-73816878D01*
X109661513Y-73762460D01*
X109648345Y-73715264D01*
X109626455Y-73670171D01*
X109612773Y-73651162D01*
X109576344Y-73616687D01*
X109532728Y-73593494D01*
X109481925Y-73581584D01*
X109450596Y-73579843D01*
X109401015Y-73584301D01*
X109352242Y-73599971D01*
X109310889Y-73626925D01*
X109287442Y-73651162D01*
X109259460Y-73697249D01*
X109242275Y-73748238D01*
X109233174Y-73800593D01*
X109229782Y-73851217D01*
X109229556Y-73869271D01*
X109096200Y-73869271D01*
X109098537Y-73813529D01*
X109105549Y-73761556D01*
X109117237Y-73713351D01*
X109137433Y-73660481D01*
X109164360Y-73613036D01*
X109191943Y-73577645D01*
X109230282Y-73541206D01*
X109273310Y-73512306D01*
X109321026Y-73490945D01*
X109373430Y-73477124D01*
X109430523Y-73470841D01*
X109450596Y-73470422D01*
X109499455Y-73473040D01*
G37*
G36*
X110641036Y-74252000D02*
G01*
X110511831Y-74252000D01*
X110511831Y-73821155D01*
X110510244Y-73770536D01*
X110505481Y-73723214D01*
X110493841Y-73673850D01*
X110483010Y-73651651D01*
X110446905Y-73616177D01*
X110433429Y-73609397D01*
X110385592Y-73597432D01*
X110349654Y-73595475D01*
X110299121Y-73601163D01*
X110250021Y-73616738D01*
X110239256Y-73621364D01*
X110193188Y-73644539D01*
X110148652Y-73672390D01*
X110128614Y-73686822D01*
X110128614Y-74252000D01*
X109999410Y-74252000D01*
X109999410Y-73486054D01*
X110128614Y-73486054D01*
X110128614Y-73575935D01*
X110170580Y-73544417D01*
X110213528Y-73518035D01*
X110253422Y-73498510D01*
X110302446Y-73481394D01*
X110352432Y-73472178D01*
X110386290Y-73470422D01*
X110437852Y-73473975D01*
X110489853Y-73486737D01*
X110534465Y-73508780D01*
X110575823Y-73544672D01*
X110604353Y-73585873D01*
X110624732Y-73635225D01*
X110635877Y-73685095D01*
X110640781Y-73741207D01*
X110641036Y-73758385D01*
X110641036Y-74252000D01*
G37*
G36*
X111993652Y-74252000D02*
G01*
X111439954Y-74252000D01*
X111439954Y-74142579D01*
X111652934Y-74142579D01*
X111652934Y-73470422D01*
X111439954Y-73470422D01*
X111439954Y-73376633D01*
X111490521Y-73374392D01*
X111532522Y-73369550D01*
X111580650Y-73359495D01*
X111607505Y-73348789D01*
X111647438Y-73318427D01*
X111657330Y-73306047D01*
X111675587Y-73259268D01*
X111678335Y-73235949D01*
X111784825Y-73235949D01*
X111784825Y-74142579D01*
X111993652Y-74142579D01*
X111993652Y-74252000D01*
G37*
G36*
X112477009Y-74252000D02*
G01*
X112312878Y-74252000D01*
X112312878Y-74048789D01*
X112477009Y-74048789D01*
X112477009Y-74252000D01*
G37*
G36*
X113392675Y-74252000D02*
G01*
X112838977Y-74252000D01*
X112838977Y-74142579D01*
X113051957Y-74142579D01*
X113051957Y-73470422D01*
X112838977Y-73470422D01*
X112838977Y-73376633D01*
X112889544Y-73374392D01*
X112931545Y-73369550D01*
X112979673Y-73359495D01*
X113006528Y-73348789D01*
X113046461Y-73318427D01*
X113056353Y-73306047D01*
X113074610Y-73259268D01*
X113077358Y-73235949D01*
X113183848Y-73235949D01*
X113183848Y-74142579D01*
X113392675Y-74142579D01*
X113392675Y-74252000D01*
G37*
D11*
G36*
X81721265Y-64199529D02*
G01*
X81669075Y-63992840D01*
X81596947Y-63806872D01*
X81480930Y-63633863D01*
X81317574Y-63520328D01*
X81121346Y-63471832D01*
X81034454Y-63467778D01*
X80834694Y-63489759D01*
X80641231Y-63570970D01*
X80571370Y-63624093D01*
X80445847Y-63789257D01*
X80397175Y-63993491D01*
X80396492Y-64023674D01*
X80431086Y-64226541D01*
X80534871Y-64407716D01*
X80577231Y-64455496D01*
X80723502Y-64588028D01*
X80891206Y-64705722D01*
X81014915Y-64775942D01*
X81192120Y-64868790D01*
X81369093Y-64964639D01*
X81529779Y-65054379D01*
X81697979Y-65165561D01*
X81847939Y-65300294D01*
X81968439Y-65443214D01*
X82071340Y-65620503D01*
X82131528Y-65817878D01*
X82149178Y-66014742D01*
X82132629Y-66213975D01*
X82073186Y-66418773D01*
X81970513Y-66599146D01*
X81824608Y-66755095D01*
X81803331Y-66772872D01*
X81641043Y-66882126D01*
X81455941Y-66964545D01*
X81248025Y-67020130D01*
X81051654Y-67046417D01*
X80875208Y-67053263D01*
X80668649Y-67039557D01*
X80457944Y-67002577D01*
X80326150Y-66970220D01*
X80132605Y-66910032D01*
X79952092Y-66832650D01*
X79866973Y-66781665D01*
X79866973Y-65845726D01*
X80068899Y-65819635D01*
X80156157Y-65817394D01*
X80183405Y-66014097D01*
X80221099Y-66221271D01*
X80271962Y-66428618D01*
X80339110Y-66624368D01*
X80355459Y-66662474D01*
X80539538Y-66737008D01*
X80741164Y-66780604D01*
X80939688Y-66793388D01*
X81149647Y-66772031D01*
X81341301Y-66700018D01*
X81459437Y-66612648D01*
X81583417Y-66450653D01*
X81644191Y-66259958D01*
X81650923Y-66162265D01*
X81620933Y-65957368D01*
X81530962Y-65780849D01*
X81469206Y-65708950D01*
X81322340Y-65578570D01*
X81154316Y-65464402D01*
X81030546Y-65397296D01*
X80854454Y-65308248D01*
X80678130Y-65215736D01*
X80517636Y-65128629D01*
X80349877Y-65019577D01*
X80199895Y-64887206D01*
X80078976Y-64746633D01*
X79976074Y-64570457D01*
X79915887Y-64373732D01*
X79898236Y-64177059D01*
X79917532Y-63971773D01*
X79985366Y-63765057D01*
X80102042Y-63583999D01*
X80206959Y-63477547D01*
X80372922Y-63359578D01*
X80562088Y-63275314D01*
X80774458Y-63224756D01*
X80979314Y-63208167D01*
X81010030Y-63207903D01*
X81239717Y-63215975D01*
X81452506Y-63240189D01*
X81648397Y-63280546D01*
X81855578Y-63348033D01*
X82039758Y-63437491D01*
X81957692Y-64199529D01*
X81830686Y-64216138D01*
X81721265Y-64199529D01*
G37*
G36*
X84071251Y-64376693D02*
G01*
X84291128Y-64421232D01*
X84483423Y-64498589D01*
X84648135Y-64608765D01*
X84748899Y-64707554D01*
X84865767Y-64872206D01*
X84953930Y-65066965D01*
X85006652Y-65257864D01*
X85038285Y-65470882D01*
X85048830Y-65706019D01*
X85041507Y-65903598D01*
X85013389Y-66120669D01*
X84964181Y-66315895D01*
X84880119Y-66516050D01*
X84767352Y-66686473D01*
X84748899Y-66708392D01*
X84603889Y-66842770D01*
X84431296Y-66944143D01*
X84231121Y-67012511D01*
X84037589Y-67044843D01*
X83860832Y-67053263D01*
X83650413Y-67041138D01*
X83430537Y-66996345D01*
X83238242Y-66918547D01*
X83073530Y-66807744D01*
X82972765Y-66708392D01*
X82855898Y-66542217D01*
X82767735Y-66346309D01*
X82715013Y-66154724D01*
X82683380Y-65941294D01*
X82672879Y-65706996D01*
X83171090Y-65706996D01*
X83176689Y-65911851D01*
X83197372Y-66122284D01*
X83239672Y-66325113D01*
X83320539Y-66522148D01*
X83330337Y-66538399D01*
X83464177Y-66683573D01*
X83646734Y-66768487D01*
X83854970Y-66793388D01*
X84063779Y-66768487D01*
X84248288Y-66683573D01*
X84385466Y-66538399D01*
X84472535Y-66347641D01*
X84518971Y-66149835D01*
X84542673Y-65943796D01*
X84550413Y-65742708D01*
X84550574Y-65706996D01*
X84544838Y-65501912D01*
X84523647Y-65291559D01*
X84480309Y-65089280D01*
X84397458Y-64893619D01*
X84387420Y-64877547D01*
X84251565Y-64733485D01*
X84066992Y-64649222D01*
X83856924Y-64624512D01*
X83647658Y-64649222D01*
X83464408Y-64733485D01*
X83330337Y-64877547D01*
X83246359Y-65066855D01*
X83201571Y-65264050D01*
X83178711Y-65469955D01*
X83171246Y-65671227D01*
X83171090Y-65706996D01*
X82672879Y-65706996D01*
X82672835Y-65706019D01*
X82680158Y-65508535D01*
X82708276Y-65291831D01*
X82757483Y-65097246D01*
X82841546Y-64898186D01*
X82954313Y-64729233D01*
X82972765Y-64707554D01*
X83117776Y-64573937D01*
X83290369Y-64473138D01*
X83490544Y-64405158D01*
X83684076Y-64373009D01*
X83860832Y-64364637D01*
X84071251Y-64376693D01*
G37*
G36*
X87098515Y-64364637D02*
G01*
X87292271Y-64398000D01*
X87438502Y-64482851D01*
X87559230Y-64644112D01*
X87583093Y-64779850D01*
X87552563Y-64975931D01*
X87504936Y-65066103D01*
X87338567Y-65171657D01*
X87318334Y-65172593D01*
X87129779Y-65125698D01*
X87029151Y-64999669D01*
X87084838Y-64843353D01*
X86974250Y-64681323D01*
X86929499Y-64677268D01*
X86744002Y-64756829D01*
X86615892Y-64902949D01*
X86519446Y-65076010D01*
X86465196Y-65273725D01*
X86457622Y-65384595D01*
X86457622Y-66676152D01*
X86642514Y-66766033D01*
X86843454Y-66821797D01*
X86896282Y-66832467D01*
X86873812Y-67022000D01*
X85567601Y-67022000D01*
X85590072Y-66821720D01*
X85785561Y-66769785D01*
X85959367Y-66676152D01*
X85959367Y-65084665D01*
X85928713Y-64886025D01*
X85872416Y-64803297D01*
X85679795Y-64733122D01*
X85567601Y-64727094D01*
X85584210Y-64560032D01*
X85774462Y-64511746D01*
X85974588Y-64454746D01*
X86169723Y-64397730D01*
X86281767Y-64364637D01*
X86386303Y-64415440D01*
X86445899Y-64811113D01*
X86575302Y-64637145D01*
X86732350Y-64490645D01*
X86920707Y-64392542D01*
X87098515Y-64364637D01*
G37*
G36*
X88622591Y-63146354D02*
G01*
X88622591Y-64772034D01*
X88740813Y-64607279D01*
X88893212Y-64484805D01*
X89071156Y-64398552D01*
X89267589Y-64364755D01*
X89280093Y-64364637D01*
X89482532Y-64377174D01*
X89691449Y-64423489D01*
X89871008Y-64503932D01*
X90040268Y-64637655D01*
X90110518Y-64721232D01*
X90212920Y-64889110D01*
X90290170Y-65081578D01*
X90342269Y-65298636D01*
X90366907Y-65504258D01*
X90373324Y-65689411D01*
X90362298Y-65910809D01*
X90329222Y-66115584D01*
X90274096Y-66303735D01*
X90181913Y-66502234D01*
X90059716Y-66678106D01*
X89910084Y-66824285D01*
X89734739Y-66934561D01*
X89533682Y-67008933D01*
X89340883Y-67044103D01*
X89165787Y-67053263D01*
X88950987Y-67024163D01*
X88767292Y-66948214D01*
X88592717Y-66825125D01*
X88518055Y-66755286D01*
X88429618Y-66935827D01*
X88402772Y-67022000D01*
X88124335Y-67022000D01*
X88124335Y-65867219D01*
X88622591Y-65867219D01*
X88622591Y-66520813D01*
X88795724Y-66652576D01*
X88972685Y-66748403D01*
X89163630Y-66793122D01*
X89178488Y-66793388D01*
X89379530Y-66772351D01*
X89557552Y-66697645D01*
X89699381Y-66556396D01*
X89764670Y-66428001D01*
X89824708Y-66233427D01*
X89852598Y-66085084D01*
X89870767Y-65882885D01*
X89875068Y-65708950D01*
X89875068Y-65509015D01*
X89875068Y-65366033D01*
X89857403Y-65162856D01*
X89840874Y-65079780D01*
X89777084Y-64893786D01*
X89744154Y-64837491D01*
X89597093Y-64691900D01*
X89405527Y-64627840D01*
X89342619Y-64624512D01*
X89138336Y-64644334D01*
X88950112Y-64721699D01*
X88941084Y-64728071D01*
X88805964Y-64873941D01*
X88735920Y-65028001D01*
X88681137Y-65228680D01*
X88647492Y-65430287D01*
X88628014Y-65653754D01*
X88622591Y-65867219D01*
X88124335Y-65867219D01*
X88124335Y-63819487D01*
X88094715Y-63618056D01*
X88040316Y-63534212D01*
X87847365Y-63464036D01*
X87732570Y-63458008D01*
X87749178Y-63285084D01*
X87952098Y-63241716D01*
X88141875Y-63193111D01*
X88343693Y-63137660D01*
X88508285Y-63090667D01*
X88622591Y-63146354D01*
G37*
G36*
X92090839Y-67053263D02*
G01*
X91878348Y-67039035D01*
X91652576Y-66981238D01*
X91471073Y-66878980D01*
X91333839Y-66732263D01*
X91240874Y-66541085D01*
X91192178Y-66305448D01*
X91184210Y-66142725D01*
X91184210Y-65039725D01*
X91158244Y-64845769D01*
X91102144Y-64753472D01*
X90917949Y-64683296D01*
X90809053Y-64677268D01*
X90809053Y-64508252D01*
X91006935Y-64464334D01*
X91196712Y-64414753D01*
X91400734Y-64358046D01*
X91568160Y-64309927D01*
X91682465Y-64366591D01*
X91682465Y-66202321D01*
X91699226Y-66403191D01*
X91773720Y-66606371D01*
X91928761Y-66746634D01*
X92129895Y-66792811D01*
X92159227Y-66793388D01*
X92355736Y-66746265D01*
X92464042Y-66683967D01*
X92614984Y-66545482D01*
X92731832Y-66376622D01*
X92747364Y-66348866D01*
X92747364Y-65038748D01*
X92717055Y-64837316D01*
X92661391Y-64753472D01*
X92470678Y-64683296D01*
X92359506Y-64677268D01*
X92377092Y-64511183D01*
X92574654Y-64466395D01*
X92764675Y-64416081D01*
X92969211Y-64358632D01*
X93137176Y-64309927D01*
X93245619Y-64366591D01*
X93245619Y-66658566D01*
X93415841Y-66754617D01*
X93615234Y-66808045D01*
X93631523Y-66810974D01*
X93614915Y-67022000D01*
X92852877Y-67022000D01*
X92794259Y-66652704D01*
X92660421Y-66808781D01*
X92493725Y-66940214D01*
X92312375Y-67021578D01*
X92116370Y-67052871D01*
X92090839Y-67053263D01*
G37*
G36*
X95463345Y-65205810D02*
G01*
X95435821Y-65008065D01*
X95369346Y-64818843D01*
X95339269Y-64770080D01*
X95182751Y-64652374D01*
X95004168Y-64624512D01*
X94799492Y-64649424D01*
X94648550Y-64724163D01*
X94537473Y-64894011D01*
X94525452Y-64993807D01*
X94580788Y-65183019D01*
X94667113Y-65274198D01*
X94835209Y-65379639D01*
X95011007Y-65452983D01*
X95200386Y-65519673D01*
X95389335Y-65591515D01*
X95414496Y-65601483D01*
X95590780Y-65695908D01*
X95740446Y-65828972D01*
X95758390Y-65849634D01*
X95860772Y-66026061D01*
X95899774Y-66224814D01*
X95901028Y-66271685D01*
X95880471Y-66466113D01*
X95809412Y-66652234D01*
X95687596Y-66806870D01*
X95641153Y-66847122D01*
X95458219Y-66955829D01*
X95258502Y-67019241D01*
X95053079Y-67048230D01*
X94911356Y-67053263D01*
X94703993Y-67036654D01*
X94498108Y-66994873D01*
X94466834Y-66986829D01*
X94270218Y-66924772D01*
X94087769Y-66833444D01*
X94087769Y-66158357D01*
X94392584Y-66120255D01*
X94417210Y-66330800D01*
X94459800Y-66531384D01*
X94532066Y-66725741D01*
X94539130Y-66739655D01*
X94740719Y-66781582D01*
X94946527Y-66793388D01*
X95145737Y-66766555D01*
X95321684Y-66671267D01*
X95439965Y-66507649D01*
X95463345Y-66374267D01*
X95408390Y-66181926D01*
X95322661Y-66092900D01*
X95144917Y-65986391D01*
X94979744Y-65921930D01*
X94789721Y-65858045D01*
X94598839Y-65787291D01*
X94573324Y-65777338D01*
X94395852Y-65680709D01*
X94246286Y-65542865D01*
X94228453Y-65521371D01*
X94132282Y-65343750D01*
X94091203Y-65136285D01*
X94087769Y-65045586D01*
X94116860Y-64851873D01*
X94214954Y-64670569D01*
X94333966Y-64555147D01*
X94509439Y-64454683D01*
X94703257Y-64396079D01*
X94904086Y-64369288D01*
X95043247Y-64364637D01*
X95264164Y-64375201D01*
X95464810Y-64406891D01*
X95666305Y-64467797D01*
X95805284Y-64533653D01*
X95755459Y-65205810D01*
X95463345Y-65205810D01*
G37*
G36*
X82485256Y-70919529D02*
G01*
X82433066Y-70712840D01*
X82360938Y-70526872D01*
X82244921Y-70353863D01*
X82081565Y-70240328D01*
X81885337Y-70191832D01*
X81798445Y-70187778D01*
X81598685Y-70209759D01*
X81405222Y-70290970D01*
X81335361Y-70344093D01*
X81209838Y-70509257D01*
X81161166Y-70713491D01*
X81160483Y-70743674D01*
X81195077Y-70946541D01*
X81298862Y-71127716D01*
X81341222Y-71175496D01*
X81487493Y-71308028D01*
X81655197Y-71425722D01*
X81778906Y-71495942D01*
X81956111Y-71588790D01*
X82133084Y-71684639D01*
X82293770Y-71774379D01*
X82461970Y-71885561D01*
X82611930Y-72020294D01*
X82732430Y-72163214D01*
X82835331Y-72340503D01*
X82895519Y-72537878D01*
X82913169Y-72734742D01*
X82896620Y-72933975D01*
X82837177Y-73138773D01*
X82734504Y-73319146D01*
X82588599Y-73475095D01*
X82567322Y-73492872D01*
X82405034Y-73602126D01*
X82219932Y-73684545D01*
X82012016Y-73740130D01*
X81815645Y-73766417D01*
X81639199Y-73773263D01*
X81432640Y-73759557D01*
X81221935Y-73722577D01*
X81090141Y-73690220D01*
X80896596Y-73630032D01*
X80716083Y-73552650D01*
X80630964Y-73501665D01*
X80630964Y-72565726D01*
X80832890Y-72539635D01*
X80920148Y-72537394D01*
X80947396Y-72734097D01*
X80985090Y-72941271D01*
X81035953Y-73148618D01*
X81103101Y-73344368D01*
X81119450Y-73382474D01*
X81303529Y-73457008D01*
X81505155Y-73500604D01*
X81703679Y-73513388D01*
X81913638Y-73492031D01*
X82105292Y-73420018D01*
X82223428Y-73332648D01*
X82347408Y-73170653D01*
X82408182Y-72979958D01*
X82414914Y-72882265D01*
X82384924Y-72677368D01*
X82294953Y-72500849D01*
X82233197Y-72428950D01*
X82086331Y-72298570D01*
X81918307Y-72184402D01*
X81794537Y-72117296D01*
X81618445Y-72028248D01*
X81442121Y-71935736D01*
X81281627Y-71848629D01*
X81113868Y-71739577D01*
X80963886Y-71607206D01*
X80842967Y-71466633D01*
X80740065Y-71290457D01*
X80679878Y-71093732D01*
X80662227Y-70897059D01*
X80681523Y-70691773D01*
X80749357Y-70485057D01*
X80866033Y-70303999D01*
X80970950Y-70197547D01*
X81136913Y-70079578D01*
X81326079Y-69995314D01*
X81538449Y-69944756D01*
X81743305Y-69928167D01*
X81774021Y-69927903D01*
X82003708Y-69935975D01*
X82216497Y-69960189D01*
X82412388Y-70000546D01*
X82619569Y-70068033D01*
X82803749Y-70157491D01*
X82721683Y-70919529D01*
X82594677Y-70936138D01*
X82485256Y-70919529D01*
G37*
G36*
X84835242Y-71096693D02*
G01*
X85055119Y-71141232D01*
X85247414Y-71218589D01*
X85412126Y-71328765D01*
X85512890Y-71427554D01*
X85629758Y-71592206D01*
X85717921Y-71786965D01*
X85770643Y-71977864D01*
X85802276Y-72190882D01*
X85812821Y-72426019D01*
X85805498Y-72623598D01*
X85777380Y-72840669D01*
X85728172Y-73035895D01*
X85644110Y-73236050D01*
X85531343Y-73406473D01*
X85512890Y-73428392D01*
X85367880Y-73562770D01*
X85195287Y-73664143D01*
X84995112Y-73732511D01*
X84801580Y-73764843D01*
X84624823Y-73773263D01*
X84414404Y-73761138D01*
X84194528Y-73716345D01*
X84002233Y-73638547D01*
X83837521Y-73527744D01*
X83736756Y-73428392D01*
X83619889Y-73262217D01*
X83531726Y-73066309D01*
X83479004Y-72874724D01*
X83447371Y-72661294D01*
X83436870Y-72426996D01*
X83935081Y-72426996D01*
X83940680Y-72631851D01*
X83961363Y-72842284D01*
X84003663Y-73045113D01*
X84084530Y-73242148D01*
X84094328Y-73258399D01*
X84228168Y-73403573D01*
X84410725Y-73488487D01*
X84618961Y-73513388D01*
X84827770Y-73488487D01*
X85012279Y-73403573D01*
X85149457Y-73258399D01*
X85236526Y-73067641D01*
X85282962Y-72869835D01*
X85306664Y-72663796D01*
X85314404Y-72462708D01*
X85314565Y-72426996D01*
X85308829Y-72221912D01*
X85287638Y-72011559D01*
X85244300Y-71809280D01*
X85161449Y-71613619D01*
X85151411Y-71597547D01*
X85015556Y-71453485D01*
X84830983Y-71369222D01*
X84620915Y-71344512D01*
X84411649Y-71369222D01*
X84228399Y-71453485D01*
X84094328Y-71597547D01*
X84010350Y-71786855D01*
X83965562Y-71984050D01*
X83942702Y-72189955D01*
X83935237Y-72391227D01*
X83935081Y-72426996D01*
X83436870Y-72426996D01*
X83436826Y-72426019D01*
X83444149Y-72228535D01*
X83472267Y-72011831D01*
X83521474Y-71817246D01*
X83605537Y-71618186D01*
X83718304Y-71449233D01*
X83736756Y-71427554D01*
X83881767Y-71293937D01*
X84054360Y-71193138D01*
X84254535Y-71125158D01*
X84448067Y-71093009D01*
X84624823Y-71084637D01*
X84835242Y-71096693D01*
G37*
G36*
X87504935Y-73773263D02*
G01*
X87292444Y-73759035D01*
X87066672Y-73701238D01*
X86885169Y-73598980D01*
X86747935Y-73452263D01*
X86654970Y-73261085D01*
X86606274Y-73025448D01*
X86598306Y-72862725D01*
X86598306Y-71759725D01*
X86572339Y-71565769D01*
X86516240Y-71473472D01*
X86332045Y-71403296D01*
X86223148Y-71397268D01*
X86223148Y-71228252D01*
X86421031Y-71184334D01*
X86610808Y-71134753D01*
X86814830Y-71078046D01*
X86982255Y-71029927D01*
X87096561Y-71086591D01*
X87096561Y-72922321D01*
X87113322Y-73123191D01*
X87187816Y-73326371D01*
X87342857Y-73466634D01*
X87543991Y-73512811D01*
X87573323Y-73513388D01*
X87769832Y-73466265D01*
X87878138Y-73403967D01*
X88029080Y-73265482D01*
X88145927Y-73096622D01*
X88161460Y-73068866D01*
X88161460Y-71758748D01*
X88131151Y-71557316D01*
X88075486Y-71473472D01*
X87884774Y-71403296D01*
X87773602Y-71397268D01*
X87791188Y-71231183D01*
X87988750Y-71186395D01*
X88178770Y-71136081D01*
X88383307Y-71078632D01*
X88551271Y-71029927D01*
X88659715Y-71086591D01*
X88659715Y-73378566D01*
X88829936Y-73474617D01*
X89029330Y-73528045D01*
X89045619Y-73530974D01*
X89029010Y-73742000D01*
X88266973Y-73742000D01*
X88208354Y-73372704D01*
X88074517Y-73528781D01*
X87907821Y-73660214D01*
X87726471Y-73741578D01*
X87530466Y-73772871D01*
X87504935Y-73773263D01*
G37*
G36*
X91317077Y-71899431D02*
G01*
X91294918Y-71683208D01*
X91215325Y-71501125D01*
X91056592Y-71379194D01*
X90853993Y-71344512D01*
X90653408Y-71386243D01*
X90504237Y-71476403D01*
X90365219Y-71616580D01*
X90261406Y-71789816D01*
X90250225Y-71815412D01*
X90250225Y-73395175D01*
X90421370Y-73492328D01*
X90612002Y-73548321D01*
X90627336Y-73551490D01*
X90605842Y-73742000D01*
X89360204Y-73742000D01*
X89382674Y-73540743D01*
X89583516Y-73489295D01*
X89751969Y-73395175D01*
X89751969Y-71793919D01*
X89721316Y-71594118D01*
X89665019Y-71510597D01*
X89472792Y-71440421D01*
X89360204Y-71434393D01*
X89376812Y-71273193D01*
X89567551Y-71226410D01*
X89767585Y-71171440D01*
X89962491Y-71116508D01*
X90074370Y-71084637D01*
X90180860Y-71133486D01*
X90232639Y-71473472D01*
X90366949Y-71320987D01*
X90531741Y-71202420D01*
X90556017Y-71189173D01*
X90743335Y-71114140D01*
X90937093Y-71085046D01*
X90963414Y-71084637D01*
X91176157Y-71100789D01*
X91379184Y-71156621D01*
X91561961Y-71264099D01*
X91590629Y-71288824D01*
X91718561Y-71447464D01*
X91793389Y-71643969D01*
X91815333Y-71855468D01*
X91815333Y-73395175D01*
X91987208Y-73489895D01*
X92190449Y-73548025D01*
X92207098Y-73551490D01*
X92184628Y-73742000D01*
X90944851Y-73742000D01*
X90960483Y-73551490D01*
X91152702Y-73496291D01*
X91317077Y-73395175D01*
X91317077Y-71899431D01*
G37*
G36*
X94873253Y-69866354D02*
G01*
X94873253Y-73377589D01*
X95046394Y-73468644D01*
X95243223Y-73522927D01*
X95259157Y-73526089D01*
X95242548Y-73742000D01*
X94420915Y-73742000D01*
X94374998Y-73388336D01*
X94241275Y-73556741D01*
X94076533Y-73677031D01*
X93880772Y-73749205D01*
X93684037Y-73772887D01*
X93653993Y-73773263D01*
X93412650Y-73753174D01*
X93203487Y-73692907D01*
X93026502Y-73592462D01*
X92881697Y-73451839D01*
X92769071Y-73271038D01*
X92688623Y-73050060D01*
X92649405Y-72857959D01*
X92628287Y-72643258D01*
X92624265Y-72487568D01*
X92624529Y-72480729D01*
X93122520Y-72480729D01*
X93129346Y-72701975D01*
X93153862Y-72920939D01*
X93202754Y-73124065D01*
X93265158Y-73266214D01*
X93394576Y-73416836D01*
X93583771Y-73501561D01*
X93706749Y-73513388D01*
X93933849Y-73477393D01*
X94113963Y-73369407D01*
X94247091Y-73189431D01*
X94322138Y-72984457D01*
X94358683Y-72784484D01*
X94374345Y-72552514D01*
X94374998Y-72489522D01*
X94374998Y-71453933D01*
X94190032Y-71383087D01*
X93982816Y-71348359D01*
X93879673Y-71344512D01*
X93671132Y-71373802D01*
X93493693Y-71461672D01*
X93347357Y-71608122D01*
X93321823Y-71644442D01*
X93225480Y-71831459D01*
X93166312Y-72029357D01*
X93134977Y-72226961D01*
X93122715Y-72447379D01*
X93122520Y-72480729D01*
X92624529Y-72480729D01*
X92632232Y-72281236D01*
X92662823Y-72054731D01*
X92716358Y-71851238D01*
X92792836Y-71670758D01*
X92911060Y-71489283D01*
X92950573Y-71443186D01*
X93107405Y-71303478D01*
X93292380Y-71198084D01*
X93505498Y-71127005D01*
X93710570Y-71093391D01*
X93897259Y-71084637D01*
X94092519Y-71102051D01*
X94286166Y-71154292D01*
X94374998Y-71190150D01*
X94374998Y-70554142D01*
X94348723Y-70352939D01*
X94291955Y-70257143D01*
X94103942Y-70184268D01*
X93993002Y-70178008D01*
X93993002Y-70008015D01*
X94192167Y-69964234D01*
X94383409Y-69914897D01*
X94589114Y-69858504D01*
X94757971Y-69810667D01*
X94873253Y-69866354D01*
G37*
D10*
X101741541Y-55954819D02*
X102408207Y-56954819D01*
X102408207Y-55954819D02*
X101741541Y-56954819D01*
X102741541Y-56907200D02*
X102884398Y-56954819D01*
X102884398Y-56954819D02*
X103122493Y-56954819D01*
X103122493Y-56954819D02*
X103217731Y-56907200D01*
X103217731Y-56907200D02*
X103265350Y-56859580D01*
X103265350Y-56859580D02*
X103312969Y-56764342D01*
X103312969Y-56764342D02*
X103312969Y-56669104D01*
X103312969Y-56669104D02*
X103265350Y-56573866D01*
X103265350Y-56573866D02*
X103217731Y-56526247D01*
X103217731Y-56526247D02*
X103122493Y-56478628D01*
X103122493Y-56478628D02*
X102932017Y-56431009D01*
X102932017Y-56431009D02*
X102836779Y-56383390D01*
X102836779Y-56383390D02*
X102789160Y-56335771D01*
X102789160Y-56335771D02*
X102741541Y-56240533D01*
X102741541Y-56240533D02*
X102741541Y-56145295D01*
X102741541Y-56145295D02*
X102789160Y-56050057D01*
X102789160Y-56050057D02*
X102836779Y-56002438D01*
X102836779Y-56002438D02*
X102932017Y-55954819D01*
X102932017Y-55954819D02*
X103170112Y-55954819D01*
X103170112Y-55954819D02*
X103312969Y-56002438D01*
X103741541Y-56954819D02*
X103741541Y-55954819D01*
X103741541Y-55954819D02*
X104074874Y-56669104D01*
X104074874Y-56669104D02*
X104408207Y-55954819D01*
X104408207Y-55954819D02*
X104408207Y-56954819D01*
X104741541Y-55954819D02*
X105312969Y-55954819D01*
X105027255Y-56954819D02*
X105027255Y-55954819D01*
X38277969Y-36207819D02*
X37801779Y-36207819D01*
X37801779Y-36207819D02*
X37754160Y-36684009D01*
X37754160Y-36684009D02*
X37801779Y-36636390D01*
X37801779Y-36636390D02*
X37897017Y-36588771D01*
X37897017Y-36588771D02*
X38135112Y-36588771D01*
X38135112Y-36588771D02*
X38230350Y-36636390D01*
X38230350Y-36636390D02*
X38277969Y-36684009D01*
X38277969Y-36684009D02*
X38325588Y-36779247D01*
X38325588Y-36779247D02*
X38325588Y-37017342D01*
X38325588Y-37017342D02*
X38277969Y-37112580D01*
X38277969Y-37112580D02*
X38230350Y-37160200D01*
X38230350Y-37160200D02*
X38135112Y-37207819D01*
X38135112Y-37207819D02*
X37897017Y-37207819D01*
X37897017Y-37207819D02*
X37801779Y-37160200D01*
X37801779Y-37160200D02*
X37754160Y-37112580D01*
X38611303Y-36207819D02*
X38944636Y-37207819D01*
X38944636Y-37207819D02*
X39277969Y-36207819D01*
X41801780Y-36207819D02*
X42420827Y-36207819D01*
X42420827Y-36207819D02*
X42087494Y-36588771D01*
X42087494Y-36588771D02*
X42230351Y-36588771D01*
X42230351Y-36588771D02*
X42325589Y-36636390D01*
X42325589Y-36636390D02*
X42373208Y-36684009D01*
X42373208Y-36684009D02*
X42420827Y-36779247D01*
X42420827Y-36779247D02*
X42420827Y-37017342D01*
X42420827Y-37017342D02*
X42373208Y-37112580D01*
X42373208Y-37112580D02*
X42325589Y-37160200D01*
X42325589Y-37160200D02*
X42230351Y-37207819D01*
X42230351Y-37207819D02*
X41944637Y-37207819D01*
X41944637Y-37207819D02*
X41849399Y-37160200D01*
X41849399Y-37160200D02*
X41801780Y-37112580D01*
X42849399Y-37112580D02*
X42897018Y-37160200D01*
X42897018Y-37160200D02*
X42849399Y-37207819D01*
X42849399Y-37207819D02*
X42801780Y-37160200D01*
X42801780Y-37160200D02*
X42849399Y-37112580D01*
X42849399Y-37112580D02*
X42849399Y-37207819D01*
X43230351Y-36207819D02*
X43849398Y-36207819D01*
X43849398Y-36207819D02*
X43516065Y-36588771D01*
X43516065Y-36588771D02*
X43658922Y-36588771D01*
X43658922Y-36588771D02*
X43754160Y-36636390D01*
X43754160Y-36636390D02*
X43801779Y-36684009D01*
X43801779Y-36684009D02*
X43849398Y-36779247D01*
X43849398Y-36779247D02*
X43849398Y-37017342D01*
X43849398Y-37017342D02*
X43801779Y-37112580D01*
X43801779Y-37112580D02*
X43754160Y-37160200D01*
X43754160Y-37160200D02*
X43658922Y-37207819D01*
X43658922Y-37207819D02*
X43373208Y-37207819D01*
X43373208Y-37207819D02*
X43277970Y-37160200D01*
X43277970Y-37160200D02*
X43230351Y-37112580D01*
X44135113Y-36207819D02*
X44468446Y-37207819D01*
X44468446Y-37207819D02*
X44801779Y-36207819D01*
G36*
X32264632Y-32342000D02*
G01*
X32135427Y-32342000D01*
X32135427Y-31911155D01*
X32133840Y-31860536D01*
X32129077Y-31813214D01*
X32117437Y-31763850D01*
X32106607Y-31741651D01*
X32070501Y-31706177D01*
X32057025Y-31699397D01*
X32009188Y-31687432D01*
X31973250Y-31685475D01*
X31922718Y-31691163D01*
X31873617Y-31706738D01*
X31862852Y-31711364D01*
X31816785Y-31734539D01*
X31772249Y-31762390D01*
X31752210Y-31776822D01*
X31752210Y-32342000D01*
X31623006Y-32342000D01*
X31623006Y-31279055D01*
X31752210Y-31279055D01*
X31752210Y-31665935D01*
X31794176Y-31634417D01*
X31837124Y-31608035D01*
X31877018Y-31588510D01*
X31926042Y-31571394D01*
X31976028Y-31562178D01*
X32009886Y-31560422D01*
X32061448Y-31563975D01*
X32113449Y-31576737D01*
X32158061Y-31598780D01*
X32199419Y-31634672D01*
X32227950Y-31675873D01*
X32248329Y-31725225D01*
X32259473Y-31775095D01*
X32264377Y-31831207D01*
X32264632Y-31848385D01*
X32264632Y-32342000D01*
G37*
G36*
X32906746Y-32335161D02*
G01*
X32858680Y-32346037D01*
X32827367Y-32351281D01*
X32777355Y-32356738D01*
X32750919Y-32357631D01*
X32695690Y-32353693D01*
X32647482Y-32341877D01*
X32601643Y-32319170D01*
X32572133Y-32294616D01*
X32542617Y-32253143D01*
X32524489Y-32206157D01*
X32514889Y-32157230D01*
X32511132Y-32101010D01*
X32511073Y-32092383D01*
X32511073Y-31685475D01*
X32423634Y-31685475D01*
X32423634Y-31576054D01*
X32511073Y-31576054D01*
X32511073Y-31357212D01*
X32640033Y-31357212D01*
X32640033Y-31576054D01*
X32906746Y-31576054D01*
X32906746Y-31685475D01*
X32640033Y-31685475D01*
X32640033Y-32036452D01*
X32640623Y-32087617D01*
X32642720Y-32131462D01*
X32654672Y-32180051D01*
X32662015Y-32195210D01*
X32695567Y-32231177D01*
X32703536Y-32235510D01*
X32753187Y-32246970D01*
X32784381Y-32248210D01*
X32833290Y-32241616D01*
X32850326Y-32236487D01*
X32896898Y-32218447D01*
X32899907Y-32216947D01*
X32906746Y-32216947D01*
X32906746Y-32335161D01*
G37*
G36*
X33457758Y-32335161D02*
G01*
X33409692Y-32346037D01*
X33378379Y-32351281D01*
X33328367Y-32356738D01*
X33301931Y-32357631D01*
X33246702Y-32353693D01*
X33198494Y-32341877D01*
X33152654Y-32319170D01*
X33123145Y-32294616D01*
X33093629Y-32253143D01*
X33075501Y-32206157D01*
X33065901Y-32157230D01*
X33062144Y-32101010D01*
X33062085Y-32092383D01*
X33062085Y-31685475D01*
X32974646Y-31685475D01*
X32974646Y-31576054D01*
X33062085Y-31576054D01*
X33062085Y-31357212D01*
X33191045Y-31357212D01*
X33191045Y-31576054D01*
X33457758Y-31576054D01*
X33457758Y-31685475D01*
X33191045Y-31685475D01*
X33191045Y-32036452D01*
X33191635Y-32087617D01*
X33193732Y-32131462D01*
X33205684Y-32180051D01*
X33213027Y-32195210D01*
X33246579Y-32231177D01*
X33254548Y-32235510D01*
X33304199Y-32246970D01*
X33335392Y-32248210D01*
X33384302Y-32241616D01*
X33401338Y-32236487D01*
X33447910Y-32218447D01*
X33450919Y-32216947D01*
X33457758Y-32216947D01*
X33457758Y-32335161D01*
G37*
G36*
X34042021Y-31564080D02*
G01*
X34094721Y-31577594D01*
X34141531Y-31601066D01*
X34182450Y-31634495D01*
X34208072Y-31664470D01*
X34234384Y-31706238D01*
X34255253Y-31753691D01*
X34270677Y-31806828D01*
X34279373Y-31855451D01*
X34284287Y-31908022D01*
X34285497Y-31952921D01*
X34283372Y-32003734D01*
X34276025Y-32057248D01*
X34263432Y-32107662D01*
X34258630Y-32122181D01*
X34239821Y-32167824D01*
X34214116Y-32212742D01*
X34183159Y-32252118D01*
X34146821Y-32286659D01*
X34105948Y-32314812D01*
X34076181Y-32330032D01*
X34029172Y-32346850D01*
X33980102Y-32355906D01*
X33946244Y-32357631D01*
X33896035Y-32355153D01*
X33847012Y-32347000D01*
X33837800Y-32344686D01*
X33789012Y-32328139D01*
X33742498Y-32306082D01*
X33739370Y-32304386D01*
X33739370Y-32623367D01*
X33610166Y-32623367D01*
X33610166Y-31772425D01*
X33739370Y-31772425D01*
X33739370Y-32205712D01*
X33787455Y-32225404D01*
X33833648Y-32239418D01*
X33884423Y-32246759D01*
X33923529Y-32248210D01*
X33974423Y-32243676D01*
X34024599Y-32227737D01*
X34067279Y-32200322D01*
X34091568Y-32175670D01*
X34120849Y-32129341D01*
X34138831Y-32078882D01*
X34148355Y-32027567D01*
X34151904Y-31978263D01*
X34152140Y-31960736D01*
X34150475Y-31911352D01*
X34144320Y-31859944D01*
X34131734Y-31809378D01*
X34110495Y-31762928D01*
X34104757Y-31754107D01*
X34070182Y-31717914D01*
X34025684Y-31695126D01*
X33977152Y-31686078D01*
X33959189Y-31685475D01*
X33910322Y-31690056D01*
X33861175Y-31703801D01*
X33847081Y-31709411D01*
X33802204Y-31731358D01*
X33758859Y-31758303D01*
X33739370Y-31772425D01*
X33610166Y-31772425D01*
X33610166Y-31576054D01*
X33739370Y-31576054D01*
X33739370Y-31661295D01*
X33779808Y-31631047D01*
X33823817Y-31604783D01*
X33855141Y-31589487D01*
X33904520Y-31571776D01*
X33956303Y-31562239D01*
X33992161Y-31560422D01*
X34042021Y-31564080D01*
G37*
G36*
X35029949Y-32119983D02*
G01*
X35024515Y-32169778D01*
X35005410Y-32220177D01*
X34976879Y-32259981D01*
X34942999Y-32290953D01*
X34895555Y-32320125D01*
X34847529Y-32338813D01*
X34793427Y-32351119D01*
X34742216Y-32356589D01*
X34705595Y-32357631D01*
X34653703Y-32355723D01*
X34604577Y-32349998D01*
X34553735Y-32339294D01*
X34549279Y-32338092D01*
X34499202Y-32322773D01*
X34452238Y-32305093D01*
X34430089Y-32295105D01*
X34430089Y-32154421D01*
X34436928Y-32154421D01*
X34480662Y-32181896D01*
X34527571Y-32205216D01*
X34572971Y-32222809D01*
X34623771Y-32237271D01*
X34673070Y-32245730D01*
X34716586Y-32248210D01*
X34766236Y-32245587D01*
X34816244Y-32235512D01*
X34849942Y-32221344D01*
X34886029Y-32186539D01*
X34898058Y-32136347D01*
X34886803Y-32086724D01*
X34871924Y-32068203D01*
X34827299Y-32044264D01*
X34776134Y-32029665D01*
X34771540Y-32028636D01*
X34723385Y-32018849D01*
X34699733Y-32014470D01*
X34649991Y-32004178D01*
X34619133Y-31996640D01*
X34572253Y-31981894D01*
X34524001Y-31959082D01*
X34484202Y-31928369D01*
X34475762Y-31918971D01*
X34450014Y-31877022D01*
X34436149Y-31828479D01*
X34433508Y-31792453D01*
X34439691Y-31741397D01*
X34453048Y-31704037D01*
X34479599Y-31662402D01*
X34512643Y-31629787D01*
X34556240Y-31601150D01*
X34603003Y-31581602D01*
X34610340Y-31579229D01*
X34661059Y-31567052D01*
X34711955Y-31561322D01*
X34743452Y-31560422D01*
X34795167Y-31562895D01*
X34847362Y-31570314D01*
X34882427Y-31578008D01*
X34932000Y-31592079D01*
X34978108Y-31609725D01*
X34999663Y-31620262D01*
X34999663Y-31763632D01*
X34992824Y-31763632D01*
X34952650Y-31735709D01*
X34906500Y-31711288D01*
X34872413Y-31696954D01*
X34824173Y-31681519D01*
X34772207Y-31671988D01*
X34733683Y-31669843D01*
X34683651Y-31673587D01*
X34636427Y-31686092D01*
X34614004Y-31696466D01*
X34577550Y-31729561D01*
X34565399Y-31775600D01*
X34576944Y-31825250D01*
X34594953Y-31846431D01*
X34638736Y-31870379D01*
X34688498Y-31885265D01*
X34736411Y-31895436D01*
X34768365Y-31901630D01*
X34818111Y-31911228D01*
X34842371Y-31916528D01*
X34889683Y-31930269D01*
X34934639Y-31951020D01*
X34974834Y-31980513D01*
X34981101Y-31986626D01*
X35010868Y-32028964D01*
X35026085Y-32075860D01*
X35029949Y-32119983D01*
G37*
G36*
X35485218Y-31779264D02*
G01*
X35321087Y-31779264D01*
X35321087Y-31576054D01*
X35485218Y-31576054D01*
X35485218Y-31779264D01*
G37*
G36*
X35485218Y-32342000D02*
G01*
X35321087Y-32342000D01*
X35321087Y-32138789D01*
X35485218Y-32138789D01*
X35485218Y-32342000D01*
G37*
G36*
X36309293Y-31279055D02*
G01*
X35816900Y-32545210D01*
X35697953Y-32545210D01*
X36188393Y-31279055D01*
X36309293Y-31279055D01*
G37*
G36*
X36944325Y-31279055D02*
G01*
X36451931Y-32545210D01*
X36332985Y-32545210D01*
X36823424Y-31279055D01*
X36944325Y-31279055D01*
G37*
G36*
X37779879Y-32342000D02*
G01*
X37616969Y-32342000D01*
X37399349Y-32047931D01*
X37180263Y-32342000D01*
X37029810Y-32342000D01*
X37329251Y-31960004D01*
X37032496Y-31576054D01*
X37195406Y-31576054D01*
X37411806Y-31865482D01*
X37628693Y-31576054D01*
X37779879Y-31576054D01*
X37478240Y-31953165D01*
X37779879Y-32342000D01*
G37*
G36*
X38259838Y-31562010D02*
G01*
X38312285Y-31567362D01*
X38347744Y-31573856D01*
X38397232Y-31589043D01*
X38443407Y-31613407D01*
X38451792Y-31619285D01*
X38487813Y-31652726D01*
X38514818Y-31694433D01*
X38517737Y-31700618D01*
X38533265Y-31748797D01*
X38539653Y-31797386D01*
X38540452Y-31824205D01*
X38540452Y-32342000D01*
X38411980Y-32342000D01*
X38411980Y-32257003D01*
X38370962Y-32285231D01*
X38365574Y-32288999D01*
X38322801Y-32314873D01*
X38308909Y-32321483D01*
X38262387Y-32339470D01*
X38234660Y-32347129D01*
X38186148Y-32355323D01*
X38136474Y-32357631D01*
X38086648Y-32353448D01*
X38035266Y-32338744D01*
X37988829Y-32313452D01*
X37960619Y-32290709D01*
X37925790Y-32250010D01*
X37902359Y-32203477D01*
X37890327Y-32151109D01*
X37888568Y-32119494D01*
X37889280Y-32109725D01*
X38021680Y-32109725D01*
X38030428Y-32160368D01*
X38061491Y-32201804D01*
X38108045Y-32223893D01*
X38158581Y-32231827D01*
X38183124Y-32232579D01*
X38232549Y-32229144D01*
X38282294Y-32217671D01*
X38307444Y-32208154D01*
X38351915Y-32186539D01*
X38396741Y-32159745D01*
X38411980Y-32149292D01*
X38411980Y-31951211D01*
X38360489Y-31954315D01*
X38311505Y-31957760D01*
X38272762Y-31960736D01*
X38221749Y-31965795D01*
X38171508Y-31973559D01*
X38146000Y-31979299D01*
X38098462Y-31996580D01*
X38055874Y-32024728D01*
X38028225Y-32066768D01*
X38021680Y-32109725D01*
X37889280Y-32109725D01*
X37892217Y-32069415D01*
X37904661Y-32021711D01*
X37925937Y-31981741D01*
X37958612Y-31945334D01*
X38000217Y-31915246D01*
X38032915Y-31898699D01*
X38079340Y-31881807D01*
X38131299Y-31868684D01*
X38182793Y-31860095D01*
X38200954Y-31857910D01*
X38251054Y-31852873D01*
X38302926Y-31848507D01*
X38356567Y-31844813D01*
X38411980Y-31841790D01*
X38411980Y-31821030D01*
X38406469Y-31772099D01*
X38396348Y-31745070D01*
X38364107Y-31705881D01*
X38352140Y-31697687D01*
X38304788Y-31679185D01*
X38286195Y-31675705D01*
X38236831Y-31670668D01*
X38205839Y-31669843D01*
X38155636Y-31673385D01*
X38104131Y-31683082D01*
X38092510Y-31685963D01*
X38045032Y-31699931D01*
X37996385Y-31718020D01*
X37963306Y-31732369D01*
X37956467Y-31732369D01*
X37956467Y-31596570D01*
X38006134Y-31584791D01*
X38056859Y-31574946D01*
X38065644Y-31573367D01*
X38114584Y-31565997D01*
X38167380Y-31561446D01*
X38206572Y-31560422D01*
X38259838Y-31562010D01*
G37*
G36*
X39437067Y-31576054D02*
G01*
X38989126Y-32623367D01*
X38851129Y-32623367D01*
X38994011Y-32304142D01*
X38688463Y-31576054D01*
X38828658Y-31576054D01*
X39064108Y-32144896D01*
X39301757Y-31576054D01*
X39437067Y-31576054D01*
G37*
G36*
X39890403Y-31562010D02*
G01*
X39942851Y-31567362D01*
X39978309Y-31573856D01*
X40027797Y-31589043D01*
X40073972Y-31613407D01*
X40082357Y-31619285D01*
X40118378Y-31652726D01*
X40145383Y-31694433D01*
X40148302Y-31700618D01*
X40163830Y-31748797D01*
X40170218Y-31797386D01*
X40171017Y-31824205D01*
X40171017Y-32342000D01*
X40042545Y-32342000D01*
X40042545Y-32257003D01*
X40001527Y-32285231D01*
X39996139Y-32288999D01*
X39953366Y-32314873D01*
X39939475Y-32321483D01*
X39892952Y-32339470D01*
X39865225Y-32347129D01*
X39816713Y-32355323D01*
X39767039Y-32357631D01*
X39717214Y-32353448D01*
X39665831Y-32338744D01*
X39619394Y-32313452D01*
X39591184Y-32290709D01*
X39556355Y-32250010D01*
X39532924Y-32203477D01*
X39520892Y-32151109D01*
X39519133Y-32119494D01*
X39519845Y-32109725D01*
X39652245Y-32109725D01*
X39660993Y-32160368D01*
X39692057Y-32201804D01*
X39738611Y-32223893D01*
X39789146Y-32231827D01*
X39813690Y-32232579D01*
X39863114Y-32229144D01*
X39912860Y-32217671D01*
X39938009Y-32208154D01*
X39982480Y-32186539D01*
X40027306Y-32159745D01*
X40042545Y-32149292D01*
X40042545Y-31951211D01*
X39991054Y-31954315D01*
X39942070Y-31957760D01*
X39903327Y-31960736D01*
X39852314Y-31965795D01*
X39802073Y-31973559D01*
X39776565Y-31979299D01*
X39729027Y-31996580D01*
X39686439Y-32024728D01*
X39658790Y-32066768D01*
X39652245Y-32109725D01*
X39519845Y-32109725D01*
X39522782Y-32069415D01*
X39535226Y-32021711D01*
X39556502Y-31981741D01*
X39589177Y-31945334D01*
X39630782Y-31915246D01*
X39663480Y-31898699D01*
X39709906Y-31881807D01*
X39761864Y-31868684D01*
X39813359Y-31860095D01*
X39831519Y-31857910D01*
X39881620Y-31852873D01*
X39933491Y-31848507D01*
X39987133Y-31844813D01*
X40042545Y-31841790D01*
X40042545Y-31821030D01*
X40037034Y-31772099D01*
X40026914Y-31745070D01*
X39994672Y-31705881D01*
X39982706Y-31697687D01*
X39935353Y-31679185D01*
X39916760Y-31675705D01*
X39867396Y-31670668D01*
X39836404Y-31669843D01*
X39786201Y-31673385D01*
X39734696Y-31683082D01*
X39723076Y-31685963D01*
X39675597Y-31699931D01*
X39626951Y-31718020D01*
X39593871Y-31732369D01*
X39587032Y-31732369D01*
X39587032Y-31596570D01*
X39636700Y-31584791D01*
X39687425Y-31574946D01*
X39696209Y-31573367D01*
X39745149Y-31565997D01*
X39797945Y-31561446D01*
X39837137Y-31560422D01*
X39890403Y-31562010D01*
G37*
G36*
X41079112Y-32342000D02*
G01*
X40916202Y-32342000D01*
X40698581Y-32047931D01*
X40479496Y-32342000D01*
X40329042Y-32342000D01*
X40628484Y-31960004D01*
X40331729Y-31576054D01*
X40494639Y-31576054D01*
X40711038Y-31865482D01*
X40927926Y-31576054D01*
X41079112Y-31576054D01*
X40777472Y-31953165D01*
X41079112Y-32342000D01*
G37*
G36*
X41454269Y-32342000D02*
G01*
X41290138Y-32342000D01*
X41290138Y-32138789D01*
X41454269Y-32138789D01*
X41454269Y-32342000D01*
G37*
G36*
X42393871Y-32342000D02*
G01*
X42264667Y-32342000D01*
X42264667Y-31911155D01*
X42263079Y-31860536D01*
X42258316Y-31813214D01*
X42246677Y-31763850D01*
X42235846Y-31741651D01*
X42199740Y-31706177D01*
X42186265Y-31699397D01*
X42138427Y-31687432D01*
X42102489Y-31685475D01*
X42051957Y-31691163D01*
X42002856Y-31706738D01*
X41992092Y-31711364D01*
X41946024Y-31734539D01*
X41901488Y-31762390D01*
X41881450Y-31776822D01*
X41881450Y-32342000D01*
X41752245Y-32342000D01*
X41752245Y-31576054D01*
X41881450Y-31576054D01*
X41881450Y-31665935D01*
X41923416Y-31634417D01*
X41966363Y-31608035D01*
X42006258Y-31588510D01*
X42055282Y-31571394D01*
X42105268Y-31562178D01*
X42139126Y-31560422D01*
X42190687Y-31563975D01*
X42242688Y-31576737D01*
X42287301Y-31598780D01*
X42328658Y-31634672D01*
X42357189Y-31675873D01*
X42377568Y-31725225D01*
X42388713Y-31775095D01*
X42393616Y-31831207D01*
X42393871Y-31848385D01*
X42393871Y-32342000D01*
G37*
G36*
X43011863Y-31563522D02*
G01*
X43062593Y-31572822D01*
X43115440Y-31591506D01*
X43161461Y-31618629D01*
X43195476Y-31648594D01*
X43228309Y-31690615D01*
X43253078Y-31739742D01*
X43267890Y-31787507D01*
X43276778Y-31840493D01*
X43279740Y-31898699D01*
X43279740Y-31966842D01*
X42714318Y-31966842D01*
X42717306Y-32018454D01*
X42727287Y-32068475D01*
X42735567Y-32092872D01*
X42758976Y-32138832D01*
X42791636Y-32178628D01*
X42793941Y-32180799D01*
X42833142Y-32210292D01*
X42878937Y-32231357D01*
X42927162Y-32243454D01*
X42976142Y-32248062D01*
X42987137Y-32248210D01*
X43036105Y-32245133D01*
X43085311Y-32235903D01*
X43134756Y-32220518D01*
X43144674Y-32216703D01*
X43189825Y-32196977D01*
X43235186Y-32171691D01*
X43257758Y-32154421D01*
X43264597Y-32154421D01*
X43264597Y-32293639D01*
X43215275Y-32312885D01*
X43165129Y-32329589D01*
X43131240Y-32339313D01*
X43079320Y-32350475D01*
X43029976Y-32356182D01*
X42988358Y-32357631D01*
X42930787Y-32355139D01*
X42877294Y-32347661D01*
X42827881Y-32335198D01*
X42773968Y-32313663D01*
X42725928Y-32284949D01*
X42690382Y-32255538D01*
X42653943Y-32214147D01*
X42625043Y-32166729D01*
X42603682Y-32113282D01*
X42591641Y-32064139D01*
X42584835Y-32010810D01*
X42583159Y-31965133D01*
X42585664Y-31908851D01*
X42590784Y-31873053D01*
X42714318Y-31873053D01*
X43153955Y-31873053D01*
X43149601Y-31821988D01*
X43135519Y-31773407D01*
X43108789Y-31729885D01*
X43102664Y-31723088D01*
X43061839Y-31692774D01*
X43013906Y-31676135D01*
X42961957Y-31670051D01*
X42949279Y-31669843D01*
X42900019Y-31673492D01*
X42850914Y-31686318D01*
X42804193Y-31711400D01*
X42783927Y-31728217D01*
X42750787Y-31767444D01*
X42727999Y-31812157D01*
X42715563Y-31862355D01*
X42714318Y-31873053D01*
X42590784Y-31873053D01*
X42593177Y-31856325D01*
X42605699Y-31807557D01*
X42627338Y-31753993D01*
X42656189Y-31705839D01*
X42685741Y-31669843D01*
X42726577Y-31632657D01*
X42771963Y-31603165D01*
X42821900Y-31581366D01*
X42876388Y-31567261D01*
X42925271Y-31561384D01*
X42956118Y-31560422D01*
X43011863Y-31563522D01*
G37*
G36*
X43869342Y-32335161D02*
G01*
X43821276Y-32346037D01*
X43789963Y-32351281D01*
X43739951Y-32356738D01*
X43713515Y-32357631D01*
X43658286Y-32353693D01*
X43610078Y-32341877D01*
X43564238Y-32319170D01*
X43534729Y-32294616D01*
X43505213Y-32253143D01*
X43487085Y-32206157D01*
X43477485Y-32157230D01*
X43473728Y-32101010D01*
X43473669Y-32092383D01*
X43473669Y-31685475D01*
X43386230Y-31685475D01*
X43386230Y-31576054D01*
X43473669Y-31576054D01*
X43473669Y-31357212D01*
X43602629Y-31357212D01*
X43602629Y-31576054D01*
X43869342Y-31576054D01*
X43869342Y-31685475D01*
X43602629Y-31685475D01*
X43602629Y-32036452D01*
X43603219Y-32087617D01*
X43605316Y-32131462D01*
X43617268Y-32180051D01*
X43624611Y-32195210D01*
X43658163Y-32231177D01*
X43666132Y-32235510D01*
X43715783Y-32246970D01*
X43746976Y-32248210D01*
X43795886Y-32241616D01*
X43812922Y-32236487D01*
X43859494Y-32218447D01*
X43862503Y-32216947D01*
X43869342Y-32216947D01*
X43869342Y-32335161D01*
G37*
G36*
X44485567Y-31279055D02*
G01*
X43993173Y-32545210D01*
X43874227Y-32545210D01*
X44364667Y-31279055D01*
X44485567Y-31279055D01*
G37*
G36*
X45205106Y-32119983D02*
G01*
X45199672Y-32169778D01*
X45180567Y-32220177D01*
X45152036Y-32259981D01*
X45118156Y-32290953D01*
X45070712Y-32320125D01*
X45022686Y-32338813D01*
X44968584Y-32351119D01*
X44917373Y-32356589D01*
X44880752Y-32357631D01*
X44828860Y-32355723D01*
X44779734Y-32349998D01*
X44728892Y-32339294D01*
X44724436Y-32338092D01*
X44674359Y-32322773D01*
X44627395Y-32305093D01*
X44605246Y-32295105D01*
X44605246Y-32154421D01*
X44612085Y-32154421D01*
X44655819Y-32181896D01*
X44702728Y-32205216D01*
X44748128Y-32222809D01*
X44798928Y-32237271D01*
X44848227Y-32245730D01*
X44891743Y-32248210D01*
X44941393Y-32245587D01*
X44991401Y-32235512D01*
X45025099Y-32221344D01*
X45061186Y-32186539D01*
X45073215Y-32136347D01*
X45061960Y-32086724D01*
X45047081Y-32068203D01*
X45002456Y-32044264D01*
X44951291Y-32029665D01*
X44946697Y-32028636D01*
X44898542Y-32018849D01*
X44874890Y-32014470D01*
X44825148Y-32004178D01*
X44794290Y-31996640D01*
X44747410Y-31981894D01*
X44699158Y-31959082D01*
X44659359Y-31928369D01*
X44650919Y-31918971D01*
X44625171Y-31877022D01*
X44611306Y-31828479D01*
X44608665Y-31792453D01*
X44614848Y-31741397D01*
X44628205Y-31704037D01*
X44654756Y-31662402D01*
X44687800Y-31629787D01*
X44731397Y-31601150D01*
X44778160Y-31581602D01*
X44785497Y-31579229D01*
X44836216Y-31567052D01*
X44887112Y-31561322D01*
X44918609Y-31560422D01*
X44970324Y-31562895D01*
X45022519Y-31570314D01*
X45057584Y-31578008D01*
X45107157Y-31592079D01*
X45153265Y-31609725D01*
X45174820Y-31620262D01*
X45174820Y-31763632D01*
X45167981Y-31763632D01*
X45127807Y-31735709D01*
X45081657Y-31711288D01*
X45047570Y-31696954D01*
X44999330Y-31681519D01*
X44947364Y-31671988D01*
X44908840Y-31669843D01*
X44858808Y-31673587D01*
X44811584Y-31686092D01*
X44789161Y-31696466D01*
X44752707Y-31729561D01*
X44740556Y-31775600D01*
X44752101Y-31825250D01*
X44770110Y-31846431D01*
X44813893Y-31870379D01*
X44863655Y-31885265D01*
X44911568Y-31895436D01*
X44943522Y-31901630D01*
X44993268Y-31911228D01*
X45017528Y-31916528D01*
X45064840Y-31930269D01*
X45109796Y-31951020D01*
X45149991Y-31980513D01*
X45156258Y-31986626D01*
X45186025Y-32028964D01*
X45201242Y-32075860D01*
X45205106Y-32119983D01*
G37*
G36*
X45734635Y-31563040D02*
G01*
X45789063Y-31573092D01*
X45838906Y-31590683D01*
X45884164Y-31615814D01*
X45924836Y-31648483D01*
X45943452Y-31667645D01*
X45976156Y-31710567D01*
X46002094Y-31758915D01*
X46021265Y-31812691D01*
X46032072Y-31861649D01*
X46038180Y-31914376D01*
X46039684Y-31959271D01*
X46037335Y-32015077D01*
X46030286Y-32067091D01*
X46018539Y-32115312D01*
X45998241Y-32168172D01*
X45971175Y-32215570D01*
X45943452Y-32250897D01*
X45905073Y-32287170D01*
X45862108Y-32315938D01*
X45814558Y-32337201D01*
X45762423Y-32350960D01*
X45705702Y-32357214D01*
X45685776Y-32357631D01*
X45636571Y-32355025D01*
X45581822Y-32345019D01*
X45531762Y-32327508D01*
X45486390Y-32302492D01*
X45445707Y-32269971D01*
X45427123Y-32250897D01*
X45394585Y-32208049D01*
X45368780Y-32159741D01*
X45349706Y-32105971D01*
X45338953Y-32056991D01*
X45332876Y-32004219D01*
X45331380Y-31959271D01*
X45464736Y-31959271D01*
X45466789Y-32010164D01*
X45474370Y-32063440D01*
X45489876Y-32116285D01*
X45512678Y-32160550D01*
X45523110Y-32174937D01*
X45559578Y-32210357D01*
X45603310Y-32234185D01*
X45654306Y-32246421D01*
X45685776Y-32248210D01*
X45734533Y-32243676D01*
X45782743Y-32227737D01*
X45823920Y-32200322D01*
X45847465Y-32175670D01*
X45875919Y-32129126D01*
X45893394Y-32078347D01*
X45902649Y-32026651D01*
X45906098Y-31976946D01*
X45906327Y-31959271D01*
X45904275Y-31906878D01*
X45896693Y-31852460D01*
X45883525Y-31805264D01*
X45861635Y-31760171D01*
X45847953Y-31741162D01*
X45811525Y-31706687D01*
X45767909Y-31683494D01*
X45717106Y-31671584D01*
X45685776Y-31669843D01*
X45636195Y-31674301D01*
X45587423Y-31689971D01*
X45546069Y-31716925D01*
X45522622Y-31741162D01*
X45494640Y-31787249D01*
X45477455Y-31838238D01*
X45468354Y-31890593D01*
X45464963Y-31941217D01*
X45464736Y-31959271D01*
X45331380Y-31959271D01*
X45333717Y-31903529D01*
X45340730Y-31851556D01*
X45352417Y-31803351D01*
X45372613Y-31750481D01*
X45399541Y-31703036D01*
X45427123Y-31667645D01*
X45465462Y-31631206D01*
X45508490Y-31602306D01*
X45556206Y-31580945D01*
X45608611Y-31567124D01*
X45665703Y-31560841D01*
X45685776Y-31560422D01*
X45734635Y-31563040D01*
G37*
G36*
X46713550Y-31716738D02*
G01*
X46706711Y-31716738D01*
X46657397Y-31705758D01*
X46650535Y-31704770D01*
X46600031Y-31701235D01*
X46586544Y-31701106D01*
X46534979Y-31706202D01*
X46485004Y-31721489D01*
X46471017Y-31727729D01*
X46426456Y-31751741D01*
X46383266Y-31780913D01*
X46363794Y-31796117D01*
X46363794Y-32342000D01*
X46234590Y-32342000D01*
X46234590Y-31576054D01*
X46363794Y-31576054D01*
X46363794Y-31689138D01*
X46405622Y-31657239D01*
X46448699Y-31628502D01*
X46491950Y-31605046D01*
X46499349Y-31601699D01*
X46547578Y-31585095D01*
X46596613Y-31576956D01*
X46619517Y-31576054D01*
X46668121Y-31577764D01*
X46713550Y-31584358D01*
X46713550Y-31716738D01*
G37*
G36*
X46960724Y-31660562D02*
G01*
X47002352Y-31629822D01*
X47045904Y-31603547D01*
X47076006Y-31588510D01*
X47124080Y-31571394D01*
X47176344Y-31562178D01*
X47213515Y-31560422D01*
X47262514Y-31564037D01*
X47314578Y-31577393D01*
X47361149Y-31600589D01*
X47402226Y-31633626D01*
X47428205Y-31663249D01*
X47454932Y-31704771D01*
X47476130Y-31752218D01*
X47491797Y-31805590D01*
X47500630Y-31854592D01*
X47505622Y-31907709D01*
X47506851Y-31953165D01*
X47504706Y-32004964D01*
X47498273Y-32053749D01*
X47486094Y-32104420D01*
X47479740Y-32123646D01*
X47458850Y-32172843D01*
X47433458Y-32216326D01*
X47406467Y-32250897D01*
X47368640Y-32287121D01*
X47328065Y-32315927D01*
X47299489Y-32331009D01*
X47250125Y-32348246D01*
X47201124Y-32356357D01*
X47171017Y-32357631D01*
X47120574Y-32355092D01*
X47072382Y-32346677D01*
X47056711Y-32342244D01*
X47008412Y-32324475D01*
X46963686Y-32303048D01*
X46960724Y-32301455D01*
X46952420Y-32342000D01*
X46831519Y-32342000D01*
X46831519Y-31771448D01*
X46960724Y-31771448D01*
X46960724Y-32204979D01*
X47008809Y-32224428D01*
X47055002Y-32238685D01*
X47105776Y-32246638D01*
X47144883Y-32248210D01*
X47195487Y-32243875D01*
X47245519Y-32228634D01*
X47288249Y-32202419D01*
X47312678Y-32178845D01*
X47342076Y-32133568D01*
X47360131Y-32082811D01*
X47369693Y-32030285D01*
X47373257Y-31979234D01*
X47373494Y-31960981D01*
X47371320Y-31904903D01*
X47364799Y-31855066D01*
X47352022Y-31805752D01*
X47330860Y-31760017D01*
X47328065Y-31755572D01*
X47294362Y-31718607D01*
X47249736Y-31695332D01*
X47200231Y-31686091D01*
X47181764Y-31685475D01*
X47132283Y-31690103D01*
X47082147Y-31703988D01*
X47067702Y-31709655D01*
X47022239Y-31731400D01*
X46979517Y-31757741D01*
X46960724Y-31771448D01*
X46831519Y-31771448D01*
X46831519Y-31279055D01*
X46960724Y-31279055D01*
X46960724Y-31660562D01*
G37*
G36*
X48339230Y-32342000D02*
G01*
X48210026Y-32342000D01*
X48210026Y-32252118D01*
X48169793Y-32281709D01*
X48126748Y-32308914D01*
X48084974Y-32330520D01*
X48038377Y-32347041D01*
X47988345Y-32355937D01*
X47953083Y-32357631D01*
X47902748Y-32354137D01*
X47851492Y-32341585D01*
X47806921Y-32319904D01*
X47764771Y-32284602D01*
X47735386Y-32243692D01*
X47714396Y-32194233D01*
X47702918Y-32143943D01*
X47697867Y-32087109D01*
X47697605Y-32069669D01*
X47697605Y-31576054D01*
X47826809Y-31576054D01*
X47826809Y-32006898D01*
X47827990Y-32057288D01*
X47832182Y-32105572D01*
X47844815Y-32154274D01*
X47855630Y-32175670D01*
X47889656Y-32211299D01*
X47903745Y-32219145D01*
X47954000Y-32230991D01*
X47989475Y-32232579D01*
X48038630Y-32226944D01*
X48088091Y-32211516D01*
X48099140Y-32206933D01*
X48146073Y-32183600D01*
X48190426Y-32155672D01*
X48210026Y-32141232D01*
X48210026Y-31576054D01*
X48339230Y-31576054D01*
X48339230Y-32342000D01*
G37*
G36*
X49136439Y-32119983D02*
G01*
X49131005Y-32169778D01*
X49111899Y-32220177D01*
X49083369Y-32259981D01*
X49049489Y-32290953D01*
X49002045Y-32320125D01*
X48954019Y-32338813D01*
X48899917Y-32351119D01*
X48848706Y-32356589D01*
X48812085Y-32357631D01*
X48760193Y-32355723D01*
X48711067Y-32349998D01*
X48660225Y-32339294D01*
X48655769Y-32338092D01*
X48605692Y-32322773D01*
X48558728Y-32305093D01*
X48536579Y-32295105D01*
X48536579Y-32154421D01*
X48543418Y-32154421D01*
X48587152Y-32181896D01*
X48634061Y-32205216D01*
X48679461Y-32222809D01*
X48730261Y-32237271D01*
X48779560Y-32245730D01*
X48823076Y-32248210D01*
X48872726Y-32245587D01*
X48922734Y-32235512D01*
X48956432Y-32221344D01*
X48992519Y-32186539D01*
X49004548Y-32136347D01*
X48993293Y-32086724D01*
X48978414Y-32068203D01*
X48933789Y-32044264D01*
X48882624Y-32029665D01*
X48878030Y-32028636D01*
X48829875Y-32018849D01*
X48806223Y-32014470D01*
X48756481Y-32004178D01*
X48725623Y-31996640D01*
X48678743Y-31981894D01*
X48630491Y-31959082D01*
X48590692Y-31928369D01*
X48582252Y-31918971D01*
X48556504Y-31877022D01*
X48542639Y-31828479D01*
X48539998Y-31792453D01*
X48546181Y-31741397D01*
X48559538Y-31704037D01*
X48586088Y-31662402D01*
X48619133Y-31629787D01*
X48662730Y-31601150D01*
X48709493Y-31581602D01*
X48716830Y-31579229D01*
X48767549Y-31567052D01*
X48818445Y-31561322D01*
X48849942Y-31560422D01*
X48901657Y-31562895D01*
X48953852Y-31570314D01*
X48988916Y-31578008D01*
X49038490Y-31592079D01*
X49084598Y-31609725D01*
X49106153Y-31620262D01*
X49106153Y-31763632D01*
X49099314Y-31763632D01*
X49059140Y-31735709D01*
X49012990Y-31711288D01*
X48978903Y-31696954D01*
X48930663Y-31681519D01*
X48878697Y-31671988D01*
X48840173Y-31669843D01*
X48790141Y-31673587D01*
X48742917Y-31686092D01*
X48720494Y-31696466D01*
X48684040Y-31729561D01*
X48671889Y-31775600D01*
X48683434Y-31825250D01*
X48701443Y-31846431D01*
X48745226Y-31870379D01*
X48794988Y-31885265D01*
X48842901Y-31895436D01*
X48874855Y-31901630D01*
X48924600Y-31911228D01*
X48948861Y-31916528D01*
X48996173Y-31930269D01*
X49041129Y-31951020D01*
X49081324Y-31980513D01*
X49087591Y-31986626D01*
X49117358Y-32028964D01*
X49132575Y-32075860D01*
X49136439Y-32119983D01*
G37*
G36*
X49780752Y-31279055D02*
G01*
X49288358Y-32545210D01*
X49169412Y-32545210D01*
X49659852Y-31279055D01*
X49780752Y-31279055D01*
G37*
X101836779Y-59704819D02*
X101836779Y-58704819D01*
X101836779Y-58704819D02*
X102074874Y-58704819D01*
X102074874Y-58704819D02*
X102217731Y-58752438D01*
X102217731Y-58752438D02*
X102312969Y-58847676D01*
X102312969Y-58847676D02*
X102360588Y-58942914D01*
X102360588Y-58942914D02*
X102408207Y-59133390D01*
X102408207Y-59133390D02*
X102408207Y-59276247D01*
X102408207Y-59276247D02*
X102360588Y-59466723D01*
X102360588Y-59466723D02*
X102312969Y-59561961D01*
X102312969Y-59561961D02*
X102217731Y-59657200D01*
X102217731Y-59657200D02*
X102074874Y-59704819D01*
X102074874Y-59704819D02*
X101836779Y-59704819D01*
X102836779Y-59181009D02*
X103170112Y-59181009D01*
X103312969Y-59704819D02*
X102836779Y-59704819D01*
X102836779Y-59704819D02*
X102836779Y-58704819D01*
X102836779Y-58704819D02*
X103312969Y-58704819D01*
X103741541Y-59704819D02*
X103741541Y-58704819D01*
X103741541Y-58704819D02*
X104074874Y-59419104D01*
X104074874Y-59419104D02*
X104408207Y-58704819D01*
X104408207Y-58704819D02*
X104408207Y-59704819D01*
X104884398Y-59704819D02*
X104884398Y-58704819D01*
X104884398Y-58704819D02*
X105265350Y-58704819D01*
X105265350Y-58704819D02*
X105360588Y-58752438D01*
X105360588Y-58752438D02*
X105408207Y-58800057D01*
X105408207Y-58800057D02*
X105455826Y-58895295D01*
X105455826Y-58895295D02*
X105455826Y-59038152D01*
X105455826Y-59038152D02*
X105408207Y-59133390D01*
X105408207Y-59133390D02*
X105360588Y-59181009D01*
X105360588Y-59181009D02*
X105265350Y-59228628D01*
X105265350Y-59228628D02*
X104884398Y-59228628D01*
X69359580Y-31666666D02*
X69407200Y-31714285D01*
X69407200Y-31714285D02*
X69454819Y-31857142D01*
X69454819Y-31857142D02*
X69454819Y-31952380D01*
X69454819Y-31952380D02*
X69407200Y-32095237D01*
X69407200Y-32095237D02*
X69311961Y-32190475D01*
X69311961Y-32190475D02*
X69216723Y-32238094D01*
X69216723Y-32238094D02*
X69026247Y-32285713D01*
X69026247Y-32285713D02*
X68883390Y-32285713D01*
X68883390Y-32285713D02*
X68692914Y-32238094D01*
X68692914Y-32238094D02*
X68597676Y-32190475D01*
X68597676Y-32190475D02*
X68502438Y-32095237D01*
X68502438Y-32095237D02*
X68454819Y-31952380D01*
X68454819Y-31952380D02*
X68454819Y-31857142D01*
X68454819Y-31857142D02*
X68502438Y-31714285D01*
X68502438Y-31714285D02*
X68550057Y-31666666D01*
X69407200Y-31285713D02*
X69454819Y-31142856D01*
X69454819Y-31142856D02*
X69454819Y-30904761D01*
X69454819Y-30904761D02*
X69407200Y-30809523D01*
X69407200Y-30809523D02*
X69359580Y-30761904D01*
X69359580Y-30761904D02*
X69264342Y-30714285D01*
X69264342Y-30714285D02*
X69169104Y-30714285D01*
X69169104Y-30714285D02*
X69073866Y-30761904D01*
X69073866Y-30761904D02*
X69026247Y-30809523D01*
X69026247Y-30809523D02*
X68978628Y-30904761D01*
X68978628Y-30904761D02*
X68931009Y-31095237D01*
X68931009Y-31095237D02*
X68883390Y-31190475D01*
X68883390Y-31190475D02*
X68835771Y-31238094D01*
X68835771Y-31238094D02*
X68740533Y-31285713D01*
X68740533Y-31285713D02*
X68645295Y-31285713D01*
X68645295Y-31285713D02*
X68550057Y-31238094D01*
X68550057Y-31238094D02*
X68502438Y-31190475D01*
X68502438Y-31190475D02*
X68454819Y-31095237D01*
X68454819Y-31095237D02*
X68454819Y-30857142D01*
X68454819Y-30857142D02*
X68502438Y-30714285D01*
X65954819Y-32261904D02*
X65954819Y-31642857D01*
X65954819Y-31642857D02*
X66335771Y-31976190D01*
X66335771Y-31976190D02*
X66335771Y-31833333D01*
X66335771Y-31833333D02*
X66383390Y-31738095D01*
X66383390Y-31738095D02*
X66431009Y-31690476D01*
X66431009Y-31690476D02*
X66526247Y-31642857D01*
X66526247Y-31642857D02*
X66764342Y-31642857D01*
X66764342Y-31642857D02*
X66859580Y-31690476D01*
X66859580Y-31690476D02*
X66907200Y-31738095D01*
X66907200Y-31738095D02*
X66954819Y-31833333D01*
X66954819Y-31833333D02*
X66954819Y-32119047D01*
X66954819Y-32119047D02*
X66907200Y-32214285D01*
X66907200Y-32214285D02*
X66859580Y-32261904D01*
X65954819Y-31357142D02*
X66954819Y-31023809D01*
X66954819Y-31023809D02*
X65954819Y-30690476D01*
X74582980Y-31595238D02*
X74630600Y-31642857D01*
X74630600Y-31642857D02*
X74678219Y-31785714D01*
X74678219Y-31785714D02*
X74678219Y-31880952D01*
X74678219Y-31880952D02*
X74630600Y-32023809D01*
X74630600Y-32023809D02*
X74535361Y-32119047D01*
X74535361Y-32119047D02*
X74440123Y-32166666D01*
X74440123Y-32166666D02*
X74249647Y-32214285D01*
X74249647Y-32214285D02*
X74106790Y-32214285D01*
X74106790Y-32214285D02*
X73916314Y-32166666D01*
X73916314Y-32166666D02*
X73821076Y-32119047D01*
X73821076Y-32119047D02*
X73725838Y-32023809D01*
X73725838Y-32023809D02*
X73678219Y-31880952D01*
X73678219Y-31880952D02*
X73678219Y-31785714D01*
X73678219Y-31785714D02*
X73725838Y-31642857D01*
X73725838Y-31642857D02*
X73773457Y-31595238D01*
X74678219Y-30690476D02*
X74678219Y-31166666D01*
X74678219Y-31166666D02*
X73678219Y-31166666D01*
X102170112Y-53931009D02*
X101836779Y-53931009D01*
X101836779Y-54454819D02*
X101836779Y-53454819D01*
X101836779Y-53454819D02*
X102312969Y-53454819D01*
X102693922Y-54454819D02*
X102693922Y-53454819D01*
X102693922Y-53454819D02*
X103027255Y-54169104D01*
X103027255Y-54169104D02*
X103360588Y-53454819D01*
X103360588Y-53454819D02*
X103360588Y-54454819D01*
X103693922Y-53454819D02*
X104265350Y-53454819D01*
X103979636Y-54454819D02*
X103979636Y-53454819D01*
X70954819Y-32261904D02*
X70954819Y-31690476D01*
X71954819Y-31976190D02*
X70954819Y-31976190D01*
X70954819Y-31452380D02*
X71954819Y-30785714D01*
X70954819Y-30785714D02*
X71954819Y-31452380D01*
X79002438Y-31761904D02*
X78954819Y-31857142D01*
X78954819Y-31857142D02*
X78954819Y-31999999D01*
X78954819Y-31999999D02*
X79002438Y-32142856D01*
X79002438Y-32142856D02*
X79097676Y-32238094D01*
X79097676Y-32238094D02*
X79192914Y-32285713D01*
X79192914Y-32285713D02*
X79383390Y-32333332D01*
X79383390Y-32333332D02*
X79526247Y-32333332D01*
X79526247Y-32333332D02*
X79716723Y-32285713D01*
X79716723Y-32285713D02*
X79811961Y-32238094D01*
X79811961Y-32238094D02*
X79907200Y-32142856D01*
X79907200Y-32142856D02*
X79954819Y-31999999D01*
X79954819Y-31999999D02*
X79954819Y-31904761D01*
X79954819Y-31904761D02*
X79907200Y-31761904D01*
X79907200Y-31761904D02*
X79859580Y-31714285D01*
X79859580Y-31714285D02*
X79526247Y-31714285D01*
X79526247Y-31714285D02*
X79526247Y-31904761D01*
X79954819Y-31285713D02*
X78954819Y-31285713D01*
X78954819Y-31285713D02*
X79954819Y-30714285D01*
X79954819Y-30714285D02*
X78954819Y-30714285D01*
X67002819Y-68519285D02*
X66002819Y-68519285D01*
X66002819Y-68519285D02*
X66002819Y-68281190D01*
X66002819Y-68281190D02*
X66050438Y-68138333D01*
X66050438Y-68138333D02*
X66145676Y-68043095D01*
X66145676Y-68043095D02*
X66240914Y-67995476D01*
X66240914Y-67995476D02*
X66431390Y-67947857D01*
X66431390Y-67947857D02*
X66574247Y-67947857D01*
X66574247Y-67947857D02*
X66764723Y-67995476D01*
X66764723Y-67995476D02*
X66859961Y-68043095D01*
X66859961Y-68043095D02*
X66955200Y-68138333D01*
X66955200Y-68138333D02*
X67002819Y-68281190D01*
X67002819Y-68281190D02*
X67002819Y-68519285D01*
X67002819Y-66995476D02*
X67002819Y-67566904D01*
X67002819Y-67281190D02*
X66002819Y-67281190D01*
X66002819Y-67281190D02*
X66145676Y-67376428D01*
X66145676Y-67376428D02*
X66240914Y-67471666D01*
X66240914Y-67471666D02*
X66288533Y-67566904D01*
X67002819Y-66043095D02*
X67002819Y-66614523D01*
X67002819Y-66328809D02*
X66002819Y-66328809D01*
X66002819Y-66328809D02*
X66145676Y-66424047D01*
X66145676Y-66424047D02*
X66240914Y-66519285D01*
X66240914Y-66519285D02*
X66288533Y-66614523D01*
X67002819Y-62105904D02*
X66002819Y-62105904D01*
X67002819Y-61534476D02*
X66431390Y-61963047D01*
X66002819Y-61534476D02*
X66574247Y-62105904D01*
X59382819Y-68424094D02*
X58382819Y-68424094D01*
X58382819Y-68424094D02*
X58382819Y-68185999D01*
X58382819Y-68185999D02*
X58430438Y-68043142D01*
X58430438Y-68043142D02*
X58525676Y-67947904D01*
X58525676Y-67947904D02*
X58620914Y-67900285D01*
X58620914Y-67900285D02*
X58811390Y-67852666D01*
X58811390Y-67852666D02*
X58954247Y-67852666D01*
X58954247Y-67852666D02*
X59144723Y-67900285D01*
X59144723Y-67900285D02*
X59239961Y-67947904D01*
X59239961Y-67947904D02*
X59335200Y-68043142D01*
X59335200Y-68043142D02*
X59382819Y-68185999D01*
X59382819Y-68185999D02*
X59382819Y-68424094D01*
X58811390Y-67281237D02*
X58763771Y-67376475D01*
X58763771Y-67376475D02*
X58716152Y-67424094D01*
X58716152Y-67424094D02*
X58620914Y-67471713D01*
X58620914Y-67471713D02*
X58573295Y-67471713D01*
X58573295Y-67471713D02*
X58478057Y-67424094D01*
X58478057Y-67424094D02*
X58430438Y-67376475D01*
X58430438Y-67376475D02*
X58382819Y-67281237D01*
X58382819Y-67281237D02*
X58382819Y-67090761D01*
X58382819Y-67090761D02*
X58430438Y-66995523D01*
X58430438Y-66995523D02*
X58478057Y-66947904D01*
X58478057Y-66947904D02*
X58573295Y-66900285D01*
X58573295Y-66900285D02*
X58620914Y-66900285D01*
X58620914Y-66900285D02*
X58716152Y-66947904D01*
X58716152Y-66947904D02*
X58763771Y-66995523D01*
X58763771Y-66995523D02*
X58811390Y-67090761D01*
X58811390Y-67090761D02*
X58811390Y-67281237D01*
X58811390Y-67281237D02*
X58859009Y-67376475D01*
X58859009Y-67376475D02*
X58906628Y-67424094D01*
X58906628Y-67424094D02*
X59001866Y-67471713D01*
X59001866Y-67471713D02*
X59192342Y-67471713D01*
X59192342Y-67471713D02*
X59287580Y-67424094D01*
X59287580Y-67424094D02*
X59335200Y-67376475D01*
X59335200Y-67376475D02*
X59382819Y-67281237D01*
X59382819Y-67281237D02*
X59382819Y-67090761D01*
X59382819Y-67090761D02*
X59335200Y-66995523D01*
X59335200Y-66995523D02*
X59287580Y-66947904D01*
X59287580Y-66947904D02*
X59192342Y-66900285D01*
X59192342Y-66900285D02*
X59001866Y-66900285D01*
X59001866Y-66900285D02*
X58906628Y-66947904D01*
X58906628Y-66947904D02*
X58859009Y-66995523D01*
X58859009Y-66995523D02*
X58811390Y-67090761D01*
X59382819Y-62105904D02*
X58382819Y-62105904D01*
X59382819Y-61534476D02*
X58811390Y-61963047D01*
X58382819Y-61534476D02*
X58954247Y-62105904D01*
X72082819Y-68519285D02*
X71082819Y-68519285D01*
X71082819Y-68519285D02*
X71082819Y-68281190D01*
X71082819Y-68281190D02*
X71130438Y-68138333D01*
X71130438Y-68138333D02*
X71225676Y-68043095D01*
X71225676Y-68043095D02*
X71320914Y-67995476D01*
X71320914Y-67995476D02*
X71511390Y-67947857D01*
X71511390Y-67947857D02*
X71654247Y-67947857D01*
X71654247Y-67947857D02*
X71844723Y-67995476D01*
X71844723Y-67995476D02*
X71939961Y-68043095D01*
X71939961Y-68043095D02*
X72035200Y-68138333D01*
X72035200Y-68138333D02*
X72082819Y-68281190D01*
X72082819Y-68281190D02*
X72082819Y-68519285D01*
X72082819Y-66995476D02*
X72082819Y-67566904D01*
X72082819Y-67281190D02*
X71082819Y-67281190D01*
X71082819Y-67281190D02*
X71225676Y-67376428D01*
X71225676Y-67376428D02*
X71320914Y-67471666D01*
X71320914Y-67471666D02*
X71368533Y-67566904D01*
X71082819Y-66662142D02*
X71082819Y-66043095D01*
X71082819Y-66043095D02*
X71463771Y-66376428D01*
X71463771Y-66376428D02*
X71463771Y-66233571D01*
X71463771Y-66233571D02*
X71511390Y-66138333D01*
X71511390Y-66138333D02*
X71559009Y-66090714D01*
X71559009Y-66090714D02*
X71654247Y-66043095D01*
X71654247Y-66043095D02*
X71892342Y-66043095D01*
X71892342Y-66043095D02*
X71987580Y-66090714D01*
X71987580Y-66090714D02*
X72035200Y-66138333D01*
X72035200Y-66138333D02*
X72082819Y-66233571D01*
X72082819Y-66233571D02*
X72082819Y-66519285D01*
X72082819Y-66519285D02*
X72035200Y-66614523D01*
X72035200Y-66614523D02*
X71987580Y-66662142D01*
X72082819Y-62105904D02*
X71082819Y-62105904D01*
X72082819Y-61534476D02*
X71511390Y-61963047D01*
X71082819Y-61534476D02*
X71654247Y-62105904D01*
X74622819Y-68519285D02*
X73622819Y-68519285D01*
X73622819Y-68519285D02*
X73622819Y-68281190D01*
X73622819Y-68281190D02*
X73670438Y-68138333D01*
X73670438Y-68138333D02*
X73765676Y-68043095D01*
X73765676Y-68043095D02*
X73860914Y-67995476D01*
X73860914Y-67995476D02*
X74051390Y-67947857D01*
X74051390Y-67947857D02*
X74194247Y-67947857D01*
X74194247Y-67947857D02*
X74384723Y-67995476D01*
X74384723Y-67995476D02*
X74479961Y-68043095D01*
X74479961Y-68043095D02*
X74575200Y-68138333D01*
X74575200Y-68138333D02*
X74622819Y-68281190D01*
X74622819Y-68281190D02*
X74622819Y-68519285D01*
X74622819Y-66995476D02*
X74622819Y-67566904D01*
X74622819Y-67281190D02*
X73622819Y-67281190D01*
X73622819Y-67281190D02*
X73765676Y-67376428D01*
X73765676Y-67376428D02*
X73860914Y-67471666D01*
X73860914Y-67471666D02*
X73908533Y-67566904D01*
X73956152Y-66138333D02*
X74622819Y-66138333D01*
X73575200Y-66376428D02*
X74289485Y-66614523D01*
X74289485Y-66614523D02*
X74289485Y-65995476D01*
X74622819Y-72646904D02*
X73622819Y-72646904D01*
X74622819Y-72075476D02*
X74051390Y-72504047D01*
X73622819Y-72075476D02*
X74194247Y-72646904D01*
X61922819Y-68424094D02*
X60922819Y-68424094D01*
X60922819Y-68424094D02*
X60922819Y-68185999D01*
X60922819Y-68185999D02*
X60970438Y-68043142D01*
X60970438Y-68043142D02*
X61065676Y-67947904D01*
X61065676Y-67947904D02*
X61160914Y-67900285D01*
X61160914Y-67900285D02*
X61351390Y-67852666D01*
X61351390Y-67852666D02*
X61494247Y-67852666D01*
X61494247Y-67852666D02*
X61684723Y-67900285D01*
X61684723Y-67900285D02*
X61779961Y-67947904D01*
X61779961Y-67947904D02*
X61875200Y-68043142D01*
X61875200Y-68043142D02*
X61922819Y-68185999D01*
X61922819Y-68185999D02*
X61922819Y-68424094D01*
X61922819Y-67376475D02*
X61922819Y-67185999D01*
X61922819Y-67185999D02*
X61875200Y-67090761D01*
X61875200Y-67090761D02*
X61827580Y-67043142D01*
X61827580Y-67043142D02*
X61684723Y-66947904D01*
X61684723Y-66947904D02*
X61494247Y-66900285D01*
X61494247Y-66900285D02*
X61113295Y-66900285D01*
X61113295Y-66900285D02*
X61018057Y-66947904D01*
X61018057Y-66947904D02*
X60970438Y-66995523D01*
X60970438Y-66995523D02*
X60922819Y-67090761D01*
X60922819Y-67090761D02*
X60922819Y-67281237D01*
X60922819Y-67281237D02*
X60970438Y-67376475D01*
X60970438Y-67376475D02*
X61018057Y-67424094D01*
X61018057Y-67424094D02*
X61113295Y-67471713D01*
X61113295Y-67471713D02*
X61351390Y-67471713D01*
X61351390Y-67471713D02*
X61446628Y-67424094D01*
X61446628Y-67424094D02*
X61494247Y-67376475D01*
X61494247Y-67376475D02*
X61541866Y-67281237D01*
X61541866Y-67281237D02*
X61541866Y-67090761D01*
X61541866Y-67090761D02*
X61494247Y-66995523D01*
X61494247Y-66995523D02*
X61446628Y-66947904D01*
X61446628Y-66947904D02*
X61351390Y-66900285D01*
X61922819Y-62105904D02*
X60922819Y-62105904D01*
X61922819Y-61534476D02*
X61351390Y-61963047D01*
X60922819Y-61534476D02*
X61494247Y-62105904D01*
X77162819Y-68519285D02*
X76162819Y-68519285D01*
X76162819Y-68519285D02*
X76162819Y-68281190D01*
X76162819Y-68281190D02*
X76210438Y-68138333D01*
X76210438Y-68138333D02*
X76305676Y-68043095D01*
X76305676Y-68043095D02*
X76400914Y-67995476D01*
X76400914Y-67995476D02*
X76591390Y-67947857D01*
X76591390Y-67947857D02*
X76734247Y-67947857D01*
X76734247Y-67947857D02*
X76924723Y-67995476D01*
X76924723Y-67995476D02*
X77019961Y-68043095D01*
X77019961Y-68043095D02*
X77115200Y-68138333D01*
X77115200Y-68138333D02*
X77162819Y-68281190D01*
X77162819Y-68281190D02*
X77162819Y-68519285D01*
X77162819Y-66995476D02*
X77162819Y-67566904D01*
X77162819Y-67281190D02*
X76162819Y-67281190D01*
X76162819Y-67281190D02*
X76305676Y-67376428D01*
X76305676Y-67376428D02*
X76400914Y-67471666D01*
X76400914Y-67471666D02*
X76448533Y-67566904D01*
X76162819Y-66090714D02*
X76162819Y-66566904D01*
X76162819Y-66566904D02*
X76639009Y-66614523D01*
X76639009Y-66614523D02*
X76591390Y-66566904D01*
X76591390Y-66566904D02*
X76543771Y-66471666D01*
X76543771Y-66471666D02*
X76543771Y-66233571D01*
X76543771Y-66233571D02*
X76591390Y-66138333D01*
X76591390Y-66138333D02*
X76639009Y-66090714D01*
X76639009Y-66090714D02*
X76734247Y-66043095D01*
X76734247Y-66043095D02*
X76972342Y-66043095D01*
X76972342Y-66043095D02*
X77067580Y-66090714D01*
X77067580Y-66090714D02*
X77115200Y-66138333D01*
X77115200Y-66138333D02*
X77162819Y-66233571D01*
X77162819Y-66233571D02*
X77162819Y-66471666D01*
X77162819Y-66471666D02*
X77115200Y-66566904D01*
X77115200Y-66566904D02*
X77067580Y-66614523D01*
X77162819Y-72651904D02*
X76162819Y-72651904D01*
X77162819Y-72080476D02*
X76591390Y-72509047D01*
X76162819Y-72080476D02*
X76734247Y-72651904D01*
X64462819Y-68519285D02*
X63462819Y-68519285D01*
X63462819Y-68519285D02*
X63462819Y-68281190D01*
X63462819Y-68281190D02*
X63510438Y-68138333D01*
X63510438Y-68138333D02*
X63605676Y-68043095D01*
X63605676Y-68043095D02*
X63700914Y-67995476D01*
X63700914Y-67995476D02*
X63891390Y-67947857D01*
X63891390Y-67947857D02*
X64034247Y-67947857D01*
X64034247Y-67947857D02*
X64224723Y-67995476D01*
X64224723Y-67995476D02*
X64319961Y-68043095D01*
X64319961Y-68043095D02*
X64415200Y-68138333D01*
X64415200Y-68138333D02*
X64462819Y-68281190D01*
X64462819Y-68281190D02*
X64462819Y-68519285D01*
X64462819Y-66995476D02*
X64462819Y-67566904D01*
X64462819Y-67281190D02*
X63462819Y-67281190D01*
X63462819Y-67281190D02*
X63605676Y-67376428D01*
X63605676Y-67376428D02*
X63700914Y-67471666D01*
X63700914Y-67471666D02*
X63748533Y-67566904D01*
X63462819Y-66376428D02*
X63462819Y-66281190D01*
X63462819Y-66281190D02*
X63510438Y-66185952D01*
X63510438Y-66185952D02*
X63558057Y-66138333D01*
X63558057Y-66138333D02*
X63653295Y-66090714D01*
X63653295Y-66090714D02*
X63843771Y-66043095D01*
X63843771Y-66043095D02*
X64081866Y-66043095D01*
X64081866Y-66043095D02*
X64272342Y-66090714D01*
X64272342Y-66090714D02*
X64367580Y-66138333D01*
X64367580Y-66138333D02*
X64415200Y-66185952D01*
X64415200Y-66185952D02*
X64462819Y-66281190D01*
X64462819Y-66281190D02*
X64462819Y-66376428D01*
X64462819Y-66376428D02*
X64415200Y-66471666D01*
X64415200Y-66471666D02*
X64367580Y-66519285D01*
X64367580Y-66519285D02*
X64272342Y-66566904D01*
X64272342Y-66566904D02*
X64081866Y-66614523D01*
X64081866Y-66614523D02*
X63843771Y-66614523D01*
X63843771Y-66614523D02*
X63653295Y-66566904D01*
X63653295Y-66566904D02*
X63558057Y-66519285D01*
X63558057Y-66519285D02*
X63510438Y-66471666D01*
X63510438Y-66471666D02*
X63462819Y-66376428D01*
X64462819Y-72651904D02*
X63462819Y-72651904D01*
X64462819Y-72080476D02*
X63891390Y-72509047D01*
X63462819Y-72080476D02*
X64034247Y-72651904D01*
X69542819Y-68519285D02*
X68542819Y-68519285D01*
X68542819Y-68519285D02*
X68542819Y-68281190D01*
X68542819Y-68281190D02*
X68590438Y-68138333D01*
X68590438Y-68138333D02*
X68685676Y-68043095D01*
X68685676Y-68043095D02*
X68780914Y-67995476D01*
X68780914Y-67995476D02*
X68971390Y-67947857D01*
X68971390Y-67947857D02*
X69114247Y-67947857D01*
X69114247Y-67947857D02*
X69304723Y-67995476D01*
X69304723Y-67995476D02*
X69399961Y-68043095D01*
X69399961Y-68043095D02*
X69495200Y-68138333D01*
X69495200Y-68138333D02*
X69542819Y-68281190D01*
X69542819Y-68281190D02*
X69542819Y-68519285D01*
X69542819Y-66995476D02*
X69542819Y-67566904D01*
X69542819Y-67281190D02*
X68542819Y-67281190D01*
X68542819Y-67281190D02*
X68685676Y-67376428D01*
X68685676Y-67376428D02*
X68780914Y-67471666D01*
X68780914Y-67471666D02*
X68828533Y-67566904D01*
X68638057Y-66614523D02*
X68590438Y-66566904D01*
X68590438Y-66566904D02*
X68542819Y-66471666D01*
X68542819Y-66471666D02*
X68542819Y-66233571D01*
X68542819Y-66233571D02*
X68590438Y-66138333D01*
X68590438Y-66138333D02*
X68638057Y-66090714D01*
X68638057Y-66090714D02*
X68733295Y-66043095D01*
X68733295Y-66043095D02*
X68828533Y-66043095D01*
X68828533Y-66043095D02*
X68971390Y-66090714D01*
X68971390Y-66090714D02*
X69542819Y-66662142D01*
X69542819Y-66662142D02*
X69542819Y-66043095D01*
X69542819Y-72651904D02*
X68542819Y-72651904D01*
X69542819Y-72080476D02*
X68971390Y-72509047D01*
X68542819Y-72080476D02*
X69114247Y-72651904D01*
X59652819Y-49275904D02*
X60462342Y-49275904D01*
X60462342Y-49275904D02*
X60557580Y-49228285D01*
X60557580Y-49228285D02*
X60605200Y-49180666D01*
X60605200Y-49180666D02*
X60652819Y-49085428D01*
X60652819Y-49085428D02*
X60652819Y-48894952D01*
X60652819Y-48894952D02*
X60605200Y-48799714D01*
X60605200Y-48799714D02*
X60557580Y-48752095D01*
X60557580Y-48752095D02*
X60462342Y-48704476D01*
X60462342Y-48704476D02*
X59652819Y-48704476D01*
X60652819Y-47704476D02*
X60652819Y-48275904D01*
X60652819Y-47990190D02*
X59652819Y-47990190D01*
X59652819Y-47990190D02*
X59795676Y-48085428D01*
X59795676Y-48085428D02*
X59890914Y-48180666D01*
X59890914Y-48180666D02*
X59938533Y-48275904D01*
X50450289Y-42510651D02*
X50531101Y-42052716D01*
X50127040Y-42187403D02*
X50692725Y-41621717D01*
X50692725Y-41621717D02*
X50908224Y-41837216D01*
X50908224Y-41837216D02*
X50935162Y-41918029D01*
X50935162Y-41918029D02*
X50935162Y-41971903D01*
X50935162Y-41971903D02*
X50908224Y-42052716D01*
X50908224Y-42052716D02*
X50827412Y-42133528D01*
X50827412Y-42133528D02*
X50746600Y-42160465D01*
X50746600Y-42160465D02*
X50692725Y-42160465D01*
X50692725Y-42160465D02*
X50611913Y-42133528D01*
X50611913Y-42133528D02*
X50396414Y-41918029D01*
X51258411Y-42187403D02*
X50800475Y-42645338D01*
X50800475Y-42645338D02*
X50773537Y-42726151D01*
X50773537Y-42726151D02*
X50773537Y-42780025D01*
X50773537Y-42780025D02*
X50800475Y-42860838D01*
X50800475Y-42860838D02*
X50908224Y-42968587D01*
X50908224Y-42968587D02*
X50989037Y-42995525D01*
X50989037Y-42995525D02*
X51042911Y-42995525D01*
X51042911Y-42995525D02*
X51123724Y-42968587D01*
X51123724Y-42968587D02*
X51581659Y-42510651D01*
X51285348Y-43345711D02*
X51851033Y-42780025D01*
X51851033Y-42780025D02*
X51608597Y-43668959D01*
X51608597Y-43668959D02*
X52174282Y-43103274D01*
X83810131Y-41461998D02*
X83783194Y-41381185D01*
X83783194Y-41381185D02*
X83702381Y-41300373D01*
X83702381Y-41300373D02*
X83594632Y-41246498D01*
X83594632Y-41246498D02*
X83486882Y-41246498D01*
X83486882Y-41246498D02*
X83406070Y-41273436D01*
X83406070Y-41273436D02*
X83271383Y-41354248D01*
X83271383Y-41354248D02*
X83190571Y-41435060D01*
X83190571Y-41435060D02*
X83109758Y-41569747D01*
X83109758Y-41569747D02*
X83082821Y-41650560D01*
X83082821Y-41650560D02*
X83082821Y-41758309D01*
X83082821Y-41758309D02*
X83136696Y-41866059D01*
X83136696Y-41866059D02*
X83190571Y-41919934D01*
X83190571Y-41919934D02*
X83298320Y-41973808D01*
X83298320Y-41973808D02*
X83352195Y-41973808D01*
X83352195Y-41973808D02*
X83540757Y-41785247D01*
X83540757Y-41785247D02*
X83433007Y-41677497D01*
X83540757Y-42270120D02*
X84106442Y-41704434D01*
X84106442Y-41704434D02*
X84321942Y-41919934D01*
X84321942Y-41919934D02*
X84348879Y-42000746D01*
X84348879Y-42000746D02*
X84348879Y-42054621D01*
X84348879Y-42054621D02*
X84321942Y-42135433D01*
X84321942Y-42135433D02*
X84241129Y-42216245D01*
X84241129Y-42216245D02*
X84160317Y-42243182D01*
X84160317Y-42243182D02*
X84106442Y-42243182D01*
X84106442Y-42243182D02*
X84025630Y-42216245D01*
X84025630Y-42216245D02*
X83810131Y-42000746D01*
X84402754Y-43132117D02*
X84079505Y-42808868D01*
X84241129Y-42970492D02*
X84806815Y-42404807D01*
X84806815Y-42404807D02*
X84672128Y-42431744D01*
X84672128Y-42431744D02*
X84564378Y-42431744D01*
X84564378Y-42431744D02*
X84483566Y-42404807D01*
X85049252Y-43132117D02*
X85022314Y-43051305D01*
X85022314Y-43051305D02*
X85022314Y-42997430D01*
X85022314Y-42997430D02*
X85049252Y-42916618D01*
X85049252Y-42916618D02*
X85076189Y-42889680D01*
X85076189Y-42889680D02*
X85157001Y-42862743D01*
X85157001Y-42862743D02*
X85210876Y-42862743D01*
X85210876Y-42862743D02*
X85291688Y-42889680D01*
X85291688Y-42889680D02*
X85399438Y-42997430D01*
X85399438Y-42997430D02*
X85426375Y-43078242D01*
X85426375Y-43078242D02*
X85426375Y-43132117D01*
X85426375Y-43132117D02*
X85399438Y-43212929D01*
X85399438Y-43212929D02*
X85372500Y-43239866D01*
X85372500Y-43239866D02*
X85291688Y-43266804D01*
X85291688Y-43266804D02*
X85237813Y-43266804D01*
X85237813Y-43266804D02*
X85157001Y-43239866D01*
X85157001Y-43239866D02*
X85049252Y-43132117D01*
X85049252Y-43132117D02*
X84968439Y-43105179D01*
X84968439Y-43105179D02*
X84914565Y-43105179D01*
X84914565Y-43105179D02*
X84833752Y-43132117D01*
X84833752Y-43132117D02*
X84726003Y-43239866D01*
X84726003Y-43239866D02*
X84699065Y-43320679D01*
X84699065Y-43320679D02*
X84699065Y-43374553D01*
X84699065Y-43374553D02*
X84726003Y-43455366D01*
X84726003Y-43455366D02*
X84833752Y-43563115D01*
X84833752Y-43563115D02*
X84914565Y-43590053D01*
X84914565Y-43590053D02*
X84968439Y-43590053D01*
X84968439Y-43590053D02*
X85049252Y-43563115D01*
X85049252Y-43563115D02*
X85157001Y-43455366D01*
X85157001Y-43455366D02*
X85183939Y-43374553D01*
X85183939Y-43374553D02*
X85183939Y-43320679D01*
X85183939Y-43320679D02*
X85157001Y-43239866D01*
X40772505Y-53923372D02*
X40745568Y-53842560D01*
X40745568Y-53842560D02*
X40664756Y-53761748D01*
X40664756Y-53761748D02*
X40557006Y-53707873D01*
X40557006Y-53707873D02*
X40449257Y-53707873D01*
X40449257Y-53707873D02*
X40368444Y-53734810D01*
X40368444Y-53734810D02*
X40233757Y-53815623D01*
X40233757Y-53815623D02*
X40152945Y-53896435D01*
X40152945Y-53896435D02*
X40072133Y-54031122D01*
X40072133Y-54031122D02*
X40045196Y-54111934D01*
X40045196Y-54111934D02*
X40045196Y-54219684D01*
X40045196Y-54219684D02*
X40099070Y-54327433D01*
X40099070Y-54327433D02*
X40152945Y-54381308D01*
X40152945Y-54381308D02*
X40260695Y-54435183D01*
X40260695Y-54435183D02*
X40314570Y-54435183D01*
X40314570Y-54435183D02*
X40503131Y-54246621D01*
X40503131Y-54246621D02*
X40395382Y-54138871D01*
X40503131Y-54731494D02*
X41068817Y-54165809D01*
X41068817Y-54165809D02*
X41284316Y-54381308D01*
X41284316Y-54381308D02*
X41311253Y-54462120D01*
X41311253Y-54462120D02*
X41311253Y-54515995D01*
X41311253Y-54515995D02*
X41284316Y-54596807D01*
X41284316Y-54596807D02*
X41203504Y-54677619D01*
X41203504Y-54677619D02*
X41122692Y-54704557D01*
X41122692Y-54704557D02*
X41068817Y-54704557D01*
X41068817Y-54704557D02*
X40988005Y-54677619D01*
X40988005Y-54677619D02*
X40772505Y-54462120D01*
X41553690Y-54758432D02*
X41607565Y-54758432D01*
X41607565Y-54758432D02*
X41688377Y-54785369D01*
X41688377Y-54785369D02*
X41823064Y-54920056D01*
X41823064Y-54920056D02*
X41850001Y-55000868D01*
X41850001Y-55000868D02*
X41850001Y-55054743D01*
X41850001Y-55054743D02*
X41823064Y-55135555D01*
X41823064Y-55135555D02*
X41769189Y-55189430D01*
X41769189Y-55189430D02*
X41661440Y-55243305D01*
X41661440Y-55243305D02*
X41014942Y-55243305D01*
X41014942Y-55243305D02*
X41365128Y-55593491D01*
X78730131Y-41461998D02*
X78703194Y-41381185D01*
X78703194Y-41381185D02*
X78622381Y-41300373D01*
X78622381Y-41300373D02*
X78514632Y-41246498D01*
X78514632Y-41246498D02*
X78406882Y-41246498D01*
X78406882Y-41246498D02*
X78326070Y-41273436D01*
X78326070Y-41273436D02*
X78191383Y-41354248D01*
X78191383Y-41354248D02*
X78110571Y-41435060D01*
X78110571Y-41435060D02*
X78029758Y-41569747D01*
X78029758Y-41569747D02*
X78002821Y-41650560D01*
X78002821Y-41650560D02*
X78002821Y-41758309D01*
X78002821Y-41758309D02*
X78056696Y-41866059D01*
X78056696Y-41866059D02*
X78110571Y-41919934D01*
X78110571Y-41919934D02*
X78218320Y-41973808D01*
X78218320Y-41973808D02*
X78272195Y-41973808D01*
X78272195Y-41973808D02*
X78460757Y-41785247D01*
X78460757Y-41785247D02*
X78353007Y-41677497D01*
X78460757Y-42270120D02*
X79026442Y-41704434D01*
X79026442Y-41704434D02*
X79241942Y-41919934D01*
X79241942Y-41919934D02*
X79268879Y-42000746D01*
X79268879Y-42000746D02*
X79268879Y-42054621D01*
X79268879Y-42054621D02*
X79241942Y-42135433D01*
X79241942Y-42135433D02*
X79161129Y-42216245D01*
X79161129Y-42216245D02*
X79080317Y-42243182D01*
X79080317Y-42243182D02*
X79026442Y-42243182D01*
X79026442Y-42243182D02*
X78945630Y-42216245D01*
X78945630Y-42216245D02*
X78730131Y-42000746D01*
X79511316Y-42297057D02*
X79565190Y-42297057D01*
X79565190Y-42297057D02*
X79646003Y-42323995D01*
X79646003Y-42323995D02*
X79780690Y-42458682D01*
X79780690Y-42458682D02*
X79807627Y-42539494D01*
X79807627Y-42539494D02*
X79807627Y-42593369D01*
X79807627Y-42593369D02*
X79780690Y-42674181D01*
X79780690Y-42674181D02*
X79726815Y-42728056D01*
X79726815Y-42728056D02*
X79619065Y-42781930D01*
X79619065Y-42781930D02*
X78972568Y-42781930D01*
X78972568Y-42781930D02*
X79322754Y-43132117D01*
X80238626Y-42916618D02*
X80292500Y-42970492D01*
X80292500Y-42970492D02*
X80319438Y-43051305D01*
X80319438Y-43051305D02*
X80319438Y-43105179D01*
X80319438Y-43105179D02*
X80292500Y-43185992D01*
X80292500Y-43185992D02*
X80211688Y-43320679D01*
X80211688Y-43320679D02*
X80077001Y-43455366D01*
X80077001Y-43455366D02*
X79942314Y-43536178D01*
X79942314Y-43536178D02*
X79861502Y-43563115D01*
X79861502Y-43563115D02*
X79807627Y-43563115D01*
X79807627Y-43563115D02*
X79726815Y-43536178D01*
X79726815Y-43536178D02*
X79672940Y-43482303D01*
X79672940Y-43482303D02*
X79646003Y-43401491D01*
X79646003Y-43401491D02*
X79646003Y-43347616D01*
X79646003Y-43347616D02*
X79672940Y-43266804D01*
X79672940Y-43266804D02*
X79753752Y-43132117D01*
X79753752Y-43132117D02*
X79888439Y-42997430D01*
X79888439Y-42997430D02*
X80023126Y-42916618D01*
X80023126Y-42916618D02*
X80103939Y-42889680D01*
X80103939Y-42889680D02*
X80157813Y-42889680D01*
X80157813Y-42889680D02*
X80238626Y-42916618D01*
X61204131Y-41534998D02*
X61177194Y-41454185D01*
X61177194Y-41454185D02*
X61096381Y-41373373D01*
X61096381Y-41373373D02*
X60988632Y-41319498D01*
X60988632Y-41319498D02*
X60880882Y-41319498D01*
X60880882Y-41319498D02*
X60800070Y-41346436D01*
X60800070Y-41346436D02*
X60665383Y-41427248D01*
X60665383Y-41427248D02*
X60584571Y-41508060D01*
X60584571Y-41508060D02*
X60503758Y-41642747D01*
X60503758Y-41642747D02*
X60476821Y-41723560D01*
X60476821Y-41723560D02*
X60476821Y-41831309D01*
X60476821Y-41831309D02*
X60530696Y-41939059D01*
X60530696Y-41939059D02*
X60584571Y-41992934D01*
X60584571Y-41992934D02*
X60692320Y-42046808D01*
X60692320Y-42046808D02*
X60746195Y-42046808D01*
X60746195Y-42046808D02*
X60934757Y-41858247D01*
X60934757Y-41858247D02*
X60827007Y-41750497D01*
X60934757Y-42343120D02*
X61500442Y-41777434D01*
X61500442Y-41777434D02*
X61715942Y-41992934D01*
X61715942Y-41992934D02*
X61742879Y-42073746D01*
X61742879Y-42073746D02*
X61742879Y-42127621D01*
X61742879Y-42127621D02*
X61715942Y-42208433D01*
X61715942Y-42208433D02*
X61635129Y-42289245D01*
X61635129Y-42289245D02*
X61554317Y-42316182D01*
X61554317Y-42316182D02*
X61500442Y-42316182D01*
X61500442Y-42316182D02*
X61419630Y-42289245D01*
X61419630Y-42289245D02*
X61204131Y-42073746D01*
X61985316Y-42370057D02*
X62039190Y-42370057D01*
X62039190Y-42370057D02*
X62120003Y-42396995D01*
X62120003Y-42396995D02*
X62254690Y-42531682D01*
X62254690Y-42531682D02*
X62281627Y-42612494D01*
X62281627Y-42612494D02*
X62281627Y-42666369D01*
X62281627Y-42666369D02*
X62254690Y-42747181D01*
X62254690Y-42747181D02*
X62200815Y-42801056D01*
X62200815Y-42801056D02*
X62093065Y-42854930D01*
X62093065Y-42854930D02*
X61446568Y-42854930D01*
X61446568Y-42854930D02*
X61796754Y-43205117D01*
X62847313Y-43124305D02*
X62739563Y-43016555D01*
X62739563Y-43016555D02*
X62658751Y-42989618D01*
X62658751Y-42989618D02*
X62604876Y-42989618D01*
X62604876Y-42989618D02*
X62470189Y-43016555D01*
X62470189Y-43016555D02*
X62335502Y-43097367D01*
X62335502Y-43097367D02*
X62120003Y-43312866D01*
X62120003Y-43312866D02*
X62093065Y-43393679D01*
X62093065Y-43393679D02*
X62093065Y-43447553D01*
X62093065Y-43447553D02*
X62120003Y-43528366D01*
X62120003Y-43528366D02*
X62227752Y-43636115D01*
X62227752Y-43636115D02*
X62308565Y-43663053D01*
X62308565Y-43663053D02*
X62362439Y-43663053D01*
X62362439Y-43663053D02*
X62443252Y-43636115D01*
X62443252Y-43636115D02*
X62577939Y-43501428D01*
X62577939Y-43501428D02*
X62604876Y-43420616D01*
X62604876Y-43420616D02*
X62604876Y-43366741D01*
X62604876Y-43366741D02*
X62577939Y-43285929D01*
X62577939Y-43285929D02*
X62470189Y-43178179D01*
X62470189Y-43178179D02*
X62389377Y-43151242D01*
X62389377Y-43151242D02*
X62335502Y-43151242D01*
X62335502Y-43151242D02*
X62254690Y-43178179D01*
X76190131Y-41461998D02*
X76163194Y-41381185D01*
X76163194Y-41381185D02*
X76082381Y-41300373D01*
X76082381Y-41300373D02*
X75974632Y-41246498D01*
X75974632Y-41246498D02*
X75866882Y-41246498D01*
X75866882Y-41246498D02*
X75786070Y-41273436D01*
X75786070Y-41273436D02*
X75651383Y-41354248D01*
X75651383Y-41354248D02*
X75570571Y-41435060D01*
X75570571Y-41435060D02*
X75489758Y-41569747D01*
X75489758Y-41569747D02*
X75462821Y-41650560D01*
X75462821Y-41650560D02*
X75462821Y-41758309D01*
X75462821Y-41758309D02*
X75516696Y-41866059D01*
X75516696Y-41866059D02*
X75570571Y-41919934D01*
X75570571Y-41919934D02*
X75678320Y-41973808D01*
X75678320Y-41973808D02*
X75732195Y-41973808D01*
X75732195Y-41973808D02*
X75920757Y-41785247D01*
X75920757Y-41785247D02*
X75813007Y-41677497D01*
X75920757Y-42270120D02*
X76486442Y-41704434D01*
X76486442Y-41704434D02*
X76701942Y-41919934D01*
X76701942Y-41919934D02*
X76728879Y-42000746D01*
X76728879Y-42000746D02*
X76728879Y-42054621D01*
X76728879Y-42054621D02*
X76701942Y-42135433D01*
X76701942Y-42135433D02*
X76621129Y-42216245D01*
X76621129Y-42216245D02*
X76540317Y-42243182D01*
X76540317Y-42243182D02*
X76486442Y-42243182D01*
X76486442Y-42243182D02*
X76405630Y-42216245D01*
X76405630Y-42216245D02*
X76190131Y-42000746D01*
X76971316Y-42297057D02*
X77025190Y-42297057D01*
X77025190Y-42297057D02*
X77106003Y-42323995D01*
X77106003Y-42323995D02*
X77240690Y-42458682D01*
X77240690Y-42458682D02*
X77267627Y-42539494D01*
X77267627Y-42539494D02*
X77267627Y-42593369D01*
X77267627Y-42593369D02*
X77240690Y-42674181D01*
X77240690Y-42674181D02*
X77186815Y-42728056D01*
X77186815Y-42728056D02*
X77079065Y-42781930D01*
X77079065Y-42781930D02*
X76432568Y-42781930D01*
X76432568Y-42781930D02*
X76782754Y-43132117D01*
X77321502Y-43670865D02*
X76998253Y-43347616D01*
X77159878Y-43509240D02*
X77725563Y-42943555D01*
X77725563Y-42943555D02*
X77590876Y-42970492D01*
X77590876Y-42970492D02*
X77483126Y-42970492D01*
X77483126Y-42970492D02*
X77402314Y-42943555D01*
X38805944Y-41361936D02*
X38428820Y-42116183D01*
X38428820Y-42116183D02*
X39183068Y-41739060D01*
X38805944Y-42493307D02*
X39371629Y-41927621D01*
X39075317Y-42762680D02*
X39641003Y-42196995D01*
X39641003Y-42196995D02*
X39398566Y-43085929D01*
X39398566Y-43085929D02*
X39964252Y-42520244D01*
X58522505Y-53823372D02*
X58495568Y-53742560D01*
X58495568Y-53742560D02*
X58414756Y-53661748D01*
X58414756Y-53661748D02*
X58307006Y-53607873D01*
X58307006Y-53607873D02*
X58199257Y-53607873D01*
X58199257Y-53607873D02*
X58118444Y-53634810D01*
X58118444Y-53634810D02*
X57983757Y-53715623D01*
X57983757Y-53715623D02*
X57902945Y-53796435D01*
X57902945Y-53796435D02*
X57822133Y-53931122D01*
X57822133Y-53931122D02*
X57795196Y-54011934D01*
X57795196Y-54011934D02*
X57795196Y-54119684D01*
X57795196Y-54119684D02*
X57849070Y-54227433D01*
X57849070Y-54227433D02*
X57902945Y-54281308D01*
X57902945Y-54281308D02*
X58010695Y-54335183D01*
X58010695Y-54335183D02*
X58064570Y-54335183D01*
X58064570Y-54335183D02*
X58253131Y-54146621D01*
X58253131Y-54146621D02*
X58145382Y-54038871D01*
X58253131Y-54631494D02*
X58818817Y-54065809D01*
X58818817Y-54065809D02*
X59034316Y-54281308D01*
X59034316Y-54281308D02*
X59061253Y-54362120D01*
X59061253Y-54362120D02*
X59061253Y-54415995D01*
X59061253Y-54415995D02*
X59034316Y-54496807D01*
X59034316Y-54496807D02*
X58953504Y-54577619D01*
X58953504Y-54577619D02*
X58872692Y-54604557D01*
X58872692Y-54604557D02*
X58818817Y-54604557D01*
X58818817Y-54604557D02*
X58738005Y-54577619D01*
X58738005Y-54577619D02*
X58522505Y-54362120D01*
X59222878Y-54954743D02*
X59195940Y-54873931D01*
X59195940Y-54873931D02*
X59195940Y-54820056D01*
X59195940Y-54820056D02*
X59222878Y-54739244D01*
X59222878Y-54739244D02*
X59249815Y-54712306D01*
X59249815Y-54712306D02*
X59330627Y-54685369D01*
X59330627Y-54685369D02*
X59384502Y-54685369D01*
X59384502Y-54685369D02*
X59465314Y-54712306D01*
X59465314Y-54712306D02*
X59573064Y-54820056D01*
X59573064Y-54820056D02*
X59600001Y-54900868D01*
X59600001Y-54900868D02*
X59600001Y-54954743D01*
X59600001Y-54954743D02*
X59573064Y-55035555D01*
X59573064Y-55035555D02*
X59546127Y-55062493D01*
X59546127Y-55062493D02*
X59465314Y-55089430D01*
X59465314Y-55089430D02*
X59411440Y-55089430D01*
X59411440Y-55089430D02*
X59330627Y-55062493D01*
X59330627Y-55062493D02*
X59222878Y-54954743D01*
X59222878Y-54954743D02*
X59142066Y-54927806D01*
X59142066Y-54927806D02*
X59088191Y-54927806D01*
X59088191Y-54927806D02*
X59007379Y-54954743D01*
X59007379Y-54954743D02*
X58899629Y-55062493D01*
X58899629Y-55062493D02*
X58872692Y-55143305D01*
X58872692Y-55143305D02*
X58872692Y-55197180D01*
X58872692Y-55197180D02*
X58899629Y-55277992D01*
X58899629Y-55277992D02*
X59007379Y-55385741D01*
X59007379Y-55385741D02*
X59088191Y-55412679D01*
X59088191Y-55412679D02*
X59142066Y-55412679D01*
X59142066Y-55412679D02*
X59222878Y-55385741D01*
X59222878Y-55385741D02*
X59330627Y-55277992D01*
X59330627Y-55277992D02*
X59357565Y-55197180D01*
X59357565Y-55197180D02*
X59357565Y-55143305D01*
X59357565Y-55143305D02*
X59330627Y-55062493D01*
X68443131Y-53907998D02*
X68416194Y-53827185D01*
X68416194Y-53827185D02*
X68335381Y-53746373D01*
X68335381Y-53746373D02*
X68227632Y-53692498D01*
X68227632Y-53692498D02*
X68119882Y-53692498D01*
X68119882Y-53692498D02*
X68039070Y-53719436D01*
X68039070Y-53719436D02*
X67904383Y-53800248D01*
X67904383Y-53800248D02*
X67823571Y-53881060D01*
X67823571Y-53881060D02*
X67742758Y-54015747D01*
X67742758Y-54015747D02*
X67715821Y-54096560D01*
X67715821Y-54096560D02*
X67715821Y-54204309D01*
X67715821Y-54204309D02*
X67769696Y-54312059D01*
X67769696Y-54312059D02*
X67823571Y-54365934D01*
X67823571Y-54365934D02*
X67931320Y-54419808D01*
X67931320Y-54419808D02*
X67985195Y-54419808D01*
X67985195Y-54419808D02*
X68173757Y-54231247D01*
X68173757Y-54231247D02*
X68066007Y-54123497D01*
X68173757Y-54716120D02*
X68739442Y-54150434D01*
X68739442Y-54150434D02*
X68954942Y-54365934D01*
X68954942Y-54365934D02*
X68981879Y-54446746D01*
X68981879Y-54446746D02*
X68981879Y-54500621D01*
X68981879Y-54500621D02*
X68954942Y-54581433D01*
X68954942Y-54581433D02*
X68874129Y-54662245D01*
X68874129Y-54662245D02*
X68793317Y-54689182D01*
X68793317Y-54689182D02*
X68739442Y-54689182D01*
X68739442Y-54689182D02*
X68658630Y-54662245D01*
X68658630Y-54662245D02*
X68443131Y-54446746D01*
X69035754Y-55578117D02*
X68712505Y-55254868D01*
X68874129Y-55416492D02*
X69439815Y-54850807D01*
X69439815Y-54850807D02*
X69305128Y-54877744D01*
X69305128Y-54877744D02*
X69197378Y-54877744D01*
X69197378Y-54877744D02*
X69116566Y-54850807D01*
X69763064Y-55281805D02*
X69816939Y-55281805D01*
X69816939Y-55281805D02*
X69897751Y-55308743D01*
X69897751Y-55308743D02*
X70032438Y-55443430D01*
X70032438Y-55443430D02*
X70059375Y-55524242D01*
X70059375Y-55524242D02*
X70059375Y-55578117D01*
X70059375Y-55578117D02*
X70032438Y-55658929D01*
X70032438Y-55658929D02*
X69978563Y-55712804D01*
X69978563Y-55712804D02*
X69870813Y-55766679D01*
X69870813Y-55766679D02*
X69224316Y-55766679D01*
X69224316Y-55766679D02*
X69574502Y-56116865D01*
X45852505Y-53923372D02*
X45825568Y-53842560D01*
X45825568Y-53842560D02*
X45744756Y-53761748D01*
X45744756Y-53761748D02*
X45637006Y-53707873D01*
X45637006Y-53707873D02*
X45529257Y-53707873D01*
X45529257Y-53707873D02*
X45448444Y-53734810D01*
X45448444Y-53734810D02*
X45313757Y-53815623D01*
X45313757Y-53815623D02*
X45232945Y-53896435D01*
X45232945Y-53896435D02*
X45152133Y-54031122D01*
X45152133Y-54031122D02*
X45125196Y-54111934D01*
X45125196Y-54111934D02*
X45125196Y-54219684D01*
X45125196Y-54219684D02*
X45179070Y-54327433D01*
X45179070Y-54327433D02*
X45232945Y-54381308D01*
X45232945Y-54381308D02*
X45340695Y-54435183D01*
X45340695Y-54435183D02*
X45394570Y-54435183D01*
X45394570Y-54435183D02*
X45583131Y-54246621D01*
X45583131Y-54246621D02*
X45475382Y-54138871D01*
X45583131Y-54731494D02*
X46148817Y-54165809D01*
X46148817Y-54165809D02*
X46364316Y-54381308D01*
X46364316Y-54381308D02*
X46391253Y-54462120D01*
X46391253Y-54462120D02*
X46391253Y-54515995D01*
X46391253Y-54515995D02*
X46364316Y-54596807D01*
X46364316Y-54596807D02*
X46283504Y-54677619D01*
X46283504Y-54677619D02*
X46202692Y-54704557D01*
X46202692Y-54704557D02*
X46148817Y-54704557D01*
X46148817Y-54704557D02*
X46068005Y-54677619D01*
X46068005Y-54677619D02*
X45852505Y-54462120D01*
X46768377Y-55162493D02*
X46391253Y-55539616D01*
X46849189Y-54812306D02*
X46310441Y-55081680D01*
X46310441Y-55081680D02*
X46660627Y-55431867D01*
X43312505Y-54023372D02*
X43285568Y-53942560D01*
X43285568Y-53942560D02*
X43204756Y-53861748D01*
X43204756Y-53861748D02*
X43097006Y-53807873D01*
X43097006Y-53807873D02*
X42989257Y-53807873D01*
X42989257Y-53807873D02*
X42908444Y-53834810D01*
X42908444Y-53834810D02*
X42773757Y-53915623D01*
X42773757Y-53915623D02*
X42692945Y-53996435D01*
X42692945Y-53996435D02*
X42612133Y-54131122D01*
X42612133Y-54131122D02*
X42585196Y-54211934D01*
X42585196Y-54211934D02*
X42585196Y-54319684D01*
X42585196Y-54319684D02*
X42639070Y-54427433D01*
X42639070Y-54427433D02*
X42692945Y-54481308D01*
X42692945Y-54481308D02*
X42800695Y-54535183D01*
X42800695Y-54535183D02*
X42854570Y-54535183D01*
X42854570Y-54535183D02*
X43043131Y-54346621D01*
X43043131Y-54346621D02*
X42935382Y-54238871D01*
X43043131Y-54831494D02*
X43608817Y-54265809D01*
X43608817Y-54265809D02*
X43824316Y-54481308D01*
X43824316Y-54481308D02*
X43851253Y-54562120D01*
X43851253Y-54562120D02*
X43851253Y-54615995D01*
X43851253Y-54615995D02*
X43824316Y-54696807D01*
X43824316Y-54696807D02*
X43743504Y-54777619D01*
X43743504Y-54777619D02*
X43662692Y-54804557D01*
X43662692Y-54804557D02*
X43608817Y-54804557D01*
X43608817Y-54804557D02*
X43528005Y-54777619D01*
X43528005Y-54777619D02*
X43312505Y-54562120D01*
X44120627Y-54777619D02*
X44470814Y-55127806D01*
X44470814Y-55127806D02*
X44066753Y-55154743D01*
X44066753Y-55154743D02*
X44147565Y-55235555D01*
X44147565Y-55235555D02*
X44174502Y-55316367D01*
X44174502Y-55316367D02*
X44174502Y-55370242D01*
X44174502Y-55370242D02*
X44147565Y-55451054D01*
X44147565Y-55451054D02*
X44012878Y-55585741D01*
X44012878Y-55585741D02*
X43932066Y-55612679D01*
X43932066Y-55612679D02*
X43878191Y-55612679D01*
X43878191Y-55612679D02*
X43797379Y-55585741D01*
X43797379Y-55585741D02*
X43635754Y-55424117D01*
X43635754Y-55424117D02*
X43608817Y-55343305D01*
X43608817Y-55343305D02*
X43608817Y-55289430D01*
X73777131Y-41534998D02*
X73750194Y-41454185D01*
X73750194Y-41454185D02*
X73669381Y-41373373D01*
X73669381Y-41373373D02*
X73561632Y-41319498D01*
X73561632Y-41319498D02*
X73453882Y-41319498D01*
X73453882Y-41319498D02*
X73373070Y-41346436D01*
X73373070Y-41346436D02*
X73238383Y-41427248D01*
X73238383Y-41427248D02*
X73157571Y-41508060D01*
X73157571Y-41508060D02*
X73076758Y-41642747D01*
X73076758Y-41642747D02*
X73049821Y-41723560D01*
X73049821Y-41723560D02*
X73049821Y-41831309D01*
X73049821Y-41831309D02*
X73103696Y-41939059D01*
X73103696Y-41939059D02*
X73157571Y-41992934D01*
X73157571Y-41992934D02*
X73265320Y-42046808D01*
X73265320Y-42046808D02*
X73319195Y-42046808D01*
X73319195Y-42046808D02*
X73507757Y-41858247D01*
X73507757Y-41858247D02*
X73400007Y-41750497D01*
X73507757Y-42343120D02*
X74073442Y-41777434D01*
X74073442Y-41777434D02*
X74288942Y-41992934D01*
X74288942Y-41992934D02*
X74315879Y-42073746D01*
X74315879Y-42073746D02*
X74315879Y-42127621D01*
X74315879Y-42127621D02*
X74288942Y-42208433D01*
X74288942Y-42208433D02*
X74208129Y-42289245D01*
X74208129Y-42289245D02*
X74127317Y-42316182D01*
X74127317Y-42316182D02*
X74073442Y-42316182D01*
X74073442Y-42316182D02*
X73992630Y-42289245D01*
X73992630Y-42289245D02*
X73777131Y-42073746D01*
X74558316Y-42370057D02*
X74612190Y-42370057D01*
X74612190Y-42370057D02*
X74693003Y-42396995D01*
X74693003Y-42396995D02*
X74827690Y-42531682D01*
X74827690Y-42531682D02*
X74854627Y-42612494D01*
X74854627Y-42612494D02*
X74854627Y-42666369D01*
X74854627Y-42666369D02*
X74827690Y-42747181D01*
X74827690Y-42747181D02*
X74773815Y-42801056D01*
X74773815Y-42801056D02*
X74666065Y-42854930D01*
X74666065Y-42854930D02*
X74019568Y-42854930D01*
X74019568Y-42854930D02*
X74369754Y-43205117D01*
X75097064Y-42908805D02*
X75150939Y-42908805D01*
X75150939Y-42908805D02*
X75231751Y-42935743D01*
X75231751Y-42935743D02*
X75366438Y-43070430D01*
X75366438Y-43070430D02*
X75393375Y-43151242D01*
X75393375Y-43151242D02*
X75393375Y-43205117D01*
X75393375Y-43205117D02*
X75366438Y-43285929D01*
X75366438Y-43285929D02*
X75312563Y-43339804D01*
X75312563Y-43339804D02*
X75204813Y-43393679D01*
X75204813Y-43393679D02*
X74558316Y-43393679D01*
X74558316Y-43393679D02*
X74908502Y-43743865D01*
X63170759Y-41588873D02*
X63440133Y-41858247D01*
X62955260Y-41696623D02*
X63709507Y-41319499D01*
X63709507Y-41319499D02*
X63332384Y-42073746D01*
X64356005Y-42019871D02*
X64329067Y-41939059D01*
X64329067Y-41939059D02*
X64248255Y-41858247D01*
X64248255Y-41858247D02*
X64140505Y-41804372D01*
X64140505Y-41804372D02*
X64032756Y-41804372D01*
X64032756Y-41804372D02*
X63951944Y-41831310D01*
X63951944Y-41831310D02*
X63817257Y-41912122D01*
X63817257Y-41912122D02*
X63736444Y-41992934D01*
X63736444Y-41992934D02*
X63655632Y-42127621D01*
X63655632Y-42127621D02*
X63628695Y-42208433D01*
X63628695Y-42208433D02*
X63628695Y-42316183D01*
X63628695Y-42316183D02*
X63682570Y-42423932D01*
X63682570Y-42423932D02*
X63736444Y-42477807D01*
X63736444Y-42477807D02*
X63844194Y-42531682D01*
X63844194Y-42531682D02*
X63898069Y-42531682D01*
X63898069Y-42531682D02*
X64086631Y-42343120D01*
X64086631Y-42343120D02*
X63978881Y-42235371D01*
X64086631Y-42827993D02*
X64652316Y-42262308D01*
X64652316Y-42262308D02*
X64409879Y-43151242D01*
X64409879Y-43151242D02*
X64975565Y-42585557D01*
X64679253Y-43420616D02*
X65244939Y-42854931D01*
X65244939Y-42854931D02*
X65379626Y-42989618D01*
X65379626Y-42989618D02*
X65433501Y-43097367D01*
X65433501Y-43097367D02*
X65433501Y-43205117D01*
X65433501Y-43205117D02*
X65406563Y-43285929D01*
X65406563Y-43285929D02*
X65325751Y-43420616D01*
X65325751Y-43420616D02*
X65244939Y-43501428D01*
X65244939Y-43501428D02*
X65110252Y-43582241D01*
X65110252Y-43582241D02*
X65029439Y-43609178D01*
X65029439Y-43609178D02*
X64921690Y-43609178D01*
X64921690Y-43609178D02*
X64813940Y-43555303D01*
X64813940Y-43555303D02*
X64679253Y-43420616D01*
X50932505Y-53923372D02*
X50905568Y-53842560D01*
X50905568Y-53842560D02*
X50824756Y-53761748D01*
X50824756Y-53761748D02*
X50717006Y-53707873D01*
X50717006Y-53707873D02*
X50609257Y-53707873D01*
X50609257Y-53707873D02*
X50528444Y-53734810D01*
X50528444Y-53734810D02*
X50393757Y-53815623D01*
X50393757Y-53815623D02*
X50312945Y-53896435D01*
X50312945Y-53896435D02*
X50232133Y-54031122D01*
X50232133Y-54031122D02*
X50205196Y-54111934D01*
X50205196Y-54111934D02*
X50205196Y-54219684D01*
X50205196Y-54219684D02*
X50259070Y-54327433D01*
X50259070Y-54327433D02*
X50312945Y-54381308D01*
X50312945Y-54381308D02*
X50420695Y-54435183D01*
X50420695Y-54435183D02*
X50474570Y-54435183D01*
X50474570Y-54435183D02*
X50663131Y-54246621D01*
X50663131Y-54246621D02*
X50555382Y-54138871D01*
X50663131Y-54731494D02*
X51228817Y-54165809D01*
X51228817Y-54165809D02*
X51444316Y-54381308D01*
X51444316Y-54381308D02*
X51471253Y-54462120D01*
X51471253Y-54462120D02*
X51471253Y-54515995D01*
X51471253Y-54515995D02*
X51444316Y-54596807D01*
X51444316Y-54596807D02*
X51363504Y-54677619D01*
X51363504Y-54677619D02*
X51282692Y-54704557D01*
X51282692Y-54704557D02*
X51228817Y-54704557D01*
X51228817Y-54704557D02*
X51148005Y-54677619D01*
X51148005Y-54677619D02*
X50932505Y-54462120D01*
X52063876Y-55000868D02*
X51794502Y-54731494D01*
X51794502Y-54731494D02*
X51498191Y-54973931D01*
X51498191Y-54973931D02*
X51552066Y-54973931D01*
X51552066Y-54973931D02*
X51632878Y-55000868D01*
X51632878Y-55000868D02*
X51767565Y-55135555D01*
X51767565Y-55135555D02*
X51794502Y-55216367D01*
X51794502Y-55216367D02*
X51794502Y-55270242D01*
X51794502Y-55270242D02*
X51767565Y-55351054D01*
X51767565Y-55351054D02*
X51632878Y-55485741D01*
X51632878Y-55485741D02*
X51552066Y-55512679D01*
X51552066Y-55512679D02*
X51498191Y-55512679D01*
X51498191Y-55512679D02*
X51417379Y-55485741D01*
X51417379Y-55485741D02*
X51282692Y-55351054D01*
X51282692Y-55351054D02*
X51255754Y-55270242D01*
X51255754Y-55270242D02*
X51255754Y-55216367D01*
X53527131Y-41661998D02*
X53500194Y-41581185D01*
X53500194Y-41581185D02*
X53419381Y-41500373D01*
X53419381Y-41500373D02*
X53311632Y-41446498D01*
X53311632Y-41446498D02*
X53203882Y-41446498D01*
X53203882Y-41446498D02*
X53123070Y-41473436D01*
X53123070Y-41473436D02*
X52988383Y-41554248D01*
X52988383Y-41554248D02*
X52907571Y-41635060D01*
X52907571Y-41635060D02*
X52826758Y-41769747D01*
X52826758Y-41769747D02*
X52799821Y-41850560D01*
X52799821Y-41850560D02*
X52799821Y-41958309D01*
X52799821Y-41958309D02*
X52853696Y-42066059D01*
X52853696Y-42066059D02*
X52907571Y-42119934D01*
X52907571Y-42119934D02*
X53015320Y-42173808D01*
X53015320Y-42173808D02*
X53069195Y-42173808D01*
X53069195Y-42173808D02*
X53257757Y-41985247D01*
X53257757Y-41985247D02*
X53150007Y-41877497D01*
X53257757Y-42470120D02*
X53823442Y-41904434D01*
X53823442Y-41904434D02*
X54038942Y-42119934D01*
X54038942Y-42119934D02*
X54065879Y-42200746D01*
X54065879Y-42200746D02*
X54065879Y-42254621D01*
X54065879Y-42254621D02*
X54038942Y-42335433D01*
X54038942Y-42335433D02*
X53958129Y-42416245D01*
X53958129Y-42416245D02*
X53877317Y-42443182D01*
X53877317Y-42443182D02*
X53823442Y-42443182D01*
X53823442Y-42443182D02*
X53742630Y-42416245D01*
X53742630Y-42416245D02*
X53527131Y-42200746D01*
X54308316Y-42497057D02*
X54362190Y-42497057D01*
X54362190Y-42497057D02*
X54443003Y-42523995D01*
X54443003Y-42523995D02*
X54577690Y-42658682D01*
X54577690Y-42658682D02*
X54604627Y-42739494D01*
X54604627Y-42739494D02*
X54604627Y-42793369D01*
X54604627Y-42793369D02*
X54577690Y-42874181D01*
X54577690Y-42874181D02*
X54523815Y-42928056D01*
X54523815Y-42928056D02*
X54416065Y-42981930D01*
X54416065Y-42981930D02*
X53769568Y-42981930D01*
X53769568Y-42981930D02*
X54119754Y-43332117D01*
X54389128Y-43601491D02*
X54496878Y-43709240D01*
X54496878Y-43709240D02*
X54577690Y-43736178D01*
X54577690Y-43736178D02*
X54631565Y-43736178D01*
X54631565Y-43736178D02*
X54766252Y-43709240D01*
X54766252Y-43709240D02*
X54900939Y-43628428D01*
X54900939Y-43628428D02*
X55116438Y-43412929D01*
X55116438Y-43412929D02*
X55143375Y-43332117D01*
X55143375Y-43332117D02*
X55143375Y-43278242D01*
X55143375Y-43278242D02*
X55116438Y-43197430D01*
X55116438Y-43197430D02*
X55008688Y-43089680D01*
X55008688Y-43089680D02*
X54927876Y-43062743D01*
X54927876Y-43062743D02*
X54874001Y-43062743D01*
X54874001Y-43062743D02*
X54793189Y-43089680D01*
X54793189Y-43089680D02*
X54658502Y-43224367D01*
X54658502Y-43224367D02*
X54631565Y-43305179D01*
X54631565Y-43305179D02*
X54631565Y-43359054D01*
X54631565Y-43359054D02*
X54658502Y-43439866D01*
X54658502Y-43439866D02*
X54766252Y-43547616D01*
X54766252Y-43547616D02*
X54847064Y-43574553D01*
X54847064Y-43574553D02*
X54900939Y-43574553D01*
X54900939Y-43574553D02*
X54981751Y-43547616D01*
X71237131Y-41534998D02*
X71210194Y-41454185D01*
X71210194Y-41454185D02*
X71129381Y-41373373D01*
X71129381Y-41373373D02*
X71021632Y-41319498D01*
X71021632Y-41319498D02*
X70913882Y-41319498D01*
X70913882Y-41319498D02*
X70833070Y-41346436D01*
X70833070Y-41346436D02*
X70698383Y-41427248D01*
X70698383Y-41427248D02*
X70617571Y-41508060D01*
X70617571Y-41508060D02*
X70536758Y-41642747D01*
X70536758Y-41642747D02*
X70509821Y-41723560D01*
X70509821Y-41723560D02*
X70509821Y-41831309D01*
X70509821Y-41831309D02*
X70563696Y-41939059D01*
X70563696Y-41939059D02*
X70617571Y-41992934D01*
X70617571Y-41992934D02*
X70725320Y-42046808D01*
X70725320Y-42046808D02*
X70779195Y-42046808D01*
X70779195Y-42046808D02*
X70967757Y-41858247D01*
X70967757Y-41858247D02*
X70860007Y-41750497D01*
X70967757Y-42343120D02*
X71533442Y-41777434D01*
X71533442Y-41777434D02*
X71748942Y-41992934D01*
X71748942Y-41992934D02*
X71775879Y-42073746D01*
X71775879Y-42073746D02*
X71775879Y-42127621D01*
X71775879Y-42127621D02*
X71748942Y-42208433D01*
X71748942Y-42208433D02*
X71668129Y-42289245D01*
X71668129Y-42289245D02*
X71587317Y-42316182D01*
X71587317Y-42316182D02*
X71533442Y-42316182D01*
X71533442Y-42316182D02*
X71452630Y-42289245D01*
X71452630Y-42289245D02*
X71237131Y-42073746D01*
X72018316Y-42370057D02*
X72072190Y-42370057D01*
X72072190Y-42370057D02*
X72153003Y-42396995D01*
X72153003Y-42396995D02*
X72287690Y-42531682D01*
X72287690Y-42531682D02*
X72314627Y-42612494D01*
X72314627Y-42612494D02*
X72314627Y-42666369D01*
X72314627Y-42666369D02*
X72287690Y-42747181D01*
X72287690Y-42747181D02*
X72233815Y-42801056D01*
X72233815Y-42801056D02*
X72126065Y-42854930D01*
X72126065Y-42854930D02*
X71479568Y-42854930D01*
X71479568Y-42854930D02*
X71829754Y-43205117D01*
X72584001Y-42827993D02*
X72934187Y-43178179D01*
X72934187Y-43178179D02*
X72530126Y-43205117D01*
X72530126Y-43205117D02*
X72610939Y-43285929D01*
X72610939Y-43285929D02*
X72637876Y-43366741D01*
X72637876Y-43366741D02*
X72637876Y-43420616D01*
X72637876Y-43420616D02*
X72610939Y-43501428D01*
X72610939Y-43501428D02*
X72476252Y-43636115D01*
X72476252Y-43636115D02*
X72395439Y-43663053D01*
X72395439Y-43663053D02*
X72341565Y-43663053D01*
X72341565Y-43663053D02*
X72260752Y-43636115D01*
X72260752Y-43636115D02*
X72099128Y-43474491D01*
X72099128Y-43474491D02*
X72072191Y-43393679D01*
X72072191Y-43393679D02*
X72072191Y-43339804D01*
X78603131Y-53907998D02*
X78576194Y-53827185D01*
X78576194Y-53827185D02*
X78495381Y-53746373D01*
X78495381Y-53746373D02*
X78387632Y-53692498D01*
X78387632Y-53692498D02*
X78279882Y-53692498D01*
X78279882Y-53692498D02*
X78199070Y-53719436D01*
X78199070Y-53719436D02*
X78064383Y-53800248D01*
X78064383Y-53800248D02*
X77983571Y-53881060D01*
X77983571Y-53881060D02*
X77902758Y-54015747D01*
X77902758Y-54015747D02*
X77875821Y-54096560D01*
X77875821Y-54096560D02*
X77875821Y-54204309D01*
X77875821Y-54204309D02*
X77929696Y-54312059D01*
X77929696Y-54312059D02*
X77983571Y-54365934D01*
X77983571Y-54365934D02*
X78091320Y-54419808D01*
X78091320Y-54419808D02*
X78145195Y-54419808D01*
X78145195Y-54419808D02*
X78333757Y-54231247D01*
X78333757Y-54231247D02*
X78226007Y-54123497D01*
X78333757Y-54716120D02*
X78899442Y-54150434D01*
X78899442Y-54150434D02*
X79114942Y-54365934D01*
X79114942Y-54365934D02*
X79141879Y-54446746D01*
X79141879Y-54446746D02*
X79141879Y-54500621D01*
X79141879Y-54500621D02*
X79114942Y-54581433D01*
X79114942Y-54581433D02*
X79034129Y-54662245D01*
X79034129Y-54662245D02*
X78953317Y-54689182D01*
X78953317Y-54689182D02*
X78899442Y-54689182D01*
X78899442Y-54689182D02*
X78818630Y-54662245D01*
X78818630Y-54662245D02*
X78603131Y-54446746D01*
X79195754Y-55578117D02*
X78872505Y-55254868D01*
X79034129Y-55416492D02*
X79599815Y-54850807D01*
X79599815Y-54850807D02*
X79465128Y-54877744D01*
X79465128Y-54877744D02*
X79357378Y-54877744D01*
X79357378Y-54877744D02*
X79276566Y-54850807D01*
X80273250Y-55524242D02*
X80003876Y-55254868D01*
X80003876Y-55254868D02*
X79707565Y-55497305D01*
X79707565Y-55497305D02*
X79761439Y-55497305D01*
X79761439Y-55497305D02*
X79842252Y-55524242D01*
X79842252Y-55524242D02*
X79976939Y-55658929D01*
X79976939Y-55658929D02*
X80003876Y-55739741D01*
X80003876Y-55739741D02*
X80003876Y-55793616D01*
X80003876Y-55793616D02*
X79976939Y-55874428D01*
X79976939Y-55874428D02*
X79842252Y-56009115D01*
X79842252Y-56009115D02*
X79761439Y-56036053D01*
X79761439Y-56036053D02*
X79707565Y-56036053D01*
X79707565Y-56036053D02*
X79626752Y-56009115D01*
X79626752Y-56009115D02*
X79492065Y-55874428D01*
X79492065Y-55874428D02*
X79465128Y-55793616D01*
X79465128Y-55793616D02*
X79465128Y-55739741D01*
X48365568Y-53896435D02*
X48338631Y-53815623D01*
X48338631Y-53815623D02*
X48257819Y-53734811D01*
X48257819Y-53734811D02*
X48150069Y-53680936D01*
X48150069Y-53680936D02*
X48042319Y-53680936D01*
X48042319Y-53680936D02*
X47961507Y-53707873D01*
X47961507Y-53707873D02*
X47826820Y-53788685D01*
X47826820Y-53788685D02*
X47746008Y-53869498D01*
X47746008Y-53869498D02*
X47665196Y-54004185D01*
X47665196Y-54004185D02*
X47638258Y-54084997D01*
X47638258Y-54084997D02*
X47638258Y-54192746D01*
X47638258Y-54192746D02*
X47692133Y-54300496D01*
X47692133Y-54300496D02*
X47746008Y-54354371D01*
X47746008Y-54354371D02*
X47853758Y-54408246D01*
X47853758Y-54408246D02*
X47907632Y-54408246D01*
X47907632Y-54408246D02*
X48096194Y-54219684D01*
X48096194Y-54219684D02*
X47988445Y-54111934D01*
X48096194Y-54704557D02*
X48661880Y-54138872D01*
X48661880Y-54138872D02*
X48419443Y-55027806D01*
X48419443Y-55027806D02*
X48985128Y-54462120D01*
X48688817Y-55297180D02*
X49254502Y-54731494D01*
X49254502Y-54731494D02*
X49389189Y-54866181D01*
X49389189Y-54866181D02*
X49443064Y-54973931D01*
X49443064Y-54973931D02*
X49443064Y-55081680D01*
X49443064Y-55081680D02*
X49416127Y-55162493D01*
X49416127Y-55162493D02*
X49335314Y-55297180D01*
X49335314Y-55297180D02*
X49254502Y-55377992D01*
X49254502Y-55377992D02*
X49119815Y-55458804D01*
X49119815Y-55458804D02*
X49039003Y-55485741D01*
X49039003Y-55485741D02*
X48931253Y-55485741D01*
X48931253Y-55485741D02*
X48823504Y-55431867D01*
X48823504Y-55431867D02*
X48688817Y-55297180D01*
X71225568Y-53896435D02*
X71198631Y-53815623D01*
X71198631Y-53815623D02*
X71117819Y-53734811D01*
X71117819Y-53734811D02*
X71010069Y-53680936D01*
X71010069Y-53680936D02*
X70902319Y-53680936D01*
X70902319Y-53680936D02*
X70821507Y-53707873D01*
X70821507Y-53707873D02*
X70686820Y-53788685D01*
X70686820Y-53788685D02*
X70606008Y-53869498D01*
X70606008Y-53869498D02*
X70525196Y-54004185D01*
X70525196Y-54004185D02*
X70498258Y-54084997D01*
X70498258Y-54084997D02*
X70498258Y-54192746D01*
X70498258Y-54192746D02*
X70552133Y-54300496D01*
X70552133Y-54300496D02*
X70606008Y-54354371D01*
X70606008Y-54354371D02*
X70713758Y-54408246D01*
X70713758Y-54408246D02*
X70767632Y-54408246D01*
X70767632Y-54408246D02*
X70956194Y-54219684D01*
X70956194Y-54219684D02*
X70848445Y-54111934D01*
X70956194Y-54704557D02*
X71521880Y-54138872D01*
X71521880Y-54138872D02*
X71279443Y-55027806D01*
X71279443Y-55027806D02*
X71845128Y-54462120D01*
X71548817Y-55297180D02*
X72114502Y-54731494D01*
X72114502Y-54731494D02*
X72249189Y-54866181D01*
X72249189Y-54866181D02*
X72303064Y-54973931D01*
X72303064Y-54973931D02*
X72303064Y-55081680D01*
X72303064Y-55081680D02*
X72276127Y-55162493D01*
X72276127Y-55162493D02*
X72195314Y-55297180D01*
X72195314Y-55297180D02*
X72114502Y-55377992D01*
X72114502Y-55377992D02*
X71979815Y-55458804D01*
X71979815Y-55458804D02*
X71899003Y-55485741D01*
X71899003Y-55485741D02*
X71791253Y-55485741D01*
X71791253Y-55485741D02*
X71683504Y-55431867D01*
X71683504Y-55431867D02*
X71548817Y-55297180D01*
X38222505Y-54023372D02*
X38195568Y-53942560D01*
X38195568Y-53942560D02*
X38114756Y-53861748D01*
X38114756Y-53861748D02*
X38007006Y-53807873D01*
X38007006Y-53807873D02*
X37899257Y-53807873D01*
X37899257Y-53807873D02*
X37818444Y-53834810D01*
X37818444Y-53834810D02*
X37683757Y-53915623D01*
X37683757Y-53915623D02*
X37602945Y-53996435D01*
X37602945Y-53996435D02*
X37522133Y-54131122D01*
X37522133Y-54131122D02*
X37495196Y-54211934D01*
X37495196Y-54211934D02*
X37495196Y-54319684D01*
X37495196Y-54319684D02*
X37549070Y-54427433D01*
X37549070Y-54427433D02*
X37602945Y-54481308D01*
X37602945Y-54481308D02*
X37710695Y-54535183D01*
X37710695Y-54535183D02*
X37764570Y-54535183D01*
X37764570Y-54535183D02*
X37953131Y-54346621D01*
X37953131Y-54346621D02*
X37845382Y-54238871D01*
X37953131Y-54831494D02*
X38518817Y-54265809D01*
X38518817Y-54265809D02*
X38734316Y-54481308D01*
X38734316Y-54481308D02*
X38761253Y-54562120D01*
X38761253Y-54562120D02*
X38761253Y-54615995D01*
X38761253Y-54615995D02*
X38734316Y-54696807D01*
X38734316Y-54696807D02*
X38653504Y-54777619D01*
X38653504Y-54777619D02*
X38572692Y-54804557D01*
X38572692Y-54804557D02*
X38518817Y-54804557D01*
X38518817Y-54804557D02*
X38438005Y-54777619D01*
X38438005Y-54777619D02*
X38222505Y-54562120D01*
X38815128Y-55693491D02*
X38491879Y-55370242D01*
X38653504Y-55531867D02*
X39219189Y-54966181D01*
X39219189Y-54966181D02*
X39084502Y-54993119D01*
X39084502Y-54993119D02*
X38976753Y-54993119D01*
X38976753Y-54993119D02*
X38895940Y-54966181D01*
X45583131Y-41662123D02*
X45933317Y-42012309D01*
X45933317Y-42012309D02*
X45529256Y-42039247D01*
X45529256Y-42039247D02*
X45610068Y-42120059D01*
X45610068Y-42120059D02*
X45637006Y-42200871D01*
X45637006Y-42200871D02*
X45637006Y-42254746D01*
X45637006Y-42254746D02*
X45610068Y-42335558D01*
X45610068Y-42335558D02*
X45475381Y-42470245D01*
X45475381Y-42470245D02*
X45394569Y-42497182D01*
X45394569Y-42497182D02*
X45340694Y-42497182D01*
X45340694Y-42497182D02*
X45259882Y-42470245D01*
X45259882Y-42470245D02*
X45098258Y-42308621D01*
X45098258Y-42308621D02*
X45071320Y-42227808D01*
X45071320Y-42227808D02*
X45071320Y-42173934D01*
X46094942Y-42173934D02*
X45717818Y-42928181D01*
X45717818Y-42928181D02*
X46472065Y-42551057D01*
X46606752Y-42685744D02*
X46956938Y-43035930D01*
X46956938Y-43035930D02*
X46552877Y-43062868D01*
X46552877Y-43062868D02*
X46633690Y-43143680D01*
X46633690Y-43143680D02*
X46660627Y-43224492D01*
X46660627Y-43224492D02*
X46660627Y-43278367D01*
X46660627Y-43278367D02*
X46633690Y-43359179D01*
X46633690Y-43359179D02*
X46499003Y-43493866D01*
X46499003Y-43493866D02*
X46418190Y-43520804D01*
X46418190Y-43520804D02*
X46364316Y-43520804D01*
X46364316Y-43520804D02*
X46283503Y-43493866D01*
X46283503Y-43493866D02*
X46121879Y-43332242D01*
X46121879Y-43332242D02*
X46094942Y-43251430D01*
X46094942Y-43251430D02*
X46094942Y-43197555D01*
X83683131Y-53907998D02*
X83656194Y-53827185D01*
X83656194Y-53827185D02*
X83575381Y-53746373D01*
X83575381Y-53746373D02*
X83467632Y-53692498D01*
X83467632Y-53692498D02*
X83359882Y-53692498D01*
X83359882Y-53692498D02*
X83279070Y-53719436D01*
X83279070Y-53719436D02*
X83144383Y-53800248D01*
X83144383Y-53800248D02*
X83063571Y-53881060D01*
X83063571Y-53881060D02*
X82982758Y-54015747D01*
X82982758Y-54015747D02*
X82955821Y-54096560D01*
X82955821Y-54096560D02*
X82955821Y-54204309D01*
X82955821Y-54204309D02*
X83009696Y-54312059D01*
X83009696Y-54312059D02*
X83063571Y-54365934D01*
X83063571Y-54365934D02*
X83171320Y-54419808D01*
X83171320Y-54419808D02*
X83225195Y-54419808D01*
X83225195Y-54419808D02*
X83413757Y-54231247D01*
X83413757Y-54231247D02*
X83306007Y-54123497D01*
X83413757Y-54716120D02*
X83979442Y-54150434D01*
X83979442Y-54150434D02*
X84194942Y-54365934D01*
X84194942Y-54365934D02*
X84221879Y-54446746D01*
X84221879Y-54446746D02*
X84221879Y-54500621D01*
X84221879Y-54500621D02*
X84194942Y-54581433D01*
X84194942Y-54581433D02*
X84114129Y-54662245D01*
X84114129Y-54662245D02*
X84033317Y-54689182D01*
X84033317Y-54689182D02*
X83979442Y-54689182D01*
X83979442Y-54689182D02*
X83898630Y-54662245D01*
X83898630Y-54662245D02*
X83683131Y-54446746D01*
X84275754Y-55578117D02*
X83952505Y-55254868D01*
X84114129Y-55416492D02*
X84679815Y-54850807D01*
X84679815Y-54850807D02*
X84545128Y-54877744D01*
X84545128Y-54877744D02*
X84437378Y-54877744D01*
X84437378Y-54877744D02*
X84356566Y-54850807D01*
X85030001Y-55200993D02*
X85407125Y-55578117D01*
X85407125Y-55578117D02*
X84599003Y-55901366D01*
X35692505Y-53923372D02*
X35665568Y-53842560D01*
X35665568Y-53842560D02*
X35584756Y-53761748D01*
X35584756Y-53761748D02*
X35477006Y-53707873D01*
X35477006Y-53707873D02*
X35369257Y-53707873D01*
X35369257Y-53707873D02*
X35288444Y-53734810D01*
X35288444Y-53734810D02*
X35153757Y-53815623D01*
X35153757Y-53815623D02*
X35072945Y-53896435D01*
X35072945Y-53896435D02*
X34992133Y-54031122D01*
X34992133Y-54031122D02*
X34965196Y-54111934D01*
X34965196Y-54111934D02*
X34965196Y-54219684D01*
X34965196Y-54219684D02*
X35019070Y-54327433D01*
X35019070Y-54327433D02*
X35072945Y-54381308D01*
X35072945Y-54381308D02*
X35180695Y-54435183D01*
X35180695Y-54435183D02*
X35234570Y-54435183D01*
X35234570Y-54435183D02*
X35423131Y-54246621D01*
X35423131Y-54246621D02*
X35315382Y-54138871D01*
X35423131Y-54731494D02*
X35988817Y-54165809D01*
X35988817Y-54165809D02*
X36204316Y-54381308D01*
X36204316Y-54381308D02*
X36231253Y-54462120D01*
X36231253Y-54462120D02*
X36231253Y-54515995D01*
X36231253Y-54515995D02*
X36204316Y-54596807D01*
X36204316Y-54596807D02*
X36123504Y-54677619D01*
X36123504Y-54677619D02*
X36042692Y-54704557D01*
X36042692Y-54704557D02*
X35988817Y-54704557D01*
X35988817Y-54704557D02*
X35908005Y-54677619D01*
X35908005Y-54677619D02*
X35692505Y-54462120D01*
X36662252Y-54839244D02*
X36716127Y-54893119D01*
X36716127Y-54893119D02*
X36743064Y-54973931D01*
X36743064Y-54973931D02*
X36743064Y-55027806D01*
X36743064Y-55027806D02*
X36716127Y-55108618D01*
X36716127Y-55108618D02*
X36635314Y-55243305D01*
X36635314Y-55243305D02*
X36500627Y-55377992D01*
X36500627Y-55377992D02*
X36365940Y-55458804D01*
X36365940Y-55458804D02*
X36285128Y-55485741D01*
X36285128Y-55485741D02*
X36231253Y-55485741D01*
X36231253Y-55485741D02*
X36150441Y-55458804D01*
X36150441Y-55458804D02*
X36096566Y-55404929D01*
X36096566Y-55404929D02*
X36069629Y-55324117D01*
X36069629Y-55324117D02*
X36069629Y-55270242D01*
X36069629Y-55270242D02*
X36096566Y-55189430D01*
X36096566Y-55189430D02*
X36177379Y-55054743D01*
X36177379Y-55054743D02*
X36312066Y-54920056D01*
X36312066Y-54920056D02*
X36446753Y-54839244D01*
X36446753Y-54839244D02*
X36527565Y-54812306D01*
X36527565Y-54812306D02*
X36581440Y-54812306D01*
X36581440Y-54812306D02*
X36662252Y-54839244D01*
X81143131Y-53953998D02*
X81116194Y-53873185D01*
X81116194Y-53873185D02*
X81035381Y-53792373D01*
X81035381Y-53792373D02*
X80927632Y-53738498D01*
X80927632Y-53738498D02*
X80819882Y-53738498D01*
X80819882Y-53738498D02*
X80739070Y-53765436D01*
X80739070Y-53765436D02*
X80604383Y-53846248D01*
X80604383Y-53846248D02*
X80523571Y-53927060D01*
X80523571Y-53927060D02*
X80442758Y-54061747D01*
X80442758Y-54061747D02*
X80415821Y-54142560D01*
X80415821Y-54142560D02*
X80415821Y-54250309D01*
X80415821Y-54250309D02*
X80469696Y-54358059D01*
X80469696Y-54358059D02*
X80523571Y-54411934D01*
X80523571Y-54411934D02*
X80631320Y-54465808D01*
X80631320Y-54465808D02*
X80685195Y-54465808D01*
X80685195Y-54465808D02*
X80873757Y-54277247D01*
X80873757Y-54277247D02*
X80766007Y-54169497D01*
X80873757Y-54762120D02*
X81439442Y-54196434D01*
X81439442Y-54196434D02*
X81654942Y-54411934D01*
X81654942Y-54411934D02*
X81681879Y-54492746D01*
X81681879Y-54492746D02*
X81681879Y-54546621D01*
X81681879Y-54546621D02*
X81654942Y-54627433D01*
X81654942Y-54627433D02*
X81574129Y-54708245D01*
X81574129Y-54708245D02*
X81493317Y-54735182D01*
X81493317Y-54735182D02*
X81439442Y-54735182D01*
X81439442Y-54735182D02*
X81358630Y-54708245D01*
X81358630Y-54708245D02*
X81143131Y-54492746D01*
X81735754Y-55624117D02*
X81412505Y-55300868D01*
X81574129Y-55462492D02*
X82139815Y-54896807D01*
X82139815Y-54896807D02*
X82005128Y-54923744D01*
X82005128Y-54923744D02*
X81897378Y-54923744D01*
X81897378Y-54923744D02*
X81816566Y-54896807D01*
X82786313Y-55543305D02*
X82678563Y-55435555D01*
X82678563Y-55435555D02*
X82597751Y-55408618D01*
X82597751Y-55408618D02*
X82543876Y-55408618D01*
X82543876Y-55408618D02*
X82409189Y-55435555D01*
X82409189Y-55435555D02*
X82274502Y-55516367D01*
X82274502Y-55516367D02*
X82059003Y-55731866D01*
X82059003Y-55731866D02*
X82032065Y-55812679D01*
X82032065Y-55812679D02*
X82032065Y-55866553D01*
X82032065Y-55866553D02*
X82059003Y-55947366D01*
X82059003Y-55947366D02*
X82166752Y-56055115D01*
X82166752Y-56055115D02*
X82247565Y-56082053D01*
X82247565Y-56082053D02*
X82301439Y-56082053D01*
X82301439Y-56082053D02*
X82382252Y-56055115D01*
X82382252Y-56055115D02*
X82516939Y-55920428D01*
X82516939Y-55920428D02*
X82543876Y-55839616D01*
X82543876Y-55839616D02*
X82543876Y-55785741D01*
X82543876Y-55785741D02*
X82516939Y-55704929D01*
X82516939Y-55704929D02*
X82409189Y-55597179D01*
X82409189Y-55597179D02*
X82328377Y-55570242D01*
X82328377Y-55570242D02*
X82274502Y-55570242D01*
X82274502Y-55570242D02*
X82193690Y-55597179D01*
X56077131Y-41661998D02*
X56050194Y-41581185D01*
X56050194Y-41581185D02*
X55969381Y-41500373D01*
X55969381Y-41500373D02*
X55861632Y-41446498D01*
X55861632Y-41446498D02*
X55753882Y-41446498D01*
X55753882Y-41446498D02*
X55673070Y-41473436D01*
X55673070Y-41473436D02*
X55538383Y-41554248D01*
X55538383Y-41554248D02*
X55457571Y-41635060D01*
X55457571Y-41635060D02*
X55376758Y-41769747D01*
X55376758Y-41769747D02*
X55349821Y-41850560D01*
X55349821Y-41850560D02*
X55349821Y-41958309D01*
X55349821Y-41958309D02*
X55403696Y-42066059D01*
X55403696Y-42066059D02*
X55457571Y-42119934D01*
X55457571Y-42119934D02*
X55565320Y-42173808D01*
X55565320Y-42173808D02*
X55619195Y-42173808D01*
X55619195Y-42173808D02*
X55807757Y-41985247D01*
X55807757Y-41985247D02*
X55700007Y-41877497D01*
X55807757Y-42470120D02*
X56373442Y-41904434D01*
X56373442Y-41904434D02*
X56588942Y-42119934D01*
X56588942Y-42119934D02*
X56615879Y-42200746D01*
X56615879Y-42200746D02*
X56615879Y-42254621D01*
X56615879Y-42254621D02*
X56588942Y-42335433D01*
X56588942Y-42335433D02*
X56508129Y-42416245D01*
X56508129Y-42416245D02*
X56427317Y-42443182D01*
X56427317Y-42443182D02*
X56373442Y-42443182D01*
X56373442Y-42443182D02*
X56292630Y-42416245D01*
X56292630Y-42416245D02*
X56077131Y-42200746D01*
X56858316Y-42497057D02*
X56912190Y-42497057D01*
X56912190Y-42497057D02*
X56993003Y-42523995D01*
X56993003Y-42523995D02*
X57127690Y-42658682D01*
X57127690Y-42658682D02*
X57154627Y-42739494D01*
X57154627Y-42739494D02*
X57154627Y-42793369D01*
X57154627Y-42793369D02*
X57127690Y-42874181D01*
X57127690Y-42874181D02*
X57073815Y-42928056D01*
X57073815Y-42928056D02*
X56966065Y-42981930D01*
X56966065Y-42981930D02*
X56319568Y-42981930D01*
X56319568Y-42981930D02*
X56669754Y-43332117D01*
X57316252Y-43332117D02*
X57289314Y-43251305D01*
X57289314Y-43251305D02*
X57289314Y-43197430D01*
X57289314Y-43197430D02*
X57316252Y-43116618D01*
X57316252Y-43116618D02*
X57343189Y-43089680D01*
X57343189Y-43089680D02*
X57424001Y-43062743D01*
X57424001Y-43062743D02*
X57477876Y-43062743D01*
X57477876Y-43062743D02*
X57558688Y-43089680D01*
X57558688Y-43089680D02*
X57666438Y-43197430D01*
X57666438Y-43197430D02*
X57693375Y-43278242D01*
X57693375Y-43278242D02*
X57693375Y-43332117D01*
X57693375Y-43332117D02*
X57666438Y-43412929D01*
X57666438Y-43412929D02*
X57639500Y-43439866D01*
X57639500Y-43439866D02*
X57558688Y-43466804D01*
X57558688Y-43466804D02*
X57504813Y-43466804D01*
X57504813Y-43466804D02*
X57424001Y-43439866D01*
X57424001Y-43439866D02*
X57316252Y-43332117D01*
X57316252Y-43332117D02*
X57235439Y-43305179D01*
X57235439Y-43305179D02*
X57181565Y-43305179D01*
X57181565Y-43305179D02*
X57100752Y-43332117D01*
X57100752Y-43332117D02*
X56993003Y-43439866D01*
X56993003Y-43439866D02*
X56966065Y-43520679D01*
X56966065Y-43520679D02*
X56966065Y-43574553D01*
X56966065Y-43574553D02*
X56993003Y-43655366D01*
X56993003Y-43655366D02*
X57100752Y-43763115D01*
X57100752Y-43763115D02*
X57181565Y-43790053D01*
X57181565Y-43790053D02*
X57235439Y-43790053D01*
X57235439Y-43790053D02*
X57316252Y-43763115D01*
X57316252Y-43763115D02*
X57424001Y-43655366D01*
X57424001Y-43655366D02*
X57450939Y-43574553D01*
X57450939Y-43574553D02*
X57450939Y-43520679D01*
X57450939Y-43520679D02*
X57424001Y-43439866D01*
X53472505Y-53923372D02*
X53445568Y-53842560D01*
X53445568Y-53842560D02*
X53364756Y-53761748D01*
X53364756Y-53761748D02*
X53257006Y-53707873D01*
X53257006Y-53707873D02*
X53149257Y-53707873D01*
X53149257Y-53707873D02*
X53068444Y-53734810D01*
X53068444Y-53734810D02*
X52933757Y-53815623D01*
X52933757Y-53815623D02*
X52852945Y-53896435D01*
X52852945Y-53896435D02*
X52772133Y-54031122D01*
X52772133Y-54031122D02*
X52745196Y-54111934D01*
X52745196Y-54111934D02*
X52745196Y-54219684D01*
X52745196Y-54219684D02*
X52799070Y-54327433D01*
X52799070Y-54327433D02*
X52852945Y-54381308D01*
X52852945Y-54381308D02*
X52960695Y-54435183D01*
X52960695Y-54435183D02*
X53014570Y-54435183D01*
X53014570Y-54435183D02*
X53203131Y-54246621D01*
X53203131Y-54246621D02*
X53095382Y-54138871D01*
X53203131Y-54731494D02*
X53768817Y-54165809D01*
X53768817Y-54165809D02*
X53984316Y-54381308D01*
X53984316Y-54381308D02*
X54011253Y-54462120D01*
X54011253Y-54462120D02*
X54011253Y-54515995D01*
X54011253Y-54515995D02*
X53984316Y-54596807D01*
X53984316Y-54596807D02*
X53903504Y-54677619D01*
X53903504Y-54677619D02*
X53822692Y-54704557D01*
X53822692Y-54704557D02*
X53768817Y-54704557D01*
X53768817Y-54704557D02*
X53688005Y-54677619D01*
X53688005Y-54677619D02*
X53472505Y-54462120D01*
X54576939Y-54973931D02*
X54469189Y-54866181D01*
X54469189Y-54866181D02*
X54388377Y-54839244D01*
X54388377Y-54839244D02*
X54334502Y-54839244D01*
X54334502Y-54839244D02*
X54199815Y-54866181D01*
X54199815Y-54866181D02*
X54065128Y-54946993D01*
X54065128Y-54946993D02*
X53849629Y-55162493D01*
X53849629Y-55162493D02*
X53822692Y-55243305D01*
X53822692Y-55243305D02*
X53822692Y-55297180D01*
X53822692Y-55297180D02*
X53849629Y-55377992D01*
X53849629Y-55377992D02*
X53957379Y-55485741D01*
X53957379Y-55485741D02*
X54038191Y-55512679D01*
X54038191Y-55512679D02*
X54092066Y-55512679D01*
X54092066Y-55512679D02*
X54172878Y-55485741D01*
X54172878Y-55485741D02*
X54307565Y-55351054D01*
X54307565Y-55351054D02*
X54334502Y-55270242D01*
X54334502Y-55270242D02*
X54334502Y-55216367D01*
X54334502Y-55216367D02*
X54307565Y-55135555D01*
X54307565Y-55135555D02*
X54199815Y-55027806D01*
X54199815Y-55027806D02*
X54119003Y-55000868D01*
X54119003Y-55000868D02*
X54065128Y-55000868D01*
X54065128Y-55000868D02*
X53984316Y-55027806D01*
X81270131Y-41461998D02*
X81243194Y-41381185D01*
X81243194Y-41381185D02*
X81162381Y-41300373D01*
X81162381Y-41300373D02*
X81054632Y-41246498D01*
X81054632Y-41246498D02*
X80946882Y-41246498D01*
X80946882Y-41246498D02*
X80866070Y-41273436D01*
X80866070Y-41273436D02*
X80731383Y-41354248D01*
X80731383Y-41354248D02*
X80650571Y-41435060D01*
X80650571Y-41435060D02*
X80569758Y-41569747D01*
X80569758Y-41569747D02*
X80542821Y-41650560D01*
X80542821Y-41650560D02*
X80542821Y-41758309D01*
X80542821Y-41758309D02*
X80596696Y-41866059D01*
X80596696Y-41866059D02*
X80650571Y-41919934D01*
X80650571Y-41919934D02*
X80758320Y-41973808D01*
X80758320Y-41973808D02*
X80812195Y-41973808D01*
X80812195Y-41973808D02*
X81000757Y-41785247D01*
X81000757Y-41785247D02*
X80893007Y-41677497D01*
X81000757Y-42270120D02*
X81566442Y-41704434D01*
X81566442Y-41704434D02*
X81781942Y-41919934D01*
X81781942Y-41919934D02*
X81808879Y-42000746D01*
X81808879Y-42000746D02*
X81808879Y-42054621D01*
X81808879Y-42054621D02*
X81781942Y-42135433D01*
X81781942Y-42135433D02*
X81701129Y-42216245D01*
X81701129Y-42216245D02*
X81620317Y-42243182D01*
X81620317Y-42243182D02*
X81566442Y-42243182D01*
X81566442Y-42243182D02*
X81485630Y-42216245D01*
X81485630Y-42216245D02*
X81270131Y-42000746D01*
X81862754Y-43132117D02*
X81539505Y-42808868D01*
X81701129Y-42970492D02*
X82266815Y-42404807D01*
X82266815Y-42404807D02*
X82132128Y-42431744D01*
X82132128Y-42431744D02*
X82024378Y-42431744D01*
X82024378Y-42431744D02*
X81943566Y-42404807D01*
X82132128Y-43401491D02*
X82239878Y-43509240D01*
X82239878Y-43509240D02*
X82320690Y-43536178D01*
X82320690Y-43536178D02*
X82374565Y-43536178D01*
X82374565Y-43536178D02*
X82509252Y-43509240D01*
X82509252Y-43509240D02*
X82643939Y-43428428D01*
X82643939Y-43428428D02*
X82859438Y-43212929D01*
X82859438Y-43212929D02*
X82886375Y-43132117D01*
X82886375Y-43132117D02*
X82886375Y-43078242D01*
X82886375Y-43078242D02*
X82859438Y-42997430D01*
X82859438Y-42997430D02*
X82751688Y-42889680D01*
X82751688Y-42889680D02*
X82670876Y-42862743D01*
X82670876Y-42862743D02*
X82617001Y-42862743D01*
X82617001Y-42862743D02*
X82536189Y-42889680D01*
X82536189Y-42889680D02*
X82401502Y-43024367D01*
X82401502Y-43024367D02*
X82374565Y-43105179D01*
X82374565Y-43105179D02*
X82374565Y-43159054D01*
X82374565Y-43159054D02*
X82401502Y-43239866D01*
X82401502Y-43239866D02*
X82509252Y-43347616D01*
X82509252Y-43347616D02*
X82590064Y-43374553D01*
X82590064Y-43374553D02*
X82643939Y-43374553D01*
X82643939Y-43374553D02*
X82724751Y-43347616D01*
X36102414Y-41325406D02*
X35725290Y-42079653D01*
X35725290Y-42079653D02*
X36479537Y-41702529D01*
X36587287Y-42349027D02*
X36641161Y-42456776D01*
X36641161Y-42456776D02*
X36641161Y-42510651D01*
X36641161Y-42510651D02*
X36614224Y-42591463D01*
X36614224Y-42591463D02*
X36533412Y-42672276D01*
X36533412Y-42672276D02*
X36452600Y-42699213D01*
X36452600Y-42699213D02*
X36398725Y-42699213D01*
X36398725Y-42699213D02*
X36317913Y-42672276D01*
X36317913Y-42672276D02*
X36102413Y-42456776D01*
X36102413Y-42456776D02*
X36668099Y-41891091D01*
X36668099Y-41891091D02*
X36856661Y-42079653D01*
X36856661Y-42079653D02*
X36883598Y-42160465D01*
X36883598Y-42160465D02*
X36883598Y-42214340D01*
X36883598Y-42214340D02*
X36856661Y-42295152D01*
X36856661Y-42295152D02*
X36802786Y-42349027D01*
X36802786Y-42349027D02*
X36721974Y-42375964D01*
X36721974Y-42375964D02*
X36668099Y-42375964D01*
X36668099Y-42375964D02*
X36587287Y-42349027D01*
X36587287Y-42349027D02*
X36398725Y-42160465D01*
X37233784Y-42456776D02*
X36775848Y-42914712D01*
X36775848Y-42914712D02*
X36748911Y-42995524D01*
X36748911Y-42995524D02*
X36748911Y-43049399D01*
X36748911Y-43049399D02*
X36775848Y-43130211D01*
X36775848Y-43130211D02*
X36883598Y-43237961D01*
X36883598Y-43237961D02*
X36964410Y-43264898D01*
X36964410Y-43264898D02*
X37018285Y-43264898D01*
X37018285Y-43264898D02*
X37099097Y-43237961D01*
X37099097Y-43237961D02*
X37557033Y-42780025D01*
X37260722Y-43561210D02*
X37314596Y-43668959D01*
X37314596Y-43668959D02*
X37449283Y-43803646D01*
X37449283Y-43803646D02*
X37530096Y-43830584D01*
X37530096Y-43830584D02*
X37583970Y-43830584D01*
X37583970Y-43830584D02*
X37664783Y-43803646D01*
X37664783Y-43803646D02*
X37718657Y-43749771D01*
X37718657Y-43749771D02*
X37745595Y-43668959D01*
X37745595Y-43668959D02*
X37745595Y-43615084D01*
X37745595Y-43615084D02*
X37718657Y-43534272D01*
X37718657Y-43534272D02*
X37637845Y-43399585D01*
X37637845Y-43399585D02*
X37610908Y-43318773D01*
X37610908Y-43318773D02*
X37610908Y-43264898D01*
X37610908Y-43264898D02*
X37637845Y-43184086D01*
X37637845Y-43184086D02*
X37691720Y-43130211D01*
X37691720Y-43130211D02*
X37772532Y-43103274D01*
X37772532Y-43103274D02*
X37826407Y-43103274D01*
X37826407Y-43103274D02*
X37907219Y-43130211D01*
X37907219Y-43130211D02*
X38041906Y-43264898D01*
X38041906Y-43264898D02*
X38095781Y-43372648D01*
X48619568Y-41958435D02*
X48592631Y-41877623D01*
X48592631Y-41877623D02*
X48511819Y-41796811D01*
X48511819Y-41796811D02*
X48404069Y-41742936D01*
X48404069Y-41742936D02*
X48296319Y-41742936D01*
X48296319Y-41742936D02*
X48215507Y-41769873D01*
X48215507Y-41769873D02*
X48080820Y-41850685D01*
X48080820Y-41850685D02*
X48000008Y-41931498D01*
X48000008Y-41931498D02*
X47919196Y-42066185D01*
X47919196Y-42066185D02*
X47892258Y-42146997D01*
X47892258Y-42146997D02*
X47892258Y-42254746D01*
X47892258Y-42254746D02*
X47946133Y-42362496D01*
X47946133Y-42362496D02*
X48000008Y-42416371D01*
X48000008Y-42416371D02*
X48107758Y-42470246D01*
X48107758Y-42470246D02*
X48161632Y-42470246D01*
X48161632Y-42470246D02*
X48350194Y-42281684D01*
X48350194Y-42281684D02*
X48242445Y-42173934D01*
X48350194Y-42766557D02*
X48915880Y-42200872D01*
X48915880Y-42200872D02*
X48673443Y-43089806D01*
X48673443Y-43089806D02*
X49239128Y-42524120D01*
X48942817Y-43359180D02*
X49508502Y-42793494D01*
X49508502Y-42793494D02*
X49643189Y-42928181D01*
X49643189Y-42928181D02*
X49697064Y-43035931D01*
X49697064Y-43035931D02*
X49697064Y-43143680D01*
X49697064Y-43143680D02*
X49670127Y-43224493D01*
X49670127Y-43224493D02*
X49589314Y-43359180D01*
X49589314Y-43359180D02*
X49508502Y-43439992D01*
X49508502Y-43439992D02*
X49373815Y-43520804D01*
X49373815Y-43520804D02*
X49293003Y-43547741D01*
X49293003Y-43547741D02*
X49185253Y-43547741D01*
X49185253Y-43547741D02*
X49077504Y-43493867D01*
X49077504Y-43493867D02*
X48942817Y-43359180D01*
X41761568Y-41450435D02*
X41734631Y-41369623D01*
X41734631Y-41369623D02*
X41653819Y-41288811D01*
X41653819Y-41288811D02*
X41546069Y-41234936D01*
X41546069Y-41234936D02*
X41438319Y-41234936D01*
X41438319Y-41234936D02*
X41357507Y-41261873D01*
X41357507Y-41261873D02*
X41222820Y-41342685D01*
X41222820Y-41342685D02*
X41142008Y-41423498D01*
X41142008Y-41423498D02*
X41061196Y-41558185D01*
X41061196Y-41558185D02*
X41034258Y-41638997D01*
X41034258Y-41638997D02*
X41034258Y-41746746D01*
X41034258Y-41746746D02*
X41088133Y-41854496D01*
X41088133Y-41854496D02*
X41142008Y-41908371D01*
X41142008Y-41908371D02*
X41249758Y-41962246D01*
X41249758Y-41962246D02*
X41303632Y-41962246D01*
X41303632Y-41962246D02*
X41492194Y-41773684D01*
X41492194Y-41773684D02*
X41384445Y-41665934D01*
X41492194Y-42258557D02*
X42057880Y-41692872D01*
X42057880Y-41692872D02*
X41815443Y-42581806D01*
X41815443Y-42581806D02*
X42381128Y-42016120D01*
X42084817Y-42851180D02*
X42650502Y-42285494D01*
X42650502Y-42285494D02*
X42785189Y-42420181D01*
X42785189Y-42420181D02*
X42839064Y-42527931D01*
X42839064Y-42527931D02*
X42839064Y-42635680D01*
X42839064Y-42635680D02*
X42812127Y-42716493D01*
X42812127Y-42716493D02*
X42731314Y-42851180D01*
X42731314Y-42851180D02*
X42650502Y-42931992D01*
X42650502Y-42931992D02*
X42515815Y-43012804D01*
X42515815Y-43012804D02*
X42435003Y-43039741D01*
X42435003Y-43039741D02*
X42327253Y-43039741D01*
X42327253Y-43039741D02*
X42219504Y-42985867D01*
X42219504Y-42985867D02*
X42084817Y-42851180D01*
X65903131Y-53907998D02*
X65876194Y-53827185D01*
X65876194Y-53827185D02*
X65795381Y-53746373D01*
X65795381Y-53746373D02*
X65687632Y-53692498D01*
X65687632Y-53692498D02*
X65579882Y-53692498D01*
X65579882Y-53692498D02*
X65499070Y-53719436D01*
X65499070Y-53719436D02*
X65364383Y-53800248D01*
X65364383Y-53800248D02*
X65283571Y-53881060D01*
X65283571Y-53881060D02*
X65202758Y-54015747D01*
X65202758Y-54015747D02*
X65175821Y-54096560D01*
X65175821Y-54096560D02*
X65175821Y-54204309D01*
X65175821Y-54204309D02*
X65229696Y-54312059D01*
X65229696Y-54312059D02*
X65283571Y-54365934D01*
X65283571Y-54365934D02*
X65391320Y-54419808D01*
X65391320Y-54419808D02*
X65445195Y-54419808D01*
X65445195Y-54419808D02*
X65633757Y-54231247D01*
X65633757Y-54231247D02*
X65526007Y-54123497D01*
X65633757Y-54716120D02*
X66199442Y-54150434D01*
X66199442Y-54150434D02*
X66414942Y-54365934D01*
X66414942Y-54365934D02*
X66441879Y-54446746D01*
X66441879Y-54446746D02*
X66441879Y-54500621D01*
X66441879Y-54500621D02*
X66414942Y-54581433D01*
X66414942Y-54581433D02*
X66334129Y-54662245D01*
X66334129Y-54662245D02*
X66253317Y-54689182D01*
X66253317Y-54689182D02*
X66199442Y-54689182D01*
X66199442Y-54689182D02*
X66118630Y-54662245D01*
X66118630Y-54662245D02*
X65903131Y-54446746D01*
X66495754Y-55578117D02*
X66172505Y-55254868D01*
X66334129Y-55416492D02*
X66899815Y-54850807D01*
X66899815Y-54850807D02*
X66765128Y-54877744D01*
X66765128Y-54877744D02*
X66657378Y-54877744D01*
X66657378Y-54877744D02*
X66576566Y-54850807D01*
X67034502Y-56116865D02*
X66711253Y-55793616D01*
X66872878Y-55955240D02*
X67438563Y-55389555D01*
X67438563Y-55389555D02*
X67303876Y-55416492D01*
X67303876Y-55416492D02*
X67196126Y-55416492D01*
X67196126Y-55416492D02*
X67115314Y-55389555D01*
X73523131Y-54053998D02*
X73496194Y-53973185D01*
X73496194Y-53973185D02*
X73415381Y-53892373D01*
X73415381Y-53892373D02*
X73307632Y-53838498D01*
X73307632Y-53838498D02*
X73199882Y-53838498D01*
X73199882Y-53838498D02*
X73119070Y-53865436D01*
X73119070Y-53865436D02*
X72984383Y-53946248D01*
X72984383Y-53946248D02*
X72903571Y-54027060D01*
X72903571Y-54027060D02*
X72822758Y-54161747D01*
X72822758Y-54161747D02*
X72795821Y-54242560D01*
X72795821Y-54242560D02*
X72795821Y-54350309D01*
X72795821Y-54350309D02*
X72849696Y-54458059D01*
X72849696Y-54458059D02*
X72903571Y-54511934D01*
X72903571Y-54511934D02*
X73011320Y-54565808D01*
X73011320Y-54565808D02*
X73065195Y-54565808D01*
X73065195Y-54565808D02*
X73253757Y-54377247D01*
X73253757Y-54377247D02*
X73146007Y-54269497D01*
X73253757Y-54862120D02*
X73819442Y-54296434D01*
X73819442Y-54296434D02*
X74034942Y-54511934D01*
X74034942Y-54511934D02*
X74061879Y-54592746D01*
X74061879Y-54592746D02*
X74061879Y-54646621D01*
X74061879Y-54646621D02*
X74034942Y-54727433D01*
X74034942Y-54727433D02*
X73954129Y-54808245D01*
X73954129Y-54808245D02*
X73873317Y-54835182D01*
X73873317Y-54835182D02*
X73819442Y-54835182D01*
X73819442Y-54835182D02*
X73738630Y-54808245D01*
X73738630Y-54808245D02*
X73523131Y-54592746D01*
X74115754Y-55724117D02*
X73792505Y-55400868D01*
X73954129Y-55562492D02*
X74519815Y-54996807D01*
X74519815Y-54996807D02*
X74385128Y-55023744D01*
X74385128Y-55023744D02*
X74277378Y-55023744D01*
X74277378Y-55023744D02*
X74196566Y-54996807D01*
X74870001Y-55346993D02*
X75220187Y-55697179D01*
X75220187Y-55697179D02*
X74816126Y-55724117D01*
X74816126Y-55724117D02*
X74896939Y-55804929D01*
X74896939Y-55804929D02*
X74923876Y-55885741D01*
X74923876Y-55885741D02*
X74923876Y-55939616D01*
X74923876Y-55939616D02*
X74896939Y-56020428D01*
X74896939Y-56020428D02*
X74762252Y-56155115D01*
X74762252Y-56155115D02*
X74681439Y-56182053D01*
X74681439Y-56182053D02*
X74627565Y-56182053D01*
X74627565Y-56182053D02*
X74546752Y-56155115D01*
X74546752Y-56155115D02*
X74385128Y-55993491D01*
X74385128Y-55993491D02*
X74358191Y-55912679D01*
X74358191Y-55912679D02*
X74358191Y-55858804D01*
X66157131Y-41534998D02*
X66130194Y-41454185D01*
X66130194Y-41454185D02*
X66049381Y-41373373D01*
X66049381Y-41373373D02*
X65941632Y-41319498D01*
X65941632Y-41319498D02*
X65833882Y-41319498D01*
X65833882Y-41319498D02*
X65753070Y-41346436D01*
X65753070Y-41346436D02*
X65618383Y-41427248D01*
X65618383Y-41427248D02*
X65537571Y-41508060D01*
X65537571Y-41508060D02*
X65456758Y-41642747D01*
X65456758Y-41642747D02*
X65429821Y-41723560D01*
X65429821Y-41723560D02*
X65429821Y-41831309D01*
X65429821Y-41831309D02*
X65483696Y-41939059D01*
X65483696Y-41939059D02*
X65537571Y-41992934D01*
X65537571Y-41992934D02*
X65645320Y-42046808D01*
X65645320Y-42046808D02*
X65699195Y-42046808D01*
X65699195Y-42046808D02*
X65887757Y-41858247D01*
X65887757Y-41858247D02*
X65780007Y-41750497D01*
X65887757Y-42343120D02*
X66453442Y-41777434D01*
X66453442Y-41777434D02*
X66668942Y-41992934D01*
X66668942Y-41992934D02*
X66695879Y-42073746D01*
X66695879Y-42073746D02*
X66695879Y-42127621D01*
X66695879Y-42127621D02*
X66668942Y-42208433D01*
X66668942Y-42208433D02*
X66588129Y-42289245D01*
X66588129Y-42289245D02*
X66507317Y-42316182D01*
X66507317Y-42316182D02*
X66453442Y-42316182D01*
X66453442Y-42316182D02*
X66372630Y-42289245D01*
X66372630Y-42289245D02*
X66157131Y-42073746D01*
X66938316Y-42370057D02*
X66992190Y-42370057D01*
X66992190Y-42370057D02*
X67073003Y-42396995D01*
X67073003Y-42396995D02*
X67207690Y-42531682D01*
X67207690Y-42531682D02*
X67234627Y-42612494D01*
X67234627Y-42612494D02*
X67234627Y-42666369D01*
X67234627Y-42666369D02*
X67207690Y-42747181D01*
X67207690Y-42747181D02*
X67153815Y-42801056D01*
X67153815Y-42801056D02*
X67046065Y-42854930D01*
X67046065Y-42854930D02*
X66399568Y-42854930D01*
X66399568Y-42854930D02*
X66749754Y-43205117D01*
X67827250Y-43151242D02*
X67557876Y-42881868D01*
X67557876Y-42881868D02*
X67261565Y-43124305D01*
X67261565Y-43124305D02*
X67315439Y-43124305D01*
X67315439Y-43124305D02*
X67396252Y-43151242D01*
X67396252Y-43151242D02*
X67530939Y-43285929D01*
X67530939Y-43285929D02*
X67557876Y-43366741D01*
X67557876Y-43366741D02*
X67557876Y-43420616D01*
X67557876Y-43420616D02*
X67530939Y-43501428D01*
X67530939Y-43501428D02*
X67396252Y-43636115D01*
X67396252Y-43636115D02*
X67315439Y-43663053D01*
X67315439Y-43663053D02*
X67261565Y-43663053D01*
X67261565Y-43663053D02*
X67180752Y-43636115D01*
X67180752Y-43636115D02*
X67046065Y-43501428D01*
X67046065Y-43501428D02*
X67019128Y-43420616D01*
X67019128Y-43420616D02*
X67019128Y-43366741D01*
X58607131Y-41661998D02*
X58580194Y-41581185D01*
X58580194Y-41581185D02*
X58499381Y-41500373D01*
X58499381Y-41500373D02*
X58391632Y-41446498D01*
X58391632Y-41446498D02*
X58283882Y-41446498D01*
X58283882Y-41446498D02*
X58203070Y-41473436D01*
X58203070Y-41473436D02*
X58068383Y-41554248D01*
X58068383Y-41554248D02*
X57987571Y-41635060D01*
X57987571Y-41635060D02*
X57906758Y-41769747D01*
X57906758Y-41769747D02*
X57879821Y-41850560D01*
X57879821Y-41850560D02*
X57879821Y-41958309D01*
X57879821Y-41958309D02*
X57933696Y-42066059D01*
X57933696Y-42066059D02*
X57987571Y-42119934D01*
X57987571Y-42119934D02*
X58095320Y-42173808D01*
X58095320Y-42173808D02*
X58149195Y-42173808D01*
X58149195Y-42173808D02*
X58337757Y-41985247D01*
X58337757Y-41985247D02*
X58230007Y-41877497D01*
X58337757Y-42470120D02*
X58903442Y-41904434D01*
X58903442Y-41904434D02*
X59118942Y-42119934D01*
X59118942Y-42119934D02*
X59145879Y-42200746D01*
X59145879Y-42200746D02*
X59145879Y-42254621D01*
X59145879Y-42254621D02*
X59118942Y-42335433D01*
X59118942Y-42335433D02*
X59038129Y-42416245D01*
X59038129Y-42416245D02*
X58957317Y-42443182D01*
X58957317Y-42443182D02*
X58903442Y-42443182D01*
X58903442Y-42443182D02*
X58822630Y-42416245D01*
X58822630Y-42416245D02*
X58607131Y-42200746D01*
X59388316Y-42497057D02*
X59442190Y-42497057D01*
X59442190Y-42497057D02*
X59523003Y-42523995D01*
X59523003Y-42523995D02*
X59657690Y-42658682D01*
X59657690Y-42658682D02*
X59684627Y-42739494D01*
X59684627Y-42739494D02*
X59684627Y-42793369D01*
X59684627Y-42793369D02*
X59657690Y-42874181D01*
X59657690Y-42874181D02*
X59603815Y-42928056D01*
X59603815Y-42928056D02*
X59496065Y-42981930D01*
X59496065Y-42981930D02*
X58849568Y-42981930D01*
X58849568Y-42981930D02*
X59199754Y-43332117D01*
X59954001Y-42954993D02*
X60331125Y-43332117D01*
X60331125Y-43332117D02*
X59523003Y-43655366D01*
X76063131Y-53907998D02*
X76036194Y-53827185D01*
X76036194Y-53827185D02*
X75955381Y-53746373D01*
X75955381Y-53746373D02*
X75847632Y-53692498D01*
X75847632Y-53692498D02*
X75739882Y-53692498D01*
X75739882Y-53692498D02*
X75659070Y-53719436D01*
X75659070Y-53719436D02*
X75524383Y-53800248D01*
X75524383Y-53800248D02*
X75443571Y-53881060D01*
X75443571Y-53881060D02*
X75362758Y-54015747D01*
X75362758Y-54015747D02*
X75335821Y-54096560D01*
X75335821Y-54096560D02*
X75335821Y-54204309D01*
X75335821Y-54204309D02*
X75389696Y-54312059D01*
X75389696Y-54312059D02*
X75443571Y-54365934D01*
X75443571Y-54365934D02*
X75551320Y-54419808D01*
X75551320Y-54419808D02*
X75605195Y-54419808D01*
X75605195Y-54419808D02*
X75793757Y-54231247D01*
X75793757Y-54231247D02*
X75686007Y-54123497D01*
X75793757Y-54716120D02*
X76359442Y-54150434D01*
X76359442Y-54150434D02*
X76574942Y-54365934D01*
X76574942Y-54365934D02*
X76601879Y-54446746D01*
X76601879Y-54446746D02*
X76601879Y-54500621D01*
X76601879Y-54500621D02*
X76574942Y-54581433D01*
X76574942Y-54581433D02*
X76494129Y-54662245D01*
X76494129Y-54662245D02*
X76413317Y-54689182D01*
X76413317Y-54689182D02*
X76359442Y-54689182D01*
X76359442Y-54689182D02*
X76278630Y-54662245D01*
X76278630Y-54662245D02*
X76063131Y-54446746D01*
X76655754Y-55578117D02*
X76332505Y-55254868D01*
X76494129Y-55416492D02*
X77059815Y-54850807D01*
X77059815Y-54850807D02*
X76925128Y-54877744D01*
X76925128Y-54877744D02*
X76817378Y-54877744D01*
X76817378Y-54877744D02*
X76736566Y-54850807D01*
X77517751Y-55685866D02*
X77140627Y-56062990D01*
X77598563Y-55335680D02*
X77059815Y-55605054D01*
X77059815Y-55605054D02*
X77410001Y-55955240D01*
X68707131Y-41534998D02*
X68680194Y-41454185D01*
X68680194Y-41454185D02*
X68599381Y-41373373D01*
X68599381Y-41373373D02*
X68491632Y-41319498D01*
X68491632Y-41319498D02*
X68383882Y-41319498D01*
X68383882Y-41319498D02*
X68303070Y-41346436D01*
X68303070Y-41346436D02*
X68168383Y-41427248D01*
X68168383Y-41427248D02*
X68087571Y-41508060D01*
X68087571Y-41508060D02*
X68006758Y-41642747D01*
X68006758Y-41642747D02*
X67979821Y-41723560D01*
X67979821Y-41723560D02*
X67979821Y-41831309D01*
X67979821Y-41831309D02*
X68033696Y-41939059D01*
X68033696Y-41939059D02*
X68087571Y-41992934D01*
X68087571Y-41992934D02*
X68195320Y-42046808D01*
X68195320Y-42046808D02*
X68249195Y-42046808D01*
X68249195Y-42046808D02*
X68437757Y-41858247D01*
X68437757Y-41858247D02*
X68330007Y-41750497D01*
X68437757Y-42343120D02*
X69003442Y-41777434D01*
X69003442Y-41777434D02*
X69218942Y-41992934D01*
X69218942Y-41992934D02*
X69245879Y-42073746D01*
X69245879Y-42073746D02*
X69245879Y-42127621D01*
X69245879Y-42127621D02*
X69218942Y-42208433D01*
X69218942Y-42208433D02*
X69138129Y-42289245D01*
X69138129Y-42289245D02*
X69057317Y-42316182D01*
X69057317Y-42316182D02*
X69003442Y-42316182D01*
X69003442Y-42316182D02*
X68922630Y-42289245D01*
X68922630Y-42289245D02*
X68707131Y-42073746D01*
X69488316Y-42370057D02*
X69542190Y-42370057D01*
X69542190Y-42370057D02*
X69623003Y-42396995D01*
X69623003Y-42396995D02*
X69757690Y-42531682D01*
X69757690Y-42531682D02*
X69784627Y-42612494D01*
X69784627Y-42612494D02*
X69784627Y-42666369D01*
X69784627Y-42666369D02*
X69757690Y-42747181D01*
X69757690Y-42747181D02*
X69703815Y-42801056D01*
X69703815Y-42801056D02*
X69596065Y-42854930D01*
X69596065Y-42854930D02*
X68949568Y-42854930D01*
X68949568Y-42854930D02*
X69299754Y-43205117D01*
X70161751Y-43312866D02*
X69784627Y-43689990D01*
X70242563Y-42962680D02*
X69703815Y-43232054D01*
X69703815Y-43232054D02*
X70054001Y-43582240D01*
X61092505Y-53923372D02*
X61065568Y-53842560D01*
X61065568Y-53842560D02*
X60984756Y-53761748D01*
X60984756Y-53761748D02*
X60877006Y-53707873D01*
X60877006Y-53707873D02*
X60769257Y-53707873D01*
X60769257Y-53707873D02*
X60688444Y-53734810D01*
X60688444Y-53734810D02*
X60553757Y-53815623D01*
X60553757Y-53815623D02*
X60472945Y-53896435D01*
X60472945Y-53896435D02*
X60392133Y-54031122D01*
X60392133Y-54031122D02*
X60365196Y-54111934D01*
X60365196Y-54111934D02*
X60365196Y-54219684D01*
X60365196Y-54219684D02*
X60419070Y-54327433D01*
X60419070Y-54327433D02*
X60472945Y-54381308D01*
X60472945Y-54381308D02*
X60580695Y-54435183D01*
X60580695Y-54435183D02*
X60634570Y-54435183D01*
X60634570Y-54435183D02*
X60823131Y-54246621D01*
X60823131Y-54246621D02*
X60715382Y-54138871D01*
X60823131Y-54731494D02*
X61388817Y-54165809D01*
X61388817Y-54165809D02*
X61604316Y-54381308D01*
X61604316Y-54381308D02*
X61631253Y-54462120D01*
X61631253Y-54462120D02*
X61631253Y-54515995D01*
X61631253Y-54515995D02*
X61604316Y-54596807D01*
X61604316Y-54596807D02*
X61523504Y-54677619D01*
X61523504Y-54677619D02*
X61442692Y-54704557D01*
X61442692Y-54704557D02*
X61388817Y-54704557D01*
X61388817Y-54704557D02*
X61308005Y-54677619D01*
X61308005Y-54677619D02*
X61092505Y-54462120D01*
X61415754Y-55324117D02*
X61523504Y-55431867D01*
X61523504Y-55431867D02*
X61604316Y-55458804D01*
X61604316Y-55458804D02*
X61658191Y-55458804D01*
X61658191Y-55458804D02*
X61792878Y-55431867D01*
X61792878Y-55431867D02*
X61927565Y-55351054D01*
X61927565Y-55351054D02*
X62143064Y-55135555D01*
X62143064Y-55135555D02*
X62170001Y-55054743D01*
X62170001Y-55054743D02*
X62170001Y-55000868D01*
X62170001Y-55000868D02*
X62143064Y-54920056D01*
X62143064Y-54920056D02*
X62035314Y-54812306D01*
X62035314Y-54812306D02*
X61954502Y-54785369D01*
X61954502Y-54785369D02*
X61900627Y-54785369D01*
X61900627Y-54785369D02*
X61819815Y-54812306D01*
X61819815Y-54812306D02*
X61685128Y-54946993D01*
X61685128Y-54946993D02*
X61658191Y-55027806D01*
X61658191Y-55027806D02*
X61658191Y-55081680D01*
X61658191Y-55081680D02*
X61685128Y-55162493D01*
X61685128Y-55162493D02*
X61792878Y-55270242D01*
X61792878Y-55270242D02*
X61873690Y-55297180D01*
X61873690Y-55297180D02*
X61927565Y-55297180D01*
X61927565Y-55297180D02*
X62008377Y-55270242D01*
X63363131Y-53907998D02*
X63336194Y-53827185D01*
X63336194Y-53827185D02*
X63255381Y-53746373D01*
X63255381Y-53746373D02*
X63147632Y-53692498D01*
X63147632Y-53692498D02*
X63039882Y-53692498D01*
X63039882Y-53692498D02*
X62959070Y-53719436D01*
X62959070Y-53719436D02*
X62824383Y-53800248D01*
X62824383Y-53800248D02*
X62743571Y-53881060D01*
X62743571Y-53881060D02*
X62662758Y-54015747D01*
X62662758Y-54015747D02*
X62635821Y-54096560D01*
X62635821Y-54096560D02*
X62635821Y-54204309D01*
X62635821Y-54204309D02*
X62689696Y-54312059D01*
X62689696Y-54312059D02*
X62743571Y-54365934D01*
X62743571Y-54365934D02*
X62851320Y-54419808D01*
X62851320Y-54419808D02*
X62905195Y-54419808D01*
X62905195Y-54419808D02*
X63093757Y-54231247D01*
X63093757Y-54231247D02*
X62986007Y-54123497D01*
X63093757Y-54716120D02*
X63659442Y-54150434D01*
X63659442Y-54150434D02*
X63874942Y-54365934D01*
X63874942Y-54365934D02*
X63901879Y-54446746D01*
X63901879Y-54446746D02*
X63901879Y-54500621D01*
X63901879Y-54500621D02*
X63874942Y-54581433D01*
X63874942Y-54581433D02*
X63794129Y-54662245D01*
X63794129Y-54662245D02*
X63713317Y-54689182D01*
X63713317Y-54689182D02*
X63659442Y-54689182D01*
X63659442Y-54689182D02*
X63578630Y-54662245D01*
X63578630Y-54662245D02*
X63363131Y-54446746D01*
X63955754Y-55578117D02*
X63632505Y-55254868D01*
X63794129Y-55416492D02*
X64359815Y-54850807D01*
X64359815Y-54850807D02*
X64225128Y-54877744D01*
X64225128Y-54877744D02*
X64117378Y-54877744D01*
X64117378Y-54877744D02*
X64036566Y-54850807D01*
X64871626Y-55362618D02*
X64925500Y-55416492D01*
X64925500Y-55416492D02*
X64952438Y-55497305D01*
X64952438Y-55497305D02*
X64952438Y-55551179D01*
X64952438Y-55551179D02*
X64925500Y-55631992D01*
X64925500Y-55631992D02*
X64844688Y-55766679D01*
X64844688Y-55766679D02*
X64710001Y-55901366D01*
X64710001Y-55901366D02*
X64575314Y-55982178D01*
X64575314Y-55982178D02*
X64494502Y-56009115D01*
X64494502Y-56009115D02*
X64440627Y-56009115D01*
X64440627Y-56009115D02*
X64359815Y-55982178D01*
X64359815Y-55982178D02*
X64305940Y-55928303D01*
X64305940Y-55928303D02*
X64279003Y-55847491D01*
X64279003Y-55847491D02*
X64279003Y-55793616D01*
X64279003Y-55793616D02*
X64305940Y-55712804D01*
X64305940Y-55712804D02*
X64386752Y-55578117D01*
X64386752Y-55578117D02*
X64521439Y-55443430D01*
X64521439Y-55443430D02*
X64656126Y-55362618D01*
X64656126Y-55362618D02*
X64736939Y-55335680D01*
X64736939Y-55335680D02*
X64790813Y-55335680D01*
X64790813Y-55335680D02*
X64871626Y-55362618D01*
X56012505Y-53923372D02*
X55985568Y-53842560D01*
X55985568Y-53842560D02*
X55904756Y-53761748D01*
X55904756Y-53761748D02*
X55797006Y-53707873D01*
X55797006Y-53707873D02*
X55689257Y-53707873D01*
X55689257Y-53707873D02*
X55608444Y-53734810D01*
X55608444Y-53734810D02*
X55473757Y-53815623D01*
X55473757Y-53815623D02*
X55392945Y-53896435D01*
X55392945Y-53896435D02*
X55312133Y-54031122D01*
X55312133Y-54031122D02*
X55285196Y-54111934D01*
X55285196Y-54111934D02*
X55285196Y-54219684D01*
X55285196Y-54219684D02*
X55339070Y-54327433D01*
X55339070Y-54327433D02*
X55392945Y-54381308D01*
X55392945Y-54381308D02*
X55500695Y-54435183D01*
X55500695Y-54435183D02*
X55554570Y-54435183D01*
X55554570Y-54435183D02*
X55743131Y-54246621D01*
X55743131Y-54246621D02*
X55635382Y-54138871D01*
X55743131Y-54731494D02*
X56308817Y-54165809D01*
X56308817Y-54165809D02*
X56524316Y-54381308D01*
X56524316Y-54381308D02*
X56551253Y-54462120D01*
X56551253Y-54462120D02*
X56551253Y-54515995D01*
X56551253Y-54515995D02*
X56524316Y-54596807D01*
X56524316Y-54596807D02*
X56443504Y-54677619D01*
X56443504Y-54677619D02*
X56362692Y-54704557D01*
X56362692Y-54704557D02*
X56308817Y-54704557D01*
X56308817Y-54704557D02*
X56228005Y-54677619D01*
X56228005Y-54677619D02*
X56012505Y-54462120D01*
X56820627Y-54677619D02*
X57197751Y-55054743D01*
X57197751Y-55054743D02*
X56389629Y-55377992D01*
X35732819Y-34877333D02*
X36447104Y-34877333D01*
X36447104Y-34877333D02*
X36589961Y-34924952D01*
X36589961Y-34924952D02*
X36685200Y-35020190D01*
X36685200Y-35020190D02*
X36732819Y-35163047D01*
X36732819Y-35163047D02*
X36732819Y-35258285D01*
X35828057Y-34448761D02*
X35780438Y-34401142D01*
X35780438Y-34401142D02*
X35732819Y-34305904D01*
X35732819Y-34305904D02*
X35732819Y-34067809D01*
X35732819Y-34067809D02*
X35780438Y-33972571D01*
X35780438Y-33972571D02*
X35828057Y-33924952D01*
X35828057Y-33924952D02*
X35923295Y-33877333D01*
X35923295Y-33877333D02*
X36018533Y-33877333D01*
X36018533Y-33877333D02*
X36161390Y-33924952D01*
X36161390Y-33924952D02*
X36732819Y-34496380D01*
X36732819Y-34496380D02*
X36732819Y-33877333D01*
X63698219Y-34470933D02*
X64412504Y-34470933D01*
X64412504Y-34470933D02*
X64555361Y-34518552D01*
X64555361Y-34518552D02*
X64650600Y-34613790D01*
X64650600Y-34613790D02*
X64698219Y-34756647D01*
X64698219Y-34756647D02*
X64698219Y-34851885D01*
X63698219Y-33518552D02*
X63698219Y-33994742D01*
X63698219Y-33994742D02*
X64174409Y-34042361D01*
X64174409Y-34042361D02*
X64126790Y-33994742D01*
X64126790Y-33994742D02*
X64079171Y-33899504D01*
X64079171Y-33899504D02*
X64079171Y-33661409D01*
X64079171Y-33661409D02*
X64126790Y-33566171D01*
X64126790Y-33566171D02*
X64174409Y-33518552D01*
X64174409Y-33518552D02*
X64269647Y-33470933D01*
X64269647Y-33470933D02*
X64507742Y-33470933D01*
X64507742Y-33470933D02*
X64602980Y-33518552D01*
X64602980Y-33518552D02*
X64650600Y-33566171D01*
X64650600Y-33566171D02*
X64698219Y-33661409D01*
X64698219Y-33661409D02*
X64698219Y-33899504D01*
X64698219Y-33899504D02*
X64650600Y-33994742D01*
X64650600Y-33994742D02*
X64602980Y-34042361D01*
X111722819Y-65611333D02*
X112437104Y-65611333D01*
X112437104Y-65611333D02*
X112579961Y-65658952D01*
X112579961Y-65658952D02*
X112675200Y-65754190D01*
X112675200Y-65754190D02*
X112722819Y-65897047D01*
X112722819Y-65897047D02*
X112722819Y-65992285D01*
X111722819Y-65230380D02*
X111722819Y-64611333D01*
X111722819Y-64611333D02*
X112103771Y-64944666D01*
X112103771Y-64944666D02*
X112103771Y-64801809D01*
X112103771Y-64801809D02*
X112151390Y-64706571D01*
X112151390Y-64706571D02*
X112199009Y-64658952D01*
X112199009Y-64658952D02*
X112294247Y-64611333D01*
X112294247Y-64611333D02*
X112532342Y-64611333D01*
X112532342Y-64611333D02*
X112627580Y-64658952D01*
X112627580Y-64658952D02*
X112675200Y-64706571D01*
X112675200Y-64706571D02*
X112722819Y-64801809D01*
X112722819Y-64801809D02*
X112722819Y-65087523D01*
X112722819Y-65087523D02*
X112675200Y-65182761D01*
X112675200Y-65182761D02*
X112627580Y-65230380D01*
X98853666Y-63379819D02*
X98853666Y-64094104D01*
X98853666Y-64094104D02*
X98806047Y-64236961D01*
X98806047Y-64236961D02*
X98710809Y-64332200D01*
X98710809Y-64332200D02*
X98567952Y-64379819D01*
X98567952Y-64379819D02*
X98472714Y-64379819D01*
X99758428Y-63713152D02*
X99758428Y-64379819D01*
X99520333Y-63332200D02*
X99282238Y-64046485D01*
X99282238Y-64046485D02*
X99901285Y-64046485D01*
D12*
%TO.C,D11*%
X65628000Y-65406000D02*
X65628000Y-68686000D01*
X65628000Y-68686000D02*
X67468000Y-68686000D01*
X66548000Y-64226000D02*
X66548000Y-65406000D01*
X66548000Y-69866000D02*
X66548000Y-68686000D01*
X67468000Y-65406000D02*
X65628000Y-65406000D01*
X67468000Y-65862000D02*
X65628000Y-65862000D01*
X67468000Y-65982000D02*
X65628000Y-65982000D01*
X67468000Y-66102000D02*
X65628000Y-66102000D01*
X67468000Y-68686000D02*
X67468000Y-65406000D01*
%TO.C,D8*%
X58008000Y-65406000D02*
X58008000Y-68686000D01*
X58008000Y-68686000D02*
X59848000Y-68686000D01*
X58928000Y-64226000D02*
X58928000Y-65406000D01*
X58928000Y-69866000D02*
X58928000Y-68686000D01*
X59848000Y-65406000D02*
X58008000Y-65406000D01*
X59848000Y-65862000D02*
X58008000Y-65862000D01*
X59848000Y-65982000D02*
X58008000Y-65982000D01*
X59848000Y-66102000D02*
X58008000Y-66102000D01*
X59848000Y-68686000D02*
X59848000Y-65406000D01*
%TO.C,D13*%
X70708000Y-65406000D02*
X70708000Y-68686000D01*
X70708000Y-68686000D02*
X72548000Y-68686000D01*
X71628000Y-64226000D02*
X71628000Y-65406000D01*
X71628000Y-69866000D02*
X71628000Y-68686000D01*
X72548000Y-65406000D02*
X70708000Y-65406000D01*
X72548000Y-65862000D02*
X70708000Y-65862000D01*
X72548000Y-65982000D02*
X70708000Y-65982000D01*
X72548000Y-66102000D02*
X70708000Y-66102000D01*
X72548000Y-68686000D02*
X72548000Y-65406000D01*
%TO.C,D14*%
X73248000Y-65411000D02*
X73248000Y-68691000D01*
X73248000Y-67995000D02*
X75088000Y-67995000D01*
X73248000Y-68115000D02*
X75088000Y-68115000D01*
X73248000Y-68235000D02*
X75088000Y-68235000D01*
X73248000Y-68691000D02*
X75088000Y-68691000D01*
X74168000Y-64231000D02*
X74168000Y-65411000D01*
X74168000Y-69871000D02*
X74168000Y-68691000D01*
X75088000Y-65411000D02*
X73248000Y-65411000D01*
X75088000Y-68691000D02*
X75088000Y-65411000D01*
%TO.C,D9*%
X60548000Y-65406000D02*
X60548000Y-68686000D01*
X60548000Y-68686000D02*
X62388000Y-68686000D01*
X61468000Y-64226000D02*
X61468000Y-65406000D01*
X61468000Y-69866000D02*
X61468000Y-68686000D01*
X62388000Y-65406000D02*
X60548000Y-65406000D01*
X62388000Y-65862000D02*
X60548000Y-65862000D01*
X62388000Y-65982000D02*
X60548000Y-65982000D01*
X62388000Y-66102000D02*
X60548000Y-66102000D01*
X62388000Y-68686000D02*
X62388000Y-65406000D01*
%TO.C,D15*%
X75788000Y-65416000D02*
X75788000Y-68696000D01*
X75788000Y-68000000D02*
X77628000Y-68000000D01*
X75788000Y-68120000D02*
X77628000Y-68120000D01*
X75788000Y-68240000D02*
X77628000Y-68240000D01*
X75788000Y-68696000D02*
X77628000Y-68696000D01*
X76708000Y-64236000D02*
X76708000Y-65416000D01*
X76708000Y-69876000D02*
X76708000Y-68696000D01*
X77628000Y-65416000D02*
X75788000Y-65416000D01*
X77628000Y-68696000D02*
X77628000Y-65416000D01*
%TO.C,D10*%
X63088000Y-65416000D02*
X63088000Y-68696000D01*
X63088000Y-68000000D02*
X64928000Y-68000000D01*
X63088000Y-68120000D02*
X64928000Y-68120000D01*
X63088000Y-68240000D02*
X64928000Y-68240000D01*
X63088000Y-68696000D02*
X64928000Y-68696000D01*
X64008000Y-64236000D02*
X64008000Y-65416000D01*
X64008000Y-69876000D02*
X64008000Y-68696000D01*
X64928000Y-65416000D02*
X63088000Y-65416000D01*
X64928000Y-68696000D02*
X64928000Y-65416000D01*
%TO.C,D12*%
X68168000Y-65416000D02*
X68168000Y-68696000D01*
X68168000Y-68000000D02*
X70008000Y-68000000D01*
X68168000Y-68120000D02*
X70008000Y-68120000D01*
X68168000Y-68240000D02*
X70008000Y-68240000D01*
X68168000Y-68696000D02*
X70008000Y-68696000D01*
X69088000Y-64236000D02*
X69088000Y-65416000D01*
X69088000Y-69876000D02*
X69088000Y-68696000D01*
X70008000Y-65416000D02*
X68168000Y-65416000D01*
X70008000Y-68696000D02*
X70008000Y-65416000D01*
%TO.C,U1*%
X34698000Y-38014000D02*
X85698000Y-38014000D01*
X34698000Y-59014000D02*
X34698000Y-38014000D01*
X34698000Y-59014000D02*
X85698000Y-59014000D01*
X37365000Y-56007000D02*
X34698000Y-56007000D01*
X37365000Y-59014000D02*
X37365000Y-56007000D01*
X85698000Y-38014000D02*
X85698000Y-59014000D01*
%TO.C,J2*%
X37278000Y-35874000D02*
X37278000Y-34544000D01*
X38608000Y-35874000D02*
X37278000Y-35874000D01*
X39878000Y-33214000D02*
X45018000Y-33214000D01*
X39878000Y-35874000D02*
X39878000Y-33214000D01*
X39878000Y-35874000D02*
X45018000Y-35874000D01*
X45018000Y-35874000D02*
X45018000Y-33214000D01*
%TO.C,J5*%
X65243400Y-35467600D02*
X65243400Y-34137600D01*
X66573400Y-35467600D02*
X65243400Y-35467600D01*
X67843400Y-32807600D02*
X80603400Y-32807600D01*
X67843400Y-35467600D02*
X67843400Y-32807600D01*
X67843400Y-35467600D02*
X80603400Y-35467600D01*
X80603400Y-35467600D02*
X80603400Y-32807600D01*
%TO.C,J3*%
X98248000Y-66234000D02*
X98248000Y-68894000D01*
X111008000Y-66234000D02*
X98248000Y-66234000D01*
X111008000Y-66234000D02*
X111008000Y-68894000D01*
X111008000Y-68894000D02*
X98248000Y-68894000D01*
X112278000Y-66234000D02*
X113608000Y-66234000D01*
X113608000Y-66234000D02*
X113608000Y-67564000D01*
%TO.C,J4*%
X97857000Y-60325000D02*
X97857000Y-39945000D01*
X100517000Y-39945000D02*
X97857000Y-39945000D01*
X100517000Y-60325000D02*
X97857000Y-60325000D01*
X100517000Y-60325000D02*
X100517000Y-39945000D01*
X100517000Y-61595000D02*
X100517000Y-62925000D01*
X100517000Y-62925000D02*
X99187000Y-62925000D01*
%TD*%
M02*
