%TF.GenerationSoftware,KiCad,Pcbnew,7.0.8*%
%TF.CreationDate,2023-12-31T18:02:01+01:00*%
%TF.ProjectId,Sorbus-Junior,536f7262-7573-42d4-9a75-6e696f722e6b,rev?*%
%TF.SameCoordinates,Original*%
%TF.FileFunction,Plated,1,2,PTH,Drill*%
%TF.FilePolarity,Positive*%
%FSLAX46Y46*%
G04 Gerber Fmt 4.6, Leading zero omitted, Abs format (unit mm)*
G04 Created by KiCad (PCBNEW 7.0.8) date 2023-12-31 18:02:01*
%MOMM*%
%LPD*%
G01*
G04 APERTURE LIST*
%TA.AperFunction,ViaDrill*%
%ADD10C,0.400000*%
%TD*%
%TA.AperFunction,ComponentDrill*%
%ADD11C,0.800000*%
%TD*%
%TA.AperFunction,ComponentDrill*%
%ADD12C,1.000000*%
%TD*%
%TA.AperFunction,ComponentDrill*%
%ADD13C,1.020000*%
%TD*%
%TA.AperFunction,ViaDrill*%
%ADD14C,3.200000*%
%TD*%
G04 APERTURE END LIST*
D10*
X27178000Y-38100000D03*
X27889200Y-85953600D03*
X28194000Y-95758000D03*
X28295600Y-90017600D03*
X28702000Y-67945000D03*
X28702000Y-74549000D03*
X29210000Y-44577000D03*
X29210000Y-62992000D03*
X29845002Y-92837000D03*
X30353000Y-40640000D03*
X30607000Y-80264000D03*
X30988000Y-46355000D03*
X30988000Y-61214000D03*
X31877000Y-66167000D03*
X31877000Y-71374000D03*
X31877000Y-102870000D03*
X32766000Y-48133000D03*
X32766000Y-60325000D03*
X33020000Y-82042000D03*
X33655000Y-94615000D03*
X33909000Y-83566000D03*
X34544000Y-49911000D03*
X34544000Y-58166000D03*
X34696400Y-81229200D03*
X35052000Y-62992000D03*
X35052000Y-68199000D03*
X35090026Y-78486006D03*
X35179000Y-82804000D03*
X36322000Y-84836000D03*
X36576000Y-89560400D03*
X36703000Y-51943000D03*
X36703000Y-56769000D03*
X37047000Y-86233000D03*
X37846000Y-27432000D03*
X37846000Y-95504000D03*
X38227000Y-60071000D03*
X38227000Y-66421000D03*
X39243000Y-82804000D03*
X39243000Y-89281000D03*
X39534000Y-76500883D03*
X40259000Y-92811600D03*
X40767000Y-55626000D03*
X41275000Y-82804000D03*
X41402000Y-89408000D03*
X41402000Y-91948000D03*
X41529000Y-61722000D03*
X41529000Y-68072000D03*
X41656000Y-99060000D03*
X42418000Y-72898000D03*
X42418014Y-80264000D03*
X43180000Y-93726000D03*
X43307000Y-89408000D03*
X43307000Y-91948000D03*
X43720855Y-80397541D03*
X44196000Y-82042000D03*
X44577000Y-29718000D03*
X45085000Y-89408000D03*
X45085000Y-91948000D03*
X45085000Y-93726000D03*
X45085000Y-95885000D03*
X45937000Y-50927000D03*
X45957231Y-83566000D03*
X45974000Y-61214000D03*
X46863000Y-89408000D03*
X46863000Y-91948000D03*
X46863000Y-93726000D03*
X46863000Y-95885000D03*
X47498000Y-78105000D03*
X47752000Y-84836000D03*
X48641000Y-89408000D03*
X48641000Y-91948000D03*
X48641000Y-93726000D03*
X48641000Y-95885000D03*
X49022000Y-52197000D03*
X49022000Y-54483000D03*
X49022000Y-56261000D03*
X49022000Y-58039000D03*
X49530000Y-86233002D03*
X49530000Y-99822000D03*
X50419000Y-87503000D03*
X50419000Y-95885000D03*
X50673000Y-89408000D03*
X51308000Y-41148000D03*
X51308000Y-73277717D03*
X51308000Y-92862400D03*
X51308000Y-97917000D03*
X51525000Y-68258490D03*
X51562000Y-35433000D03*
X51816000Y-91059000D03*
X52197000Y-30099000D03*
X52197000Y-51689000D03*
X52197000Y-95885000D03*
X52197000Y-104013000D03*
X52324000Y-59944000D03*
X52959000Y-43307000D03*
X52959000Y-88011000D03*
X53086000Y-92329000D03*
X53340000Y-75057000D03*
X54102000Y-44540897D03*
X54102000Y-83693000D03*
X54102000Y-95885000D03*
X54102000Y-105283000D03*
X54356000Y-38227000D03*
X54864000Y-79375000D03*
X54990996Y-89280992D03*
X55245000Y-59944000D03*
X55372000Y-46863000D03*
X55662487Y-85471000D03*
X55880000Y-95885000D03*
X55880000Y-107188000D03*
X56134000Y-40005000D03*
X56515000Y-82245200D03*
X56642000Y-71755000D03*
X57150000Y-30099000D03*
X57658000Y-94615006D03*
X57658000Y-109474000D03*
X57912000Y-41783000D03*
X58039000Y-86614000D03*
X58293000Y-77343000D03*
X58807066Y-68834002D03*
X58877198Y-84799000D03*
X58928000Y-94234000D03*
X59436000Y-61595000D03*
X59436000Y-63373000D03*
X59436000Y-65913000D03*
X59563000Y-54483000D03*
X59563000Y-56261000D03*
X59563000Y-58039000D03*
X59563000Y-59817000D03*
X59563000Y-97028000D03*
X59563000Y-106933996D03*
X59817000Y-43561000D03*
X60579000Y-98933000D03*
X60579000Y-103505000D03*
X60579000Y-112395000D03*
X60706000Y-69723000D03*
X60706000Y-95885000D03*
X60960000Y-105156000D03*
X61468000Y-77978000D03*
X61468000Y-80772000D03*
X61595000Y-84074000D03*
X61976000Y-58039002D03*
X62484000Y-114173000D03*
X62738000Y-65913000D03*
X62738000Y-69850000D03*
X62992000Y-98044000D03*
X63246000Y-105156000D03*
X63372994Y-81483200D03*
X63500000Y-56261004D03*
X64261996Y-91694000D03*
X64262004Y-53594000D03*
X65151000Y-48895000D03*
X66040000Y-55372000D03*
X66040000Y-88011000D03*
X66294000Y-89916000D03*
X66319400Y-92989400D03*
X66929000Y-65913000D03*
X66929000Y-77216000D03*
X67056000Y-50800000D03*
X67691000Y-57150000D03*
X67691002Y-86614000D03*
X67945000Y-97790000D03*
X68707000Y-63373002D03*
X68707000Y-79375000D03*
X68834000Y-52578000D03*
X69596000Y-58928000D03*
X69596000Y-84060200D03*
X69723000Y-99695000D03*
X70358000Y-105537000D03*
X70463343Y-84799000D03*
X70612000Y-54356000D03*
X70993000Y-87757000D03*
X71424800Y-81483198D03*
X71442152Y-60774154D03*
X71501000Y-97790000D03*
X72263000Y-62501409D03*
X72263000Y-78994002D03*
X72390000Y-56134000D03*
X72644000Y-100330000D03*
X73022567Y-82259000D03*
X73109247Y-92870447D03*
X73787000Y-68833994D03*
X73914000Y-95377000D03*
X74168000Y-57912000D03*
X75057000Y-69977000D03*
X75057000Y-71374002D03*
X75438000Y-65913000D03*
X76073000Y-59817000D03*
X76215829Y-67567836D03*
X76215829Y-73914000D03*
X77343000Y-64389002D03*
X77343000Y-76454000D03*
X78613000Y-34544000D03*
X78613000Y-37084000D03*
X78613000Y-39624000D03*
X78613000Y-42164000D03*
X78613000Y-44704000D03*
X78613000Y-47244000D03*
X78613000Y-49784000D03*
X78613000Y-52324000D03*
X78613000Y-54864000D03*
X78613000Y-57404000D03*
X78613000Y-59944000D03*
X78613000Y-62484000D03*
X78613000Y-73025000D03*
X78613000Y-77724000D03*
X78613000Y-80264000D03*
X78613000Y-82804000D03*
X78613000Y-85344000D03*
X78613000Y-87884000D03*
X78613000Y-90424000D03*
X78613000Y-92964000D03*
X78613000Y-95504000D03*
X78613000Y-98044000D03*
X78613000Y-100584000D03*
X78613000Y-103124000D03*
X78613000Y-105664000D03*
X78613000Y-108204000D03*
X78613002Y-66294000D03*
X79629000Y-75057000D03*
X83185000Y-34544000D03*
X83185000Y-37084000D03*
X83185000Y-39624000D03*
X83185000Y-42164000D03*
X83185000Y-44704000D03*
X83185000Y-47244000D03*
X83185000Y-49784000D03*
X83185000Y-52324000D03*
X83185000Y-54864000D03*
X83185000Y-57404000D03*
X83185000Y-59944000D03*
X83185000Y-62484000D03*
X83185000Y-65024000D03*
X83185000Y-67564000D03*
X83185000Y-70104000D03*
X83185000Y-72644000D03*
X83185000Y-75184000D03*
X83185000Y-77724000D03*
X83185000Y-80264000D03*
X83185000Y-82804000D03*
X83185000Y-85344000D03*
X83185000Y-87884000D03*
X83185000Y-90424000D03*
X83185000Y-92964000D03*
X83185000Y-95504000D03*
X83185000Y-98044000D03*
X83185000Y-100584000D03*
X83185000Y-103124000D03*
X83185000Y-105664000D03*
X83185000Y-108204000D03*
X91313000Y-34544000D03*
X91313000Y-37084000D03*
X91313000Y-39624000D03*
X91313000Y-42164000D03*
X91313000Y-44704000D03*
X91313000Y-47244000D03*
X91313000Y-49784000D03*
X91313000Y-52324000D03*
X91313000Y-54864000D03*
X91313000Y-57404000D03*
X91313000Y-59944000D03*
X91313000Y-62484000D03*
X91313000Y-65024000D03*
X91313000Y-67564000D03*
X91313000Y-70104000D03*
X91313000Y-72644000D03*
X91313000Y-75184000D03*
X91313000Y-77724000D03*
X91313000Y-80264000D03*
X91313000Y-82804000D03*
X91313000Y-85344000D03*
X91313000Y-87884000D03*
X91313000Y-90424000D03*
X91313000Y-92964000D03*
X91313000Y-95504000D03*
X91313000Y-98044000D03*
X91313000Y-100584000D03*
X91313000Y-103124000D03*
X91313000Y-105664000D03*
X91313000Y-108204000D03*
X95885000Y-34544000D03*
X95885000Y-37084000D03*
X95885000Y-39624000D03*
X95885000Y-42164000D03*
X95885000Y-44704000D03*
X95885000Y-47244000D03*
X95885000Y-49784000D03*
X95885000Y-52324000D03*
X95885000Y-54864000D03*
X95885000Y-57404000D03*
X95885000Y-59944000D03*
X95885000Y-62484000D03*
X95885000Y-65024000D03*
X95885000Y-67564000D03*
X95885000Y-70104000D03*
X95885000Y-72644000D03*
X95885000Y-75184000D03*
X95885000Y-77724000D03*
X95885000Y-80264000D03*
X95885000Y-82804000D03*
X95885000Y-85344000D03*
X95885000Y-87884000D03*
X95885000Y-90424000D03*
X95885000Y-92964000D03*
X95885000Y-95504000D03*
X95885000Y-98044000D03*
X95885000Y-100584000D03*
X95885000Y-103124000D03*
X95885000Y-105664000D03*
X95885000Y-108204000D03*
X104013000Y-34544000D03*
X104013000Y-37084000D03*
X104013000Y-39624000D03*
X104013000Y-42164000D03*
X104013000Y-44704000D03*
X104013000Y-47244000D03*
X104013000Y-49784000D03*
X104013000Y-52324000D03*
X104013000Y-54864000D03*
X104013000Y-57404000D03*
X104013000Y-59944000D03*
X104013000Y-62484000D03*
X104013000Y-65024000D03*
X104013000Y-67564000D03*
X104013000Y-70104000D03*
X104013000Y-72644000D03*
X104013000Y-75184000D03*
X104013000Y-77724000D03*
X104013000Y-80264000D03*
X104013000Y-82804000D03*
X104013000Y-85344000D03*
X104013000Y-87884000D03*
X104013000Y-90424000D03*
X104013000Y-92964000D03*
X104013000Y-95504000D03*
X104013000Y-98044000D03*
X104013000Y-100584000D03*
X104013000Y-103124000D03*
X104013000Y-105664000D03*
X104013000Y-108204000D03*
X108585000Y-34544000D03*
X108585000Y-37084000D03*
X108585000Y-39624000D03*
X108585000Y-42164000D03*
X108585000Y-44704000D03*
X108585000Y-47244000D03*
X108585000Y-49784000D03*
X108585000Y-52324000D03*
X108585000Y-54864000D03*
X108585000Y-57404000D03*
X108585000Y-59944000D03*
X108585000Y-62484000D03*
X108585000Y-65024000D03*
X108585000Y-67564000D03*
X108585000Y-70104000D03*
X108585000Y-72644000D03*
X108585000Y-75184000D03*
X108585000Y-77724000D03*
X108585000Y-80264000D03*
X108585000Y-82804000D03*
X108585000Y-85344000D03*
X108585000Y-87884000D03*
X108585000Y-90424000D03*
X108585000Y-92964000D03*
X108585000Y-95504000D03*
X108585000Y-98044000D03*
X108585000Y-100584000D03*
X108585000Y-103124000D03*
X108585000Y-105664000D03*
X108585000Y-108204000D03*
X116713000Y-34544000D03*
X116713000Y-37084000D03*
X116713000Y-39624000D03*
X116713000Y-42164000D03*
X116713000Y-44704000D03*
X116713000Y-47244000D03*
X116713000Y-49784000D03*
X116713000Y-52324000D03*
X116713000Y-54864000D03*
X116713000Y-57404000D03*
X116713000Y-59944000D03*
X116713000Y-62484000D03*
X116713000Y-65024000D03*
X116713000Y-67564000D03*
X116713000Y-70104000D03*
X116713000Y-72644000D03*
X116713000Y-75184000D03*
X116713000Y-77724000D03*
X116713000Y-80264000D03*
X116713000Y-82804000D03*
X116713000Y-85344000D03*
X116713000Y-87884000D03*
X116713000Y-90424000D03*
X116713000Y-92964000D03*
X116713000Y-95504000D03*
X116713000Y-98044000D03*
X116713000Y-100584000D03*
X116713000Y-103124000D03*
X116713000Y-105664000D03*
X116713000Y-108204000D03*
D11*
%TO.C,U2*%
X27996719Y-82061334D03*
%TO.C,R3*%
X28295600Y-88188800D03*
X28295600Y-98348800D03*
%TO.C,R4*%
X28740026Y-66167641D03*
X28740026Y-76327641D03*
%TO.C,U2*%
X29792770Y-83857385D03*
%TO.C,R2*%
X31419800Y-90779600D03*
X31419800Y-100939600D03*
%TO.C,U2*%
X31588821Y-85653436D03*
%TO.C,R5*%
X31915026Y-63119641D03*
X31915026Y-73279641D03*
%TO.C,U2*%
X33384873Y-87449488D03*
%TO.C,C1*%
X34798000Y-101005000D03*
X34798000Y-106005000D03*
%TO.C,R6*%
X35090026Y-59944641D03*
X35090026Y-70104641D03*
%TO.C,U2*%
X35180924Y-89245539D03*
X36976975Y-91041590D03*
%TO.C,R7*%
X38265026Y-58166641D03*
X38265026Y-68326641D03*
%TO.C,U2*%
X38773026Y-71285027D03*
X38773026Y-92837641D03*
X40569078Y-73081078D03*
X40569078Y-94633693D03*
%TO.C,R1*%
X41529000Y-59817000D03*
X41529000Y-69977000D03*
%TO.C,U2*%
X42365129Y-74877129D03*
X42365129Y-96429744D03*
X44161180Y-76673180D03*
X44161180Y-98225795D03*
X45957231Y-78469232D03*
X45957231Y-100021846D03*
X47753282Y-80265283D03*
X47753282Y-101817897D03*
X49549334Y-82061334D03*
X49549334Y-103613949D03*
X51345385Y-83857385D03*
X51345385Y-105410000D03*
X53141436Y-85653436D03*
X53141436Y-107206051D03*
X54937487Y-87449488D03*
X54937487Y-109002102D03*
X56733539Y-89245539D03*
X56733539Y-110798154D03*
X58529590Y-91041590D03*
X58529590Y-112594205D03*
X60325641Y-92837641D03*
X60325641Y-114390256D03*
X62121692Y-94633693D03*
X62121692Y-116186307D03*
X63917743Y-96429744D03*
X65713795Y-98225795D03*
X67509846Y-100021846D03*
X69305897Y-101817897D03*
X71101948Y-103613949D03*
X72898000Y-105410000D03*
D12*
%TO.C,J6*%
X28067000Y-101346000D03*
X28067000Y-103886000D03*
X28067000Y-106426000D03*
X28067000Y-108966000D03*
X28067000Y-111506000D03*
%TO.C,J5*%
X50805000Y-28346400D03*
X53345000Y-28346400D03*
X55885000Y-28346400D03*
X58425000Y-28346400D03*
X60965000Y-28346400D03*
%TO.C,J4*%
X80924400Y-33274000D03*
X80924400Y-35814000D03*
X80924400Y-38354000D03*
X80924400Y-40894000D03*
X80924400Y-43434000D03*
X80924400Y-45974000D03*
X80924400Y-48514000D03*
X80924400Y-51054000D03*
X80924400Y-53594000D03*
X80924400Y-56134000D03*
X80924400Y-58674000D03*
X80924400Y-61214000D03*
X80924400Y-63754000D03*
X80924400Y-66294000D03*
X80924400Y-68834000D03*
X80924400Y-71374000D03*
X80924400Y-73914000D03*
X80924400Y-76454000D03*
X80924400Y-78994000D03*
X80924400Y-81534000D03*
X80924400Y-84074000D03*
X80924400Y-86614000D03*
X80924400Y-89154000D03*
X80924400Y-91694000D03*
X80924400Y-94234000D03*
X80924400Y-96774000D03*
X80924400Y-99314000D03*
X80924400Y-101854000D03*
X80924400Y-104394000D03*
X80924400Y-106934000D03*
X80924400Y-109474000D03*
X80924400Y-112014000D03*
%TO.C,J3*%
X93599000Y-33274000D03*
X93599000Y-35814000D03*
X93599000Y-38354000D03*
X93599000Y-40894000D03*
X93599000Y-43434000D03*
X93599000Y-45974000D03*
X93599000Y-48514000D03*
X93599000Y-51054000D03*
X93599000Y-53594000D03*
X93599000Y-56134000D03*
X93599000Y-58674000D03*
X93599000Y-61214000D03*
X93599000Y-63754000D03*
X93599000Y-66294000D03*
X93599000Y-68834000D03*
X93599000Y-71374000D03*
X93599000Y-73914000D03*
X93599000Y-76454000D03*
X93599000Y-78994000D03*
X93599000Y-81534000D03*
X93599000Y-84074000D03*
X93599000Y-86614000D03*
X93599000Y-89154000D03*
X93599000Y-91694000D03*
X93599000Y-94234000D03*
X93599000Y-96774000D03*
X93599000Y-99314000D03*
X93599000Y-101854000D03*
X93599000Y-104394000D03*
X93599000Y-106934000D03*
X93599000Y-109474000D03*
X93599000Y-112014000D03*
%TO.C,J2*%
X106299000Y-33274000D03*
X106299000Y-35814000D03*
X106299000Y-38354000D03*
X106299000Y-40894000D03*
X106299000Y-43434000D03*
X106299000Y-45974000D03*
X106299000Y-48514000D03*
X106299000Y-51054000D03*
X106299000Y-53594000D03*
X106299000Y-56134000D03*
X106299000Y-58674000D03*
X106299000Y-61214000D03*
X106299000Y-63754000D03*
X106299000Y-66294000D03*
X106299000Y-68834000D03*
X106299000Y-71374000D03*
X106299000Y-73914000D03*
X106299000Y-76454000D03*
X106299000Y-78994000D03*
X106299000Y-81534000D03*
X106299000Y-84074000D03*
X106299000Y-86614000D03*
X106299000Y-89154000D03*
X106299000Y-91694000D03*
X106299000Y-94234000D03*
X106299000Y-96774000D03*
X106299000Y-99314000D03*
X106299000Y-101854000D03*
X106299000Y-104394000D03*
X106299000Y-106934000D03*
X106299000Y-109474000D03*
X106299000Y-112014000D03*
%TO.C,J1*%
X118999000Y-33274000D03*
X118999000Y-35814000D03*
X118999000Y-38354000D03*
X118999000Y-40894000D03*
X118999000Y-43434000D03*
X118999000Y-45974000D03*
X118999000Y-48514000D03*
X118999000Y-51054000D03*
X118999000Y-53594000D03*
X118999000Y-56134000D03*
X118999000Y-58674000D03*
X118999000Y-61214000D03*
X118999000Y-63754000D03*
X118999000Y-66294000D03*
X118999000Y-68834000D03*
X118999000Y-71374000D03*
X118999000Y-73914000D03*
X118999000Y-76454000D03*
X118999000Y-78994000D03*
X118999000Y-81534000D03*
X118999000Y-84074000D03*
X118999000Y-86614000D03*
X118999000Y-89154000D03*
X118999000Y-91694000D03*
X118999000Y-94234000D03*
X118999000Y-96774000D03*
X118999000Y-99314000D03*
X118999000Y-101854000D03*
X118999000Y-104394000D03*
X118999000Y-106934000D03*
X118999000Y-109474000D03*
X118999000Y-112014000D03*
D13*
%TO.C,U1*%
X28274195Y-40948795D03*
X30070246Y-42744846D03*
X31866298Y-44540897D03*
X33662349Y-46336948D03*
X35458400Y-48133000D03*
X37254451Y-49929051D03*
X39050502Y-51725102D03*
X40846554Y-28376436D03*
X40846554Y-53521153D03*
X42642605Y-30172487D03*
X42642605Y-55317204D03*
X44438656Y-31968539D03*
X44438656Y-57113256D03*
X46234707Y-33764590D03*
X46234707Y-58909307D03*
X48030759Y-35560641D03*
X48030759Y-60705358D03*
X49826810Y-37356692D03*
X49826810Y-62501409D03*
X51622861Y-39152743D03*
X51622861Y-64297461D03*
X53418912Y-40948795D03*
X53418912Y-66093512D03*
X55214963Y-42744846D03*
X55214963Y-67889563D03*
X57011015Y-44540897D03*
X57011015Y-69685614D03*
X58807066Y-46336948D03*
X58807066Y-71481665D03*
X60603117Y-48133000D03*
X60603117Y-73277717D03*
X62399168Y-49929051D03*
X62399168Y-75073768D03*
X64195220Y-51725102D03*
X65991271Y-53521153D03*
X67787322Y-55317204D03*
X69583373Y-57113256D03*
X71379424Y-58909307D03*
X73175476Y-60705358D03*
X74971527Y-62501409D03*
%TD*%
D14*
X29210000Y-29337000D03*
X29210000Y-115697000D03*
X121412000Y-29337000D03*
X121539000Y-115697000D03*
M02*
