%TF.GenerationSoftware,KiCad,Pcbnew,7.0.8*%
%TF.CreationDate,2024-01-16T07:15:13+01:00*%
%TF.ProjectId,Sorbus-VGA,536f7262-7573-42d5-9647-412e6b696361,rev?*%
%TF.SameCoordinates,Original*%
%TF.FileFunction,Copper,L1,Top*%
%TF.FilePolarity,Positive*%
%FSLAX46Y46*%
G04 Gerber Fmt 4.6, Leading zero omitted, Abs format (unit mm)*
G04 Created by KiCad (PCBNEW 7.0.8) date 2024-01-16 07:15:13*
%MOMM*%
%LPD*%
G01*
G04 APERTURE LIST*
G04 Aperture macros list*
%AMHorizOval*
0 Thick line with rounded ends*
0 $1 width*
0 $2 $3 position (X,Y) of the first rounded end (center of the circle)*
0 $4 $5 position (X,Y) of the second rounded end (center of the circle)*
0 Add line between two ends*
20,1,$1,$2,$3,$4,$5,0*
0 Add two circle primitives to create the rounded ends*
1,1,$1,$2,$3*
1,1,$1,$4,$5*%
G04 Aperture macros list end*
%TA.AperFunction,ComponentPad*%
%ADD10C,1.400000*%
%TD*%
%TA.AperFunction,ComponentPad*%
%ADD11HorizOval,1.400000X0.000000X0.000000X0.000000X0.000000X0*%
%TD*%
%TA.AperFunction,ComponentPad*%
%ADD12R,1.500000X1.500000*%
%TD*%
%TA.AperFunction,ComponentPad*%
%ADD13O,1.500000X1.500000*%
%TD*%
%TA.AperFunction,ComponentPad*%
%ADD14O,1.400000X1.400000*%
%TD*%
%TA.AperFunction,ComponentPad*%
%ADD15R,1.700000X1.700000*%
%TD*%
%TA.AperFunction,ComponentPad*%
%ADD16O,1.700000X1.700000*%
%TD*%
%TA.AperFunction,ComponentPad*%
%ADD17C,4.000000*%
%TD*%
%TA.AperFunction,ComponentPad*%
%ADD18R,1.600000X1.600000*%
%TD*%
%TA.AperFunction,ComponentPad*%
%ADD19C,1.600000*%
%TD*%
%TA.AperFunction,ViaPad*%
%ADD20C,0.800000*%
%TD*%
%TA.AperFunction,Conductor*%
%ADD21C,0.250000*%
%TD*%
%TA.AperFunction,Conductor*%
%ADD22C,0.508000*%
%TD*%
G04 APERTURE END LIST*
D10*
%TO.P,R5,1*%
%TO.N,/RED_B0*%
X97127924Y-37238077D03*
D11*
%TO.P,R5,2*%
%TO.N,/VGA_RED*%
X102516078Y-31849923D03*
%TD*%
D12*
%TO.P,D14,1,K*%
%TO.N,~{CS}*%
X74168000Y-64765000D03*
D13*
%TO.P,D14,2,A*%
%TO.N,/A14*%
X74168000Y-72385000D03*
%TD*%
D10*
%TO.P,R8,1*%
%TO.N,/GREEN_B2*%
X87630000Y-49530000D03*
D14*
%TO.P,R8,2*%
%TO.N,/VGA_GREEN*%
X95250000Y-49530000D03*
%TD*%
D12*
%TO.P,D15,1,K*%
%TO.N,~{CS}*%
X76708000Y-64765000D03*
D13*
%TO.P,D15,2,A*%
%TO.N,/A15*%
X76708000Y-72385000D03*
%TD*%
D10*
%TO.P,R17,1*%
%TO.N,/VSYNC*%
X105283000Y-33655000D03*
D14*
%TO.P,R17,2*%
%TO.N,/VGA_VSYNC*%
X112903000Y-33655000D03*
%TD*%
D12*
%TO.P,D10,1,K*%
%TO.N,~{CS}*%
X64008000Y-64765000D03*
D13*
%TO.P,D10,2,A*%
%TO.N,/A10*%
X64008000Y-72385000D03*
%TD*%
D12*
%TO.P,D8,1,K*%
%TO.N,~{CS}*%
X58928000Y-64765000D03*
D13*
%TO.P,D8,2,A*%
%TO.N,/A8*%
X58928000Y-72385000D03*
%TD*%
D10*
%TO.P,R14,1*%
%TO.N,/BLUE_B1*%
X97282000Y-69088000D03*
D11*
%TO.P,R14,2*%
%TO.N,/VGA_BLUE*%
X102670154Y-63699846D03*
%TD*%
D10*
%TO.P,R12,1*%
%TO.N,/BLUE_B3*%
X97227846Y-62030154D03*
D11*
%TO.P,R12,2*%
%TO.N,/VGA_BLUE*%
X102616000Y-56642000D03*
%TD*%
D12*
%TO.P,D6,1,K*%
%TO.N,~{CS}*%
X53848000Y-64765000D03*
D13*
%TO.P,D6,2,A*%
%TO.N,/A6*%
X53848000Y-72385000D03*
%TD*%
D10*
%TO.P,R10,1*%
%TO.N,/GREEN_B0*%
X87630000Y-42418000D03*
D14*
%TO.P,R10,2*%
%TO.N,/VGA_GREEN*%
X95250000Y-42418000D03*
%TD*%
D10*
%TO.P,R11,1*%
%TO.N,/BLUE_B4*%
X97227846Y-58574077D03*
D11*
%TO.P,R11,2*%
%TO.N,/VGA_BLUE*%
X102616000Y-53185923D03*
%TD*%
D10*
%TO.P,R7,1*%
%TO.N,/GREEN_B3*%
X87630000Y-53086000D03*
D14*
%TO.P,R7,2*%
%TO.N,/VGA_GREEN*%
X95250000Y-53086000D03*
%TD*%
D12*
%TO.P,D7,1,K*%
%TO.N,~{CS}*%
X56388000Y-64765000D03*
D13*
%TO.P,D7,2,A*%
%TO.N,/A7*%
X56388000Y-72385000D03*
%TD*%
D12*
%TO.P,D9,1,K*%
%TO.N,~{CS}*%
X61468000Y-64765000D03*
D13*
%TO.P,D9,2,A*%
%TO.N,/A9*%
X61468000Y-72385000D03*
%TD*%
D10*
%TO.P,R9,1*%
%TO.N,/GREEN_B1*%
X87630000Y-45974000D03*
D14*
%TO.P,R9,2*%
%TO.N,/VGA_GREEN*%
X95250000Y-45974000D03*
%TD*%
D15*
%TO.P,J3,1,Pin_1*%
%TO.N,/A0*%
X37084000Y-71628000D03*
D16*
%TO.P,J3,2,Pin_2*%
%TO.N,/GPIO28*%
X37084000Y-69088000D03*
%TO.P,J3,3,Pin_3*%
%TO.N,~{IRQ}*%
X37084000Y-66548000D03*
%TD*%
D10*
%TO.P,R3,1*%
%TO.N,/RED_B2*%
X97127924Y-44350077D03*
D11*
%TO.P,R3,2*%
%TO.N,/VGA_RED*%
X102516078Y-38961923D03*
%TD*%
D12*
%TO.P,D13,1,K*%
%TO.N,~{CS}*%
X71628000Y-64765000D03*
D13*
%TO.P,D13,2,A*%
%TO.N,/A13*%
X71628000Y-72385000D03*
%TD*%
D10*
%TO.P,R13,1*%
%TO.N,/BLUE_B2*%
X97227846Y-65586154D03*
D11*
%TO.P,R13,2*%
%TO.N,/VGA_BLUE*%
X102616000Y-60198000D03*
%TD*%
D17*
%TO.P,J2,0*%
%TO.N,GND*%
X108712000Y-69631000D03*
X108712000Y-44631000D03*
D18*
%TO.P,J2,1*%
%TO.N,/VGA_RED*%
X107292000Y-52816000D03*
D19*
%TO.P,J2,2*%
%TO.N,/VGA_GREEN*%
X107292000Y-55106000D03*
%TO.P,J2,3*%
%TO.N,/VGA_BLUE*%
X107292000Y-57396000D03*
%TO.P,J2,4*%
%TO.N,unconnected-(J2-Pad4)*%
X107292000Y-59686000D03*
%TO.P,J2,5*%
%TO.N,GND*%
X107292000Y-61976000D03*
%TO.P,J2,6*%
X109272000Y-51671000D03*
%TO.P,J2,7*%
X109272000Y-53961000D03*
%TO.P,J2,8*%
X109272000Y-56251000D03*
%TO.P,J2,9*%
%TO.N,unconnected-(J2-Pad9)*%
X109272000Y-58541000D03*
%TO.P,J2,10*%
%TO.N,GND*%
X109272000Y-60831000D03*
%TO.P,J2,11*%
%TO.N,unconnected-(J2-Pad11)*%
X111252000Y-52816000D03*
%TO.P,J2,12*%
%TO.N,unconnected-(J2-Pad12)*%
X111252000Y-55106000D03*
%TO.P,J2,13*%
%TO.N,/VGA_HSYNC*%
X111252000Y-57396000D03*
%TO.P,J2,14*%
%TO.N,/VGA_VSYNC*%
X111252000Y-59686000D03*
%TO.P,J2,15*%
%TO.N,unconnected-(J2-Pad15)*%
X111252000Y-61976000D03*
%TD*%
D12*
%TO.P,D3,1,K*%
%TO.N,~{CS}*%
X46228000Y-64765000D03*
D13*
%TO.P,D3,2,A*%
%TO.N,/A3*%
X46228000Y-72385000D03*
%TD*%
D10*
%TO.P,R15,1*%
%TO.N,/BLUE_B0*%
X97227846Y-72698154D03*
D11*
%TO.P,R15,2*%
%TO.N,/VGA_BLUE*%
X102616000Y-67310000D03*
%TD*%
D12*
%TO.P,D1,1,K*%
%TO.N,~{CS}*%
X41146000Y-64765000D03*
D13*
%TO.P,D1,2,A*%
%TO.N,/A1*%
X41146000Y-72385000D03*
%TD*%
D10*
%TO.P,R1,1*%
%TO.N,/RED_B4*%
X97127924Y-51462077D03*
D11*
%TO.P,R1,2*%
%TO.N,/VGA_RED*%
X102516078Y-46073923D03*
%TD*%
D10*
%TO.P,R2,1*%
%TO.N,/RED_B3*%
X97127924Y-47906077D03*
D11*
%TO.P,R2,2*%
%TO.N,/VGA_RED*%
X102516078Y-42517923D03*
%TD*%
D12*
%TO.P,D2,1,K*%
%TO.N,~{CS}*%
X43688000Y-64765000D03*
D13*
%TO.P,D2,2,A*%
%TO.N,/A2*%
X43688000Y-72385000D03*
%TD*%
D16*
%TO.P,U1,1,GPIO0*%
%TO.N,/RED_B0*%
X36068000Y-57404000D03*
%TO.P,U1,2,GPIO1*%
%TO.N,/RED_B1*%
X38608000Y-57404000D03*
%TO.P,U1,3,GPIO2*%
%TO.N,/RED_B2*%
X41148000Y-57404000D03*
%TO.P,U1,4,GPIO3*%
%TO.N,/RED_B3*%
X43688000Y-57404000D03*
%TO.P,U1,5,GPIO4*%
%TO.N,/RED_B4*%
X46228000Y-57404000D03*
D15*
%TO.P,U1,6,GND*%
%TO.N,GND*%
X48768000Y-57404000D03*
D16*
%TO.P,U1,7,GPIO5*%
%TO.N,~{CS}*%
X51308000Y-57404000D03*
%TO.P,U1,8,GPIO6*%
%TO.N,/GREEN_B0*%
X53848000Y-57404000D03*
%TO.P,U1,9,GPIO7*%
%TO.N,/GREEN_B1*%
X56388000Y-57404000D03*
%TO.P,U1,10,GPIO8*%
%TO.N,/GREEN_B2*%
X58928000Y-57404000D03*
%TO.P,U1,11,GPIO9*%
%TO.N,/GREEN_B3*%
X61468000Y-57404000D03*
%TO.P,U1,12,GPIO10*%
%TO.N,/GREEN_B4*%
X64008000Y-57404000D03*
%TO.P,U1,13,GPIO11*%
%TO.N,/BLUE_B0*%
X66548000Y-57404000D03*
%TO.P,U1,14,GPIO12*%
%TO.N,/BLUE_B1*%
X69088000Y-57404000D03*
D15*
%TO.P,U1,15,GND*%
%TO.N,GND*%
X71628000Y-57404000D03*
D16*
%TO.P,U1,16,GPIO13*%
%TO.N,/BLUE_B2*%
X74168000Y-57404000D03*
%TO.P,U1,17,GPIO14*%
%TO.N,/BLUE_B3*%
X76708000Y-57404000D03*
%TO.P,U1,18,GPIO15*%
%TO.N,/BLUE_B4*%
X79248000Y-57404000D03*
%TO.P,U1,19,GPIO16*%
%TO.N,/HSYNC*%
X81788000Y-57404000D03*
%TO.P,U1,20,GPIO17*%
%TO.N,/VSYNC*%
X84328000Y-57404000D03*
%TO.P,U1,21,GPIO18*%
%TO.N,D0*%
X84328000Y-39624000D03*
%TO.P,U1,22,GPIO19*%
%TO.N,D1*%
X81788000Y-39624000D03*
%TO.P,U1,23,GPIO20*%
%TO.N,D2*%
X79248000Y-39624000D03*
%TO.P,U1,24,GPIO21*%
%TO.N,D3*%
X76708000Y-39624000D03*
%TO.P,U1,25,GPIO22*%
%TO.N,D4*%
X74168000Y-39624000D03*
%TO.P,U1,26,GPIO23*%
%TO.N,D5*%
X71628000Y-39624000D03*
%TO.P,U1,27,GPIO24*%
%TO.N,D6*%
X69088000Y-39624000D03*
%TO.P,U1,28,GPIO25*%
%TO.N,D7*%
X66548000Y-39624000D03*
D15*
%TO.P,U1,29,AGND*%
%TO.N,GND*%
X64008000Y-39624000D03*
D16*
%TO.P,U1,30,GPIO26_ADC0*%
%TO.N,R{slash}~{W}*%
X61468000Y-39624000D03*
%TO.P,U1,31,GPIO27_ADC1*%
%TO.N,CLK*%
X58928000Y-39624000D03*
%TO.P,U1,32,GPIO28_ADC2*%
%TO.N,/GPIO28*%
X56388000Y-39624000D03*
%TO.P,U1,33,GPIO29_ADC3*%
%TO.N,~{NMI}*%
X53848000Y-39624000D03*
%TO.P,U1,34,RUN*%
%TO.N,RUN*%
X51308000Y-39624000D03*
D15*
%TO.P,U1,35,GND*%
%TO.N,GND*%
X48768000Y-39624000D03*
D16*
%TO.P,U1,36,3V3*%
%TO.N,3V3*%
X46228000Y-39624000D03*
%TO.P,U1,37,3V3_EN*%
%TO.N,unconnected-(U1-3V3_EN-Pad37)*%
X43688000Y-39624000D03*
D15*
%TO.P,U1,38,GND*%
%TO.N,GND*%
X41148000Y-39624000D03*
D16*
%TO.P,U1,39,VIN*%
%TO.N,unconnected-(U1-VIN-Pad39)*%
X38608000Y-39624000D03*
%TO.P,U1,40,VBUS*%
%TO.N,5V*%
X36068000Y-39624000D03*
%TD*%
D10*
%TO.P,R4,1*%
%TO.N,/RED_B1*%
X97127924Y-40794077D03*
D11*
%TO.P,R4,2*%
%TO.N,/VGA_RED*%
X102516078Y-35405923D03*
%TD*%
D12*
%TO.P,D12,1,K*%
%TO.N,~{CS}*%
X69088000Y-64765000D03*
D13*
%TO.P,D12,2,A*%
%TO.N,/A12*%
X69088000Y-72385000D03*
%TD*%
D10*
%TO.P,R16,1*%
%TO.N,/HSYNC*%
X104521000Y-37084000D03*
D14*
%TO.P,R16,2*%
%TO.N,/VGA_HSYNC*%
X112141000Y-37084000D03*
%TD*%
D15*
%TO.P,J4,1,Pin_1*%
%TO.N,5V*%
X38608000Y-34544000D03*
D16*
%TO.P,J4,2,Pin_2*%
%TO.N,VCC*%
X41148000Y-34544000D03*
%TO.P,J4,3,Pin_3*%
%TO.N,3V3*%
X43688000Y-34544000D03*
%TD*%
D10*
%TO.P,R6,1*%
%TO.N,/GREEN_B4*%
X87630000Y-56642000D03*
D14*
%TO.P,R6,2*%
%TO.N,/VGA_GREEN*%
X95250000Y-56642000D03*
%TD*%
D12*
%TO.P,D4,1,K*%
%TO.N,~{CS}*%
X48768000Y-64765000D03*
D13*
%TO.P,D4,2,A*%
%TO.N,/A4*%
X48768000Y-72385000D03*
%TD*%
D12*
%TO.P,D5,1,K*%
%TO.N,~{CS}*%
X51308000Y-64765000D03*
D13*
%TO.P,D5,2,A*%
%TO.N,/A5*%
X51308000Y-72385000D03*
%TD*%
D12*
%TO.P,D11,1,K*%
%TO.N,~{CS}*%
X66548000Y-64765000D03*
D13*
%TO.P,D11,2,A*%
%TO.N,/A11*%
X66548000Y-72385000D03*
%TD*%
D15*
%TO.P,J1,1,Pin_1*%
%TO.N,GND*%
X33528000Y-76200000D03*
D16*
%TO.P,J1,2,Pin_2*%
%TO.N,VCC*%
X36068000Y-76200000D03*
%TO.P,J1,3,Pin_3*%
%TO.N,/A0*%
X38608000Y-76200000D03*
%TO.P,J1,4,Pin_4*%
%TO.N,/A1*%
X41148000Y-76200000D03*
%TO.P,J1,5,Pin_5*%
%TO.N,/A2*%
X43688000Y-76200000D03*
%TO.P,J1,6,Pin_6*%
%TO.N,/A3*%
X46228000Y-76200000D03*
%TO.P,J1,7,Pin_7*%
%TO.N,/A4*%
X48768000Y-76200000D03*
%TO.P,J1,8,Pin_8*%
%TO.N,/A5*%
X51308000Y-76200000D03*
%TO.P,J1,9,Pin_9*%
%TO.N,/A6*%
X53848000Y-76200000D03*
%TO.P,J1,10,Pin_10*%
%TO.N,/A7*%
X56388000Y-76200000D03*
%TO.P,J1,11,Pin_11*%
%TO.N,/A8*%
X58928000Y-76200000D03*
%TO.P,J1,12,Pin_12*%
%TO.N,/A9*%
X61468000Y-76200000D03*
%TO.P,J1,13,Pin_13*%
%TO.N,/A10*%
X64008000Y-76200000D03*
%TO.P,J1,14,Pin_14*%
%TO.N,/A11*%
X66548000Y-76200000D03*
%TO.P,J1,15,Pin_15*%
%TO.N,/A12*%
X69088000Y-76200000D03*
%TO.P,J1,16,Pin_16*%
%TO.N,/A13*%
X71628000Y-76200000D03*
%TO.P,J1,17,Pin_17*%
%TO.N,/A14*%
X74168000Y-76200000D03*
%TO.P,J1,18,Pin_18*%
%TO.N,/A15*%
X76708000Y-76200000D03*
%TO.P,J1,19,Pin_19*%
%TO.N,D0*%
X79248000Y-76200000D03*
%TO.P,J1,20,Pin_20*%
%TO.N,D1*%
X81788000Y-76200000D03*
%TO.P,J1,21,Pin_21*%
%TO.N,D2*%
X84328000Y-76200000D03*
%TO.P,J1,22,Pin_22*%
%TO.N,D3*%
X86868000Y-76200000D03*
%TO.P,J1,23,Pin_23*%
%TO.N,D4*%
X89408000Y-76200000D03*
%TO.P,J1,24,Pin_24*%
%TO.N,D5*%
X91948000Y-76200000D03*
%TO.P,J1,25,Pin_25*%
%TO.N,D6*%
X94488000Y-76200000D03*
%TO.P,J1,26,Pin_26*%
%TO.N,D7*%
X97028000Y-76200000D03*
%TO.P,J1,27,Pin_27*%
%TO.N,R{slash}~{W}*%
X99568000Y-76200000D03*
%TO.P,J1,28,Pin_28*%
%TO.N,CLK*%
X102108000Y-76200000D03*
%TO.P,J1,29,Pin_29*%
%TO.N,RDY*%
X104648000Y-76200000D03*
%TO.P,J1,30,Pin_30*%
%TO.N,~{IRQ}*%
X107188000Y-76200000D03*
%TO.P,J1,31,Pin_31*%
%TO.N,~{NMI}*%
X109728000Y-76200000D03*
%TO.P,J1,32,Pin_32*%
%TO.N,~{RESET}*%
X112268000Y-76200000D03*
%TD*%
D20*
%TO.N,GND*%
X98552000Y-66929000D03*
X105918000Y-74676000D03*
X65278000Y-59563000D03*
X52578000Y-59563000D03*
X42418000Y-74168000D03*
X57658000Y-74168000D03*
X47498000Y-74168000D03*
X50038000Y-74168000D03*
X60198000Y-74168000D03*
X67818000Y-74168000D03*
X55118000Y-74168000D03*
X65278000Y-74168000D03*
X72898000Y-74168000D03*
X52578000Y-74168000D03*
X75438000Y-74168000D03*
X62738000Y-74168000D03*
X87630000Y-54991000D03*
X44958000Y-74168000D03*
X70358000Y-74168000D03*
%TO.N,D0*%
X79206551Y-73279000D03*
X85598000Y-73278992D03*
%TO.N,D2*%
X84328000Y-72263000D03*
X80518000Y-72263000D03*
%TO.N,D3*%
X77978000Y-67056000D03*
X86867994Y-67056000D03*
%TO.N,D4*%
X89408000Y-68072000D03*
X75437997Y-68072000D03*
%TO.N,D5*%
X91948000Y-69088000D03*
X72898000Y-69087994D03*
%TO.N,D6*%
X93726000Y-70104000D03*
X70358004Y-70104000D03*
%TO.N,D7*%
X95504000Y-71247000D03*
X67818000Y-71247000D03*
%TO.N,/GREEN_B2*%
X58928000Y-52959000D03*
%TO.N,/GREEN_B1*%
X56388000Y-50673000D03*
%TO.N,/GREEN_B0*%
X53847996Y-48260000D03*
%TO.N,/HSYNC*%
X90551000Y-37084000D03*
X90551000Y-58838000D03*
%TO.N,/VSYNC*%
X89154000Y-57917279D03*
X89154000Y-36068010D03*
%TD*%
D21*
%TO.N,~{CS}*%
X51308000Y-57404000D02*
X51308000Y-64765000D01*
%TO.N,/A6*%
X53848000Y-76200000D02*
X53848000Y-72385000D01*
%TO.N,/A12*%
X69088000Y-76200000D02*
X69088000Y-72385000D01*
%TO.N,/A13*%
X71628000Y-72385000D02*
X71628000Y-76200000D01*
%TO.N,/A15*%
X76708000Y-72385000D02*
X76708000Y-76200000D01*
D22*
%TO.N,GND*%
X109272000Y-51671000D02*
X109272000Y-56251000D01*
%TO.N,VCC*%
X41148000Y-32893000D02*
X41148000Y-34544000D01*
X33528000Y-32893000D02*
X41148000Y-32893000D01*
X36068000Y-76200000D02*
X33528000Y-73660000D01*
X33528000Y-73660000D02*
X33528000Y-32893000D01*
D21*
%TO.N,D0*%
X79248000Y-76200000D02*
X79248000Y-73320449D01*
X84328000Y-39624000D02*
X85598000Y-40894000D01*
X85598000Y-40894000D02*
X85598000Y-73278992D01*
X79248000Y-73320449D02*
X79206551Y-73279000D01*
%TO.N,D1*%
X83058000Y-72517000D02*
X81788000Y-73787000D01*
X83058000Y-40894000D02*
X83058000Y-72517000D01*
X81788000Y-39624000D02*
X83058000Y-40894000D01*
X81788000Y-73787000D02*
X81788000Y-76200000D01*
%TO.N,D2*%
X79248000Y-39624000D02*
X80518000Y-40894000D01*
X84328000Y-76200000D02*
X84328000Y-72263000D01*
X80518000Y-40894000D02*
X80518000Y-72263000D01*
%TO.N,D3*%
X86868000Y-76200000D02*
X86868000Y-67183002D01*
X86868000Y-67183002D02*
X86867994Y-67182996D01*
X86106000Y-76200000D02*
X86868000Y-76200000D01*
X77978000Y-40894000D02*
X77978000Y-67056000D01*
X86867994Y-67182996D02*
X86867994Y-67056000D01*
X87212924Y-75855076D02*
X86868000Y-76200000D01*
X76708000Y-39624000D02*
X77978000Y-40894000D01*
%TO.N,D4*%
X89144695Y-76200000D02*
X89408000Y-76200000D01*
X74168000Y-39624000D02*
X75437997Y-40893997D01*
X89408000Y-76200000D02*
X89408000Y-68072000D01*
X75437997Y-40893997D02*
X75437997Y-68072000D01*
%TO.N,D5*%
X71628000Y-39624000D02*
X72897999Y-40893999D01*
X72897999Y-40893999D02*
X72898000Y-69087994D01*
X91430695Y-76200000D02*
X91948000Y-76200000D01*
X91948000Y-69342000D02*
X91948000Y-69088000D01*
X91948000Y-76200000D02*
X91948000Y-69342000D01*
%TO.N,D6*%
X70358004Y-40894004D02*
X70358004Y-70104000D01*
X94224695Y-76200000D02*
X94488000Y-76200000D01*
X94488000Y-76200000D02*
X93726000Y-75438000D01*
X69088000Y-39624000D02*
X70358004Y-40894004D01*
X93726000Y-75438000D02*
X93726000Y-70104000D01*
%TO.N,D7*%
X67818000Y-40894000D02*
X67818000Y-71247000D01*
X95504000Y-74676000D02*
X95504000Y-71247000D01*
X97028000Y-76200000D02*
X95504000Y-74676000D01*
X66548000Y-39624000D02*
X67818000Y-40894000D01*
%TO.N,R{slash}~{W}*%
X99568000Y-73152000D02*
X91784000Y-65368000D01*
X91784000Y-36398366D02*
X90601634Y-35216000D01*
X91784000Y-65368000D02*
X91784000Y-36398366D01*
X99568000Y-76200000D02*
X99568000Y-73152000D01*
X65876000Y-35216000D02*
X61468000Y-39624000D01*
X90601634Y-35216000D02*
X65876000Y-35216000D01*
%TO.N,CLK*%
X64389000Y-34163000D02*
X58928000Y-39624000D01*
X92964000Y-35814000D02*
X91313000Y-34163000D01*
X91313000Y-34163000D02*
X64389000Y-34163000D01*
X102108000Y-76200000D02*
X102108000Y-72136000D01*
X92964000Y-62992000D02*
X92964000Y-35814000D01*
X102108000Y-72136000D02*
X92964000Y-62992000D01*
%TO.N,~{NMI}*%
X60325000Y-33147000D02*
X92202000Y-33147000D01*
X53848000Y-39624000D02*
X60325000Y-33147000D01*
X92202000Y-33147000D02*
X94225000Y-35170000D01*
X94225000Y-35170000D02*
X94225000Y-60697000D01*
X94225000Y-60697000D02*
X109728000Y-76200000D01*
%TO.N,/VGA_RED*%
X107292000Y-50849845D02*
X107292000Y-52816000D01*
X102516078Y-31849923D02*
X102516078Y-46073923D01*
X102516078Y-46073923D02*
X107292000Y-50849845D01*
%TO.N,/VGA_GREEN*%
X103621000Y-51435000D02*
X107292000Y-55106000D01*
X95250000Y-56642000D02*
X95250000Y-42418000D01*
X95250000Y-53086000D02*
X99949000Y-53086000D01*
X101600000Y-51435000D02*
X103621000Y-51435000D01*
X99949000Y-53086000D02*
X101600000Y-51435000D01*
%TO.N,/VGA_BLUE*%
X102616000Y-56642000D02*
X106538000Y-56642000D01*
X106538000Y-56642000D02*
X107292000Y-57396000D01*
X102616000Y-53185923D02*
X102616000Y-67310000D01*
%TO.N,/VGA_HSYNC*%
X112776000Y-55872000D02*
X112776000Y-37719000D01*
X112776000Y-37719000D02*
X112141000Y-37084000D01*
X111252000Y-57396000D02*
X112776000Y-55872000D01*
%TO.N,/VGA_VSYNC*%
X113919000Y-34671000D02*
X113919000Y-57019000D01*
X112903000Y-33655000D02*
X113919000Y-34671000D01*
X113919000Y-57019000D02*
X111252000Y-59686000D01*
%TO.N,/GREEN_B2*%
X58928000Y-57404000D02*
X58928000Y-52959000D01*
%TO.N,/GREEN_B1*%
X56388000Y-57404000D02*
X56388000Y-50673000D01*
%TO.N,/GREEN_B0*%
X53848000Y-48260004D02*
X53847996Y-48260000D01*
X53848000Y-57404000D02*
X53848000Y-48260004D01*
%TO.N,/HSYNC*%
X90551000Y-58838000D02*
X90551000Y-37084000D01*
%TO.N,/VSYNC*%
X89154000Y-57917279D02*
X89154000Y-36068010D01*
D22*
%TO.N,3V3*%
X43688000Y-34544000D02*
X46228000Y-37084000D01*
X46228000Y-37084000D02*
X46228000Y-39624000D01*
D21*
%TO.N,/A1*%
X41146000Y-72385000D02*
X41146000Y-76198000D01*
X41146000Y-76198000D02*
X41148000Y-76200000D01*
%TO.N,/GPIO28*%
X36703000Y-41021000D02*
X34893000Y-42831000D01*
X54991000Y-41021000D02*
X36703000Y-41021000D01*
X34893000Y-42831000D02*
X34893000Y-66897000D01*
X34893000Y-66897000D02*
X37084000Y-69088000D01*
X56388000Y-39624000D02*
X54991000Y-41021000D01*
%TO.N,/A2*%
X43688000Y-72385000D02*
X43688000Y-76200000D01*
%TO.N,/A3*%
X46228000Y-72385000D02*
X46228000Y-76200000D01*
%TO.N,/A4*%
X48768000Y-72385000D02*
X48768000Y-76200000D01*
%TO.N,/A5*%
X51308000Y-72385000D02*
X51308000Y-76200000D01*
%TO.N,/A7*%
X56388000Y-72385000D02*
X56388000Y-76200000D01*
%TO.N,/A8*%
X58928000Y-76200000D02*
X58928000Y-72385000D01*
%TO.N,/A9*%
X61468000Y-72385000D02*
X61468000Y-76200000D01*
%TO.N,/A10*%
X64008000Y-76200000D02*
X64008000Y-72385000D01*
%TO.N,/A11*%
X66548000Y-72385000D02*
X66548000Y-76200000D01*
%TO.N,/A14*%
X74168000Y-76200000D02*
X74168000Y-72385000D01*
%TO.N,/A0*%
X37084000Y-71628000D02*
X38608000Y-73152000D01*
X38608000Y-73152000D02*
X38608000Y-76200000D01*
%TO.N,~{IRQ}*%
X107188000Y-76200000D02*
X105410000Y-77978000D01*
X39878000Y-76591701D02*
X39878000Y-69342000D01*
X105410000Y-77978000D02*
X41264299Y-77978000D01*
X39878000Y-69342000D02*
X37084000Y-66548000D01*
X41264299Y-77978000D02*
X39878000Y-76591701D01*
D22*
%TO.N,5V*%
X36068000Y-37084000D02*
X36068000Y-39624000D01*
X38608000Y-34544000D02*
X36068000Y-37084000D01*
%TD*%
%TA.AperFunction,Conductor*%
%TO.N,GND*%
G36*
X102131405Y-30500185D02*
G01*
X102177160Y-30552989D01*
X102187104Y-30622147D01*
X102158079Y-30685703D01*
X102109161Y-30720125D01*
X102019366Y-30754912D01*
X101978679Y-30770675D01*
X101978673Y-30770677D01*
X101789517Y-30887797D01*
X101789515Y-30887799D01*
X101625098Y-31037684D01*
X101491021Y-31215231D01*
X101491016Y-31215239D01*
X101391853Y-31414384D01*
X101391847Y-31414399D01*
X101330963Y-31628385D01*
X101330962Y-31628387D01*
X101310435Y-31849922D01*
X101310435Y-31849923D01*
X101330962Y-32071458D01*
X101330963Y-32071460D01*
X101391847Y-32285446D01*
X101391853Y-32285461D01*
X101491016Y-32484606D01*
X101491021Y-32484614D01*
X101625098Y-32662161D01*
X101789511Y-32812043D01*
X101789513Y-32812045D01*
X101789515Y-32812046D01*
X101789516Y-32812047D01*
X101831856Y-32838262D01*
X101878490Y-32890287D01*
X101890578Y-32943688D01*
X101890578Y-34312156D01*
X101870893Y-34379195D01*
X101831856Y-34417583D01*
X101789514Y-34443800D01*
X101625098Y-34593684D01*
X101491021Y-34771231D01*
X101491016Y-34771239D01*
X101391853Y-34970384D01*
X101391847Y-34970399D01*
X101330963Y-35184385D01*
X101330962Y-35184387D01*
X101310435Y-35405922D01*
X101310435Y-35405923D01*
X101330962Y-35627458D01*
X101330963Y-35627460D01*
X101391847Y-35841446D01*
X101391853Y-35841461D01*
X101491016Y-36040606D01*
X101491021Y-36040614D01*
X101625098Y-36218161D01*
X101789511Y-36368043D01*
X101789513Y-36368045D01*
X101789515Y-36368046D01*
X101789516Y-36368047D01*
X101831856Y-36394262D01*
X101878490Y-36446287D01*
X101890578Y-36499688D01*
X101890578Y-37868156D01*
X101870893Y-37935195D01*
X101831856Y-37973583D01*
X101789514Y-37999800D01*
X101625098Y-38149684D01*
X101491021Y-38327231D01*
X101491016Y-38327239D01*
X101391853Y-38526384D01*
X101391847Y-38526399D01*
X101330963Y-38740385D01*
X101330962Y-38740387D01*
X101310435Y-38961922D01*
X101310435Y-38961923D01*
X101330962Y-39183458D01*
X101330963Y-39183460D01*
X101391847Y-39397446D01*
X101391853Y-39397461D01*
X101491016Y-39596606D01*
X101491021Y-39596614D01*
X101625098Y-39774161D01*
X101789511Y-39924043D01*
X101789513Y-39924045D01*
X101789515Y-39924046D01*
X101789516Y-39924047D01*
X101831856Y-39950262D01*
X101878490Y-40002287D01*
X101890578Y-40055688D01*
X101890578Y-41424156D01*
X101870893Y-41491195D01*
X101831856Y-41529583D01*
X101789514Y-41555800D01*
X101625098Y-41705684D01*
X101491021Y-41883231D01*
X101491016Y-41883239D01*
X101391853Y-42082384D01*
X101391847Y-42082399D01*
X101330963Y-42296385D01*
X101330962Y-42296387D01*
X101310435Y-42517922D01*
X101310435Y-42517923D01*
X101330962Y-42739458D01*
X101330963Y-42739460D01*
X101391847Y-42953446D01*
X101391853Y-42953461D01*
X101491016Y-43152606D01*
X101491021Y-43152614D01*
X101625098Y-43330161D01*
X101789511Y-43480043D01*
X101789513Y-43480045D01*
X101789515Y-43480046D01*
X101789516Y-43480047D01*
X101831856Y-43506262D01*
X101878490Y-43558287D01*
X101890578Y-43611688D01*
X101890578Y-44980156D01*
X101870893Y-45047195D01*
X101831856Y-45085583D01*
X101789514Y-45111800D01*
X101625098Y-45261684D01*
X101491021Y-45439231D01*
X101491016Y-45439239D01*
X101391853Y-45638384D01*
X101391847Y-45638399D01*
X101330963Y-45852385D01*
X101330962Y-45852387D01*
X101310435Y-46073922D01*
X101310435Y-46073923D01*
X101330962Y-46295458D01*
X101330963Y-46295460D01*
X101391847Y-46509446D01*
X101391853Y-46509461D01*
X101491016Y-46708606D01*
X101491021Y-46708614D01*
X101625098Y-46886161D01*
X101789515Y-47036046D01*
X101789517Y-47036048D01*
X101978673Y-47153168D01*
X101978674Y-47153168D01*
X101978677Y-47153170D01*
X102186138Y-47233541D01*
X102404835Y-47274423D01*
X102404837Y-47274423D01*
X102627319Y-47274423D01*
X102627321Y-47274423D01*
X102735507Y-47254199D01*
X102805021Y-47261230D01*
X102845972Y-47288407D01*
X106630181Y-51072616D01*
X106663666Y-51133939D01*
X106666500Y-51160297D01*
X106666500Y-51391500D01*
X106646815Y-51458539D01*
X106594011Y-51504294D01*
X106542501Y-51515500D01*
X106444130Y-51515500D01*
X106444123Y-51515501D01*
X106384516Y-51521908D01*
X106249671Y-51572202D01*
X106249664Y-51572206D01*
X106134455Y-51658452D01*
X106134452Y-51658455D01*
X106048206Y-51773664D01*
X106048202Y-51773671D01*
X105997908Y-51908517D01*
X105991501Y-51968116D01*
X105991500Y-51968135D01*
X105991500Y-52621547D01*
X105971815Y-52688586D01*
X105919011Y-52734341D01*
X105849853Y-52744285D01*
X105786297Y-52715260D01*
X105779819Y-52709228D01*
X104121803Y-51051212D01*
X104111980Y-51038950D01*
X104111759Y-51039134D01*
X104106786Y-51033123D01*
X104088159Y-51015631D01*
X104056364Y-50985773D01*
X104045919Y-50975328D01*
X104035475Y-50964883D01*
X104029986Y-50960625D01*
X104025561Y-50956847D01*
X103991582Y-50924938D01*
X103991580Y-50924936D01*
X103991577Y-50924935D01*
X103974029Y-50915288D01*
X103957763Y-50904604D01*
X103941933Y-50892325D01*
X103899168Y-50873818D01*
X103893922Y-50871248D01*
X103853093Y-50848803D01*
X103853092Y-50848802D01*
X103833693Y-50843822D01*
X103815281Y-50837518D01*
X103796898Y-50829562D01*
X103796892Y-50829560D01*
X103750874Y-50822272D01*
X103745152Y-50821087D01*
X103700021Y-50809500D01*
X103700019Y-50809500D01*
X103679984Y-50809500D01*
X103660586Y-50807973D01*
X103653162Y-50806797D01*
X103640805Y-50804840D01*
X103640804Y-50804840D01*
X103594416Y-50809225D01*
X103588578Y-50809500D01*
X101682743Y-50809500D01*
X101667122Y-50807775D01*
X101667095Y-50808061D01*
X101659333Y-50807326D01*
X101590172Y-50809500D01*
X101560649Y-50809500D01*
X101553778Y-50810367D01*
X101547959Y-50810825D01*
X101501374Y-50812289D01*
X101501368Y-50812290D01*
X101482126Y-50817880D01*
X101463087Y-50821823D01*
X101443217Y-50824334D01*
X101443203Y-50824337D01*
X101399883Y-50841488D01*
X101394358Y-50843380D01*
X101349613Y-50856380D01*
X101349610Y-50856381D01*
X101332366Y-50866579D01*
X101314905Y-50875133D01*
X101296274Y-50882510D01*
X101296262Y-50882517D01*
X101258570Y-50909902D01*
X101253687Y-50913109D01*
X101213580Y-50936829D01*
X101199414Y-50950995D01*
X101184624Y-50963627D01*
X101168414Y-50975404D01*
X101168411Y-50975407D01*
X101138710Y-51011309D01*
X101134777Y-51015631D01*
X99726228Y-52424181D01*
X99664905Y-52457666D01*
X99638547Y-52460500D01*
X98127329Y-52460500D01*
X98060290Y-52440815D01*
X98014535Y-52388011D01*
X98004591Y-52318853D01*
X98028375Y-52261773D01*
X98094015Y-52174851D01*
X98152982Y-52096766D01*
X98252153Y-51897605D01*
X98313039Y-51683613D01*
X98333567Y-51462077D01*
X98313039Y-51240541D01*
X98252153Y-51026549D01*
X98248153Y-51018516D01*
X98152985Y-50827393D01*
X98152980Y-50827385D01*
X98018903Y-50649838D01*
X97854486Y-50499953D01*
X97854484Y-50499951D01*
X97665328Y-50382831D01*
X97665322Y-50382829D01*
X97457864Y-50302459D01*
X97239167Y-50261577D01*
X97016681Y-50261577D01*
X96797984Y-50302459D01*
X96792143Y-50304722D01*
X96590525Y-50382829D01*
X96590519Y-50382831D01*
X96401363Y-50499951D01*
X96401361Y-50499953D01*
X96236944Y-50649838D01*
X96099411Y-50831963D01*
X96097621Y-50830611D01*
X96052879Y-50870704D01*
X95983896Y-50881795D01*
X95919866Y-50853831D01*
X95881120Y-50795689D01*
X95875500Y-50758781D01*
X95875500Y-50623765D01*
X95895185Y-50556726D01*
X95934220Y-50518340D01*
X95976562Y-50492124D01*
X96094487Y-50384621D01*
X96140979Y-50342238D01*
X96169315Y-50304716D01*
X96275058Y-50164689D01*
X96374229Y-49965528D01*
X96435115Y-49751536D01*
X96455643Y-49530000D01*
X96435115Y-49308464D01*
X96377873Y-49107279D01*
X96378459Y-49037415D01*
X96416726Y-48978957D01*
X96480523Y-48950466D01*
X96549596Y-48960990D01*
X96562409Y-48967917D01*
X96590523Y-48985324D01*
X96797984Y-49065695D01*
X97016681Y-49106577D01*
X97016683Y-49106577D01*
X97239165Y-49106577D01*
X97239167Y-49106577D01*
X97457864Y-49065695D01*
X97665325Y-48985324D01*
X97854486Y-48868201D01*
X98018905Y-48718313D01*
X98152982Y-48540766D01*
X98252153Y-48341605D01*
X98313039Y-48127613D01*
X98333567Y-47906077D01*
X98313039Y-47684541D01*
X98252153Y-47470549D01*
X98252148Y-47470538D01*
X98152985Y-47271393D01*
X98152980Y-47271385D01*
X98018903Y-47093838D01*
X97854486Y-46943953D01*
X97854484Y-46943951D01*
X97665328Y-46826831D01*
X97665322Y-46826829D01*
X97457864Y-46746459D01*
X97239167Y-46705577D01*
X97016681Y-46705577D01*
X96797984Y-46746459D01*
X96721010Y-46776279D01*
X96590525Y-46826829D01*
X96590519Y-46826831D01*
X96401363Y-46943951D01*
X96401361Y-46943953D01*
X96236944Y-47093838D01*
X96099411Y-47275963D01*
X96097621Y-47274611D01*
X96052879Y-47314704D01*
X95983896Y-47325795D01*
X95919866Y-47297831D01*
X95881120Y-47239689D01*
X95875500Y-47202781D01*
X95875500Y-47067765D01*
X95895185Y-47000726D01*
X95934220Y-46962340D01*
X95976562Y-46936124D01*
X96086174Y-46836198D01*
X96140979Y-46786238D01*
X96171369Y-46745996D01*
X96275058Y-46608689D01*
X96374229Y-46409528D01*
X96435115Y-46195536D01*
X96455643Y-45974000D01*
X96435115Y-45752464D01*
X96377873Y-45551279D01*
X96378459Y-45481415D01*
X96416726Y-45422957D01*
X96480523Y-45394466D01*
X96549596Y-45404990D01*
X96562409Y-45411917D01*
X96590523Y-45429324D01*
X96797984Y-45509695D01*
X97016681Y-45550577D01*
X97016683Y-45550577D01*
X97239165Y-45550577D01*
X97239167Y-45550577D01*
X97457864Y-45509695D01*
X97665325Y-45429324D01*
X97854486Y-45312201D01*
X98018905Y-45162313D01*
X98152982Y-44984766D01*
X98252153Y-44785605D01*
X98313039Y-44571613D01*
X98333567Y-44350077D01*
X98313039Y-44128541D01*
X98252153Y-43914549D01*
X98252148Y-43914538D01*
X98152985Y-43715393D01*
X98152980Y-43715385D01*
X98018903Y-43537838D01*
X97854486Y-43387953D01*
X97854484Y-43387951D01*
X97665328Y-43270831D01*
X97665322Y-43270829D01*
X97457864Y-43190459D01*
X97239167Y-43149577D01*
X97016681Y-43149577D01*
X96797984Y-43190459D01*
X96770824Y-43200981D01*
X96590525Y-43270829D01*
X96590519Y-43270831D01*
X96401363Y-43387951D01*
X96401361Y-43387953D01*
X96236944Y-43537838D01*
X96099411Y-43719963D01*
X96097621Y-43718611D01*
X96052879Y-43758704D01*
X95983896Y-43769795D01*
X95919866Y-43741831D01*
X95881120Y-43683689D01*
X95875500Y-43646781D01*
X95875500Y-43511765D01*
X95895185Y-43444726D01*
X95934220Y-43406340D01*
X95976562Y-43380124D01*
X96086174Y-43280198D01*
X96140979Y-43230238D01*
X96195054Y-43158632D01*
X96275058Y-43052689D01*
X96374229Y-42853528D01*
X96435115Y-42639536D01*
X96455643Y-42418000D01*
X96448898Y-42345214D01*
X96435115Y-42196464D01*
X96430048Y-42178654D01*
X96377873Y-41995279D01*
X96378459Y-41925415D01*
X96416726Y-41866957D01*
X96480523Y-41838466D01*
X96549596Y-41848990D01*
X96562409Y-41855917D01*
X96590523Y-41873324D01*
X96797984Y-41953695D01*
X97016681Y-41994577D01*
X97016683Y-41994577D01*
X97239165Y-41994577D01*
X97239167Y-41994577D01*
X97457864Y-41953695D01*
X97665325Y-41873324D01*
X97854486Y-41756201D01*
X98018905Y-41606313D01*
X98152982Y-41428766D01*
X98252153Y-41229605D01*
X98313039Y-41015613D01*
X98333567Y-40794077D01*
X98313039Y-40572541D01*
X98252153Y-40358549D01*
X98227900Y-40309842D01*
X98152985Y-40159393D01*
X98152980Y-40159385D01*
X98018903Y-39981838D01*
X97854486Y-39831953D01*
X97854484Y-39831951D01*
X97665328Y-39714831D01*
X97665322Y-39714829D01*
X97457864Y-39634459D01*
X97239167Y-39593577D01*
X97016681Y-39593577D01*
X96797984Y-39634459D01*
X96666788Y-39685284D01*
X96590525Y-39714829D01*
X96590519Y-39714831D01*
X96401363Y-39831951D01*
X96401361Y-39831953D01*
X96236944Y-39981838D01*
X96102867Y-40159385D01*
X96102862Y-40159393D01*
X96003699Y-40358538D01*
X96003693Y-40358553D01*
X95942809Y-40572539D01*
X95942808Y-40572541D01*
X95922281Y-40794076D01*
X95922281Y-40794077D01*
X95942808Y-41015612D01*
X95942809Y-41015614D01*
X95971590Y-41116768D01*
X95996539Y-41204456D01*
X96000050Y-41216794D01*
X95999464Y-41286661D01*
X95961197Y-41345120D01*
X95897400Y-41373610D01*
X95828327Y-41363086D01*
X95815507Y-41356155D01*
X95787404Y-41338755D01*
X95787405Y-41338755D01*
X95787401Y-41338753D01*
X95579940Y-41258382D01*
X95361243Y-41217500D01*
X95138757Y-41217500D01*
X94997285Y-41243946D01*
X94927770Y-41236915D01*
X94873091Y-41193417D01*
X94850609Y-41127263D01*
X94850500Y-41122057D01*
X94850500Y-37238077D01*
X95922281Y-37238077D01*
X95942808Y-37459612D01*
X95942809Y-37459614D01*
X96003693Y-37673600D01*
X96003699Y-37673615D01*
X96102862Y-37872760D01*
X96102867Y-37872768D01*
X96236944Y-38050315D01*
X96401361Y-38200200D01*
X96401363Y-38200202D01*
X96590519Y-38317322D01*
X96590520Y-38317322D01*
X96590523Y-38317324D01*
X96797984Y-38397695D01*
X97016681Y-38438577D01*
X97016683Y-38438577D01*
X97239165Y-38438577D01*
X97239167Y-38438577D01*
X97457864Y-38397695D01*
X97665325Y-38317324D01*
X97854486Y-38200201D01*
X98018905Y-38050313D01*
X98152982Y-37872766D01*
X98252153Y-37673605D01*
X98313039Y-37459613D01*
X98333567Y-37238077D01*
X98313039Y-37016541D01*
X98252153Y-36802549D01*
X98240448Y-36779042D01*
X98152985Y-36603393D01*
X98152980Y-36603385D01*
X98018903Y-36425838D01*
X97854486Y-36275953D01*
X97854484Y-36275951D01*
X97665328Y-36158831D01*
X97665322Y-36158829D01*
X97457864Y-36078459D01*
X97239167Y-36037577D01*
X97016681Y-36037577D01*
X96797984Y-36078459D01*
X96685917Y-36121874D01*
X96590525Y-36158829D01*
X96590519Y-36158831D01*
X96401363Y-36275951D01*
X96401361Y-36275953D01*
X96236944Y-36425838D01*
X96102867Y-36603385D01*
X96102862Y-36603393D01*
X96003699Y-36802538D01*
X96003693Y-36802553D01*
X95942809Y-37016539D01*
X95942808Y-37016541D01*
X95922281Y-37238076D01*
X95922281Y-37238077D01*
X94850500Y-37238077D01*
X94850500Y-35252742D01*
X94852224Y-35237122D01*
X94851939Y-35237096D01*
X94852671Y-35229340D01*
X94852673Y-35229333D01*
X94850500Y-35160185D01*
X94850500Y-35130650D01*
X94849631Y-35123772D01*
X94849172Y-35117943D01*
X94847709Y-35071372D01*
X94842122Y-35052144D01*
X94838174Y-35033084D01*
X94835664Y-35013208D01*
X94835663Y-35013206D01*
X94835663Y-35013204D01*
X94818512Y-34969887D01*
X94816619Y-34964358D01*
X94803618Y-34919609D01*
X94803616Y-34919606D01*
X94793423Y-34902371D01*
X94784861Y-34884894D01*
X94777487Y-34866270D01*
X94777486Y-34866268D01*
X94750079Y-34828545D01*
X94746888Y-34823686D01*
X94741525Y-34814618D01*
X94723170Y-34783580D01*
X94723168Y-34783578D01*
X94723165Y-34783574D01*
X94709006Y-34769415D01*
X94696368Y-34754619D01*
X94685786Y-34740054D01*
X94684594Y-34738413D01*
X94679558Y-34734247D01*
X94648688Y-34708709D01*
X94644376Y-34704786D01*
X92702803Y-32763212D01*
X92692980Y-32750950D01*
X92692759Y-32751134D01*
X92687786Y-32745123D01*
X92669159Y-32727631D01*
X92637364Y-32697773D01*
X92625870Y-32686279D01*
X92616475Y-32676883D01*
X92610986Y-32672625D01*
X92606561Y-32668847D01*
X92572582Y-32636938D01*
X92572580Y-32636936D01*
X92572577Y-32636935D01*
X92555029Y-32627288D01*
X92538763Y-32616604D01*
X92522936Y-32604327D01*
X92522935Y-32604326D01*
X92522933Y-32604325D01*
X92480168Y-32585818D01*
X92474922Y-32583248D01*
X92434093Y-32560803D01*
X92434092Y-32560802D01*
X92414693Y-32555822D01*
X92396281Y-32549518D01*
X92377898Y-32541562D01*
X92377892Y-32541560D01*
X92331874Y-32534272D01*
X92326152Y-32533087D01*
X92281021Y-32521500D01*
X92281019Y-32521500D01*
X92260984Y-32521500D01*
X92241586Y-32519973D01*
X92234162Y-32518797D01*
X92221805Y-32516840D01*
X92221804Y-32516840D01*
X92175416Y-32521225D01*
X92169578Y-32521500D01*
X60407737Y-32521500D01*
X60392120Y-32519776D01*
X60392093Y-32520062D01*
X60384331Y-32519327D01*
X60315203Y-32521500D01*
X60285650Y-32521500D01*
X60284929Y-32521590D01*
X60278757Y-32522369D01*
X60272945Y-32522826D01*
X60226373Y-32524290D01*
X60226372Y-32524290D01*
X60207129Y-32529881D01*
X60188079Y-32533825D01*
X60168211Y-32536334D01*
X60168209Y-32536335D01*
X60124884Y-32553488D01*
X60119357Y-32555380D01*
X60074610Y-32568381D01*
X60074609Y-32568382D01*
X60057367Y-32578579D01*
X60039899Y-32587137D01*
X60021269Y-32594513D01*
X60021267Y-32594514D01*
X59983576Y-32621898D01*
X59978694Y-32625105D01*
X59938579Y-32648830D01*
X59924408Y-32663000D01*
X59909623Y-32675628D01*
X59893412Y-32687407D01*
X59863709Y-32723310D01*
X59859777Y-32727631D01*
X54303646Y-38283761D01*
X54242323Y-38317246D01*
X54183873Y-38315855D01*
X54083408Y-38288937D01*
X53848001Y-38268341D01*
X53847999Y-38268341D01*
X53612596Y-38288936D01*
X53612586Y-38288938D01*
X53384344Y-38350094D01*
X53384335Y-38350098D01*
X53170171Y-38449964D01*
X53170169Y-38449965D01*
X52976597Y-38585505D01*
X52809505Y-38752597D01*
X52679575Y-38938158D01*
X52624998Y-38981783D01*
X52555500Y-38988977D01*
X52493145Y-38957454D01*
X52476425Y-38938158D01*
X52346494Y-38752597D01*
X52179402Y-38585506D01*
X52179395Y-38585501D01*
X51985834Y-38449967D01*
X51985830Y-38449965D01*
X51896908Y-38408500D01*
X51771663Y-38350097D01*
X51771659Y-38350096D01*
X51771655Y-38350094D01*
X51543413Y-38288938D01*
X51543403Y-38288936D01*
X51308001Y-38268341D01*
X51307999Y-38268341D01*
X51072596Y-38288936D01*
X51072586Y-38288938D01*
X50844344Y-38350094D01*
X50844335Y-38350098D01*
X50630171Y-38449964D01*
X50630169Y-38449965D01*
X50436600Y-38585503D01*
X50314284Y-38707819D01*
X50252961Y-38741303D01*
X50183269Y-38736319D01*
X50127336Y-38694447D01*
X50110421Y-38663471D01*
X50102721Y-38642829D01*
X49259132Y-39486418D01*
X49236682Y-39409960D01*
X49157395Y-39286587D01*
X49046562Y-39190549D01*
X48913161Y-39129627D01*
X48909365Y-39129081D01*
X49749169Y-38289276D01*
X49749168Y-38289275D01*
X49725382Y-38280403D01*
X49725372Y-38280401D01*
X49665844Y-38274000D01*
X47870155Y-38274000D01*
X47810626Y-38280401D01*
X47786829Y-38289276D01*
X48626635Y-39129081D01*
X48622839Y-39129627D01*
X48489438Y-39190549D01*
X48378605Y-39286587D01*
X48299318Y-39409960D01*
X48276866Y-39486419D01*
X47433276Y-38642829D01*
X47433276Y-38642830D01*
X47425579Y-38663468D01*
X47383708Y-38719403D01*
X47318244Y-38743821D01*
X47249971Y-38728970D01*
X47221715Y-38707819D01*
X47177364Y-38663468D01*
X47099401Y-38585505D01*
X47099396Y-38585502D01*
X47099393Y-38585499D01*
X47035376Y-38540673D01*
X46991751Y-38486096D01*
X46982500Y-38439099D01*
X46982500Y-37147992D01*
X46983809Y-37130022D01*
X46984194Y-37127388D01*
X46987314Y-37106093D01*
X46982735Y-37053763D01*
X46982500Y-37048361D01*
X46982500Y-37040066D01*
X46982500Y-37040059D01*
X46978670Y-37007292D01*
X46971942Y-36930388D01*
X46971940Y-36930383D01*
X46970482Y-36923318D01*
X46970535Y-36923306D01*
X46968878Y-36915830D01*
X46968825Y-36915843D01*
X46967161Y-36908824D01*
X46967160Y-36908816D01*
X46940747Y-36836246D01*
X46916464Y-36762964D01*
X46916460Y-36762957D01*
X46913410Y-36756416D01*
X46913460Y-36756392D01*
X46910128Y-36749509D01*
X46910079Y-36749534D01*
X46906835Y-36743075D01*
X46864400Y-36678555D01*
X46823872Y-36612849D01*
X46819392Y-36607183D01*
X46819434Y-36607149D01*
X46814597Y-36601211D01*
X46814556Y-36601246D01*
X46809912Y-36595711D01*
X46753752Y-36542728D01*
X45061324Y-34850300D01*
X45027839Y-34788977D01*
X45025477Y-34751811D01*
X45026650Y-34738413D01*
X45043659Y-34544000D01*
X45041052Y-34514208D01*
X45034892Y-34443799D01*
X45023063Y-34308592D01*
X44961903Y-34080337D01*
X44862035Y-33866171D01*
X44856425Y-33858158D01*
X44726494Y-33672597D01*
X44559402Y-33505506D01*
X44559395Y-33505501D01*
X44365834Y-33369967D01*
X44365830Y-33369965D01*
X44342528Y-33359099D01*
X44151663Y-33270097D01*
X44151659Y-33270096D01*
X44151655Y-33270094D01*
X43923413Y-33208938D01*
X43923403Y-33208936D01*
X43688001Y-33188341D01*
X43687999Y-33188341D01*
X43452596Y-33208936D01*
X43452586Y-33208938D01*
X43224344Y-33270094D01*
X43224335Y-33270098D01*
X43010171Y-33369964D01*
X43010169Y-33369965D01*
X42816597Y-33505505D01*
X42649505Y-33672597D01*
X42519575Y-33858158D01*
X42464998Y-33901783D01*
X42395500Y-33908977D01*
X42333145Y-33877454D01*
X42316425Y-33858158D01*
X42186494Y-33672597D01*
X42019404Y-33505508D01*
X42019402Y-33505506D01*
X42019401Y-33505505D01*
X42019396Y-33505501D01*
X42019393Y-33505499D01*
X41955376Y-33460673D01*
X41911751Y-33406096D01*
X41902500Y-33359099D01*
X41902500Y-32916746D01*
X41902605Y-32913140D01*
X41905162Y-32869252D01*
X41906351Y-32848831D01*
X41895160Y-32785367D01*
X41894640Y-32781817D01*
X41893540Y-32772407D01*
X41887160Y-32717816D01*
X41883283Y-32707166D01*
X41877689Y-32686287D01*
X41875723Y-32675134D01*
X41859246Y-32636936D01*
X41850205Y-32615976D01*
X41848873Y-32612623D01*
X41842282Y-32594514D01*
X41826836Y-32552076D01*
X41820605Y-32542602D01*
X41810352Y-32523587D01*
X41805864Y-32513182D01*
X41767391Y-32461503D01*
X41765323Y-32458549D01*
X41729914Y-32404714D01*
X41729912Y-32404711D01*
X41721674Y-32396940D01*
X41707299Y-32380787D01*
X41700541Y-32371709D01*
X41700539Y-32371706D01*
X41651174Y-32330283D01*
X41648480Y-32327885D01*
X41601623Y-32283678D01*
X41591805Y-32278009D01*
X41574110Y-32265619D01*
X41565427Y-32258333D01*
X41565420Y-32258329D01*
X41565418Y-32258328D01*
X41507836Y-32229409D01*
X41504661Y-32227697D01*
X41448880Y-32195492D01*
X41448870Y-32195487D01*
X41438023Y-32192240D01*
X41417942Y-32184264D01*
X41407811Y-32179176D01*
X41407809Y-32179175D01*
X41407808Y-32179175D01*
X41345110Y-32164314D01*
X41341628Y-32163381D01*
X41279910Y-32144905D01*
X41279909Y-32144904D01*
X41268592Y-32144245D01*
X41247223Y-32141115D01*
X41245521Y-32140711D01*
X41236188Y-32138500D01*
X41236186Y-32138500D01*
X41171747Y-32138500D01*
X41168145Y-32138395D01*
X41123133Y-32135773D01*
X41103832Y-32134649D01*
X41103831Y-32134649D01*
X41092674Y-32136616D01*
X41071144Y-32138500D01*
X33551747Y-32138500D01*
X33548145Y-32138395D01*
X33513523Y-32136378D01*
X33483833Y-32134649D01*
X33483832Y-32134649D01*
X33483831Y-32134649D01*
X33453482Y-32140000D01*
X33420376Y-32145837D01*
X33416809Y-32146359D01*
X33352819Y-32153839D01*
X33342164Y-32157717D01*
X33321295Y-32163308D01*
X33310136Y-32165276D01*
X33310127Y-32165278D01*
X33250986Y-32190789D01*
X33247636Y-32192120D01*
X33187078Y-32214163D01*
X33187074Y-32214164D01*
X33177597Y-32220397D01*
X33158596Y-32230642D01*
X33148186Y-32235133D01*
X33148180Y-32235137D01*
X33096507Y-32273605D01*
X33093554Y-32275672D01*
X33039717Y-32311083D01*
X33039713Y-32311087D01*
X33031935Y-32319331D01*
X33015796Y-32333693D01*
X33006707Y-32340459D01*
X32965291Y-32389815D01*
X32962895Y-32392507D01*
X32918677Y-32439377D01*
X32918676Y-32439377D01*
X32913010Y-32449192D01*
X32900621Y-32466886D01*
X32893334Y-32475571D01*
X32893331Y-32475575D01*
X32864419Y-32533144D01*
X32862708Y-32536317D01*
X32830490Y-32592123D01*
X32827239Y-32602982D01*
X32819264Y-32623056D01*
X32814176Y-32633188D01*
X32814175Y-32633189D01*
X32799314Y-32695889D01*
X32798381Y-32699370D01*
X32784685Y-32745123D01*
X32782169Y-32753530D01*
X32779905Y-32761092D01*
X32779904Y-32761094D01*
X32779245Y-32772407D01*
X32776114Y-32793779D01*
X32773500Y-32804810D01*
X32773500Y-32869252D01*
X32773395Y-32872858D01*
X32769649Y-32937167D01*
X32771616Y-32948322D01*
X32773500Y-32969856D01*
X32773500Y-73596000D01*
X32772191Y-73613969D01*
X32768684Y-73637908D01*
X32773264Y-73690241D01*
X32773500Y-73695648D01*
X32773500Y-73703946D01*
X32777325Y-73736674D01*
X32784056Y-73813610D01*
X32785516Y-73820677D01*
X32785464Y-73820687D01*
X32787123Y-73828167D01*
X32787174Y-73828155D01*
X32788839Y-73835180D01*
X32815247Y-73907740D01*
X32839535Y-73981034D01*
X32842586Y-73987575D01*
X32842536Y-73987598D01*
X32845876Y-73994497D01*
X32845925Y-73994473D01*
X32849162Y-74000920D01*
X32849164Y-74000924D01*
X32854983Y-74009771D01*
X32891599Y-74065444D01*
X32932131Y-74131156D01*
X32936611Y-74136822D01*
X32936569Y-74136855D01*
X32941401Y-74142786D01*
X32941443Y-74142752D01*
X32946081Y-74148280D01*
X32946085Y-74148285D01*
X32974166Y-74174778D01*
X33002247Y-74201272D01*
X33439295Y-74638319D01*
X33472780Y-74699642D01*
X33467796Y-74769333D01*
X33425925Y-74825267D01*
X33360460Y-74849684D01*
X33351614Y-74850000D01*
X32630155Y-74850000D01*
X32570626Y-74856401D01*
X32546829Y-74865276D01*
X33395466Y-75713913D01*
X33385685Y-75715320D01*
X33254900Y-75775048D01*
X33146239Y-75869202D01*
X33068507Y-75990156D01*
X33044923Y-76070476D01*
X32193276Y-75218829D01*
X32184401Y-75242626D01*
X32178000Y-75302155D01*
X32178000Y-77097844D01*
X32184401Y-77157372D01*
X32184403Y-77157382D01*
X32193275Y-77181168D01*
X32193276Y-77181169D01*
X33044922Y-76329523D01*
X33068507Y-76409844D01*
X33146239Y-76530798D01*
X33254900Y-76624952D01*
X33385685Y-76684680D01*
X33395466Y-76686086D01*
X32546829Y-77534722D01*
X32546829Y-77534723D01*
X32570624Y-77543598D01*
X32630155Y-77549999D01*
X32630172Y-77550000D01*
X34425828Y-77550000D01*
X34425844Y-77549999D01*
X34485372Y-77543598D01*
X34485378Y-77543597D01*
X34509168Y-77534723D01*
X34509168Y-77534722D01*
X33660534Y-76686086D01*
X33670315Y-76684680D01*
X33801100Y-76624952D01*
X33909761Y-76530798D01*
X33987493Y-76409844D01*
X34011077Y-76329523D01*
X34862722Y-77181168D01*
X34862723Y-77181168D01*
X34870423Y-77160526D01*
X34912296Y-77104593D01*
X34977761Y-77080178D01*
X35046033Y-77095031D01*
X35074285Y-77116181D01*
X35196599Y-77238495D01*
X35244212Y-77271834D01*
X35390165Y-77374032D01*
X35390167Y-77374033D01*
X35390170Y-77374035D01*
X35604337Y-77473903D01*
X35832592Y-77535063D01*
X36003319Y-77550000D01*
X36067999Y-77555659D01*
X36068000Y-77555659D01*
X36068001Y-77555659D01*
X36132681Y-77550000D01*
X36303408Y-77535063D01*
X36531663Y-77473903D01*
X36745830Y-77374035D01*
X36939401Y-77238495D01*
X37106495Y-77071401D01*
X37236425Y-76885842D01*
X37291002Y-76842217D01*
X37360500Y-76835023D01*
X37422855Y-76866546D01*
X37439575Y-76885842D01*
X37569500Y-77071395D01*
X37569505Y-77071401D01*
X37736599Y-77238495D01*
X37784212Y-77271834D01*
X37930165Y-77374032D01*
X37930167Y-77374033D01*
X37930170Y-77374035D01*
X38144337Y-77473903D01*
X38372592Y-77535063D01*
X38543319Y-77550000D01*
X38607999Y-77555659D01*
X38608000Y-77555659D01*
X38608001Y-77555659D01*
X38672681Y-77550000D01*
X38843408Y-77535063D01*
X39071663Y-77473903D01*
X39285830Y-77374035D01*
X39479401Y-77238495D01*
X39479414Y-77238481D01*
X39479776Y-77238179D01*
X39479977Y-77238090D01*
X39483836Y-77235389D01*
X39484378Y-77236163D01*
X39543779Y-77210154D01*
X39612773Y-77221180D01*
X39647181Y-77245472D01*
X40763496Y-78361788D01*
X40773321Y-78374051D01*
X40773542Y-78373869D01*
X40778513Y-78379878D01*
X40799342Y-78399437D01*
X40828934Y-78427226D01*
X40849828Y-78448120D01*
X40855310Y-78452373D01*
X40859742Y-78456157D01*
X40893717Y-78488062D01*
X40911275Y-78497714D01*
X40927535Y-78508395D01*
X40939300Y-78517521D01*
X40980207Y-78574164D01*
X40983996Y-78643931D01*
X40949464Y-78704671D01*
X40887576Y-78737100D01*
X40863299Y-78739500D01*
X30858500Y-78739500D01*
X30791461Y-78719815D01*
X30745706Y-78667011D01*
X30734500Y-78615500D01*
X30734500Y-30604500D01*
X30754185Y-30537461D01*
X30806989Y-30491706D01*
X30858500Y-30480500D01*
X102064366Y-30480500D01*
X102131405Y-30500185D01*
G37*
%TD.AperFunction*%
%TA.AperFunction,Conductor*%
G36*
X105929571Y-57287185D02*
G01*
X105975326Y-57339989D01*
X105986532Y-57391500D01*
X105986532Y-57396001D01*
X106006364Y-57622686D01*
X106006366Y-57622697D01*
X106065258Y-57842488D01*
X106065261Y-57842497D01*
X106161431Y-58048732D01*
X106161432Y-58048734D01*
X106291954Y-58235141D01*
X106452859Y-58396046D01*
X106514811Y-58439425D01*
X106558436Y-58494002D01*
X106565630Y-58563500D01*
X106534107Y-58625855D01*
X106514811Y-58642575D01*
X106452859Y-58685953D01*
X106291954Y-58846858D01*
X106161432Y-59033265D01*
X106161431Y-59033267D01*
X106065261Y-59239502D01*
X106065258Y-59239511D01*
X106006366Y-59459302D01*
X106006364Y-59459313D01*
X105986532Y-59685998D01*
X105986532Y-59686001D01*
X106006364Y-59912686D01*
X106006366Y-59912697D01*
X106065258Y-60132488D01*
X106065261Y-60132497D01*
X106161431Y-60338732D01*
X106161432Y-60338734D01*
X106291954Y-60525141D01*
X106452858Y-60686045D01*
X106518709Y-60732154D01*
X106562334Y-60786730D01*
X106571114Y-60844536D01*
X106566526Y-60896972D01*
X107159466Y-61489913D01*
X107149685Y-61491320D01*
X107018900Y-61551048D01*
X106910239Y-61645202D01*
X106832507Y-61766156D01*
X106808923Y-61846476D01*
X106212973Y-61250526D01*
X106212972Y-61250527D01*
X106161868Y-61323513D01*
X106065734Y-61529673D01*
X106065730Y-61529682D01*
X106006860Y-61749389D01*
X106006858Y-61749400D01*
X105987034Y-61975997D01*
X105987034Y-61976002D01*
X106006858Y-62202599D01*
X106006860Y-62202610D01*
X106065730Y-62422317D01*
X106065734Y-62422326D01*
X106161865Y-62628481D01*
X106161866Y-62628483D01*
X106212973Y-62701471D01*
X106212974Y-62701472D01*
X106808922Y-62105523D01*
X106832507Y-62185844D01*
X106910239Y-62306798D01*
X107018900Y-62400952D01*
X107149685Y-62460680D01*
X107159466Y-62462086D01*
X106566526Y-63055025D01*
X106566526Y-63055026D01*
X106639512Y-63106131D01*
X106639516Y-63106133D01*
X106845673Y-63202265D01*
X106845682Y-63202269D01*
X107065389Y-63261139D01*
X107065400Y-63261141D01*
X107291998Y-63280966D01*
X107292002Y-63280966D01*
X107518599Y-63261141D01*
X107518610Y-63261139D01*
X107738317Y-63202269D01*
X107738331Y-63202264D01*
X107944478Y-63106136D01*
X108017472Y-63055025D01*
X107424534Y-62462086D01*
X107434315Y-62460680D01*
X107565100Y-62400952D01*
X107673761Y-62306798D01*
X107751493Y-62185844D01*
X107775076Y-62105523D01*
X108371025Y-62701472D01*
X108422136Y-62628478D01*
X108518264Y-62422331D01*
X108518269Y-62422317D01*
X108577139Y-62202610D01*
X108577141Y-62202600D01*
X108583665Y-62128029D01*
X108609117Y-62062961D01*
X108665708Y-62021982D01*
X108735469Y-62018103D01*
X108759598Y-62026454D01*
X108825673Y-62057266D01*
X108825682Y-62057269D01*
X109021999Y-62109872D01*
X109022000Y-62109871D01*
X109022000Y-61266501D01*
X109129685Y-61315680D01*
X109236237Y-61331000D01*
X109307763Y-61331000D01*
X109414315Y-61315680D01*
X109522000Y-61266501D01*
X109522000Y-62109872D01*
X109718317Y-62057269D01*
X109718321Y-62057267D01*
X109783918Y-62026679D01*
X109852996Y-62016187D01*
X109916780Y-62044706D01*
X109955020Y-62103182D01*
X109959852Y-62128253D01*
X109966364Y-62202687D01*
X109966366Y-62202697D01*
X110025258Y-62422488D01*
X110025261Y-62422497D01*
X110121431Y-62628732D01*
X110121432Y-62628734D01*
X110251954Y-62815141D01*
X110412858Y-62976045D01*
X110412861Y-62976047D01*
X110599266Y-63106568D01*
X110805504Y-63202739D01*
X111025308Y-63261635D01*
X111187230Y-63275801D01*
X111251998Y-63281468D01*
X111252000Y-63281468D01*
X111252002Y-63281468D01*
X111308673Y-63276509D01*
X111478692Y-63261635D01*
X111698496Y-63202739D01*
X111904734Y-63106568D01*
X112091139Y-62976047D01*
X112252047Y-62815139D01*
X112382568Y-62628734D01*
X112478739Y-62422496D01*
X112537635Y-62202692D01*
X112557468Y-61976000D01*
X112537635Y-61749308D01*
X112478739Y-61529504D01*
X112382568Y-61323266D01*
X112252047Y-61136861D01*
X112252045Y-61136858D01*
X112091142Y-60975955D01*
X112080079Y-60968208D01*
X112029188Y-60932574D01*
X111985563Y-60877999D01*
X111978369Y-60808501D01*
X112009891Y-60746146D01*
X112029186Y-60729426D01*
X112091139Y-60686047D01*
X112252047Y-60525139D01*
X112382568Y-60338734D01*
X112478739Y-60132496D01*
X112537635Y-59912692D01*
X112557468Y-59686000D01*
X112554700Y-59654367D01*
X112551801Y-59621230D01*
X112537635Y-59459308D01*
X112519318Y-59390947D01*
X112520981Y-59321101D01*
X112551410Y-59271178D01*
X114302786Y-57519802D01*
X114315048Y-57509980D01*
X114314865Y-57509759D01*
X114320870Y-57504789D01*
X114320877Y-57504786D01*
X114339107Y-57485373D01*
X114399348Y-57449978D01*
X114469162Y-57452770D01*
X114526383Y-57492863D01*
X114552845Y-57557528D01*
X114553500Y-57570256D01*
X114553500Y-78615500D01*
X114533815Y-78682539D01*
X114481011Y-78728294D01*
X114429500Y-78739500D01*
X105807681Y-78739500D01*
X105740642Y-78719815D01*
X105694887Y-78667011D01*
X105684943Y-78597853D01*
X105713968Y-78534297D01*
X105734789Y-78515187D01*
X105736595Y-78513874D01*
X105751448Y-78503082D01*
X105756295Y-78499898D01*
X105796420Y-78476170D01*
X105810589Y-78461999D01*
X105825379Y-78449368D01*
X105841587Y-78437594D01*
X105871299Y-78401676D01*
X105875212Y-78397376D01*
X106732353Y-77540235D01*
X106793674Y-77506752D01*
X106852125Y-77508143D01*
X106886780Y-77517428D01*
X106952592Y-77535063D01*
X107123319Y-77550000D01*
X107187999Y-77555659D01*
X107188000Y-77555659D01*
X107188001Y-77555659D01*
X107252681Y-77550000D01*
X107423408Y-77535063D01*
X107651663Y-77473903D01*
X107865830Y-77374035D01*
X108059401Y-77238495D01*
X108226495Y-77071401D01*
X108356425Y-76885842D01*
X108411002Y-76842217D01*
X108480500Y-76835023D01*
X108542855Y-76866546D01*
X108559575Y-76885842D01*
X108689500Y-77071395D01*
X108689505Y-77071401D01*
X108856599Y-77238495D01*
X108904212Y-77271834D01*
X109050165Y-77374032D01*
X109050167Y-77374033D01*
X109050170Y-77374035D01*
X109264337Y-77473903D01*
X109492592Y-77535063D01*
X109663319Y-77550000D01*
X109727999Y-77555659D01*
X109728000Y-77555659D01*
X109728001Y-77555659D01*
X109792681Y-77550000D01*
X109963408Y-77535063D01*
X110191663Y-77473903D01*
X110405830Y-77374035D01*
X110599401Y-77238495D01*
X110766495Y-77071401D01*
X110896425Y-76885842D01*
X110951002Y-76842217D01*
X111020500Y-76835023D01*
X111082855Y-76866546D01*
X111099575Y-76885842D01*
X111229500Y-77071395D01*
X111229505Y-77071401D01*
X111396599Y-77238495D01*
X111444212Y-77271834D01*
X111590165Y-77374032D01*
X111590167Y-77374033D01*
X111590170Y-77374035D01*
X111804337Y-77473903D01*
X112032592Y-77535063D01*
X112203319Y-77550000D01*
X112267999Y-77555659D01*
X112268000Y-77555659D01*
X112268001Y-77555659D01*
X112332681Y-77550000D01*
X112503408Y-77535063D01*
X112731663Y-77473903D01*
X112945830Y-77374035D01*
X113139401Y-77238495D01*
X113306495Y-77071401D01*
X113442035Y-76877830D01*
X113541903Y-76663663D01*
X113603063Y-76435408D01*
X113623659Y-76200000D01*
X113603063Y-75964592D01*
X113541903Y-75736337D01*
X113442035Y-75522171D01*
X113436425Y-75514158D01*
X113306494Y-75328597D01*
X113139402Y-75161506D01*
X113139395Y-75161501D01*
X112945834Y-75025967D01*
X112945830Y-75025965D01*
X112912498Y-75010422D01*
X112731663Y-74926097D01*
X112731659Y-74926096D01*
X112731655Y-74926094D01*
X112503413Y-74864938D01*
X112503403Y-74864936D01*
X112268001Y-74844341D01*
X112267999Y-74844341D01*
X112032596Y-74864936D01*
X112032586Y-74864938D01*
X111804344Y-74926094D01*
X111804335Y-74926098D01*
X111590171Y-75025964D01*
X111590169Y-75025965D01*
X111396597Y-75161505D01*
X111229505Y-75328597D01*
X111099575Y-75514158D01*
X111044998Y-75557783D01*
X110975500Y-75564977D01*
X110913145Y-75533454D01*
X110896425Y-75514158D01*
X110766494Y-75328597D01*
X110599402Y-75161506D01*
X110599395Y-75161501D01*
X110405834Y-75025967D01*
X110405830Y-75025965D01*
X110372498Y-75010422D01*
X110191663Y-74926097D01*
X110191659Y-74926096D01*
X110191655Y-74926094D01*
X109963413Y-74864938D01*
X109963403Y-74864936D01*
X109728001Y-74844341D01*
X109727999Y-74844341D01*
X109492596Y-74864936D01*
X109492586Y-74864938D01*
X109392126Y-74891856D01*
X109322276Y-74890193D01*
X109272352Y-74859762D01*
X104043595Y-69631005D01*
X106207057Y-69631005D01*
X106226807Y-69944942D01*
X106226808Y-69944949D01*
X106285755Y-70253958D01*
X106382963Y-70553132D01*
X106382965Y-70553137D01*
X106516900Y-70837761D01*
X106516903Y-70837767D01*
X106685457Y-71103367D01*
X106685460Y-71103371D01*
X106776286Y-71213160D01*
X107414266Y-70575180D01*
X107577130Y-70765870D01*
X107767818Y-70928732D01*
X107126971Y-71569579D01*
X107126972Y-71569581D01*
X107369772Y-71745985D01*
X107369790Y-71745996D01*
X107645447Y-71897540D01*
X107645455Y-71897544D01*
X107937926Y-72013340D01*
X108242620Y-72091573D01*
X108242629Y-72091575D01*
X108554701Y-72130999D01*
X108554715Y-72131000D01*
X108869285Y-72131000D01*
X108869298Y-72130999D01*
X109181370Y-72091575D01*
X109181379Y-72091573D01*
X109486073Y-72013340D01*
X109778544Y-71897544D01*
X109778552Y-71897540D01*
X110054209Y-71745996D01*
X110054219Y-71745990D01*
X110297026Y-71569579D01*
X110297027Y-71569579D01*
X109656180Y-70928733D01*
X109846870Y-70765870D01*
X110009733Y-70575181D01*
X110647712Y-71213160D01*
X110738544Y-71103364D01*
X110907096Y-70837767D01*
X110907099Y-70837761D01*
X111041034Y-70553137D01*
X111041036Y-70553132D01*
X111138244Y-70253958D01*
X111197191Y-69944949D01*
X111197192Y-69944942D01*
X111216943Y-69631005D01*
X111216943Y-69630994D01*
X111197192Y-69317057D01*
X111197191Y-69317050D01*
X111138244Y-69008041D01*
X111041036Y-68708867D01*
X111041034Y-68708862D01*
X110907099Y-68424238D01*
X110907096Y-68424232D01*
X110738542Y-68158632D01*
X110738539Y-68158628D01*
X110647712Y-68048838D01*
X110009732Y-68686818D01*
X109846870Y-68496130D01*
X109656180Y-68333266D01*
X110297027Y-67692419D01*
X110297026Y-67692417D01*
X110054227Y-67516014D01*
X110054209Y-67516003D01*
X109778552Y-67364459D01*
X109778544Y-67364455D01*
X109486073Y-67248659D01*
X109181379Y-67170426D01*
X109181370Y-67170424D01*
X108869298Y-67131000D01*
X108554701Y-67131000D01*
X108242629Y-67170424D01*
X108242620Y-67170426D01*
X107937926Y-67248659D01*
X107645455Y-67364455D01*
X107645447Y-67364459D01*
X107369787Y-67516004D01*
X107369782Y-67516007D01*
X107126972Y-67692418D01*
X107126971Y-67692419D01*
X107767819Y-68333266D01*
X107577130Y-68496130D01*
X107414266Y-68686818D01*
X106776286Y-68048838D01*
X106776285Y-68048838D01*
X106685459Y-68158629D01*
X106685457Y-68158632D01*
X106516903Y-68424232D01*
X106516900Y-68424238D01*
X106382965Y-68708862D01*
X106382963Y-68708867D01*
X106285755Y-69008041D01*
X106226808Y-69317050D01*
X106226807Y-69317057D01*
X106207057Y-69630994D01*
X106207057Y-69631005D01*
X104043595Y-69631005D01*
X103034567Y-68621977D01*
X103001082Y-68560654D01*
X103006066Y-68490962D01*
X103047938Y-68435029D01*
X103077454Y-68418669D01*
X103101677Y-68409285D01*
X103153401Y-68389247D01*
X103342562Y-68272124D01*
X103506981Y-68122236D01*
X103641058Y-67944689D01*
X103740229Y-67745528D01*
X103801115Y-67531536D01*
X103821643Y-67310000D01*
X103819590Y-67287849D01*
X103801115Y-67088464D01*
X103801114Y-67088462D01*
X103791367Y-67054206D01*
X103740229Y-66874472D01*
X103740224Y-66874461D01*
X103641061Y-66675316D01*
X103641056Y-66675308D01*
X103506979Y-66497761D01*
X103342563Y-66347877D01*
X103342562Y-66347876D01*
X103312595Y-66329321D01*
X103300222Y-66321660D01*
X103253587Y-66269631D01*
X103241500Y-66216233D01*
X103241500Y-64827142D01*
X103261185Y-64760103D01*
X103300218Y-64721718D01*
X103396716Y-64661970D01*
X103561135Y-64512082D01*
X103695212Y-64334535D01*
X103794383Y-64135374D01*
X103855269Y-63921382D01*
X103875797Y-63699846D01*
X103855269Y-63478310D01*
X103794383Y-63264318D01*
X103793046Y-63261633D01*
X103695215Y-63065162D01*
X103695210Y-63065154D01*
X103561133Y-62887607D01*
X103396717Y-62737723D01*
X103396716Y-62737722D01*
X103300222Y-62677975D01*
X103253587Y-62625947D01*
X103241500Y-62572548D01*
X103241500Y-61291765D01*
X103261185Y-61224726D01*
X103300220Y-61186340D01*
X103342562Y-61160124D01*
X103506981Y-61010236D01*
X103641058Y-60832689D01*
X103740229Y-60633528D01*
X103801115Y-60419536D01*
X103821643Y-60198000D01*
X103801115Y-59976464D01*
X103740229Y-59762472D01*
X103740224Y-59762461D01*
X103641061Y-59563316D01*
X103641056Y-59563308D01*
X103506979Y-59385761D01*
X103346542Y-59239504D01*
X103342562Y-59235876D01*
X103300222Y-59209660D01*
X103253587Y-59157631D01*
X103241500Y-59104233D01*
X103241500Y-57735765D01*
X103261185Y-57668726D01*
X103300220Y-57630340D01*
X103342562Y-57604124D01*
X103452174Y-57504198D01*
X103506979Y-57454238D01*
X103522663Y-57433470D01*
X103610788Y-57316772D01*
X103666897Y-57275137D01*
X103709742Y-57267500D01*
X105862532Y-57267500D01*
X105929571Y-57287185D01*
G37*
%TD.AperFunction*%
%TA.AperFunction,Conductor*%
G36*
X42484865Y-72807897D02*
G01*
X42529382Y-72859272D01*
X42600897Y-73012638D01*
X42625064Y-73047151D01*
X42726402Y-73191877D01*
X42881123Y-73346598D01*
X43009624Y-73436575D01*
X43053248Y-73491151D01*
X43062500Y-73538149D01*
X43062500Y-74924773D01*
X43042815Y-74991812D01*
X43009623Y-75026348D01*
X42816597Y-75161505D01*
X42649505Y-75328597D01*
X42519575Y-75514158D01*
X42464998Y-75557783D01*
X42395500Y-75564977D01*
X42333145Y-75533454D01*
X42316425Y-75514158D01*
X42186494Y-75328597D01*
X42019402Y-75161506D01*
X42019401Y-75161505D01*
X41825830Y-75025965D01*
X41825829Y-75025964D01*
X41824376Y-75024947D01*
X41780752Y-74970370D01*
X41771500Y-74923372D01*
X41771500Y-73538149D01*
X41791185Y-73471110D01*
X41824374Y-73436576D01*
X41952877Y-73346598D01*
X42107598Y-73191877D01*
X42233102Y-73012639D01*
X42304618Y-72859271D01*
X42350790Y-72806833D01*
X42417984Y-72787681D01*
X42484865Y-72807897D01*
G37*
%TD.AperFunction*%
%TA.AperFunction,Conductor*%
G36*
X45025865Y-72810041D02*
G01*
X45070381Y-72861414D01*
X45140898Y-73012639D01*
X45266402Y-73191877D01*
X45421123Y-73346598D01*
X45549624Y-73436575D01*
X45593248Y-73491151D01*
X45602500Y-73538149D01*
X45602500Y-74924773D01*
X45582815Y-74991812D01*
X45549623Y-75026348D01*
X45356597Y-75161505D01*
X45189505Y-75328597D01*
X45059575Y-75514158D01*
X45004998Y-75557783D01*
X44935500Y-75564977D01*
X44873145Y-75533454D01*
X44856425Y-75514158D01*
X44726494Y-75328597D01*
X44559402Y-75161506D01*
X44559401Y-75161505D01*
X44366376Y-75026347D01*
X44322751Y-74971770D01*
X44313500Y-74924772D01*
X44313500Y-73538149D01*
X44333185Y-73471110D01*
X44366374Y-73436576D01*
X44494877Y-73346598D01*
X44649598Y-73191877D01*
X44775102Y-73012639D01*
X44845618Y-72861414D01*
X44891790Y-72808977D01*
X44958984Y-72789825D01*
X45025865Y-72810041D01*
G37*
%TD.AperFunction*%
%TA.AperFunction,Conductor*%
G36*
X47565865Y-72810041D02*
G01*
X47610381Y-72861414D01*
X47680898Y-73012639D01*
X47806402Y-73191877D01*
X47961123Y-73346598D01*
X48089624Y-73436575D01*
X48133248Y-73491151D01*
X48142500Y-73538149D01*
X48142500Y-74924773D01*
X48122815Y-74991812D01*
X48089623Y-75026348D01*
X47896597Y-75161505D01*
X47729505Y-75328597D01*
X47599575Y-75514158D01*
X47544998Y-75557783D01*
X47475500Y-75564977D01*
X47413145Y-75533454D01*
X47396425Y-75514158D01*
X47266494Y-75328597D01*
X47099402Y-75161506D01*
X47099401Y-75161505D01*
X46906376Y-75026347D01*
X46862751Y-74971770D01*
X46853500Y-74924772D01*
X46853500Y-73538149D01*
X46873185Y-73471110D01*
X46906374Y-73436576D01*
X47034877Y-73346598D01*
X47189598Y-73191877D01*
X47315102Y-73012639D01*
X47385618Y-72861414D01*
X47431790Y-72808977D01*
X47498984Y-72789825D01*
X47565865Y-72810041D01*
G37*
%TD.AperFunction*%
%TA.AperFunction,Conductor*%
G36*
X50105865Y-72810041D02*
G01*
X50150381Y-72861414D01*
X50220898Y-73012639D01*
X50346402Y-73191877D01*
X50501123Y-73346598D01*
X50629624Y-73436575D01*
X50673248Y-73491151D01*
X50682500Y-73538149D01*
X50682500Y-74924773D01*
X50662815Y-74991812D01*
X50629623Y-75026348D01*
X50436597Y-75161505D01*
X50269505Y-75328597D01*
X50139575Y-75514158D01*
X50084998Y-75557783D01*
X50015500Y-75564977D01*
X49953145Y-75533454D01*
X49936425Y-75514158D01*
X49806494Y-75328597D01*
X49639402Y-75161506D01*
X49639401Y-75161505D01*
X49446376Y-75026347D01*
X49402751Y-74971770D01*
X49393500Y-74924772D01*
X49393500Y-73538149D01*
X49413185Y-73471110D01*
X49446374Y-73436576D01*
X49574877Y-73346598D01*
X49729598Y-73191877D01*
X49855102Y-73012639D01*
X49925618Y-72861414D01*
X49971790Y-72808977D01*
X50038984Y-72789825D01*
X50105865Y-72810041D01*
G37*
%TD.AperFunction*%
%TA.AperFunction,Conductor*%
G36*
X52645865Y-72810041D02*
G01*
X52690381Y-72861414D01*
X52760898Y-73012639D01*
X52886402Y-73191877D01*
X53041123Y-73346598D01*
X53169624Y-73436575D01*
X53213248Y-73491151D01*
X53222500Y-73538149D01*
X53222500Y-74924773D01*
X53202815Y-74991812D01*
X53169623Y-75026348D01*
X52976597Y-75161505D01*
X52809505Y-75328597D01*
X52679575Y-75514158D01*
X52624998Y-75557783D01*
X52555500Y-75564977D01*
X52493145Y-75533454D01*
X52476425Y-75514158D01*
X52346494Y-75328597D01*
X52179402Y-75161506D01*
X52179401Y-75161505D01*
X51986376Y-75026347D01*
X51942751Y-74971770D01*
X51933500Y-74924772D01*
X51933500Y-73538149D01*
X51953185Y-73471110D01*
X51986374Y-73436576D01*
X52114877Y-73346598D01*
X52269598Y-73191877D01*
X52395102Y-73012639D01*
X52465618Y-72861414D01*
X52511790Y-72808977D01*
X52578984Y-72789825D01*
X52645865Y-72810041D01*
G37*
%TD.AperFunction*%
%TA.AperFunction,Conductor*%
G36*
X55185865Y-72810041D02*
G01*
X55230381Y-72861414D01*
X55300898Y-73012639D01*
X55426402Y-73191877D01*
X55581123Y-73346598D01*
X55709624Y-73436575D01*
X55753248Y-73491151D01*
X55762500Y-73538149D01*
X55762500Y-74924773D01*
X55742815Y-74991812D01*
X55709623Y-75026348D01*
X55516597Y-75161505D01*
X55349505Y-75328597D01*
X55219575Y-75514158D01*
X55164998Y-75557783D01*
X55095500Y-75564977D01*
X55033145Y-75533454D01*
X55016425Y-75514158D01*
X54886494Y-75328597D01*
X54719402Y-75161506D01*
X54719401Y-75161505D01*
X54526376Y-75026347D01*
X54482751Y-74971770D01*
X54473500Y-74924772D01*
X54473500Y-73538149D01*
X54493185Y-73471110D01*
X54526374Y-73436576D01*
X54654877Y-73346598D01*
X54809598Y-73191877D01*
X54935102Y-73012639D01*
X55005618Y-72861414D01*
X55051790Y-72808977D01*
X55118984Y-72789825D01*
X55185865Y-72810041D01*
G37*
%TD.AperFunction*%
%TA.AperFunction,Conductor*%
G36*
X57725865Y-72810041D02*
G01*
X57770381Y-72861414D01*
X57840898Y-73012639D01*
X57966402Y-73191877D01*
X58121123Y-73346598D01*
X58249624Y-73436575D01*
X58293248Y-73491151D01*
X58302500Y-73538149D01*
X58302500Y-74924773D01*
X58282815Y-74991812D01*
X58249623Y-75026348D01*
X58056597Y-75161505D01*
X57889505Y-75328597D01*
X57759575Y-75514158D01*
X57704998Y-75557783D01*
X57635500Y-75564977D01*
X57573145Y-75533454D01*
X57556425Y-75514158D01*
X57426494Y-75328597D01*
X57259402Y-75161506D01*
X57259401Y-75161505D01*
X57066376Y-75026347D01*
X57022751Y-74971770D01*
X57013500Y-74924772D01*
X57013500Y-73538149D01*
X57033185Y-73471110D01*
X57066374Y-73436576D01*
X57194877Y-73346598D01*
X57349598Y-73191877D01*
X57475102Y-73012639D01*
X57545618Y-72861414D01*
X57591790Y-72808977D01*
X57658984Y-72789825D01*
X57725865Y-72810041D01*
G37*
%TD.AperFunction*%
%TA.AperFunction,Conductor*%
G36*
X60265865Y-72810041D02*
G01*
X60310381Y-72861414D01*
X60380898Y-73012639D01*
X60506402Y-73191877D01*
X60661123Y-73346598D01*
X60789624Y-73436575D01*
X60833248Y-73491151D01*
X60842500Y-73538149D01*
X60842500Y-74924773D01*
X60822815Y-74991812D01*
X60789623Y-75026348D01*
X60596597Y-75161505D01*
X60429505Y-75328597D01*
X60299575Y-75514158D01*
X60244998Y-75557783D01*
X60175500Y-75564977D01*
X60113145Y-75533454D01*
X60096425Y-75514158D01*
X59966494Y-75328597D01*
X59799402Y-75161506D01*
X59799401Y-75161505D01*
X59606376Y-75026347D01*
X59562751Y-74971770D01*
X59553500Y-74924772D01*
X59553500Y-73538149D01*
X59573185Y-73471110D01*
X59606374Y-73436576D01*
X59734877Y-73346598D01*
X59889598Y-73191877D01*
X60015102Y-73012639D01*
X60085618Y-72861414D01*
X60131790Y-72808977D01*
X60198984Y-72789825D01*
X60265865Y-72810041D01*
G37*
%TD.AperFunction*%
%TA.AperFunction,Conductor*%
G36*
X62805865Y-72810041D02*
G01*
X62850381Y-72861414D01*
X62920898Y-73012639D01*
X63046402Y-73191877D01*
X63201123Y-73346598D01*
X63329624Y-73436575D01*
X63373248Y-73491151D01*
X63382500Y-73538149D01*
X63382500Y-74924773D01*
X63362815Y-74991812D01*
X63329623Y-75026348D01*
X63136597Y-75161505D01*
X62969505Y-75328597D01*
X62839575Y-75514158D01*
X62784998Y-75557783D01*
X62715500Y-75564977D01*
X62653145Y-75533454D01*
X62636425Y-75514158D01*
X62506494Y-75328597D01*
X62339402Y-75161506D01*
X62339401Y-75161505D01*
X62146376Y-75026347D01*
X62102751Y-74971770D01*
X62093500Y-74924772D01*
X62093500Y-73538149D01*
X62113185Y-73471110D01*
X62146374Y-73436576D01*
X62274877Y-73346598D01*
X62429598Y-73191877D01*
X62555102Y-73012639D01*
X62625618Y-72861414D01*
X62671790Y-72808977D01*
X62738984Y-72789825D01*
X62805865Y-72810041D01*
G37*
%TD.AperFunction*%
%TA.AperFunction,Conductor*%
G36*
X65345865Y-72810041D02*
G01*
X65390381Y-72861414D01*
X65460898Y-73012639D01*
X65586402Y-73191877D01*
X65741123Y-73346598D01*
X65869624Y-73436575D01*
X65913248Y-73491151D01*
X65922500Y-73538149D01*
X65922500Y-74924773D01*
X65902815Y-74991812D01*
X65869623Y-75026348D01*
X65676597Y-75161505D01*
X65509505Y-75328597D01*
X65379575Y-75514158D01*
X65324998Y-75557783D01*
X65255500Y-75564977D01*
X65193145Y-75533454D01*
X65176425Y-75514158D01*
X65046494Y-75328597D01*
X64879402Y-75161506D01*
X64879401Y-75161505D01*
X64686376Y-75026347D01*
X64642751Y-74971770D01*
X64633500Y-74924772D01*
X64633500Y-73538149D01*
X64653185Y-73471110D01*
X64686374Y-73436576D01*
X64814877Y-73346598D01*
X64969598Y-73191877D01*
X65095102Y-73012639D01*
X65165618Y-72861414D01*
X65211790Y-72808977D01*
X65278984Y-72789825D01*
X65345865Y-72810041D01*
G37*
%TD.AperFunction*%
%TA.AperFunction,Conductor*%
G36*
X67885865Y-72810041D02*
G01*
X67930381Y-72861414D01*
X68000898Y-73012639D01*
X68126402Y-73191877D01*
X68281123Y-73346598D01*
X68409624Y-73436575D01*
X68453248Y-73491151D01*
X68462500Y-73538149D01*
X68462500Y-74924773D01*
X68442815Y-74991812D01*
X68409623Y-75026348D01*
X68216597Y-75161505D01*
X68049505Y-75328597D01*
X67919575Y-75514158D01*
X67864998Y-75557783D01*
X67795500Y-75564977D01*
X67733145Y-75533454D01*
X67716425Y-75514158D01*
X67586494Y-75328597D01*
X67419402Y-75161506D01*
X67419401Y-75161505D01*
X67226376Y-75026347D01*
X67182751Y-74971770D01*
X67173500Y-74924772D01*
X67173500Y-73538149D01*
X67193185Y-73471110D01*
X67226374Y-73436576D01*
X67354877Y-73346598D01*
X67509598Y-73191877D01*
X67635102Y-73012639D01*
X67705618Y-72861414D01*
X67751790Y-72808977D01*
X67818984Y-72789825D01*
X67885865Y-72810041D01*
G37*
%TD.AperFunction*%
%TA.AperFunction,Conductor*%
G36*
X70425865Y-72810041D02*
G01*
X70470381Y-72861414D01*
X70540898Y-73012639D01*
X70666402Y-73191877D01*
X70821123Y-73346598D01*
X70949624Y-73436575D01*
X70993248Y-73491151D01*
X71002500Y-73538149D01*
X71002500Y-74924773D01*
X70982815Y-74991812D01*
X70949623Y-75026348D01*
X70756597Y-75161505D01*
X70589505Y-75328597D01*
X70459575Y-75514158D01*
X70404998Y-75557783D01*
X70335500Y-75564977D01*
X70273145Y-75533454D01*
X70256425Y-75514158D01*
X70126494Y-75328597D01*
X69959402Y-75161506D01*
X69959401Y-75161505D01*
X69766376Y-75026347D01*
X69722751Y-74971770D01*
X69713500Y-74924772D01*
X69713500Y-73538149D01*
X69733185Y-73471110D01*
X69766374Y-73436576D01*
X69894877Y-73346598D01*
X70049598Y-73191877D01*
X70175102Y-73012639D01*
X70245618Y-72861414D01*
X70291790Y-72808977D01*
X70358984Y-72789825D01*
X70425865Y-72810041D01*
G37*
%TD.AperFunction*%
%TA.AperFunction,Conductor*%
G36*
X72965865Y-72810041D02*
G01*
X73010381Y-72861414D01*
X73080898Y-73012639D01*
X73206402Y-73191877D01*
X73361123Y-73346598D01*
X73489624Y-73436575D01*
X73533248Y-73491151D01*
X73542500Y-73538149D01*
X73542500Y-74924773D01*
X73522815Y-74991812D01*
X73489623Y-75026348D01*
X73296597Y-75161505D01*
X73129505Y-75328597D01*
X72999575Y-75514158D01*
X72944998Y-75557783D01*
X72875500Y-75564977D01*
X72813145Y-75533454D01*
X72796425Y-75514158D01*
X72666494Y-75328597D01*
X72499402Y-75161506D01*
X72499401Y-75161505D01*
X72306376Y-75026347D01*
X72262751Y-74971770D01*
X72253500Y-74924772D01*
X72253500Y-73538149D01*
X72273185Y-73471110D01*
X72306374Y-73436576D01*
X72434877Y-73346598D01*
X72589598Y-73191877D01*
X72715102Y-73012639D01*
X72785618Y-72861414D01*
X72831790Y-72808977D01*
X72898984Y-72789825D01*
X72965865Y-72810041D01*
G37*
%TD.AperFunction*%
%TA.AperFunction,Conductor*%
G36*
X75505865Y-72810041D02*
G01*
X75550381Y-72861414D01*
X75620898Y-73012639D01*
X75746402Y-73191877D01*
X75901123Y-73346598D01*
X76029624Y-73436575D01*
X76073248Y-73491151D01*
X76082500Y-73538149D01*
X76082500Y-74924773D01*
X76062815Y-74991812D01*
X76029623Y-75026348D01*
X75836597Y-75161505D01*
X75669505Y-75328597D01*
X75539575Y-75514158D01*
X75484998Y-75557783D01*
X75415500Y-75564977D01*
X75353145Y-75533454D01*
X75336425Y-75514158D01*
X75206494Y-75328597D01*
X75039402Y-75161506D01*
X75039401Y-75161505D01*
X74846376Y-75026347D01*
X74802751Y-74971770D01*
X74793500Y-74924772D01*
X74793500Y-73538149D01*
X74813185Y-73471110D01*
X74846374Y-73436576D01*
X74974877Y-73346598D01*
X75129598Y-73191877D01*
X75255102Y-73012639D01*
X75325618Y-72861414D01*
X75371790Y-72808977D01*
X75438984Y-72789825D01*
X75505865Y-72810041D01*
G37*
%TD.AperFunction*%
%TA.AperFunction,Conductor*%
G36*
X98533491Y-65901658D02*
G01*
X98570611Y-65927201D01*
X107276070Y-74632660D01*
X107309555Y-74693983D01*
X107304571Y-74763675D01*
X107262699Y-74819608D01*
X107197235Y-74844025D01*
X107188389Y-74844341D01*
X107187999Y-74844341D01*
X106952596Y-74864936D01*
X106952586Y-74864938D01*
X106724344Y-74926094D01*
X106724335Y-74926098D01*
X106510171Y-75025964D01*
X106510169Y-75025965D01*
X106316597Y-75161505D01*
X106149505Y-75328597D01*
X106019575Y-75514158D01*
X105964998Y-75557783D01*
X105895500Y-75564977D01*
X105833145Y-75533454D01*
X105816425Y-75514158D01*
X105686494Y-75328597D01*
X105519402Y-75161506D01*
X105519395Y-75161501D01*
X105325834Y-75025967D01*
X105325830Y-75025965D01*
X105292498Y-75010422D01*
X105111663Y-74926097D01*
X105111659Y-74926096D01*
X105111655Y-74926094D01*
X104883413Y-74864938D01*
X104883403Y-74864936D01*
X104648001Y-74844341D01*
X104647999Y-74844341D01*
X104412596Y-74864936D01*
X104412586Y-74864938D01*
X104184344Y-74926094D01*
X104184335Y-74926098D01*
X103970171Y-75025964D01*
X103970169Y-75025965D01*
X103776597Y-75161505D01*
X103609505Y-75328597D01*
X103479575Y-75514158D01*
X103424998Y-75557783D01*
X103355500Y-75564977D01*
X103293145Y-75533454D01*
X103276425Y-75514158D01*
X103146494Y-75328597D01*
X102979402Y-75161506D01*
X102979401Y-75161505D01*
X102786376Y-75026347D01*
X102742751Y-74971770D01*
X102733500Y-74924772D01*
X102733500Y-72218742D01*
X102735224Y-72203122D01*
X102734939Y-72203096D01*
X102735671Y-72195340D01*
X102735673Y-72195333D01*
X102733500Y-72126185D01*
X102733500Y-72096650D01*
X102732631Y-72089772D01*
X102732172Y-72083943D01*
X102730709Y-72037372D01*
X102725122Y-72018144D01*
X102721174Y-71999084D01*
X102718664Y-71979208D01*
X102718663Y-71979206D01*
X102718663Y-71979204D01*
X102701512Y-71935887D01*
X102699619Y-71930358D01*
X102686618Y-71885609D01*
X102686616Y-71885606D01*
X102676423Y-71868371D01*
X102667861Y-71850894D01*
X102660487Y-71832270D01*
X102660486Y-71832268D01*
X102633079Y-71794545D01*
X102629888Y-71789686D01*
X102623696Y-71779216D01*
X102606170Y-71749580D01*
X102606168Y-71749578D01*
X102606165Y-71749574D01*
X102592006Y-71735415D01*
X102579368Y-71720619D01*
X102567594Y-71704413D01*
X102531688Y-71674709D01*
X102527376Y-71670786D01*
X97724478Y-66867887D01*
X97690993Y-66806564D01*
X97695977Y-66736872D01*
X97737849Y-66680939D01*
X97760365Y-66668463D01*
X97760113Y-66667957D01*
X97765233Y-66665406D01*
X97765247Y-66665401D01*
X97954408Y-66548278D01*
X98118827Y-66398390D01*
X98252904Y-66220843D01*
X98352075Y-66021682D01*
X98363665Y-65980944D01*
X98400942Y-65921856D01*
X98464251Y-65892297D01*
X98533491Y-65901658D01*
G37*
%TD.AperFunction*%
%TA.AperFunction,Conductor*%
G36*
X48299318Y-57618040D02*
G01*
X48378605Y-57741413D01*
X48489438Y-57837451D01*
X48622839Y-57898373D01*
X48626634Y-57898918D01*
X47786829Y-58738722D01*
X47786829Y-58738723D01*
X47810624Y-58747598D01*
X47870155Y-58753999D01*
X47870172Y-58754000D01*
X49665828Y-58754000D01*
X49665844Y-58753999D01*
X49725372Y-58747598D01*
X49725378Y-58747597D01*
X49749168Y-58738723D01*
X49749168Y-58738722D01*
X48909366Y-57898918D01*
X48913161Y-57898373D01*
X49046562Y-57837451D01*
X49157395Y-57741413D01*
X49236682Y-57618040D01*
X49259133Y-57541580D01*
X50102722Y-58385168D01*
X50102723Y-58385168D01*
X50110423Y-58364526D01*
X50152296Y-58308593D01*
X50217761Y-58284178D01*
X50286033Y-58299031D01*
X50314285Y-58320181D01*
X50436599Y-58442495D01*
X50629624Y-58577653D01*
X50673248Y-58632228D01*
X50682500Y-58679226D01*
X50682500Y-63390500D01*
X50662815Y-63457539D01*
X50610011Y-63503294D01*
X50558502Y-63514500D01*
X50510131Y-63514500D01*
X50510123Y-63514501D01*
X50450516Y-63520908D01*
X50315671Y-63571202D01*
X50315664Y-63571206D01*
X50200455Y-63657452D01*
X50200452Y-63657455D01*
X50137266Y-63741861D01*
X50081332Y-63783732D01*
X50011641Y-63788716D01*
X49950318Y-63755230D01*
X49938734Y-63741861D01*
X49875547Y-63657455D01*
X49875544Y-63657452D01*
X49760335Y-63571206D01*
X49760328Y-63571202D01*
X49625482Y-63520908D01*
X49625483Y-63520908D01*
X49565883Y-63514501D01*
X49565881Y-63514500D01*
X49565873Y-63514500D01*
X49565864Y-63514500D01*
X47970129Y-63514500D01*
X47970123Y-63514501D01*
X47910516Y-63520908D01*
X47775671Y-63571202D01*
X47775664Y-63571206D01*
X47660455Y-63657452D01*
X47660452Y-63657455D01*
X47597266Y-63741861D01*
X47541332Y-63783732D01*
X47471641Y-63788716D01*
X47410318Y-63755230D01*
X47398734Y-63741861D01*
X47335547Y-63657455D01*
X47335544Y-63657452D01*
X47220335Y-63571206D01*
X47220328Y-63571202D01*
X47085482Y-63520908D01*
X47085483Y-63520908D01*
X47025883Y-63514501D01*
X47025881Y-63514500D01*
X47025873Y-63514500D01*
X47025864Y-63514500D01*
X45430129Y-63514500D01*
X45430123Y-63514501D01*
X45370516Y-63520908D01*
X45235671Y-63571202D01*
X45235664Y-63571206D01*
X45120455Y-63657452D01*
X45120452Y-63657455D01*
X45057266Y-63741861D01*
X45001332Y-63783732D01*
X44931641Y-63788716D01*
X44870318Y-63755230D01*
X44858734Y-63741861D01*
X44795547Y-63657455D01*
X44795544Y-63657452D01*
X44680335Y-63571206D01*
X44680328Y-63571202D01*
X44545482Y-63520908D01*
X44545483Y-63520908D01*
X44485883Y-63514501D01*
X44485881Y-63514500D01*
X44485873Y-63514500D01*
X44485864Y-63514500D01*
X42890129Y-63514500D01*
X42890123Y-63514501D01*
X42830516Y-63520908D01*
X42695671Y-63571202D01*
X42695664Y-63571206D01*
X42580455Y-63657452D01*
X42516266Y-63743197D01*
X42460332Y-63785067D01*
X42390640Y-63790051D01*
X42329317Y-63756565D01*
X42317734Y-63743197D01*
X42279259Y-63691803D01*
X42253546Y-63657454D01*
X42253544Y-63657453D01*
X42253544Y-63657452D01*
X42138335Y-63571206D01*
X42138328Y-63571202D01*
X42003482Y-63520908D01*
X42003483Y-63520908D01*
X41943883Y-63514501D01*
X41943881Y-63514500D01*
X41943873Y-63514500D01*
X41943864Y-63514500D01*
X40348129Y-63514500D01*
X40348123Y-63514501D01*
X40288516Y-63520908D01*
X40153671Y-63571202D01*
X40153664Y-63571206D01*
X40038455Y-63657452D01*
X40038452Y-63657455D01*
X39952206Y-63772664D01*
X39952202Y-63772671D01*
X39901908Y-63907517D01*
X39895501Y-63967116D01*
X39895500Y-63967135D01*
X39895500Y-65562870D01*
X39895501Y-65562876D01*
X39901908Y-65622483D01*
X39952202Y-65757328D01*
X39952206Y-65757335D01*
X40038452Y-65872544D01*
X40038455Y-65872547D01*
X40153664Y-65958793D01*
X40153671Y-65958797D01*
X40288517Y-66009091D01*
X40288516Y-66009091D01*
X40295444Y-66009835D01*
X40348127Y-66015500D01*
X41943872Y-66015499D01*
X42003483Y-66009091D01*
X42138331Y-65958796D01*
X42253546Y-65872546D01*
X42285929Y-65829288D01*
X42317734Y-65786803D01*
X42373668Y-65744932D01*
X42443359Y-65739948D01*
X42504682Y-65773434D01*
X42516266Y-65786803D01*
X42580452Y-65872544D01*
X42580455Y-65872547D01*
X42695664Y-65958793D01*
X42695671Y-65958797D01*
X42830517Y-66009091D01*
X42830516Y-66009091D01*
X42837444Y-66009835D01*
X42890127Y-66015500D01*
X44485872Y-66015499D01*
X44545483Y-66009091D01*
X44680331Y-65958796D01*
X44795546Y-65872546D01*
X44858734Y-65788136D01*
X44914667Y-65746267D01*
X44984359Y-65741283D01*
X45045682Y-65774768D01*
X45057260Y-65788130D01*
X45120454Y-65872546D01*
X45146838Y-65892297D01*
X45235664Y-65958793D01*
X45235671Y-65958797D01*
X45370517Y-66009091D01*
X45370516Y-66009091D01*
X45377444Y-66009835D01*
X45430127Y-66015500D01*
X47025872Y-66015499D01*
X47085483Y-66009091D01*
X47220331Y-65958796D01*
X47335546Y-65872546D01*
X47398734Y-65788136D01*
X47454667Y-65746267D01*
X47524359Y-65741283D01*
X47585682Y-65774768D01*
X47597260Y-65788130D01*
X47660454Y-65872546D01*
X47686838Y-65892297D01*
X47775664Y-65958793D01*
X47775671Y-65958797D01*
X47910517Y-66009091D01*
X47910516Y-66009091D01*
X47917444Y-66009835D01*
X47970127Y-66015500D01*
X49565872Y-66015499D01*
X49625483Y-66009091D01*
X49760331Y-65958796D01*
X49875546Y-65872546D01*
X49938734Y-65788136D01*
X49994667Y-65746267D01*
X50064359Y-65741283D01*
X50125682Y-65774768D01*
X50137260Y-65788130D01*
X50200454Y-65872546D01*
X50226838Y-65892297D01*
X50315664Y-65958793D01*
X50315671Y-65958797D01*
X50450517Y-66009091D01*
X50450516Y-66009091D01*
X50457444Y-66009835D01*
X50510127Y-66015500D01*
X52105872Y-66015499D01*
X52165483Y-66009091D01*
X52300331Y-65958796D01*
X52415546Y-65872546D01*
X52478734Y-65788136D01*
X52534667Y-65746267D01*
X52604359Y-65741283D01*
X52665682Y-65774768D01*
X52677260Y-65788130D01*
X52740454Y-65872546D01*
X52766838Y-65892297D01*
X52855664Y-65958793D01*
X52855671Y-65958797D01*
X52990517Y-66009091D01*
X52990516Y-66009091D01*
X52997444Y-66009835D01*
X53050127Y-66015500D01*
X54645872Y-66015499D01*
X54705483Y-66009091D01*
X54840331Y-65958796D01*
X54955546Y-65872546D01*
X55018734Y-65788136D01*
X55074667Y-65746267D01*
X55144359Y-65741283D01*
X55205682Y-65774768D01*
X55217260Y-65788130D01*
X55280454Y-65872546D01*
X55306838Y-65892297D01*
X55395664Y-65958793D01*
X55395671Y-65958797D01*
X55530517Y-66009091D01*
X55530516Y-66009091D01*
X55537444Y-66009835D01*
X55590127Y-66015500D01*
X57185872Y-66015499D01*
X57245483Y-66009091D01*
X57380331Y-65958796D01*
X57495546Y-65872546D01*
X57558734Y-65788136D01*
X57614667Y-65746267D01*
X57684359Y-65741283D01*
X57745682Y-65774768D01*
X57757260Y-65788130D01*
X57820454Y-65872546D01*
X57846838Y-65892297D01*
X57935664Y-65958793D01*
X57935671Y-65958797D01*
X58070517Y-66009091D01*
X58070516Y-66009091D01*
X58077444Y-66009835D01*
X58130127Y-66015500D01*
X59725872Y-66015499D01*
X59785483Y-66009091D01*
X59920331Y-65958796D01*
X60035546Y-65872546D01*
X60098734Y-65788136D01*
X60154667Y-65746267D01*
X60224359Y-65741283D01*
X60285682Y-65774768D01*
X60297260Y-65788130D01*
X60360454Y-65872546D01*
X60386838Y-65892297D01*
X60475664Y-65958793D01*
X60475671Y-65958797D01*
X60610517Y-66009091D01*
X60610516Y-66009091D01*
X60617444Y-66009835D01*
X60670127Y-66015500D01*
X62265872Y-66015499D01*
X62325483Y-66009091D01*
X62460331Y-65958796D01*
X62575546Y-65872546D01*
X62638734Y-65788136D01*
X62694667Y-65746267D01*
X62764359Y-65741283D01*
X62825682Y-65774768D01*
X62837260Y-65788130D01*
X62900454Y-65872546D01*
X62926838Y-65892297D01*
X63015664Y-65958793D01*
X63015671Y-65958797D01*
X63150517Y-66009091D01*
X63150516Y-66009091D01*
X63157444Y-66009835D01*
X63210127Y-66015500D01*
X64805872Y-66015499D01*
X64865483Y-66009091D01*
X65000331Y-65958796D01*
X65115546Y-65872546D01*
X65178734Y-65788136D01*
X65234667Y-65746267D01*
X65304359Y-65741283D01*
X65365682Y-65774768D01*
X65377260Y-65788130D01*
X65440454Y-65872546D01*
X65466838Y-65892297D01*
X65555664Y-65958793D01*
X65555671Y-65958797D01*
X65690517Y-66009091D01*
X65690516Y-66009091D01*
X65697444Y-66009835D01*
X65750127Y-66015500D01*
X67068500Y-66015499D01*
X67135539Y-66035184D01*
X67181294Y-66087987D01*
X67192500Y-66139499D01*
X67192500Y-70548312D01*
X67172815Y-70615351D01*
X67160650Y-70631284D01*
X67085466Y-70714784D01*
X66990821Y-70878715D01*
X66990818Y-70878722D01*
X66930318Y-71064924D01*
X66929065Y-71064517D01*
X66899219Y-71119788D01*
X66838053Y-71153559D01*
X66779040Y-71152293D01*
X66765977Y-71148793D01*
X66548002Y-71129723D01*
X66547998Y-71129723D01*
X66402682Y-71142436D01*
X66330023Y-71148793D01*
X66330020Y-71148793D01*
X66118677Y-71205422D01*
X66118668Y-71205426D01*
X65920361Y-71297898D01*
X65920357Y-71297900D01*
X65741121Y-71423402D01*
X65586402Y-71578121D01*
X65460900Y-71757357D01*
X65460898Y-71757361D01*
X65390382Y-71908583D01*
X65344209Y-71961022D01*
X65277016Y-71980174D01*
X65210135Y-71959958D01*
X65165618Y-71908583D01*
X65130031Y-71832268D01*
X65095102Y-71757362D01*
X65095100Y-71757359D01*
X65095099Y-71757357D01*
X64969599Y-71578124D01*
X64902915Y-71511440D01*
X64814877Y-71423402D01*
X64676978Y-71326844D01*
X64635638Y-71297897D01*
X64520760Y-71244329D01*
X64437330Y-71205425D01*
X64437326Y-71205424D01*
X64437322Y-71205422D01*
X64225977Y-71148793D01*
X64008002Y-71129723D01*
X64007998Y-71129723D01*
X63862682Y-71142436D01*
X63790023Y-71148793D01*
X63790020Y-71148793D01*
X63578677Y-71205422D01*
X63578668Y-71205426D01*
X63380361Y-71297898D01*
X63380357Y-71297900D01*
X63201121Y-71423402D01*
X63046402Y-71578121D01*
X62920900Y-71757357D01*
X62920898Y-71757361D01*
X62850382Y-71908583D01*
X62804209Y-71961022D01*
X62737016Y-71980174D01*
X62670135Y-71959958D01*
X62625618Y-71908583D01*
X62590031Y-71832268D01*
X62555102Y-71757362D01*
X62555100Y-71757359D01*
X62555099Y-71757357D01*
X62429599Y-71578124D01*
X62362915Y-71511440D01*
X62274877Y-71423402D01*
X62136978Y-71326844D01*
X62095638Y-71297897D01*
X61980760Y-71244329D01*
X61897330Y-71205425D01*
X61897326Y-71205424D01*
X61897322Y-71205422D01*
X61685977Y-71148793D01*
X61468002Y-71129723D01*
X61467998Y-71129723D01*
X61322682Y-71142436D01*
X61250023Y-71148793D01*
X61250020Y-71148793D01*
X61038677Y-71205422D01*
X61038668Y-71205426D01*
X60840361Y-71297898D01*
X60840357Y-71297900D01*
X60661121Y-71423402D01*
X60506402Y-71578121D01*
X60380900Y-71757357D01*
X60380898Y-71757361D01*
X60310382Y-71908583D01*
X60264209Y-71961022D01*
X60197016Y-71980174D01*
X60130135Y-71959958D01*
X60085618Y-71908583D01*
X60050031Y-71832268D01*
X60015102Y-71757362D01*
X60015100Y-71757359D01*
X60015099Y-71757357D01*
X59889599Y-71578124D01*
X59822915Y-71511440D01*
X59734877Y-71423402D01*
X59596978Y-71326844D01*
X59555638Y-71297897D01*
X59440760Y-71244329D01*
X59357330Y-71205425D01*
X59357326Y-71205424D01*
X59357322Y-71205422D01*
X59145977Y-71148793D01*
X58928002Y-71129723D01*
X58927998Y-71129723D01*
X58782682Y-71142436D01*
X58710023Y-71148793D01*
X58710020Y-71148793D01*
X58498677Y-71205422D01*
X58498668Y-71205426D01*
X58300361Y-71297898D01*
X58300357Y-71297900D01*
X58121121Y-71423402D01*
X57966402Y-71578121D01*
X57840900Y-71757357D01*
X57840898Y-71757361D01*
X57770382Y-71908583D01*
X57724209Y-71961022D01*
X57657016Y-71980174D01*
X57590135Y-71959958D01*
X57545618Y-71908583D01*
X57510031Y-71832268D01*
X57475102Y-71757362D01*
X57475100Y-71757359D01*
X57475099Y-71757357D01*
X57349599Y-71578124D01*
X57282915Y-71511440D01*
X57194877Y-71423402D01*
X57056978Y-71326844D01*
X57015638Y-71297897D01*
X56900760Y-71244329D01*
X56817330Y-71205425D01*
X56817326Y-71205424D01*
X56817322Y-71205422D01*
X56605977Y-71148793D01*
X56388002Y-71129723D01*
X56387998Y-71129723D01*
X56242682Y-71142436D01*
X56170023Y-71148793D01*
X56170020Y-71148793D01*
X55958677Y-71205422D01*
X55958668Y-71205426D01*
X55760361Y-71297898D01*
X55760357Y-71297900D01*
X55581121Y-71423402D01*
X55426402Y-71578121D01*
X55300900Y-71757357D01*
X55300898Y-71757361D01*
X55230382Y-71908583D01*
X55184209Y-71961022D01*
X55117016Y-71980174D01*
X55050135Y-71959958D01*
X55005618Y-71908583D01*
X54970031Y-71832268D01*
X54935102Y-71757362D01*
X54935100Y-71757359D01*
X54935099Y-71757357D01*
X54809599Y-71578124D01*
X54742915Y-71511440D01*
X54654877Y-71423402D01*
X54516978Y-71326844D01*
X54475638Y-71297897D01*
X54360760Y-71244329D01*
X54277330Y-71205425D01*
X54277326Y-71205424D01*
X54277322Y-71205422D01*
X54065977Y-71148793D01*
X53848002Y-71129723D01*
X53847998Y-71129723D01*
X53702682Y-71142436D01*
X53630023Y-71148793D01*
X53630020Y-71148793D01*
X53418677Y-71205422D01*
X53418668Y-71205426D01*
X53220361Y-71297898D01*
X53220357Y-71297900D01*
X53041121Y-71423402D01*
X52886402Y-71578121D01*
X52760900Y-71757357D01*
X52760898Y-71757361D01*
X52690382Y-71908583D01*
X52644209Y-71961022D01*
X52577016Y-71980174D01*
X52510135Y-71959958D01*
X52465618Y-71908583D01*
X52430031Y-71832268D01*
X52395102Y-71757362D01*
X52395100Y-71757359D01*
X52395099Y-71757357D01*
X52269599Y-71578124D01*
X52202915Y-71511440D01*
X52114877Y-71423402D01*
X51976978Y-71326844D01*
X51935638Y-71297897D01*
X51820760Y-71244329D01*
X51737330Y-71205425D01*
X51737326Y-71205424D01*
X51737322Y-71205422D01*
X51525977Y-71148793D01*
X51308002Y-71129723D01*
X51307998Y-71129723D01*
X51162682Y-71142436D01*
X51090023Y-71148793D01*
X51090020Y-71148793D01*
X50878677Y-71205422D01*
X50878668Y-71205426D01*
X50680361Y-71297898D01*
X50680357Y-71297900D01*
X50501121Y-71423402D01*
X50346402Y-71578121D01*
X50220900Y-71757357D01*
X50220898Y-71757361D01*
X50150382Y-71908583D01*
X50104209Y-71961022D01*
X50037016Y-71980174D01*
X49970135Y-71959958D01*
X49925618Y-71908583D01*
X49890031Y-71832268D01*
X49855102Y-71757362D01*
X49855100Y-71757359D01*
X49855099Y-71757357D01*
X49729599Y-71578124D01*
X49662915Y-71511440D01*
X49574877Y-71423402D01*
X49436978Y-71326844D01*
X49395638Y-71297897D01*
X49280760Y-71244329D01*
X49197330Y-71205425D01*
X49197326Y-71205424D01*
X49197322Y-71205422D01*
X48985977Y-71148793D01*
X48768002Y-71129723D01*
X48767998Y-71129723D01*
X48622682Y-71142436D01*
X48550023Y-71148793D01*
X48550020Y-71148793D01*
X48338677Y-71205422D01*
X48338668Y-71205426D01*
X48140361Y-71297898D01*
X48140357Y-71297900D01*
X47961121Y-71423402D01*
X47806402Y-71578121D01*
X47680900Y-71757357D01*
X47680898Y-71757361D01*
X47610382Y-71908583D01*
X47564209Y-71961022D01*
X47497016Y-71980174D01*
X47430135Y-71959958D01*
X47385618Y-71908583D01*
X47350031Y-71832268D01*
X47315102Y-71757362D01*
X47315100Y-71757359D01*
X47315099Y-71757357D01*
X47189599Y-71578124D01*
X47122915Y-71511440D01*
X47034877Y-71423402D01*
X46896978Y-71326844D01*
X46855638Y-71297897D01*
X46740760Y-71244329D01*
X46657330Y-71205425D01*
X46657326Y-71205424D01*
X46657322Y-71205422D01*
X46445977Y-71148793D01*
X46228002Y-71129723D01*
X46227998Y-71129723D01*
X46082682Y-71142436D01*
X46010023Y-71148793D01*
X46010020Y-71148793D01*
X45798677Y-71205422D01*
X45798668Y-71205426D01*
X45600361Y-71297898D01*
X45600357Y-71297900D01*
X45421121Y-71423402D01*
X45266402Y-71578121D01*
X45140900Y-71757357D01*
X45140898Y-71757361D01*
X45070382Y-71908583D01*
X45024209Y-71961022D01*
X44957016Y-71980174D01*
X44890135Y-71959958D01*
X44845618Y-71908583D01*
X44810031Y-71832268D01*
X44775102Y-71757362D01*
X44775100Y-71757359D01*
X44775099Y-71757357D01*
X44649599Y-71578124D01*
X44582915Y-71511440D01*
X44494877Y-71423402D01*
X44356978Y-71326844D01*
X44315638Y-71297897D01*
X44200760Y-71244329D01*
X44117330Y-71205425D01*
X44117326Y-71205424D01*
X44117322Y-71205422D01*
X43905977Y-71148793D01*
X43688002Y-71129723D01*
X43687998Y-71129723D01*
X43542682Y-71142436D01*
X43470023Y-71148793D01*
X43470020Y-71148793D01*
X43258677Y-71205422D01*
X43258668Y-71205426D01*
X43060361Y-71297898D01*
X43060357Y-71297900D01*
X42881121Y-71423402D01*
X42726402Y-71578121D01*
X42600900Y-71757357D01*
X42600898Y-71757361D01*
X42529382Y-71910728D01*
X42483209Y-71963167D01*
X42416016Y-71982319D01*
X42349135Y-71962103D01*
X42304618Y-71910728D01*
X42297154Y-71894722D01*
X42233102Y-71757362D01*
X42233100Y-71757359D01*
X42233099Y-71757357D01*
X42107599Y-71578124D01*
X42040915Y-71511440D01*
X41952877Y-71423402D01*
X41814978Y-71326844D01*
X41773638Y-71297897D01*
X41658760Y-71244329D01*
X41575330Y-71205425D01*
X41575326Y-71205424D01*
X41575322Y-71205422D01*
X41363977Y-71148793D01*
X41146002Y-71129723D01*
X41145998Y-71129723D01*
X41000682Y-71142436D01*
X40928023Y-71148793D01*
X40928020Y-71148793D01*
X40716677Y-71205422D01*
X40716670Y-71205424D01*
X40716670Y-71205425D01*
X40700083Y-71213160D01*
X40679905Y-71222569D01*
X40610827Y-71233061D01*
X40547043Y-71204541D01*
X40508804Y-71146065D01*
X40503500Y-71110187D01*
X40503500Y-69424742D01*
X40505224Y-69409122D01*
X40504939Y-69409095D01*
X40505673Y-69401333D01*
X40503500Y-69332172D01*
X40503500Y-69302656D01*
X40503500Y-69302650D01*
X40502631Y-69295779D01*
X40502173Y-69289952D01*
X40501743Y-69276256D01*
X40500710Y-69243373D01*
X40495119Y-69224130D01*
X40491173Y-69205078D01*
X40488664Y-69185208D01*
X40471504Y-69141867D01*
X40469624Y-69136379D01*
X40456618Y-69091610D01*
X40454482Y-69087999D01*
X40446423Y-69074371D01*
X40437861Y-69056894D01*
X40430487Y-69038270D01*
X40430486Y-69038268D01*
X40403079Y-69000545D01*
X40399888Y-68995686D01*
X40376172Y-68955583D01*
X40376165Y-68955574D01*
X40362006Y-68941415D01*
X40349368Y-68926619D01*
X40337594Y-68910413D01*
X40327870Y-68902369D01*
X40301688Y-68880709D01*
X40297376Y-68876786D01*
X38424237Y-67003646D01*
X38390752Y-66942323D01*
X38392142Y-66883876D01*
X38419063Y-66783408D01*
X38439659Y-66548000D01*
X38419063Y-66312592D01*
X38357903Y-66084337D01*
X38258035Y-65870171D01*
X38232163Y-65833221D01*
X38122494Y-65676597D01*
X37955402Y-65509506D01*
X37955395Y-65509501D01*
X37761834Y-65373967D01*
X37761830Y-65373965D01*
X37621798Y-65308667D01*
X37547663Y-65274097D01*
X37547659Y-65274096D01*
X37547655Y-65274094D01*
X37319413Y-65212938D01*
X37319403Y-65212936D01*
X37084001Y-65192341D01*
X37083999Y-65192341D01*
X36848596Y-65212936D01*
X36848586Y-65212938D01*
X36620344Y-65274094D01*
X36620335Y-65274098D01*
X36406171Y-65373964D01*
X36406169Y-65373965D01*
X36212597Y-65509505D01*
X36045505Y-65676597D01*
X35909965Y-65870169D01*
X35909964Y-65870171D01*
X35810098Y-66084335D01*
X35810094Y-66084344D01*
X35762275Y-66262813D01*
X35725910Y-66322474D01*
X35663063Y-66353003D01*
X35593688Y-66344708D01*
X35539810Y-66300223D01*
X35518535Y-66233671D01*
X35518500Y-66230720D01*
X35518500Y-58816503D01*
X35538185Y-58749464D01*
X35590989Y-58703709D01*
X35660147Y-58693765D01*
X35674593Y-58696728D01*
X35692142Y-58701430D01*
X35832592Y-58739063D01*
X36003319Y-58754000D01*
X36067999Y-58759659D01*
X36068000Y-58759659D01*
X36068001Y-58759659D01*
X36132681Y-58754000D01*
X36303408Y-58739063D01*
X36531663Y-58677903D01*
X36745830Y-58578035D01*
X36939401Y-58442495D01*
X37106495Y-58275401D01*
X37236425Y-58089842D01*
X37291002Y-58046217D01*
X37360500Y-58039023D01*
X37422855Y-58070546D01*
X37439575Y-58089842D01*
X37541314Y-58235141D01*
X37569505Y-58275401D01*
X37736599Y-58442495D01*
X37810159Y-58494002D01*
X37930165Y-58578032D01*
X37930167Y-58578033D01*
X37930170Y-58578035D01*
X38144337Y-58677903D01*
X38144343Y-58677904D01*
X38144344Y-58677905D01*
X38174380Y-58685953D01*
X38372592Y-58739063D01*
X38543319Y-58754000D01*
X38607999Y-58759659D01*
X38608000Y-58759659D01*
X38608001Y-58759659D01*
X38672681Y-58754000D01*
X38843408Y-58739063D01*
X39071663Y-58677903D01*
X39285830Y-58578035D01*
X39479401Y-58442495D01*
X39646495Y-58275401D01*
X39776425Y-58089842D01*
X39831002Y-58046217D01*
X39900500Y-58039023D01*
X39962855Y-58070546D01*
X39979575Y-58089842D01*
X40081314Y-58235141D01*
X40109505Y-58275401D01*
X40276599Y-58442495D01*
X40350159Y-58494002D01*
X40470165Y-58578032D01*
X40470167Y-58578033D01*
X40470170Y-58578035D01*
X40684337Y-58677903D01*
X40684343Y-58677904D01*
X40684344Y-58677905D01*
X40714380Y-58685953D01*
X40912592Y-58739063D01*
X41083319Y-58754000D01*
X41147999Y-58759659D01*
X41148000Y-58759659D01*
X41148001Y-58759659D01*
X41212681Y-58754000D01*
X41383408Y-58739063D01*
X41611663Y-58677903D01*
X41825830Y-58578035D01*
X42019401Y-58442495D01*
X42186495Y-58275401D01*
X42316425Y-58089842D01*
X42371002Y-58046217D01*
X42440500Y-58039023D01*
X42502855Y-58070546D01*
X42519575Y-58089842D01*
X42621314Y-58235141D01*
X42649505Y-58275401D01*
X42816599Y-58442495D01*
X42890159Y-58494002D01*
X43010165Y-58578032D01*
X43010167Y-58578033D01*
X43010170Y-58578035D01*
X43224337Y-58677903D01*
X43224343Y-58677904D01*
X43224344Y-58677905D01*
X43254380Y-58685953D01*
X43452592Y-58739063D01*
X43623319Y-58754000D01*
X43687999Y-58759659D01*
X43688000Y-58759659D01*
X43688001Y-58759659D01*
X43752681Y-58754000D01*
X43923408Y-58739063D01*
X44151663Y-58677903D01*
X44365830Y-58578035D01*
X44559401Y-58442495D01*
X44726495Y-58275401D01*
X44856425Y-58089842D01*
X44911002Y-58046217D01*
X44980500Y-58039023D01*
X45042855Y-58070546D01*
X45059575Y-58089842D01*
X45161314Y-58235141D01*
X45189505Y-58275401D01*
X45356599Y-58442495D01*
X45430159Y-58494002D01*
X45550165Y-58578032D01*
X45550167Y-58578033D01*
X45550170Y-58578035D01*
X45764337Y-58677903D01*
X45764343Y-58677904D01*
X45764344Y-58677905D01*
X45794380Y-58685953D01*
X45992592Y-58739063D01*
X46163319Y-58754000D01*
X46227999Y-58759659D01*
X46228000Y-58759659D01*
X46228001Y-58759659D01*
X46292681Y-58754000D01*
X46463408Y-58739063D01*
X46691663Y-58677903D01*
X46905830Y-58578035D01*
X47099401Y-58442495D01*
X47221717Y-58320178D01*
X47283036Y-58286696D01*
X47352728Y-58291680D01*
X47408662Y-58333551D01*
X47425577Y-58364529D01*
X47433275Y-58385168D01*
X47433276Y-58385169D01*
X48276866Y-57541579D01*
X48299318Y-57618040D01*
G37*
%TD.AperFunction*%
%TA.AperFunction,Conductor*%
G36*
X65362855Y-58070546D02*
G01*
X65379575Y-58089842D01*
X65481314Y-58235141D01*
X65509505Y-58275401D01*
X65676599Y-58442495D01*
X65750159Y-58494002D01*
X65870165Y-58578032D01*
X65870167Y-58578033D01*
X65870170Y-58578035D01*
X66084337Y-58677903D01*
X66084343Y-58677904D01*
X66084344Y-58677905D01*
X66114380Y-58685953D01*
X66312592Y-58739063D01*
X66483319Y-58754000D01*
X66547999Y-58759659D01*
X66548000Y-58759659D01*
X66548001Y-58759659D01*
X66612681Y-58754000D01*
X66783408Y-58739063D01*
X67011663Y-58677903D01*
X67013802Y-58676905D01*
X67016094Y-58675837D01*
X67085171Y-58665344D01*
X67148955Y-58693863D01*
X67187196Y-58752339D01*
X67192500Y-58788218D01*
X67192500Y-63390500D01*
X67172815Y-63457539D01*
X67120011Y-63503294D01*
X67068500Y-63514500D01*
X65750129Y-63514500D01*
X65750123Y-63514501D01*
X65690516Y-63520908D01*
X65555671Y-63571202D01*
X65555664Y-63571206D01*
X65440455Y-63657452D01*
X65440452Y-63657455D01*
X65377266Y-63741861D01*
X65321332Y-63783732D01*
X65251641Y-63788716D01*
X65190318Y-63755230D01*
X65178734Y-63741861D01*
X65115547Y-63657455D01*
X65115544Y-63657452D01*
X65000335Y-63571206D01*
X65000328Y-63571202D01*
X64865482Y-63520908D01*
X64865483Y-63520908D01*
X64805883Y-63514501D01*
X64805881Y-63514500D01*
X64805873Y-63514500D01*
X64805864Y-63514500D01*
X63210129Y-63514500D01*
X63210123Y-63514501D01*
X63150516Y-63520908D01*
X63015671Y-63571202D01*
X63015664Y-63571206D01*
X62900455Y-63657452D01*
X62900452Y-63657455D01*
X62837266Y-63741861D01*
X62781332Y-63783732D01*
X62711641Y-63788716D01*
X62650318Y-63755230D01*
X62638734Y-63741861D01*
X62575547Y-63657455D01*
X62575544Y-63657452D01*
X62460335Y-63571206D01*
X62460328Y-63571202D01*
X62325482Y-63520908D01*
X62325483Y-63520908D01*
X62265883Y-63514501D01*
X62265881Y-63514500D01*
X62265873Y-63514500D01*
X62265864Y-63514500D01*
X60670129Y-63514500D01*
X60670123Y-63514501D01*
X60610516Y-63520908D01*
X60475671Y-63571202D01*
X60475664Y-63571206D01*
X60360455Y-63657452D01*
X60360452Y-63657455D01*
X60297266Y-63741861D01*
X60241332Y-63783732D01*
X60171641Y-63788716D01*
X60110318Y-63755230D01*
X60098734Y-63741861D01*
X60035547Y-63657455D01*
X60035544Y-63657452D01*
X59920335Y-63571206D01*
X59920328Y-63571202D01*
X59785482Y-63520908D01*
X59785483Y-63520908D01*
X59725883Y-63514501D01*
X59725881Y-63514500D01*
X59725873Y-63514500D01*
X59725864Y-63514500D01*
X58130129Y-63514500D01*
X58130123Y-63514501D01*
X58070516Y-63520908D01*
X57935671Y-63571202D01*
X57935664Y-63571206D01*
X57820455Y-63657452D01*
X57820452Y-63657455D01*
X57757266Y-63741861D01*
X57701332Y-63783732D01*
X57631641Y-63788716D01*
X57570318Y-63755230D01*
X57558734Y-63741861D01*
X57495547Y-63657455D01*
X57495544Y-63657452D01*
X57380335Y-63571206D01*
X57380328Y-63571202D01*
X57245482Y-63520908D01*
X57245483Y-63520908D01*
X57185883Y-63514501D01*
X57185881Y-63514500D01*
X57185873Y-63514500D01*
X57185864Y-63514500D01*
X55590129Y-63514500D01*
X55590123Y-63514501D01*
X55530516Y-63520908D01*
X55395671Y-63571202D01*
X55395664Y-63571206D01*
X55280455Y-63657452D01*
X55280452Y-63657455D01*
X55217266Y-63741861D01*
X55161332Y-63783732D01*
X55091641Y-63788716D01*
X55030318Y-63755230D01*
X55018734Y-63741861D01*
X54955547Y-63657455D01*
X54955544Y-63657452D01*
X54840335Y-63571206D01*
X54840328Y-63571202D01*
X54705482Y-63520908D01*
X54705483Y-63520908D01*
X54645883Y-63514501D01*
X54645881Y-63514500D01*
X54645873Y-63514500D01*
X54645864Y-63514500D01*
X53050129Y-63514500D01*
X53050123Y-63514501D01*
X52990516Y-63520908D01*
X52855671Y-63571202D01*
X52855664Y-63571206D01*
X52740455Y-63657452D01*
X52740452Y-63657455D01*
X52677266Y-63741861D01*
X52621332Y-63783732D01*
X52551641Y-63788716D01*
X52490318Y-63755230D01*
X52478734Y-63741861D01*
X52415547Y-63657455D01*
X52415544Y-63657452D01*
X52300335Y-63571206D01*
X52300328Y-63571202D01*
X52165482Y-63520908D01*
X52165483Y-63520908D01*
X52105883Y-63514501D01*
X52105881Y-63514500D01*
X52105873Y-63514500D01*
X52105865Y-63514500D01*
X52057500Y-63514500D01*
X51990461Y-63494815D01*
X51944706Y-63442011D01*
X51933500Y-63390500D01*
X51933500Y-58679226D01*
X51953185Y-58612187D01*
X51986374Y-58577654D01*
X52179401Y-58442495D01*
X52346495Y-58275401D01*
X52476425Y-58089842D01*
X52531002Y-58046217D01*
X52600500Y-58039023D01*
X52662855Y-58070546D01*
X52679575Y-58089842D01*
X52781314Y-58235141D01*
X52809505Y-58275401D01*
X52976599Y-58442495D01*
X53050159Y-58494002D01*
X53170165Y-58578032D01*
X53170167Y-58578033D01*
X53170170Y-58578035D01*
X53384337Y-58677903D01*
X53384343Y-58677904D01*
X53384344Y-58677905D01*
X53414380Y-58685953D01*
X53612592Y-58739063D01*
X53783319Y-58754000D01*
X53847999Y-58759659D01*
X53848000Y-58759659D01*
X53848001Y-58759659D01*
X53912681Y-58754000D01*
X54083408Y-58739063D01*
X54311663Y-58677903D01*
X54525830Y-58578035D01*
X54719401Y-58442495D01*
X54886495Y-58275401D01*
X55016425Y-58089842D01*
X55071002Y-58046217D01*
X55140500Y-58039023D01*
X55202855Y-58070546D01*
X55219575Y-58089842D01*
X55321314Y-58235141D01*
X55349505Y-58275401D01*
X55516599Y-58442495D01*
X55590159Y-58494002D01*
X55710165Y-58578032D01*
X55710167Y-58578033D01*
X55710170Y-58578035D01*
X55924337Y-58677903D01*
X55924343Y-58677904D01*
X55924344Y-58677905D01*
X55954380Y-58685953D01*
X56152592Y-58739063D01*
X56323319Y-58754000D01*
X56387999Y-58759659D01*
X56388000Y-58759659D01*
X56388001Y-58759659D01*
X56452681Y-58754000D01*
X56623408Y-58739063D01*
X56851663Y-58677903D01*
X57065830Y-58578035D01*
X57259401Y-58442495D01*
X57426495Y-58275401D01*
X57556425Y-58089842D01*
X57611002Y-58046217D01*
X57680500Y-58039023D01*
X57742855Y-58070546D01*
X57759575Y-58089842D01*
X57861314Y-58235141D01*
X57889505Y-58275401D01*
X58056599Y-58442495D01*
X58130159Y-58494002D01*
X58250165Y-58578032D01*
X58250167Y-58578033D01*
X58250170Y-58578035D01*
X58464337Y-58677903D01*
X58464343Y-58677904D01*
X58464344Y-58677905D01*
X58494380Y-58685953D01*
X58692592Y-58739063D01*
X58863319Y-58754000D01*
X58927999Y-58759659D01*
X58928000Y-58759659D01*
X58928001Y-58759659D01*
X58992681Y-58754000D01*
X59163408Y-58739063D01*
X59391663Y-58677903D01*
X59605830Y-58578035D01*
X59799401Y-58442495D01*
X59966495Y-58275401D01*
X60096425Y-58089842D01*
X60151002Y-58046217D01*
X60220500Y-58039023D01*
X60282855Y-58070546D01*
X60299575Y-58089842D01*
X60401314Y-58235141D01*
X60429505Y-58275401D01*
X60596599Y-58442495D01*
X60670159Y-58494002D01*
X60790165Y-58578032D01*
X60790167Y-58578033D01*
X60790170Y-58578035D01*
X61004337Y-58677903D01*
X61004343Y-58677904D01*
X61004344Y-58677905D01*
X61034380Y-58685953D01*
X61232592Y-58739063D01*
X61403319Y-58754000D01*
X61467999Y-58759659D01*
X61468000Y-58759659D01*
X61468001Y-58759659D01*
X61532681Y-58754000D01*
X61703408Y-58739063D01*
X61931663Y-58677903D01*
X62145830Y-58578035D01*
X62339401Y-58442495D01*
X62506495Y-58275401D01*
X62636425Y-58089842D01*
X62691002Y-58046217D01*
X62760500Y-58039023D01*
X62822855Y-58070546D01*
X62839575Y-58089842D01*
X62941314Y-58235141D01*
X62969505Y-58275401D01*
X63136599Y-58442495D01*
X63210159Y-58494002D01*
X63330165Y-58578032D01*
X63330167Y-58578033D01*
X63330170Y-58578035D01*
X63544337Y-58677903D01*
X63544343Y-58677904D01*
X63544344Y-58677905D01*
X63574380Y-58685953D01*
X63772592Y-58739063D01*
X63943319Y-58754000D01*
X64007999Y-58759659D01*
X64008000Y-58759659D01*
X64008001Y-58759659D01*
X64072681Y-58754000D01*
X64243408Y-58739063D01*
X64471663Y-58677903D01*
X64685830Y-58578035D01*
X64879401Y-58442495D01*
X65046495Y-58275401D01*
X65176425Y-58089842D01*
X65231002Y-58046217D01*
X65300500Y-58039023D01*
X65362855Y-58070546D01*
G37*
%TD.AperFunction*%
%TA.AperFunction,Conductor*%
G36*
X63539318Y-39838040D02*
G01*
X63618605Y-39961413D01*
X63729438Y-40057451D01*
X63862839Y-40118373D01*
X63866634Y-40118918D01*
X63026829Y-40958722D01*
X63026829Y-40958723D01*
X63050624Y-40967598D01*
X63110155Y-40973999D01*
X63110172Y-40974000D01*
X64905828Y-40974000D01*
X64905844Y-40973999D01*
X64965372Y-40967598D01*
X64965378Y-40967597D01*
X64989168Y-40958723D01*
X64989168Y-40958722D01*
X64149366Y-40118918D01*
X64153161Y-40118373D01*
X64286562Y-40057451D01*
X64397395Y-39961413D01*
X64476682Y-39838040D01*
X64499133Y-39761580D01*
X65342722Y-40605168D01*
X65342723Y-40605168D01*
X65350423Y-40584526D01*
X65392296Y-40528593D01*
X65457761Y-40504178D01*
X65526033Y-40519031D01*
X65554285Y-40540181D01*
X65676599Y-40662495D01*
X65773384Y-40730265D01*
X65870165Y-40798032D01*
X65870167Y-40798033D01*
X65870170Y-40798035D01*
X66084337Y-40897903D01*
X66312592Y-40959063D01*
X66483319Y-40974000D01*
X66547999Y-40979659D01*
X66548000Y-40979659D01*
X66548001Y-40979659D01*
X66612681Y-40974000D01*
X66783408Y-40959063D01*
X66883873Y-40932143D01*
X66953722Y-40933806D01*
X67003647Y-40964237D01*
X67156181Y-41116771D01*
X67189666Y-41178094D01*
X67192500Y-41204452D01*
X67192500Y-56019781D01*
X67172815Y-56086820D01*
X67120011Y-56132575D01*
X67050853Y-56142519D01*
X67016104Y-56132167D01*
X67011671Y-56130100D01*
X67011655Y-56130094D01*
X66783413Y-56068938D01*
X66783403Y-56068936D01*
X66548001Y-56048341D01*
X66547999Y-56048341D01*
X66312596Y-56068936D01*
X66312586Y-56068938D01*
X66084344Y-56130094D01*
X66084335Y-56130098D01*
X65870171Y-56229964D01*
X65870169Y-56229965D01*
X65676597Y-56365505D01*
X65509505Y-56532597D01*
X65379575Y-56718158D01*
X65324998Y-56761783D01*
X65255500Y-56768977D01*
X65193145Y-56737454D01*
X65176425Y-56718158D01*
X65046494Y-56532597D01*
X64879402Y-56365506D01*
X64879395Y-56365501D01*
X64685834Y-56229967D01*
X64685830Y-56229965D01*
X64635449Y-56206472D01*
X64471663Y-56130097D01*
X64471659Y-56130096D01*
X64471655Y-56130094D01*
X64243413Y-56068938D01*
X64243403Y-56068936D01*
X64008001Y-56048341D01*
X64007999Y-56048341D01*
X63772596Y-56068936D01*
X63772586Y-56068938D01*
X63544344Y-56130094D01*
X63544335Y-56130098D01*
X63330171Y-56229964D01*
X63330169Y-56229965D01*
X63136597Y-56365505D01*
X62969505Y-56532597D01*
X62839575Y-56718158D01*
X62784998Y-56761783D01*
X62715500Y-56768977D01*
X62653145Y-56737454D01*
X62636425Y-56718158D01*
X62506494Y-56532597D01*
X62339402Y-56365506D01*
X62339395Y-56365501D01*
X62145834Y-56229967D01*
X62145830Y-56229965D01*
X62095449Y-56206472D01*
X61931663Y-56130097D01*
X61931659Y-56130096D01*
X61931655Y-56130094D01*
X61703413Y-56068938D01*
X61703403Y-56068936D01*
X61468001Y-56048341D01*
X61467999Y-56048341D01*
X61232596Y-56068936D01*
X61232586Y-56068938D01*
X61004344Y-56130094D01*
X61004335Y-56130098D01*
X60790171Y-56229964D01*
X60790169Y-56229965D01*
X60596597Y-56365505D01*
X60429505Y-56532597D01*
X60299575Y-56718158D01*
X60244998Y-56761783D01*
X60175500Y-56768977D01*
X60113145Y-56737454D01*
X60096425Y-56718158D01*
X59966494Y-56532597D01*
X59799402Y-56365506D01*
X59799401Y-56365505D01*
X59606376Y-56230347D01*
X59562751Y-56175770D01*
X59553500Y-56128772D01*
X59553500Y-53657687D01*
X59573185Y-53590648D01*
X59585350Y-53574715D01*
X59611570Y-53545594D01*
X59660533Y-53491216D01*
X59755179Y-53327284D01*
X59813674Y-53147256D01*
X59833460Y-52959000D01*
X59813674Y-52770744D01*
X59755179Y-52590716D01*
X59660533Y-52426784D01*
X59533871Y-52286112D01*
X59517631Y-52274313D01*
X59380734Y-52174851D01*
X59380729Y-52174848D01*
X59207807Y-52097857D01*
X59207802Y-52097855D01*
X59062001Y-52066865D01*
X59022646Y-52058500D01*
X58833354Y-52058500D01*
X58800897Y-52065398D01*
X58648197Y-52097855D01*
X58648192Y-52097857D01*
X58475270Y-52174848D01*
X58475265Y-52174851D01*
X58322129Y-52286111D01*
X58195466Y-52426785D01*
X58100821Y-52590715D01*
X58100818Y-52590722D01*
X58046220Y-52758760D01*
X58042326Y-52770744D01*
X58022540Y-52959000D01*
X58042326Y-53147256D01*
X58042327Y-53147259D01*
X58100818Y-53327277D01*
X58100821Y-53327284D01*
X58195467Y-53491216D01*
X58235834Y-53536048D01*
X58270650Y-53574715D01*
X58300880Y-53637706D01*
X58302500Y-53657687D01*
X58302500Y-56128773D01*
X58282815Y-56195812D01*
X58249623Y-56230348D01*
X58056597Y-56365505D01*
X57889505Y-56532597D01*
X57759575Y-56718158D01*
X57704998Y-56761783D01*
X57635500Y-56768977D01*
X57573145Y-56737454D01*
X57556425Y-56718158D01*
X57426494Y-56532597D01*
X57259402Y-56365506D01*
X57259401Y-56365505D01*
X57066376Y-56230347D01*
X57022751Y-56175770D01*
X57013500Y-56128772D01*
X57013500Y-51371687D01*
X57033185Y-51304648D01*
X57045350Y-51288715D01*
X57083767Y-51246048D01*
X57120533Y-51205216D01*
X57215179Y-51041284D01*
X57273674Y-50861256D01*
X57293460Y-50673000D01*
X57273674Y-50484744D01*
X57215179Y-50304716D01*
X57120533Y-50140784D01*
X56993871Y-50000112D01*
X56946284Y-49965538D01*
X56840734Y-49888851D01*
X56840729Y-49888848D01*
X56667807Y-49811857D01*
X56667802Y-49811855D01*
X56522001Y-49780865D01*
X56482646Y-49772500D01*
X56293354Y-49772500D01*
X56260897Y-49779398D01*
X56108197Y-49811855D01*
X56108192Y-49811857D01*
X55935270Y-49888848D01*
X55935265Y-49888851D01*
X55782129Y-50000111D01*
X55655466Y-50140785D01*
X55560821Y-50304715D01*
X55560818Y-50304722D01*
X55502327Y-50484740D01*
X55502326Y-50484744D01*
X55482540Y-50673000D01*
X55502326Y-50861256D01*
X55502327Y-50861259D01*
X55560818Y-51041277D01*
X55560821Y-51041284D01*
X55655467Y-51205216D01*
X55687274Y-51240541D01*
X55730650Y-51288715D01*
X55760880Y-51351706D01*
X55762500Y-51371687D01*
X55762500Y-56128773D01*
X55742815Y-56195812D01*
X55709623Y-56230348D01*
X55516597Y-56365505D01*
X55349505Y-56532597D01*
X55219575Y-56718158D01*
X55164998Y-56761783D01*
X55095500Y-56768977D01*
X55033145Y-56737454D01*
X55016425Y-56718158D01*
X54886494Y-56532597D01*
X54719402Y-56365506D01*
X54719401Y-56365505D01*
X54526376Y-56230347D01*
X54482751Y-56175770D01*
X54473500Y-56128772D01*
X54473500Y-48958682D01*
X54493185Y-48891643D01*
X54505343Y-48875716D01*
X54580529Y-48792216D01*
X54675175Y-48628284D01*
X54733670Y-48448256D01*
X54753456Y-48260000D01*
X54733670Y-48071744D01*
X54675175Y-47891716D01*
X54580529Y-47727784D01*
X54453867Y-47587112D01*
X54453866Y-47587111D01*
X54300730Y-47475851D01*
X54300725Y-47475848D01*
X54127803Y-47398857D01*
X54127798Y-47398855D01*
X53981997Y-47367865D01*
X53942642Y-47359500D01*
X53753350Y-47359500D01*
X53720893Y-47366398D01*
X53568193Y-47398855D01*
X53568188Y-47398857D01*
X53395266Y-47475848D01*
X53395261Y-47475851D01*
X53242125Y-47587111D01*
X53115462Y-47727785D01*
X53020817Y-47891715D01*
X53020814Y-47891722D01*
X52962323Y-48071740D01*
X52962322Y-48071744D01*
X52942536Y-48260000D01*
X52962322Y-48448256D01*
X52962323Y-48448259D01*
X53020814Y-48628277D01*
X53020817Y-48628284D01*
X53115463Y-48792216D01*
X53190641Y-48875709D01*
X53190650Y-48875719D01*
X53220880Y-48938710D01*
X53222500Y-48958691D01*
X53222500Y-56128773D01*
X53202815Y-56195812D01*
X53169623Y-56230348D01*
X52976597Y-56365505D01*
X52809505Y-56532597D01*
X52679575Y-56718158D01*
X52624998Y-56761783D01*
X52555500Y-56768977D01*
X52493145Y-56737454D01*
X52476425Y-56718158D01*
X52346494Y-56532597D01*
X52179402Y-56365506D01*
X52179395Y-56365501D01*
X51985834Y-56229967D01*
X51985830Y-56229965D01*
X51935449Y-56206472D01*
X51771663Y-56130097D01*
X51771659Y-56130096D01*
X51771655Y-56130094D01*
X51543413Y-56068938D01*
X51543403Y-56068936D01*
X51308001Y-56048341D01*
X51307999Y-56048341D01*
X51072596Y-56068936D01*
X51072586Y-56068938D01*
X50844344Y-56130094D01*
X50844335Y-56130098D01*
X50630171Y-56229964D01*
X50630169Y-56229965D01*
X50436600Y-56365503D01*
X50314284Y-56487819D01*
X50252961Y-56521303D01*
X50183269Y-56516319D01*
X50127336Y-56474447D01*
X50110421Y-56443471D01*
X50102721Y-56422829D01*
X49259132Y-57266418D01*
X49236682Y-57189960D01*
X49157395Y-57066587D01*
X49046562Y-56970549D01*
X48913161Y-56909627D01*
X48909365Y-56909081D01*
X49749169Y-56069276D01*
X49749168Y-56069275D01*
X49725382Y-56060403D01*
X49725372Y-56060401D01*
X49665844Y-56054000D01*
X47870155Y-56054000D01*
X47810626Y-56060401D01*
X47786829Y-56069276D01*
X48626635Y-56909081D01*
X48622839Y-56909627D01*
X48489438Y-56970549D01*
X48378605Y-57066587D01*
X48299318Y-57189960D01*
X48276866Y-57266419D01*
X47433276Y-56422829D01*
X47433276Y-56422830D01*
X47425579Y-56443468D01*
X47383708Y-56499403D01*
X47318244Y-56523821D01*
X47249971Y-56508970D01*
X47221715Y-56487819D01*
X47162407Y-56428511D01*
X47099401Y-56365505D01*
X47099397Y-56365502D01*
X47099396Y-56365501D01*
X46905834Y-56229967D01*
X46905830Y-56229965D01*
X46855449Y-56206472D01*
X46691663Y-56130097D01*
X46691659Y-56130096D01*
X46691655Y-56130094D01*
X46463413Y-56068938D01*
X46463403Y-56068936D01*
X46228001Y-56048341D01*
X46227999Y-56048341D01*
X45992596Y-56068936D01*
X45992586Y-56068938D01*
X45764344Y-56130094D01*
X45764335Y-56130098D01*
X45550171Y-56229964D01*
X45550169Y-56229965D01*
X45356597Y-56365505D01*
X45189505Y-56532597D01*
X45059575Y-56718158D01*
X45004998Y-56761783D01*
X44935500Y-56768977D01*
X44873145Y-56737454D01*
X44856425Y-56718158D01*
X44726494Y-56532597D01*
X44559402Y-56365506D01*
X44559395Y-56365501D01*
X44365834Y-56229967D01*
X44365830Y-56229965D01*
X44315449Y-56206472D01*
X44151663Y-56130097D01*
X44151659Y-56130096D01*
X44151655Y-56130094D01*
X43923413Y-56068938D01*
X43923403Y-56068936D01*
X43688001Y-56048341D01*
X43687999Y-56048341D01*
X43452596Y-56068936D01*
X43452586Y-56068938D01*
X43224344Y-56130094D01*
X43224335Y-56130098D01*
X43010171Y-56229964D01*
X43010169Y-56229965D01*
X42816597Y-56365505D01*
X42649505Y-56532597D01*
X42519575Y-56718158D01*
X42464998Y-56761783D01*
X42395500Y-56768977D01*
X42333145Y-56737454D01*
X42316425Y-56718158D01*
X42186494Y-56532597D01*
X42019402Y-56365506D01*
X42019395Y-56365501D01*
X41825834Y-56229967D01*
X41825830Y-56229965D01*
X41775449Y-56206472D01*
X41611663Y-56130097D01*
X41611659Y-56130096D01*
X41611655Y-56130094D01*
X41383413Y-56068938D01*
X41383403Y-56068936D01*
X41148001Y-56048341D01*
X41147999Y-56048341D01*
X40912596Y-56068936D01*
X40912586Y-56068938D01*
X40684344Y-56130094D01*
X40684335Y-56130098D01*
X40470171Y-56229964D01*
X40470169Y-56229965D01*
X40276597Y-56365505D01*
X40109505Y-56532597D01*
X39979575Y-56718158D01*
X39924998Y-56761783D01*
X39855500Y-56768977D01*
X39793145Y-56737454D01*
X39776425Y-56718158D01*
X39646494Y-56532597D01*
X39479402Y-56365506D01*
X39479395Y-56365501D01*
X39285834Y-56229967D01*
X39285830Y-56229965D01*
X39235449Y-56206472D01*
X39071663Y-56130097D01*
X39071659Y-56130096D01*
X39071655Y-56130094D01*
X38843413Y-56068938D01*
X38843403Y-56068936D01*
X38608001Y-56048341D01*
X38607999Y-56048341D01*
X38372596Y-56068936D01*
X38372586Y-56068938D01*
X38144344Y-56130094D01*
X38144335Y-56130098D01*
X37930171Y-56229964D01*
X37930169Y-56229965D01*
X37736597Y-56365505D01*
X37569505Y-56532597D01*
X37439575Y-56718158D01*
X37384998Y-56761783D01*
X37315500Y-56768977D01*
X37253145Y-56737454D01*
X37236425Y-56718158D01*
X37106494Y-56532597D01*
X36939402Y-56365506D01*
X36939395Y-56365501D01*
X36745834Y-56229967D01*
X36745830Y-56229965D01*
X36695449Y-56206472D01*
X36531663Y-56130097D01*
X36531659Y-56130096D01*
X36531655Y-56130094D01*
X36303413Y-56068938D01*
X36303403Y-56068936D01*
X36068001Y-56048341D01*
X36067999Y-56048341D01*
X35832596Y-56068936D01*
X35832583Y-56068939D01*
X35674592Y-56111271D01*
X35604742Y-56109608D01*
X35546880Y-56070445D01*
X35519377Y-56006216D01*
X35518500Y-55991496D01*
X35518500Y-43141452D01*
X35538185Y-43074413D01*
X35554819Y-43053771D01*
X36925771Y-41682819D01*
X36987094Y-41649334D01*
X37013452Y-41646500D01*
X54908257Y-41646500D01*
X54923877Y-41648224D01*
X54923904Y-41647939D01*
X54931660Y-41648671D01*
X54931667Y-41648673D01*
X55000814Y-41646500D01*
X55030350Y-41646500D01*
X55037228Y-41645630D01*
X55043041Y-41645172D01*
X55089627Y-41643709D01*
X55108869Y-41638117D01*
X55127912Y-41634174D01*
X55147792Y-41631664D01*
X55191122Y-41614507D01*
X55196646Y-41612617D01*
X55200396Y-41611527D01*
X55241390Y-41599618D01*
X55258629Y-41589422D01*
X55276103Y-41580862D01*
X55294727Y-41573488D01*
X55294727Y-41573487D01*
X55294732Y-41573486D01*
X55332449Y-41546082D01*
X55337305Y-41542892D01*
X55377420Y-41519170D01*
X55391589Y-41504999D01*
X55406379Y-41492368D01*
X55422587Y-41480594D01*
X55452299Y-41444676D01*
X55456212Y-41440376D01*
X55932353Y-40964235D01*
X55993674Y-40930752D01*
X56052125Y-40932143D01*
X56058332Y-40933806D01*
X56152592Y-40959063D01*
X56323319Y-40974000D01*
X56387999Y-40979659D01*
X56388000Y-40979659D01*
X56388001Y-40979659D01*
X56452681Y-40974000D01*
X56623408Y-40959063D01*
X56851663Y-40897903D01*
X57065830Y-40798035D01*
X57259401Y-40662495D01*
X57426495Y-40495401D01*
X57556425Y-40309842D01*
X57611002Y-40266217D01*
X57680500Y-40259023D01*
X57742855Y-40290546D01*
X57759575Y-40309842D01*
X57889500Y-40495395D01*
X57889505Y-40495401D01*
X58056599Y-40662495D01*
X58153384Y-40730265D01*
X58250165Y-40798032D01*
X58250167Y-40798033D01*
X58250170Y-40798035D01*
X58464337Y-40897903D01*
X58692592Y-40959063D01*
X58863319Y-40974000D01*
X58927999Y-40979659D01*
X58928000Y-40979659D01*
X58928001Y-40979659D01*
X58992681Y-40974000D01*
X59163408Y-40959063D01*
X59391663Y-40897903D01*
X59605830Y-40798035D01*
X59799401Y-40662495D01*
X59966495Y-40495401D01*
X60096425Y-40309842D01*
X60151002Y-40266217D01*
X60220500Y-40259023D01*
X60282855Y-40290546D01*
X60299575Y-40309842D01*
X60429500Y-40495395D01*
X60429505Y-40495401D01*
X60596599Y-40662495D01*
X60693384Y-40730265D01*
X60790165Y-40798032D01*
X60790167Y-40798033D01*
X60790170Y-40798035D01*
X61004337Y-40897903D01*
X61232592Y-40959063D01*
X61403319Y-40974000D01*
X61467999Y-40979659D01*
X61468000Y-40979659D01*
X61468001Y-40979659D01*
X61532681Y-40974000D01*
X61703408Y-40959063D01*
X61931663Y-40897903D01*
X62145830Y-40798035D01*
X62339401Y-40662495D01*
X62461717Y-40540178D01*
X62523036Y-40506696D01*
X62592728Y-40511680D01*
X62648662Y-40553551D01*
X62665577Y-40584529D01*
X62673275Y-40605168D01*
X62673276Y-40605169D01*
X63516866Y-39761579D01*
X63539318Y-39838040D01*
G37*
%TD.AperFunction*%
%TA.AperFunction,Conductor*%
G36*
X86428703Y-53324660D02*
G01*
X86466477Y-53383438D01*
X86466766Y-53384439D01*
X86505769Y-53521523D01*
X86505775Y-53521538D01*
X86604938Y-53720683D01*
X86604943Y-53720691D01*
X86739020Y-53898238D01*
X86903437Y-54048123D01*
X86903439Y-54048125D01*
X87092595Y-54165245D01*
X87092596Y-54165245D01*
X87092599Y-54165247D01*
X87300060Y-54245618D01*
X87518757Y-54286500D01*
X87518759Y-54286500D01*
X87741241Y-54286500D01*
X87741243Y-54286500D01*
X87959940Y-54245618D01*
X88167401Y-54165247D01*
X88263165Y-54105953D01*
X88339223Y-54058860D01*
X88406583Y-54040305D01*
X88473283Y-54061113D01*
X88518144Y-54114678D01*
X88528500Y-54164287D01*
X88528500Y-55563712D01*
X88508815Y-55630751D01*
X88456011Y-55676506D01*
X88386853Y-55686450D01*
X88339223Y-55669139D01*
X88167404Y-55562754D01*
X88167398Y-55562752D01*
X88140927Y-55552497D01*
X87959940Y-55482382D01*
X87741243Y-55441500D01*
X87518757Y-55441500D01*
X87300060Y-55482382D01*
X87168864Y-55533207D01*
X87092601Y-55562752D01*
X87092595Y-55562754D01*
X86903439Y-55679874D01*
X86903437Y-55679876D01*
X86739020Y-55829761D01*
X86604943Y-56007308D01*
X86604938Y-56007316D01*
X86505775Y-56206461D01*
X86505769Y-56206476D01*
X86466766Y-56343560D01*
X86429487Y-56402654D01*
X86366177Y-56432211D01*
X86296938Y-56422849D01*
X86243751Y-56377539D01*
X86223504Y-56310667D01*
X86223500Y-56309626D01*
X86223500Y-53418373D01*
X86243185Y-53351334D01*
X86295989Y-53305579D01*
X86365147Y-53295635D01*
X86428703Y-53324660D01*
G37*
%TD.AperFunction*%
%TA.AperFunction,Conductor*%
G36*
X109522000Y-55815498D02*
G01*
X109414315Y-55766320D01*
X109307763Y-55751000D01*
X109236237Y-55751000D01*
X109129685Y-55766320D01*
X109022000Y-55815498D01*
X109022000Y-54396501D01*
X109129685Y-54445680D01*
X109236237Y-54461000D01*
X109307763Y-54461000D01*
X109414315Y-54445680D01*
X109522000Y-54396501D01*
X109522000Y-55815498D01*
G37*
%TD.AperFunction*%
%TA.AperFunction,Conductor*%
G36*
X114496539Y-30500185D02*
G01*
X114542294Y-30552989D01*
X114553500Y-30604500D01*
X114553500Y-34120594D01*
X114533815Y-34187633D01*
X114481011Y-34233388D01*
X114411853Y-34243332D01*
X114350465Y-34216142D01*
X114345674Y-34212179D01*
X114342685Y-34209707D01*
X114338377Y-34205787D01*
X114121892Y-33989302D01*
X114088407Y-33927979D01*
X114087736Y-33882258D01*
X114087586Y-33882245D01*
X114087715Y-33880846D01*
X114087686Y-33878826D01*
X114088110Y-33876551D01*
X114088115Y-33876536D01*
X114108643Y-33655000D01*
X114094790Y-33505505D01*
X114088115Y-33433464D01*
X114088114Y-33433462D01*
X114070048Y-33369967D01*
X114027229Y-33219472D01*
X114021984Y-33208938D01*
X113928061Y-33020316D01*
X113928056Y-33020308D01*
X113793979Y-32842761D01*
X113629562Y-32692876D01*
X113629560Y-32692874D01*
X113440404Y-32575754D01*
X113440398Y-32575752D01*
X113421374Y-32568382D01*
X113232940Y-32495382D01*
X113014243Y-32454500D01*
X112791757Y-32454500D01*
X112573060Y-32495382D01*
X112467346Y-32536336D01*
X112365601Y-32575752D01*
X112365595Y-32575754D01*
X112176439Y-32692874D01*
X112176437Y-32692876D01*
X112012020Y-32842761D01*
X111877943Y-33020308D01*
X111877938Y-33020316D01*
X111778775Y-33219461D01*
X111778769Y-33219476D01*
X111717885Y-33433462D01*
X111717884Y-33433464D01*
X111697357Y-33654999D01*
X111697357Y-33655000D01*
X111717884Y-33876535D01*
X111717885Y-33876537D01*
X111778769Y-34090523D01*
X111778775Y-34090538D01*
X111877938Y-34289683D01*
X111877943Y-34289691D01*
X112012020Y-34467238D01*
X112176437Y-34617123D01*
X112176439Y-34617125D01*
X112365595Y-34734245D01*
X112365596Y-34734245D01*
X112365599Y-34734247D01*
X112573060Y-34814618D01*
X112791757Y-34855500D01*
X112791759Y-34855500D01*
X113014240Y-34855500D01*
X113014243Y-34855500D01*
X113122427Y-34835276D01*
X113191940Y-34842307D01*
X113232890Y-34869482D01*
X113257179Y-34893770D01*
X113290666Y-34955092D01*
X113293500Y-34981453D01*
X113293500Y-36248105D01*
X113273815Y-36315144D01*
X113221011Y-36360899D01*
X113151853Y-36370843D01*
X113088297Y-36341818D01*
X113070546Y-36322832D01*
X113035144Y-36275953D01*
X113031981Y-36271764D01*
X113006028Y-36248105D01*
X112867562Y-36121876D01*
X112867560Y-36121874D01*
X112678404Y-36004754D01*
X112678398Y-36004752D01*
X112470940Y-35924382D01*
X112252243Y-35883500D01*
X112029757Y-35883500D01*
X111811060Y-35924382D01*
X111679864Y-35975207D01*
X111603601Y-36004752D01*
X111603595Y-36004754D01*
X111414439Y-36121874D01*
X111414437Y-36121876D01*
X111250020Y-36271761D01*
X111115943Y-36449308D01*
X111115938Y-36449316D01*
X111016775Y-36648461D01*
X111016769Y-36648476D01*
X110955885Y-36862462D01*
X110955884Y-36862464D01*
X110935357Y-37083999D01*
X110935357Y-37084000D01*
X110955884Y-37305535D01*
X110955885Y-37305537D01*
X111016769Y-37519523D01*
X111016775Y-37519538D01*
X111115938Y-37718683D01*
X111115943Y-37718691D01*
X111250020Y-37896238D01*
X111414437Y-38046123D01*
X111414439Y-38046125D01*
X111603595Y-38163245D01*
X111603596Y-38163245D01*
X111603599Y-38163247D01*
X111811060Y-38243618D01*
X112029757Y-38284500D01*
X112029760Y-38284500D01*
X112035466Y-38285029D01*
X112035276Y-38287077D01*
X112093539Y-38304185D01*
X112139294Y-38356989D01*
X112150500Y-38408500D01*
X112150500Y-51619317D01*
X112130815Y-51686356D01*
X112078011Y-51732111D01*
X112008853Y-51742055D01*
X111955378Y-51720893D01*
X111904734Y-51685432D01*
X111786948Y-51630507D01*
X111698497Y-51589261D01*
X111698488Y-51589258D01*
X111478697Y-51530366D01*
X111478693Y-51530365D01*
X111478692Y-51530365D01*
X111478691Y-51530364D01*
X111478686Y-51530364D01*
X111252002Y-51510532D01*
X111251998Y-51510532D01*
X111025313Y-51530364D01*
X111025302Y-51530366D01*
X110805511Y-51589258D01*
X110805506Y-51589260D01*
X110739550Y-51620016D01*
X110670472Y-51630507D01*
X110606689Y-51601987D01*
X110568450Y-51543510D01*
X110563618Y-51518439D01*
X110557141Y-51444400D01*
X110557139Y-51444389D01*
X110498269Y-51224682D01*
X110498265Y-51224673D01*
X110402133Y-51018516D01*
X110402131Y-51018512D01*
X110351025Y-50945526D01*
X109755076Y-51541474D01*
X109731493Y-51461156D01*
X109653761Y-51340202D01*
X109545100Y-51246048D01*
X109414315Y-51186320D01*
X109404533Y-51184913D01*
X109997472Y-50591974D01*
X109997471Y-50591973D01*
X109924483Y-50540866D01*
X109924481Y-50540865D01*
X109718326Y-50444734D01*
X109718317Y-50444730D01*
X109498610Y-50385860D01*
X109498599Y-50385858D01*
X109272002Y-50366034D01*
X109271998Y-50366034D01*
X109045400Y-50385858D01*
X109045389Y-50385860D01*
X108825682Y-50444730D01*
X108825673Y-50444734D01*
X108619513Y-50540868D01*
X108546527Y-50591972D01*
X108546526Y-50591973D01*
X109139467Y-51184913D01*
X109129685Y-51186320D01*
X108998900Y-51246048D01*
X108890239Y-51340202D01*
X108812507Y-51461156D01*
X108788922Y-51541476D01*
X108192973Y-50945527D01*
X108192972Y-50945527D01*
X108143075Y-51016789D01*
X108088498Y-51060414D01*
X108019000Y-51067608D01*
X107956645Y-51036085D01*
X107921231Y-50975856D01*
X107917500Y-50945666D01*
X107917500Y-50932587D01*
X107919224Y-50916967D01*
X107918939Y-50916940D01*
X107919673Y-50909178D01*
X107917500Y-50840017D01*
X107917500Y-50810501D01*
X107917500Y-50810495D01*
X107916631Y-50803624D01*
X107916173Y-50797797D01*
X107916107Y-50795689D01*
X107914710Y-50751218D01*
X107909119Y-50731975D01*
X107905173Y-50712923D01*
X107902664Y-50693053D01*
X107885504Y-50649712D01*
X107883624Y-50644224D01*
X107870618Y-50599455D01*
X107860422Y-50582215D01*
X107851861Y-50564739D01*
X107844487Y-50546115D01*
X107840675Y-50540868D01*
X107817079Y-50508390D01*
X107813888Y-50503531D01*
X107813491Y-50502860D01*
X107790170Y-50463425D01*
X107790168Y-50463423D01*
X107790165Y-50463419D01*
X107776006Y-50449260D01*
X107763368Y-50434464D01*
X107751594Y-50418258D01*
X107715688Y-50388554D01*
X107711376Y-50384631D01*
X103734970Y-46408225D01*
X103701485Y-46346902D01*
X103700814Y-46301181D01*
X103700664Y-46301168D01*
X103700793Y-46299769D01*
X103700764Y-46297749D01*
X103701188Y-46295474D01*
X103701193Y-46295459D01*
X103721721Y-46073923D01*
X103701193Y-45852387D01*
X103640307Y-45638395D01*
X103608424Y-45574365D01*
X103541139Y-45439239D01*
X103541134Y-45439231D01*
X103407057Y-45261684D01*
X103242641Y-45111800D01*
X103242640Y-45111799D01*
X103200300Y-45085583D01*
X103153665Y-45033554D01*
X103141578Y-44980156D01*
X103141578Y-44631005D01*
X106207057Y-44631005D01*
X106226807Y-44944942D01*
X106226808Y-44944949D01*
X106285755Y-45253958D01*
X106382963Y-45553132D01*
X106382965Y-45553137D01*
X106516900Y-45837761D01*
X106516903Y-45837767D01*
X106685457Y-46103367D01*
X106685460Y-46103371D01*
X106776286Y-46213160D01*
X107414266Y-45575180D01*
X107577130Y-45765870D01*
X107767818Y-45928732D01*
X107126971Y-46569579D01*
X107126972Y-46569581D01*
X107369772Y-46745985D01*
X107369790Y-46745996D01*
X107645447Y-46897540D01*
X107645455Y-46897544D01*
X107937926Y-47013340D01*
X108242620Y-47091573D01*
X108242629Y-47091575D01*
X108554701Y-47130999D01*
X108554715Y-47131000D01*
X108869285Y-47131000D01*
X108869298Y-47130999D01*
X109181370Y-47091575D01*
X109181379Y-47091573D01*
X109486073Y-47013340D01*
X109778544Y-46897544D01*
X109778552Y-46897540D01*
X110054209Y-46745996D01*
X110054219Y-46745990D01*
X110297026Y-46569579D01*
X110297027Y-46569579D01*
X109656180Y-45928733D01*
X109846870Y-45765870D01*
X110009733Y-45575181D01*
X110647712Y-46213160D01*
X110738544Y-46103364D01*
X110907096Y-45837767D01*
X110907099Y-45837761D01*
X111041034Y-45553137D01*
X111041036Y-45553132D01*
X111138244Y-45253958D01*
X111197191Y-44944949D01*
X111197192Y-44944942D01*
X111216943Y-44631005D01*
X111216943Y-44630994D01*
X111197192Y-44317057D01*
X111197191Y-44317050D01*
X111138244Y-44008041D01*
X111041036Y-43708867D01*
X111041034Y-43708862D01*
X110907099Y-43424238D01*
X110907096Y-43424232D01*
X110738542Y-43158632D01*
X110738539Y-43158628D01*
X110647712Y-43048838D01*
X110009732Y-43686818D01*
X109846870Y-43496130D01*
X109656180Y-43333266D01*
X110297027Y-42692419D01*
X110297026Y-42692417D01*
X110054227Y-42516014D01*
X110054209Y-42516003D01*
X109778552Y-42364459D01*
X109778544Y-42364455D01*
X109486073Y-42248659D01*
X109181379Y-42170426D01*
X109181370Y-42170424D01*
X108869298Y-42131000D01*
X108554701Y-42131000D01*
X108242629Y-42170424D01*
X108242620Y-42170426D01*
X107937926Y-42248659D01*
X107645455Y-42364455D01*
X107645447Y-42364459D01*
X107369787Y-42516004D01*
X107369782Y-42516007D01*
X107126972Y-42692418D01*
X107126971Y-42692419D01*
X107767819Y-43333266D01*
X107577130Y-43496130D01*
X107414266Y-43686818D01*
X106776286Y-43048838D01*
X106776285Y-43048838D01*
X106685459Y-43158629D01*
X106685457Y-43158632D01*
X106516903Y-43424232D01*
X106516900Y-43424238D01*
X106382965Y-43708862D01*
X106382963Y-43708867D01*
X106285755Y-44008041D01*
X106226808Y-44317050D01*
X106226807Y-44317057D01*
X106207057Y-44630994D01*
X106207057Y-44631005D01*
X103141578Y-44631005D01*
X103141578Y-43611688D01*
X103161263Y-43544649D01*
X103200298Y-43506263D01*
X103242640Y-43480047D01*
X103407059Y-43330159D01*
X103541136Y-43152612D01*
X103640307Y-42953451D01*
X103701193Y-42739459D01*
X103721721Y-42517923D01*
X103721543Y-42516007D01*
X103701193Y-42296387D01*
X103701192Y-42296385D01*
X103676104Y-42208211D01*
X103640307Y-42082395D01*
X103640302Y-42082384D01*
X103541139Y-41883239D01*
X103541134Y-41883231D01*
X103407057Y-41705684D01*
X103242641Y-41555800D01*
X103242640Y-41555799D01*
X103200300Y-41529583D01*
X103153665Y-41477554D01*
X103141578Y-41424156D01*
X103141578Y-40055688D01*
X103161263Y-39988649D01*
X103200298Y-39950263D01*
X103242640Y-39924047D01*
X103407059Y-39774159D01*
X103541136Y-39596612D01*
X103640307Y-39397451D01*
X103701193Y-39183459D01*
X103721721Y-38961923D01*
X103701193Y-38740387D01*
X103640307Y-38526395D01*
X103640302Y-38526384D01*
X103541139Y-38327239D01*
X103541134Y-38327231D01*
X103407057Y-38149684D01*
X103242641Y-37999800D01*
X103242640Y-37999799D01*
X103200300Y-37973583D01*
X103153665Y-37921554D01*
X103141578Y-37868156D01*
X103141578Y-37511542D01*
X103161263Y-37444503D01*
X103214067Y-37398748D01*
X103283225Y-37388804D01*
X103346781Y-37417829D01*
X103384555Y-37476607D01*
X103384844Y-37477608D01*
X103396769Y-37519523D01*
X103396775Y-37519538D01*
X103495938Y-37718683D01*
X103495943Y-37718691D01*
X103630020Y-37896238D01*
X103794437Y-38046123D01*
X103794439Y-38046125D01*
X103983595Y-38163245D01*
X103983596Y-38163245D01*
X103983599Y-38163247D01*
X104191060Y-38243618D01*
X104409757Y-38284500D01*
X104409759Y-38284500D01*
X104632241Y-38284500D01*
X104632243Y-38284500D01*
X104850940Y-38243618D01*
X105058401Y-38163247D01*
X105247562Y-38046124D01*
X105411981Y-37896236D01*
X105546058Y-37718689D01*
X105645229Y-37519528D01*
X105706115Y-37305536D01*
X105726643Y-37084000D01*
X105723591Y-37051068D01*
X105706115Y-36862464D01*
X105706114Y-36862462D01*
X105701163Y-36845062D01*
X105645229Y-36648472D01*
X105627491Y-36612849D01*
X105546061Y-36449316D01*
X105546056Y-36449308D01*
X105411979Y-36271761D01*
X105247562Y-36121876D01*
X105247560Y-36121874D01*
X105058404Y-36004754D01*
X105058398Y-36004752D01*
X104850940Y-35924382D01*
X104632243Y-35883500D01*
X104409757Y-35883500D01*
X104191060Y-35924382D01*
X104059864Y-35975207D01*
X103983601Y-36004752D01*
X103983595Y-36004754D01*
X103794439Y-36121874D01*
X103794437Y-36121876D01*
X103746684Y-36165408D01*
X103683880Y-36196025D01*
X103614493Y-36187826D01*
X103560553Y-36143415D01*
X103539186Y-36076893D01*
X103552146Y-36018499D01*
X103640307Y-35841451D01*
X103701193Y-35627459D01*
X103721721Y-35405923D01*
X103701193Y-35184387D01*
X103640307Y-34970395D01*
X103640302Y-34970384D01*
X103541139Y-34771239D01*
X103541134Y-34771231D01*
X103407057Y-34593684D01*
X103242641Y-34443800D01*
X103242640Y-34443799D01*
X103200300Y-34417583D01*
X103153665Y-34365554D01*
X103141578Y-34312156D01*
X103141578Y-33655000D01*
X104077357Y-33655000D01*
X104097884Y-33876535D01*
X104097885Y-33876537D01*
X104158769Y-34090523D01*
X104158775Y-34090538D01*
X104257938Y-34289683D01*
X104257943Y-34289691D01*
X104392020Y-34467238D01*
X104556437Y-34617123D01*
X104556439Y-34617125D01*
X104745595Y-34734245D01*
X104745596Y-34734245D01*
X104745599Y-34734247D01*
X104953060Y-34814618D01*
X105171757Y-34855500D01*
X105171759Y-34855500D01*
X105394241Y-34855500D01*
X105394243Y-34855500D01*
X105612940Y-34814618D01*
X105820401Y-34734247D01*
X106009562Y-34617124D01*
X106173981Y-34467236D01*
X106308058Y-34289689D01*
X106407229Y-34090528D01*
X106468115Y-33876536D01*
X106488643Y-33655000D01*
X106474790Y-33505505D01*
X106468115Y-33433464D01*
X106468114Y-33433462D01*
X106450048Y-33369967D01*
X106407229Y-33219472D01*
X106401984Y-33208938D01*
X106308061Y-33020316D01*
X106308056Y-33020308D01*
X106173979Y-32842761D01*
X106009562Y-32692876D01*
X106009560Y-32692874D01*
X105820404Y-32575754D01*
X105820398Y-32575752D01*
X105801374Y-32568382D01*
X105612940Y-32495382D01*
X105394243Y-32454500D01*
X105171757Y-32454500D01*
X104953060Y-32495382D01*
X104847346Y-32536336D01*
X104745601Y-32575752D01*
X104745595Y-32575754D01*
X104556439Y-32692874D01*
X104556437Y-32692876D01*
X104392020Y-32842761D01*
X104257943Y-33020308D01*
X104257938Y-33020316D01*
X104158775Y-33219461D01*
X104158769Y-33219476D01*
X104097885Y-33433462D01*
X104097884Y-33433464D01*
X104077357Y-33654999D01*
X104077357Y-33655000D01*
X103141578Y-33655000D01*
X103141578Y-32943688D01*
X103161263Y-32876649D01*
X103200298Y-32838263D01*
X103242640Y-32812047D01*
X103379363Y-32687407D01*
X103407057Y-32662161D01*
X103417125Y-32648830D01*
X103541136Y-32484612D01*
X103640307Y-32285451D01*
X103701193Y-32071459D01*
X103721721Y-31849923D01*
X103701193Y-31628387D01*
X103640307Y-31414395D01*
X103640302Y-31414384D01*
X103541139Y-31215239D01*
X103541134Y-31215231D01*
X103407057Y-31037684D01*
X103242640Y-30887799D01*
X103242638Y-30887797D01*
X103053482Y-30770677D01*
X103053476Y-30770675D01*
X102922994Y-30720125D01*
X102867595Y-30677554D01*
X102844004Y-30611787D01*
X102859715Y-30543707D01*
X102909739Y-30494928D01*
X102967790Y-30480500D01*
X114429500Y-30480500D01*
X114496539Y-30500185D01*
G37*
%TD.AperFunction*%
%TA.AperFunction,Conductor*%
G36*
X88201670Y-35861185D02*
G01*
X88247425Y-35913989D01*
X88257951Y-35978460D01*
X88248540Y-36068010D01*
X88268326Y-36256266D01*
X88268327Y-36256269D01*
X88326818Y-36436287D01*
X88326821Y-36436294D01*
X88421467Y-36600226D01*
X88464772Y-36648320D01*
X88496650Y-36683725D01*
X88526880Y-36746716D01*
X88528500Y-36766697D01*
X88528500Y-41339712D01*
X88508815Y-41406751D01*
X88456011Y-41452506D01*
X88386853Y-41462450D01*
X88339223Y-41445139D01*
X88167404Y-41338754D01*
X88167398Y-41338752D01*
X87959940Y-41258382D01*
X87741243Y-41217500D01*
X87518757Y-41217500D01*
X87300060Y-41258382D01*
X87230502Y-41285329D01*
X87092601Y-41338752D01*
X87092595Y-41338754D01*
X86903439Y-41455874D01*
X86903437Y-41455876D01*
X86739020Y-41605761D01*
X86604943Y-41783308D01*
X86604938Y-41783316D01*
X86505775Y-41982461D01*
X86505769Y-41982476D01*
X86466766Y-42119560D01*
X86429487Y-42178654D01*
X86366177Y-42208211D01*
X86296938Y-42198849D01*
X86243751Y-42153539D01*
X86223504Y-42086667D01*
X86223500Y-42085626D01*
X86223500Y-40976737D01*
X86225224Y-40961123D01*
X86224938Y-40961096D01*
X86225672Y-40953333D01*
X86225058Y-40933806D01*
X86223500Y-40884203D01*
X86223500Y-40854650D01*
X86222629Y-40847759D01*
X86222172Y-40841945D01*
X86220709Y-40795372D01*
X86215122Y-40776144D01*
X86211174Y-40757084D01*
X86208664Y-40737208D01*
X86191507Y-40693875D01*
X86189619Y-40688359D01*
X86176619Y-40643612D01*
X86166418Y-40626363D01*
X86157860Y-40608894D01*
X86150486Y-40590268D01*
X86150483Y-40590264D01*
X86150483Y-40590263D01*
X86123098Y-40552571D01*
X86119890Y-40547687D01*
X86096172Y-40507582D01*
X86096163Y-40507571D01*
X86082005Y-40493413D01*
X86069370Y-40478620D01*
X86057593Y-40462412D01*
X86021693Y-40432713D01*
X86017381Y-40428790D01*
X85668237Y-40079646D01*
X85634752Y-40018323D01*
X85636142Y-39959876D01*
X85663063Y-39859408D01*
X85683659Y-39624000D01*
X85663063Y-39388592D01*
X85608099Y-39183460D01*
X85601905Y-39160344D01*
X85601904Y-39160343D01*
X85601903Y-39160337D01*
X85502035Y-38946171D01*
X85496425Y-38938158D01*
X85366494Y-38752597D01*
X85199402Y-38585506D01*
X85199395Y-38585501D01*
X85005834Y-38449967D01*
X85005830Y-38449965D01*
X84916908Y-38408500D01*
X84791663Y-38350097D01*
X84791659Y-38350096D01*
X84791655Y-38350094D01*
X84563413Y-38288938D01*
X84563403Y-38288936D01*
X84328001Y-38268341D01*
X84327999Y-38268341D01*
X84092596Y-38288936D01*
X84092586Y-38288938D01*
X83864344Y-38350094D01*
X83864335Y-38350098D01*
X83650171Y-38449964D01*
X83650169Y-38449965D01*
X83456597Y-38585505D01*
X83289505Y-38752597D01*
X83159575Y-38938158D01*
X83104998Y-38981783D01*
X83035500Y-38988977D01*
X82973145Y-38957454D01*
X82956425Y-38938158D01*
X82826494Y-38752597D01*
X82659402Y-38585506D01*
X82659395Y-38585501D01*
X82465834Y-38449967D01*
X82465830Y-38449965D01*
X82376908Y-38408500D01*
X82251663Y-38350097D01*
X82251659Y-38350096D01*
X82251655Y-38350094D01*
X82023413Y-38288938D01*
X82023403Y-38288936D01*
X81788001Y-38268341D01*
X81787999Y-38268341D01*
X81552596Y-38288936D01*
X81552586Y-38288938D01*
X81324344Y-38350094D01*
X81324335Y-38350098D01*
X81110171Y-38449964D01*
X81110169Y-38449965D01*
X80916597Y-38585505D01*
X80749505Y-38752597D01*
X80619575Y-38938158D01*
X80564998Y-38981783D01*
X80495500Y-38988977D01*
X80433145Y-38957454D01*
X80416425Y-38938158D01*
X80286494Y-38752597D01*
X80119402Y-38585506D01*
X80119395Y-38585501D01*
X79925834Y-38449967D01*
X79925830Y-38449965D01*
X79836908Y-38408500D01*
X79711663Y-38350097D01*
X79711659Y-38350096D01*
X79711655Y-38350094D01*
X79483413Y-38288938D01*
X79483403Y-38288936D01*
X79248001Y-38268341D01*
X79247999Y-38268341D01*
X79012596Y-38288936D01*
X79012586Y-38288938D01*
X78784344Y-38350094D01*
X78784335Y-38350098D01*
X78570171Y-38449964D01*
X78570169Y-38449965D01*
X78376597Y-38585505D01*
X78209505Y-38752597D01*
X78079575Y-38938158D01*
X78024998Y-38981783D01*
X77955500Y-38988977D01*
X77893145Y-38957454D01*
X77876425Y-38938158D01*
X77746494Y-38752597D01*
X77579402Y-38585506D01*
X77579395Y-38585501D01*
X77385834Y-38449967D01*
X77385830Y-38449965D01*
X77296908Y-38408500D01*
X77171663Y-38350097D01*
X77171659Y-38350096D01*
X77171655Y-38350094D01*
X76943413Y-38288938D01*
X76943403Y-38288936D01*
X76708001Y-38268341D01*
X76707999Y-38268341D01*
X76472596Y-38288936D01*
X76472586Y-38288938D01*
X76244344Y-38350094D01*
X76244335Y-38350098D01*
X76030171Y-38449964D01*
X76030169Y-38449965D01*
X75836597Y-38585505D01*
X75669505Y-38752597D01*
X75539575Y-38938158D01*
X75484998Y-38981783D01*
X75415500Y-38988977D01*
X75353145Y-38957454D01*
X75336425Y-38938158D01*
X75206494Y-38752597D01*
X75039402Y-38585506D01*
X75039395Y-38585501D01*
X74845834Y-38449967D01*
X74845830Y-38449965D01*
X74756908Y-38408500D01*
X74631663Y-38350097D01*
X74631659Y-38350096D01*
X74631655Y-38350094D01*
X74403413Y-38288938D01*
X74403403Y-38288936D01*
X74168001Y-38268341D01*
X74167999Y-38268341D01*
X73932596Y-38288936D01*
X73932586Y-38288938D01*
X73704344Y-38350094D01*
X73704335Y-38350098D01*
X73490171Y-38449964D01*
X73490169Y-38449965D01*
X73296597Y-38585505D01*
X73129505Y-38752597D01*
X72999575Y-38938158D01*
X72944998Y-38981783D01*
X72875500Y-38988977D01*
X72813145Y-38957454D01*
X72796425Y-38938158D01*
X72666494Y-38752597D01*
X72499402Y-38585506D01*
X72499395Y-38585501D01*
X72305834Y-38449967D01*
X72305830Y-38449965D01*
X72216908Y-38408500D01*
X72091663Y-38350097D01*
X72091659Y-38350096D01*
X72091655Y-38350094D01*
X71863413Y-38288938D01*
X71863403Y-38288936D01*
X71628001Y-38268341D01*
X71627999Y-38268341D01*
X71392596Y-38288936D01*
X71392586Y-38288938D01*
X71164344Y-38350094D01*
X71164335Y-38350098D01*
X70950171Y-38449964D01*
X70950169Y-38449965D01*
X70756597Y-38585505D01*
X70589505Y-38752597D01*
X70459575Y-38938158D01*
X70404998Y-38981783D01*
X70335500Y-38988977D01*
X70273145Y-38957454D01*
X70256425Y-38938158D01*
X70126494Y-38752597D01*
X69959402Y-38585506D01*
X69959395Y-38585501D01*
X69765834Y-38449967D01*
X69765830Y-38449965D01*
X69676908Y-38408500D01*
X69551663Y-38350097D01*
X69551659Y-38350096D01*
X69551655Y-38350094D01*
X69323413Y-38288938D01*
X69323403Y-38288936D01*
X69088001Y-38268341D01*
X69087999Y-38268341D01*
X68852596Y-38288936D01*
X68852586Y-38288938D01*
X68624344Y-38350094D01*
X68624335Y-38350098D01*
X68410171Y-38449964D01*
X68410169Y-38449965D01*
X68216597Y-38585505D01*
X68049505Y-38752597D01*
X67919575Y-38938158D01*
X67864998Y-38981783D01*
X67795500Y-38988977D01*
X67733145Y-38957454D01*
X67716425Y-38938158D01*
X67586494Y-38752597D01*
X67419402Y-38585506D01*
X67419395Y-38585501D01*
X67225834Y-38449967D01*
X67225830Y-38449965D01*
X67136908Y-38408500D01*
X67011663Y-38350097D01*
X67011659Y-38350096D01*
X67011655Y-38350094D01*
X66783413Y-38288938D01*
X66783403Y-38288936D01*
X66548001Y-38268341D01*
X66547999Y-38268341D01*
X66312596Y-38288936D01*
X66312586Y-38288938D01*
X66084344Y-38350094D01*
X66084335Y-38350098D01*
X65870171Y-38449964D01*
X65870169Y-38449965D01*
X65676600Y-38585503D01*
X65554284Y-38707819D01*
X65492961Y-38741303D01*
X65423269Y-38736319D01*
X65367336Y-38694447D01*
X65350421Y-38663471D01*
X65342721Y-38642829D01*
X64499132Y-39486418D01*
X64476682Y-39409960D01*
X64397395Y-39286587D01*
X64286562Y-39190549D01*
X64153161Y-39129627D01*
X64149365Y-39129081D01*
X64989169Y-38289276D01*
X64989168Y-38289275D01*
X64965382Y-38280403D01*
X64965372Y-38280401D01*
X64905844Y-38274000D01*
X64001952Y-38274000D01*
X63934913Y-38254315D01*
X63889158Y-38201511D01*
X63879214Y-38132353D01*
X63908239Y-38068797D01*
X63914271Y-38062319D01*
X66098772Y-35877819D01*
X66160095Y-35844334D01*
X66186453Y-35841500D01*
X88134631Y-35841500D01*
X88201670Y-35861185D01*
G37*
%TD.AperFunction*%
%TA.AperFunction,Conductor*%
G36*
X42502855Y-35210546D02*
G01*
X42519575Y-35229842D01*
X42643282Y-35406515D01*
X42649505Y-35415401D01*
X42816599Y-35582495D01*
X42913384Y-35650265D01*
X43010165Y-35718032D01*
X43010167Y-35718033D01*
X43010170Y-35718035D01*
X43224337Y-35817903D01*
X43452592Y-35879063D01*
X43637526Y-35895243D01*
X43687999Y-35899659D01*
X43688000Y-35899659D01*
X43688001Y-35899659D01*
X43720062Y-35896853D01*
X43895812Y-35881477D01*
X43964311Y-35895243D01*
X43994300Y-35917324D01*
X45437181Y-37360205D01*
X45470666Y-37421528D01*
X45473500Y-37447886D01*
X45473500Y-38439099D01*
X45453815Y-38506138D01*
X45420624Y-38540674D01*
X45356599Y-38585505D01*
X45356597Y-38585506D01*
X45189505Y-38752597D01*
X45059575Y-38938158D01*
X45004998Y-38981783D01*
X44935500Y-38988977D01*
X44873145Y-38957454D01*
X44856425Y-38938158D01*
X44726494Y-38752597D01*
X44559402Y-38585506D01*
X44559395Y-38585501D01*
X44365834Y-38449967D01*
X44365830Y-38449965D01*
X44276908Y-38408500D01*
X44151663Y-38350097D01*
X44151659Y-38350096D01*
X44151655Y-38350094D01*
X43923413Y-38288938D01*
X43923403Y-38288936D01*
X43688001Y-38268341D01*
X43687999Y-38268341D01*
X43452596Y-38288936D01*
X43452586Y-38288938D01*
X43224344Y-38350094D01*
X43224335Y-38350098D01*
X43010171Y-38449964D01*
X43010169Y-38449965D01*
X42816600Y-38585503D01*
X42694284Y-38707819D01*
X42632961Y-38741303D01*
X42563269Y-38736319D01*
X42507336Y-38694447D01*
X42490421Y-38663471D01*
X42482721Y-38642829D01*
X41639132Y-39486418D01*
X41616682Y-39409960D01*
X41537395Y-39286587D01*
X41426562Y-39190549D01*
X41293161Y-39129627D01*
X41289365Y-39129081D01*
X42129169Y-38289276D01*
X42129168Y-38289275D01*
X42105382Y-38280403D01*
X42105372Y-38280401D01*
X42045844Y-38274000D01*
X40250155Y-38274000D01*
X40190626Y-38280401D01*
X40166829Y-38289276D01*
X41006635Y-39129081D01*
X41002839Y-39129627D01*
X40869438Y-39190549D01*
X40758605Y-39286587D01*
X40679318Y-39409960D01*
X40656866Y-39486419D01*
X39813276Y-38642829D01*
X39813276Y-38642830D01*
X39805579Y-38663468D01*
X39763708Y-38719403D01*
X39698244Y-38743821D01*
X39629971Y-38728970D01*
X39601715Y-38707819D01*
X39557364Y-38663468D01*
X39479401Y-38585505D01*
X39479397Y-38585502D01*
X39479396Y-38585501D01*
X39285834Y-38449967D01*
X39285830Y-38449965D01*
X39196908Y-38408500D01*
X39071663Y-38350097D01*
X39071659Y-38350096D01*
X39071655Y-38350094D01*
X38843413Y-38288938D01*
X38843403Y-38288936D01*
X38608001Y-38268341D01*
X38607999Y-38268341D01*
X38372596Y-38288936D01*
X38372586Y-38288938D01*
X38144344Y-38350094D01*
X38144335Y-38350098D01*
X37930171Y-38449964D01*
X37930169Y-38449965D01*
X37736597Y-38585505D01*
X37569505Y-38752597D01*
X37439575Y-38938158D01*
X37384998Y-38981783D01*
X37315500Y-38988977D01*
X37253145Y-38957454D01*
X37236425Y-38938158D01*
X37106494Y-38752597D01*
X36939404Y-38585508D01*
X36939402Y-38585506D01*
X36939401Y-38585505D01*
X36939396Y-38585501D01*
X36939393Y-38585499D01*
X36875376Y-38540673D01*
X36831751Y-38486096D01*
X36822500Y-38439099D01*
X36822500Y-37447885D01*
X36842185Y-37380846D01*
X36858814Y-37360209D01*
X38288205Y-35930817D01*
X38349528Y-35897333D01*
X38375886Y-35894499D01*
X39505871Y-35894499D01*
X39505872Y-35894499D01*
X39565483Y-35888091D01*
X39700331Y-35837796D01*
X39815546Y-35751546D01*
X39901796Y-35636331D01*
X39950810Y-35504916D01*
X39992681Y-35448984D01*
X40058145Y-35424566D01*
X40126418Y-35439417D01*
X40154673Y-35460569D01*
X40276599Y-35582495D01*
X40373384Y-35650265D01*
X40470165Y-35718032D01*
X40470167Y-35718033D01*
X40470170Y-35718035D01*
X40684337Y-35817903D01*
X40912592Y-35879063D01*
X41097526Y-35895243D01*
X41147999Y-35899659D01*
X41148000Y-35899659D01*
X41148001Y-35899659D01*
X41198474Y-35895243D01*
X41383408Y-35879063D01*
X41611663Y-35817903D01*
X41825830Y-35718035D01*
X42019401Y-35582495D01*
X42186495Y-35415401D01*
X42316425Y-35229842D01*
X42371002Y-35186217D01*
X42440500Y-35179023D01*
X42502855Y-35210546D01*
G37*
%TD.AperFunction*%
%TD*%
M02*
